<?xml version="1.0" encoding="UTF-8" standalone="no"?>
<!-- Created with Inkscape (http://www.inkscape.org/) -->

<svg
   xmlns:dc="http://purl.org/dc/elements/1.1/"
   xmlns:cc="http://creativecommons.org/ns#"
   xmlns:rdf="http://www.w3.org/1999/02/22-rdf-syntax-ns#"
   xmlns:svg="http://www.w3.org/2000/svg"
   xmlns="http://www.w3.org/2000/svg"
   xmlns:sodipodi="http://sodipodi.sourceforge.net/DTD/sodipodi-0.dtd"
   xmlns:inkscape="http://www.inkscape.org/namespaces/inkscape"
   width="913.26703"
   height="544.27094"
   id="svg2"
   version="1.1"
   inkscape:version="0.48.3.1 r9886"
   sodipodi:docname="New document 1">
  <defs
     id="defs4" />
  <sodipodi:namedview
     id="base"
     pagecolor="#ffffff"
     bordercolor="#666666"
     borderopacity="1.0"
     inkscape:pageopacity="0.0"
     inkscape:pageshadow="2"
     inkscape:zoom="0.77733858"
     inkscape:cx="307.75847"
     inkscape:cy="326.81015"
     inkscape:document-units="px"
     inkscape:current-layer="layer2"
     showgrid="false"
     showguides="true"
     inkscape:guide-bbox="true"
     fit-margin-top="0"
     fit-margin-left="0"
     fit-margin-right="0"
     fit-margin-bottom="0"
     inkscape:window-width="1916"
     inkscape:window-height="1041"
     inkscape:window-x="0"
     inkscape:window-y="18"
     inkscape:window-maximized="0" />
  <metadata
     id="metadata7">
    <rdf:RDF>
      <cc:Work
         rdf:about="">
        <dc:format>image/svg+xml</dc:format>
        <dc:type
           rdf:resource="http://purl.org/dc/dcmitype/StillImage" />
        <dc:title></dc:title>
      </cc:Work>
    </rdf:RDF>
  </metadata>
  <g
     inkscape:label="Layer 1"
     inkscape:groupmode="layer"
     id="layer1"
     transform="translate(-43.45687,-370.15661)"
     style="display:inline" />
  <g
     inkscape:groupmode="layer"
     id="layer2"
     inkscape:label="Layer 2"
     transform="translate(-43.45687,-61.888913)">
    <path
       style="color:#000000;fill:none;stroke:#c047be;stroke-width:6;stroke-linecap:butt;stroke-linejoin:miter;stroke-miterlimit:4;stroke-opacity:1;stroke-dasharray:none;stroke-dashoffset:0;marker:none;visibility:visible;display:inline;overflow:visible;enable-background:accumulate"
       d="m 77.320331,530.32651 81.868589,-220.13554 77.32033,-87.32649 81.86858,-62.76591 78.22999,0 80.04928,43.66324 78.22998,64.58522 80.95894,85.50719 79.13963,88.23614 80.04929,43.66325 79.13963,44.5729 79.13963,20.92197 0,0"
       id="path4497"
       inkscape:connector-curvature="0" />
    <path
       style="color:#000000;fill:none;stroke:#c04747;stroke-width:6;stroke-linecap:butt;stroke-linejoin:miter;stroke-miterlimit:4;stroke-opacity:1;stroke-dasharray:none;stroke-dashoffset:0;marker:none;visibility:visible;display:inline;overflow:visible;enable-background:accumulate"
       d="m 635.84602,572.17045 -80.95894,-6.14014 -78.22998,-5.2305 -80.04928,0 -78.22999,-9.55133 -81.86858,-20.92197 -77.32033,-22.74128 -81.868589,22.74128"
       id="path4499"
       inkscape:connector-curvature="0" />
    <path
       style="color:#000000;fill:none;stroke:#47c06f;stroke-width:6;stroke-linecap:butt;stroke-linejoin:miter;stroke-miterlimit:4;stroke-opacity:1;stroke-dasharray:none;stroke-dashoffset:0;marker:none;visibility:visible;display:inline;overflow:visible;enable-background:accumulate"
       d="m 77.320331,551.24848 81.868589,-20.92197 77.32033,-22.74128 81.86858,-21.83162 78.22999,-22.74128 80.04928,-20.92197 78.22998,0 80.95894,20.92197 79.13963,22.74128 80.04929,21.83162 0,0 79.13963,22.74128 79.13963,20.92197"
       id="path4501"
       inkscape:connector-curvature="0" />
    <path
       style="color:#000000;fill:none;stroke:#5847c0;stroke-width:6;stroke-linecap:butt;stroke-linejoin:miter;stroke-miterlimit:4;stroke-opacity:1;stroke-dasharray:none;stroke-dashoffset:0;marker:none;visibility:visible;display:inline;overflow:visible;enable-background:accumulate"
       d="m 953.3142,530.32651 -79.13963,-220.13554 -79.13963,-87.32649 -80.04929,-62.76591 -79.13963,0 -80.95894,43.66324 -78.22998,64.58522 -80.04928,85.50719 -78.22999,88.23614 -81.86858,43.66325 -77.32033,44.5729 -81.868589,20.92197 0,0"
       id="path4503"
       inkscape:connector-curvature="0" />
    <path
       style="color:#000000;fill:none;stroke:#c0bb47;stroke-width:6;stroke-linecap:butt;stroke-linejoin:miter;stroke-miterlimit:4;stroke-opacity:1;stroke-dasharray:none;stroke-dashoffset:0;marker:none;visibility:visible;display:inline;overflow:visible;enable-background:accumulate"
       d="m 396.60782,572.17045 80.04928,-6.14014 78.22998,-5.2305 80.95894,0 79.13963,-9.55133 80.04929,-20.92197 79.13963,-22.74128 79.13963,22.74128"
       id="path4505"
       inkscape:connector-curvature="0" />
    <path
       style="color:#000000;fill:none;stroke:#0000ff;stroke-width:3;stroke-linecap:butt;stroke-linejoin:miter;stroke-miterlimit:4;stroke-opacity:1;stroke-dasharray:none;stroke-dashoffset:0;marker:none;visibility:visible;display:inline;overflow:visible;enable-background:accumulate"
       d="M 78.229982,134.62834 77.320331,572.17045 954.22385,571.2608"
       id="path4441"
       inkscape:connector-curvature="0" />
    <g
       id="g5427"
       transform="translate(-15.038734,-540)">
      <rect
         y="603.88892"
         x="91.859062"
         height="21.869492"
         width="20.583052"
         id="rect4515"
         style="fill:#c04747;fill-opacity:1;stroke:#c04747;stroke-width:4;stroke-miterlimit:4;stroke-opacity:1;stroke-dasharray:none;stroke-dashoffset:0" />
      <g
         transform="translate(1.8193019,0.3733418)"
         id="flowRoot4525"
         style="font-size:22px;font-style:normal;font-variant:normal;font-weight:bold;font-stretch:normal;text-align:start;line-height:125%;letter-spacing:0px;word-spacing:0px;text-anchor:start;fill:#000000;fill-opacity:1;stroke:none;font-family:Nimbus Sans L;-inkscape-font-specification:Sans Bold">
        <path
           inkscape:connector-curvature="0"
           id="path4664"
           d="m 127.4985,606.17832 -3.3,0 0,16.038 3.3,0 0,-16.038" />
        <path
           inkscape:connector-curvature="0"
           id="path4666"
           d="m 130.30006,610.33632 0,11.88 3.08,0 0,-7.128 c 0,-1.408 0.99,-2.332 2.486,-2.332 1.32,0 1.98,0.726 1.98,2.134 l 0,7.326 3.08,0 0,-7.964 c 0,-2.618 -1.452,-4.114 -3.982,-4.114 -1.606,0 -2.684,0.594 -3.564,1.914 l 0,-1.716 -3.08,0" />
        <path
           inkscape:connector-curvature="0"
           id="path4668"
           d="m 146.91728,610.33632 -3.08,0 0,11.88 3.08,0 0,-11.88 m 0,-4.158 -3.08,0 0,2.75 3.08,0 0,-2.75" />
        <path
           inkscape:connector-curvature="0"
           id="path4670"
           d="m 159.94884,614.78032 c -0.22,-2.904 -2.156,-4.642 -5.126,-4.642 -3.54199,0 -5.61,2.332 -5.61,6.38 0,3.916 2.04601,6.204 5.566,6.204 2.882,0 4.884,-1.782 5.17,-4.62 l -2.948,0 c -0.396,1.54 -1.012,2.134 -2.2,2.134 -1.56199,0 -2.508,-1.408 -2.508,-3.718 0,-1.122 0.22,-2.178 0.594,-2.882 0.352,-0.66 1.034,-1.012 1.914,-1.012 1.254,0 1.848,0.594 2.2,2.156 l 2.948,0" />
        <path
           inkscape:connector-curvature="0"
           id="path4672"
           d="m 165.26494,610.33632 -3.08,0 0,11.88 3.08,0 0,-11.88 m 0,-4.158 -3.08,0 0,2.75 3.08,0 0,-2.75" />
        <path
           inkscape:connector-curvature="0"
           id="path4674"
           d="m 173.4345,610.13832 c -3.63,0 -5.852,2.398 -5.852,6.292 0,3.916 2.222,6.292 5.874,6.292 3.608,0 5.874,-2.398 5.874,-6.204 0,-4.026 -2.178,-6.38 -5.896,-6.38 m 0.022,2.486 c 1.694,0 2.794,1.518 2.794,3.85 0,2.222 -1.144,3.762 -2.794,3.762 -1.672,0 -2.794,-1.54 -2.794,-3.806 0,-2.266 1.122,-3.806 2.794,-3.806" />
      </g>
    </g>
    <g
       id="g5437"
       transform="translate(105.76133,-572.74744)">
      <rect
         style="fill:#c047be;fill-opacity:1;stroke:#c047be;stroke-width:4;stroke-miterlimit:4;stroke-opacity:1;stroke-dasharray:none;stroke-dashoffset:0"
         id="rect4517"
         width="20.583052"
         height="21.869492"
         x="91.859062"
         y="636.63635" />
      <g
         transform="translate(2.4395519,-0.22747167)"
         id="flowRoot4533"
         style="font-size:22px;font-style:normal;font-variant:normal;font-weight:bold;font-stretch:normal;text-align:start;line-height:125%;letter-spacing:0px;word-spacing:0px;text-anchor:start;fill:#000000;fill-opacity:1;stroke:none;font-family:Nimbus Sans L;-inkscape-font-specification:Sans Bold">
        <path
           inkscape:connector-curvature="0"
           id="path4637"
           d="m 126.87825,650.15257 4.114,0 c 2.948,0 4.84,-2.09 4.84,-5.346 0,-3.212 -1.826,-4.972 -5.17,-4.972 l -7.084,0 0,16.038 3.3,0 0,-5.72 m 0,-2.75 0,-4.818 3.08,0 c 1.76,0 2.574,0.77 2.574,2.42 0,1.628 -0.814,2.398 -2.574,2.398 l -3.08,0" />
        <path
           inkscape:connector-curvature="0"
           id="path4639"
           d="m 141.15556,639.83457 -3.08,0 0,16.038 3.08,0 0,-16.038" />
        <path
           inkscape:connector-curvature="0"
           id="path4641"
           d="m 154.23112,655.49857 c -0.54999,-0.506 -0.704,-0.836 -0.704,-1.452 l 0,-6.6 c 0,-2.42 -1.65,-3.652 -4.862,-3.652 -3.21199,0 -4.884,1.364 -5.082,4.114 l 2.97,0 c 0.154,-1.232 0.66001,-1.628 2.178,-1.628 1.188,0 1.782,0.396 1.782,1.188 0,0.396 -0.198,0.748 -0.528,0.924 -0.41799,0.22 -0.418,0.22 -1.936,0.462 l -1.232,0.22 c -2.35399,0.396 -3.49799,1.606 -3.49799,3.74 0,1.012 0.286,1.848 0.83599,2.442 0.682,0.704 1.71601,1.122 2.772,1.122 1.32,0 2.53001,-0.572 3.608,-1.694 0,0.616 0.066,0.836 0.352,1.188 l 3.344,0 0,-0.374 m -3.718,-4.4 c 0,1.782 -0.88,2.794 -2.442,2.794 -1.03399,0 -1.672,-0.55 -1.672,-1.43 0,-0.924 0.48401,-1.364 1.76,-1.628 l 1.056,-0.198 c 0.814,-0.154 0.94601,-0.198 1.298,-0.374 l 0,0.836" />
        <path
           inkscape:connector-curvature="0"
           id="path4643"
           d="m 156.33522,643.99257 0,11.88 3.08,0 0,-7.128 c 0,-1.408 0.99,-2.332 2.486,-2.332 1.32,0 1.98,0.726 1.98,2.134 l 0,7.326 3.08,0 0,-7.964 c 0,-2.618 -1.452,-4.114 -3.982,-4.114 -1.606,0 -2.684,0.594 -3.564,1.914 l 0,-1.716 -3.08,0" />
        <path
           inkscape:connector-curvature="0"
           id="path4645"
           d="m 172.95244,643.99257 -3.08,0 0,11.88 3.08,0 0,-11.88 m 0,-4.158 -3.08,0 0,2.75 3.08,0 0,-2.75" />
        <path
           inkscape:connector-curvature="0"
           id="path4647"
           d="m 181.386,644.23457 -1.826,0 0,-1.166 c 0,-0.616 0.264,-0.924 0.836,-0.924 0.264,0 0.616,0.022 0.88,0.066 l 0,-2.31 c -0.572,-0.044 -1.342,-0.066 -1.76,-0.066 -2.046,0 -3.036,0.968 -3.036,2.97 l 0,1.43 -1.672,0 0,2.046 1.672,0 0,9.592 3.08,0 0,-9.592 1.826,0 0,-2.046" />
        <path
           inkscape:connector-curvature="0"
           id="path4649"
           d="m 186.40166,643.99257 -3.08,0 0,11.88 3.08,0 0,-11.88 m 0,-4.158 -3.08,0 0,2.75 3.08,0 0,-2.75" />
        <path
           inkscape:connector-curvature="0"
           id="path4651"
           d="m 199.43322,648.43657 c -0.22,-2.904 -2.156,-4.642 -5.126,-4.642 -3.542,0 -5.61,2.332 -5.61,6.38 0,3.916 2.046,6.204 5.566,6.204 2.882,0 4.884,-1.782 5.17,-4.62 l -2.948,0 c -0.396,1.54 -1.012,2.134 -2.2,2.134 -1.562,0 -2.508,-1.408 -2.508,-3.718 0,-1.122 0.22,-2.178 0.594,-2.882 0.352,-0.66 1.034,-1.012 1.914,-1.012 1.254,0 1.848,0.594 2.2,2.156 l 2.948,0" />
        <path
           inkscape:connector-curvature="0"
           id="path4653"
           d="m 211.72331,655.49857 c -0.55,-0.506 -0.704,-0.836 -0.704,-1.452 l 0,-6.6 c 0,-2.42 -1.65,-3.652 -4.862,-3.652 -3.21199,0 -4.884,1.364 -5.082,4.114 l 2.97,0 c 0.154,-1.232 0.66,-1.628 2.178,-1.628 1.188,0 1.782,0.396 1.782,1.188 0,0.396 -0.198,0.748 -0.528,0.924 -0.418,0.22 -0.418,0.22 -1.936,0.462 l -1.232,0.22 c -2.354,0.396 -3.498,1.606 -3.498,3.74 0,1.012 0.286,1.848 0.836,2.442 0.682,0.704 1.716,1.122 2.772,1.122 1.32,0 2.53,-0.572 3.608,-1.694 0,0.616 0.066,0.836 0.352,1.188 l 3.344,0 0,-0.374 m -3.718,-4.4 c 0,1.782 -0.88,2.794 -2.442,2.794 -1.034,0 -1.672,-0.55 -1.672,-1.43 0,-0.924 0.484,-1.364 1.76,-1.628 l 1.056,-0.198 c 0.814,-0.154 0.946,-0.198 1.298,-0.374 l 0,0.836" />
        <path
           inkscape:connector-curvature="0"
           id="path4655"
           d="m 223.92541,648.43657 c -0.22,-2.904 -2.15601,-4.642 -5.126,-4.642 -3.542,0 -5.61,2.332 -5.61,6.38 0,3.916 2.046,6.204 5.566,6.204 2.88199,0 4.884,-1.782 5.17,-4.62 l -2.948,0 c -0.396,1.54 -1.012,2.134 -2.2,2.134 -1.562,0 -2.508,-1.408 -2.508,-3.718 0,-1.122 0.22,-2.178 0.594,-2.882 0.352,-0.66 1.034,-1.012 1.914,-1.012 1.25399,0 1.848,0.594 2.2,2.156 l 2.948,0" />
        <path
           inkscape:connector-curvature="0"
           id="path4657"
           d="m 229.2415,643.99257 -3.08,0 0,11.88 3.08,0 0,-11.88 m 0,-4.158 -3.08,0 0,2.75 3.08,0 0,-2.75" />
        <path
           inkscape:connector-curvature="0"
           id="path4659"
           d="m 237.41106,643.79457 c -3.62999,0 -5.852,2.398 -5.852,6.292 0,3.916 2.22201,6.292 5.874,6.292 3.608,0 5.874,-2.398 5.874,-6.204 0,-4.026 -2.178,-6.38 -5.896,-6.38 m 0.022,2.486 c 1.694,0 2.794,1.518 2.794,3.85 0,2.222 -1.144,3.762 -2.794,3.762 -1.672,0 -2.794,-1.54 -2.794,-3.806 0,-2.266 1.122,-3.806 2.794,-3.806 m 3.058,-7.062 -2.772,0 -1.54,3.3 1.54,0 2.772,-3.3" />
        <path
           inkscape:connector-curvature="0"
           id="path4661"
           d="m 245.62428,643.99257 0,11.88 3.08,0 0,-7.128 c 0,-1.408 0.99,-2.332 2.486,-2.332 1.32,0 1.98,0.726 1.98,2.134 l 0,7.326 3.08,0 0,-7.964 c 0,-2.618 -1.452,-4.114 -3.982,-4.114 -1.606,0 -2.684,0.594 -3.564,1.914 l 0,-1.716 -3.08,0" />
      </g>
    </g>
    <g
       id="g5454"
       transform="translate(304.10145,-605.49487)">
      <rect
         y="669.38379"
         x="91.859062"
         height="21.869492"
         width="20.583052"
         id="rect4519"
         style="fill:#5847c0;fill-opacity:1;stroke:#5847c0;stroke-width:4;stroke-miterlimit:4;stroke-opacity:1;stroke-dasharray:none;stroke-dashoffset:0" />
      <g
         transform="translate(1.4673019,-1.4687851)"
         id="flowRoot4541"
         style="font-size:22px;font-style:normal;font-variant:normal;font-weight:bold;font-stretch:normal;text-align:start;line-height:125%;letter-spacing:0px;word-spacing:0px;text-anchor:start;fill:#000000;fill-opacity:1;stroke:none;font-family:Nimbus Sans L;-inkscape-font-specification:Sans Bold">
        <path
           inkscape:connector-curvature="0"
           id="path4618"
           d="m 127.8505,680.80832 7.678,0 0,-2.75 -7.678,0 0,-3.63 8.294,0 0,-2.75 -11.594,0 0,16.038 11.99,0 0,-2.75 -8.69,0 0,-4.158" />
        <path
           inkscape:connector-curvature="0"
           id="path4620"
           d="m 142.12781,675.83632 -3.08,0 0,13.266 c 0,0.682 -0.242,0.924 -0.902,0.924 -0.198,0 -0.33,-0.022 -0.55,-0.088 l 0,2.464 c 0.616,0.066 1.386,0.11 1.826,0.11 1.914,0 2.706,-0.792 2.706,-2.728 l 0,-13.948 m 0,-4.158 -3.08,0 0,2.75 3.08,0 0,-2.75" />
        <path
           inkscape:connector-curvature="0"
           id="path4622"
           d="m 155.13737,682.74432 c 0.022,-0.264 0.022,-0.374 0.022,-0.528 0,-1.188 -0.176,-2.288 -0.462,-3.124 -0.79199,-2.156 -2.706,-3.454 -5.104,-3.454 -3.40999,0 -5.5,2.464 -5.5,6.446 0,3.806 2.06801,6.138 5.434,6.138 2.662,0 4.81801,-1.518 5.5,-3.85 l -3.036,0 c -0.37399,0.946 -1.232,1.496 -2.354,1.496 -0.87999,0 -1.584,-0.374 -2.024,-1.034 -0.28599,-0.44 -0.396,-0.968 -0.44,-2.09 l 7.964,0 m -7.92,-2.046 c 0.198,-1.804 0.96801,-2.706 2.332,-2.706 0.77,0 1.47401,0.374 1.914,0.99 0.286,0.44 0.41801,0.902 0.484,1.716 l -4.73,0" />
        <path
           inkscape:connector-curvature="0"
           id="path4624"
           d="m 167.33947,680.28032 c -0.22,-2.904 -2.156,-4.642 -5.126,-4.642 -3.542,0 -5.61,2.332 -5.61,6.38 0,3.916 2.046,6.204 5.566,6.204 2.882,0 4.884,-1.782 5.17,-4.62 l -2.948,0 c -0.396,1.54 -1.012,2.134 -2.2,2.134 -1.562,0 -2.508,-1.408 -2.508,-3.718 0,-1.122 0.22,-2.178 0.594,-2.882 0.352,-0.66 1.034,-1.012 1.914,-1.012 1.254,0 1.848,0.594 2.2,2.156 l 2.948,0" />
        <path
           inkscape:connector-curvature="0"
           id="path4626"
           d="m 180.00356,687.71632 0,-11.88 -3.08,0 0,7.436 c 0,1.408 -0.99,2.332 -2.486,2.332 -1.32,0 -1.98,-0.704 -1.98,-2.134 l 0,-7.634 -3.08,0 0,8.272 c 0,2.618 1.45201,4.114 3.982,4.114 1.606,0 2.684,-0.594 3.564,-1.914 l 0,1.408 3.08,0" />
        <path
           inkscape:connector-curvature="0"
           id="path4628"
           d="m 193.03478,680.28032 c -0.22,-2.904 -2.156,-4.642 -5.126,-4.642 -3.542,0 -5.61,2.332 -5.61,6.38 0,3.916 2.046,6.204 5.566,6.204 2.882,0 4.884,-1.782 5.17,-4.62 l -2.948,0 c -0.396,1.54 -1.012,2.134 -2.2,2.134 -1.562,0 -2.508,-1.408 -2.508,-3.718 0,-1.122 0.22,-2.178 0.594,-2.882 0.352,-0.66 1.034,-1.012 1.914,-1.012 1.254,0 1.848,0.594 2.2,2.156 l 2.948,0" />
        <path
           inkscape:connector-curvature="0"
           id="path4630"
           d="m 198.35087,675.83632 -3.08,0 0,11.88 3.08,0 0,-11.88 m 0,-4.158 -3.08,0 0,2.75 3.08,0 0,-2.75" />
        <path
           inkscape:connector-curvature="0"
           id="path4632"
           d="m 206.52044,675.63832 c -3.63,0 -5.852,2.398 -5.852,6.292 0,3.916 2.222,6.292 5.874,6.292 3.60799,0 5.874,-2.398 5.874,-6.204 0,-4.026 -2.17801,-6.38 -5.896,-6.38 m 0.022,2.486 c 1.694,0 2.794,1.518 2.794,3.85 0,2.222 -1.144,3.762 -2.794,3.762 -1.672,0 -2.794,-1.54 -2.794,-3.806 0,-2.266 1.122,-3.806 2.794,-3.806 m 3.058,-7.062 -2.772,0 -1.54,3.3 1.54,0 2.772,-3.3" />
        <path
           inkscape:connector-curvature="0"
           id="path4634"
           d="m 214.73366,675.83632 0,11.88 3.08,0 0,-7.128 c 0,-1.408 0.99,-2.332 2.486,-2.332 1.31999,0 1.98,0.726 1.98,2.134 l 0,7.326 3.08,0 0,-7.964 c 0,-2.618 -1.45201,-4.114 -3.982,-4.114 -1.606,0 -2.684,0.594 -3.564,1.914 l 0,-1.716 -3.08,0" />
      </g>
    </g>
    <g
       id="g5467"
       transform="translate(470.57868,-638.24231)">
      <rect
         style="fill:#47c06f;fill-opacity:1;stroke:#47c06f;stroke-width:4;stroke-miterlimit:4;stroke-opacity:1;stroke-dasharray:none;stroke-dashoffset:0"
         id="rect4521"
         width="20.583052"
         height="21.869492"
         x="91.859062"
         y="702.13123" />
      <g
         transform="translate(3.4075519,-7.0958486)"
         id="flowRoot4549"
         style="font-size:22px;font-style:normal;font-variant:normal;font-weight:bold;font-stretch:normal;text-align:start;line-height:125%;letter-spacing:0px;word-spacing:0px;text-anchor:start;fill:#000000;fill-opacity:1;stroke:none;font-family:Nimbus Sans L;-inkscape-font-specification:Sans Bold">
        <path
           inkscape:connector-curvature="0"
           id="path4579"
           d="m 135.26025,714.74982 c 0,-1.474 -0.33,-2.442 -1.122,-3.322 -1.078,-1.188 -2.86,-1.826 -5.17,-1.826 -3.85,0 -6.072,1.804 -6.072,4.928 0,2.486 1.254,3.696 4.51,4.312 l 2.244,0.44 c 2.2,0.418 3.014,1.034 3.014,2.332 0,1.342 -1.232,2.156 -3.234,2.156 -2.244,0 -3.498,-0.946 -3.608,-2.662 l -3.212,0 c 0.198,3.432 2.552,5.302 6.644,5.302 4.136,0 6.578,-1.936 6.578,-5.192 0,-2.53 -1.276,-3.85 -4.246,-4.422 l -2.508,-0.484 c -2.354,-0.462 -3.036,-0.924 -3.036,-2.09 0,-1.21 1.078,-1.98 2.772,-1.98 2.09,0 3.256,0.88 3.366,2.508 l 3.08,0" />
        <path
           inkscape:connector-curvature="0"
           id="path4581"
           d="m 148.12956,720.93182 c 0.022,-0.264 0.022,-0.374 0.022,-0.528 0,-1.188 -0.176,-2.288 -0.462,-3.124 -0.792,-2.156 -2.706,-3.454 -5.104,-3.454 -3.40999,0 -5.5,2.464 -5.5,6.446 0,3.806 2.06801,6.138 5.434,6.138 2.662,0 4.818,-1.518 5.5,-3.85 l -3.036,0 c -0.374,0.946 -1.232,1.496 -2.354,1.496 -0.88,0 -1.584,-0.374 -2.024,-1.034 -0.286,-0.44 -0.396,-0.968 -0.44,-2.09 l 7.964,0 m -7.92,-2.046 c 0.198,-1.804 0.968,-2.706 2.332,-2.706 0.77,0 1.474,0.374 1.914,0.99 0.286,0.44 0.418,0.902 0.484,1.716 l -4.73,0" />
        <path
           inkscape:connector-curvature="0"
           id="path4583"
           d="m 157.82366,714.02382 0,1.826 c -0.924,-1.408 -1.93601,-2.024 -3.3,-2.024 -2.816,0 -4.928,2.75 -4.928,6.424 0,3.696 1.936,6.16 4.862,6.16 1.38599,0 2.222,-0.418 3.366,-1.716 l 0,1.606 c 0,1.43 -1.07801,2.42 -2.618,2.42 -1.166,0 -1.936,-0.484 -2.178,-1.386 l -3.19,0 c 0.022,0.924 0.374,1.562 1.166,2.222 0.946,0.77 2.266,1.144 4.092,1.144 3.58599,0 5.654,-1.606 5.654,-4.4 l 0,-12.276 -2.926,0 m -2.64,2.376 c 1.53999,0 2.684,1.606 2.684,3.806 0,2.156 -1.12201,3.63 -2.728,3.63 -1.452,0 -2.464,-1.474 -2.464,-3.63 0,-2.244 1.012,-3.806 2.508,-3.806" />
        <path
           inkscape:connector-curvature="0"
           id="path4585"
           d="m 174.19887,725.90382 0,-11.88 -3.08,0 0,7.436 c 0,1.408 -0.99,2.332 -2.48599,2.332 -1.32,0 -1.98001,-0.704 -1.98001,-2.134 l 0,-7.634 -3.08,0 0,8.272 c 0,2.618 1.45201,4.114 3.982,4.114 1.606,0 2.68401,-0.594 3.564,-1.914 l 0,1.408 3.08,0" />
        <path
           inkscape:connector-curvature="0"
           id="path4587"
           d="m 180.30009,714.02382 -3.08,0 0,11.88 3.08,0 0,-11.88 m 0,-4.158 -3.08,0 0,2.75 3.08,0 0,-2.75" />
        <path
           inkscape:connector-curvature="0"
           id="path4589"
           d="m 183.16766,714.02382 0,11.88 3.08,0 0,-7.128 c 0,-1.452 0.792,-2.332 2.112,-2.332 1.034,0 1.672,0.594 1.672,1.54 l 0,7.92 3.08,0 0,-7.128 c 0,-1.452 0.792,-2.332 2.112,-2.332 1.034,0 1.672,0.594 1.672,1.54 l 0,7.92 3.08,0 0,-8.404 c 0,-2.31 -1.40801,-3.674 -3.784,-3.674 -1.496,0 -2.552,0.528 -3.476,1.76 -0.572,-1.122 -1.76001,-1.76 -3.234,-1.76 -1.364,0 -2.244,0.462 -3.256,1.672 l 0,-1.474 -3.058,0" />
        <path
           inkscape:connector-curvature="0"
           id="path4591"
           d="m 205.95244,714.02382 -3.08,0 0,11.88 3.08,0 0,-11.88 m 0,-4.158 -3.08,0 0,2.75 3.08,0 0,-2.75" />
        <path
           inkscape:connector-curvature="0"
           id="path4593"
           d="m 219.028,720.93182 c 0.022,-0.264 0.022,-0.374 0.022,-0.528 0,-1.188 -0.176,-2.288 -0.462,-3.124 -0.792,-2.156 -2.706,-3.454 -5.104,-3.454 -3.41,0 -5.5,2.464 -5.5,6.446 0,3.806 2.068,6.138 5.434,6.138 2.662,0 4.818,-1.518 5.5,-3.85 l -3.036,0 c -0.374,0.946 -1.232,1.496 -2.354,1.496 -0.88,0 -1.584,-0.374 -2.024,-1.034 -0.286,-0.44 -0.396,-0.968 -0.44,-2.09 l 7.964,0 m -7.92,-2.046 c 0.198,-1.804 0.968,-2.706 2.332,-2.706 0.77,0 1.474,0.374 1.914,0.99 0.286,0.44 0.418,0.902 0.484,1.716 l -4.73,0" />
        <path
           inkscape:connector-curvature="0"
           id="path4595"
           d="m 221.13209,714.02382 0,11.88 3.08,0 0,-7.128 c 0,-1.408 0.99001,-2.332 2.486,-2.332 1.32,0 1.98,0.726 1.98,2.134 l 0,7.326 3.08,0 0,-7.964 c 0,-2.618 -1.452,-4.114 -3.982,-4.114 -1.60599,0 -2.684,0.594 -3.564,1.914 l 0,-1.716 -3.08,0" />
        <path
           inkscape:connector-curvature="0"
           id="path4597"
           d="m 239.81731,714.26582 -1.716,0 0,-3.19 -3.08,0 0,3.19 -1.518,0 0,2.046 1.518,0 0,7.304 c 0,1.87 0.99,2.794 3.014,2.794 0.682,0 1.232,-0.066 1.782,-0.242 l 0,-2.156 c -0.308,0.044 -0.484,0.066 -0.704,0.066 -0.814,0 -1.012,-0.242 -1.012,-1.298 l 0,-6.468 1.716,0 0,-2.046" />
        <path
           inkscape:connector-curvature="0"
           id="path4599"
           d="m 247.16497,713.82582 c -3.63,0 -5.852,2.398 -5.852,6.292 0,3.916 2.222,6.292 5.874,6.292 3.608,0 5.874,-2.398 5.874,-6.204 0,-4.026 -2.178,-6.38 -5.896,-6.38 m 0.022,2.486 c 1.694,0 2.794,1.518 2.794,3.85 0,2.222 -1.144,3.762 -2.794,3.762 -1.672,0 -2.794,-1.54 -2.794,-3.806 0,-2.266 1.122,-3.806 2.794,-3.806" />
        <path
           inkscape:connector-curvature="0"
           id="path4601"
           d="m 268.76175,714.02382 -2.464,8.646 -2.618,-8.646 -3.388,0 4.422,12.364 0,0.022 0,0.066 c 0,1.122 -0.836,1.98 -1.914,1.98 -0.242,0 -0.418,-0.022 -0.814,-0.132 l 0,2.31 c 0.462,0.066 0.726,0.088 1.1,0.088 0.77,0 1.694,-0.154 2.222,-0.374 0.858,-0.352 1.232,-0.858 1.738,-2.266 l 4.884,-14.058 -3.168,0" />
        <path
           inkscape:connector-curvature="0"
           id="path4603"
           d="m 293.44541,715.29982 c -0.11,-1.386 -0.396,-2.266 -1.078,-3.168 -1.232,-1.628 -3.21201,-2.53 -5.61,-2.53 -4.532,0 -7.348,3.23401 -7.348,8.426 0,5.14799 2.794,8.382 7.26,8.382 3.98199,0 6.644,-2.31 6.842,-5.984 l -3.212,0 c -0.198,2.046 -1.49601,3.212 -3.542,3.212 -2.552,0 -4.048,-2.068 -4.048,-5.566 0,-3.542 1.562,-5.654 4.158,-5.654 1.144,0 2.09,0.396 2.706,1.166 0.352,0.44 0.528,0.858 0.726,1.716 l 3.146,0" />
        <path
           inkscape:connector-curvature="0"
           id="path4605"
           d="m 300.96184,713.82582 c -3.62999,0 -5.852,2.398 -5.852,6.292 0,3.916 2.22201,6.292 5.874,6.292 3.608,0 5.874,-2.398 5.874,-6.204 0,-4.026 -2.178,-6.38 -5.896,-6.38 m 0.022,2.486 c 1.694,0 2.794,1.518 2.794,3.85 0,2.222 -1.144,3.762 -2.794,3.762 -1.67199,0 -2.794,-1.54 -2.794,-3.806 0,-2.266 1.12201,-3.806 2.794,-3.806" />
        <path
           inkscape:connector-curvature="0"
           id="path4607"
           d="m 309.17506,714.02382 0,11.88 3.08,0 0,-7.128 c 0,-1.408 0.99,-2.332 2.486,-2.332 1.32,0 1.98,0.726 1.98,2.134 l 0,7.326 3.08,0 0,-7.964 c 0,-2.618 -1.452,-4.114 -3.982,-4.114 -1.606,0 -2.684,0.594 -3.564,1.914 l 0,-1.716 -3.08,0" />
        <path
           inkscape:connector-curvature="0"
           id="path4609"
           d="m 327.86028,714.26582 -1.716,0 0,-3.19 -3.08,0 0,3.19 -1.518,0 0,2.046 1.518,0 0,7.304 c 0,1.87 0.99,2.794 3.014,2.794 0.682,0 1.232,-0.066 1.782,-0.242 l 0,-2.156 c -0.308,0.044 -0.484,0.066 -0.704,0.066 -0.814,0 -1.012,-0.242 -1.012,-1.298 l 0,-6.468 1.716,0 0,-2.046" />
        <path
           inkscape:connector-curvature="0"
           id="path4611"
           d="m 329.97194,714.02382 0,11.88 3.08,0 0,-6.314 c 0,-1.804 0.902,-2.706 2.706,-2.706 0.33,0 0.55,0.022 0.968,0.088 l 0,-3.124 c -0.176,-0.022 -0.286,-0.022 -0.374,-0.022 -1.408,0 -2.64,0.924 -3.3,2.53 l 0,-2.332 -3.08,0" />
        <path
           inkscape:connector-curvature="0"
           id="path4613"
           d="m 343.75872,713.82582 c -3.63,0 -5.852,2.398 -5.852,6.292 0,3.916 2.222,6.292 5.874,6.292 3.608,0 5.874,-2.398 5.874,-6.204 0,-4.026 -2.178,-6.38 -5.896,-6.38 m 0.022,2.486 c 1.694,0 2.794,1.518 2.794,3.85 0,2.222 -1.144,3.762 -2.794,3.762 -1.672,0 -2.794,-1.54 -2.794,-3.806 0,-2.266 1.122,-3.806 2.794,-3.806" />
        <path
           inkscape:connector-curvature="0"
           id="path4615"
           d="m 355.13994,709.86582 -3.08,0 0,16.038 3.08,0 0,-16.038" />
      </g>
    </g>
    <g
       id="g5490"
       transform="translate(768.77644,-672.80902)">
      <rect
         y="736.69794"
         x="91.859062"
         height="21.869492"
         width="20.583052"
         id="rect4523"
         style="fill:#c0bb47;fill-opacity:1;stroke:#c0bb47;stroke-width:4;stroke-miterlimit:4;stroke-opacity:1;stroke-dasharray:none;stroke-dashoffset:0" />
      <g
         transform="translate(1.3310519,-4.0293872)"
         id="flowRoot4557"
         style="font-size:22px;font-style:normal;font-variant:normal;font-weight:bold;font-stretch:normal;text-align:start;line-height:125%;letter-spacing:0px;word-spacing:0px;text-anchor:start;fill:#000000;fill-opacity:1;stroke:none;font-family:Nimbus Sans L;-inkscape-font-specification:Sans Bold">
        <path
           inkscape:connector-curvature="0"
           id="path4566"
           d="m 138.72275,748.95607 c -0.11,-1.386 -0.396,-2.266 -1.078,-3.168 -1.232,-1.628 -3.212,-2.53 -5.61,-2.53 -4.532,0 -7.348,3.23401 -7.348,8.426 0,5.14799 2.794,8.382 7.26,8.382 3.982,0 6.644,-2.31 6.842,-5.984 l -3.212,0 c -0.198,2.046 -1.496,3.212 -3.542,3.212 -2.552,0 -4.048,-2.068 -4.048,-5.566 0,-3.542 1.562,-5.654 4.158,-5.654 1.144,0 2.09,0.396 2.706,1.166 0.352,0.44 0.528,0.858 0.726,1.716 l 3.146,0" />
        <path
           inkscape:connector-curvature="0"
           id="path4568"
           d="m 144.17119,747.68007 -3.08,0 0,11.88 3.08,0 0,-11.88 m 0,-4.158 -3.08,0 0,2.75 3.08,0 0,-2.75" />
        <path
           inkscape:connector-curvature="0"
           id="path4570"
           d="m 157.24675,754.58807 c 0.022,-0.264 0.022,-0.374 0.022,-0.528 0,-1.188 -0.176,-2.288 -0.462,-3.124 -0.792,-2.156 -2.706,-3.454 -5.104,-3.454 -3.41,0 -5.5,2.464 -5.5,6.446 0,3.806 2.068,6.138 5.434,6.138 2.662,0 4.818,-1.518 5.5,-3.85 l -3.036,0 c -0.374,0.946 -1.232,1.496 -2.354,1.496 -0.88,0 -1.584,-0.374 -2.024,-1.034 -0.286,-0.44 -0.396,-0.968 -0.44,-2.09 l 7.964,0 m -7.92,-2.046 c 0.198,-1.804 0.968,-2.706 2.332,-2.706 0.77,0 1.474,0.374 1.914,0.99 0.286,0.44 0.418,0.902 0.484,1.716 l -4.73,0" />
        <path
           inkscape:connector-curvature="0"
           id="path4572"
           d="m 159.35084,747.68007 0,11.88 3.08,0 0,-6.314 c 0,-1.804 0.90201,-2.706 2.706,-2.706 0.33,0 0.55,0.022 0.968,0.088 l 0,-3.124 c -0.176,-0.022 -0.286,-0.022 -0.374,-0.022 -1.40799,0 -2.64,0.924 -3.3,2.53 l 0,-2.332 -3.08,0" />
        <path
           inkscape:connector-curvature="0"
           id="path4574"
           d="m 167.90162,747.68007 0,11.88 3.08,0 0,-6.314 c 0,-1.804 0.90201,-2.706 2.706,-2.706 0.33,0 0.55001,0.022 0.968,0.088 l 0,-3.124 c -0.17599,-0.022 -0.286,-0.022 -0.374,-0.022 -1.40799,0 -2.64,0.924 -3.3,2.53 l 0,-2.332 -3.08,0" />
        <path
           inkscape:connector-curvature="0"
           id="path4576"
           d="m 186.59441,754.58807 c 0.022,-0.264 0.022,-0.374 0.022,-0.528 0,-1.188 -0.176,-2.288 -0.462,-3.124 -0.792,-2.156 -2.70601,-3.454 -5.104,-3.454 -3.41,0 -5.5,2.464 -5.5,6.446 0,3.806 2.068,6.138 5.434,6.138 2.66199,0 4.818,-1.518 5.5,-3.85 l -3.036,0 c -0.374,0.946 -1.232,1.496 -2.354,1.496 -0.88,0 -1.584,-0.374 -2.024,-1.034 -0.286,-0.44 -0.396,-0.968 -0.44,-2.09 l 7.964,0 m -7.92,-2.046 c 0.198,-1.804 0.968,-2.706 2.332,-2.706 0.77,0 1.474,0.374 1.914,0.99 0.286,0.44 0.418,0.902 0.484,1.716 l -4.73,0" />
      </g>
    </g>
    <g
       transform="translate(21.2436,4)"
       style="font-size:22px;font-style:normal;font-variant:normal;font-weight:bold;font-stretch:normal;text-align:center;line-height:125%;letter-spacing:0px;word-spacing:0px;text-anchor:middle;fill:#0000ff;fill-opacity:1;stroke:none;font-family:Nimbus Sans L;-inkscape-font-specification:Sans Bold"
       id="flowRoot5638">
      <path
         d="m 860.33719,588.36582 4.686,0 0,-2.75 -12.848,0 0,2.75 4.862,0 0,13.288 3.3,0 0,-13.288"
         style="fill:#0000ff;fill-opacity:1"
         id="path5655"
         inkscape:connector-curvature="0" />
      <path
         d="m 870.00241,585.61582 -3.3,0 0,16.038 3.3,0 0,-16.038"
         style="fill:#0000ff;fill-opacity:1"
         id="path5657"
         inkscape:connector-curvature="0" />
      <path
         d="m 876.45597,594.74582 7.678,0 0,-2.75 -7.678,0 0,-3.63 8.294,0 0,-2.75 -11.594,0 0,16.038 11.99,0 0,-2.75 -8.69,0 0,-4.158"
         style="fill:#0000ff;fill-opacity:1"
         id="path5659"
         inkscape:connector-curvature="0" />
      <path
         d="m 890.86528,589.15782 2.882,12.496 3.3,0 2.838,-12.496 0,12.496 3.3,0 0,-16.038 -4.972,0 -2.816,12.76 -2.904,-12.76 -4.928,0 0,16.038 3.3,0 0,-12.496"
         style="fill:#0000ff;fill-opacity:1"
         id="path5661"
         inkscape:connector-curvature="0" />
      <path
         d="m 909.43294,595.93382 4.114,0 c 2.94799,0 4.84,-2.09 4.84,-5.346 0,-3.212 -1.82601,-4.972 -5.17,-4.972 l -7.084,0 0,16.038 3.3,0 0,-5.72 m 0,-2.75 0,-4.818 3.08,0 c 1.76,0 2.574,0.77 2.574,2.42 0,1.628 -0.814,2.398 -2.574,2.398 l -3.08,0"
         style="fill:#0000ff;fill-opacity:1"
         id="path5663"
         inkscape:connector-curvature="0" />
      <path
         d="m 927.73625,585.35182 c -2.244,0 -4.092,0.748 -5.456,2.222 -1.43,1.54 -2.244,3.784 -2.244,6.182 0,2.398 0.814,4.664 2.244,6.182 1.386,1.496 3.19,2.222 5.478,2.222 2.288,0 4.092,-0.726 5.478,-2.222 1.386,-1.474 2.244,-3.806 2.244,-6.072 0,-2.508 -0.814,-4.752 -2.244,-6.292 -1.408,-1.518 -3.19,-2.222 -5.5,-2.222 m 0.022,2.816 c 2.706,0 4.422,2.2 4.422,5.676 0,3.278 -1.782,5.5 -4.422,5.5 -2.662,0 -4.422,-2.222 -4.422,-5.588 0,-3.366 1.76,-5.588 4.422,-5.588"
         style="fill:#0000ff;fill-opacity:1"
         id="path5665"
         inkscape:connector-curvature="0" />
    </g>
    <g
       transform="matrix(0,-1,1,0,-541.89495,1085.3547)"
       style="font-size:22px;font-style:normal;font-variant:normal;font-weight:bold;font-stretch:normal;text-align:center;line-height:125%;letter-spacing:0px;word-spacing:0px;text-anchor:middle;fill:#0000ff;fill-opacity:1;stroke:none;font-family:Nimbus Sans L;-inkscape-font-specification:Sans Bold"
       id="flowRoot5646">
      <path
         d="m 839.15909,594.74582 7.678,0 0,-2.75 -7.678,0 0,-3.63 8.294,0 0,-2.75 -11.594,0 0,16.038 11.99,0 0,-2.75 -8.69,0 0,-4.158"
         style="fill:#0000ff;fill-opacity:1"
         id="path5668"
         inkscape:connector-curvature="0" />
      <path
         d="m 862.17041,590.49982 c 0,-1.474 -0.33,-2.442 -1.122,-3.322 -1.078,-1.188 -2.86001,-1.826 -5.17,-1.826 -3.85,0 -6.072,1.804 -6.072,4.928 0,2.486 1.254,3.696 4.51,4.312 l 2.244,0.44 c 2.19999,0.418 3.014,1.034 3.014,2.332 0,1.342 -1.23201,2.156 -3.234,2.156 -2.244,0 -3.498,-0.946 -3.608,-2.662 l -3.212,0 c 0.198,3.432 2.552,5.302 6.644,5.302 4.13599,0 6.578,-1.936 6.578,-5.192 0,-2.53 -1.27601,-3.85 -4.246,-4.422 l -2.508,-0.484 c -2.354,-0.462 -3.036,-0.924 -3.036,-2.09 0,-1.21 1.078,-1.98 2.772,-1.98 2.08999,0 3.256,0.88 3.366,2.508 l 3.08,0"
         style="fill:#0000ff;fill-opacity:1"
         id="path5670"
         inkscape:connector-curvature="0" />
      <path
         d="m 868.43972,594.74582 7.018,0 0,-2.75 -7.018,0 0,-3.63 7.964,0 0,-2.75 -11.264,0 0,16.038 3.3,0 0,-6.908"
         style="fill:#0000ff;fill-opacity:1"
         id="path5672"
         inkscape:connector-curvature="0" />
      <path
         d="m 888.04894,585.61582 0,10.868 c 0,1.936 -0.99,2.86 -3.058,2.86 -2.068,0 -3.058,-0.924 -3.058,-2.86 l 0,-10.868 -3.3,0 0,10.868 c 0,1.804 0.484,3.08 1.562,4.048 1.166,1.056 2.86,1.628 4.796,1.628 1.936,0 3.63,-0.572 4.796,-1.628 1.078,-0.968 1.562,-2.244 1.562,-4.048 l 0,-10.868 -3.3,0"
         style="fill:#0000ff;fill-opacity:1"
         id="path5674"
         inkscape:connector-curvature="0" />
      <path
         d="m 897.89737,594.74582 7.678,0 0,-2.75 -7.678,0 0,-3.63 8.294,0 0,-2.75 -11.59399,0 0,16.038 11.98999,0 0,-2.75 -8.69,0 0,-4.158"
         style="fill:#0000ff;fill-opacity:1"
         id="path5676"
         inkscape:connector-curvature="0" />
      <path
         d="m 912.61469,595.29582 3.784,0 c 1.43,0 2.046,0.572 2.046,1.914 0,0.132 0,0.352 -0.022,0.638 -0.022,0.418 -0.022,0.814 -0.022,1.056 0,1.496 0.088,1.98 0.506,2.75 l 3.542,0 0,-0.594 c -0.506,-0.286 -0.704,-0.616 -0.704,-1.32 -0.088,-4.73 -0.176,-4.95 -2.222,-5.83 1.804,-0.704 2.706,-2.002 2.706,-3.96 0,-1.276 -0.44,-2.442 -1.21,-3.234 -0.726,-0.748 -1.738,-1.1 -3.102,-1.1 l -8.602,0 0,16.038 3.3,0 0,-6.358 m 0,-2.75 0,-4.18 3.982,0 c 0.946,0 1.342,0.088 1.738,0.418 0.396,0.33 0.594,0.88 0.594,1.628 0,0.77 -0.22,1.386 -0.594,1.716 -0.352,0.308 -0.792,0.418 -1.738,0.418 l -3.982,0"
         style="fill:#0000ff;fill-opacity:1"
         id="path5678"
         inkscape:connector-curvature="0" />
      <path
         d="m 936.16912,585.61582 -12.056,0 0,2.75 8.206,0 -8.206,10.538 0,2.75 12.056,0 0,-2.75 -8.18399,0 8.18399,-10.538 0,-2.75"
         style="fill:#0000ff;fill-opacity:1"
         id="path5680"
         inkscape:connector-curvature="0" />
      <path
         d="m 945.48234,585.35182 c -2.24399,0 -4.092,0.748 -5.456,2.222 -1.42999,1.54 -2.244,3.784 -2.244,6.182 0,2.398 0.81401,4.664 2.244,6.182 1.386,1.496 3.19001,2.222 5.478,2.222 2.288,0 4.09201,-0.726 5.478,-2.222 1.386,-1.474 2.244,-3.806 2.244,-6.072 0,-2.508 -0.814,-4.752 -2.244,-6.292 -1.40799,-1.518 -3.19,-2.222 -5.5,-2.222 m 0.022,2.816 c 2.706,0 4.422,2.2 4.422,5.676 0,3.278 -1.782,5.5 -4.422,5.5 -2.66199,0 -4.422,-2.222 -4.422,-5.588 0,-3.366 1.76001,-5.588 4.422,-5.588"
         style="fill:#0000ff;fill-opacity:1"
         id="path5682"
         inkscape:connector-curvature="0" />
    </g>
  </g>
</svg>
