<?xml version="1.0" encoding="UTF-8" standalone="no"?>
<!-- Created with Inkscape (http://www.inkscape.org/) -->

<svg
   xmlns:dc="http://purl.org/dc/elements/1.1/"
   xmlns:cc="http://creativecommons.org/ns#"
   xmlns:rdf="http://www.w3.org/1999/02/22-rdf-syntax-ns#"
   xmlns:svg="http://www.w3.org/2000/svg"
   xmlns="http://www.w3.org/2000/svg"
   xmlns:sodipodi="http://sodipodi.sourceforge.net/DTD/sodipodi-0.dtd"
   xmlns:inkscape="http://www.inkscape.org/namespaces/inkscape"
   width="1060.2858"
   height="751.71429"
   id="svg5703"
   version="1.1"
   inkscape:version="0.48.3.1 r9886"
   sodipodi:docname="esquema_proceso.svg">
  <defs
     id="defs5705" />
  <sodipodi:namedview
     id="base"
     pagecolor="#ffffff"
     bordercolor="#666666"
     borderopacity="1.0"
     inkscape:pageopacity="0.0"
     inkscape:pageshadow="2"
     inkscape:zoom="0.35"
     inkscape:cx="-126.28571"
     inkscape:cy="523.00001"
     inkscape:document-units="px"
     inkscape:current-layer="layer1"
     showgrid="false"
     fit-margin-top="0"
     fit-margin-left="0"
     fit-margin-right="0"
     fit-margin-bottom="0"
     inkscape:window-width="1916"
     inkscape:window-height="1041"
     inkscape:window-x="0"
     inkscape:window-y="18"
     inkscape:window-maximized="0" />
  <metadata
     id="metadata5708">
    <rdf:RDF>
      <cc:Work
         rdf:about="">
        <dc:format>image/svg+xml</dc:format>
        <dc:type
           rdf:resource="http://purl.org/dc/dcmitype/StillImage" />
        <dc:title></dc:title>
      </cc:Work>
    </rdf:RDF>
  </metadata>
  <g
     inkscape:label="Layer 1"
     inkscape:groupmode="layer"
     id="layer1"
     transform="translate(3,-303.6479)">
    <rect
       style="fill:#f4f4f4;fill-opacity:1;stroke:#000000;stroke-width:6;stroke-miterlimit:4;stroke-opacity:1;stroke-dasharray:none;stroke-dashoffset:0"
       id="rect5711"
       width="1054.2858"
       height="745.71429"
       x="0"
       y="-1.6198033"
       transform="translate(0,308.2677)" />
    <rect
       style="fill:#f4f4f4;fill-opacity:1;stroke:#000000;stroke-width:6;stroke-miterlimit:4;stroke-opacity:1;stroke-dasharray:none;stroke-dashoffset:0"
       id="rect6225"
       width="848.57141"
       height="742.85712"
       x="102.85718"
       y="308.07648" />
    <rect
       y="568.27142"
       x="139.07315"
       height="390.60635"
       width="199.40639"
       id="rect6235"
       style="fill:#f4f4f4;fill-opacity:1;stroke:#000000;stroke-width:3;stroke-miterlimit:4;stroke-opacity:1;stroke-dasharray:none;stroke-dashoffset:0" />
    <g
       transform="translate(0,308.2677)"
       style="font-size:48px;font-style:normal;font-variant:normal;font-weight:bold;font-stretch:normal;text-align:center;line-height:125%;letter-spacing:0px;word-spacing:0px;text-anchor:middle;fill:#000000;fill-opacity:1;stroke:none;font-family:Nimbus Sans L;-inkscape-font-specification:Sans Bold"
       id="flowRoot6239">
      <path
         d="m 164.93344,286.75376 13.96,0 0,-5 -13.96,0 0,-6.6 15.08,0 0,-5 -21.08,0 0,29.16 21.8,0 0,-5 -15.8,0 0,-7.56"
         style="font-size:40px"
         id="path6353" />
      <path
         d="m 185.01219,277.71376 0,21.6 5.6,0 0,-12.96 c 0,-2.55999 1.8,-4.24 4.52,-4.24 2.4,0 3.6,1.32001 3.6,3.88 l 0,13.32 5.6,0 0,-14.48 c 0,-4.75999 -2.64001,-7.48 -7.24,-7.48 -2.92,0 -4.88,1.08001 -6.48,3.48 l 0,-3.12 -5.6,0"
         style="font-size:40px"
         id="path6355" />
      <path
         d="m 218.98531,278.15376 -3.12,0 0,-5.8 -5.6,0 0,5.8 -2.76,0 0,3.72 2.76,0 0,13.28 c 0,3.4 1.80001,5.08 5.48,5.08 1.24,0 2.24,-0.12 3.24,-0.44 l 0,-3.92 c -0.56,0.08 -0.88,0.12 -1.28,0.12 -1.48,0 -1.84,-0.44 -1.84,-2.36 l 0,-11.76 3.12,0 0,-3.72"
         style="font-size:40px"
         id="path6357" />
      <path
         d="m 222.82469,277.71376 0,21.6 5.6,0 0,-11.48 c 0,-3.27999 1.64,-4.92 4.92,-4.92 0.6,0 1,0.04 1.76,0.16 l 0,-5.68 c -0.32,-0.04 -0.52,-0.04 -0.68,-0.04 -2.56,0 -4.8,1.68001 -6,4.6 l 0,-4.24 -5.6,0"
         style="font-size:40px"
         id="path6359" />
      <path
         d="m 256.81156,298.63376 c -1,-0.92 -1.28,-1.52 -1.28,-2.64 l 0,-12 c 0,-4.39999 -3,-6.64 -8.84,-6.64 -5.83999,0 -8.88,2.48001 -9.24,7.48 l 5.4,0 c 0.28,-2.23999 1.20001,-2.96 3.96,-2.96 2.16,0 3.24,0.72001 3.24,2.16 0,0.72 -0.36,1.36 -0.96,1.68 -0.76,0.4 -0.76,0.4 -3.52,0.84 l -2.24,0.4 c -4.27999,0.72 -6.36,2.92001 -6.36,6.8 0,1.84 0.52,3.36 1.52,4.44 1.24,1.28 3.12,2.04 5.04,2.04 2.4,0 4.6,-1.04 6.56,-3.08 0,1.12 0.12,1.52 0.64,2.16 l 6.08,0 0,-0.68 m -6.76,-8 c 0,3.24 -1.6,5.08 -4.44,5.08 -1.88,0 -3.04,-1 -3.04,-2.6 0,-1.67999 0.88,-2.48 3.2,-2.96 l 1.92,-0.36 c 1.48,-0.28 1.72,-0.36 2.36,-0.68 l 0,1.52"
         style="font-size:40px"
         id="path6361" />
      <path
         d="m 274.31719,299.31376 5.6,0 0,-29.16 -5.6,0 0,10.36 c -1.4,-2.15999 -3.28001,-3.16 -5.96,-3.16 -5.16,0 -9.08,4.96001 -9.08,11.48 0,2.92 0.88,5.88001 2.32,7.96 1.48,2.08 4.12,3.44 6.76,3.44 2.67999,0 4.56,-1 5.96,-3.12 l 0,2.2 m -4.72,-17.28 c 2.83999,0 4.72,2.76001 4.72,6.88 0,3.92 -1.92001,6.64 -4.72,6.64 -2.8,0 -4.72,-2.76 -4.72,-6.72 0,-3.99999 1.92,-6.8 4.72,-6.8"
         style="font-size:40px"
         id="path6363" />
      <path
         d="m 303.53031,298.63376 c -1,-0.92 -1.28,-1.52 -1.28,-2.64 l 0,-12 c 0,-4.39999 -3,-6.64 -8.84,-6.64 -5.83999,0 -8.88,2.48001 -9.24,7.48 l 5.4,0 c 0.28,-2.23999 1.20001,-2.96 3.96,-2.96 2.16,0 3.24,0.72001 3.24,2.16 0,0.72 -0.36,1.36 -0.96,1.68 -0.76,0.4 -0.76,0.4 -3.52,0.84 l -2.24,0.4 c -4.27999,0.72 -6.36,2.92001 -6.36,6.8 0,1.84 0.52,3.36 1.52,4.44 1.24,1.28 3.12,2.04 5.04,2.04 2.4,0 4.6,-1.04 6.56,-3.08 0,1.12 0.12,1.52 0.64,2.16 l 6.08,0 0,-0.68 m -6.76,-8 c 0,3.24 -1.6,5.08 -4.44,5.08 -1.88,0 -3.04,-1 -3.04,-2.6 0,-1.67999 0.88,-2.48 3.2,-2.96 l 1.92,-0.36 c 1.48,-0.28 1.72,-0.36 2.36,-0.68 l 0,1.52"
         style="font-size:40px"
         id="path6365" />
      <path
         d="m 325.03594,284.67376 c -0.08,-4.55999 -3.60001,-7.32 -9.4,-7.32 -5.48,0 -8.88,2.76001 -8.88,7.2 0,1.44 0.44,2.68 1.2,3.52 0.76,0.76 1.44,1.12 3.52,1.8 l 6.68,2.08 c 1.4,0.44 1.88,0.88 1.88,1.76 0,1.32 -1.56001,2.12 -4.16,2.12 -1.44,0 -2.6,-0.28 -3.32,-0.76 -0.6,-0.44 -0.84,-0.88 -1.08,-2.04 l -5.48,0 c 0.16,4.72 3.64,7.2 10.2,7.2 2.99999,0 5.28,-0.64 6.88,-1.92 1.6,-1.28 2.56,-3.28 2.56,-5.4 0,-2.79999 -1.40001,-4.6 -4.24,-5.44 l -7.08,-2.04 c -1.56,-0.48 -1.96,-0.8 -1.96,-1.68 0,-1.2 1.28,-2 3.24,-2 2.67999,0 4,0.96001 4.04,2.92 l 5.4,0"
         style="font-size:40px"
         id="path6367" />
    </g>
    <rect
       style="fill:#f4f4f4;fill-opacity:1;stroke:#000000;stroke-width:3;stroke-miterlimit:4;stroke-opacity:1;stroke-dasharray:none;stroke-dashoffset:0"
       id="rect6267"
       width="284.38004"
       height="390.60635"
       x="382.80902"
       y="568.27142" />
    <g
       transform="translate(0,308.2677)"
       style="font-size:22px;font-style:normal;font-variant:normal;font-weight:bold;font-stretch:normal;text-align:center;line-height:125%;letter-spacing:0px;word-spacing:0px;text-anchor:middle;fill:#000000;fill-opacity:1;stroke:none;font-family:Nimbus Sans L;-inkscape-font-specification:Sans Bold"
       id="flowRoot6247">
      <path
         d="m 415.23312,283.19876 0,13.24 6,0 0,-29.16 -6.04,0 0,10.92 -11.51999,0 0,-10.92 -6,0 0,29.16 6,0 0,-13.24 11.55999,0"
         style="font-size:40px"
         id="path6310" />
      <path
         d="m 444.81937,287.39876 c 0.04,-0.48 0.04,-0.68 0.04,-0.96 0,-2.15999 -0.32,-4.16 -0.83999,-5.68 -1.44,-3.91999 -4.92001,-6.28 -9.28001,-6.28 -6.19999,0 -10,4.48001 -10,11.72 0,6.92 3.76001,11.16 9.88,11.16 4.84,0 8.76001,-2.76 10,-7 l -5.52,0 c -0.67999,1.72 -2.24,2.72 -4.28,2.72 -1.59999,0 -2.88,-0.68 -3.68,-1.88 -0.51999,-0.8 -0.72,-1.76 -0.79999,-3.8 l 14.47999,0 m -14.4,-3.72 c 0.36,-3.27999 1.76001,-4.92 4.24,-4.92 1.4,0 2.68001,0.68 3.48,1.8 0.52,0.8 0.76001,1.64001 0.88001,3.12 l -8.60001,0"
         style="font-size:40px"
         id="path6312" />
      <path
         d="m 448.645,274.83876 0,21.6 5.6,0 0,-11.48 c 0,-3.27999 1.64,-4.92 4.92,-4.92 0.6,0 1,0.04 1.76,0.16 l 0,-5.68 c -0.32,-0.04 -0.52,-0.04 -0.68,-0.04 -2.56,0 -4.8,1.68001 -6,4.6 l 0,-4.24 -5.6,0"
         style="font-size:40px"
         id="path6314" />
      <path
         d="m 464.19187,274.83876 0,21.6 5.6,0 0,-11.48 c 0,-3.27999 1.64001,-4.92 4.92001,-4.92 0.59999,0 1,0.04 1.75999,0.16 l 0,-5.68 c -0.31999,-0.04 -0.52,-0.04 -0.68,-0.04 -2.55999,0 -4.8,1.68001 -6,4.6 l 0,-4.24 -5.6,0"
         style="font-size:40px"
         id="path6316" />
      <path
         d="m 498.17875,295.75876 c -1,-0.92 -1.28,-1.52 -1.28,-2.64 l 0,-12 c 0,-4.39999 -3.00001,-6.64 -8.84,-6.64 -5.83999,0 -8.88,2.48001 -9.24,7.48 l 5.4,0 c 0.28,-2.23999 1.2,-2.96 3.96,-2.96 2.16,0 3.24,0.72001 3.24,2.16 0,0.72 -0.36,1.36 -0.96,1.68 -0.76,0.4 -0.76,0.4 -3.52,0.84 l -2.24,0.4 c -4.28,0.72 -6.36,2.92001 -6.36,6.8 0,1.84 0.52,3.36 1.52,4.44 1.24,1.28 3.12,2.04 5.04,2.04 2.4,0 4.6,-1.04 6.56,-3.08 0,1.12 0.12,1.52 0.64,2.16 l 6.08,0 0,-0.68 m -6.76,-8 c 0,3.24 -1.6,5.08 -4.44,5.08 -1.88,0 -3.04,-1 -3.04,-2.6 0,-1.67999 0.88,-2.48 3.2,-2.96 l 1.92,-0.36 c 1.48,-0.28 1.72,-0.36 2.36,-0.68 l 0,1.52"
         style="font-size:40px"
         id="path6318" />
      <path
         d="m 501.88437,274.83876 0,21.6 5.6,0 0,-12.96 c 0,-2.63999 1.44001,-4.24 3.84,-4.24 1.88,0 3.04,1.08001 3.04,2.8 l 0,14.4 5.60001,0 0,-12.96 c 0,-2.63999 1.44,-4.24 3.84,-4.24 1.87999,0 3.04,1.08001 3.04,2.8 l 0,14.4 5.6,0 0,-15.28 c 0,-4.19999 -2.56001,-6.68 -6.88,-6.68 -2.72,0 -4.64001,0.96001 -6.32001,3.2 -1.03999,-2.03999 -3.2,-3.2 -5.88,-3.2 -2.47999,0 -4.08,0.84001 -5.92,3.04 l 0,-2.68 -5.56,0"
         style="font-size:40px"
         id="path6320" />
      <path
         d="m 543.31125,274.83876 -5.6,0 0,21.6 5.6,0 0,-21.6 m 0,-7.56 -5.6,0 0,5 5.6,0 0,-5"
         style="font-size:40px"
         id="path6322" />
      <path
         d="m 567.085,287.39876 c 0.04,-0.48 0.04,-0.68 0.04,-0.96 0,-2.15999 -0.32,-4.16 -0.84,-5.68 -1.44,-3.91999 -4.92,-6.28 -9.28,-6.28 -6.19999,0 -10,4.48001 -10,11.72 0,6.92 3.76001,11.16 9.88,11.16 4.84,0 8.76,-2.76 10,-7 l -5.52,0 c -0.68,1.72 -2.24,2.72 -4.28,2.72 -1.6,0 -2.88,-0.68 -3.68,-1.88 -0.52,-0.8 -0.72,-1.76 -0.8,-3.8 l 14.48,0 m -14.4,-3.72 c 0.36,-3.27999 1.76,-4.92 4.24,-4.92 1.4,0 2.68,0.68 3.48,1.8 0.52,0.8 0.76,1.64001 0.88,3.12 l -8.6,0"
         style="font-size:40px"
         id="path6324" />
      <path
         d="m 570.91062,274.83876 0,21.6 5.6,0 0,-12.96 c 0,-2.55999 1.80001,-4.24 4.52,-4.24 2.4,0 3.6,1.32001 3.6,3.88 l 0,13.32 5.60001,0 0,-14.48 c 0,-4.75999 -2.64001,-7.48 -7.24,-7.48 -2.92,0 -4.88001,1.08001 -6.48001,3.48 l 0,-3.12 -5.6,0"
         style="font-size:40px"
         id="path6326" />
      <path
         d="m 604.88375,275.27876 -3.12,0 0,-5.8 -5.6,0 0,5.8 -2.76,0 0,3.72 2.76,0 0,13.28 c 0,3.4 1.8,5.08 5.48,5.08 1.24,0 2.24,-0.12 3.24,-0.44 l 0,-3.92 c -0.56,0.08 -0.88,0.12 -1.28,0.12 -1.48,0 -1.84,-0.44 -1.84,-2.36 l 0,-11.76 3.12,0 0,-3.72"
         style="font-size:40px"
         id="path6328" />
      <path
         d="m 627.16313,295.75876 c -1,-0.92 -1.28001,-1.52 -1.28001,-2.64 l 0,-12 c 0,-4.39999 -3,-6.64 -8.83999,-6.64 -5.84,0 -8.88001,2.48001 -9.24,7.48 l 5.39999,0 c 0.28,-2.23999 1.20001,-2.96 3.96001,-2.96 2.15999,0 3.24,0.72001 3.24,2.16 0,0.72 -0.36001,1.36 -0.96001,1.68 -0.75999,0.4 -0.76,0.4 -3.51999,0.84 l -2.24,0.4 c -4.28,0.72 -6.36001,2.92001 -6.36001,6.8 0,1.84 0.52001,3.36 1.52,4.44 1.24,1.28 3.12001,2.04 5.04,2.04 2.4,0 4.60001,-1.04 6.56,-3.08 0,1.12 0.12001,1.52 0.64,2.16 l 6.08001,0 0,-0.68 m -6.76,-8 c 0,3.24 -1.60001,5.08 -4.44001,5.08 -1.87999,0 -3.03999,-1 -3.03999,-2.6 0,-1.67999 0.88,-2.48 3.19999,-2.96 l 1.92001,-0.36 c 1.47999,-0.28 1.72,-0.36 2.36,-0.68 l 0,1.52"
         style="font-size:40px"
         id="path6330" />
      <path
         d="m 648.66875,281.79876 c -0.08,-4.55999 -3.60001,-7.32 -9.4,-7.32 -5.47999,0 -8.88,2.76001 -8.88,7.2 0,1.44 0.44,2.68 1.2,3.52 0.76,0.76 1.44,1.12 3.52,1.8 l 6.68,2.08 c 1.4,0.44 1.88,0.88 1.88,1.76 0,1.32 -1.56,2.12 -4.16,2.12 -1.44,0 -2.6,-0.28 -3.32,-0.76 -0.6,-0.44 -0.84,-0.88 -1.08,-2.04 l -5.48,0 c 0.16,4.72 3.64001,7.2 10.2,7.2 3,0 5.28,-0.64 6.88,-1.92 1.6,-1.28 2.56,-3.28 2.56,-5.4 0,-2.79999 -1.4,-4.6 -4.24,-5.44 l -7.08,-2.04 c -1.56,-0.48 -1.96,-0.8 -1.96,-1.68 0,-1.2 1.28,-2 3.24,-2 2.68,0 4,0.96001 4.04,2.92 l 5.4,0"
         style="font-size:40px"
         id="path6332" />
      <path
         d="m 527.47094,324.83876 -4.48,15.72 -4.76,-15.72 -6.16,0 8.04,22.48 0,0.04 0,0.12 c 0,2.04 -1.52,3.6 -3.48,3.6 -0.44,0 -0.76,-0.04 -1.48,-0.24 l 0,4.2 c 0.84,0.12 1.32,0.16 2,0.16 1.4,0 3.08,-0.28 4.04,-0.68 1.56,-0.64 2.24,-1.56 3.16,-4.12 l 8.88,-25.56 -5.76,0"
         style="font-size:40px"
         id="path6334" />
      <path
         d="m 452.57969,372.27876 8.52,0 0,-5 -23.36,0 0,5 8.84,0 0,24.16 6,0 0,-24.16"
         style="font-size:40px"
         id="path6336" />
      <path
         d="m 482.59281,387.39876 c 0.04,-0.48 0.04,-0.68 0.04,-0.96 0,-2.15999 -0.32,-4.16 -0.84,-5.68 -1.44,-3.91999 -4.92,-6.28 -9.28,-6.28 -6.19999,0 -10,4.48001 -10,11.72 0,6.92 3.76001,11.16 9.88,11.16 4.84,0 8.76,-2.76 10,-7 l -5.52,0 c -0.68,1.72 -2.24,2.72 -4.28,2.72 -1.6,0 -2.88,-0.68 -3.68,-1.88 -0.52,-0.8 -0.72,-1.76 -0.8,-3.8 l 14.48,0 m -14.4,-3.72 c 0.36,-3.27999 1.76,-4.92 4.24,-4.92 1.4,0 2.68,0.68 3.48,1.8 0.52,0.8 0.76,1.64001 0.88,3.12 l -8.6,0 m 10.2,-17.52 -5.04,0 -2.8,6 2.8,0 5.04,-6"
         style="font-size:40px"
         id="path6338" />
      <path
         d="m 504.77844,382.91876 c -0.4,-5.27999 -3.92001,-8.44 -9.32,-8.44 -6.44,0 -10.2,4.24001 -10.2,11.6 0,7.12 3.72,11.28 10.12,11.28 5.23999,0 8.88,-3.24 9.4,-8.4 l -5.36,0 c -0.72,2.8 -1.84,3.88 -4,3.88 -2.84,0 -4.56,-2.56 -4.56,-6.76 0,-2.03999 0.4,-3.96 1.08,-5.24 0.64,-1.2 1.88,-1.84 3.48,-1.84 2.28,0 3.36,1.08001 4,3.92 l 5.36,0"
         style="font-size:40px"
         id="path6340" />
      <path
         d="m 508.68406,374.83876 0,21.6 5.6,0 0,-12.96 c 0,-2.55999 1.80001,-4.24 4.52,-4.24 2.4,0 3.6,1.32001 3.6,3.88 l 0,13.32 5.6,0 0,-14.48 c 0,-4.75999 -2.64,-7.48 -7.24,-7.48 -2.91999,0 -4.88,1.08001 -6.48,3.48 l 0,-3.12 -5.6,0"
         style="font-size:40px"
         id="path6342" />
      <path
         d="m 538.89719,374.83876 -5.6,0 0,21.6 5.6,0 0,-21.6 m 0,-7.56 -5.6,0 0,5 5.6,0 0,-5"
         style="font-size:40px"
         id="path6344" />
      <path
         d="m 562.59094,382.91876 c -0.4,-5.27999 -3.92001,-8.44 -9.32,-8.44 -6.44,0 -10.2,4.24001 -10.2,11.6 0,7.12 3.72,11.28 10.12,11.28 5.23999,0 8.88,-3.24 9.4,-8.4 l -5.36,0 c -0.72,2.8 -1.84,3.88 -4,3.88 -2.84,0 -4.56,-2.56 -4.56,-6.76 0,-2.03999 0.4,-3.96 1.08,-5.24 0.64,-1.2 1.88,-1.84 3.48,-1.84 2.28,0 3.36,1.08001 4,3.92 l 5.36,0"
         style="font-size:40px"
         id="path6346" />
      <path
         d="m 584.93656,395.75876 c -1,-0.92 -1.28,-1.52 -1.28,-2.64 l 0,-12 c 0,-4.39999 -3,-6.64 -8.84,-6.64 -5.83999,0 -8.88,2.48001 -9.24,7.48 l 5.4,0 c 0.28,-2.23999 1.20001,-2.96 3.96,-2.96 2.16,0 3.24,0.72001 3.24,2.16 0,0.72 -0.36,1.36 -0.96,1.68 -0.76,0.4 -0.76,0.4 -3.52,0.84 l -2.24,0.4 c -4.27999,0.72 -6.36,2.92001 -6.36,6.8 0,1.84 0.52,3.36 1.52,4.44 1.24,1.28 3.12,2.04 5.04,2.04 2.4,0 4.6,-1.04 6.56,-3.08 0,1.12 0.12,1.52 0.64,2.16 l 6.08,0 0,-0.68 m -6.76,-8 c 0,3.24 -1.6,5.08 -4.44,5.08 -1.88,0 -3.04,-1 -3.04,-2.6 0,-1.67999 0.88,-2.48 3.2,-2.96 l 1.92,-0.36 c 1.48,-0.28 1.72,-0.36 2.36,-0.68 l 0,1.52"
         style="font-size:40px"
         id="path6348" />
      <path
         d="m 606.44219,381.79876 c -0.08,-4.55999 -3.60001,-7.32 -9.4,-7.32 -5.48,0 -8.88,2.76001 -8.88,7.2 0,1.44 0.44,2.68 1.2,3.52 0.76,0.76 1.44,1.12 3.52,1.8 l 6.68,2.08 c 1.4,0.44 1.88,0.88 1.88,1.76 0,1.32 -1.56001,2.12 -4.16,2.12 -1.44,0 -2.6,-0.28 -3.32,-0.76 -0.6,-0.44 -0.84,-0.88 -1.08,-2.04 l -5.48,0 c 0.16,4.72 3.64,7.2 10.2,7.2 2.99999,0 5.28,-0.64 6.88,-1.92 1.6,-1.28 2.56,-3.28 2.56,-5.4 0,-2.79999 -1.40001,-4.6 -4.24,-5.44 l -7.08,-2.04 c -1.56,-0.48 -1.96,-0.8 -1.96,-1.68 0,-1.2 1.28,-2 3.24,-2 2.67999,0 4,0.96001 4.04,2.92 l 5.4,0"
         style="font-size:40px"
         id="path6350" />
    </g>
    <rect
       style="fill:#f4f4f4;fill-opacity:1;stroke:#000000;stroke-width:3;stroke-miterlimit:4;stroke-opacity:1;stroke-dasharray:none;stroke-dashoffset:0"
       id="rect6269"
       width="199.40639"
       height="390.60635"
       x="707.3446"
       y="568.27142" />
    <g
       transform="translate(0,308.2677)"
       style="font-size:22px;font-style:normal;font-variant:normal;font-weight:bold;font-stretch:normal;text-align:center;line-height:125%;letter-spacing:0px;word-spacing:0px;text-anchor:middle;fill:#000000;fill-opacity:1;stroke:none;font-family:Nimbus Sans L;-inkscape-font-specification:Sans Bold"
       id="flowRoot6259">
      <path
         d="m 761.3425,276.15876 c 0,-2.67999 -0.6,-4.44 -2.04,-6.04 -1.96,-2.15999 -5.2,-3.32 -9.4,-3.32 -6.99999,0 -11.04,3.28001 -11.04,8.96 0,4.52 2.28001,6.72 8.2,7.84 l 4.08,0.8 c 4,0.76 5.48,1.88001 5.48,4.24 0,2.44 -2.24,3.92 -5.88,3.92 -4.08,0 -6.36,-1.72 -6.56,-4.84 l -5.84,0 c 0.36,6.24 4.64001,9.64 12.08,9.64 7.51999,0 11.96,-3.52 11.96,-9.44 0,-4.59999 -2.32001,-7 -7.72,-8.04 l -4.56,-0.88 c -4.28,-0.84 -5.52,-1.68 -5.52,-3.8 0,-2.19999 1.96,-3.6 5.04,-3.6 3.8,0 5.92,1.60001 6.12,4.56 l 5.6,0"
         style="font-size:40px"
         id="path6295" />
      <path
         d="m 784.74125,295.75876 c -1,-0.92 -1.28,-1.52 -1.28,-2.64 l 0,-12 c 0,-4.39999 -3.00001,-6.64 -8.84,-6.64 -5.83999,0 -8.88,2.48001 -9.24,7.48 l 5.4,0 c 0.28,-2.23999 1.2,-2.96 3.96,-2.96 2.16,0 3.24,0.72001 3.24,2.16 0,0.72 -0.36,1.36 -0.96,1.68 -0.76,0.4 -0.76,0.4 -3.52,0.84 l -2.24,0.4 c -4.28,0.72 -6.36,2.92001 -6.36,6.8 0,1.84 0.52,3.36 1.52,4.44 1.24,1.28 3.12,2.04 5.04,2.04 2.4,0 4.6,-1.04 6.56,-3.08 0,1.12 0.12,1.52 0.64,2.16 l 6.08,0 0,-0.68 m -6.76,-8 c 0,3.24 -1.6,5.08 -4.44,5.08 -1.88,0 -3.04,-1 -3.04,-2.6 0,-1.67999 0.88,-2.48 3.2,-2.96 l 1.92,-0.36 c 1.48,-0.28 1.72,-0.36 2.36,-0.68 l 0,1.52"
         style="font-size:40px"
         id="path6297" />
      <path
         d="m 794.32687,267.27876 -5.6,0 0,29.16 5.6,0 0,-29.16"
         style="font-size:40px"
         id="path6299" />
      <path
         d="m 805.42062,274.83876 -5.6,0 0,21.6 5.6,0 0,-21.6 m 0,-7.56 -5.6,0 0,5 5.6,0 0,-5"
         style="font-size:40px"
         id="path6301" />
      <path
         d="m 824.43438,296.43876 5.59999,0 0,-29.16 -5.59999,0 0,10.36 c -1.4,-2.15999 -3.28001,-3.16 -5.96001,-3.16 -5.15999,0 -9.08,4.96001 -9.08,11.48 0,2.92 0.88001,5.88001 2.32001,7.96 1.47999,2.08 4.12,3.44 6.75999,3.44 2.68,0 4.56001,-1 5.96001,-3.12 l 0,2.2 m -4.72,-17.28 c 2.83999,0 4.72,2.76001 4.72,6.88 0,3.92 -1.92001,6.64 -4.72,6.64 -2.8,0 -4.72001,-2.76 -4.72001,-6.72 0,-3.99999 1.92001,-6.8 4.72001,-6.8"
         style="font-size:40px"
         id="path6303" />
      <path
         d="m 853.6475,295.75876 c -1,-0.92 -1.28,-1.52 -1.28,-2.64 l 0,-12 c 0,-4.39999 -3.00001,-6.64 -8.84,-6.64 -5.83999,0 -8.88,2.48001 -9.24,7.48 l 5.4,0 c 0.28,-2.23999 1.2,-2.96 3.96,-2.96 2.16,0 3.24,0.72001 3.24,2.16 0,0.72 -0.36,1.36 -0.96,1.68 -0.76,0.4 -0.76,0.4 -3.52,0.84 l -2.24,0.4 c -4.28,0.72 -6.36,2.92001 -6.36,6.8 0,1.84 0.52,3.36 1.52,4.44 1.24,1.28 3.12,2.04 5.04,2.04 2.4,0 4.6,-1.04 6.56,-3.08 0,1.12 0.12,1.52 0.64,2.16 l 6.08,0 0,-0.68 m -6.76,-8 c 0,3.24 -1.6,5.08 -4.44,5.08 -1.88,0 -3.04,-1 -3.04,-2.6 0,-1.67999 0.88,-2.48 3.2,-2.96 l 1.92,-0.36 c 1.48,-0.28 1.72,-0.36 2.36,-0.68 l 0,1.52"
         style="font-size:40px"
         id="path6305" />
      <path
         d="m 875.15313,281.79876 c -0.08,-4.55999 -3.60001,-7.32 -9.40001,-7.32 -5.47999,0 -8.88,2.76001 -8.88,7.2 0,1.44 0.44001,2.68 1.2,3.52 0.76,0.76 1.44001,1.12 3.52,1.8 l 6.68001,2.08 c 1.39999,0.44 1.88,0.88 1.88,1.76 0,1.32 -1.56001,2.12 -4.16001,2.12 -1.43999,0 -2.6,-0.28 -3.31999,-0.76 -0.6,-0.44 -0.84001,-0.88 -1.08001,-2.04 l -5.48,0 c 0.16,4.72 3.64001,7.2 10.20001,7.2 2.99999,0 5.28,-0.64 6.87999,-1.92 1.6,-1.28 2.56,-3.28 2.56,-5.4 0,-2.79999 -1.4,-4.6 -4.24,-5.44 l -7.07999,-2.04 c -1.56,-0.48 -1.96001,-0.8 -1.96001,-1.68 0,-1.2 1.28001,-2 3.24,-2 2.68,0 4.00001,0.96001 4.04,2.92 l 5.40001,0"
         style="font-size:40px"
         id="path6307" />
    </g>
    <g
       transform="translate(0,372.2677)"
       style="font-size:22px;font-style:normal;font-variant:normal;font-weight:bold;font-stretch:normal;text-align:center;line-height:125%;letter-spacing:0px;word-spacing:0px;text-anchor:middle;fill:#000000;fill-opacity:1;stroke:none;font-family:Nimbus Sans L;-inkscape-font-specification:Sans Bold"
       id="flowRoot6227">
      <path
         d="m 399.81887,48.169774 13.464,0 c 9.648,0 15.84001,-6.84001 15.84001,-17.496 0,-10.511989 -5.97602,-16.272 -16.92001,-16.272 l -23.184,0 0,52.488 10.8,0 0,-18.72 m 0,-9 0,-15.768 10.08,0 c 5.76,0 8.424,2.520006 8.424,7.92 0,5.327995 -2.664,7.848 -8.424,7.848 l -10.08,0"
         style="font-size:72px"
         id="path6370" />
      <path
         d="m 436.17662,28.009774 0,38.88 10.08,0 0,-20.664 c 0,-5.903994 2.95201,-8.856 8.856,-8.856 1.08,0 1.80001,0.072 3.168,0.288 l 0,-10.224 c -0.57599,-0.072 -0.936,-0.072 -1.224,-0.072 -4.60799,0 -8.64,3.024006 -10.8,8.28 l 0,-7.632 -10.08,0"
         style="font-size:72px"
         id="path6372" />
      <path
         d="m 481.297,27.361774 c -11.87999,0 -19.152,7.848013 -19.152,20.592 0,12.815988 7.27201,20.592 19.224,20.592 11.80799,0 19.224,-7.848012 19.224,-20.304 0,-13.175986 -7.12801,-20.88 -19.296,-20.88 m 0.072,8.136 c 5.54399,0 9.144,4.968008 9.144,12.6 0,7.271993 -3.74401,12.312 -9.144,12.312 -5.47199,0 -9.144,-5.040007 -9.144,-12.456 0,-7.415992 3.67201,-12.456 9.144,-12.456"
         style="font-size:72px"
         id="path6374" />
      <path
         d="m 541.22463,42.553774 c -0.72,-9.50399 -7.05601,-15.192 -16.77601,-15.192 -11.59198,0 -18.36,7.632014 -18.36,20.88 0,12.815988 6.69602,20.304 18.216,20.304 9.432,0 15.98401,-5.832009 16.92001,-15.12 l -9.648,0 c -1.296,5.039995 -3.31201,6.984 -7.20001,6.984 -5.11199,0 -8.20799,-4.608007 -8.20799,-12.168 0,-3.671996 0.72,-7.128002 1.94399,-9.432 1.152,-2.159997 3.38401,-3.312 6.264,-3.312 4.104,0 6.04801,1.944006 7.20001,7.056 l 9.648,0"
         style="font-size:72px"
         id="path6376" />
      <path
         d="m 581.44675,50.617774 c 0.072,-0.863999 0.072,-1.224 0.072,-1.728 0,-3.887996 -0.576,-7.488002 -1.512,-10.224 -2.592,-7.055992 -8.85601,-11.304 -16.704,-11.304 -11.15999,0 -18,8.064014 -18,21.096 0,12.455988 6.76801,20.088 17.784,20.088 8.71199,0 15.768,-4.968007 18,-12.6 l -9.936,0 c -1.224,3.095997 -4.032,4.896 -7.704,4.896 -2.88,0 -5.184,-1.224002 -6.624,-3.384 -0.936,-1.439998 -1.296,-3.168003 -1.44,-6.84 l 26.064,0 m -25.92,-6.696 c 0.648,-5.903994 3.168,-8.856 7.632,-8.856 2.52,0 4.824,1.224003 6.264,3.24 0.936,1.439999 1.368,2.952003 1.584,5.616 l -15.48,0"
         style="font-size:72px"
         id="path6378" />
      <path
         d="m 620.15688,40.537774 c -0.144,-8.207991 -6.48002,-13.176 -16.92,-13.176 -9.864,0 -15.984,4.968008 -15.984,12.96 0,2.591998 0.792,4.824002 2.15999,6.336 1.368,1.367999 2.59201,2.016002 6.336,3.24 l 12.024,3.744 c 2.52,0.792 3.38401,1.584002 3.38401,3.168 0,2.375998 -2.80801,3.816 -7.48801,3.816 -2.59199,0 -4.68,-0.504 -5.976,-1.368 -1.07999,-0.791999 -1.512,-1.584002 -1.944,-3.672 l -9.864,0 c 0.288,8.495992 6.55202,12.96 18.36,12.96 5.4,0 9.50401,-1.152002 12.384,-3.456 2.88,-2.303997 4.60801,-5.904003 4.60801,-9.72 0,-5.039994 -2.52001,-8.280001 -7.63201,-9.792 l -12.744,-3.672 c -2.80799,-0.863999 -3.528,-1.440001 -3.528,-3.024 0,-2.159997 2.30401,-3.6 5.83201,-3.6 4.82399,0 7.2,1.728004 7.27199,5.256 l 9.72001,0"
         style="font-size:72px"
         id="path6380" />
      <path
         d="m 645.547,27.361774 c -11.87999,0 -19.152,7.848013 -19.152,20.592 0,12.815988 7.27201,20.592 19.224,20.592 11.80799,0 19.224,-7.848012 19.224,-20.304 0,-13.175986 -7.12801,-20.88 -19.296,-20.88 m 0.072,8.136 c 5.54399,0 9.144,4.968008 9.144,12.6 0,7.271993 -3.74401,12.312 -9.144,12.312 -5.47199,0 -9.144,-5.040007 -9.144,-12.456 0,-7.415992 3.67201,-12.456 9.144,-12.456"
         style="font-size:72px"
         id="path6382" />
    </g>
  </g>
</svg>
