<?xml version="1.0" encoding="UTF-8" standalone="no"?>
<!-- Created with Inkscape (http://www.inkscape.org/) -->

<svg
   xmlns:dc="http://purl.org/dc/elements/1.1/"
   xmlns:cc="http://creativecommons.org/ns#"
   xmlns:rdf="http://www.w3.org/1999/02/22-rdf-syntax-ns#"
   xmlns:svg="http://www.w3.org/2000/svg"
   xmlns="http://www.w3.org/2000/svg"
   xmlns:sodipodi="http://sodipodi.sourceforge.net/DTD/sodipodi-0.dtd"
   xmlns:inkscape="http://www.inkscape.org/namespaces/inkscape"
   width="686.79224"
   height="609.91901"
   id="svg2"
   version="1.1"
   inkscape:version="0.48.3.1 r9886"
   sodipodi:docname="estrella_mar.svg">
  <defs
     id="defs4" />
  <sodipodi:namedview
     id="base"
     pagecolor="#ffffff"
     bordercolor="#666666"
     borderopacity="1.0"
     inkscape:pageopacity="0.0"
     inkscape:pageshadow="2"
     inkscape:zoom="0.82076867"
     inkscape:cx="458.12719"
     inkscape:cy="286.74154"
     inkscape:document-units="px"
     inkscape:current-layer="layer2"
     showgrid="false"
     fit-margin-top="0"
     fit-margin-left="0"
     fit-margin-right="0"
     fit-margin-bottom="0"
     inkscape:window-width="1676"
     inkscape:window-height="1011"
     inkscape:window-x="1280"
     inkscape:window-y="18"
     inkscape:window-maximized="0" />
  <metadata
     id="metadata7">
    <rdf:RDF>
      <cc:Work
         rdf:about="">
        <dc:format>image/svg+xml</dc:format>
        <dc:type
           rdf:resource="http://purl.org/dc/dcmitype/StillImage" />
        <dc:title />
      </cc:Work>
    </rdf:RDF>
  </metadata>
  <g
     inkscape:groupmode="layer"
     id="layer2"
     inkscape:label="Layer"
     transform="translate(-9.3070296,-24.088002)">
    <flowRoot
       xml:space="preserve"
       id="flowRoot3790"
       style="font-size:28px;font-style:normal;font-variant:normal;font-weight:bold;font-stretch:normal;line-height:125%;letter-spacing:0px;word-spacing:0px;fill:#000000;fill-opacity:1;stroke:none;font-family:Ubuntu;-inkscape-font-specification:Sans Bold"><flowRegion
         id="flowRegion3792"><rect
           id="rect3794"
           width="180.31877"
           height="56.045025"
           x="326.52319"
           y="51.386768" /></flowRegion><flowPara
         id="flowPara3796" /></flowRoot>    <g
       id="g3057"
       transform="matrix(1.2849343,0,0,1.2849343,-2.6518925,-6.8634994)">
      <g
         id="flowRoot3776"
         style="font-size:20px;font-style:normal;font-variant:normal;font-weight:normal;font-stretch:normal;line-height:125%;letter-spacing:0px;word-spacing:0px;fill:#000000;fill-opacity:1;stroke:none;font-family:Ubuntu;-inkscape-font-specification:Ubuntu"
         transform="translate(12.567327,4.8801794)">
        <path
           id="path3955"
           style="font-size:28px;font-weight:bold;-inkscape-font-specification:Ubuntu Bold"
           d="m 59.03775,54.267154 4.368,0 0,19.404 -4.368,0 0,-8.232 -7.336,0 0,8.232 -4.368,0 0,-19.404 4.368,0 0,7.42 7.336,0 0,-7.42"
           inkscape:connector-curvature="0" />
        <path
           id="path3957"
           style="font-size:28px;font-weight:bold;-inkscape-font-specification:Ubuntu Bold"
           d="m 73.24425,70.759154 c 0.410659,3e-6 0.802658,-0.0093 1.176,-0.028 0.373324,-0.01866 0.671991,-0.04666 0.896,-0.084 l 0,-3.164 c -0.168009,-0.03733 -0.420009,-0.07466 -0.756,-0.112 -0.336009,-0.03733 -0.644008,-0.05599 -0.924,-0.056 -0.392008,7e-6 -0.765341,0.02801 -1.12,0.084 -0.336007,0.03734 -0.634673,0.12134 -0.896,0.252 -0.261339,0.130673 -0.466672,0.308006 -0.616,0.532 -0.149339,0.224006 -0.224005,0.504005 -0.224,0.84 -5e-6,0.653338 0.214661,1.11067 0.644,1.372 0.447994,0.24267 1.05466,0.364003 1.82,0.364 m -0.336,-12.208 c 1.231992,1.5e-5 2.258657,0.140015 3.08,0.42 0.821322,0.280015 1.474655,0.681348 1.96,1.204 0.503987,0.52268 0.858654,1.157346 1.064,1.904 0.20532,0.746678 0.307986,1.577344 0.308,2.492 l 0,8.68 c -0.597346,0.130667 -1.428012,0.28 -2.492,0.448 -1.06401,0.186667 -2.352009,0.28 -3.864,0.28 -0.952006,0 -1.820005,-0.084 -2.604,-0.252 -0.765337,-0.168 -1.428003,-0.438666 -1.988,-0.812 -0.560002,-0.391999 -0.989335,-0.895998 -1.288,-1.512 -0.298668,-0.615997 -0.448001,-1.371996 -0.448,-2.268 -10e-7,-0.858661 0.167999,-1.58666 0.504,-2.184 0.354665,-0.597326 0.821331,-1.073325 1.4,-1.428 0.578663,-0.354658 1.241329,-0.606658 1.988,-0.756 0.746661,-0.167991 1.521327,-0.251991 2.324,-0.252 0.541326,9e-6 1.017325,0.02801 1.428,0.084 0.429324,0.03734 0.774657,0.09334 1.036,0.168 l 0,-0.392 c -1e-5,-0.709323 -0.214676,-1.278656 -0.644,-1.708 -0.429342,-0.429322 -1.176008,-0.643988 -2.24,-0.644 -0.709339,1.2e-5 -1.409339,0.05601 -2.1,0.168 -0.690671,0.09334 -1.288003,0.233345 -1.792,0.42 l -0.532,-3.36 c 0.242664,-0.07465 0.54133,-0.149318 0.896,-0.224 0.37333,-0.09332 0.774663,-0.167985 1.204,-0.224 0.429328,-0.07465 0.877328,-0.130651 1.344,-0.168 0.485327,-0.05598 0.97066,-0.08398 1.456,-0.084"
           inkscape:connector-curvature="0" />
        <path
           id="path3959"
           style="font-size:28px;font-weight:bold;-inkscape-font-specification:Ubuntu Bold"
           d="m 82.392813,66.307154 c -2e-6,-1.063991 0.167998,-2.062657 0.503999,-2.996 0.354665,-0.951988 0.858665,-1.773321 1.512,-2.464 0.65333,-0.70932 1.446662,-1.269319 2.380001,-1.68 0.933326,-0.410651 1.997325,-0.615985 3.191999,-0.616 0.783991,1.5e-5 1.502657,0.07468 2.156001,0.224 0.653321,0.130682 1.287987,0.326682 1.903999,0.588 l -0.868,3.332 c -0.392011,-0.149322 -0.821344,-0.279988 -1.288,-0.392 -0.466676,-0.111988 -0.989343,-0.167988 -1.568,-0.168 -1.232007,1.2e-5 -2.156007,0.382678 -2.771999,1.148 -0.59734,0.765343 -0.896006,1.773342 -0.896,3.024 -6e-6,1.32534 0.279994,2.352005 0.839999,3.08 0.57866,0.728004 1.577326,1.092003 2.996001,1.092 0.50399,3e-6 1.045322,-0.04666 1.623999,-0.14 0.578656,-0.09333 1.110655,-0.242663 1.596001,-0.448 l 0.587999,3.416 c -0.485346,0.205334 -1.092012,0.382667 -1.819999,0.532 -0.728011,0.149333 -1.530677,0.224 -2.408,0.224 -1.344008,0 -2.50134,-0.196 -3.472001,-0.588 -0.970671,-0.410666 -1.773337,-0.961332 -2.407999,-1.652 -0.616003,-0.690664 -1.073336,-1.502663 -1.372,-2.436 -0.280002,-0.951994 -0.420002,-1.97866 -0.42,-3.08"
           inkscape:connector-curvature="0" />
        <path
           id="path3961"
           style="font-size:28px;font-weight:bold;-inkscape-font-specification:Ubuntu Bold"
           d="m 95.681875,66.419154 c -1e-6,-1.306658 0.195999,-2.445323 0.588,-3.416 0.410664,-0.989321 0.942664,-1.810654 1.596,-2.464 0.653329,-0.653319 1.399995,-1.147985 2.239995,-1.484 0.85867,-0.335985 1.736,-0.503985 2.63201,-0.504 2.09065,1.5e-5 3.74265,0.644015 4.956,1.932 1.21331,1.269346 1.81998,3.145344 1.82,5.628 -2e-5,0.242674 -0.009,0.513341 -0.028,0.812 -0.0187,0.280007 -0.0373,0.532006 -0.056,0.756 l -9.463995,0 c 0.09332,0.858672 0.494665,1.540005 1.204005,2.044 0.70932,0.504004 1.66132,0.756003 2.856,0.756 0.76532,3e-6 1.51198,-0.06533 2.23999,-0.196 0.74666,-0.14933 1.35333,-0.326663 1.82001,-0.532 l 0.56,3.388 c -0.22402,0.112001 -0.52269,0.224001 -0.896,0.336 -0.37335,0.112 -0.79335,0.205334 -1.26001,0.28 -0.44801,0.09333 -0.93334,0.168 -1.456,0.224 -0.52267,0.056 -1.04534,0.084 -1.568,0.084 -1.32534,0 -2.48267,-0.196 -3.471995,-0.588 -0.970671,-0.391999 -1.78267,-0.923999 -2.436,-1.596 -0.634669,-0.690664 -1.110669,-1.502663 -1.428,-2.436 -0.298668,-0.933328 -0.448001,-1.941327 -0.448,-3.024 m 9.800005,-1.596 c -0.0187,-0.354657 -0.084,-0.69999 -0.196,-1.036 -0.0934,-0.33599 -0.25202,-0.634656 -0.476,-0.896 -0.20535,-0.261322 -0.47601,-0.475988 -0.81201,-0.644 -0.31734,-0.167988 -0.71867,-0.251988 -1.20399,-0.252 -0.46668,1.2e-5 -0.86801,0.08401 -1.204,0.252 -0.33601,0.149345 -0.61601,0.354678 -0.84,0.616 -0.22401,0.261344 -0.40134,0.569344 -0.532,0.924 -0.11201,0.33601 -0.19601,0.681343 -0.252005,1.036 l 5.516005,0"
           inkscape:connector-curvature="0" />
        <path
           id="path3963"
           style="font-size:28px;font-weight:bold;-inkscape-font-specification:Ubuntu Bold"
           d="m 121.60944,62.639154 c -0.37335,-0.09332 -0.81201,-0.186655 -1.316,-0.28 -0.50401,-0.111988 -1.04534,-0.167988 -1.624,-0.168 -0.26134,1.2e-5 -0.57868,0.02801 -0.952,0.084 -0.35468,0.03735 -0.62534,0.08401 -0.812,0.14 l 0,11.256 -4.172,0 0,-13.944 c 0.74666,-0.261319 1.62399,-0.503985 2.632,-0.728 1.02666,-0.242651 2.16532,-0.363985 3.416,-0.364 0.22399,1.5e-5 0.49466,0.01868 0.812,0.056 0.31732,0.01868 0.63465,0.05602 0.952,0.112 0.31732,0.03735 0.63465,0.09335 0.952,0.168 0.31732,0.05602 0.58799,0.130682 0.812,0.224 l -0.7,3.444"
           inkscape:connector-curvature="0" />
        <path
           id="path3965"
           style="font-size:28px;font-weight:bold;-inkscape-font-specification:Ubuntu Bold"
           d="m 135.4445,73.671154 -4.172,0 0,-14.728 4.172,0 0,14.728 m 0.392,-18.984 c -1e-5,0.765352 -0.25201,1.372018 -0.756,1.82 -0.48534,0.42935 -1.064,0.644017 -1.736,0.644 -0.672,1.7e-5 -1.26,-0.21465 -1.764,-0.644 -0.48534,-0.447982 -0.728,-1.054648 -0.728,-1.82 0,-0.765313 0.24266,-1.362646 0.728,-1.792 0.504,-0.447979 1.092,-0.671978 1.764,-0.672 0.672,2.2e-5 1.25066,0.224021 1.736,0.672 0.50399,0.429354 0.75599,1.026687 0.756,1.792"
           inkscape:connector-curvature="0" />
        <path
           id="path3967"
           style="font-size:28px;font-weight:bold;-inkscape-font-specification:Ubuntu Bold"
           d="m 142.92225,65.831154 c -1e-5,2.333339 0.94266,3.500005 2.828,3.5 0.42932,5e-6 0.83066,-0.05599 1.204,-0.168 0.37332,-0.111995 0.69066,-0.242662 0.952,-0.392 l 0,-6.664 c -0.20534,-0.03732 -0.44801,-0.06532 -0.728,-0.084 -0.28001,-0.03732 -0.60668,-0.05599 -0.98,-0.056 -1.10134,1.2e-5 -1.92267,0.364012 -2.464,1.092 -0.54134,0.72801 -0.81201,1.652009 -0.812,2.772 m 9.156,5.992 c -1e-5,2.408 -0.61601,4.190665 -1.848,5.348 -1.21334,1.175996 -3.09868,1.763995 -5.656,1.764 -0.89601,-5e-6 -1.79201,-0.084 -2.688,-0.252 -0.896,-0.149338 -1.72667,-0.354671 -2.492,-0.616 l 0.728,-3.5 c 0.65333,0.261332 1.33466,0.466666 2.044,0.616 0.72799,0.149332 1.54933,0.223999 2.464,0.224 1.19466,-1e-6 2.03466,-0.261335 2.52,-0.784 0.50399,-0.522667 0.75599,-1.194666 0.756,-2.016 l 0,-0.532 c -0.44801,0.205335 -0.91468,0.364001 -1.4,0.476 -0.46668,0.09333 -0.98001,0.140001 -1.54,0.14 -2.03467,10e-7 -3.59334,-0.597331 -4.676,-1.792 -1.08267,-1.213329 -1.624,-2.902661 -1.624,-5.068 0,-1.082657 0.168,-2.062656 0.504,-2.94 0.336,-0.895988 0.82133,-1.661321 1.456,-2.296 0.65333,-0.634653 1.44666,-1.119986 2.38,-1.456 0.93333,-0.354652 1.98799,-0.531985 3.164,-0.532 0.50399,1.5e-5 1.01732,0.02801 1.54,0.084 0.54132,0.03735 1.07332,0.09335 1.596,0.168 0.52265,0.07468 1.01732,0.168015 1.484,0.28 0.48532,0.09335 0.91465,0.196015 1.288,0.308 l 0,12.376"
           inkscape:connector-curvature="0" />
        <path
           id="path3969"
           style="font-size:28px;font-weight:bold;-inkscape-font-specification:Ubuntu Bold"
           d="m 168.56325,73.167154 c -0.70935,0.205334 -1.62401,0.392 -2.744,0.56 -1.12001,0.186667 -2.29601,0.28 -3.528,0.28 -1.25067,0 -2.29601,-0.168 -3.136,-0.504 -0.82134,-0.335999 -1.47467,-0.802665 -1.96,-1.4 -0.48534,-0.615998 -0.83067,-1.343997 -1.036,-2.184 -0.20534,-0.839995 -0.308,-1.763994 -0.308,-2.772 l 0,-8.204 4.172,0 0,7.7 c -1e-5,1.344006 0.17733,2.314672 0.532,2.912 0.35466,0.597337 1.01733,0.896003 1.988,0.896 0.29866,3e-6 0.61599,-0.0093 0.952,-0.028 0.33599,-0.03733 0.63466,-0.07466 0.896,-0.112 l 0,-11.368 4.172,0 0,14.224"
           inkscape:connector-curvature="0" />
        <path
           id="path3971"
           style="font-size:28px;font-weight:bold;-inkscape-font-specification:Ubuntu Bold"
           d="m 178.13487,70.759154 c 0.41066,3e-6 0.80266,-0.0093 1.176,-0.028 0.37333,-0.01866 0.672,-0.04666 0.896,-0.084 l 0,-3.164 c -0.168,-0.03733 -0.42,-0.07466 -0.756,-0.112 -0.336,-0.03733 -0.644,-0.05599 -0.924,-0.056 -0.392,7e-6 -0.76534,0.02801 -1.11999,0.084 -0.33601,0.03734 -0.63468,0.12134 -0.89601,0.252 -0.26133,0.130673 -0.46667,0.308006 -0.61599,0.532 -0.14934,0.224006 -0.22401,0.504005 -0.22401,0.84 0,0.653338 0.21467,1.11067 0.644,1.372 0.448,0.24267 1.05466,0.364003 1.82,0.364 m -0.336,-12.208 c 1.232,1.5e-5 2.25866,0.140015 3.08,0.42 0.82133,0.280015 1.47466,0.681348 1.96,1.204 0.50399,0.52268 0.85866,1.157346 1.064,1.904 0.20532,0.746678 0.30799,1.577344 0.308,2.492 l 0,8.68 c -0.59734,0.130667 -1.42801,0.28 -2.492,0.448 -1.06401,0.186667 -2.352,0.28 -3.864,0.28 -0.952,0 -1.82,-0.084 -2.604,-0.252 -0.76533,-0.168 -1.428,-0.438666 -1.988,-0.812 -0.56,-0.391999 -0.98933,-0.895998 -1.288,-1.512 -0.29866,-0.615997 -0.448,-1.371996 -0.448,-2.268 0,-0.858661 0.168,-1.58666 0.504,-2.184 0.35467,-0.597326 0.82134,-1.073325 1.40001,-1.428 0.57866,-0.354658 1.24132,-0.606658 1.988,-0.756 0.74666,-0.167991 1.52132,-0.251991 2.32399,-0.252 0.54133,9e-6 1.01733,0.02801 1.428,0.084 0.42933,0.03734 0.77466,0.09334 1.036,0.168 l 0,-0.392 c 0,-0.709323 -0.21467,-1.278656 -0.644,-1.708 -0.42934,-0.429322 -1.176,-0.643988 -2.24,-0.644 -0.70933,1.2e-5 -1.40933,0.05601 -2.1,0.168 -0.69067,0.09334 -1.288,0.233345 -1.79199,0.42 l -0.53201,-3.36 c 0.24267,-0.07465 0.54134,-0.149318 0.896,-0.224 0.37333,-0.09332 0.77467,-0.167985 1.204,-0.224 0.42933,-0.07465 0.87733,-0.130651 1.344,-0.168 0.48533,-0.05598 0.97066,-0.08398 1.456,-0.084"
           inkscape:connector-curvature="0" />
        <path
           id="path3973"
           style="font-size:28px;font-weight:bold;-inkscape-font-specification:Ubuntu Bold"
           d="m 193.86344,73.951154 c -1.21334,-0.01867 -2.20267,-0.149333 -2.968,-0.392 -0.74667,-0.242666 -1.34401,-0.578666 -1.792,-1.008 -0.42934,-0.447998 -0.728,-0.979998 -0.896,-1.596 -0.14934,-0.634663 -0.224,-1.343996 -0.224,-2.128 l 0,-16.212 4.172,-0.672 0,16.044 c -1e-5,0.373339 0.028,0.709339 0.084,1.008 0.056,0.298671 0.15866,0.550671 0.308,0.756 0.16799,0.205337 0.40132,0.373337 0.7,0.504 0.29866,0.13067 0.69999,0.21467 1.204,0.252 l -0.588,3.444"
           inkscape:connector-curvature="0" />
      </g>
      <g
         id="flowRoot3798"
         style="font-size:28px;font-style:normal;font-variant:normal;font-weight:bold;font-stretch:normal;line-height:125%;letter-spacing:0px;word-spacing:0px;fill:#000000;fill-opacity:1;stroke:none;font-family:Ubuntu;-inkscape-font-specification:Sans Bold"
         transform="translate(-13.260979,-3.1384822)">
        <path
           id="path3938"
           d="m 361.194,60.360904 4.368,0 0,19.404 -4.368,0 0,-8.232 -7.336,0 0,8.232 -4.368,0 0,-19.404 4.368,0 0,7.42 7.336,0 0,-7.42"
           inkscape:connector-curvature="0" />
        <path
           id="path3940"
           d="m 375.4005,76.852904 c 0.41066,3e-6 0.80266,-0.0093 1.176,-0.028 0.37332,-0.01866 0.67199,-0.04666 0.896,-0.084 l 0,-3.164 c -0.16801,-0.03733 -0.42001,-0.07466 -0.756,-0.112 -0.33601,-0.03733 -0.64401,-0.05599 -0.924,-0.056 -0.39201,7e-6 -0.76534,0.02801 -1.12,0.084 -0.33601,0.03734 -0.63467,0.12134 -0.896,0.252 -0.26134,0.130673 -0.46667,0.308006 -0.616,0.532 -0.14934,0.224006 -0.22401,0.504005 -0.224,0.84 -1e-5,0.653338 0.21466,1.11067 0.644,1.372 0.44799,0.24267 1.05466,0.364003 1.82,0.364 m -0.336,-12.208 c 1.23199,1.5e-5 2.25866,0.140015 3.08,0.42 0.82132,0.280015 1.47465,0.681348 1.96,1.204 0.50399,0.52268 0.85865,1.157346 1.064,1.904 0.20532,0.746678 0.30799,1.577344 0.308,2.492 l 0,8.68 c -0.59735,0.130667 -1.42801,0.28 -2.492,0.448 -1.06401,0.186667 -2.35201,0.28 -3.864,0.28 -0.95201,0 -1.82001,-0.084 -2.604,-0.252 -0.76534,-0.168 -1.428,-0.438666 -1.988,-0.812 -0.56,-0.391999 -0.98934,-0.895998 -1.288,-1.512 -0.29867,-0.615997 -0.448,-1.371996 -0.448,-2.268 0,-0.858661 0.168,-1.58666 0.504,-2.184 0.35466,-0.597326 0.82133,-1.073325 1.4,-1.428 0.57866,-0.354658 1.24133,-0.606658 1.988,-0.756 0.74666,-0.167991 1.52133,-0.251991 2.324,-0.252 0.54133,9e-6 1.01733,0.02801 1.428,0.084 0.42932,0.03734 0.77466,0.09334 1.036,0.168 l 0,-0.392 c -1e-5,-0.709323 -0.21468,-1.278656 -0.644,-1.708 -0.42934,-0.429322 -1.17601,-0.643988 -2.24,-0.644 -0.70934,1.2e-5 -1.40934,0.05601 -2.1,0.168 -0.69067,0.09334 -1.288,0.233345 -1.792,0.42 l -0.532,-3.36 c 0.24266,-0.07465 0.54133,-0.149318 0.896,-0.224 0.37333,-0.09332 0.77466,-0.167985 1.204,-0.224 0.42933,-0.07465 0.87733,-0.130651 1.344,-0.168 0.48533,-0.05599 0.97066,-0.08398 1.456,-0.084"
           inkscape:connector-curvature="0" />
        <path
           id="path3942"
           d="m 384.54906,72.400904 c 0,-1.063991 0.168,-2.062657 0.504,-2.996 0.35467,-0.951988 0.85867,-1.773321 1.512,-2.464 0.65333,-0.70932 1.44666,-1.269319 2.38,-1.68 0.93333,-0.410651 1.99733,-0.615985 3.192,-0.616 0.78399,1.5e-5 1.50266,0.07468 2.156,0.224 0.65332,0.130682 1.28799,0.326682 1.904,0.588 l -0.868,3.332 c -0.39201,-0.149322 -0.82134,-0.279988 -1.288,-0.392 -0.46667,-0.111988 -0.98934,-0.167988 -1.568,-0.168 -1.23201,1.2e-5 -2.156,0.382678 -2.772,1.148 -0.59734,0.765343 -0.896,1.773342 -0.896,3.024 0,1.32534 0.28,2.352005 0.84,3.08 0.57866,0.728004 1.57733,1.092003 2.996,1.092 0.50399,3e-6 1.04533,-0.04666 1.624,-0.14 0.57866,-0.09333 1.11066,-0.242663 1.596,-0.448 l 0.588,3.416 c -0.48534,0.205334 -1.09201,0.382667 -1.82,0.532 -0.72801,0.149333 -1.53067,0.224 -2.408,0.224 -1.34401,0 -2.50134,-0.196 -3.472,-0.588 -0.97067,-0.410666 -1.77333,-0.961332 -2.408,-1.652 -0.616,-0.690664 -1.07333,-1.502663 -1.372,-2.436 -0.28,-0.951994 -0.42,-1.97866 -0.42,-3.08"
           inkscape:connector-curvature="0" />
        <path
           id="path3944"
           d="m 397.83812,72.512904 c 0,-1.306658 0.196,-2.445323 0.58801,-3.416 0.41066,-0.989321 0.94266,-1.810654 1.596,-2.464 0.65332,-0.653319 1.39999,-1.147985 2.24,-1.484 0.85866,-0.335985 1.73599,-0.503985 2.63199,-0.504 2.09066,1.5e-5 3.74266,0.644015 4.956,1.932 1.21332,1.269346 1.81999,3.145344 1.82,5.628 -10e-6,0.242674 -0.009,0.513341 -0.028,0.812 -0.0187,0.280007 -0.0374,0.532006 -0.056,0.756 l -9.464,0 c 0.0933,0.858672 0.49467,1.540005 1.204,2.044 0.70933,0.504004 1.66133,0.756003 2.856,0.756 0.76533,3e-6 1.51199,-0.06533 2.24,-0.196 0.74666,-0.14933 1.35333,-0.326663 1.82,-0.532 l 0.56,3.388 c -0.22401,0.112001 -0.52268,0.224001 -0.896,0.336 -0.37334,0.112 -0.79334,0.205334 -1.26,0.28 -0.44801,0.09333 -0.93334,0.168 -1.45599,0.224 -0.52268,0.056 -1.04535,0.084 -1.56801,0.084 -1.32534,0 -2.48267,-0.196 -3.472,-0.588 -0.97067,-0.391999 -1.78267,-0.923999 -2.43599,-1.596 -0.63467,-0.690664 -1.11067,-1.502663 -1.428,-2.436 -0.29867,-0.933328 -0.44801,-1.941327 -0.44801,-3.024 m 9.8,-1.596 c -0.0187,-0.354657 -0.084,-0.69999 -0.196,-1.036 -0.0933,-0.33599 -0.25201,-0.634656 -0.476,-0.896 -0.20534,-0.261322 -0.476,-0.475988 -0.81199,-0.644 -0.31735,-0.167988 -0.71868,-0.251988 -1.204,-0.252 -0.46668,1.2e-5 -0.86801,0.08401 -1.20401,0.252 -0.336,0.149345 -0.616,0.354678 -0.84,0.616 -0.224,0.261344 -0.40133,0.569344 -0.532,0.924 -0.112,0.33601 -0.196,0.681343 -0.252,1.036 l 5.516,0"
           inkscape:connector-curvature="0" />
        <path
           id="path3946"
           d="m 423.76569,68.732904 c -0.37335,-0.09332 -0.81201,-0.186655 -1.316,-0.28 -0.50401,-0.111988 -1.04534,-0.167988 -1.624,-0.168 -0.26134,1.2e-5 -0.57868,0.02801 -0.952,0.084 -0.35468,0.03735 -0.62534,0.08401 -0.812,0.14 l 0,11.256 -4.172,0 0,-13.944 c 0.74666,-0.261319 1.62399,-0.503985 2.632,-0.728 1.02666,-0.242651 2.16532,-0.363985 3.416,-0.364 0.22399,1.5e-5 0.49466,0.01868 0.812,0.056 0.31732,0.01868 0.63465,0.05602 0.952,0.112 0.31732,0.03735 0.63465,0.09335 0.952,0.168 0.31732,0.05602 0.58799,0.130682 0.812,0.224 l -0.7,3.444"
           inkscape:connector-curvature="0" />
        <path
           id="path3948"
           d="m 441.52075,71.952904 c -1e-5,-1.343991 -0.17734,-2.29599 -0.532,-2.856 -0.33601,-0.559989 -0.92401,-0.839988 -1.764,-0.84 -0.26134,1.2e-5 -0.53201,0.01868 -0.812,0.056 -0.28001,0.01868 -0.55067,0.04668 -0.812,0.084 l 0,11.368 -4.172,0 0,-14.224 c 0.35466,-0.09332 0.76533,-0.186652 1.232,-0.28 0.48533,-0.111985 0.98933,-0.205318 1.512,-0.28 0.54133,-0.09332 1.09199,-0.158651 1.652,-0.196 0.55999,-0.05598 1.11066,-0.08398 1.652,-0.084 1.06399,1.5e-5 1.92266,0.140015 2.576,0.42 0.67199,0.261348 1.22265,0.578681 1.652,0.952 0.59732,-0.429319 1.27865,-0.765319 2.044,-1.008 0.78398,-0.242651 1.50265,-0.363985 2.156,-0.364 1.17598,1.5e-5 2.13731,0.168015 2.884,0.504 0.76531,0.317348 1.37198,0.774681 1.82,1.372 0.44798,0.597346 0.75598,1.306679 0.924,2.128 0.16798,0.821344 0.25198,1.73601 0.252,2.744 l 0,8.316 -4.172,0 0,-7.812 c -2e-5,-1.343991 -0.17735,-2.29599 -0.532,-2.856 -0.33602,-0.559989 -0.92402,-0.839988 -1.764,-0.84 -0.22402,1.2e-5 -0.54135,0.05601 -0.952,0.168 -0.39201,0.112011 -0.71868,0.252011 -0.98,0.42 0.13065,0.429344 0.21465,0.886677 0.252,1.372 0.0373,0.466676 0.056,0.970676 0.056,1.512 l 0,8.036 -4.172,0 0,-7.812"
           inkscape:connector-curvature="0" />
        <path
           id="path3950"
           d="m 463.17394,76.852904 c 0.41066,3e-6 0.80266,-0.0093 1.176,-0.028 0.37332,-0.01866 0.67199,-0.04666 0.896,-0.084 l 0,-3.164 c -0.16801,-0.03733 -0.42001,-0.07466 -0.756,-0.112 -0.33601,-0.03733 -0.64401,-0.05599 -0.924,-0.056 -0.39201,7e-6 -0.76534,0.02801 -1.12,0.084 -0.33601,0.03734 -0.63468,0.12134 -0.896,0.252 -0.26134,0.130673 -0.46667,0.308006 -0.616,0.532 -0.14934,0.224006 -0.22401,0.504005 -0.224,0.84 -1e-5,0.653338 0.21466,1.11067 0.644,1.372 0.44799,0.24267 1.05466,0.364003 1.82,0.364 m -0.336,-12.208 c 1.23199,1.5e-5 2.25865,0.140015 3.08,0.42 0.82132,0.280015 1.47465,0.681348 1.96,1.204 0.50398,0.52268 0.85865,1.157346 1.064,1.904 0.20532,0.746678 0.30798,1.577344 0.308,2.492 l 0,8.68 c -0.59735,0.130667 -1.42801,0.28 -2.492,0.448 -1.06401,0.186667 -2.35201,0.28 -3.864,0.28 -0.95201,0 -1.82001,-0.084 -2.604,-0.252 -0.76534,-0.168 -1.42801,-0.438666 -1.988,-0.812 -0.56,-0.391999 -0.98934,-0.895998 -1.288,-1.512 -0.29867,-0.615997 -0.448,-1.371996 -0.448,-2.268 0,-0.858661 0.168,-1.58666 0.504,-2.184 0.35466,-0.597326 0.82133,-1.073325 1.4,-1.428 0.57866,-0.354658 1.24133,-0.606658 1.988,-0.756 0.74666,-0.167991 1.52132,-0.251991 2.324,-0.252 0.54132,9e-6 1.01732,0.02801 1.428,0.084 0.42932,0.03734 0.77465,0.09334 1.036,0.168 l 0,-0.392 c -1e-5,-0.709323 -0.21468,-1.278656 -0.644,-1.708 -0.42934,-0.429322 -1.17601,-0.643988 -2.24,-0.644 -0.70934,1.2e-5 -1.40934,0.05601 -2.1,0.168 -0.69067,0.09334 -1.28801,0.233345 -1.792,0.42 l -0.532,-3.36 c 0.24266,-0.07465 0.54133,-0.149318 0.896,-0.224 0.37333,-0.09332 0.77466,-0.167985 1.204,-0.224 0.42933,-0.07465 0.87733,-0.130651 1.344,-0.168 0.48532,-0.05599 0.97066,-0.08398 1.456,-0.084 m 3.864,-4.9 -4.62,3.892 -1.904,-1.708 3.976,-4.536 2.548,2.352"
           inkscape:connector-curvature="0" />
        <path
           id="path3952"
           d="m 477.2505,76.768904 c 0.76533,3e-6 1.30666,-0.07466 1.624,-0.224 0.31733,-0.14933 0.47599,-0.438663 0.476,-0.868 -1e-5,-0.335995 -0.20534,-0.625328 -0.616,-0.868 -0.41067,-0.261328 -1.03601,-0.550661 -1.876,-0.868 -0.65334,-0.24266 -1.25067,-0.49466 -1.792,-0.756 -0.52267,-0.261326 -0.97067,-0.569326 -1.344,-0.924 -0.37334,-0.373325 -0.66267,-0.811991 -0.868,-1.316 -0.20533,-0.50399 -0.308,-1.110656 -0.308,-1.82 0,-1.381321 0.51333,-2.47332 1.54,-3.276 1.02666,-0.802652 2.43599,-1.203985 4.228,-1.204 0.89599,1.5e-5 1.75466,0.08402 2.576,0.252 0.82132,0.149348 1.47466,0.317348 1.96,0.504 l -0.728,3.248 c -0.48534,-0.167988 -1.01734,-0.317322 -1.596,-0.448 -0.56001,-0.130655 -1.19467,-0.195988 -1.904,-0.196 -1.30667,1.2e-5 -1.96001,0.364012 -1.96,1.092 -1e-5,0.168011 0.028,0.317344 0.084,0.448 0.056,0.130677 0.16799,0.261344 0.336,0.392 0.16799,0.11201 0.39199,0.242677 0.672,0.392 0.29866,0.130676 0.67199,0.280009 1.12,0.448 0.91466,0.336009 1.67066,0.672009 2.268,1.008 0.59732,0.317341 1.06399,0.672008 1.4,1.064 0.35465,0.37334 0.59732,0.79334 0.728,1.26 0.14932,0.466672 0.22399,1.008005 0.224,1.624 -1e-5,1.456003 -0.55068,2.557335 -1.652,3.304 -1.08268,0.746667 -2.62267,1.12 -4.62,1.12 -1.30667,0 -2.39867,-0.112 -3.276,-0.336 -0.85867,-0.224 -1.456,-0.410666 -1.792,-0.56 l 0.7,-3.388 c 0.70933,0.280004 1.43733,0.504004 2.184,0.672 0.74666,0.149337 1.48399,0.224003 2.212,0.224"
           inkscape:connector-curvature="0" />
      </g>
      <g
         id="flowRoot3806"
         style="font-size:28px;font-style:normal;font-variant:normal;font-weight:bold;font-stretch:normal;text-align:center;line-height:125%;letter-spacing:0px;word-spacing:0px;text-anchor:middle;fill:#000000;fill-opacity:1;stroke:none;font-family:Ubuntu;-inkscape-font-specification:Sans Bold"
         transform="translate(3.4154467,45.937405)">
        <path
           id="path3911"
           d="m 427.73219,271.04615 0,-19.404 13.104,0 0,3.668 -8.736,0 0,3.808 7.756,0 0,3.584 -7.756,0 0,4.676 9.38,0 0,3.668 -13.748,0"
           inkscape:connector-curvature="0" />
        <path
           id="path3913"
           d="m 452.49731,263.23415 c -1e-5,-1.34399 -0.17734,-2.29599 -0.532,-2.856 -0.33601,-0.55998 -0.92401,-0.83998 -1.764,-0.84 -0.26134,2e-5 -0.532,0.0187 -0.812,0.056 -0.28,0.0187 -0.55067,0.0467 -0.812,0.084 l 0,11.368 -4.172,0 0,-14.224 c 0.35467,-0.0933 0.76533,-0.18665 1.232,-0.28 0.48533,-0.11198 0.98933,-0.20531 1.512,-0.28 0.54133,-0.0933 1.092,-0.15865 1.652,-0.196 0.56,-0.056 1.11066,-0.084 1.652,-0.084 1.06399,2e-5 1.92266,0.14002 2.576,0.42 0.67199,0.26135 1.22266,0.57868 1.652,0.952 0.59732,-0.42931 1.27866,-0.76531 2.044,-1.008 0.78399,-0.24265 1.50265,-0.36398 2.156,-0.364 1.17598,2e-5 2.13732,0.16802 2.884,0.504 0.76532,0.31735 1.37198,0.77468 1.82,1.372 0.44798,0.59735 0.75598,1.30668 0.924,2.128 0.16798,0.82135 0.25198,1.73601 0.252,2.744 l 0,8.316 -4.172,0 0,-7.812 c -2e-5,-1.34399 -0.17735,-2.29599 -0.532,-2.856 -0.33601,-0.55998 -0.92401,-0.83998 -1.764,-0.84 -0.22401,2e-5 -0.54135,0.056 -0.952,0.168 -0.39201,0.11202 -0.71868,0.25202 -0.98,0.42 0.13066,0.42935 0.21466,0.88668 0.252,1.372 0.0373,0.46668 0.056,0.97068 0.056,1.512 l 0,8.036 -4.172,0 0,-7.812"
           inkscape:connector-curvature="0" />
        <path
           id="path3915"
           d="m 477.9585,263.79415 c -1e-5,-1.28799 -0.28934,-2.31465 -0.868,-3.08 -0.57868,-0.78398 -1.43734,-1.17598 -2.576,-1.176 -0.37334,2e-5 -0.71867,0.0187 -1.036,0.056 -0.31734,0.0187 -0.57867,0.0467 -0.784,0.084 l 0,7.532 c 0.26133,0.16801 0.59733,0.30801 1.008,0.42 0.42933,0.11201 0.85866,0.16801 1.288,0.168 1.97866,10e-6 2.96799,-1.33466 2.968,-4.004 m 4.256,-0.112 c -2e-5,1.13868 -0.14002,2.17468 -0.42,3.108 -0.28001,0.93334 -0.69068,1.73601 -1.232,2.408 -0.54135,0.67201 -1.21335,1.19467 -2.016,1.568 -0.80268,0.37334 -1.72668,0.56 -2.772,0.56 -0.57868,0 -1.12001,-0.056 -1.624,-0.168 -0.50401,-0.112 -0.98934,-0.27066 -1.456,-0.476 l 0,5.544 -4.172,0 0,-19.404 c 0.37333,-0.11198 0.80266,-0.21465 1.288,-0.308 0.48533,-0.11198 0.98933,-0.20531 1.512,-0.28 0.54133,-0.0747 1.08266,-0.13065 1.624,-0.168 0.55999,-0.056 1.09199,-0.084 1.596,-0.084 1.21332,2e-5 2.29599,0.18669 3.248,0.56 0.95199,0.35469 1.75465,0.86802 2.408,1.54 0.65332,0.65335 1.14799,1.45602 1.484,2.408 0.35465,0.95201 0.53198,2.01601 0.532,3.192"
           inkscape:connector-curvature="0" />
        <path
           id="path3917"
           d="m 484.72094,263.79415 c 0,-1.30665 0.196,-2.44532 0.588,-3.416 0.41066,-0.98932 0.94266,-1.81065 1.596,-2.464 0.65333,-0.65332 1.39999,-1.14798 2.24,-1.484 0.85866,-0.33598 1.73599,-0.50398 2.632,-0.504 2.09065,2e-5 3.74265,0.64402 4.956,1.932 1.21332,1.26935 1.81998,3.14535 1.82,5.628 -2e-5,0.24268 -0.009,0.51334 -0.028,0.812 -0.0187,0.28001 -0.0374,0.53201 -0.056,0.756 l -9.464,0 c 0.0933,0.85868 0.49466,1.54001 1.204,2.044 0.70932,0.50401 1.66132,0.75601 2.856,0.756 0.76532,10e-6 1.51199,-0.0653 2.24,-0.196 0.74665,-0.14933 1.35332,-0.32666 1.82,-0.532 l 0.56,3.388 c -0.22402,0.112 -0.52268,0.224 -0.896,0.336 -0.37335,0.112 -0.79335,0.20534 -1.26,0.28 -0.44801,0.0933 -0.93335,0.168 -1.456,0.224 -0.52268,0.056 -1.04535,0.084 -1.568,0.084 -1.32534,0 -2.48268,-0.196 -3.472,-0.588 -0.97067,-0.392 -1.78267,-0.92399 -2.436,-1.596 -0.63467,-0.69066 -1.11067,-1.50266 -1.428,-2.436 -0.29867,-0.93332 -0.448,-1.94132 -0.448,-3.024 m 9.8,-1.596 c -0.0187,-0.35465 -0.084,-0.69999 -0.196,-1.036 -0.0934,-0.33599 -0.25201,-0.63465 -0.476,-0.896 -0.20535,-0.26132 -0.47601,-0.47598 -0.812,-0.644 -0.31735,-0.16798 -0.71868,-0.25198 -1.204,-0.252 -0.46668,2e-5 -0.86801,0.084 -1.204,0.252 -0.33601,0.14935 -0.61601,0.35468 -0.84,0.616 -0.22401,0.26135 -0.40134,0.56935 -0.532,0.924 -0.11201,0.33601 -0.19601,0.68135 -0.252,1.036 l 5.516,0"
           inkscape:connector-curvature="0" />
        <path
           id="path3919"
           d="m 512.8325,259.11815 c -0.33601,0.37335 -0.79335,0.87735 -1.372,1.512 -0.56001,0.63468 -1.16668,1.33468 -1.82,2.1 -0.65334,0.76535 -1.31601,1.56801 -1.988,2.408 -0.65334,0.84001 -1.25067,1.65201 -1.792,2.436 l 7.112,0 0,3.472 -12.18,0 0,-2.464 c 0.392,-0.67199 0.85866,-1.39066 1.4,-2.156 0.56,-0.78399 1.13866,-1.56799 1.736,-2.352 0.616,-0.78399 1.22266,-1.53999 1.82,-2.268 0.59733,-0.74665 1.14799,-1.41865 1.652,-2.016 l -6.272,0 0,-3.472 11.704,0 0,2.8"
           inkscape:connector-curvature="0" />
        <path
           id="path3921"
           d="m 520.963,268.13415 c 0.41066,1e-5 0.80266,-0.009 1.176,-0.028 0.37332,-0.0187 0.67199,-0.0467 0.896,-0.084 l 0,-3.164 c -0.16801,-0.0373 -0.42001,-0.0747 -0.756,-0.112 -0.33601,-0.0373 -0.64401,-0.056 -0.924,-0.056 -0.39201,10e-6 -0.76534,0.028 -1.12,0.084 -0.33601,0.0373 -0.63467,0.12134 -0.896,0.252 -0.26134,0.13068 -0.46667,0.30801 -0.616,0.532 -0.14934,0.22401 -0.22401,0.50401 -0.224,0.84 -10e-6,0.65334 0.21466,1.11067 0.644,1.372 0.44799,0.24267 1.05466,0.36401 1.82,0.364 m -0.336,-12.208 c 1.23199,2e-5 2.25866,0.14002 3.08,0.42 0.82132,0.28002 1.47465,0.68135 1.96,1.204 0.50399,0.52268 0.85865,1.15735 1.064,1.904 0.20532,0.74668 0.30799,1.57735 0.308,2.492 l 0,8.68 c -0.59735,0.13067 -1.42801,0.28 -2.492,0.448 -1.06401,0.18667 -2.35201,0.28 -3.864,0.28 -0.95201,0 -1.82001,-0.084 -2.604,-0.252 -0.76534,-0.168 -1.428,-0.43866 -1.988,-0.812 -0.56,-0.39199 -0.98934,-0.89599 -1.288,-1.512 -0.29867,-0.61599 -0.448,-1.37199 -0.448,-2.268 0,-0.85866 0.168,-1.58666 0.504,-2.184 0.35466,-0.59732 0.82133,-1.07332 1.4,-1.428 0.57866,-0.35465 1.24133,-0.60665 1.988,-0.756 0.74666,-0.16799 1.52133,-0.25199 2.324,-0.252 0.54133,10e-6 1.01733,0.028 1.428,0.084 0.42932,0.0374 0.77466,0.0933 1.036,0.168 l 0,-0.392 c -10e-6,-0.70932 -0.21468,-1.27865 -0.644,-1.708 -0.42934,-0.42932 -1.17601,-0.64398 -2.24,-0.644 -0.70934,2e-5 -1.40934,0.056 -2.1,0.168 -0.69067,0.0933 -1.288,0.23335 -1.792,0.42 l -0.532,-3.36 c 0.24266,-0.0747 0.54133,-0.14931 0.896,-0.224 0.37333,-0.0933 0.77466,-0.16798 1.204,-0.224 0.42933,-0.0747 0.87733,-0.13065 1.344,-0.168 0.48533,-0.056 0.97066,-0.084 1.456,-0.084"
           inkscape:connector-curvature="0" />
        <path
           id="path3923"
           d="m 539.68756,260.01415 c -0.37334,-0.0933 -0.81201,-0.18665 -1.316,-0.28 -0.50401,-0.11198 -1.04534,-0.16798 -1.624,-0.168 -0.26134,2e-5 -0.57867,0.028 -0.952,0.084 -0.35467,0.0374 -0.62534,0.084 -0.812,0.14 l 0,11.256 -4.172,0 0,-13.944 c 0.74667,-0.26131 1.624,-0.50398 2.632,-0.728 1.02666,-0.24265 2.16533,-0.36398 3.416,-0.364 0.22399,2e-5 0.49466,0.0187 0.812,0.056 0.31733,0.0187 0.63466,0.056 0.952,0.112 0.31733,0.0374 0.63466,0.0933 0.952,0.168 0.31732,0.056 0.58799,0.13069 0.812,0.224 l -0.7,3.444"
           inkscape:connector-curvature="0" />
        <path
           id="path3925"
           d="m 442.84191,303.13415 c 0.41065,1e-5 0.80265,-0.009 1.176,-0.028 0.37332,-0.0187 0.67199,-0.0467 0.896,-0.084 l 0,-3.164 c -0.16801,-0.0373 -0.42001,-0.0747 -0.756,-0.112 -0.33601,-0.0373 -0.64401,-0.056 -0.924,-0.056 -0.39201,10e-6 -0.76534,0.028 -1.12,0.084 -0.33601,0.0373 -0.63468,0.12134 -0.896,0.252 -0.26134,0.13068 -0.46668,0.30801 -0.616,0.532 -0.14934,0.22401 -0.22401,0.50401 -0.224,0.84 -10e-6,0.65334 0.21466,1.11067 0.644,1.372 0.44799,0.24267 1.05466,0.36401 1.82,0.364 m -0.336,-12.208 c 1.23199,2e-5 2.25865,0.14002 3.08,0.42 0.82132,0.28002 1.47465,0.68135 1.96,1.204 0.50398,0.52268 0.85865,1.15735 1.064,1.904 0.20532,0.74668 0.30798,1.57735 0.308,2.492 l 0,8.68 c -0.59735,0.13067 -1.42802,0.28 -2.492,0.448 -1.06401,0.18667 -2.35201,0.28 -3.864,0.28 -0.95201,0 -1.82001,-0.084 -2.604,-0.252 -0.76534,-0.168 -1.42801,-0.43866 -1.988,-0.812 -0.56001,-0.39199 -0.98934,-0.89599 -1.288,-1.512 -0.29867,-0.61599 -0.448,-1.37199 -0.448,-2.268 0,-0.85866 0.168,-1.58666 0.504,-2.184 0.35466,-0.59732 0.82133,-1.07332 1.4,-1.428 0.57866,-0.35465 1.24133,-0.60665 1.988,-0.756 0.74666,-0.16799 1.52132,-0.25199 2.324,-0.252 0.54132,10e-6 1.01732,0.028 1.428,0.084 0.42932,0.0374 0.77465,0.0933 1.036,0.168 l 0,-0.392 c -10e-6,-0.70932 -0.21468,-1.27865 -0.644,-1.708 -0.42935,-0.42932 -1.17601,-0.64398 -2.24,-0.644 -0.70934,2e-5 -1.40934,0.056 -2.1,0.168 -0.69067,0.0933 -1.28801,0.23335 -1.792,0.42 l -0.532,-3.36 c 0.24266,-0.0747 0.54133,-0.14931 0.896,-0.224 0.37333,-0.0933 0.77466,-0.16798 1.204,-0.224 0.42932,-0.0747 0.87732,-0.13065 1.344,-0.168 0.48532,-0.056 0.97066,-0.084 1.456,-0.084"
           inkscape:connector-curvature="0" />
        <path
           id="path3927"
           d="m 459.41703,306.04615 0,-21.056 4.172,-0.672 0,7.056 c 0.27999,-0.0933 0.63466,-0.17731 1.064,-0.252 0.44799,-0.0933 0.87733,-0.13998 1.288,-0.14 1.19466,2e-5 2.18399,0.16802 2.968,0.504 0.80266,0.31735 1.43732,0.77468 1.904,1.372 0.48532,0.59735 0.82132,1.30668 1.008,2.128 0.20532,0.82135 0.30799,1.73601 0.308,2.744 l 0,8.316 -4.172,0 0,-7.812 c -10e-6,-1.34399 -0.17734,-2.29599 -0.532,-2.856 -0.33601,-0.55998 -0.97067,-0.83998 -1.904,-0.84 -0.37334,2e-5 -0.72801,0.0374 -1.064,0.112 -0.31734,0.056 -0.60667,0.12135 -0.868,0.196 l 0,11.2 -4.172,0"
           inkscape:connector-curvature="0" />
        <path
           id="path3929"
           d="m 481.56066,303.13415 c 0.41065,1e-5 0.80265,-0.009 1.176,-0.028 0.37332,-0.0187 0.67199,-0.0467 0.896,-0.084 l 0,-3.164 c -0.16801,-0.0373 -0.42001,-0.0747 -0.756,-0.112 -0.33601,-0.0373 -0.64401,-0.056 -0.924,-0.056 -0.39201,10e-6 -0.76534,0.028 -1.12,0.084 -0.33601,0.0373 -0.63468,0.12134 -0.896,0.252 -0.26134,0.13068 -0.46668,0.30801 -0.616,0.532 -0.14934,0.22401 -0.22401,0.50401 -0.224,0.84 -10e-6,0.65334 0.21466,1.11067 0.644,1.372 0.44799,0.24267 1.05466,0.36401 1.82,0.364 m -0.336,-12.208 c 1.23199,2e-5 2.25865,0.14002 3.08,0.42 0.82132,0.28002 1.47465,0.68135 1.96,1.204 0.50398,0.52268 0.85865,1.15735 1.064,1.904 0.20532,0.74668 0.30798,1.57735 0.308,2.492 l 0,8.68 c -0.59735,0.13067 -1.42802,0.28 -2.492,0.448 -1.06401,0.18667 -2.35201,0.28 -3.864,0.28 -0.95201,0 -1.82001,-0.084 -2.604,-0.252 -0.76534,-0.168 -1.42801,-0.43866 -1.988,-0.812 -0.56001,-0.39199 -0.98934,-0.89599 -1.288,-1.512 -0.29867,-0.61599 -0.448,-1.37199 -0.448,-2.268 0,-0.85866 0.168,-1.58666 0.504,-2.184 0.35466,-0.59732 0.82133,-1.07332 1.4,-1.428 0.57866,-0.35465 1.24133,-0.60665 1.988,-0.756 0.74666,-0.16799 1.52132,-0.25199 2.324,-0.252 0.54132,10e-6 1.01732,0.028 1.428,0.084 0.42932,0.0374 0.77465,0.0933 1.036,0.168 l 0,-0.392 c -10e-6,-0.70932 -0.21468,-1.27865 -0.644,-1.708 -0.42935,-0.42932 -1.17601,-0.64398 -2.24,-0.644 -0.70934,2e-5 -1.40934,0.056 -2.1,0.168 -0.69067,0.0933 -1.28801,0.23335 -1.792,0.42 l -0.532,-3.36 c 0.24266,-0.0747 0.54133,-0.14931 0.896,-0.224 0.37333,-0.0933 0.77466,-0.16798 1.204,-0.224 0.42932,-0.0747 0.87732,-0.13065 1.344,-0.168 0.48532,-0.056 0.97066,-0.084 1.456,-0.084"
           inkscape:connector-curvature="0" />
        <path
           id="path3931"
           d="m 490.70922,298.68215 c 0,-1.06399 0.168,-2.06265 0.504,-2.996 0.35466,-0.95198 0.85866,-1.77332 1.512,-2.464 0.65333,-0.70932 1.44666,-1.26931 2.38,-1.68 0.93333,-0.41065 1.99732,-0.61598 3.192,-0.616 0.78399,2e-5 1.50266,0.0747 2.156,0.224 0.65332,0.13069 1.28799,0.32669 1.904,0.588 l -0.868,3.332 c -0.39201,-0.14932 -0.82135,-0.27998 -1.288,-0.392 -0.46668,-0.11198 -0.98934,-0.16798 -1.568,-0.168 -1.23201,2e-5 -2.15601,0.38268 -2.772,1.148 -0.59734,0.76535 -0.89601,1.77335 -0.896,3.024 -10e-6,1.32534 0.27999,2.35201 0.84,3.08 0.57866,0.72801 1.57732,1.09201 2.996,1.092 0.50399,10e-6 1.04532,-0.0467 1.624,-0.14 0.57865,-0.0933 1.11065,-0.24266 1.596,-0.448 l 0.588,3.416 c -0.48535,0.20534 -1.09201,0.38267 -1.82,0.532 -0.72801,0.14934 -1.53068,0.224 -2.408,0.224 -1.34401,0 -2.50134,-0.196 -3.472,-0.588 -0.97067,-0.41066 -1.77334,-0.96133 -2.408,-1.652 -0.616,-0.69066 -1.07334,-1.50266 -1.372,-2.436 -0.28,-0.95199 -0.42,-1.97866 -0.42,-3.08"
           inkscape:connector-curvature="0" />
        <path
           id="path3933"
           d="m 503.99828,298.79415 c 0,-1.30665 0.196,-2.44532 0.588,-3.416 0.41067,-0.98932 0.94267,-1.81065 1.596,-2.464 0.65333,-0.65332 1.4,-1.14798 2.24,-1.484 0.85866,-0.33598 1.73599,-0.50398 2.632,-0.504 2.09066,2e-5 3.74266,0.64402 4.956,1.932 1.21332,1.26935 1.81999,3.14535 1.82,5.628 -10e-6,0.24268 -0.009,0.51334 -0.028,0.812 -0.0187,0.28001 -0.0373,0.53201 -0.056,0.756 l -9.464,0 c 0.0933,0.85868 0.49466,1.54001 1.204,2.044 0.70933,0.50401 1.66133,0.75601 2.856,0.756 0.76532,10e-6 1.51199,-0.0653 2.24,-0.196 0.74666,-0.14933 1.35332,-0.32666 1.82,-0.532 l 0.56,3.388 c -0.22401,0.112 -0.52268,0.224 -0.896,0.336 -0.37335,0.112 -0.79334,0.20534 -1.26,0.28 -0.44801,0.0933 -0.93334,0.168 -1.456,0.224 -0.52268,0.056 -1.04534,0.084 -1.568,0.084 -1.32534,0 -2.48267,-0.196 -3.472,-0.588 -0.97067,-0.392 -1.78267,-0.92399 -2.436,-1.596 -0.63467,-0.69066 -1.11067,-1.50266 -1.428,-2.436 -0.29867,-0.93332 -0.448,-1.94132 -0.448,-3.024 m 9.8,-1.596 c -0.0187,-0.35465 -0.084,-0.69999 -0.196,-1.036 -0.0933,-0.33599 -0.25201,-0.63465 -0.476,-0.896 -0.20534,-0.26132 -0.47601,-0.47598 -0.812,-0.644 -0.31734,-0.16798 -0.71867,-0.25198 -1.204,-0.252 -0.46667,2e-5 -0.86801,0.084 -1.204,0.252 -0.33601,0.14935 -0.61601,0.35468 -0.84,0.616 -0.224,0.26135 -0.40134,0.56935 -0.532,0.924 -0.112,0.33601 -0.196,0.68135 -0.252,1.036 l 5.516,0"
           inkscape:connector-curvature="0" />
        <path
           id="path3935"
           d="m 529.92584,295.01415 c -0.37334,-0.0933 -0.81201,-0.18665 -1.316,-0.28 -0.50401,-0.11198 -1.04534,-0.16798 -1.624,-0.168 -0.26134,2e-5 -0.57867,0.028 -0.952,0.084 -0.35467,0.0374 -0.62534,0.084 -0.812,0.14 l 0,11.256 -4.172,0 0,-13.944 c 0.74667,-0.26131 1.624,-0.50398 2.632,-0.728 1.02666,-0.24265 2.16533,-0.36398 3.416,-0.364 0.224,2e-5 0.49466,0.0187 0.812,0.056 0.31733,0.0187 0.63466,0.056 0.952,0.112 0.31733,0.0374 0.63466,0.0933 0.952,0.168 0.31733,0.056 0.58799,0.13069 0.812,0.224 l -0.7,3.444"
           inkscape:connector-curvature="0" />
      </g>
      <g
         id="flowRoot3814"
         style="font-size:28px;font-style:normal;font-variant:normal;font-weight:bold;font-stretch:normal;line-height:125%;letter-spacing:0px;word-spacing:0px;fill:#000000;fill-opacity:1;stroke:none;font-family:Ubuntu;-inkscape-font-specification:Sans Bold"
         transform="translate(-8,30)">
        <path
           id="path3886"
           d="m 188.13925,460.0214 c 0.20533,0.0187 0.43866,0.0373 0.7,0.056 0.27999,10e-6 0.60666,10e-6 0.98,0 2.18399,10e-6 3.79865,-0.55066 4.844,-1.652 1.06399,-1.10132 1.59599,-2.62265 1.596,-4.564 -1e-5,-2.03465 -0.50401,-3.57465 -1.512,-4.62 -1.00801,-1.04531 -2.60401,-1.56798 -4.788,-1.568 -0.29867,2e-5 -0.60667,0.009 -0.924,0.028 -0.31734,2e-5 -0.61601,0.0187 -0.896,0.056 l 0,12.264 m 12.628,-6.16 c -2e-5,1.68001 -0.26135,3.14534 -0.784,4.396 -0.52268,1.25068 -1.26935,2.28667 -2.24,3.108 -0.95202,0.82134 -2.11868,1.43734 -3.5,1.848 -1.38134,0.41067 -2.93068,0.616 -4.648,0.616 -0.78401,0 -1.69867,-0.0373 -2.744,-0.112 -1.04534,-0.056 -2.072,-0.18666 -3.08,-0.392 l 0,-18.9 c 1.008,-0.18664 2.05333,-0.30798 3.136,-0.364 1.10133,-0.0746 2.04399,-0.11198 2.828,-0.112 1.66132,2e-5 3.16399,0.18669 4.508,0.56 1.36265,0.37336 2.52932,0.96136 3.5,1.764 0.97065,0.80269 1.71732,1.82935 2.24,3.08 0.52265,1.25068 0.78398,2.75335 0.784,4.508"
           inkscape:connector-curvature="0" />
        <path
           id="path3888"
           d="m 203.40844,456.3254 c 0,-1.30665 0.196,-2.44532 0.588,-3.416 0.41066,-0.98932 0.94266,-1.81065 1.596,-2.464 0.65333,-0.65332 1.39999,-1.14798 2.24,-1.484 0.85866,-0.33598 1.73599,-0.50398 2.632,-0.504 2.09065,2e-5 3.74265,0.64402 4.956,1.932 1.21332,1.26935 1.81998,3.14535 1.82,5.628 -2e-5,0.24268 -0.009,0.51334 -0.028,0.812 -0.0187,0.28001 -0.0373,0.53201 -0.056,0.756 l -9.464,0 c 0.0933,0.85868 0.49466,1.54001 1.204,2.044 0.70932,0.50401 1.66132,0.75601 2.856,0.756 0.76532,10e-6 1.51199,-0.0653 2.24,-0.196 0.74665,-0.14933 1.35332,-0.32666 1.82,-0.532 l 0.56,3.388 c -0.22402,0.112 -0.52268,0.224 -0.896,0.336 -0.37335,0.112 -0.79335,0.20534 -1.26,0.28 -0.44801,0.0933 -0.93335,0.168 -1.456,0.224 -0.52268,0.056 -1.04535,0.084 -1.568,0.084 -1.32534,0 -2.48268,-0.196 -3.472,-0.588 -0.97067,-0.392 -1.78267,-0.92399 -2.436,-1.596 -0.63467,-0.69066 -1.11067,-1.50266 -1.428,-2.436 -0.29867,-0.93332 -0.448,-1.94132 -0.448,-3.024 m 9.8,-1.596 c -0.0187,-0.35465 -0.084,-0.69999 -0.196,-1.036 -0.0933,-0.33599 -0.25201,-0.63465 -0.476,-0.896 -0.20535,-0.26132 -0.47601,-0.47598 -0.812,-0.644 -0.31735,-0.16798 -0.71868,-0.25198 -1.204,-0.252 -0.46668,2e-5 -0.86801,0.084 -1.204,0.252 -0.33601,0.14935 -0.61601,0.35468 -0.84,0.616 -0.22401,0.26135 -0.40134,0.56935 -0.532,0.924 -0.11201,0.33601 -0.19601,0.68135 -0.252,1.036 l 5.516,0"
           inkscape:connector-curvature="0" />
        <path
           id="path3890"
           d="m 219.088,468.7574 c -0.26133,0 -0.644,-0.028 -1.148,-0.084 -0.52267,-0.056 -1.008,-0.15867 -1.456,-0.308 l 0.56,-3.388 c 0.28,0.0933 0.54133,0.15867 0.784,0.196 0.224,0.0373 0.51333,0.056 0.868,0.056 0.65333,0 1.11067,-0.196 1.372,-0.588 0.26133,-0.392 0.392,-0.96133 0.392,-1.708 l 0,-14.084 4.172,0 0,14.196 c -1e-5,1.94134 -0.47601,3.37867 -1.428,4.312 -0.952,0.93333 -2.324,1.4 -4.116,1.4 m 5.936,-24.164 c -1e-5,0.76536 -0.25201,1.37202 -0.756,1.82 -0.48534,0.42935 -1.064,0.64402 -1.736,0.644 -0.672,2e-5 -1.26,-0.21465 -1.764,-0.644 -0.48534,-0.44798 -0.728,-1.05464 -0.728,-1.82 0,-0.76531 0.24266,-1.36264 0.728,-1.792 0.504,-0.44797 1.092,-0.67197 1.764,-0.672 0.672,3e-5 1.25066,0.22403 1.736,0.672 0.50399,0.42936 0.75599,1.02669 0.756,1.792"
           inkscape:connector-curvature="0" />
        <path
           id="path3892"
           d="m 234.18175,460.6654 c 0.41066,1e-5 0.80266,-0.009 1.176,-0.028 0.37332,-0.0187 0.67199,-0.0467 0.896,-0.084 l 0,-3.164 c -0.16801,-0.0373 -0.42001,-0.0747 -0.756,-0.112 -0.33601,-0.0373 -0.64401,-0.056 -0.924,-0.056 -0.39201,10e-6 -0.76534,0.028 -1.12,0.084 -0.33601,0.0373 -0.63467,0.12134 -0.896,0.252 -0.26134,0.13068 -0.46667,0.30801 -0.616,0.532 -0.14934,0.22401 -0.22401,0.50401 -0.224,0.84 -1e-5,0.65334 0.21466,1.11067 0.644,1.372 0.44799,0.24267 1.05466,0.36401 1.82,0.364 m -0.336,-12.208 c 1.23199,2e-5 2.25866,0.14002 3.08,0.42 0.82132,0.28002 1.47465,0.68135 1.96,1.204 0.50399,0.52268 0.85865,1.15735 1.064,1.904 0.20532,0.74668 0.30799,1.57735 0.308,2.492 l 0,8.68 c -0.59735,0.13067 -1.42801,0.28 -2.492,0.448 -1.06401,0.18667 -2.35201,0.28 -3.864,0.28 -0.95201,0 -1.82001,-0.084 -2.604,-0.252 -0.76534,-0.168 -1.428,-0.43866 -1.988,-0.812 -0.56,-0.39199 -0.98934,-0.89599 -1.288,-1.512 -0.29867,-0.61599 -0.448,-1.37199 -0.448,-2.268 0,-0.85866 0.168,-1.58666 0.504,-2.184 0.35466,-0.59732 0.82133,-1.07332 1.4,-1.428 0.57866,-0.35465 1.24133,-0.60665 1.988,-0.756 0.74666,-0.16799 1.52133,-0.25199 2.324,-0.252 0.54133,10e-6 1.01733,0.028 1.428,0.084 0.42932,0.0374 0.77466,0.0933 1.036,0.168 l 0,-0.392 c -1e-5,-0.70932 -0.21468,-1.27865 -0.644,-1.708 -0.42934,-0.42932 -1.17601,-0.64398 -2.24,-0.644 -0.70934,2e-5 -1.40934,0.056 -2.1,0.168 -0.69067,0.0933 -1.288,0.23335 -1.792,0.42 l -0.532,-3.36 c 0.24266,-0.0747 0.54133,-0.14931 0.896,-0.224 0.37333,-0.0933 0.77466,-0.16798 1.204,-0.224 0.42933,-0.0747 0.87733,-0.13065 1.344,-0.168 0.48533,-0.056 0.97066,-0.084 1.456,-0.084"
           inkscape:connector-curvature="0" />
        <path
           id="path3894"
           d="m 252.90631,452.5454 c -0.37334,-0.0933 -0.81201,-0.18665 -1.316,-0.28 -0.50401,-0.11198 -1.04534,-0.16798 -1.624,-0.168 -0.26134,2e-5 -0.57867,0.028 -0.952,0.084 -0.35467,0.0374 -0.62534,0.084 -0.812,0.14 l 0,11.256 -4.172,0 0,-13.944 c 0.74667,-0.26131 1.624,-0.50398 2.632,-0.728 1.02666,-0.24265 2.16533,-0.36398 3.416,-0.364 0.22399,2e-5 0.49466,0.0187 0.812,0.056 0.31733,0.0187 0.63466,0.056 0.952,0.112 0.31733,0.0374 0.63466,0.0933 0.952,0.168 0.31732,0.056 0.58799,0.13069 0.812,0.224 l -0.7,3.444"
           inkscape:connector-curvature="0" />
        <path
           id="path3896"
           d="m 266.12538,456.1014 c -1e-5,1.28801 0.28932,2.32401 0.868,3.108 0.57865,0.78401 1.43732,1.17601 2.57599,1.176 0.37333,10e-6 0.71866,-0.009 1.036,-0.028 0.31733,-0.0373 0.57866,-0.0747 0.784,-0.112 l 0,-7.588 c -0.26134,-0.16798 -0.60667,-0.30798 -1.03599,-0.42 -0.41068,-0.11198 -0.83068,-0.16798 -1.26001,-0.168 -1.97867,2e-5 -2.968,1.34401 -2.96799,4.032 m 9.43599,7 c -0.37334,0.112 -0.80268,0.224 -1.288,0.336 -0.48534,0.0933 -0.99867,0.17734 -1.53999,0.252 -0.52268,0.0747 -1.06402,0.13067 -1.62401,0.168 -0.54134,0.056 -1.064,0.084 -1.56799,0.084 -1.21335,0 -2.29601,-0.17733 -3.248,-0.532 -0.95201,-0.35466 -1.75468,-0.85866 -2.40801,-1.512 -0.65333,-0.67199 -1.15733,-1.47466 -1.512,-2.408 -0.336,-0.95199 -0.504,-2.01599 -0.504,-3.192 0,-1.19465 0.14934,-2.26799 0.44801,-3.22 0.29866,-0.97065 0.72799,-1.79198 1.28799,-2.464 0.56,-0.67198 1.24133,-1.18531 2.04401,-1.54 0.82132,-0.35465 1.75465,-0.53198 2.79999,-0.532 0.57866,2e-5 1.092,0.056 1.54,0.168 0.46666,0.11202 0.93333,0.27069 1.4,0.476 l 0,-6.664 4.172,-0.672 0,21.252"
           inkscape:connector-curvature="0" />
        <path
           id="path3898"
           d="m 278.76781,456.3254 c 0,-1.30665 0.196,-2.44532 0.588,-3.416 0.41067,-0.98932 0.94267,-1.81065 1.596,-2.464 0.65333,-0.65332 1.4,-1.14798 2.24,-1.484 0.85866,-0.33598 1.736,-0.50398 2.632,-0.504 2.09066,2e-5 3.74266,0.64402 4.956,1.932 1.21332,1.26935 1.81999,3.14535 1.82,5.628 -10e-6,0.24268 -0.009,0.51334 -0.028,0.812 -0.0187,0.28001 -0.0374,0.53201 -0.056,0.756 l -9.464,0 c 0.0933,0.85868 0.49466,1.54001 1.204,2.044 0.70933,0.50401 1.66133,0.75601 2.856,0.756 0.76533,10e-6 1.51199,-0.0653 2.24,-0.196 0.74666,-0.14933 1.35332,-0.32666 1.82,-0.532 l 0.56,3.388 c -0.22401,0.112 -0.52268,0.224 -0.896,0.336 -0.37334,0.112 -0.79334,0.20534 -1.26,0.28 -0.44801,0.0933 -0.93334,0.168 -1.456,0.224 -0.52267,0.056 -1.04534,0.084 -1.568,0.084 -1.32534,0 -2.48267,-0.196 -3.472,-0.588 -0.97067,-0.392 -1.78267,-0.92399 -2.436,-1.596 -0.63467,-0.69066 -1.11067,-1.50266 -1.428,-2.436 -0.29867,-0.93332 -0.448,-1.94132 -0.448,-3.024 m 9.8,-1.596 c -0.0187,-0.35465 -0.084,-0.69999 -0.196,-1.036 -0.0933,-0.33599 -0.25201,-0.63465 -0.476,-0.896 -0.20534,-0.26132 -0.47601,-0.47598 -0.812,-0.644 -0.31734,-0.16798 -0.71867,-0.25198 -1.204,-0.252 -0.46667,2e-5 -0.86801,0.084 -1.204,0.252 -0.336,0.14935 -0.616,0.35468 -0.84,0.616 -0.224,0.26135 -0.40134,0.56935 -0.532,0.924 -0.112,0.33601 -0.196,0.68135 -0.252,1.036 l 5.516,0"
           inkscape:connector-curvature="0" />
        <path
           id="path3900"
           d="m 302.54594,463.5774 0,-21.056 4.172,-0.672 0,7.056 c 0.27999,-0.0933 0.63466,-0.17731 1.064,-0.252 0.44799,-0.0933 0.87732,-0.13998 1.288,-0.14 1.19465,2e-5 2.18399,0.16802 2.968,0.504 0.80265,0.31735 1.43732,0.77468 1.904,1.372 0.48532,0.59735 0.82132,1.30668 1.008,2.128 0.20532,0.82135 0.30798,1.73601 0.308,2.744 l 0,8.316 -4.172,0 0,-7.812 c -10e-6,-1.34399 -0.17735,-2.29599 -0.532,-2.856 -0.33601,-0.55998 -0.97068,-0.83998 -1.904,-0.84 -0.37334,2e-5 -0.72801,0.0374 -1.064,0.112 -0.31734,0.056 -0.60668,0.12135 -0.868,0.196 l 0,11.2 -4.172,0"
           inkscape:connector-curvature="0" />
        <path
           id="path3902"
           d="m 324.68956,460.6654 c 0.41066,1e-5 0.80266,-0.009 1.176,-0.028 0.37333,-0.0187 0.67199,-0.0467 0.896,-0.084 l 0,-3.164 c -0.16801,-0.0373 -0.42001,-0.0747 -0.756,-0.112 -0.33601,-0.0373 -0.64401,-0.056 -0.924,-0.056 -0.39201,10e-6 -0.76534,0.028 -1.12,0.084 -0.336,0.0373 -0.63467,0.12134 -0.896,0.252 -0.26134,0.13068 -0.46667,0.30801 -0.616,0.532 -0.14934,0.22401 -0.224,0.50401 -0.224,0.84 0,0.65334 0.21466,1.11067 0.644,1.372 0.448,0.24267 1.05466,0.36401 1.82,0.364 m -0.336,-12.208 c 1.23199,2e-5 2.25866,0.14002 3.08,0.42 0.82132,0.28002 1.47466,0.68135 1.96,1.204 0.50399,0.52268 0.85866,1.15735 1.064,1.904 0.20532,0.74668 0.30799,1.57735 0.308,2.492 l 0,8.68 c -0.59734,0.13067 -1.42801,0.28 -2.492,0.448 -1.06401,0.18667 -2.35201,0.28 -3.864,0.28 -0.952,0 -1.82,-0.084 -2.604,-0.252 -0.76533,-0.168 -1.428,-0.43866 -1.988,-0.812 -0.56,-0.39199 -0.98933,-0.89599 -1.288,-1.512 -0.29867,-0.61599 -0.448,-1.37199 -0.448,-2.268 0,-0.85866 0.168,-1.58666 0.504,-2.184 0.35467,-0.59732 0.82133,-1.07332 1.4,-1.428 0.57867,-0.35465 1.24133,-0.60665 1.988,-0.756 0.74666,-0.16799 1.52133,-0.25199 2.324,-0.252 0.54133,10e-6 1.01733,0.028 1.428,0.084 0.42933,0.0374 0.77466,0.0933 1.036,0.168 l 0,-0.392 c -10e-6,-0.70932 -0.21467,-1.27865 -0.644,-1.708 -0.42934,-0.42932 -1.17601,-0.64398 -2.24,-0.644 -0.70934,2e-5 -1.40934,0.056 -2.1,0.168 -0.69067,0.0933 -1.288,0.23335 -1.792,0.42 l -0.532,-3.36 c 0.24267,-0.0747 0.54133,-0.14931 0.896,-0.224 0.37333,-0.0933 0.77467,-0.16798 1.204,-0.224 0.42933,-0.0747 0.87733,-0.13065 1.344,-0.168 0.48533,-0.056 0.97066,-0.084 1.456,-0.084"
           inkscape:connector-curvature="0" />
        <path
           id="path3904"
           d="m 333.83812,456.2134 c 0,-1.06399 0.168,-2.06265 0.504,-2.996 0.35467,-0.95198 0.85867,-1.77332 1.512,-2.464 0.65333,-0.70932 1.44667,-1.26931 2.38,-1.68 0.93333,-0.41065 1.99733,-0.61598 3.19201,-0.616 0.78399,2e-5 1.50265,0.0747 2.156,0.224 0.65332,0.13069 1.28798,0.32669 1.904,0.588 l -0.868,3.332 c -0.39202,-0.14932 -0.82135,-0.27998 -1.28801,-0.392 -0.46667,-0.11198 -0.98934,-0.16798 -1.56799,-0.168 -1.23201,2e-5 -2.15601,0.38268 -2.77201,1.148 -0.59733,0.76535 -0.896,1.77335 -0.89599,3.024 -1e-5,1.32534 0.27999,2.35201 0.83999,3.08 0.57866,0.72801 1.57733,1.09201 2.996,1.092 0.504,10e-6 1.04533,-0.0467 1.624,-0.14 0.57866,-0.0933 1.11066,-0.24266 1.596,-0.448 l 0.58801,3.416 c -0.48535,0.20534 -1.09202,0.38267 -1.82001,0.532 -0.72801,0.14934 -1.53067,0.224 -2.40799,0.224 -1.34401,0 -2.50134,-0.196 -3.47201,-0.588 -0.97067,-0.41066 -1.77333,-0.96133 -2.40799,-1.652 -0.61601,-0.69066 -1.07334,-1.50266 -1.37201,-2.436 -0.28,-0.95199 -0.42,-1.97866 -0.42,-3.08"
           inkscape:connector-curvature="0" />
        <path
           id="path3906"
           d="m 347.12719,456.3254 c 0,-1.30665 0.196,-2.44532 0.588,-3.416 0.41066,-0.98932 0.94266,-1.81065 1.596,-2.464 0.65333,-0.65332 1.39999,-1.14798 2.24,-1.484 0.85866,-0.33598 1.73599,-0.50398 2.632,-0.504 2.09065,2e-5 3.74265,0.64402 4.956,1.932 1.21332,1.26935 1.81998,3.14535 1.82,5.628 -2e-5,0.24268 -0.009,0.51334 -0.028,0.812 -0.0187,0.28001 -0.0374,0.53201 -0.056,0.756 l -9.464,0 c 0.0933,0.85868 0.49466,1.54001 1.204,2.044 0.70932,0.50401 1.66132,0.75601 2.856,0.756 0.76532,10e-6 1.51199,-0.0653 2.24,-0.196 0.74665,-0.14933 1.35332,-0.32666 1.82,-0.532 l 0.56,3.388 c -0.22402,0.112 -0.52268,0.224 -0.896,0.336 -0.37335,0.112 -0.79335,0.20534 -1.26,0.28 -0.44801,0.0933 -0.93335,0.168 -1.456,0.224 -0.52268,0.056 -1.04535,0.084 -1.568,0.084 -1.32534,0 -2.48268,-0.196 -3.472,-0.588 -0.97067,-0.392 -1.78267,-0.92399 -2.436,-1.596 -0.63467,-0.69066 -1.11067,-1.50266 -1.428,-2.436 -0.29867,-0.93332 -0.448,-1.94132 -0.448,-3.024 m 9.8,-1.596 c -0.0187,-0.35465 -0.084,-0.69999 -0.196,-1.036 -0.0934,-0.33599 -0.25201,-0.63465 -0.476,-0.896 -0.20535,-0.26132 -0.47601,-0.47598 -0.812,-0.644 -0.31735,-0.16798 -0.71868,-0.25198 -1.204,-0.252 -0.46668,2e-5 -0.86801,0.084 -1.204,0.252 -0.33601,0.14935 -0.61601,0.35468 -0.84,0.616 -0.22401,0.26135 -0.40134,0.56935 -0.532,0.924 -0.11201,0.33601 -0.19601,0.68135 -0.252,1.036 l 5.516,0"
           inkscape:connector-curvature="0" />
        <path
           id="path3908"
           d="m 373.05475,452.5454 c -0.37334,-0.0933 -0.81201,-0.18665 -1.316,-0.28 -0.50401,-0.11198 -1.04534,-0.16798 -1.624,-0.168 -0.26134,2e-5 -0.57867,0.028 -0.952,0.084 -0.35467,0.0374 -0.62534,0.084 -0.812,0.14 l 0,11.256 -4.172,0 0,-13.944 c 0.74666,-0.26131 1.624,-0.50398 2.632,-0.728 1.02666,-0.24265 2.16533,-0.36398 3.416,-0.364 0.22399,2e-5 0.49466,0.0187 0.812,0.056 0.31732,0.0187 0.63466,0.056 0.952,0.112 0.31732,0.0374 0.63466,0.0933 0.952,0.168 0.31732,0.056 0.58799,0.13069 0.812,0.224 l -0.7,3.444"
           inkscape:connector-curvature="0" />
      </g>
      <g
         id="flowRoot3822"
         style="font-size:28px;font-style:normal;font-variant:normal;font-weight:bold;font-stretch:normal;text-align:center;line-height:125%;letter-spacing:0px;word-spacing:0px;text-anchor:middle;fill:#000000;fill-opacity:1;stroke:none;font-family:Ubuntu;-inkscape-font-specification:Sans Bold"
         transform="translate(-113.96938,38.768299)">
        <path
           id="path3865"
           d="m 140.29166,260.1734 4.368,0 0,19.404 -4.368,0 0,-8.232 -7.336,0 0,8.232 -4.368,0 0,-19.404 4.368,0 0,7.42 7.336,0 0,-7.42"
           inkscape:connector-curvature="0" />
        <path
           id="path3867"
           d="m 154.49816,276.6654 c 0.41065,1e-5 0.80265,-0.009 1.176,-0.028 0.37332,-0.0187 0.67199,-0.0467 0.896,-0.084 l 0,-3.164 c -0.16801,-0.0373 -0.42001,-0.0747 -0.756,-0.112 -0.33601,-0.0373 -0.64401,-0.056 -0.924,-0.056 -0.39201,10e-6 -0.76534,0.028 -1.12,0.084 -0.33601,0.0373 -0.63468,0.12134 -0.896,0.252 -0.26134,0.13068 -0.46668,0.30801 -0.616,0.532 -0.14934,0.22401 -0.22401,0.50401 -0.224,0.84 -1e-5,0.65334 0.21466,1.11067 0.644,1.372 0.44799,0.24267 1.05466,0.36401 1.82,0.364 m -0.336,-12.208 c 1.23199,2e-5 2.25865,0.14002 3.08,0.42 0.82132,0.28002 1.47465,0.68135 1.96,1.204 0.50398,0.52268 0.85865,1.15735 1.064,1.904 0.20532,0.74668 0.30798,1.57735 0.308,2.492 l 0,8.68 c -0.59735,0.13067 -1.42802,0.28 -2.492,0.448 -1.06401,0.18667 -2.35201,0.28 -3.864,0.28 -0.95201,0 -1.82001,-0.084 -2.604,-0.252 -0.76534,-0.168 -1.42801,-0.43866 -1.988,-0.812 -0.56001,-0.39199 -0.98934,-0.89599 -1.288,-1.512 -0.29867,-0.61599 -0.448,-1.37199 -0.448,-2.268 0,-0.85866 0.168,-1.58666 0.504,-2.184 0.35466,-0.59732 0.82133,-1.07332 1.4,-1.428 0.57866,-0.35465 1.24133,-0.60665 1.988,-0.756 0.74666,-0.16799 1.52132,-0.25199 2.324,-0.252 0.54132,10e-6 1.01732,0.028 1.428,0.084 0.42932,0.0374 0.77465,0.0933 1.036,0.168 l 0,-0.392 c -10e-6,-0.70932 -0.21468,-1.27865 -0.644,-1.708 -0.42935,-0.42932 -1.17601,-0.64398 -2.24,-0.644 -0.70934,2e-5 -1.40934,0.056 -2.1,0.168 -0.69067,0.0933 -1.28801,0.23335 -1.792,0.42 l -0.532,-3.36 c 0.24266,-0.0747 0.54133,-0.14931 0.896,-0.224 0.37333,-0.0933 0.77466,-0.16798 1.204,-0.224 0.42932,-0.0747 0.87732,-0.13065 1.344,-0.168 0.48532,-0.056 0.97066,-0.084 1.456,-0.084"
           inkscape:connector-curvature="0" />
        <path
           id="path3869"
           d="m 163.64672,272.2134 c 0,-1.06399 0.168,-2.06265 0.504,-2.996 0.35466,-0.95198 0.85866,-1.77332 1.512,-2.464 0.65333,-0.70932 1.44666,-1.26931 2.38,-1.68 0.93333,-0.41065 1.99732,-0.61598 3.192,-0.616 0.78399,2e-5 1.50266,0.0747 2.156,0.224 0.65332,0.13069 1.28799,0.32669 1.904,0.588 l -0.868,3.332 c -0.39201,-0.14932 -0.82135,-0.27998 -1.288,-0.392 -0.46668,-0.11198 -0.98934,-0.16798 -1.568,-0.168 -1.23201,2e-5 -2.15601,0.38268 -2.772,1.148 -0.59734,0.76535 -0.89601,1.77335 -0.896,3.024 -10e-6,1.32534 0.27999,2.35201 0.84,3.08 0.57866,0.72801 1.57732,1.09201 2.996,1.092 0.50399,10e-6 1.04532,-0.0467 1.624,-0.14 0.57865,-0.0933 1.11065,-0.24266 1.596,-0.448 l 0.588,3.416 c -0.48535,0.20534 -1.09201,0.38267 -1.82,0.532 -0.72801,0.14934 -1.53068,0.224 -2.408,0.224 -1.34401,0 -2.50134,-0.196 -3.472,-0.588 -0.97067,-0.41066 -1.77334,-0.96133 -2.408,-1.652 -0.616,-0.69066 -1.07334,-1.50266 -1.372,-2.436 -0.28,-0.95199 -0.42,-1.97866 -0.42,-3.08"
           inkscape:connector-curvature="0" />
        <path
           id="path3871"
           d="m 176.93578,272.3254 c 0,-1.30665 0.196,-2.44532 0.588,-3.416 0.41067,-0.98932 0.94267,-1.81065 1.596,-2.464 0.65333,-0.65332 1.4,-1.14798 2.24,-1.484 0.85866,-0.33598 1.73599,-0.50398 2.632,-0.504 2.09066,2e-5 3.74266,0.64402 4.956,1.932 1.21332,1.26935 1.81999,3.14535 1.82,5.628 -10e-6,0.24268 -0.009,0.51334 -0.028,0.812 -0.0187,0.28001 -0.0374,0.53201 -0.056,0.756 l -9.464,0 c 0.0933,0.85868 0.49466,1.54001 1.204,2.044 0.70933,0.50401 1.66133,0.75601 2.856,0.756 0.76532,10e-6 1.51199,-0.0653 2.24,-0.196 0.74666,-0.14933 1.35332,-0.32666 1.82,-0.532 l 0.56,3.388 c -0.22401,0.112 -0.52268,0.224 -0.896,0.336 -0.37335,0.112 -0.79334,0.20534 -1.26,0.28 -0.44801,0.0933 -0.93334,0.168 -1.456,0.224 -0.52268,0.056 -1.04534,0.084 -1.568,0.084 -1.32534,0 -2.48267,-0.196 -3.472,-0.588 -0.97067,-0.392 -1.78267,-0.92399 -2.436,-1.596 -0.63467,-0.69066 -1.11067,-1.50266 -1.428,-2.436 -0.29867,-0.93332 -0.448,-1.94132 -0.448,-3.024 m 9.8,-1.596 c -0.0187,-0.35465 -0.084,-0.69999 -0.196,-1.036 -0.0933,-0.33599 -0.25201,-0.63465 -0.476,-0.896 -0.20534,-0.26132 -0.47601,-0.47598 -0.812,-0.644 -0.31734,-0.16798 -0.71867,-0.25198 -1.204,-0.252 -0.46667,2e-5 -0.86801,0.084 -1.204,0.252 -0.33601,0.14935 -0.61601,0.35468 -0.84,0.616 -0.224,0.26135 -0.40134,0.56935 -0.532,0.924 -0.112,0.33601 -0.196,0.68135 -0.252,1.036 l 5.516,0"
           inkscape:connector-curvature="0" />
        <path
           id="path3873"
           d="m 202.86334,268.5454 c -0.37334,-0.0933 -0.81201,-0.18665 -1.316,-0.28 -0.50401,-0.11198 -1.04534,-0.16798 -1.624,-0.168 -0.26134,2e-5 -0.57867,0.028 -0.952,0.084 -0.35467,0.0374 -0.62534,0.084 -0.812,0.14 l 0,11.256 -4.172,0 0,-13.944 c 0.74667,-0.26131 1.624,-0.50398 2.632,-0.728 1.02666,-0.24265 2.16533,-0.36398 3.416,-0.364 0.224,2e-5 0.49466,0.0187 0.812,0.056 0.31733,0.0187 0.63466,0.056 0.952,0.112 0.31733,0.0374 0.63466,0.0933 0.952,0.168 0.31733,0.056 0.58799,0.13069 0.812,0.224 l -0.7,3.444"
           inkscape:connector-curvature="0" />
        <path
           id="path3875"
           d="m 131.36841,306.7654 c -1e-5,-1.34399 -0.17735,-2.29599 -0.532,-2.856 -0.33601,-0.55998 -0.92401,-0.83998 -1.764,-0.84 -0.26134,2e-5 -0.53201,0.0187 -0.812,0.056 -0.28001,0.0187 -0.55068,0.0467 -0.812,0.084 l 0,11.368 -4.172,0 0,-14.224 c 0.35466,-0.0933 0.76533,-0.18665 1.232,-0.28 0.48533,-0.11198 0.98933,-0.20531 1.512,-0.28 0.54132,-0.0933 1.09199,-0.15865 1.652,-0.196 0.55999,-0.056 1.11066,-0.084 1.652,-0.084 1.06399,2e-5 1.92265,0.14002 2.576,0.42 0.67198,0.26135 1.22265,0.57868 1.652,0.952 0.59732,-0.42931 1.27865,-0.76531 2.044,-1.008 0.78398,-0.24265 1.50265,-0.36398 2.156,-0.364 1.17598,2e-5 2.13731,0.16802 2.884,0.504 0.76531,0.31735 1.37198,0.77468 1.82,1.372 0.44797,0.59735 0.75597,1.30668 0.924,2.128 0.16797,0.82135 0.25197,1.73601 0.252,2.744 l 0,8.316 -4.172,0 0,-7.812 c -2e-5,-1.34399 -0.17736,-2.29599 -0.532,-2.856 -0.33602,-0.55998 -0.92402,-0.83998 -1.764,-0.84 -0.22402,2e-5 -0.54135,0.056 -0.952,0.168 -0.39202,0.11202 -0.71868,0.25202 -0.98,0.42 0.13065,0.42935 0.21465,0.88668 0.252,1.372 0.0373,0.46668 0.056,0.97068 0.056,1.512 l 0,8.036 -4.172,0 0,-7.812"
           inkscape:connector-curvature="0" />
        <path
           id="path3877"
           d="m 146.69359,307.3254 c 0,-1.30665 0.196,-2.44532 0.588,-3.416 0.41067,-0.98932 0.94267,-1.81065 1.596,-2.464 0.65333,-0.65332 1.4,-1.14798 2.24,-1.484 0.85866,-0.33598 1.736,-0.50398 2.632,-0.504 2.09066,2e-5 3.74266,0.64402 4.956,1.932 1.21332,1.26935 1.81999,3.14535 1.82,5.628 -1e-5,0.24268 -0.009,0.51334 -0.028,0.812 -0.0187,0.28001 -0.0373,0.53201 -0.056,0.756 l -9.464,0 c 0.0933,0.85868 0.49466,1.54001 1.204,2.044 0.70933,0.50401 1.66133,0.75601 2.856,0.756 0.76533,10e-6 1.51199,-0.0653 2.24,-0.196 0.74666,-0.14933 1.35332,-0.32666 1.82,-0.532 l 0.56,3.388 c -0.22401,0.112 -0.52268,0.224 -0.896,0.336 -0.37334,0.112 -0.79334,0.20534 -1.26,0.28 -0.44801,0.0933 -0.93334,0.168 -1.456,0.224 -0.52267,0.056 -1.04534,0.084 -1.568,0.084 -1.32534,0 -2.48267,-0.196 -3.472,-0.588 -0.97067,-0.392 -1.78267,-0.92399 -2.436,-1.596 -0.63467,-0.69066 -1.11066,-1.50266 -1.428,-2.436 -0.29866,-0.93332 -0.448,-1.94132 -0.448,-3.024 m 9.8,-1.596 c -0.0187,-0.35465 -0.084,-0.69999 -0.196,-1.036 -0.0933,-0.33599 -0.25201,-0.63465 -0.476,-0.896 -0.20534,-0.26132 -0.47601,-0.47598 -0.812,-0.644 -0.31734,-0.16798 -0.71867,-0.25198 -1.204,-0.252 -0.46667,2e-5 -0.868,0.084 -1.204,0.252 -0.336,0.14935 -0.616,0.35468 -0.84,0.616 -0.224,0.26135 -0.40134,0.56935 -0.532,0.924 -0.112,0.33601 -0.196,0.68135 -0.252,1.036 l 5.516,0"
           inkscape:connector-curvature="0" />
        <path
           id="path3879"
           d="m 163.74516,300.3534 c 0.70933,-0.20531 1.62399,-0.39198 2.744,-0.56 1.11999,-0.18665 2.29599,-0.27998 3.528,-0.28 1.25065,2e-5 2.28665,0.16802 3.108,0.504 0.83998,0.31735 1.50265,0.77468 1.988,1.372 0.48532,0.59735 0.83065,1.30668 1.036,2.128 0.20532,0.82135 0.30798,1.73601 0.308,2.744 l 0,8.316 -4.172,0 0,-7.812 c -1e-5,-1.34399 -0.17735,-2.29599 -0.532,-2.856 -0.35468,-0.55998 -1.01735,-0.83998 -1.988,-0.84 -0.29868,2e-5 -0.61601,0.0187 -0.952,0.056 -0.33601,0.0187 -0.63468,0.0467 -0.896,0.084 l 0,11.368 -4.172,0 0,-14.224"
           inkscape:connector-curvature="0" />
        <path
           id="path3881"
           d="m 194.03678,307.1854 c -1e-5,1.15734 -0.16801,2.22134 -0.504,3.192 -0.33601,0.95201 -0.82135,1.77334 -1.456,2.464 -0.63468,0.67201 -1.40001,1.19467 -2.296,1.568 -0.87734,0.37334 -1.86668,0.56 -2.968,0.56 -1.08267,0 -2.07201,-0.18666 -2.968,-0.56 -0.87734,-0.37333 -1.63334,-0.89599 -2.268,-1.568 -0.63467,-0.69066 -1.12933,-1.51199 -1.484,-2.464 -0.35467,-0.97066 -0.532,-2.03466 -0.532,-3.192 0,-1.15732 0.17733,-2.21199 0.532,-3.164 0.37333,-0.95198 0.87733,-1.76398 1.512,-2.436 0.65333,-0.67198 1.41866,-1.19465 2.296,-1.568 0.89599,-0.37331 1.86666,-0.55998 2.912,-0.56 1.06399,2e-5 2.03466,0.18669 2.912,0.56 0.89599,0.37335 1.66132,0.89602 2.296,1.568 0.63465,0.67202 1.12932,1.48402 1.484,2.436 0.35465,0.95201 0.53199,2.00668 0.532,3.164 m -4.256,0 c -1e-5,-1.28799 -0.26134,-2.29599 -0.784,-3.024 -0.50401,-0.74665 -1.23201,-1.11998 -2.184,-1.12 -0.95201,2e-5 -1.68934,0.37335 -2.212,1.12 -0.52267,0.72801 -0.784,1.73601 -0.784,3.024 0,1.28801 0.26133,2.31468 0.784,3.08 0.52266,0.74667 1.25999,1.12001 2.212,1.12 0.95199,10e-6 1.67999,-0.37333 2.184,-1.12 0.52266,-0.76532 0.78399,-1.79199 0.784,-3.08"
           inkscape:connector-curvature="0" />
        <path
           id="path3883"
           d="m 201.49659,311.5814 c 0.76533,1e-5 1.30666,-0.0747 1.624,-0.224 0.31733,-0.14933 0.476,-0.43866 0.476,-0.868 0,-0.33599 -0.20534,-0.62532 -0.616,-0.868 -0.41067,-0.26132 -1.036,-0.55066 -1.876,-0.868 -0.65333,-0.24266 -1.25067,-0.49466 -1.792,-0.756 -0.52267,-0.26132 -0.97067,-0.56932 -1.344,-0.924 -0.37333,-0.37332 -0.66266,-0.81199 -0.868,-1.316 -0.20533,-0.50399 -0.308,-1.11065 -0.308,-1.82 0,-1.38132 0.51334,-2.47332 1.54,-3.276 1.02667,-0.80265 2.436,-1.20398 4.228,-1.204 0.896,2e-5 1.75466,0.084 2.576,0.252 0.82133,0.14935 1.47466,0.31735 1.96,0.504 l -0.728,3.248 c -0.48534,-0.16798 -1.01734,-0.31732 -1.596,-0.448 -0.56001,-0.13065 -1.19467,-0.19598 -1.904,-0.196 -1.30667,2e-5 -1.96,0.36402 -1.96,1.092 0,0.16801 0.028,0.31735 0.084,0.448 0.056,0.13068 0.168,0.26135 0.336,0.392 0.168,0.11201 0.392,0.24268 0.672,0.392 0.29866,0.13068 0.672,0.28001 1.12,0.448 0.91466,0.33601 1.67066,0.67201 2.268,1.008 0.59733,0.31735 1.06399,0.67201 1.4,1.064 0.35466,0.37334 0.59733,0.79334 0.728,1.26 0.14932,0.46668 0.22399,1.00801 0.224,1.624 -1e-5,1.45601 -0.55067,2.55734 -1.652,3.304 -1.08267,0.74667 -2.62267,1.12 -4.62,1.12 -1.30667,0 -2.39867,-0.112 -3.276,-0.336 -0.85866,-0.224 -1.456,-0.41066 -1.792,-0.56 l 0.7,-3.388 c 0.70933,0.28001 1.43733,0.50401 2.184,0.672 0.74667,0.14934 1.484,0.22401 2.212,0.224"
           inkscape:connector-curvature="0" />
      </g>
      <path
         sodipodi:nodetypes="cc"
         inkscape:connector-curvature="0"
         id="path3854"
         d="M 270.51657,29.088003 268.79353,257.3902"
         style="fill:none;stroke:#000000;stroke-width:10;stroke-linecap:butt;stroke-linejoin:miter;stroke-miterlimit:4;stroke-opacity:1;stroke-dasharray:none" />
      <path
         sodipodi:nodetypes="cc"
         inkscape:connector-curvature="0"
         id="path3856"
         d="M 407.4979,443.47804 268.76516,256.88554"
         style="fill:none;stroke:#000000;stroke-width:10;stroke-linecap:butt;stroke-linejoin:miter;stroke-miterlimit:4;stroke-opacity:1;stroke-dasharray:none" />
      <path
         sodipodi:nodetypes="cc"
         inkscape:connector-curvature="0"
         id="path3858"
         d="m 489.34208,185.02272 -220.4485,71.70604"
         style="fill:none;stroke:#000000;stroke-width:10;stroke-linecap:butt;stroke-linejoin:miter;stroke-miterlimit:4;stroke-opacity:1;stroke-dasharray:none" />
      <path
         sodipodi:nodetypes="cc"
         inkscape:connector-curvature="0"
         id="path3860"
         d="m 51.691065,185.02272 217.026325,71.8867"
         style="fill:none;stroke:#000000;stroke-width:10;stroke-linecap:butt;stroke-linejoin:miter;stroke-miterlimit:4;stroke-opacity:1;stroke-dasharray:none" />
      <path
         sodipodi:nodetypes="cc"
         inkscape:connector-curvature="0"
         id="path3862"
         d="M 136.1198,442.61652 268.91746,256.83328"
         style="fill:none;stroke:#000000;stroke-width:10;stroke-linecap:butt;stroke-linejoin:miter;stroke-miterlimit:4;stroke-opacity:1;stroke-dasharray:none" />
    </g>
  </g>
</svg>
