<?xml version="1.0" encoding="UTF-8" standalone="no"?>
<!-- Created with Inkscape (http://www.inkscape.org/) -->

<svg
   xmlns:dc="http://purl.org/dc/elements/1.1/"
   xmlns:cc="http://creativecommons.org/ns#"
   xmlns:rdf="http://www.w3.org/1999/02/22-rdf-syntax-ns#"
   xmlns:svg="http://www.w3.org/2000/svg"
   xmlns="http://www.w3.org/2000/svg"
   xmlns:sodipodi="http://sodipodi.sourceforge.net/DTD/sodipodi-0.dtd"
   xmlns:inkscape="http://www.inkscape.org/namespaces/inkscape"
   width="1015.6334"
   height="612.58319"
   id="svg2"
   version="1.1"
   inkscape:version="0.48.3.1 r9886"
   sodipodi:docname="evm.svg">
  <defs
     id="defs4">
    <marker
       inkscape:stockid="Arrow1Lstart"
       orient="auto"
       refY="0"
       refX="0"
       id="Arrow1Lstart"
       style="overflow:visible">
      <path
         id="path3825"
         d="M 0,0 5,-5 -12.5,0 5,5 0,0 z"
         style="fill-rule:evenodd;stroke:#000000;stroke-width:1pt"
         transform="matrix(0.8,0,0,0.8,10,0)"
         inkscape:connector-curvature="0" />
    </marker>
  </defs>
  <sodipodi:namedview
     id="base"
     pagecolor="#ffffff"
     bordercolor="#666666"
     borderopacity="1.0"
     inkscape:pageopacity="0.0"
     inkscape:pageshadow="2"
     inkscape:zoom="0.7"
     inkscape:cx="834.5597"
     inkscape:cy="212.11203"
     inkscape:document-units="px"
     inkscape:current-layer="layer2"
     showgrid="false"
     showguides="true"
     inkscape:guide-bbox="true"
     fit-margin-top="0"
     fit-margin-left="0"
     fit-margin-right="0"
     fit-margin-bottom="0"
     inkscape:window-width="956"
     inkscape:window-height="1041"
     inkscape:window-x="960"
     inkscape:window-y="18"
     inkscape:window-maximized="0">
    <sodipodi:guide
       orientation="1,0"
       position="41.18491,-64.916805"
       id="guide4456" />
    <sodipodi:guide
       orientation="0,1"
       position="524.04205,40.797478"
       id="guide4458" />
  </sodipodi:namedview>
  <metadata
     id="metadata7">
    <rdf:RDF>
      <cc:Work
         rdf:about="">
        <dc:format>image/svg+xml</dc:format>
        <dc:type
           rdf:resource="http://purl.org/dc/dcmitype/StillImage" />
        <dc:title />
      </cc:Work>
    </rdf:RDF>
  </metadata>
  <g
     inkscape:groupmode="layer"
     id="layer2"
     inkscape:label="Layer 2"
     transform="translate(1.18491,-49.451625)">
    <path
       style="color:#000000;fill:#00ffcc;stroke:#00aad4;stroke-width:5;stroke-linecap:butt;stroke-linejoin:miter;stroke-miterlimit:6.16666651;stroke-opacity:1;stroke-dasharray:5, 5;stroke-dashoffset:0;marker:none;visibility:visible;display:inline;overflow:visible;enable-background:accumulate"
       d="m 671.15617,282.0148 0,95.19078 -0.32116,0 0,0 0,0"
       id="path5036"
       inkscape:connector-curvature="0" />
    <path
       style="color:#000000;fill:#00ffcc;stroke:#00aad4;stroke-width:5;stroke-linecap:butt;stroke-linejoin:miter;stroke-miterlimit:6.16666651;stroke-opacity:1;stroke-dasharray:5, 5;stroke-dashoffset:0;marker:none;visibility:visible;display:inline;overflow:visible;enable-background:accumulate"
       d="m 585.23243,377.69469 85.92374,0 0,0.10231 0,0 0,0"
       id="path5121"
       inkscape:connector-curvature="0" />
    <path
       style="color:#000000;fill:#00ffcc;stroke:#00aad4;stroke-width:5;stroke-linecap:butt;stroke-linejoin:miter;stroke-miterlimit:6.16666651;stroke-opacity:1;stroke-dasharray:5, 5;stroke-dashoffset:0;marker:none;visibility:visible;display:inline;overflow:visible;enable-background:accumulate"
       d="m 499.36198,283.05425 171.84748,0 0,0.20462 0,0 0,0"
       id="path4484"
       inkscape:connector-curvature="0" />
    <path
       style="color:#000000;fill:#cc00ff;stroke:#cc00ff;stroke-width:5;stroke-linecap:butt;stroke-linejoin:miter;stroke-miterlimit:6.16666651;stroke-opacity:1;stroke-dasharray:5, 5;stroke-dashoffset:0;marker:none;visibility:visible;display:inline;overflow:visible;enable-background:accumulate"
       d="m 499.28572,332.97799 85,0 0,0.35714 0,0 0,0"
       id="path4478"
       inkscape:connector-curvature="0" />
    <path
       inkscape:connector-curvature="0"
       id="path4480"
       d="m 498.82385,377.69469 85.92374,0 0,0.10231 0,0 0,0"
       style="color:#000000;fill:#cc00ff;stroke:#cc00ff;stroke-width:5;stroke-linecap:butt;stroke-linejoin:miter;stroke-miterlimit:6.16666651;stroke-opacity:1;stroke-dasharray:5, 5;stroke-dashoffset:0;marker:none;visibility:visible;display:inline;overflow:visible;enable-background:accumulate" />
    <path
       style="color:#000000;fill:none;stroke:#6d6d6d;stroke-width:5;stroke-linecap:butt;stroke-linejoin:miter;stroke-miterlimit:4;stroke-opacity:1;stroke-dasharray:none;stroke-dashoffset:0;marker:none;visibility:visible;display:inline;overflow:visible;enable-background:accumulate"
       d="M 40,621.23734 237.14286,556.95163 340,474.09448 l 101.42857,-97.14285 57.14286,-42.85715 38.57143,-30 75.71428,-40 112.85715,-52.85714 131.42857,-28.57143 52.85714,-5.71429 0,0"
       id="path4460"
       inkscape:connector-curvature="0" />
    <path
       style="color:#000000;fill:none;stroke:#ff0000;stroke-width:5;stroke-linecap:butt;stroke-linejoin:miter;stroke-miterlimit:4;stroke-opacity:1;stroke-dasharray:none;stroke-dashoffset:0;marker:none;visibility:visible;display:inline;overflow:visible;enable-background:accumulate"
       d="m 40,621.23734 105.71429,-50 L 237.14286,538.3802 310,482.66591 441.42857,336.95163 498.57143,285.52305"
       id="path4462"
       inkscape:connector-curvature="0" />
    <path
       style="color:#000000;fill:none;stroke:#09ff00;stroke-width:5;stroke-linecap:butt;stroke-linejoin:miter;stroke-miterlimit:4;stroke-opacity:1;stroke-dasharray:none;stroke-dashoffset:0;marker:none;visibility:visible;display:inline;overflow:visible;enable-background:accumulate"
       d="M 40,621.23734 242.85714,571.95163 438.57143,413.3802 500.71429,377.66591"
       id="path4466"
       inkscape:connector-curvature="0" />
    <path
       sodipodi:type="arc"
       style="fill:#09ff00;fill-opacity:1;stroke:#09ff00;stroke-width:5;stroke-miterlimit:4;stroke-opacity:1;stroke-dasharray:none;stroke-dashoffset:0"
       id="path4468"
       sodipodi:cx="499.26788"
       sodipodi:cy="377.15656"
       sodipodi:rx="7.323606"
       sodipodi:ry="7.323606"
       d="m 506.59149,377.15656 c 0,4.04471 -3.27889,7.3236 -7.32361,7.3236 -4.04471,0 -7.3236,-3.27889 -7.3236,-7.3236 0,-4.04472 3.27889,-7.32361 7.3236,-7.32361 4.04472,0 7.32361,3.27889 7.32361,7.32361 z"
       transform="translate(0.7321167,0)" />
    <path
       transform="translate(0.7321167,-44)"
       d="m 506.59149,377.15656 c 0,4.04471 -3.27889,7.3236 -7.32361,7.3236 -4.04471,0 -7.3236,-3.27889 -7.3236,-7.3236 0,-4.04472 3.27889,-7.32361 7.3236,-7.32361 4.04472,0 7.32361,3.27889 7.32361,7.32361 z"
       sodipodi:ry="7.323606"
       sodipodi:rx="7.323606"
       sodipodi:cy="377.15656"
       sodipodi:cx="499.26788"
       id="path4474"
       style="fill:#6d6d6d;fill-opacity:1;stroke:#6d6d6d;stroke-width:5;stroke-miterlimit:4;stroke-opacity:1;stroke-dasharray:none;stroke-dashoffset:0"
       sodipodi:type="arc" />
    <path
       sodipodi:type="arc"
       style="fill:#ff0000;fill-opacity:1;stroke:#ff0000;stroke-width:5;stroke-miterlimit:4;stroke-opacity:1;stroke-dasharray:none;stroke-dashoffset:0"
       id="path4476"
       sodipodi:cx="499.26788"
       sodipodi:cy="377.15656"
       sodipodi:rx="7.323606"
       sodipodi:ry="7.323606"
       d="m 506.59149,377.15656 c 0,4.04471 -3.27889,7.3236 -7.32361,7.3236 -4.04471,0 -7.3236,-3.27889 -7.3236,-7.3236 0,-4.04472 3.27889,-7.32361 7.3236,-7.32361 4.04472,0 7.32361,3.27889 7.32361,7.32361 z"
       transform="translate(0.7321167,-94)" />
    <path
       style="color:#000000;fill:#808080;stroke:#808080;stroke-width:5;stroke-linecap:butt;stroke-linejoin:miter;stroke-miterlimit:4;stroke-opacity:1;stroke-dasharray:5, 15;stroke-dashoffset:0;marker:none;visibility:visible;display:inline;overflow:visible;enable-background:accumulate"
       d="M 500,621.23734 500,51.951625"
       id="path4472"
       inkscape:connector-curvature="0" />
    <g
       id="g4451">
      <path
         inkscape:connector-curvature="0"
         id="path3051"
         d="m 39.395949,62.241514 2.020305,558.614356 963.685546,1.01015"
         style="color:#000000;fill:none;stroke:#0012ff;stroke-width:8.30000019;stroke-linecap:butt;stroke-linejoin:miter;stroke-miterlimit:4;stroke-opacity:1;stroke-dasharray:none;stroke-dashoffset:0;marker:none;visibility:visible;display:inline;overflow:visible;enable-background:accumulate" />
      <path
         inkscape:transform-center-y="-1.2626857"
         transform="matrix(-1,0,0,-1,79.296979,118.92719)"
         d="m 39.901028,64.514355 -4.374089,-7.576144 8.748177,0 z"
         inkscape:randomized="0"
         inkscape:rounded="0"
         inkscape:flatsided="true"
         sodipodi:arg2="2.6179939"
         sodipodi:arg1="1.5707963"
         sodipodi:r2="2.5253813"
         sodipodi:r1="5.0507627"
         sodipodi:cy="59.463593"
         sodipodi:cx="39.901028"
         sodipodi:sides="3"
         id="path4447"
         style="fill:#0000ff;fill-opacity:1;stroke:#0012ff;stroke-width:8.30000019;stroke-miterlimit:4;stroke-opacity:1;stroke-dasharray:none"
         sodipodi:type="star" />
      <path
         inkscape:transform-center-x="-1.2626807"
         sodipodi:type="star"
         style="fill:#0000ff;fill-opacity:1;stroke:#0012ff;stroke-width:8.30000019;stroke-miterlimit:4;stroke-opacity:1;stroke-dasharray:none"
         id="path4449"
         sodipodi:sides="3"
         sodipodi:cx="39.901028"
         sodipodi:cy="59.463593"
         sodipodi:r1="5.0507627"
         sodipodi:r2="2.5253813"
         sodipodi:arg1="1.5707963"
         sodipodi:arg2="2.6179939"
         inkscape:flatsided="true"
         inkscape:rounded="0"
         inkscape:randomized="0"
         d="m 39.901028,64.514355 -4.374089,-7.576144 8.748177,0 z"
         transform="matrix(0,-1,1,0,945.28409,661.51451)" />
    </g>
    <path
       inkscape:connector-curvature="0"
       id="path4488"
       d="m 584.27311,333.05064 0,44.27188 -0.55498,0 0,0 0,0"
       style="color:#000000;fill:#cc00ff;stroke:#cc00ff;stroke-width:5;stroke-linecap:butt;stroke-linejoin:miter;stroke-miterlimit:6.16666651;stroke-opacity:1;stroke-dasharray:5, 5;stroke-dashoffset:0;marker:none;visibility:visible;display:inline;overflow:visible;enable-background:accumulate" />
    <g
       id="g5158">
      <path
         d="m 616.2641,343.28668 c 0,-2.52179 -0.56458,-4.17789 -1.91957,-5.68343 -1.84429,-2.03248 -4.89302,-3.124 -8.84507,-3.124 -6.58676,0 -10.38826,3.08636 -10.38826,8.43104 0,4.25317 2.1454,6.32329 7.71591,7.37717 l 3.83914,0.75277 c 3.76386,0.71514 5.15649,1.76902 5.15649,3.9897 0,2.29595 -2.10776,3.68858 -5.53287,3.68858 -3.83914,0 -5.98454,-1.61846 -6.17274,-4.55427 l -5.49523,0 c 0.33875,5.87162 4.36608,9.0709 11.36686,9.0709 7.07606,0 11.25394,-3.3122 11.25394,-8.88271 0,-4.32844 -2.18304,-6.58676 -7.26425,-7.56536 l -4.2908,-0.82805 c -4.02733,-0.79041 -5.19413,-1.58082 -5.19413,-3.57567 0,-2.07012 1.84429,-3.38747 4.74246,-3.38747 3.57567,0 5.57052,1.50554 5.75871,4.2908 l 5.26941,0"
         style="font-size:22px;font-style:normal;font-variant:normal;font-weight:bold;font-stretch:normal;text-align:start;line-height:125%;letter-spacing:0px;word-spacing:0px;text-anchor:start;fill:#cc00ff;fill-opacity:1;stroke:#000000;stroke-width:1.71084583;stroke-opacity:1;font-family:Nimbus Sans L;-inkscape-font-specification:Sans Bold"
         id="path5084"
         inkscape:connector-curvature="0" />
      <path
         d="m 633.5014,362.36945 9.40965,-27.43854 -5.68343,0 -5.98454,20.66359 -6.09745,-20.66359 -5.68343,0 9.2591,27.43854 4.7801,0"
         style="font-size:22px;font-style:normal;font-variant:normal;font-weight:bold;font-stretch:normal;text-align:start;line-height:125%;letter-spacing:0px;word-spacing:0px;text-anchor:start;fill:#cc00ff;fill-opacity:1;stroke:#000000;stroke-width:1.71084583;stroke-opacity:1;font-family:Nimbus Sans L;-inkscape-font-specification:Sans Bold"
         id="path5086"
         inkscape:connector-curvature="0" />
    </g>
    <g
       transform="matrix(1.6575809,0,0,1.6575809,-431.83223,-166.38051)"
       style="font-size:22px;font-style:normal;font-variant:normal;font-weight:bold;font-stretch:normal;text-align:start;line-height:125%;letter-spacing:0px;word-spacing:0px;text-anchor:start;fill:#00abd4;fill-opacity:0.53333321;stroke:#000000;stroke-opacity:1;font-family:Nimbus Sans L;-inkscape-font-specification:Sans Bold"
       id="flowRoot5046">
      <path
         d="m 686.4415,292.98732 c -0.11,-1.386 -0.396,-2.266 -1.078,-3.168 -1.232,-1.628 -3.212,-2.53 -5.61,-2.53 -4.532,0 -7.348,3.23401 -7.348,8.426 0,5.14799 2.794,8.382 7.26,8.382 3.982,0 6.644,-2.31 6.842,-5.984 l -3.212,0 c -0.198,2.046 -1.496,3.212 -3.542,3.212 -2.552,0 -4.048,-2.068 -4.048,-5.566 0,-3.542 1.562,-5.654 4.158,-5.654 1.144,0 2.09,0.396 2.706,1.166 0.352,0.44 0.528,0.858 0.726,1.716 l 3.146,0"
         style="fill:#00abd4;fill-opacity:0.53333321;stroke:#000000;stroke-opacity:1"
         id="path5079"
         inkscape:connector-curvature="0" />
      <path
         d="m 696.06994,303.59132 5.5,-16.038 -3.322,0 -3.498,12.078 -3.564,-12.078 -3.322,0 5.412,16.038 2.794,0"
         style="fill:#00abd4;fill-opacity:0.53333321;stroke:#000000;stroke-opacity:1"
         id="path5081"
         inkscape:connector-curvature="0" />
    </g>
    <g
       id="g5170">
      <path
         d="m 430.64369,337.62974 8.00749,0 c 5.73796,0 9.42057,-4.06797 9.42057,-10.40545 0,-6.25183 -3.55414,-9.67749 -10.06288,-9.67749 l -13.78829,0 0,31.21634 6.42311,0 0,-11.1334 m 0,-5.3526 0,-9.37775 5.99491,0 c 3.42566,0 5.01003,1.49873 5.01003,4.71029 0,3.16874 -1.58437,4.66746 -5.01003,4.66746 l -5.99491,0"
         style="font-size:22px;font-style:normal;font-variant:normal;font-weight:bold;font-stretch:normal;text-align:center;line-height:125%;letter-spacing:0px;word-spacing:0px;text-anchor:middle;fill:#6d6d6d;fill-opacity:1;stroke:#000000;stroke-width:1.94639897;stroke-opacity:1;font-family:Nimbus Sans L;-inkscape-font-specification:Sans Bold"
         id="path5094"
         inkscape:connector-curvature="0" />
      <path
         d="m 466.56898,348.76314 10.7052,-31.21634 -6.46594,0 -6.8085,23.5086 -6.93697,-23.5086 -6.46594,0 10.53391,31.21634 5.43824,0"
         style="font-size:22px;font-style:normal;font-variant:normal;font-weight:bold;font-stretch:normal;text-align:center;line-height:125%;letter-spacing:0px;word-spacing:0px;text-anchor:middle;fill:#6d6d6d;fill-opacity:1;stroke:#000000;stroke-width:1.94639897;stroke-opacity:1;font-family:Nimbus Sans L;-inkscape-font-specification:Sans Bold"
         id="path5096"
         inkscape:connector-curvature="0" />
    </g>
    <g
       transform="matrix(1.751791,0,0,1.751791,-393.50767,-166.90146)"
       style="font-size:22px;font-style:normal;font-variant:normal;font-weight:bold;font-stretch:normal;text-align:center;line-height:125%;letter-spacing:0px;word-spacing:0px;text-anchor:middle;fill:#ff0000;fill-opacity:1;stroke:#000000;stroke-opacity:1;font-family:Nimbus Sans L;-inkscape-font-specification:Sans Bold"
       id="flowRoot5070">
      <path
         d="m 535.12356,240.35732 1.056,3.234 3.388,0 -5.544,-16.038 -3.652,0 -5.698,16.038 3.366,0 1.078,-3.234 6.006,0 m -0.902,-2.75 -4.18,0 2.09,-6.27 2.09,6.27"
         id="path5099"
         style="fill:#ff0000;fill-opacity:1;stroke:#000000;stroke-opacity:1"
         inkscape:connector-curvature="0" />
      <path
         d="m 555.004,232.98732 c -0.11,-1.386 -0.396,-2.266 -1.078,-3.168 -1.232,-1.628 -3.212,-2.53 -5.61,-2.53 -4.532,0 -7.348,3.23401 -7.348,8.426 0,5.14799 2.794,8.382 7.26,8.382 3.982,0 6.644,-2.31 6.842,-5.984 l -3.212,0 c -0.198,2.046 -1.496,3.212 -3.542,3.212 -2.552,0 -4.048,-2.068 -4.048,-5.566 0,-3.542 1.562,-5.654 4.158,-5.654 1.144,0 2.09,0.396 2.706,1.166 0.352,0.44 0.528,0.858 0.726,1.716 l 3.146,0"
         id="path5101"
         style="fill:#ff0000;fill-opacity:1;stroke:#000000;stroke-opacity:1"
         inkscape:connector-curvature="0" />
    </g>
    <g
       transform="translate(50.39007,6)"
       style="font-size:22px;font-style:normal;font-variant:normal;font-weight:bold;font-stretch:normal;text-align:center;line-height:125%;letter-spacing:0px;word-spacing:0px;text-anchor:middle;fill:#0012ff;fill-opacity:1;stroke:#0012ff;stroke-opacity:1;font-family:Nimbus Sans L;-inkscape-font-specification:Sans Bold"
       id="flowRoot5123">
      <path
         d="m 888.41531,641.74082 4.686,0 0,-2.75 -12.848,0 0,2.75 4.862,0 0,13.288 3.3,0 0,-13.288"
         style="fill:#0012ff;fill-opacity:1;stroke:#0012ff;stroke-opacity:1"
         id="path5132"
         inkscape:connector-curvature="0" />
      <path
         d="m 898.08053,638.99082 -3.3,0 0,16.038 3.3,0 0,-16.038"
         style="fill:#0012ff;fill-opacity:1;stroke:#0012ff;stroke-opacity:1"
         id="path5134"
         inkscape:connector-curvature="0" />
      <path
         d="m 904.53409,648.12082 7.678,0 0,-2.75 -7.678,0 0,-3.63 8.294,0 0,-2.75 -11.594,0 0,16.038 11.99,0 0,-2.75 -8.69,0 0,-4.158"
         style="fill:#0012ff;fill-opacity:1;stroke:#0012ff;stroke-opacity:1"
         id="path5136"
         inkscape:connector-curvature="0" />
      <path
         d="m 918.94341,642.53282 2.882,12.496 3.3,0 2.838,-12.496 0,12.496 3.3,0 0,-16.038 -4.972,0 -2.816,12.76 -2.904,-12.76 -4.928,0 0,16.038 3.3,0 0,-12.496"
         style="fill:#0012ff;fill-opacity:1;stroke:#0012ff;stroke-opacity:1"
         id="path5138"
         inkscape:connector-curvature="0" />
      <path
         d="m 937.51106,649.30882 4.114,0 c 2.948,0 4.84,-2.09 4.84,-5.346 0,-3.212 -1.826,-4.972 -5.17,-4.972 l -7.084,0 0,16.038 3.3,0 0,-5.72 m 0,-2.75 0,-4.818 3.08,0 c 1.76,0 2.574,0.77 2.574,2.42 0,1.628 -0.814,2.398 -2.574,2.398 l -3.08,0"
         style="fill:#0012ff;fill-opacity:1;stroke:#0012ff;stroke-opacity:1"
         id="path5140"
         inkscape:connector-curvature="0" />
      <path
         d="m 955.81438,638.72682 c -2.244,0 -4.09201,0.748 -5.456,2.222 -1.43,1.54 -2.24401,3.784 -2.24401,6.182 0,2.398 0.81401,4.664 2.24401,6.182 1.38599,1.496 3.19,2.222 5.47799,2.222 2.288,0 4.09201,-0.726 5.47801,-2.222 1.38599,-1.474 2.24399,-3.806 2.24399,-6.072 0,-2.508 -0.814,-4.752 -2.24399,-6.292 -1.408,-1.518 -3.19001,-2.222 -5.5,-2.222 m 0.022,2.816 c 2.706,0 4.422,2.2 4.422,5.676 0,3.278 -1.782,5.5 -4.422,5.5 -2.66199,0 -4.422,-2.222 -4.422,-5.588 0,-3.366 1.76001,-5.588 4.422,-5.588"
         style="fill:#0012ff;fill-opacity:1;stroke:#0012ff;stroke-opacity:1"
         id="path5142"
         inkscape:connector-curvature="0" />
    </g>
    <g
       transform="matrix(0,-1,1,0,-47.97423,-27.065806)"
       style="font-size:22px;font-style:normal;font-variant:normal;font-weight:bold;font-stretch:normal;text-align:center;line-height:125%;letter-spacing:0px;word-spacing:0px;text-anchor:middle;fill:#0012ff;fill-opacity:1;stroke:#0012ff;stroke-opacity:1;font-family:Nimbus Sans L;-inkscape-font-specification:Sans Bold"
       id="flowRoot5144">
      <path
         d="m -137.19717,52.98732 c -0.11,-1.385999 -0.396,-2.266001 -1.078,-3.168 -1.232,-1.627998 -3.212,-2.53 -5.61,-2.53 -4.532,0 -7.348,3.234005 -7.348,8.426 0,5.147995 2.794,8.382 7.26,8.382 3.98199,0 6.644,-2.310004 6.842,-5.984 l -3.212,0 c -0.198,2.045998 -1.496,3.212 -3.542,3.212 -2.552,0 -4.048,-2.068004 -4.048,-5.566 0,-3.541996 1.562,-5.654 4.158,-5.654 1.144,0 2.09,0.396001 2.706,1.166 0.352,0.44 0.528,0.858001 0.726,1.716 l 3.146,0"
         style=""
         id="path5376" />
      <path
         d="m -127.72273,47.28932 c -2.244,0 -4.09201,0.748001 -5.456,2.222 -1.43,1.539998 -2.244,3.784002 -2.244,6.182 0,2.397998 0.814,4.664002 2.244,6.182 1.38599,1.495998 3.19,2.222 5.478,2.222 2.28799,0 4.092,-0.726002 5.478,-2.222 1.38599,-1.473999 2.244,-3.806002 2.244,-6.072 0,-2.507998 -0.81401,-4.752002 -2.244,-6.292 -1.408,-1.517998 -3.19001,-2.222 -5.5,-2.222 m 0.022,2.816 c 2.70599,0 4.422,2.200003 4.422,5.676 0,3.277997 -1.78201,5.5 -4.422,5.5 -2.662,0 -4.422,-2.222003 -4.422,-5.588 0,-3.365997 1.76,-5.588 4.422,-5.588"
         style=""
         id="path5378" />
      <path
         d="m -105.84717,52.43732 c 0,-1.473999 -0.33,-2.442001 -1.122,-3.322 -1.078,-1.187999 -2.86,-1.826 -5.17,-1.826 -3.85,0 -6.072,1.804003 -6.072,4.928 0,2.485997 1.254,3.696001 4.51,4.312 l 2.244,0.44 c 2.2,0.418 3.014,1.034001 3.014,2.332 0,1.341999 -1.232,2.156 -3.234,2.156 -2.244,0 -3.498,-0.946002 -3.608,-2.662 l -3.212,0 c 0.198,3.431997 2.552,5.302 6.644,5.302 4.13599,0 6.578,-1.936003 6.578,-5.192 0,-2.529997 -1.276,-3.850001 -4.246,-4.422 l -2.508,-0.484 c -2.354,-0.462 -3.036,-0.924001 -3.036,-2.09 0,-1.209999 1.078,-1.98 2.772,-1.98 2.09,0 3.256,0.880002 3.366,2.508 l 3.08,0"
         style=""
         id="path5380" />
      <path
         d="m -96.035859,50.30332 4.686,0 0,-2.75 -12.848001,0 0,2.75 4.862001,0 0,13.288 3.3,0 0,-13.288"
         style=""
         id="path5382" />
      <path
         d="m -86.018641,56.68332 7.678,0 0,-2.75 -7.678,0 0,-3.63 8.294,0 0,-2.75 -11.594,0 0,16.038 11.99,0 0,-2.75 -8.69,0 0,-4.158"
         style=""
         id="path5384" />
    </g>
    <g
       id="g5174">
      <path
         d="m 527.99047,421.64974 14.54803,0 0,-5.21062 -14.54803,0 0,-6.878 15.7152,0 0,-5.21061 -21.96793,0 0,30.38828 22.71826,0 0,-5.21061 -16.46553,0 0,-7.87844"
         style="font-size:22px;font-style:normal;font-variant:normal;font-weight:bold;font-stretch:normal;text-align:center;line-height:125%;letter-spacing:0px;word-spacing:0px;text-anchor:middle;fill:#09ff00;fill-opacity:1;stroke:#000000;stroke-width:1.8947674;stroke-opacity:1;font-family:Nimbus Sans L;-inkscape-font-specification:Sans Bold"
         id="path5089"
         inkscape:connector-curvature="0" />
      <path
         inkscape:connector-curvature="0"
         id="path5168"
         style="font-size:22px;font-style:normal;font-variant:normal;font-weight:bold;font-stretch:normal;text-align:center;line-height:125%;letter-spacing:0px;word-spacing:0px;text-anchor:middle;fill:#09ff00;fill-opacity:1;stroke:#000000;stroke-width:1.94639897;stroke-opacity:1;font-family:Nimbus Sans L;-inkscape-font-specification:Sans Bold"
         d="m 564.11644,435.38208 10.7052,-31.21634 -6.46594,0 -6.8085,23.5086 -6.93697,-23.5086 -6.46594,0 10.53391,31.21634 5.43824,0" />
    </g>
    <g
       id="g5336"
       transform="translate(0,72)">
      <g
         transform="translate(-3.56017,0)"
         style="fill:#9200b6;fill-opacity:1;stroke:#001318;stroke-width:1.67999995;stroke-miterlimit:4;stroke-opacity:0.90971572;stroke-dasharray:none"
         id="g5226">
        <path
           style="font-size:22px;font-style:normal;font-variant:normal;font-weight:bold;font-stretch:normal;text-align:center;line-height:125%;letter-spacing:0px;word-spacing:0px;text-anchor:middle;fill:#9200b6;fill-opacity:1;stroke:#001318;stroke-width:1.67999995;stroke-miterlimit:4;stroke-opacity:0.90971572;stroke-dasharray:none;font-family:Nimbus Sans L;-inkscape-font-specification:Sans Bold"
           inkscape:connector-curvature="0"
           id="path5199"
           d="m 751.83128,445.94089 c 0,-2.62433 -0.58754,-4.34777 -1.99763,-5.91454 -1.91926,-2.11513 -5.09198,-3.25104 -9.20474,-3.25104 -6.85457,0 -10.81067,3.21187 -10.81067,8.77389 0,4.42611 2.23265,6.58041 8.02967,7.67714 l 3.99525,0.78338 c 3.91691,0.74422 5.36616,1.84095 5.36616,4.15193 0,2.38932 -2.19347,3.83857 -5.75786,3.83857 -3.99523,0 -6.22789,-1.68427 -6.42373,-4.73946 l -5.71869,0 c 0.35252,6.11038 4.54363,9.43976 11.82907,9.43976 7.36379,0 11.71157,-3.44688 11.71157,-9.24391 0,-4.50445 -2.27181,-6.8546 -7.55964,-7.873 l -4.46528,-0.86172 c -4.19108,-0.82255 -5.40534,-1.6451 -5.40534,-3.72106 0,-2.1543 1.9193,-3.52522 4.93531,-3.52522 3.72106,0 5.79703,1.56676 5.99287,4.46528 l 5.48368,0" />
        <path
           style="font-size:22px;font-style:normal;font-variant:normal;font-weight:bold;font-stretch:normal;text-align:center;line-height:125%;letter-spacing:0px;word-spacing:0px;text-anchor:middle;fill:#9200b6;fill-opacity:1;stroke:#001318;stroke-width:1.67999995;stroke-miterlimit:4;stroke-opacity:0.90971572;stroke-dasharray:none;font-family:Nimbus Sans L;-inkscape-font-specification:Sans Bold"
           inkscape:connector-curvature="0"
           id="path5201"
           d="m 763.0716,455.61566 7.32463,0 c 5.24864,0 8.6172,-3.72107 8.6172,-9.5181 0,-5.71869 -3.25105,-8.85222 -9.20474,-8.85222 l -12.61245,0 0,28.55429 5.87536,0 0,-10.18397 m 0,-4.89614 0,-8.57804 5.48368,0 c 3.13353,0 4.58279,1.37092 4.58279,4.30861 0,2.89851 -1.44926,4.26943 -4.58279,4.26943 l -5.48368,0" />
        <path
           style="font-size:22px;font-style:normal;font-variant:normal;font-weight:bold;font-stretch:normal;text-align:center;line-height:125%;letter-spacing:0px;word-spacing:0px;text-anchor:middle;fill:#9200b6;fill-opacity:1;stroke:#001318;stroke-width:1.67999995;stroke-miterlimit:4;stroke-opacity:0.90971572;stroke-dasharray:none;font-family:Nimbus Sans L;-inkscape-font-specification:Sans Bold"
           inkscape:connector-curvature="0"
           id="path5203"
           d="m 788.72615,437.24534 -5.87537,0 0,28.55429 5.87537,0 0,-28.55429" />
      </g>
      <path
         d="m 823.02604,449.70112 -18.95785,0 0,4.66113 18.95785,0 0,-4.66113 m 0,9.40059 -18.95785,0 0,4.66112 18.95785,0 0,-4.66112"
         id="path5205"
         inkscape:connector-curvature="0"
         style="font-size:22px;font-style:normal;font-variant:normal;font-weight:bold;font-stretch:normal;text-align:center;line-height:125%;letter-spacing:0px;word-spacing:0px;text-anchor:middle;fill:#000000;fill-opacity:1;stroke:none;font-family:Nimbus Sans L;-inkscape-font-specification:Sans Bold" />
      <g
         style="fill:#09ff00;fill-opacity:1;stroke:#000000;stroke-width:1.67999995;stroke-miterlimit:4;stroke-opacity:1;stroke-dasharray:none"
         id="g5231">
        <path
           style="font-size:22px;font-style:normal;font-variant:normal;font-weight:bold;font-stretch:normal;text-align:center;line-height:125%;letter-spacing:0px;word-spacing:0px;text-anchor:middle;fill:#09ff00;fill-opacity:1;stroke:#000000;stroke-width:1.67999995;stroke-miterlimit:4;stroke-opacity:1;stroke-dasharray:none;font-family:Nimbus Sans L;-inkscape-font-specification:Sans Bold"
           inkscape:connector-curvature="0"
           id="path5207"
           d="m 844.81692,453.50053 13.67002,0 0,-4.89614 -13.67002,0 0,-6.46291 14.76676,0 0,-4.89614 -20.64212,0 0,28.55429 21.34716,0 0,-4.89614 -15.4718,0 0,-7.40296" />
        <path
           style="font-size:22px;font-style:normal;font-variant:normal;font-weight:bold;font-stretch:normal;text-align:center;line-height:125%;letter-spacing:0px;word-spacing:0px;text-anchor:middle;fill:#09ff00;fill-opacity:1;stroke:#000000;stroke-width:1.67999995;stroke-miterlimit:4;stroke-opacity:1;stroke-dasharray:none;font-family:Nimbus Sans L;-inkscape-font-specification:Sans Bold"
           inkscape:connector-curvature="0"
           id="path5209"
           d="m 877.56109,465.79963 9.79228,-28.55429 -5.91453,0 -6.22789,21.50385 -6.3454,-21.50385 -5.91454,0 9.63561,28.55429 4.97447,0" />
      </g>
      <path
         d="m 896.32187,437.83288 -8.06884,28.51512 2.62433,0 8.06884,-28.51512 -2.62433,0"
         id="path5211"
         inkscape:connector-curvature="0"
         style="font-size:22px;font-style:normal;font-variant:normal;font-weight:bold;font-stretch:normal;text-align:center;line-height:125%;letter-spacing:0px;word-spacing:0px;text-anchor:middle;fill:#000000;fill-opacity:1;stroke:#000000;stroke-width:1.67999995;stroke-miterlimit:4;stroke-opacity:1;stroke-dasharray:none;font-family:Nimbus Sans L;-inkscape-font-specification:Sans Bold" />
      <g
         transform="translate(8.48983,0)"
         style="fill:#6d6d6d;fill-opacity:1;stroke:#000000;stroke-width:1.67999995;stroke-miterlimit:4;stroke-opacity:1;stroke-dasharray:none"
         id="g5235">
        <path
           style="font-size:22px;font-style:normal;font-variant:normal;font-weight:bold;font-stretch:normal;text-align:center;line-height:125%;letter-spacing:0px;word-spacing:0px;text-anchor:middle;fill:#6d6d6d;fill-opacity:1;stroke:#000000;stroke-width:1.67999995;stroke-miterlimit:4;stroke-opacity:1;stroke-dasharray:none;font-family:Nimbus Sans L;-inkscape-font-specification:Sans Bold"
           inkscape:connector-curvature="0"
           id="path5213"
           d="m 907.89022,455.61566 7.32462,0 c 5.24866,0 8.61721,-3.72107 8.61721,-9.5181 0,-5.71869 -3.25104,-8.85222 -9.20474,-8.85222 l -12.61246,0 0,28.55429 5.87537,0 0,-10.18397 m 0,-4.89614 0,-8.57804 5.48368,0 c 3.13352,0 4.58278,1.37092 4.58278,4.30861 0,2.89851 -1.44926,4.26943 -4.58278,4.26943 l -5.48368,0" />
        <path
           style="font-size:22px;font-style:normal;font-variant:normal;font-weight:bold;font-stretch:normal;text-align:center;line-height:125%;letter-spacing:0px;word-spacing:0px;text-anchor:middle;fill:#6d6d6d;fill-opacity:1;stroke:#000000;stroke-width:1.67999995;stroke-miterlimit:4;stroke-opacity:1;stroke-dasharray:none;font-family:Nimbus Sans L;-inkscape-font-specification:Sans Bold"
           inkscape:connector-curvature="0"
           id="path5215"
           d="m 940.75188,465.79963 9.79228,-28.55429 -5.91454,0 -6.22789,21.50385 -6.3454,-21.50385 -5.91453,0 9.6356,28.55429 4.97448,0" />
      </g>
    </g>
    <g
       id="g5322"
       transform="translate(0,86)">
      <g
         style="fill:#00abd4;fill-opacity:0.53333543;stroke:#000000;stroke-width:1.67999995;stroke-miterlimit:4;stroke-opacity:1;stroke-dasharray:none"
         id="g5275">
        <path
           style="font-size:22px;font-style:normal;font-variant:normal;font-weight:bold;font-stretch:normal;text-align:center;line-height:125%;letter-spacing:0px;word-spacing:0px;text-anchor:middle;fill:#00abd4;fill-opacity:0.53333543;stroke:#000000;stroke-width:1.67999995;stroke-miterlimit:4;stroke-opacity:1;stroke-dasharray:none;font-family:Nimbus Sans L;-inkscape-font-specification:Sans Bold"
           inkscape:connector-curvature="0"
           id="path5248"
           d="m 747.04642,489.85677 c -0.20681,-2.60576 -0.74451,-4.26021 -2.02671,-5.95602 -2.31623,-3.06073 -6.03874,-4.75655 -10.54712,-4.75655 -8.5204,0 -13.81466,6.08013 -13.81466,15.84137 0,9.67851 5.2529,15.75863 13.64922,15.75863 7.48639,0 12.4911,-4.34293 12.86335,-11.25026 l -6.03874,0 c -0.37226,3.8466 -2.81257,6.03875 -6.65917,6.03875 -4.7979,0 -7.61047,-3.88796 -7.61047,-10.4644 0,-6.65916 2.93665,-10.62984 7.81728,-10.62984 2.15078,0 3.92932,0.7445 5.08743,2.19214 0.66178,0.82723 0.99267,1.61309 1.36493,3.22618 l 5.91466,0" />
        <path
           style="font-size:22px;font-style:normal;font-variant:normal;font-weight:bold;font-stretch:normal;text-align:center;line-height:125%;letter-spacing:0px;word-spacing:0px;text-anchor:middle;fill:#00abd4;fill-opacity:0.53333543;stroke:#000000;stroke-width:1.67999995;stroke-miterlimit:4;stroke-opacity:1;stroke-dasharray:none;font-family:Nimbus Sans L;-inkscape-font-specification:Sans Bold"
           inkscape:connector-curvature="0"
           id="path5250"
           d="m 758.07566,499.03897 7.73455,0 c 5.54241,0 9.09948,-3.92932 9.09948,-10.05079 0,-6.03874 -3.43299,-9.34764 -9.7199,-9.34764 l -13.31832,0 0,30.15236 6.20419,0 0,-10.75393 m 0,-5.17016 0,-9.05811 5.79057,0 c 3.3089,0 4.83927,1.44764 4.83927,4.54974 0,3.06073 -1.53037,4.50837 -4.83927,4.50837 l -5.79057,0" />
        <path
           style="font-size:22px;font-style:normal;font-variant:normal;font-weight:bold;font-stretch:normal;text-align:center;line-height:125%;letter-spacing:0px;word-spacing:0px;text-anchor:middle;fill:#00abd4;fill-opacity:0.53333543;stroke:#000000;stroke-width:1.67999995;stroke-miterlimit:4;stroke-opacity:1;stroke-dasharray:none;font-family:Nimbus Sans L;-inkscape-font-specification:Sans Bold"
           inkscape:connector-curvature="0"
           id="path5252"
           d="m 785.16598,479.64054 -6.20419,0 0,30.15236 6.20419,0 0,-30.15236" />
      </g>
      <path
         d="m 824.08704,492.79342 -20.01885,0 0,4.92199 20.01885,0 0,-4.92199 m 0,9.9267 -20.01885,0 0,4.92199 20.01885,0 0,-4.92199"
         id="path5254"
         inkscape:connector-curvature="0"
         style="font-size:22px;font-style:normal;font-variant:normal;font-weight:bold;font-stretch:normal;text-align:center;line-height:125%;letter-spacing:0px;word-spacing:0px;text-anchor:middle;fill:#000000;fill-opacity:1;stroke:none;font-family:Nimbus Sans L;-inkscape-font-specification:Sans Bold" />
      <g
         style="fill:#ff0000;fill-opacity:1;stroke:#000000;stroke-width:1.69000006;stroke-miterlimit:4;stroke-opacity:1;stroke-dasharray:none"
         transform="translate(3.468865,0)"
         id="g5284">
        <path
           style="font-size:22px;font-style:normal;font-variant:normal;font-weight:bold;font-stretch:normal;text-align:center;line-height:125%;letter-spacing:0px;word-spacing:0px;text-anchor:middle;fill:#ff0000;fill-opacity:1;stroke:#000000;stroke-width:1.69000006;stroke-miterlimit:4;stroke-opacity:1;stroke-dasharray:none;font-family:Nimbus Sans L;-inkscape-font-specification:Sans Bold"
           inkscape:connector-curvature="0"
           id="path5262"
           d="m 922.37355,503.71279 1.98534,6.08011 6.36963,0 -10.42304,-30.15236 -6.86596,0 -10.71257,30.15236 6.32827,0 2.0267,-6.08011 11.29163,0 m -1.69582,-5.17016 -7.85863,0 3.92932,-11.78795 3.92931,11.78795" />
        <path
           style="font-size:22px;font-style:normal;font-variant:normal;font-weight:bold;font-stretch:normal;text-align:center;line-height:125%;letter-spacing:0px;word-spacing:0px;text-anchor:middle;fill:#ff0000;fill-opacity:1;stroke:#000000;stroke-width:1.69000006;stroke-miterlimit:4;stroke-opacity:1;stroke-dasharray:none;font-family:Nimbus Sans L;-inkscape-font-specification:Sans Bold"
           inkscape:connector-curvature="0"
           id="path5264"
           d="m 959.74991,489.85677 c -0.20681,-2.60576 -0.7445,-4.26021 -2.0267,-5.95602 -2.31623,-3.06073 -6.03875,-4.75655 -10.54712,-4.75655 -8.5204,0 -13.81466,6.08013 -13.81466,15.84137 0,9.67851 5.2529,15.75863 13.64921,15.75863 7.48639,0 12.4911,-4.34293 12.86335,-11.25026 l -6.03874,0 c -0.37225,3.8466 -2.81257,6.03875 -6.65916,6.03875 -4.79791,0 -7.61047,-3.88796 -7.61047,-10.4644 0,-6.65916 2.93665,-10.62984 7.81727,-10.62984 2.15079,0 3.92932,0.7445 5.08744,2.19214 0.66178,0.82723 0.99267,1.61309 1.36492,3.22618 l 5.91466,0" />
      </g>
      <g
         transform="translate(0,44.10457)"
         id="g5288"
         style="fill:#09ff00;fill-opacity:1;stroke:#000000;stroke-width:1.67999995;stroke-miterlimit:4;stroke-opacity:1;stroke-dasharray:none">
        <path
           d="m 844.81692,453.50053 13.67002,0 0,-4.89614 -13.67002,0 0,-6.46291 14.76676,0 0,-4.89614 -20.64212,0 0,28.55429 21.34716,0 0,-4.89614 -15.4718,0 0,-7.40296"
           id="path5290"
           inkscape:connector-curvature="0"
           style="font-size:22px;font-style:normal;font-variant:normal;font-weight:bold;font-stretch:normal;text-align:center;line-height:125%;letter-spacing:0px;word-spacing:0px;text-anchor:middle;fill:#09ff00;fill-opacity:1;stroke:#000000;stroke-width:1.67999995;stroke-miterlimit:4;stroke-opacity:1;stroke-dasharray:none;font-family:Nimbus Sans L;-inkscape-font-specification:Sans Bold" />
        <path
           d="m 877.56109,465.79963 9.79228,-28.55429 -5.91453,0 -6.22789,21.50385 -6.3454,-21.50385 -5.91454,0 9.63561,28.55429 4.97447,0"
           id="path5292"
           inkscape:connector-curvature="0"
           style="font-size:22px;font-style:normal;font-variant:normal;font-weight:bold;font-stretch:normal;text-align:center;line-height:125%;letter-spacing:0px;word-spacing:0px;text-anchor:middle;fill:#09ff00;fill-opacity:1;stroke:#000000;stroke-width:1.67999995;stroke-miterlimit:4;stroke-opacity:1;stroke-dasharray:none;font-family:Nimbus Sans L;-inkscape-font-specification:Sans Bold" />
      </g>
      <path
         style="font-size:22px;font-style:normal;font-variant:normal;font-weight:bold;font-stretch:normal;text-align:center;line-height:125%;letter-spacing:0px;word-spacing:0px;text-anchor:middle;fill:#000000;fill-opacity:1;stroke:#000000;stroke-width:1.67999995;stroke-miterlimit:4;stroke-opacity:1;stroke-dasharray:none;font-family:Nimbus Sans L;-inkscape-font-specification:Sans Bold"
         inkscape:connector-curvature="0"
         id="path5294"
         d="m 896.32187,481.38908 -8.06884,28.51512 2.62433,0 8.06884,-28.51512 -2.62433,0" />
    </g>
  </g>
</svg>
