<?xml version="1.0" encoding="UTF-8" standalone="no"?>
<!-- Created with Inkscape (http://www.inkscape.org/) -->

<svg
   xmlns:dc="http://purl.org/dc/elements/1.1/"
   xmlns:cc="http://creativecommons.org/ns#"
   xmlns:rdf="http://www.w3.org/1999/02/22-rdf-syntax-ns#"
   xmlns:svg="http://www.w3.org/2000/svg"
   xmlns="http://www.w3.org/2000/svg"
   xmlns:sodipodi="http://sodipodi.sourceforge.net/DTD/sodipodi-0.dtd"
   xmlns:inkscape="http://www.inkscape.org/namespaces/inkscape"
   width="464.84357"
   height="430.60748"
   id="svg2"
   version="1.1"
   inkscape:version="0.48.3.1 r9886"
   sodipodi:docname="New document 1">
  <sodipodi:namedview
     id="base"
     pagecolor="#ffffff"
     bordercolor="#666666"
     borderopacity="1.0"
     inkscape:pageopacity="0.0"
     inkscape:pageshadow="2"
     inkscape:zoom="1.114049"
     inkscape:cx="187.43136"
     inkscape:cy="80.984004"
     inkscape:document-units="px"
     inkscape:current-layer="layer1"
     showgrid="false"
     showguides="true"
     inkscape:guide-bbox="true"
     inkscape:window-width="1676"
     inkscape:window-height="1011"
     inkscape:window-x="1280"
     inkscape:window-y="18"
     inkscape:window-maximized="0"
     fit-margin-top="0"
     fit-margin-left="0"
     fit-margin-right="0"
     fit-margin-bottom="0" />
  <defs
     id="defs4">
    <marker
       style="overflow:visible"
       id="Arrow1Lend"
       refX="0"
       refY="0"
       orient="auto"
       inkscape:stockid="Arrow1Lend">
      <path
         transform="matrix(-0.8,0,0,-0.8,-10,0)"
         style="fill-rule:evenodd;stroke:#000000;stroke-width:1pt"
         d="M 0,0 5,-5 -12.5,0 5,5 0,0 z"
         id="path3794"
         inkscape:connector-curvature="0" />
    </marker>
    <marker
       style="overflow:visible"
       id="Arrow1Lstart"
       refX="0"
       refY="0"
       orient="auto"
       inkscape:stockid="Arrow1Lstart">
      <path
         transform="matrix(0.8,0,0,0.8,10,0)"
         style="fill-rule:evenodd;stroke:#000000;stroke-width:1pt"
         d="M 0,0 5,-5 -12.5,0 5,5 0,0 z"
         id="path3791"
         inkscape:connector-curvature="0" />
    </marker>
  </defs>
  <metadata
     id="metadata7">
    <rdf:RDF>
      <cc:Work
         rdf:about="">
        <dc:format>image/svg+xml</dc:format>
        <dc:type
           rdf:resource="http://purl.org/dc/dcmitype/StillImage" />
        <dc:title></dc:title>
      </cc:Work>
    </rdf:RDF>
  </metadata>
  <g
     id="layer1"
     inkscape:groupmode="layer"
     inkscape:label="Layer 1"
     transform="translate(-66.872421,-65.556003)">
    <rect
       y="91.399376"
       x="122.90471"
       height="177.72099"
       width="177.72099"
       id="rect2989"
       style="fill:#e9e9e9;fill-opacity:1;stroke:#000000;stroke-width:1.5;stroke-linecap:round;stroke-linejoin:miter;stroke-miterlimit:4;stroke-opacity:1;stroke-dasharray:none;stroke-dashoffset:0" />
    <rect
       style="fill:#e9e9e9;fill-opacity:1;stroke:#000000;stroke-width:1.5;stroke-linecap:round;stroke-linejoin:miter;stroke-miterlimit:4;stroke-opacity:1;stroke-dasharray:none;stroke-dashoffset:0"
       id="rect2991"
       width="177.72099"
       height="177.72099"
       x="302.1257"
       y="91.399376" />
    <rect
       style="fill:#e9e9e9;fill-opacity:1;stroke:#000000;stroke-width:1.5;stroke-linecap:round;stroke-linejoin:miter;stroke-miterlimit:4;stroke-opacity:1;stroke-dasharray:none;stroke-dashoffset:0"
       id="rect3761"
       width="177.72099"
       height="177.72099"
       x="122.90471"
       y="270.62036" />
    <rect
       y="270.62036"
       x="302.1257"
       height="177.72099"
       width="177.72099"
       id="rect3763"
       style="fill:#e9e9e9;fill-opacity:1;stroke:#000000;stroke-width:1.5;stroke-linecap:round;stroke-linejoin:miter;stroke-miterlimit:4;stroke-opacity:1;stroke-dasharray:none;stroke-dashoffset:0" />
    <g
       id="flowRoot3765"
       style="font-size:20px;font-style:normal;font-variant:normal;font-weight:normal;font-stretch:normal;text-align:center;line-height:125%;letter-spacing:0px;word-spacing:0px;text-anchor:middle;fill:#000000;fill-opacity:1;stroke:none;font-family:Ubuntu;-inkscape-font-specification:Ubuntu"
       transform="translate(0,24)">
      <path
         id="path5273"
         d="m 193.03641,454.5435 1.94,0 0,13.86 -1.94,0 0,-13.86"
         inkscape:connector-curvature="0" />
      <path
         id="path5275"
         d="m 198.30703,458.3035 c 0.42667,-0.10665 0.99333,-0.21999 1.7,-0.34 0.70666,-0.11999 1.52,-0.17999 2.44,-0.18 0.82666,10e-6 1.51333,0.12001 2.06,0.36 0.54666,0.22668 0.97999,0.55335 1.3,0.98 0.33333,0.41335 0.56666,0.91334 0.7,1.5 0.13332,0.58668 0.19999,1.23334 0.2,1.94 l 0,5.84 -1.86,0 0,-5.44 c -1e-5,-0.63999 -0.0467,-1.18666 -0.14,-1.64 -0.08,-0.45332 -0.22001,-0.81999 -0.42,-1.1 -0.20001,-0.27999 -0.46667,-0.47999 -0.8,-0.6 -0.33334,-0.13332 -0.74667,-0.19999 -1.24,-0.2 -0.2,1e-5 -0.40667,0.007 -0.62,0.02 -0.21334,0.0134 -0.42,0.0334 -0.62,0.06 -0.18667,0.0134 -0.36,0.0334 -0.52,0.06 -0.14667,0.0267 -0.25334,0.0467 -0.32,0.06 l 0,8.78 -1.86,0 0,-10.1"
         inkscape:connector-curvature="0" />
      <path
         id="path5277"
         d="m 211.53141,458.0035 3.94,0 0,1.56 -3.94,0 0,4.8 c -1e-5,0.52001 0.04,0.95334 0.12,1.3 0.08,0.33334 0.19999,0.60001 0.36,0.8 0.15999,0.18667 0.35999,0.32 0.6,0.4 0.23999,0.08 0.51999,0.12 0.84,0.12 0.55999,0 1.00666,-0.06 1.34,-0.18 0.34666,-0.13333 0.58666,-0.22666 0.72,-0.28 l 0.36,1.54 c -0.18668,0.0933 -0.51334,0.20667 -0.98,0.34 -0.46668,0.14667 -1.00001,0.22 -1.6,0.22 -0.70667,0 -1.29334,-0.0867 -1.76,-0.26 -0.45334,-0.18666 -0.82001,-0.46 -1.1,-0.82 -0.28001,-0.36 -0.48001,-0.8 -0.6,-1.32 -0.10667,-0.53333 -0.16001,-1.14666 -0.16,-1.84 l 0,-9.28 1.86,-0.32 0,3.22"
         inkscape:connector-curvature="0" />
      <path
         id="path5279"
         d="m 217.06297,463.2235 c 0,-0.91999 0.13333,-1.71999 0.4,-2.4 0.26666,-0.69332 0.62,-1.26665 1.06,-1.72 0.44,-0.45332 0.94666,-0.79332 1.52,-1.02 0.57333,-0.22665 1.15999,-0.33999 1.76,-0.34 1.39999,1e-5 2.47332,0.44001 3.22,1.32 0.74666,0.86668 1.11999,2.19334 1.12,3.98 -1e-5,0.08 -1e-5,0.18667 0,0.32 -1e-5,0.12001 -0.007,0.23334 -0.02,0.34 l -7.12,0 c 0.08,1.08001 0.39333,1.90001 0.94,2.46 0.54666,0.56 1.39999,0.84 2.56,0.84 0.65332,0 1.19999,-0.0533 1.64,-0.16 0.45332,-0.12 0.79332,-0.23333 1.02,-0.34 l 0.26,1.56 c -0.22668,0.12 -0.62668,0.24667 -1.2,0.38 -0.56001,0.13334 -1.20001,0.2 -1.92,0.2 -0.90667,0 -1.69334,-0.13333 -2.36,-0.4 -0.65334,-0.28 -1.19334,-0.66 -1.62,-1.14 -0.42667,-0.48 -0.74667,-1.04666 -0.96,-1.7 -0.2,-0.66666 -0.3,-1.39333 -0.3,-2.18 m 7.14,-1.02 c 0.0133,-0.83999 -0.20001,-1.52666 -0.64,-2.06 -0.42668,-0.54665 -1.02001,-0.81999 -1.78,-0.82 -0.42667,10e-6 -0.80667,0.0867 -1.14,0.26 -0.32001,0.16001 -0.59334,0.37334 -0.82,0.64 -0.22667,0.26668 -0.40667,0.57334 -0.54,0.92 -0.12,0.34668 -0.2,0.70001 -0.24,1.06 l 5.16,0"
         inkscape:connector-curvature="0" />
      <path
         id="path5281"
         d="m 228.81484,458.3035 c 0.42667,-0.10665 0.99333,-0.21999 1.7,-0.34 0.70667,-0.11999 1.52,-0.17999 2.44,-0.18 0.82666,10e-6 1.51333,0.12001 2.06,0.36 0.54666,0.22668 0.97999,0.55335 1.3,0.98 0.33333,0.41335 0.56666,0.91334 0.7,1.5 0.13333,0.58668 0.19999,1.23334 0.2,1.94 l 0,5.84 -1.86,0 0,-5.44 c 0,-0.63999 -0.0467,-1.18666 -0.14,-1.64 -0.08,-0.45332 -0.22,-0.81999 -0.42,-1.1 -0.2,-0.27999 -0.46667,-0.47999 -0.8,-0.6 -0.33334,-0.13332 -0.74667,-0.19999 -1.24,-0.2 -0.2,1e-5 -0.40667,0.007 -0.62,0.02 -0.21333,0.0134 -0.42,0.0334 -0.62,0.06 -0.18667,0.0134 -0.36,0.0334 -0.52,0.06 -0.14667,0.0267 -0.25333,0.0467 -0.32,0.06 l 0,8.78 -1.86,0 0,-10.1"
         inkscape:connector-curvature="0" />
      <path
         id="path5283"
         d="m 242.71922,467.0635 c 0.75999,0 1.31999,-0.1 1.68,-0.3 0.37333,-0.2 0.55999,-0.51999 0.56,-0.96 -10e-6,-0.45333 -0.18001,-0.81333 -0.54,-1.08 -0.36001,-0.26666 -0.95334,-0.56666 -1.78,-0.9 -0.4,-0.15999 -0.78667,-0.31999 -1.16,-0.48 -0.36,-0.17333 -0.67334,-0.37332 -0.94,-0.6 -0.26667,-0.22666 -0.48,-0.49999 -0.64,-0.82 -0.16,-0.31999 -0.24,-0.71332 -0.24,-1.18 0,-0.91999 0.34,-1.64665 1.02,-2.18 0.68,-0.54665 1.60666,-0.81999 2.78,-0.82 0.29333,1e-5 0.58666,0.02 0.88,0.06 0.29333,0.0267 0.56666,0.0667 0.82,0.12 0.25333,0.04 0.47333,0.0867 0.66,0.14 0.19999,0.0534 0.35332,0.10001 0.46,0.14 l -0.34,1.6 c -0.20001,-0.10665 -0.51334,-0.21332 -0.94,-0.32 -0.42667,-0.11999 -0.94001,-0.17999 -1.54,-0.18 -0.52001,1e-5 -0.97334,0.10668 -1.36,0.32 -0.38667,0.20001 -0.58,0.52001 -0.58,0.96 0,0.22668 0.04,0.42668 0.12,0.6 0.0933,0.17334 0.22666,0.33334 0.4,0.48 0.18666,0.13334 0.41333,0.26001 0.68,0.38 0.26666,0.12001 0.58666,0.24668 0.96,0.38 0.49333,0.18668 0.93333,0.37334 1.32,0.56 0.38666,0.17334 0.71333,0.38001 0.98,0.62 0.27999,0.24001 0.49332,0.53334 0.64,0.88 0.14666,0.33334 0.21999,0.74667 0.22,1.24 -1e-5,0.96 -0.36001,1.68667 -1.08,2.18 -0.70667,0.49334 -1.72001,0.74 -3.04,0.74 -0.92,0 -1.64,-0.08 -2.16,-0.24 -0.52,-0.14666 -0.87334,-0.26 -1.06,-0.34 l 0.34,-1.6 c 0.21333,0.08 0.55333,0.2 1.02,0.36 0.46666,0.16 1.08666,0.24 1.86,0.24"
         inkscape:connector-curvature="0" />
      <path
         id="path5285"
         d="m 251.06547,468.4035 -1.86,0 0,-10.4 1.86,0 0,10.4 m -0.94,-12.28 c -0.33334,2e-5 -0.62,-0.10665 -0.86,-0.32 -0.22667,-0.22665 -0.34,-0.52665 -0.34,-0.9 0,-0.37332 0.11333,-0.66665 0.34,-0.88 0.24,-0.22665 0.52666,-0.33998 0.86,-0.34 0.33333,2e-5 0.61333,0.11335 0.84,0.34 0.24,0.21335 0.36,0.50668 0.36,0.88 0,0.37335 -0.12,0.67335 -0.36,0.9 -0.22667,0.21335 -0.50667,0.32002 -0.84,0.32"
         inkscape:connector-curvature="0" />
      <path
         id="path5287"
         d="m 261.00359,460.2035 c -0.22667,-0.18666 -0.55334,-0.36666 -0.98,-0.54 -0.42667,-0.17332 -0.89334,-0.25999 -1.4,-0.26 -0.53333,10e-6 -0.99333,0.10001 -1.38,0.3 -0.37333,0.18668 -0.68,0.45334 -0.92,0.8 -0.24,0.33334 -0.41333,0.73334 -0.52,1.2 -0.10667,0.46668 -0.16,0.96668 -0.16,1.5 0,1.21334 0.3,2.15334 0.9,2.82 0.6,0.65334 1.4,0.98 2.4,0.98 0.50666,0 0.92666,-0.02 1.26,-0.06 0.34666,-0.0533 0.61333,-0.10666 0.8,-0.16 l 0,-6.58 m 0,-7 1.86,-0.32 0,15.22 c -0.42667,0.12 -0.97334,0.24 -1.64,0.36 -0.66667,0.12 -1.43334,0.18 -2.3,0.18 -0.8,0 -1.52,-0.12666 -2.16,-0.38 -0.64,-0.25333 -1.18667,-0.61333 -1.64,-1.08 -0.45333,-0.46666 -0.80666,-1.03333 -1.06,-1.7 -0.24,-0.67999 -0.36,-1.43999 -0.36,-2.28 0,-0.79999 0.1,-1.53332 0.3,-2.2 0.21334,-0.66666 0.52,-1.23999 0.92,-1.72 0.4,-0.47999 0.88667,-0.85332 1.46,-1.12 0.58667,-0.26665 1.25333,-0.39999 2,-0.4 0.6,10e-6 1.12666,0.08 1.58,0.24 0.46666,0.16001 0.81333,0.31335 1.04,0.46 l 0,-5.26"
         inkscape:connector-curvature="0" />
      <path
         id="path5289"
         d="m 269.60047,467.0635 c 0.43999,0 0.82666,-0.007 1.16,-0.02 0.34666,-0.0267 0.63333,-0.0667 0.86,-0.12 l 0,-3.1 c -0.13334,-0.0667 -0.35334,-0.11999 -0.66,-0.16 -0.29334,-0.0533 -0.65334,-0.08 -1.08,-0.08 -0.28001,10e-6 -0.58001,0.02 -0.9,0.06 -0.30667,0.04 -0.59334,0.12667 -0.86,0.26 -0.25334,0.12001 -0.46667,0.29334 -0.64,0.52 -0.17334,0.21334 -0.26,0.50001 -0.26,0.86 0,0.66667 0.21333,1.13334 0.64,1.4 0.42666,0.25334 1.00666,0.38 1.74,0.38 m -0.16,-9.32 c 0.74666,1e-5 1.37333,0.10001 1.88,0.3 0.51999,0.18668 0.93332,0.46001 1.24,0.82 0.31999,0.34668 0.54666,0.76668 0.68,1.26 0.13332,0.48001 0.19999,1.01334 0.2,1.6 l 0,6.5 c -0.16001,0.0267 -0.38668,0.0667 -0.68,0.12 -0.28001,0.04 -0.60001,0.08 -0.96,0.12 -0.36001,0.04 -0.75334,0.0733 -1.18,0.1 -0.41334,0.04 -0.82667,0.06 -1.24,0.06 -0.58667,0 -1.12667,-0.06 -1.62,-0.18 -0.49334,-0.12 -0.92,-0.30666 -1.28,-0.56 -0.36,-0.26666 -0.64,-0.61333 -0.84,-1.04 -0.2,-0.42666 -0.3,-0.93999 -0.3,-1.54 0,-0.57333 0.11333,-1.06666 0.34,-1.48 0.24,-0.41333 0.56,-0.74666 0.96,-1 0.4,-0.25332 0.86666,-0.43999 1.4,-0.56 0.53333,-0.11999 1.09333,-0.17999 1.68,-0.18 0.18666,10e-6 0.37999,0.0133 0.58,0.04 0.19999,0.0133 0.38666,0.04 0.56,0.08 0.18666,0.0267 0.34666,0.0533 0.48,0.08 0.13333,0.0267 0.22666,0.0467 0.28,0.06 l 0,-0.52 c -1e-5,-0.30666 -0.0333,-0.60666 -0.1,-0.9 -0.0667,-0.30666 -0.18667,-0.57332 -0.36,-0.8 -0.17334,-0.23999 -0.41334,-0.42665 -0.72,-0.56 -0.29334,-0.14665 -0.68001,-0.21999 -1.16,-0.22 -0.61334,10e-6 -1.15334,0.0467 -1.62,0.14 -0.45334,0.08 -0.79334,0.16668 -1.02,0.26 l -0.22,-1.54 c 0.24,-0.10665 0.64,-0.20665 1.2,-0.3 0.56,-0.10665 1.16666,-0.15999 1.82,-0.16"
         inkscape:connector-curvature="0" />
      <path
         id="path5291"
         d="m 283.23016,460.2035 c -0.22668,-0.18666 -0.55334,-0.36666 -0.98,-0.54 -0.42668,-0.17332 -0.89334,-0.25999 -1.4,-0.26 -0.53334,10e-6 -0.99334,0.10001 -1.38,0.3 -0.37334,0.18668 -0.68001,0.45334 -0.92,0.8 -0.24001,0.33334 -0.41334,0.73334 -0.52,1.2 -0.10667,0.46668 -0.16001,0.96668 -0.16,1.5 -10e-6,1.21334 0.29999,2.15334 0.9,2.82 0.59999,0.65334 1.39999,0.98 2.4,0.98 0.50666,0 0.92666,-0.02 1.26,-0.06 0.34666,-0.0533 0.61332,-0.10666 0.8,-0.16 l 0,-6.58 m 0,-7 1.86,-0.32 0,15.22 c -0.42668,0.12 -0.97335,0.24 -1.64,0.36 -0.66668,0.12 -1.43334,0.18 -2.3,0.18 -0.80001,0 -1.52001,-0.12666 -2.16,-0.38 -0.64001,-0.25333 -1.18667,-0.61333 -1.64,-1.08 -0.45334,-0.46666 -0.80667,-1.03333 -1.06,-1.7 -0.24,-0.67999 -0.36,-1.43999 -0.36,-2.28 0,-0.79999 0.1,-1.53332 0.3,-2.2 0.21333,-0.66666 0.51999,-1.23999 0.92,-1.72 0.39999,-0.47999 0.88666,-0.85332 1.46,-1.12 0.58666,-0.26665 1.25332,-0.39999 2,-0.4 0.59999,10e-6 1.12666,0.08 1.58,0.24 0.46666,0.16001 0.81332,0.31335 1.04,0.46 l 0,-5.26"
         inkscape:connector-curvature="0" />
      <path
         id="path5293"
         d="m 299.63641,460.2035 c -0.22668,-0.18666 -0.55334,-0.36666 -0.98,-0.54 -0.42668,-0.17332 -0.89334,-0.25999 -1.4,-0.26 -0.53334,10e-6 -0.99334,0.10001 -1.38,0.3 -0.37334,0.18668 -0.68001,0.45334 -0.92,0.8 -0.24001,0.33334 -0.41334,0.73334 -0.52,1.2 -0.10667,0.46668 -0.16001,0.96668 -0.16,1.5 -10e-6,1.21334 0.29999,2.15334 0.9,2.82 0.59999,0.65334 1.39999,0.98 2.4,0.98 0.50666,0 0.92666,-0.02 1.26,-0.06 0.34666,-0.0533 0.61332,-0.10666 0.8,-0.16 l 0,-6.58 m 0,-7 1.86,-0.32 0,15.22 c -0.42668,0.12 -0.97335,0.24 -1.64,0.36 -0.66668,0.12 -1.43334,0.18 -2.3,0.18 -0.80001,0 -1.52001,-0.12666 -2.16,-0.38 -0.64001,-0.25333 -1.18667,-0.61333 -1.64,-1.08 -0.45334,-0.46666 -0.80667,-1.03333 -1.06,-1.7 -0.24,-0.67999 -0.36,-1.43999 -0.36,-2.28 0,-0.79999 0.1,-1.53332 0.3,-2.2 0.21333,-0.66666 0.51999,-1.23999 0.92,-1.72 0.39999,-0.47999 0.88666,-0.85332 1.46,-1.12 0.58666,-0.26665 1.25332,-0.39999 2,-0.4 0.59999,10e-6 1.12666,0.08 1.58,0.24 0.46666,0.16001 0.81332,0.31335 1.04,0.46 l 0,-5.26"
         inkscape:connector-curvature="0" />
      <path
         id="path5295"
         d="m 304.13328,463.2235 c 0,-0.91999 0.13333,-1.71999 0.4,-2.4 0.26667,-0.69332 0.62,-1.26665 1.06,-1.72 0.44,-0.45332 0.94666,-0.79332 1.52,-1.02 0.57333,-0.22665 1.16,-0.33999 1.76,-0.34 1.39999,1e-5 2.47333,0.44001 3.22,1.32 0.74666,0.86668 1.11999,2.19334 1.12,3.98 -10e-6,0.08 -10e-6,0.18667 0,0.32 -10e-6,0.12001 -0.007,0.23334 -0.02,0.34 l -7.12,0 c 0.08,1.08001 0.39333,1.90001 0.94,2.46 0.54666,0.56 1.4,0.84 2.56,0.84 0.65333,0 1.19999,-0.0533 1.64,-0.16 0.45333,-0.12 0.79333,-0.23333 1.02,-0.34 l 0.26,1.56 c -0.22667,0.12 -0.62667,0.24667 -1.2,0.38 -0.56001,0.13334 -1.20001,0.2 -1.92,0.2 -0.90667,0 -1.69334,-0.13333 -2.36,-0.4 -0.65334,-0.28 -1.19333,-0.66 -1.62,-1.14 -0.42667,-0.48 -0.74667,-1.04666 -0.96,-1.7 -0.2,-0.66666 -0.3,-1.39333 -0.3,-2.18 m 7.14,-1.02 c 0.0133,-0.83999 -0.20001,-1.52666 -0.64,-2.06 -0.42667,-0.54665 -1.02001,-0.81999 -1.78,-0.82 -0.42667,10e-6 -0.80667,0.0867 -1.14,0.26 -0.32,0.16001 -0.59334,0.37334 -0.82,0.64 -0.22667,0.26668 -0.40667,0.57334 -0.54,0.92 -0.12,0.34668 -0.2,0.70001 -0.24,1.06 l 5.16,0"
         inkscape:connector-curvature="0" />
      <path
         id="path5297"
         d="m 328.95453,466.7235 0,1.68 -8.34,0 0,-13.86 1.94,0 0,12.18 6.4,0"
         inkscape:connector-curvature="0" />
      <path
         id="path5299"
         d="m 332.74516,468.4035 -1.86,0 0,-10.4 1.86,0 0,10.4 m -0.94,-12.28 c -0.33334,2e-5 -0.62001,-0.10665 -0.86,-0.32 -0.22667,-0.22665 -0.34001,-0.52665 -0.34,-0.9 -1e-5,-0.37332 0.11333,-0.66665 0.34,-0.88 0.23999,-0.22665 0.52666,-0.33998 0.86,-0.34 0.33333,2e-5 0.61333,0.11335 0.84,0.34 0.23999,0.21335 0.35999,0.50668 0.36,0.88 -10e-6,0.37335 -0.12001,0.67335 -0.36,0.9 -0.22667,0.21335 -0.50667,0.32002 -0.84,0.32"
         inkscape:connector-curvature="0" />
      <path
         id="path5301"
         d="m 342.68328,460.2035 c -0.22667,-0.18666 -0.55334,-0.36666 -0.98,-0.54 -0.42667,-0.17332 -0.89334,-0.25999 -1.4,-0.26 -0.53334,10e-6 -0.99334,0.10001 -1.38,0.3 -0.37334,0.18668 -0.68,0.45334 -0.92,0.8 -0.24,0.33334 -0.41334,0.73334 -0.52,1.2 -0.10667,0.46668 -0.16,0.96668 -0.16,1.5 0,1.21334 0.3,2.15334 0.9,2.82 0.6,0.65334 1.4,0.98 2.4,0.98 0.50666,0 0.92666,-0.02 1.26,-0.06 0.34666,-0.0533 0.61333,-0.10666 0.8,-0.16 l 0,-6.58 m 0,-7 1.86,-0.32 0,15.22 c -0.42668,0.12 -0.97334,0.24 -1.64,0.36 -0.66667,0.12 -1.43334,0.18 -2.3,0.18 -0.8,0 -1.52,-0.12666 -2.16,-0.38 -0.64,-0.25333 -1.18667,-0.61333 -1.64,-1.08 -0.45333,-0.46666 -0.80667,-1.03333 -1.06,-1.7 -0.24,-0.67999 -0.36,-1.43999 -0.36,-2.28 0,-0.79999 0.1,-1.53332 0.3,-2.2 0.21333,-0.66666 0.52,-1.23999 0.92,-1.72 0.4,-0.47999 0.88666,-0.85332 1.46,-1.12 0.58666,-0.26665 1.25333,-0.39999 2,-0.4 0.59999,10e-6 1.12666,0.08 1.58,0.24 0.46666,0.16001 0.81333,0.31335 1.04,0.46 l 0,-5.26"
         inkscape:connector-curvature="0" />
      <path
         id="path5303"
         d="m 347.18016,463.2235 c 0,-0.91999 0.13333,-1.71999 0.4,-2.4 0.26666,-0.69332 0.61999,-1.26665 1.06,-1.72 0.43999,-0.45332 0.94666,-0.79332 1.52,-1.02 0.57333,-0.22665 1.15999,-0.33999 1.76,-0.34 1.39999,1e-5 2.47332,0.44001 3.22,1.32 0.74665,0.86668 1.11999,2.19334 1.12,3.98 -10e-6,0.08 -10e-6,0.18667 0,0.32 -10e-6,0.12001 -0.007,0.23334 -0.02,0.34 l -7.12,0 c 0.08,1.08001 0.39333,1.90001 0.94,2.46 0.54666,0.56 1.39999,0.84 2.56,0.84 0.65332,0 1.19999,-0.0533 1.64,-0.16 0.45332,-0.12 0.79332,-0.23333 1.02,-0.34 l 0.26,1.56 c -0.22668,0.12 -0.62668,0.24667 -1.2,0.38 -0.56001,0.13334 -1.20001,0.2 -1.92,0.2 -0.90668,0 -1.69334,-0.13333 -2.36,-0.4 -0.65334,-0.28 -1.19334,-0.66 -1.62,-1.14 -0.42667,-0.48 -0.74667,-1.04666 -0.96,-1.7 -0.2,-0.66666 -0.3,-1.39333 -0.3,-2.18 m 7.14,-1.02 c 0.0133,-0.83999 -0.20001,-1.52666 -0.64,-2.06 -0.42668,-0.54665 -1.02001,-0.81999 -1.78,-0.82 -0.42668,10e-6 -0.80668,0.0867 -1.14,0.26 -0.32001,0.16001 -0.59334,0.37334 -0.82,0.64 -0.22667,0.26668 -0.40667,0.57334 -0.54,0.92 -0.12001,0.34668 -0.20001,0.70001 -0.24,1.06 l 5.16,0"
         inkscape:connector-curvature="0" />
      <path
         id="path5305"
         d="m 362.77203,457.7835 c 0.16,10e-6 0.34,0.0134 0.54,0.04 0.21333,0.0134 0.41999,0.04 0.62,0.08 0.19999,0.0267 0.37999,0.06 0.54,0.1 0.17333,0.0267 0.29999,0.0534 0.38,0.08 l -0.32,1.62 c -0.14667,-0.0533 -0.39334,-0.11332 -0.74,-0.18 -0.33334,-0.08 -0.76667,-0.11999 -1.3,-0.12 -0.34667,10e-6 -0.69334,0.04 -1.04,0.12 -0.33334,0.0667 -0.55334,0.11335 -0.66,0.14 l 0,8.74 -1.86,0 0,-9.96 c 0.44,-0.15999 0.98667,-0.30665 1.64,-0.44 0.65333,-0.14665 1.38666,-0.21999 2.2,-0.22"
         inkscape:connector-curvature="0" />
      <path
         id="path5307"
         d="m 370.18641,467.0635 c 0.43999,0 0.82666,-0.007 1.16,-0.02 0.34666,-0.0267 0.63332,-0.0667 0.86,-0.12 l 0,-3.1 c -0.13334,-0.0667 -0.35334,-0.11999 -0.66,-0.16 -0.29334,-0.0533 -0.65334,-0.08 -1.08,-0.08 -0.28001,10e-6 -0.58001,0.02 -0.9,0.06 -0.30667,0.04 -0.59334,0.12667 -0.86,0.26 -0.25334,0.12001 -0.46667,0.29334 -0.64,0.52 -0.17334,0.21334 -0.26001,0.50001 -0.26,0.86 -1e-5,0.66667 0.21333,1.13334 0.64,1.4 0.42666,0.25334 1.00666,0.38 1.74,0.38 m -0.16,-9.32 c 0.74666,1e-5 1.37332,0.10001 1.88,0.3 0.51999,0.18668 0.93332,0.46001 1.24,0.82 0.31999,0.34668 0.54665,0.76668 0.68,1.26 0.13332,0.48001 0.19999,1.01334 0.2,1.6 l 0,6.5 c -0.16001,0.0267 -0.38668,0.0667 -0.68,0.12 -0.28001,0.04 -0.60001,0.08 -0.96,0.12 -0.36001,0.04 -0.75334,0.0733 -1.18,0.1 -0.41334,0.04 -0.82668,0.06 -1.24,0.06 -0.58667,0 -1.12667,-0.06 -1.62,-0.18 -0.49334,-0.12 -0.92001,-0.30666 -1.28,-0.56 -0.36001,-0.26666 -0.64001,-0.61333 -0.84,-1.04 -0.2,-0.42666 -0.3,-0.93999 -0.3,-1.54 0,-0.57333 0.11333,-1.06666 0.34,-1.48 0.23999,-0.41333 0.55999,-0.74666 0.96,-1 0.39999,-0.25332 0.86666,-0.43999 1.4,-0.56 0.53333,-0.11999 1.09332,-0.17999 1.68,-0.18 0.18666,10e-6 0.37999,0.0133 0.58,0.04 0.19999,0.0133 0.38666,0.04 0.56,0.08 0.18666,0.0267 0.34666,0.0533 0.48,0.08 0.13332,0.0267 0.22666,0.0467 0.28,0.06 l 0,-0.52 c -1e-5,-0.30666 -0.0333,-0.60666 -0.1,-0.9 -0.0667,-0.30666 -0.18668,-0.57332 -0.36,-0.8 -0.17334,-0.23999 -0.41334,-0.42665 -0.72,-0.56 -0.29334,-0.14665 -0.68001,-0.21999 -1.16,-0.22 -0.61334,10e-6 -1.15334,0.0467 -1.62,0.14 -0.45334,0.08 -0.79334,0.16668 -1.02,0.26 l -0.22,-1.54 c 0.23999,-0.10665 0.63999,-0.20665 1.2,-0.3 0.55999,-0.10665 1.16666,-0.15999 1.82,-0.16"
         inkscape:connector-curvature="0" />
      <path
         id="path5309"
         d="m 383.99609,459.4035 c -0.28,0.30668 -0.65334,0.74001 -1.12,1.3 -0.45334,0.56001 -0.94667,1.18001 -1.48,1.86 -0.52,0.68001 -1.04667,1.39334 -1.58,2.14 -0.52,0.74667 -0.98,1.46001 -1.38,2.14 l 5.72,0 0,1.56 -7.94,0 0,-1.24 c 0.32,-0.58666 0.71334,-1.23333 1.18,-1.94 0.46667,-0.70666 0.95333,-1.40666 1.46,-2.1 0.52,-0.70666 1.02,-1.36666 1.5,-1.98 0.49333,-0.62666 0.92,-1.15332 1.28,-1.58 l -5.14,0 0,-1.56 7.5,0 0,1.4"
         inkscape:connector-curvature="0" />
      <path
         id="path5311"
         d="m 392.60047,467.3635 c -0.16001,0.10667 -0.47334,0.24667 -0.94,0.42 -0.45334,0.16 -0.98667,0.24 -1.6,0.24 -0.62667,0 -1.22001,-0.1 -1.78,-0.3 -0.54667,-0.2 -1.02667,-0.50666 -1.44,-0.92 -0.41334,-0.42666 -0.74,-0.95333 -0.98,-1.58 -0.24,-0.62666 -0.36,-1.37333 -0.36,-2.24 0,-0.75999 0.11333,-1.45332 0.34,-2.08 0.22666,-0.63999 0.55333,-1.18665 0.98,-1.64 0.44,-0.46665 0.97333,-0.82665 1.6,-1.08 0.62666,-0.26665 1.33333,-0.39999 2.12,-0.4 0.86666,10e-6 1.61999,0.0667 2.26,0.2 0.65332,0.12001 1.19999,0.23335 1.64,0.34 l 0,9.28 c -1e-5,1.6 -0.41334,2.76 -1.24,3.48 -0.82668,0.72 -2.08001,1.08 -3.76,1.08 -0.65334,0 -1.27334,-0.0533 -1.86,-0.16 -0.57334,-0.10667 -1.07334,-0.23333 -1.5,-0.38 l 0.34,-1.62 c 0.37333,0.14667 0.82666,0.27333 1.36,0.38 0.54666,0.12 1.11333,0.18 1.7,0.18 1.10666,0 1.89999,-0.22 2.38,-0.66 0.49332,-0.44 0.73999,-1.14 0.74,-2.1 l 0,-0.44 m -0.02,-7.72 c -0.18668,-0.0533 -0.44001,-0.1 -0.76,-0.14 -0.30667,-0.0533 -0.72667,-0.08 -1.26,-0.08 -1.00001,1e-5 -1.77334,0.32668 -2.32,0.98 -0.53334,0.65334 -0.8,1.52001 -0.8,2.6 0,0.60001 0.0733,1.11334 0.22,1.54 0.16,0.42667 0.36666,0.78001 0.62,1.06 0.26666,0.28001 0.56666,0.48667 0.9,0.62 0.34666,0.13334 0.69999,0.20001 1.06,0.2 0.49333,1e-5 0.94666,-0.0667 1.36,-0.2 0.41332,-0.14666 0.73999,-0.31333 0.98,-0.5 l 0,-6.08"
         inkscape:connector-curvature="0" />
      <path
         id="path5313"
         d="m 406.82297,463.2035 c -10e-6,0.82667 -0.12001,1.57334 -0.36,2.24 -0.24001,0.66667 -0.58001,1.24 -1.02,1.72 -0.42668,0.48 -0.94001,0.85334 -1.54,1.12 -0.60001,0.25334 -1.25334,0.38 -1.96,0.38 -0.70667,0 -1.36001,-0.12666 -1.96,-0.38 -0.6,-0.26666 -1.12,-0.64 -1.56,-1.12 -0.42667,-0.48 -0.76,-1.05333 -1,-1.72 -0.24,-0.66666 -0.36,-1.41333 -0.36,-2.24 0,-0.81332 0.12,-1.55332 0.36,-2.22 0.24,-0.67999 0.57333,-1.25999 1,-1.74 0.44,-0.47999 0.96,-0.84665 1.56,-1.1 0.59999,-0.26665 1.25333,-0.39999 1.96,-0.4 0.70666,1e-5 1.35999,0.13335 1.96,0.4 0.59999,0.25335 1.11332,0.62001 1.54,1.1 0.43999,0.48001 0.77999,1.06001 1.02,1.74 0.23999,0.66668 0.35999,1.40668 0.36,2.22 m -1.94,0 c -10e-6,-1.17332 -0.26668,-2.09999 -0.8,-2.78 -0.52001,-0.69332 -1.23334,-1.03999 -2.14,-1.04 -0.90667,10e-6 -1.62667,0.34668 -2.16,1.04 -0.52,0.68001 -0.78,1.60668 -0.78,2.78 0,1.17334 0.26,2.10667 0.78,2.8 0.53333,0.68 1.25333,1.02 2.16,1.02 0.90666,0 1.61999,-0.34 2.14,-1.02 0.53332,-0.69333 0.79999,-1.62666 0.8,-2.8"
         inkscape:connector-curvature="0" />
    </g>
    <path
       inkscape:connector-curvature="0"
       id="path3783"
       d="m 121.86583,486.19386 64.8405,0"
       style="fill:none;stroke:#000000;stroke-width:1px;stroke-linecap:butt;stroke-linejoin:miter;stroke-opacity:1;marker-start:url(#Arrow1Lstart)" />
    <path
       inkscape:connector-curvature="0"
       id="path3785"
       d="m 478.57725,486.19386 -67.01546,0"
       style="fill:none;stroke:#000000;stroke-width:1px;stroke-linecap:butt;stroke-linejoin:miter;stroke-opacity:1;marker-start:url(#Arrow1Lstart)" />
    <g
       id="flowRoot4413"
       style="font-size:20px;font-style:normal;font-variant:normal;font-weight:normal;font-stretch:normal;line-height:125%;letter-spacing:0px;word-spacing:0px;fill:#000000;fill-opacity:1;stroke:none;font-family:Ubuntu;-inkscape-font-specification:Ubuntu"
       transform="translate(24.031171,2.2440665)">
      <path
         id="path5376"
         d="m 44.70125,465.236 c -3e-6,1.70667 0.246663,3.28667 0.74,4.74 0.493329,1.45334 1.219995,2.8 2.18,4.04 l -1.32,0.9 c -1.040004,-1.26667 -1.880003,-2.72 -2.52,-4.36 -0.626669,-1.65333 -0.940002,-3.42666 -0.94,-5.32 -2e-6,-1.89332 0.313331,-3.65999 0.94,-5.3 0.639997,-1.65332 1.479996,-3.11332 2.52,-4.38 l 1.32,0.9 c -0.960005,1.24002 -1.686671,2.58668 -2.18,4.04 -0.493337,1.45335 -0.740003,3.03334 -0.74,4.74"
         inkscape:connector-curvature="0" />
      <path
         id="path5378"
         d="m 53.225625,471.336 c -0.280005,0 -0.586672,-0.007 -0.92,-0.02 -0.320004,-0.0133 -0.646671,-0.0333 -0.98,-0.06 -0.320003,-0.0267 -0.640003,-0.06 -0.96,-0.1 -0.320002,-0.04 -0.613335,-0.0933 -0.88,-0.16 l 0,-13.44 c 0.266665,-0.0666 0.559998,-0.11998 0.88,-0.16 0.319997,-0.04 0.639997,-0.0733 0.96,-0.1 0.333329,-0.0267 0.659996,-0.0466 0.98,-0.06 0.319995,-0.0133 0.619995,-0.02 0.9,-0.02 0.799994,2e-5 1.54666,0.06 2.24,0.18 0.706658,0.12002 1.313324,0.32668 1.82,0.62 0.51999,0.28002 0.926656,0.65335 1.22,1.12 0.293322,0.46668 0.439989,1.04001 0.44,1.72 -1.1e-5,0.76001 -0.180011,1.38668 -0.54,1.88 -0.36001,0.48001 -0.84001,0.84001 -1.44,1.08 0.813323,0.24001 1.459989,0.62001 1.94,1.14 0.479988,0.52001 0.719988,1.25334 0.72,2.2 -1.2e-5,1.38667 -0.513345,2.43334 -1.54,3.14 -1.013343,0.69334 -2.626674,1.04 -4.84,1.04 m -1.82,-6.58 0,4.88 c 0.146663,0.0133 0.319996,0.0267 0.52,0.04 0.173329,0.0133 0.373329,0.0267 0.6,0.04 0.239995,0 0.513328,0 0.82,0 0.573327,0 1.113327,-0.0333 1.62,-0.1 0.519992,-0.08 0.973325,-0.21333 1.36,-0.4 0.386658,-0.18666 0.693324,-0.44666 0.92,-0.78 0.23999,-0.33333 0.35999,-0.75333 0.36,-1.26 -1e-5,-0.45333 -0.08668,-0.83333 -0.26,-1.14 -0.173343,-0.31999 -0.426676,-0.57332 -0.76,-0.76 -0.320009,-0.18666 -0.706675,-0.31999 -1.16,-0.4 -0.453341,-0.08 -0.960007,-0.11999 -1.52,-0.12 l -2.5,0 m 0,-1.56 2.04,0 c 0.479994,10e-6 0.933327,-0.0333 1.36,-0.1 0.426659,-0.0667 0.793325,-0.18666 1.1,-0.36 0.319992,-0.17332 0.566658,-0.39999 0.74,-0.68 0.186658,-0.27999 0.279991,-0.63332 0.28,-1.06 -9e-6,-0.39999 -0.09334,-0.73332 -0.28,-1 -0.186675,-0.27999 -0.446675,-0.49999 -0.78,-0.66 -0.320008,-0.17332 -0.700007,-0.29998 -1.14,-0.38 -0.440007,-0.08 -0.906673,-0.11998 -1.4,-0.12 -0.493338,2e-5 -0.880005,0.007 -1.16,0.02 -0.280004,0.0134 -0.533337,0.0333 -0.76,0.06 l 0,4.28"
         inkscape:connector-curvature="0" />
      <path
         id="path5380"
         d="m 65.737188,469.876 c 0.439994,0 0.82666,-0.007 1.159999,-0.02 0.346661,-0.0267 0.633327,-0.0667 0.86,-0.12 l 0,-3.1 c -0.13334,-0.0667 -0.35334,-0.11999 -0.659999,-0.16 -0.29334,-0.0533 -0.65334,-0.08 -1.08,-0.08 -0.280006,10e-6 -0.580005,0.02 -0.900001,0.06 -0.30667,0.04 -0.593337,0.12667 -0.86,0.26 -0.253336,0.12001 -0.466669,0.29334 -0.64,0.52 -0.173336,0.21334 -0.260002,0.50001 -0.259999,0.86 -3e-6,0.66667 0.21333,1.13334 0.64,1.4 0.426662,0.25334 1.006662,0.38 1.74,0.38 m -0.160001,-9.32 c 0.746661,1e-5 1.373327,0.10001 1.880001,0.3 0.519992,0.18668 0.933325,0.46001 1.239999,0.82 0.319992,0.34668 0.546659,0.76668 0.680001,1.26 0.133324,0.48001 0.199991,1.01334 0.2,1.6 l 0,6.5 c -0.160009,0.0267 -0.386676,0.0667 -0.680001,0.12 -0.280007,0.04 -0.600007,0.08 -0.96,0.12 -0.360006,0.04 -0.753339,0.0733 -1.18,0.1 -0.413339,0.04 -0.826671,0.06 -1.239999,0.06 -0.586671,0 -1.126671,-0.06 -1.620001,-0.18 -0.493336,-0.12 -0.920002,-0.30666 -1.28,-0.56 -0.360001,-0.26666 -0.640001,-0.61333 -0.84,-1.04 -0.2,-0.42666 -0.3,-0.93999 -0.3,-1.54 0,-0.57333 0.113333,-1.06666 0.340001,-1.48 0.239998,-0.41333 0.559998,-0.74666 0.959999,-1 0.399998,-0.25332 0.866664,-0.43999 1.400001,-0.56 0.533329,-0.11999 1.093328,-0.17999 1.679999,-0.18 0.186662,10e-6 0.379995,0.0133 0.58,0.04 0.199994,0.0133 0.386661,0.04 0.56,0.08 0.186661,0.0267 0.34666,0.0533 0.48,0.08 0.133327,0.0267 0.22666,0.0467 0.28,0.06 l 0,-0.52 c -7e-6,-0.30666 -0.03334,-0.60666 -0.1,-0.9 -0.06667,-0.30666 -0.186673,-0.57332 -0.359999,-0.8 -0.17334,-0.23999 -0.41334,-0.42665 -0.720001,-0.56 -0.293338,-0.14665 -0.680005,-0.21999 -1.16,-0.22 -0.613337,10e-6 -1.153336,0.0467 -1.62,0.14 -0.453336,0.08 -0.793335,0.16668 -1.02,0.26 l -0.22,-1.54 c 0.239998,-0.10665 0.639998,-0.20665 1.2,-0.3 0.559997,-0.10665 1.166663,-0.15999 1.82,-0.16"
         inkscape:connector-curvature="0" />
      <path
         id="path5382"
         d="m 70.946875,474.956 c -0.16,0 -0.366666,-0.02 -0.62,-0.06 -0.253332,-0.04 -0.466665,-0.0933 -0.64,-0.16 l 0.24,-1.52 c 0.133334,0.04 0.286668,0.0733 0.46,0.1 0.173334,0.0267 0.333334,0.04 0.48,0.04 0.64,0 1.093332,-0.2 1.36,-0.6 0.279999,-0.38666 0.419998,-0.96 0.42,-1.72 l 0,-10.22 1.86,0 0,10.2 c -3e-6,1.33334 -0.30667,2.32 -0.92,2.96 -0.600002,0.65333 -1.480001,0.98 -2.64,0.98 m 2.62,-16.02 c -0.333336,2e-5 -0.620002,-0.10665 -0.86,-0.32 -0.226668,-0.22665 -0.340001,-0.52665 -0.34,-0.9 -10e-7,-0.37332 0.113332,-0.66665 0.34,-0.88 0.239998,-0.22665 0.526664,-0.33998 0.86,-0.34 0.33333,2e-5 0.61333,0.11335 0.84,0.34 0.239996,0.21335 0.359996,0.50668 0.36,0.88 -4e-6,0.37335 -0.120004,0.67335 -0.36,0.9 -0.22667,0.21335 -0.50667,0.32002 -0.84,0.32"
         inkscape:connector-curvature="0" />
      <path
         id="path5384"
         d="m 86.905,466.016 c -1.1e-5,0.82667 -0.120011,1.57334 -0.36,2.24 -0.24001,0.66667 -0.58001,1.24 -1.02,1.72 -0.426676,0.48 -0.940008,0.85334 -1.54,1.12 -0.600007,0.25334 -1.25334,0.38 -1.96,0.38 -0.706672,0 -1.360005,-0.12666 -1.96,-0.38 -0.600003,-0.26666 -1.120003,-0.64 -1.56,-1.12 -0.426669,-0.48 -0.760002,-1.05333 -1,-1.72 -0.240001,-0.66666 -0.360001,-1.41333 -0.36,-2.24 -10e-7,-0.81332 0.119999,-1.55332 0.36,-2.22 0.239998,-0.67999 0.573331,-1.25999 1,-1.74 0.439997,-0.47999 0.959997,-0.84665 1.56,-1.1 0.599995,-0.26665 1.253328,-0.39999 1.96,-0.4 0.70666,1e-5 1.359993,0.13335 1.96,0.4 0.599992,0.25335 1.113324,0.62001 1.54,1.1 0.43999,0.48001 0.77999,1.06001 1.02,1.74 0.239989,0.66668 0.359989,1.40668 0.36,2.22 m -1.94,0 c -9e-6,-1.17332 -0.266675,-2.09999 -0.8,-2.78 -0.520008,-0.69332 -1.23334,-1.03999 -2.14,-1.04 -0.906672,10e-6 -1.626671,0.34668 -2.16,1.04 -0.520003,0.68001 -0.780003,1.60668 -0.78,2.78 -3e-6,1.17334 0.259997,2.10667 0.78,2.8 0.533329,0.68 1.253328,1.02 2.16,1.02 0.90666,0 1.619992,-0.34 2.14,-1.02 0.533325,-0.69333 0.799991,-1.62666 0.8,-2.8"
         inkscape:connector-curvature="0" />
      <path
         id="path5386"
         d="m 90.435,465.236 c -3e-6,-1.70666 -0.246669,-3.28665 -0.74,-4.74 -0.493335,-1.45332 -1.220001,-2.79998 -2.18,-4.04 l 1.32,-0.9 c 1.039998,1.26668 1.87333,2.72668 2.5,4.38 0.639995,1.64001 0.959995,3.40668 0.96,5.3 -5e-6,1.89334 -0.320005,3.66667 -0.96,5.32 -0.62667,1.64 -1.460002,3.09333 -2.5,4.36 l -1.32,-0.9 c 0.959999,-1.24 1.686665,-2.58666 2.18,-4.04 0.493331,-1.45333 0.739997,-3.03333 0.74,-4.74"
         inkscape:connector-curvature="0" />
    </g>
    <g
       id="flowRoot4421"
       style="font-size:20px;font-style:normal;font-variant:normal;font-weight:normal;font-stretch:normal;line-height:125%;letter-spacing:0px;word-spacing:0px;fill:#000000;fill-opacity:1;stroke:none;font-family:Ubuntu;-inkscape-font-specification:Ubuntu"
       transform="translate(8.749921,0)">
      <path
         id="path5438"
         d="m 59.9825,75.236003 c -3e-6,1.706671 0.246663,3.286669 0.74,4.74 0.493329,1.453333 1.219995,2.799998 2.18,4.04 l -1.32,0.9 c -1.040004,-1.266669 -1.880003,-2.720001 -2.52,-4.36 -0.626669,-1.653331 -0.940002,-3.426663 -0.94,-5.32 -2e-6,-1.893325 0.313331,-3.65999 0.94,-5.3 0.639997,-1.65332 1.479996,-3.113319 2.52,-4.38 l 1.32,0.9 c -0.960005,1.240014 -1.686671,2.586679 -2.18,4.04 -0.493337,1.453343 -0.740003,3.033341 -0.74,4.74"
         inkscape:connector-curvature="0" />
      <path
         id="path5440"
         d="m 74.026875,81.216003 c -0.226677,-0.599999 -0.440011,-1.186665 -0.64,-1.76 -0.20001,-0.586664 -0.406677,-1.179997 -0.62,-1.78 l -6.28,0 -1.26,3.54 -2.02,0 c 0.533333,-1.466665 1.033332,-2.819997 1.5,-4.06 0.466665,-1.253328 0.919997,-2.439993 1.36,-3.56 0.45333,-1.119991 0.899996,-2.186657 1.34,-3.2 0.439995,-1.026655 0.899995,-2.039987 1.38,-3.04 l 1.78,0 c 0.479992,1.000013 0.939992,2.013345 1.38,3.04 0.439991,1.013343 0.87999,2.080009 1.32,3.2 0.453323,1.120007 0.913322,2.306672 1.38,3.56 0.466655,1.240003 0.966654,2.593335 1.5,4.06 l -2.12,0 m -1.82,-5.14 c -0.426675,-1.159994 -0.853342,-2.279993 -1.28,-3.36 -0.413341,-1.093324 -0.846674,-2.139989 -1.3,-3.14 -0.466673,1.000011 -0.913339,2.046676 -1.34,3.14 -0.413338,1.080007 -0.826671,2.200006 -1.24,3.36 l 5.16,0"
         inkscape:connector-curvature="0" />
      <path
         id="path5442"
         d="m 81.009062,81.416003 c -1.14667,-0.02667 -1.960002,-0.273333 -2.44,-0.74 -0.480001,-0.466666 -0.720001,-1.193332 -0.719999,-2.18 l 0,-12.48 1.86,-0.32 0,12.5 c -4e-6,0.306669 0.02666,0.560003 0.08,0.76 0.05333,0.200002 0.139997,0.360002 0.260001,0.48 0.119996,0.120002 0.279995,0.213335 0.479999,0.28 0.199996,0.05334 0.446662,0.100001 0.740001,0.14 l -0.260001,1.56"
         inkscape:connector-curvature="0" />
      <path
         id="path5444"
         d="m 85.097813,70.816003 3.939999,0 0,1.56 -3.939999,0 0,4.8 c -4e-6,0.520004 0.04,0.953336 0.119999,1.3 0.08,0.333336 0.199997,0.600002 0.36,0.8 0.159997,0.186668 0.359996,0.320002 0.600001,0.4 0.239995,0.08 0.519995,0.120001 0.84,0.12 0.559994,10e-7 1.00666,-0.06 1.339999,-0.18 0.34666,-0.133332 0.58666,-0.226665 0.72,-0.28 l 0.360001,1.54 c -0.186675,0.09333 -0.513341,0.206667 -0.98,0.34 -0.466673,0.146667 -1.000006,0.22 -1.600001,0.22 -0.706671,0 -1.293337,-0.08667 -1.759999,-0.26 -0.453337,-0.186666 -0.820003,-0.459999 -1.100001,-0.82 -0.280001,-0.359999 -0.480001,-0.799998 -0.6,-1.32 -0.106668,-0.533331 -0.160001,-1.146663 -0.159999,-1.84 l 0,-9.28 1.86,-0.32 0,3.22"
         inkscape:connector-curvature="0" />
      <path
         id="path5446"
         d="m 100.31125,76.016003 c -1e-5,0.826671 -0.12001,1.573337 -0.36,2.24 -0.24001,0.666669 -0.58001,1.240002 -1.02,1.72 -0.426676,0.480001 -0.940008,0.853334 -1.54,1.12 -0.600007,0.253333 -1.25334,0.38 -1.96,0.38 -0.706672,0 -1.360005,-0.126667 -1.96,-0.38 -0.600003,-0.266666 -1.120003,-0.639999 -1.56,-1.12 -0.426669,-0.479998 -0.760002,-1.053331 -1,-1.72 -0.240001,-0.666663 -0.360001,-1.413329 -0.36,-2.24 -10e-7,-0.813327 0.119999,-1.553327 0.36,-2.22 0.239998,-0.679992 0.573331,-1.259991 1,-1.74 0.439997,-0.47999 0.959997,-0.846657 1.56,-1.1 0.599995,-0.266656 1.253328,-0.399989 1.96,-0.4 0.70666,1.1e-5 1.359993,0.133344 1.96,0.4 0.599992,0.253343 1.113324,0.62001 1.54,1.1 0.43999,0.480009 0.77999,1.060008 1.02,1.74 0.23999,0.666673 0.35999,1.406673 0.36,2.22 m -1.94,0 c -9e-6,-1.173327 -0.266675,-2.099993 -0.8,-2.78 -0.520008,-0.693325 -1.23334,-1.039991 -2.14,-1.04 -0.906672,9e-6 -1.626671,0.346675 -2.16,1.04 -0.520003,0.680007 -0.780003,1.606673 -0.78,2.78 -3e-6,1.173337 0.259997,2.10667 0.78,2.8 0.533329,0.680002 1.253328,1.020001 2.16,1.02 0.90666,10e-7 1.619992,-0.339998 2.14,-1.02 0.533325,-0.69333 0.799991,-1.626663 0.8,-2.8"
         inkscape:connector-curvature="0" />
      <path
         id="path5448"
         d="m 103.84125,75.236003 c 0,-1.706659 -0.24667,-3.286657 -0.74,-4.74 -0.49334,-1.453321 -1.22,-2.799986 -2.18,-4.04 l 1.32,-0.9 c 1.04,1.266681 1.87333,2.72668 2.5,4.38 0.64,1.64001 0.96,3.406675 0.96,5.3 0,1.893337 -0.32,3.666669 -0.96,5.32 -0.62667,1.639999 -1.46,3.093331 -2.5,4.36 l -1.32,-0.9 c 0.96,-1.240002 1.68666,-2.586667 2.18,-4.04 0.49333,-1.453331 0.74,-3.033329 0.74,-4.74"
         inkscape:connector-curvature="0" />
    </g>
    <g
       id="flowRoot4429"
       style="font-size:20px;font-style:normal;font-variant:normal;font-weight:normal;font-stretch:normal;line-height:125%;letter-spacing:0px;word-spacing:0px;fill:#000000;fill-opacity:1;stroke:none;font-family:Ubuntu;-inkscape-font-specification:Ubuntu"
       transform="translate(426.01475,392.24407)">
      <path
         id="path5260"
         d="m 59.9825,75.236003 c -3e-6,1.706671 0.246663,3.286669 0.74,4.74 0.493329,1.453333 1.219995,2.799998 2.18,4.04 l -1.32,0.9 c -1.040004,-1.266669 -1.880003,-2.720001 -2.52,-4.36 -0.626669,-1.653331 -0.940002,-3.426663 -0.94,-5.32 -2e-6,-1.893325 0.313331,-3.65999 0.94,-5.3 0.639997,-1.65332 1.479996,-3.113319 2.52,-4.38 l 1.32,0.9 c -0.960005,1.240014 -1.686671,2.586679 -2.18,4.04 -0.493337,1.453343 -0.740003,3.033341 -0.74,4.74"
         inkscape:connector-curvature="0" />
      <path
         id="path5262"
         d="m 74.026875,81.216003 c -0.226677,-0.599999 -0.440011,-1.186665 -0.64,-1.76 -0.20001,-0.586664 -0.406677,-1.179997 -0.62,-1.78 l -6.28,0 -1.26,3.54 -2.02,0 c 0.533333,-1.466665 1.033332,-2.819997 1.5,-4.06 0.466665,-1.253328 0.919997,-2.439993 1.36,-3.56 0.45333,-1.119991 0.899996,-2.186657 1.34,-3.2 0.439995,-1.026655 0.899995,-2.039987 1.38,-3.04 l 1.78,0 c 0.479992,1.000013 0.939992,2.013345 1.38,3.04 0.439991,1.013343 0.87999,2.080009 1.32,3.2 0.453323,1.120007 0.913322,2.306672 1.38,3.56 0.466655,1.240003 0.966654,2.593335 1.5,4.06 l -2.12,0 m -1.82,-5.14 c -0.426675,-1.159994 -0.853342,-2.279993 -1.28,-3.36 -0.413341,-1.093324 -0.846674,-2.139989 -1.3,-3.14 -0.466673,1.000011 -0.913339,2.046676 -1.34,3.14 -0.413338,1.080007 -0.826671,2.200006 -1.24,3.36 l 5.16,0"
         inkscape:connector-curvature="0" />
      <path
         id="path5264"
         d="m 81.009062,81.416003 c -1.14667,-0.02667 -1.960002,-0.273333 -2.44,-0.74 -0.480001,-0.466666 -0.720001,-1.193332 -0.719999,-2.18 l 0,-12.48 1.86,-0.32 0,12.5 c -4e-6,0.306669 0.02666,0.560003 0.08,0.76 0.05333,0.200002 0.139997,0.360002 0.260001,0.48 0.119996,0.120002 0.279995,0.213335 0.479999,0.28 0.199996,0.05334 0.446662,0.100001 0.740001,0.14 l -0.260001,1.56"
         inkscape:connector-curvature="0" />
      <path
         id="path5266"
         d="m 85.097813,70.816003 3.939999,0 0,1.56 -3.939999,0 0,4.8 c -4e-6,0.520004 0.04,0.953336 0.119999,1.3 0.08,0.333336 0.199997,0.600002 0.36,0.8 0.159997,0.186668 0.359996,0.320002 0.600001,0.4 0.239995,0.08 0.519995,0.120001 0.84,0.12 0.559994,10e-7 1.00666,-0.06 1.339999,-0.18 0.34666,-0.133332 0.58666,-0.226665 0.72,-0.28 l 0.360001,1.54 c -0.186675,0.09333 -0.513341,0.206667 -0.98,0.34 -0.466673,0.146667 -1.000006,0.22 -1.600001,0.22 -0.706671,0 -1.293337,-0.08667 -1.759999,-0.26 -0.453337,-0.186666 -0.820003,-0.459999 -1.100001,-0.82 -0.280001,-0.359999 -0.480001,-0.799998 -0.6,-1.32 -0.106668,-0.533331 -0.160001,-1.146663 -0.159999,-1.84 l 0,-9.28 1.86,-0.32 0,3.22"
         inkscape:connector-curvature="0" />
      <path
         id="path5268"
         d="m 100.31125,76.016003 c -1e-5,0.826671 -0.12001,1.573337 -0.36,2.24 -0.24001,0.666669 -0.58001,1.240002 -1.02,1.72 -0.426676,0.480001 -0.940008,0.853334 -1.54,1.12 -0.600007,0.253333 -1.25334,0.38 -1.96,0.38 -0.706672,0 -1.360005,-0.126667 -1.96,-0.38 -0.600003,-0.266666 -1.120003,-0.639999 -1.56,-1.12 -0.426669,-0.479998 -0.760002,-1.053331 -1,-1.72 -0.240001,-0.666663 -0.360001,-1.413329 -0.36,-2.24 -10e-7,-0.813327 0.119999,-1.553327 0.36,-2.22 0.239998,-0.679992 0.573331,-1.259991 1,-1.74 0.439997,-0.47999 0.959997,-0.846657 1.56,-1.1 0.599995,-0.266656 1.253328,-0.399989 1.96,-0.4 0.70666,1.1e-5 1.359993,0.133344 1.96,0.4 0.599992,0.253343 1.113324,0.62001 1.54,1.1 0.43999,0.480009 0.77999,1.060008 1.02,1.74 0.23999,0.666673 0.35999,1.406673 0.36,2.22 m -1.94,0 c -9e-6,-1.173327 -0.266675,-2.099993 -0.8,-2.78 -0.520008,-0.693325 -1.23334,-1.039991 -2.14,-1.04 -0.906672,9e-6 -1.626671,0.346675 -2.16,1.04 -0.520003,0.680007 -0.780003,1.606673 -0.78,2.78 -3e-6,1.173337 0.259997,2.10667 0.78,2.8 0.533329,0.680002 1.253328,1.020001 2.16,1.02 0.90666,10e-7 1.619992,-0.339998 2.14,-1.02 0.533325,-0.69333 0.799991,-1.626663 0.8,-2.8"
         inkscape:connector-curvature="0" />
      <path
         id="path5270"
         d="m 103.84125,75.236003 c 0,-1.706659 -0.24667,-3.286657 -0.74,-4.74 -0.49334,-1.453321 -1.22,-2.799986 -2.18,-4.04 l 1.32,-0.9 c 1.04,1.266681 1.87333,2.72668 2.5,4.38 0.64,1.64001 0.96,3.406675 0.96,5.3 0,1.893337 -0.32,3.666669 -0.96,5.32 -0.62667,1.639999 -1.46,3.093331 -2.5,4.36 l -1.32,-0.9 c 0.96,-1.240002 1.68666,-2.586667 2.18,-4.04 0.49333,-1.453331 0.74,-3.033329 0.74,-4.74"
         inkscape:connector-curvature="0" />
    </g>
    <g
       id="flowRoot4437"
       style="font-size:20px;font-style:normal;font-variant:normal;font-weight:normal;font-stretch:normal;text-align:center;line-height:125%;letter-spacing:0px;word-spacing:0px;text-anchor:middle;fill:#000000;fill-opacity:1;stroke:none;font-family:Ubuntu;-inkscape-font-specification:Ubuntu"
       transform="matrix(0,-1,1,0,-378.27641,569.5663)">
      <path
         id="path5389"
         d="m 174.24734,454.5435 1.94,0 0,13.86 -1.94,0 0,-13.86"
         inkscape:connector-curvature="0" />
      <path
         id="path5391"
         d="m 179.51797,458.3035 c 0.42666,-0.10665 0.99333,-0.21999 1.7,-0.34 0.70666,-0.11999 1.51999,-0.17999 2.44,-0.18 0.82666,10e-6 1.51332,0.12001 2.06,0.36 0.54666,0.22668 0.97999,0.55335 1.3,0.98 0.33332,0.41335 0.56666,0.91334 0.7,1.5 0.13332,0.58668 0.19999,1.23334 0.2,1.94 l 0,5.84 -1.86,0 0,-5.44 c -1e-5,-0.63999 -0.0467,-1.18666 -0.14,-1.64 -0.08,-0.45332 -0.22001,-0.81999 -0.42,-1.1 -0.20001,-0.27999 -0.46668,-0.47999 -0.8,-0.6 -0.33334,-0.13332 -0.74667,-0.19999 -1.24,-0.2 -0.20001,1e-5 -0.40667,0.007 -0.62,0.02 -0.21334,0.0134 -0.42001,0.0334 -0.62,0.06 -0.18667,0.0134 -0.36001,0.0334 -0.52,0.06 -0.14667,0.0267 -0.25334,0.0467 -0.32,0.06 l 0,8.78 -1.86,0 0,-10.1"
         inkscape:connector-curvature="0" />
      <path
         id="path5393"
         d="m 192.74234,458.0035 3.94,0 0,1.56 -3.94,0 0,4.8 c 0,0.52001 0.04,0.95334 0.12,1.3 0.08,0.33334 0.2,0.60001 0.36,0.8 0.16,0.18667 0.36,0.32 0.6,0.4 0.24,0.08 0.52,0.12 0.84,0.12 0.56,0 1.00666,-0.06 1.34,-0.18 0.34666,-0.13333 0.58666,-0.22666 0.72,-0.28 l 0.36,1.54 c -0.18667,0.0933 -0.51334,0.20667 -0.98,0.34 -0.46667,0.14667 -1,0.22 -1.6,0.22 -0.70667,0 -1.29333,-0.0867 -1.76,-0.26 -0.45333,-0.18666 -0.82,-0.46 -1.1,-0.82 -0.28,-0.36 -0.48,-0.8 -0.6,-1.32 -0.10666,-0.53333 -0.16,-1.14666 -0.16,-1.84 l 0,-9.28 1.86,-0.32 0,3.22"
         inkscape:connector-curvature="0" />
      <path
         id="path5395"
         d="m 198.27391,463.2235 c 0,-0.91999 0.13333,-1.71999 0.4,-2.4 0.26666,-0.69332 0.61999,-1.26665 1.06,-1.72 0.43999,-0.45332 0.94666,-0.79332 1.52,-1.02 0.57333,-0.22665 1.15999,-0.33999 1.76,-0.34 1.39999,1e-5 2.47332,0.44001 3.22,1.32 0.74665,0.86668 1.11999,2.19334 1.12,3.98 -1e-5,0.08 -1e-5,0.18667 0,0.32 -1e-5,0.12001 -0.007,0.23334 -0.02,0.34 l -7.12,0 c 0.08,1.08001 0.39333,1.90001 0.94,2.46 0.54666,0.56 1.39999,0.84 2.56,0.84 0.65332,0 1.19999,-0.0533 1.64,-0.16 0.45332,-0.12 0.79332,-0.23333 1.02,-0.34 l 0.26,1.56 c -0.22668,0.12 -0.62668,0.24667 -1.2,0.38 -0.56001,0.13334 -1.20001,0.2 -1.92,0.2 -0.90668,0 -1.69334,-0.13333 -2.36,-0.4 -0.65334,-0.28 -1.19334,-0.66 -1.62,-1.14 -0.42667,-0.48 -0.74667,-1.04666 -0.96,-1.7 -0.2,-0.66666 -0.3,-1.39333 -0.3,-2.18 m 7.14,-1.02 c 0.0133,-0.83999 -0.20001,-1.52666 -0.64,-2.06 -0.42668,-0.54665 -1.02001,-0.81999 -1.78,-0.82 -0.42668,10e-6 -0.80668,0.0867 -1.14,0.26 -0.32001,0.16001 -0.59334,0.37334 -0.82,0.64 -0.22667,0.26668 -0.40667,0.57334 -0.54,0.92 -0.12001,0.34668 -0.20001,0.70001 -0.24,1.06 l 5.16,0"
         inkscape:connector-curvature="0" />
      <path
         id="path5397"
         d="m 210.02578,458.3035 c 0.42667,-0.10665 0.99333,-0.21999 1.7,-0.34 0.70666,-0.11999 1.52,-0.17999 2.44,-0.18 0.82666,10e-6 1.51333,0.12001 2.06,0.36 0.54666,0.22668 0.97999,0.55335 1.3,0.98 0.33333,0.41335 0.56666,0.91334 0.7,1.5 0.13332,0.58668 0.19999,1.23334 0.2,1.94 l 0,5.84 -1.86,0 0,-5.44 c -1e-5,-0.63999 -0.0467,-1.18666 -0.14,-1.64 -0.08,-0.45332 -0.22001,-0.81999 -0.42,-1.1 -0.20001,-0.27999 -0.46667,-0.47999 -0.8,-0.6 -0.33334,-0.13332 -0.74667,-0.19999 -1.24,-0.2 -0.2,1e-5 -0.40667,0.007 -0.62,0.02 -0.21334,0.0134 -0.42,0.0334 -0.62,0.06 -0.18667,0.0134 -0.36,0.0334 -0.52,0.06 -0.14667,0.0267 -0.25334,0.0467 -0.32,0.06 l 0,8.78 -1.86,0 0,-10.1"
         inkscape:connector-curvature="0" />
      <path
         id="path5399"
         d="m 223.93016,467.0635 c 0.75999,0 1.31999,-0.1 1.68,-0.3 0.37332,-0.2 0.55999,-0.51999 0.56,-0.96 -1e-5,-0.45333 -0.18001,-0.81333 -0.54,-1.08 -0.36001,-0.26666 -0.95334,-0.56666 -1.78,-0.9 -0.40001,-0.15999 -0.78667,-0.31999 -1.16,-0.48 -0.36001,-0.17333 -0.67334,-0.37332 -0.94,-0.6 -0.26667,-0.22666 -0.48001,-0.49999 -0.64,-0.82 -0.16,-0.31999 -0.24,-0.71332 -0.24,-1.18 0,-0.91999 0.33999,-1.64665 1.02,-2.18 0.67999,-0.54665 1.60666,-0.81999 2.78,-0.82 0.29332,1e-5 0.58666,0.02 0.88,0.06 0.29332,0.0267 0.56666,0.0667 0.82,0.12 0.25332,0.04 0.47332,0.0867 0.66,0.14 0.19999,0.0534 0.35332,0.10001 0.46,0.14 l -0.34,1.6 c -0.20001,-0.10665 -0.51334,-0.21332 -0.94,-0.32 -0.42668,-0.11999 -0.94001,-0.17999 -1.54,-0.18 -0.52001,1e-5 -0.97334,0.10668 -1.36,0.32 -0.38667,0.20001 -0.58001,0.52001 -0.58,0.96 -1e-5,0.22668 0.04,0.42668 0.12,0.6 0.0933,0.17334 0.22666,0.33334 0.4,0.48 0.18666,0.13334 0.41333,0.26001 0.68,0.38 0.26666,0.12001 0.58666,0.24668 0.96,0.38 0.49332,0.18668 0.93332,0.37334 1.32,0.56 0.38666,0.17334 0.71332,0.38001 0.98,0.62 0.27999,0.24001 0.49332,0.53334 0.64,0.88 0.14665,0.33334 0.21999,0.74667 0.22,1.24 -1e-5,0.96 -0.36001,1.68667 -1.08,2.18 -0.70668,0.49334 -1.72001,0.74 -3.04,0.74 -0.92001,0 -1.64001,-0.08 -2.16,-0.24 -0.52001,-0.14666 -0.87334,-0.26 -1.06,-0.34 l 0.34,-1.6 c 0.21333,0.08 0.55333,0.2 1.02,0.36 0.46666,0.16 1.08666,0.24 1.86,0.24"
         inkscape:connector-curvature="0" />
      <path
         id="path5401"
         d="m 232.27641,468.4035 -1.86,0 0,-10.4 1.86,0 0,10.4 m -0.94,-12.28 c -0.33334,2e-5 -0.62001,-0.10665 -0.86,-0.32 -0.22667,-0.22665 -0.34001,-0.52665 -0.34,-0.9 -1e-5,-0.37332 0.11333,-0.66665 0.34,-0.88 0.23999,-0.22665 0.52666,-0.33998 0.86,-0.34 0.33333,2e-5 0.61333,0.11335 0.84,0.34 0.23999,0.21335 0.35999,0.50668 0.36,0.88 -1e-5,0.37335 -0.12001,0.67335 -0.36,0.9 -0.22667,0.21335 -0.50667,0.32002 -0.84,0.32"
         inkscape:connector-curvature="0" />
      <path
         id="path5403"
         d="m 242.21453,460.2035 c -0.22667,-0.18666 -0.55334,-0.36666 -0.98,-0.54 -0.42667,-0.17332 -0.89334,-0.25999 -1.4,-0.26 -0.53334,10e-6 -0.99334,0.10001 -1.38,0.3 -0.37334,0.18668 -0.68,0.45334 -0.92,0.8 -0.24,0.33334 -0.41334,0.73334 -0.52,1.2 -0.10667,0.46668 -0.16,0.96668 -0.16,1.5 0,1.21334 0.3,2.15334 0.9,2.82 0.6,0.65334 1.4,0.98 2.4,0.98 0.50666,0 0.92666,-0.02 1.26,-0.06 0.34666,-0.0533 0.61333,-0.10666 0.8,-0.16 l 0,-6.58 m 0,-7 1.86,-0.32 0,15.22 c -0.42668,0.12 -0.97334,0.24 -1.64,0.36 -0.66667,0.12 -1.43334,0.18 -2.3,0.18 -0.8,0 -1.52,-0.12666 -2.16,-0.38 -0.64,-0.25333 -1.18667,-0.61333 -1.64,-1.08 -0.45333,-0.46666 -0.80667,-1.03333 -1.06,-1.7 -0.24,-0.67999 -0.36,-1.43999 -0.36,-2.28 0,-0.79999 0.1,-1.53332 0.3,-2.2 0.21333,-0.66666 0.52,-1.23999 0.92,-1.72 0.4,-0.47999 0.88666,-0.85332 1.46,-1.12 0.58666,-0.26665 1.25333,-0.39999 2,-0.4 0.59999,10e-6 1.12666,0.08 1.58,0.24 0.46666,0.16001 0.81333,0.31335 1.04,0.46 l 0,-5.26"
         inkscape:connector-curvature="0" />
      <path
         id="path5405"
         d="m 250.81141,467.0635 c 0.43999,0 0.82666,-0.007 1.16,-0.02 0.34666,-0.0267 0.63332,-0.0667 0.86,-0.12 l 0,-3.1 c -0.13334,-0.0667 -0.35334,-0.11999 -0.66,-0.16 -0.29334,-0.0533 -0.65334,-0.08 -1.08,-0.08 -0.28001,10e-6 -0.58001,0.02 -0.9,0.06 -0.30667,0.04 -0.59334,0.12667 -0.86,0.26 -0.25334,0.12001 -0.46667,0.29334 -0.64,0.52 -0.17334,0.21334 -0.26001,0.50001 -0.26,0.86 -1e-5,0.66667 0.21333,1.13334 0.64,1.4 0.42666,0.25334 1.00666,0.38 1.74,0.38 m -0.16,-9.32 c 0.74666,1e-5 1.37332,0.10001 1.88,0.3 0.51999,0.18668 0.93332,0.46001 1.24,0.82 0.31999,0.34668 0.54665,0.76668 0.68,1.26 0.13332,0.48001 0.19999,1.01334 0.2,1.6 l 0,6.5 c -0.16001,0.0267 -0.38668,0.0667 -0.68,0.12 -0.28001,0.04 -0.60001,0.08 -0.96,0.12 -0.36001,0.04 -0.75334,0.0733 -1.18,0.1 -0.41334,0.04 -0.82668,0.06 -1.24,0.06 -0.58667,0 -1.12667,-0.06 -1.62,-0.18 -0.49334,-0.12 -0.92001,-0.30666 -1.28,-0.56 -0.36001,-0.26666 -0.64001,-0.61333 -0.84,-1.04 -0.2,-0.42666 -0.3,-0.93999 -0.3,-1.54 0,-0.57333 0.11333,-1.06666 0.34,-1.48 0.23999,-0.41333 0.55999,-0.74666 0.96,-1 0.39999,-0.25332 0.86666,-0.43999 1.4,-0.56 0.53333,-0.11999 1.09332,-0.17999 1.68,-0.18 0.18666,10e-6 0.37999,0.0133 0.58,0.04 0.19999,0.0133 0.38666,0.04 0.56,0.08 0.18666,0.0267 0.34666,0.0533 0.48,0.08 0.13332,0.0267 0.22666,0.0467 0.28,0.06 l 0,-0.52 c -1e-5,-0.30666 -0.0333,-0.60666 -0.1,-0.9 -0.0667,-0.30666 -0.18668,-0.57332 -0.36,-0.8 -0.17334,-0.23999 -0.41334,-0.42665 -0.72,-0.56 -0.29334,-0.14665 -0.68001,-0.21999 -1.16,-0.22 -0.61334,10e-6 -1.15334,0.0467 -1.62,0.14 -0.45334,0.08 -0.79334,0.16668 -1.02,0.26 l -0.22,-1.54 c 0.23999,-0.10665 0.63999,-0.20665 1.2,-0.3 0.55999,-0.10665 1.16666,-0.15999 1.82,-0.16"
         inkscape:connector-curvature="0" />
      <path
         id="path5407"
         d="m 264.44109,460.2035 c -0.22667,-0.18666 -0.55334,-0.36666 -0.98,-0.54 -0.42667,-0.17332 -0.89334,-0.25999 -1.4,-0.26 -0.53333,10e-6 -0.99333,0.10001 -1.38,0.3 -0.37333,0.18668 -0.68,0.45334 -0.92,0.8 -0.24,0.33334 -0.41333,0.73334 -0.52,1.2 -0.10667,0.46668 -0.16,0.96668 -0.16,1.5 0,1.21334 0.3,2.15334 0.9,2.82 0.6,0.65334 1.4,0.98 2.4,0.98 0.50666,0 0.92666,-0.02 1.26,-0.06 0.34666,-0.0533 0.61333,-0.10666 0.8,-0.16 l 0,-6.58 m 0,-7 1.86,-0.32 0,15.22 c -0.42667,0.12 -0.97334,0.24 -1.64,0.36 -0.66667,0.12 -1.43334,0.18 -2.3,0.18 -0.8,0 -1.52,-0.12666 -2.16,-0.38 -0.64,-0.25333 -1.18667,-0.61333 -1.64,-1.08 -0.45333,-0.46666 -0.80666,-1.03333 -1.06,-1.7 -0.24,-0.67999 -0.36,-1.43999 -0.36,-2.28 0,-0.79999 0.1,-1.53332 0.3,-2.2 0.21334,-0.66666 0.52,-1.23999 0.92,-1.72 0.4,-0.47999 0.88667,-0.85332 1.46,-1.12 0.58667,-0.26665 1.25333,-0.39999 2,-0.4 0.6,10e-6 1.12666,0.08 1.58,0.24 0.46666,0.16001 0.81333,0.31335 1.04,0.46 l 0,-5.26"
         inkscape:connector-curvature="0" />
      <path
         id="path5409"
         d="m 280.84734,460.2035 c -0.22667,-0.18666 -0.55334,-0.36666 -0.98,-0.54 -0.42667,-0.17332 -0.89334,-0.25999 -1.4,-0.26 -0.53333,10e-6 -0.99333,0.10001 -1.38,0.3 -0.37333,0.18668 -0.68,0.45334 -0.92,0.8 -0.24,0.33334 -0.41333,0.73334 -0.52,1.2 -0.10667,0.46668 -0.16,0.96668 -0.16,1.5 0,1.21334 0.3,2.15334 0.9,2.82 0.6,0.65334 1.4,0.98 2.4,0.98 0.50666,0 0.92666,-0.02 1.26,-0.06 0.34666,-0.0533 0.61333,-0.10666 0.8,-0.16 l 0,-6.58 m 0,-7 1.86,-0.32 0,15.22 c -0.42667,0.12 -0.97334,0.24 -1.64,0.36 -0.66667,0.12 -1.43334,0.18 -2.3,0.18 -0.8,0 -1.52,-0.12666 -2.16,-0.38 -0.64,-0.25333 -1.18667,-0.61333 -1.64,-1.08 -0.45333,-0.46666 -0.80666,-1.03333 -1.06,-1.7 -0.24,-0.67999 -0.36,-1.43999 -0.36,-2.28 0,-0.79999 0.1,-1.53332 0.3,-2.2 0.21334,-0.66666 0.52,-1.23999 0.92,-1.72 0.4,-0.47999 0.88667,-0.85332 1.46,-1.12 0.58667,-0.26665 1.25333,-0.39999 2,-0.4 0.6,10e-6 1.12666,0.08 1.58,0.24 0.46666,0.16001 0.81333,0.31335 1.04,0.46 l 0,-5.26"
         inkscape:connector-curvature="0" />
      <path
         id="path5411"
         d="m 285.34422,463.2235 c 0,-0.91999 0.13333,-1.71999 0.4,-2.4 0.26666,-0.69332 0.62,-1.26665 1.06,-1.72 0.44,-0.45332 0.94666,-0.79332 1.52,-1.02 0.57333,-0.22665 1.15999,-0.33999 1.76,-0.34 1.39999,1e-5 2.47332,0.44001 3.22,1.32 0.74666,0.86668 1.11999,2.19334 1.12,3.98 -10e-6,0.08 -10e-6,0.18667 0,0.32 -10e-6,0.12001 -0.007,0.23334 -0.02,0.34 l -7.12,0 c 0.08,1.08001 0.39333,1.90001 0.94,2.46 0.54666,0.56 1.39999,0.84 2.56,0.84 0.65332,0 1.19999,-0.0533 1.64,-0.16 0.45332,-0.12 0.79332,-0.23333 1.02,-0.34 l 0.26,1.56 c -0.22668,0.12 -0.62668,0.24667 -1.2,0.38 -0.56001,0.13334 -1.20001,0.2 -1.92,0.2 -0.90667,0 -1.69334,-0.13333 -2.36,-0.4 -0.65334,-0.28 -1.19334,-0.66 -1.62,-1.14 -0.42667,-0.48 -0.74667,-1.04666 -0.96,-1.7 -0.2,-0.66666 -0.3,-1.39333 -0.3,-2.18 m 7.14,-1.02 c 0.0133,-0.83999 -0.20001,-1.52666 -0.64,-2.06 -0.42668,-0.54665 -1.02001,-0.81999 -1.78,-0.82 -0.42667,10e-6 -0.80667,0.0867 -1.14,0.26 -0.32001,0.16001 -0.59334,0.37334 -0.82,0.64 -0.22667,0.26668 -0.40667,0.57334 -0.54,0.92 -0.12,0.34668 -0.2,0.70001 -0.24,1.06 l 5.16,0"
         inkscape:connector-curvature="0" />
      <path
         id="path5413"
         d="m 307.78547,468.7035 c -0.97334,0 -1.86001,-0.16 -2.66,-0.48 -0.80001,-0.32 -1.48667,-0.78666 -2.06,-1.4 -0.57334,-0.61333 -1.02,-1.36666 -1.34,-2.26 -0.30667,-0.90666 -0.46,-1.93999 -0.46,-3.1 0,-1.15999 0.17333,-2.18665 0.52,-3.08 0.36,-0.90665 0.84,-1.66665 1.44,-2.28 0.6,-0.61332 1.29999,-1.07998 2.1,-1.4 0.79999,-0.31998 1.65333,-0.47998 2.56,-0.48 0.57332,2e-5 1.08666,0.04 1.54,0.12 0.46666,0.08 0.86666,0.17335 1.2,0.28 0.34665,0.10668 0.62665,0.21335 0.84,0.32 0.21332,0.10668 0.35999,0.18668 0.44,0.24 l -0.56,1.6 c -0.12001,-0.08 -0.29335,-0.16665 -0.52,-0.26 -0.22668,-0.0933 -0.48668,-0.18665 -0.78,-0.28 -0.28001,-0.0933 -0.59334,-0.16665 -0.94,-0.22 -0.33334,-0.0667 -0.67334,-0.1 -1.02,-0.1 -0.73334,2e-5 -1.39334,0.12668 -1.98,0.38 -0.58667,0.25335 -1.08667,0.62001 -1.5,1.1 -0.41334,0.48001 -0.73334,1.06668 -0.96,1.76 -0.21334,0.68001 -0.32,1.44668 -0.32,2.3 0,0.82668 0.0933,1.58001 0.28,2.26 0.2,0.68001 0.49333,1.26667 0.88,1.76 0.38666,0.48001 0.86666,0.85334 1.44,1.12 0.58666,0.26667 1.26666,0.4 2.04,0.4 0.89332,0 1.63332,-0.0933 2.22,-0.28 0.58665,-0.18666 1.02665,-0.35333 1.32,-0.5 l 0.5,1.6 c -0.0933,0.0667 -0.26001,0.15334 -0.5,0.26 -0.24001,0.0933 -0.54001,0.18667 -0.9,0.28 -0.36001,0.0933 -0.78001,0.17334 -1.26,0.24 -0.48001,0.0667 -1.00001,0.1 -1.56,0.1"
         inkscape:connector-curvature="0" />
      <path
         id="path5415"
         d="m 322.95578,463.2035 c -1e-5,0.82667 -0.12001,1.57334 -0.36,2.24 -0.24001,0.66667 -0.58001,1.24 -1.02,1.72 -0.42667,0.48 -0.94001,0.85334 -1.54,1.12 -0.60001,0.25334 -1.25334,0.38 -1.96,0.38 -0.70667,0 -1.36,-0.12666 -1.96,-0.38 -0.6,-0.26666 -1.12,-0.64 -1.56,-1.12 -0.42667,-0.48 -0.76,-1.05333 -1,-1.72 -0.24,-0.66666 -0.36,-1.41333 -0.36,-2.24 0,-0.81332 0.12,-1.55332 0.36,-2.22 0.24,-0.67999 0.57333,-1.25999 1,-1.74 0.44,-0.47999 0.96,-0.84665 1.56,-1.1 0.6,-0.26665 1.25333,-0.39999 1.96,-0.4 0.70666,1e-5 1.35999,0.13335 1.96,0.4 0.59999,0.25335 1.11333,0.62001 1.54,1.1 0.43999,0.48001 0.77999,1.06001 1.02,1.74 0.23999,0.66668 0.35999,1.40668 0.36,2.22 m -1.94,0 c -1e-5,-1.17332 -0.26667,-2.09999 -0.8,-2.78 -0.52001,-0.69332 -1.23334,-1.03999 -2.14,-1.04 -0.90667,10e-6 -1.62667,0.34668 -2.16,1.04 -0.52,0.68001 -0.78,1.60668 -0.78,2.78 0,1.17334 0.26,2.10667 0.78,2.8 0.53333,0.68 1.25333,1.02 2.16,1.02 0.90666,0 1.61999,-0.34 2.14,-1.02 0.53333,-0.69333 0.79999,-1.62666 0.8,-2.8"
         inkscape:connector-curvature="0" />
      <path
         id="path5417"
         d="m 325.57266,458.3035 c 0.42666,-0.10665 0.98666,-0.21999 1.68,-0.34 0.70666,-0.11999 1.51999,-0.17999 2.44,-0.18 0.66666,10e-6 1.22666,0.0933 1.68,0.28 0.45332,0.17335 0.83332,0.43335 1.14,0.78 0.0933,-0.0666 0.23999,-0.15999 0.44,-0.28 0.19999,-0.11999 0.44665,-0.23332 0.74,-0.34 0.29332,-0.11999 0.61999,-0.21999 0.98,-0.3 0.35999,-0.0933 0.74665,-0.13999 1.16,-0.14 0.79998,10e-6 1.45332,0.12001 1.96,0.36 0.50665,0.22668 0.89998,0.55335 1.18,0.98 0.29331,0.42668 0.48665,0.93334 0.58,1.52 0.10665,0.58668 0.15998,1.22668 0.16,1.92 l 0,5.84 -1.86,0 0,-5.44 c -2e-5,-0.61332 -0.0334,-1.13999 -0.1,-1.58 -0.0533,-0.43999 -0.16668,-0.80666 -0.34,-1.1 -0.16002,-0.29332 -0.38668,-0.50665 -0.68,-0.64 -0.28002,-0.14665 -0.64668,-0.21999 -1.1,-0.22 -0.62668,1e-5 -1.14668,0.0867 -1.56,0.26 -0.40001,0.16001 -0.67335,0.30668 -0.82,0.44 0.10665,0.34668 0.18665,0.72668 0.24,1.14 0.0533,0.41334 0.08,0.84668 0.08,1.3 l 0,5.84 -1.86,0 0,-5.44 c -1e-5,-0.61332 -0.0333,-1.13999 -0.1,-1.58 -0.0667,-0.43999 -0.18668,-0.80666 -0.36,-1.1 -0.16001,-0.29332 -0.38668,-0.50665 -0.68,-0.64 -0.28001,-0.14665 -0.64001,-0.21999 -1.08,-0.22 -0.18668,1e-5 -0.38668,0.007 -0.6,0.02 -0.21334,0.0134 -0.42001,0.0334 -0.62,0.06 -0.18667,0.0134 -0.36001,0.0334 -0.52,0.06 -0.16001,0.0267 -0.26667,0.0467 -0.32,0.06 l 0,8.78 -1.86,0 0,-10.1"
         inkscape:connector-curvature="0" />
      <path
         id="path5419"
         d="m 351.07922,468.1035 c -0.42668,0.10667 -0.99334,0.22 -1.7,0.34 -0.69334,0.12 -1.50001,0.18 -2.42,0.18 -0.80001,0 -1.47334,-0.11333 -2.02,-0.34 -0.54667,-0.24 -0.98667,-0.57333 -1.32,-1 -0.33334,-0.42666 -0.57334,-0.92666 -0.72,-1.5 -0.14667,-0.58666 -0.22,-1.23333 -0.22,-1.94 l 0,-5.84 1.86,0 0,5.44 c 0,1.26667 0.2,2.17334 0.6,2.72 0.39999,0.54667 1.07333,0.82 2.02,0.82 0.19999,0 0.40666,-0.007 0.62,-0.02 0.21333,-0.0133 0.41333,-0.0267 0.6,-0.04 0.18666,-0.0267 0.35332,-0.0467 0.5,-0.06 0.15999,-0.0267 0.27332,-0.0533 0.34,-0.08 l 0,-8.78 1.86,0 0,10.1"
         inkscape:connector-curvature="0" />
      <path
         id="path5421"
         d="m 354.28359,458.3035 c 0.42667,-0.10665 0.99333,-0.21999 1.7,-0.34 0.70667,-0.11999 1.52,-0.17999 2.44,-0.18 0.82666,10e-6 1.51333,0.12001 2.06,0.36 0.54666,0.22668 0.97999,0.55335 1.3,0.98 0.33333,0.41335 0.56666,0.91334 0.7,1.5 0.13333,0.58668 0.19999,1.23334 0.2,1.94 l 0,5.84 -1.86,0 0,-5.44 c 0,-0.63999 -0.0467,-1.18666 -0.14,-1.64 -0.08,-0.45332 -0.22,-0.81999 -0.42,-1.1 -0.2,-0.27999 -0.46667,-0.47999 -0.8,-0.6 -0.33334,-0.13332 -0.74667,-0.19999 -1.24,-0.2 -0.2,1e-5 -0.40667,0.007 -0.62,0.02 -0.21333,0.0134 -0.42,0.0334 -0.62,0.06 -0.18667,0.0134 -0.36,0.0334 -0.52,0.06 -0.14667,0.0267 -0.25333,0.0467 -0.32,0.06 l 0,8.78 -1.86,0 0,-10.1"
         inkscape:connector-curvature="0" />
      <path
         id="path5423"
         d="m 367.62797,468.4035 -1.86,0 0,-10.4 1.86,0 0,10.4 m -0.94,-12.28 c -0.33334,2e-5 -0.62,-0.10665 -0.86,-0.32 -0.22667,-0.22665 -0.34,-0.52665 -0.34,-0.9 0,-0.37332 0.11333,-0.66665 0.34,-0.88 0.24,-0.22665 0.52666,-0.33998 0.86,-0.34 0.33333,2e-5 0.61333,0.11335 0.84,0.34 0.24,0.21335 0.36,0.50668 0.36,0.88 0,0.37335 -0.12,0.67335 -0.36,0.9 -0.22667,0.21335 -0.50667,0.32002 -0.84,0.32"
         inkscape:connector-curvature="0" />
      <path
         id="path5425"
         d="m 375.36609,468.6435 c -0.84,0 -1.58,-0.13333 -2.22,-0.4 -0.62667,-0.26666 -1.16,-0.64 -1.6,-1.12 -0.42666,-0.48 -0.74666,-1.04666 -0.96,-1.7 -0.21333,-0.66666 -0.32,-1.39999 -0.32,-2.2 0,-0.79999 0.11334,-1.53332 0.34,-2.2 0.24,-0.66666 0.57334,-1.23999 1,-1.72 0.42667,-0.49332 0.94667,-0.87332 1.56,-1.14 0.62667,-0.27999 1.32,-0.41999 2.08,-0.42 0.46666,1e-5 0.93333,0.04 1.4,0.12 0.46666,0.08 0.91333,0.20668 1.34,0.38 l -0.42,1.58 c -0.28,-0.13332 -0.60667,-0.23999 -0.98,-0.32 -0.36,-0.08 -0.74667,-0.11999 -1.16,-0.12 -1.04,10e-6 -1.84,0.32668 -2.4,0.98 -0.54667,0.65334 -0.82,1.60668 -0.82,2.86 0,0.56001 0.06,1.07334 0.18,1.54 0.13333,0.46667 0.33333,0.86667 0.6,1.2 0.28,0.33334 0.63333,0.59334 1.06,0.78 0.42667,0.17334 0.94666,0.26 1.56,0.26 0.49333,0 0.94,-0.0467 1.34,-0.14 0.4,-0.0933 0.71333,-0.19333 0.94,-0.3 l 0.26,1.56 c -0.10667,0.0667 -0.26,0.13334 -0.46,0.2 -0.2,0.0533 -0.42667,0.1 -0.68,0.14 -0.25334,0.0533 -0.52667,0.0933 -0.82,0.12 -0.28,0.04 -0.55334,0.06 -0.82,0.06"
         inkscape:connector-curvature="0" />
      <path
         id="path5427"
         d="m 383.66297,467.0635 c 0.43999,0 0.82666,-0.007 1.16,-0.02 0.34666,-0.0267 0.63333,-0.0667 0.86,-0.12 l 0,-3.1 c -0.13334,-0.0667 -0.35334,-0.11999 -0.66,-0.16 -0.29334,-0.0533 -0.65334,-0.08 -1.08,-0.08 -0.28001,10e-6 -0.58001,0.02 -0.9,0.06 -0.30667,0.04 -0.59334,0.12667 -0.86,0.26 -0.25334,0.12001 -0.46667,0.29334 -0.64,0.52 -0.17334,0.21334 -0.26,0.50001 -0.26,0.86 0,0.66667 0.21333,1.13334 0.64,1.4 0.42666,0.25334 1.00666,0.38 1.74,0.38 m -0.16,-9.32 c 0.74666,1e-5 1.37333,0.10001 1.88,0.3 0.51999,0.18668 0.93332,0.46001 1.24,0.82 0.31999,0.34668 0.54666,0.76668 0.68,1.26 0.13332,0.48001 0.19999,1.01334 0.2,1.6 l 0,6.5 c -0.16001,0.0267 -0.38668,0.0667 -0.68,0.12 -0.28001,0.04 -0.60001,0.08 -0.96,0.12 -0.36001,0.04 -0.75334,0.0733 -1.18,0.1 -0.41334,0.04 -0.82667,0.06 -1.24,0.06 -0.58667,0 -1.12667,-0.06 -1.62,-0.18 -0.49334,-0.12 -0.92,-0.30666 -1.28,-0.56 -0.36,-0.26666 -0.64,-0.61333 -0.84,-1.04 -0.2,-0.42666 -0.3,-0.93999 -0.3,-1.54 0,-0.57333 0.11333,-1.06666 0.34,-1.48 0.24,-0.41333 0.56,-0.74666 0.96,-1 0.4,-0.25332 0.86666,-0.43999 1.4,-0.56 0.53333,-0.11999 1.09333,-0.17999 1.68,-0.18 0.18666,10e-6 0.37999,0.0133 0.58,0.04 0.19999,0.0133 0.38666,0.04 0.56,0.08 0.18666,0.0267 0.34666,0.0533 0.48,0.08 0.13333,0.0267 0.22666,0.0467 0.28,0.06 l 0,-0.52 c -1e-5,-0.30666 -0.0333,-0.60666 -0.1,-0.9 -0.0667,-0.30666 -0.18667,-0.57332 -0.36,-0.8 -0.17334,-0.23999 -0.41334,-0.42665 -0.72,-0.56 -0.29334,-0.14665 -0.68001,-0.21999 -1.16,-0.22 -0.61334,10e-6 -1.15334,0.0467 -1.62,0.14 -0.45334,0.08 -0.79334,0.16668 -1.02,0.26 l -0.22,-1.54 c 0.24,-0.10665 0.64,-0.20665 1.2,-0.3 0.56,-0.10665 1.16666,-0.15999 1.82,-0.16"
         inkscape:connector-curvature="0" />
      <path
         id="path5429"
         d="m 395.09266,468.6435 c -0.84001,0 -1.58001,-0.13333 -2.22,-0.4 -0.62667,-0.26666 -1.16001,-0.64 -1.6,-1.12 -0.42667,-0.48 -0.74667,-1.04666 -0.96,-1.7 -0.21334,-0.66666 -0.32,-1.39999 -0.32,-2.2 0,-0.79999 0.11333,-1.53332 0.34,-2.2 0.23999,-0.66666 0.57333,-1.23999 1,-1.72 0.42666,-0.49332 0.94666,-0.87332 1.56,-1.14 0.62666,-0.27999 1.31999,-0.41999 2.08,-0.42 0.46666,1e-5 0.93332,0.04 1.4,0.12 0.46666,0.08 0.91332,0.20668 1.34,0.38 l -0.42,1.58 c -0.28001,-0.13332 -0.60668,-0.23999 -0.98,-0.32 -0.36001,-0.08 -0.74668,-0.11999 -1.16,-0.12 -1.04001,10e-6 -1.84001,0.32668 -2.4,0.98 -0.54667,0.65334 -0.82001,1.60668 -0.82,2.86 -10e-6,0.56001 0.06,1.07334 0.18,1.54 0.13333,0.46667 0.33333,0.86667 0.6,1.2 0.27999,0.33334 0.63333,0.59334 1.06,0.78 0.42666,0.17334 0.94666,0.26 1.56,0.26 0.49332,0 0.93999,-0.0467 1.34,-0.14 0.39999,-0.0933 0.71332,-0.19333 0.94,-0.3 l 0.26,1.56 c -0.10668,0.0667 -0.26001,0.13334 -0.46,0.2 -0.20001,0.0533 -0.42668,0.1 -0.68,0.14 -0.25334,0.0533 -0.52668,0.0933 -0.82,0.12 -0.28001,0.04 -0.55334,0.06 -0.82,0.06"
         inkscape:connector-curvature="0" />
      <path
         id="path5431"
         d="m 401.72953,468.4035 -1.86,0 0,-10.4 1.86,0 0,10.4 m -0.94,-12.28 c -0.33333,2e-5 -0.62,-0.10665 -0.86,-0.32 -0.22667,-0.22665 -0.34,-0.52665 -0.34,-0.9 0,-0.37332 0.11333,-0.66665 0.34,-0.88 0.24,-0.22665 0.52667,-0.33998 0.86,-0.34 0.33333,2e-5 0.61333,0.11335 0.84,0.34 0.24,0.21335 0.36,0.50668 0.36,0.88 0,0.37335 -0.12,0.67335 -0.36,0.9 -0.22667,0.21335 -0.50667,0.32002 -0.84,0.32"
         inkscape:connector-curvature="0" />
      <path
         id="path5433"
         d="m 414.12766,463.2035 c -10e-6,0.82667 -0.12001,1.57334 -0.36,2.24 -0.24001,0.66667 -0.58001,1.24 -1.02,1.72 -0.42668,0.48 -0.94001,0.85334 -1.54,1.12 -0.60001,0.25334 -1.25334,0.38 -1.96,0.38 -0.70668,0 -1.36001,-0.12666 -1.96,-0.38 -0.60001,-0.26666 -1.12001,-0.64 -1.56,-1.12 -0.42667,-0.48 -0.76001,-1.05333 -1,-1.72 -0.24,-0.66666 -0.36,-1.41333 -0.36,-2.24 0,-0.81332 0.12,-1.55332 0.36,-2.22 0.23999,-0.67999 0.57333,-1.25999 1,-1.74 0.43999,-0.47999 0.95999,-0.84665 1.56,-1.1 0.59999,-0.26665 1.25332,-0.39999 1.96,-0.4 0.70666,1e-5 1.35999,0.13335 1.96,0.4 0.59999,0.25335 1.11332,0.62001 1.54,1.1 0.43999,0.48001 0.77999,1.06001 1.02,1.74 0.23999,0.66668 0.35999,1.40668 0.36,2.22 m -1.94,0 c -10e-6,-1.17332 -0.26668,-2.09999 -0.8,-2.78 -0.52001,-0.69332 -1.23334,-1.03999 -2.14,-1.04 -0.90668,10e-6 -1.62667,0.34668 -2.16,1.04 -0.52001,0.68001 -0.78001,1.60668 -0.78,2.78 -10e-6,1.17334 0.25999,2.10667 0.78,2.8 0.53333,0.68 1.25332,1.02 2.16,1.02 0.90666,0 1.61999,-0.34 2.14,-1.02 0.53332,-0.69333 0.79999,-1.62666 0.8,-2.8 m -0.52,-9.14 -2.82,2.74 -0.94,-0.84 2.56,-3.08 1.2,1.18"
         inkscape:connector-curvature="0" />
      <path
         id="path5435"
         d="m 416.74453,458.3035 c 0.42667,-0.10665 0.99333,-0.21999 1.7,-0.34 0.70666,-0.11999 1.52,-0.17999 2.44,-0.18 0.82666,10e-6 1.51333,0.12001 2.06,0.36 0.54666,0.22668 0.97999,0.55335 1.3,0.98 0.33333,0.41335 0.56666,0.91334 0.7,1.5 0.13332,0.58668 0.19999,1.23334 0.2,1.94 l 0,5.84 -1.86,0 0,-5.44 c -1e-5,-0.63999 -0.0467,-1.18666 -0.14,-1.64 -0.08,-0.45332 -0.22001,-0.81999 -0.42,-1.1 -0.20001,-0.27999 -0.46667,-0.47999 -0.8,-0.6 -0.33334,-0.13332 -0.74667,-0.19999 -1.24,-0.2 -0.2,1e-5 -0.40667,0.007 -0.62,0.02 -0.21334,0.0134 -0.42,0.0334 -0.62,0.06 -0.18667,0.0134 -0.36,0.0334 -0.52,0.06 -0.14667,0.0267 -0.25334,0.0467 -0.32,0.06 l 0,8.78 -1.86,0 0,-10.1"
         inkscape:connector-curvature="0" />
    </g>
    <path
       style="fill:none;stroke:#000000;stroke-width:1;stroke-linecap:butt;stroke-linejoin:miter;stroke-miterlimit:4;stroke-opacity:1;stroke-dasharray:none;marker-start:url(#Arrow1Lstart)"
       d="m 82.517093,448.59135 0,-49.02658"
       id="path4445"
       inkscape:connector-curvature="0" />
    <path
       style="fill:none;stroke:#000000;stroke-width:1;stroke-linecap:butt;stroke-linejoin:miter;stroke-miterlimit:4;stroke-opacity:1;stroke-dasharray:none;marker-start:url(#Arrow1Lstart)"
       d="m 82.517093,91.149376 0,48.091474"
       id="path4447"
       inkscape:connector-curvature="0" />
    <path
       sodipodi:nodetypes="cssssc"
       inkscape:connector-curvature="0"
       id="path4475"
       d="m 121.86583,397.09478 c 10.6185,-10.02386 17.72544,-19.05664 24.91061,-27.45951 39.92989,-46.69698 59.47385,-88.99661 77.53568,-122.86303 60.5988,-113.62439 86.10012,-123.37321 158.982,-6.87739 20.60712,32.93882 38.64696,82.72019 74.88478,131.4054 6.23719,8.37963 20.39835,25.79453 20.39835,25.79453"
       style="fill:none;stroke:#4c83ce;stroke-width:9;stroke-linecap:butt;stroke-linejoin:miter;stroke-miterlimit:4;stroke-opacity:1;stroke-dasharray:none;marker-start:none;marker-end:none" />
    <g
       id="flowRoot4485"
       style="font-size:20px;font-style:normal;font-variant:normal;font-weight:normal;font-stretch:normal;line-height:125%;letter-spacing:0px;word-spacing:0px;fill:#000000;fill-opacity:1;stroke:none;font-family:Ubuntu;-inkscape-font-specification:Ubuntu"
       transform="translate(32.534167,-3.0363952)">
      <path
         id="path5316"
         d="m 342.5375,361.05725 c -1e-5,1.20001 -0.18668,2.24667 -0.56,3.14 -0.37335,0.88001 -0.90001,1.61334 -1.58,2.2 -0.68001,0.57334 -1.49334,1.00667 -2.44,1.3 -0.94667,0.28 -1.98667,0.42 -3.12,0.42 -0.56,0 -1.18,-0.0267 -1.86,-0.08 -0.66667,-0.04 -1.27334,-0.12666 -1.82,-0.26 l 0,-13.44 c 0.54666,-0.13332 1.15333,-0.21998 1.82,-0.26 0.68,-0.0533 1.3,-0.08 1.86,-0.08 1.13333,2e-5 2.17333,0.14668 3.12,0.44 0.94666,0.28002 1.75999,0.71335 2.44,1.3 0.67999,0.57335 1.20665,1.30668 1.58,2.2 0.37332,0.88001 0.55999,1.92001 0.56,3.12 m -7.54,5.36 c 1.83999,0 3.21332,-0.46666 4.12,-1.4 0.90666,-0.94666 1.35999,-2.26666 1.36,-3.96 -1e-5,-1.69332 -0.45334,-3.00665 -1.36,-3.94 -0.90668,-0.94665 -2.28001,-1.41998 -4.12,-1.42 -0.54667,2e-5 -0.97334,0.007 -1.28,0.02 -0.29334,0.0134 -0.5,0.0267 -0.62,0.04 l 0,10.6 c 0.12,0.0133 0.32666,0.0267 0.62,0.04 0.30666,0.0133 0.73333,0.02 1.28,0.02"
         inkscape:connector-curvature="0" />
      <path
         id="path5318"
         d="m 347.15531,367.99725 -1.86,0 0,-10.4 1.86,0 0,10.4 m -0.94,-12.28 c -0.33333,2e-5 -0.62,-0.10665 -0.86,-0.32 -0.22667,-0.22665 -0.34,-0.52665 -0.34,-0.9 0,-0.37332 0.11333,-0.66665 0.34,-0.88 0.24,-0.22665 0.52667,-0.33998 0.86,-0.34 0.33333,2e-5 0.61333,0.11335 0.84,0.34 0.24,0.21335 0.36,0.50668 0.36,0.88 0,0.37335 -0.12,0.67335 -0.36,0.9 -0.22667,0.21335 -0.50667,0.32002 -0.84,0.32"
         inkscape:connector-curvature="0" />
      <path
         id="path5320"
         d="m 354.21344,357.37725 c 0.15999,10e-6 0.33999,0.0134 0.54,0.04 0.21332,0.0134 0.41999,0.04 0.62,0.08 0.19999,0.0267 0.37999,0.06 0.54,0.1 0.17332,0.0267 0.29999,0.0534 0.38,0.08 l -0.32,1.62 c -0.14668,-0.0533 -0.39334,-0.11332 -0.74,-0.18 -0.33334,-0.08 -0.76667,-0.11999 -1.3,-0.12 -0.34667,10e-6 -0.69334,0.04 -1.04,0.12 -0.33334,0.0667 -0.55334,0.11335 -0.66,0.14 l 0,8.74 -1.86,0 0,-9.96 c 0.44,-0.15999 0.98666,-0.30665 1.64,-0.44 0.65333,-0.14665 1.38666,-0.21999 2.2,-0.22"
         inkscape:connector-curvature="0" />
      <path
         id="path5322"
         d="m 359.96781,367.99725 -1.86,0 0,-10.4 1.86,0 0,10.4 m -0.94,-12.28 c -0.33333,2e-5 -0.62,-0.10665 -0.86,-0.32 -0.22667,-0.22665 -0.34,-0.52665 -0.34,-0.9 0,-0.37332 0.11333,-0.66665 0.34,-0.88 0.24,-0.22665 0.52667,-0.33998 0.86,-0.34 0.33333,2e-5 0.61333,0.11335 0.84,0.34 0.24,0.21335 0.36,0.50668 0.36,0.88 0,0.37335 -0.12,0.67335 -0.36,0.9 -0.22667,0.21335 -0.50667,0.32002 -0.84,0.32"
         inkscape:connector-curvature="0" />
      <path
         id="path5324"
         d="m 369.70594,366.95725 c -0.16001,0.10667 -0.47334,0.24667 -0.94,0.42 -0.45334,0.16 -0.98668,0.24 -1.6,0.24 -0.62667,0 -1.22001,-0.1 -1.78,-0.3 -0.54667,-0.2 -1.02667,-0.50666 -1.44,-0.92 -0.41334,-0.42666 -0.74,-0.95333 -0.98,-1.58 -0.24,-0.62666 -0.36,-1.37333 -0.36,-2.24 0,-0.75999 0.11333,-1.45332 0.34,-2.08 0.22666,-0.63999 0.55333,-1.18665 0.98,-1.64 0.43999,-0.46665 0.97333,-0.82665 1.6,-1.08 0.62666,-0.26665 1.33333,-0.39999 2.12,-0.4 0.86666,10e-6 1.61999,0.0667 2.26,0.2 0.65332,0.12001 1.19999,0.23335 1.64,0.34 l 0,9.28 c -10e-6,1.6 -0.41335,2.76 -1.24,3.48 -0.82668,0.72 -2.08001,1.08 -3.76,1.08 -0.65334,0 -1.27334,-0.0533 -1.86,-0.16 -0.57334,-0.10667 -1.07334,-0.23333 -1.5,-0.38 l 0.34,-1.62 c 0.37333,0.14667 0.82666,0.27333 1.36,0.38 0.54666,0.12 1.11333,0.18 1.7,0.18 1.10666,0 1.89999,-0.22 2.38,-0.66 0.49332,-0.44 0.73999,-1.14 0.74,-2.1 l 0,-0.44 m -0.02,-7.72 c -0.18668,-0.0533 -0.44001,-0.1 -0.76,-0.14 -0.30668,-0.0533 -0.72668,-0.08 -1.26,-0.08 -1.00001,1e-5 -1.77334,0.32668 -2.32,0.98 -0.53334,0.65334 -0.80001,1.52001 -0.8,2.6 -10e-6,0.60001 0.0733,1.11334 0.22,1.54 0.15999,0.42667 0.36666,0.78001 0.62,1.06 0.26666,0.28001 0.56666,0.48667 0.9,0.62 0.34666,0.13334 0.69999,0.20001 1.06,0.2 0.49332,1e-5 0.94666,-0.0667 1.36,-0.2 0.41332,-0.14666 0.73999,-0.31333 0.98,-0.5 l 0,-6.08"
         inkscape:connector-curvature="0" />
      <path
         id="path5326"
         d="m 376.60844,367.99725 -1.86,0 0,-10.4 1.86,0 0,10.4 m -0.94,-12.28 c -0.33334,2e-5 -0.62,-0.10665 -0.86,-0.32 -0.22667,-0.22665 -0.34,-0.52665 -0.34,-0.9 0,-0.37332 0.11333,-0.66665 0.34,-0.88 0.24,-0.22665 0.52666,-0.33998 0.86,-0.34 0.33333,2e-5 0.61333,0.11335 0.84,0.34 0.23999,0.21335 0.35999,0.50668 0.36,0.88 -1e-5,0.37335 -0.12001,0.67335 -0.36,0.9 -0.22667,0.21335 -0.50667,0.32002 -0.84,0.32"
         inkscape:connector-curvature="0" />
      <path
         id="path5328"
         d="m 383.66656,357.37725 c 0.16,10e-6 0.34,0.0134 0.54,0.04 0.21333,0.0134 0.42,0.04 0.62,0.08 0.2,0.0267 0.38,0.06 0.54,0.1 0.17333,0.0267 0.3,0.0534 0.38,0.08 l -0.32,1.62 c -0.14667,-0.0533 -0.39334,-0.11332 -0.74,-0.18 -0.33334,-0.08 -0.76667,-0.11999 -1.3,-0.12 -0.34667,10e-6 -0.69334,0.04 -1.04,0.12 -0.33333,0.0667 -0.55333,0.11335 -0.66,0.14 l 0,8.74 -1.86,0 0,-9.96 c 0.44,-0.15999 0.98667,-0.30665 1.64,-0.44 0.65333,-0.14665 1.38666,-0.21999 2.2,-0.22"
         inkscape:connector-curvature="0" />
    </g>
    <g
       id="flowRoot4497"
       style="font-size:20px;font-style:normal;font-variant:normal;font-weight:normal;font-stretch:normal;line-height:125%;letter-spacing:0px;word-spacing:0px;fill:#000000;fill-opacity:1;stroke:none;font-family:Ubuntu;-inkscape-font-specification:Ubuntu"
       transform="translate(21.049792,-180.92738)">
      <path
         id="path5346"
         d="m 331.1575,367.99725 0,-13.86 8.46,0 0,1.66 -6.52,0 0,4.12 5.8,0 0,1.62 -5.8,0 0,4.8 7.02,0 0,1.66 -8.96,0"
         inkscape:connector-curvature="0" />
      <path
         id="path5348"
         d="m 342.44375,357.89725 c 0.42666,-0.10665 0.99333,-0.21999 1.7,-0.34 0.70666,-0.11999 1.52,-0.17999 2.44,-0.18 0.82666,10e-6 1.51333,0.12001 2.06,0.36 0.54666,0.22668 0.97999,0.55335 1.3,0.98 0.33332,0.41335 0.56666,0.91334 0.7,1.5 0.13332,0.58668 0.19999,1.23334 0.2,1.94 l 0,5.84 -1.86,0 0,-5.44 c -10e-6,-0.63999 -0.0467,-1.18666 -0.14,-1.64 -0.08,-0.45332 -0.22001,-0.81999 -0.42,-1.1 -0.20001,-0.27999 -0.46667,-0.47999 -0.8,-0.6 -0.33334,-0.13332 -0.74667,-0.19999 -1.24,-0.2 -0.20001,1e-5 -0.40667,0.007 -0.62,0.02 -0.21334,0.0134 -0.42,0.0334 -0.62,0.06 -0.18667,0.0134 -0.36,0.0334 -0.52,0.06 -0.14667,0.0267 -0.25334,0.0467 -0.32,0.06 l 0,8.78 -1.86,0 0,-10.1"
         inkscape:connector-curvature="0" />
      <path
         id="path5350"
         d="m 355.66812,357.59725 3.94,0 0,1.56 -3.94,0 0,4.8 c 0,0.52001 0.04,0.95334 0.12,1.3 0.08,0.33334 0.2,0.60001 0.36,0.8 0.16,0.18667 0.36,0.32 0.60001,0.4 0.23999,0.08 0.51999,0.12 0.83999,0.12 0.56,0 1.00667,-0.06 1.34001,-0.18 0.34665,-0.13333 0.58665,-0.22666 0.71999,-0.28 l 0.36,1.54 c -0.18667,0.0933 -0.51334,0.20667 -0.98,0.34 -0.46667,0.14667 -1,0.22 -1.59999,0.22 -0.70668,0 -1.29334,-0.0867 -1.76001,-0.26 -0.45333,-0.18666 -0.82,-0.46 -1.1,-0.82 -0.28,-0.36 -0.48,-0.8 -0.6,-1.32 -0.10666,-0.53333 -0.16,-1.14666 -0.15999,-1.84 l 0,-9.28 1.85999,-0.32 0,3.22"
         inkscape:connector-curvature="0" />
      <path
         id="path5352"
         d="m 365.815,357.37725 c 0.15999,10e-6 0.33999,0.0134 0.54,0.04 0.21333,0.0134 0.41999,0.04 0.62,0.08 0.19999,0.0267 0.37999,0.06 0.54,0.1 0.17333,0.0267 0.29999,0.0534 0.38,0.08 l -0.32,1.62 c -0.14667,-0.0533 -0.39334,-0.11332 -0.74,-0.18 -0.33334,-0.08 -0.76667,-0.11999 -1.3,-0.12 -0.34667,10e-6 -0.69334,0.04 -1.04,0.12 -0.33334,0.0667 -0.55334,0.11335 -0.66,0.14 l 0,8.74 -1.86,0 0,-9.96 c 0.44,-0.15999 0.98666,-0.30665 1.64,-0.44 0.65333,-0.14665 1.38666,-0.21999 2.2,-0.22"
         inkscape:connector-curvature="0" />
      <path
         id="path5354"
         d="m 369.12937,362.81725 c 0,-0.91999 0.13334,-1.71999 0.40001,-2.4 0.26666,-0.69332 0.61999,-1.26665 1.06,-1.72 0.43999,-0.45332 0.94666,-0.79332 1.51999,-1.02 0.57333,-0.22665 1.16,-0.33999 1.76,-0.34 1.4,1e-5 2.47333,0.44001 3.22001,1.32 0.74665,0.86668 1.11998,2.19334 1.12,3.98 -2e-5,0.08 -2e-5,0.18667 0,0.32 -2e-5,0.12001 -0.007,0.23334 -0.02,0.34 l -7.12,0 c 0.08,1.08001 0.39333,1.90001 0.94,2.46 0.54667,0.56 1.4,0.84 2.56,0.84 0.65333,0 1.2,-0.0533 1.64001,-0.16 0.45332,-0.12 0.79332,-0.23333 1.01999,-0.34 l 0.26,1.56 c -0.22667,0.12 -0.62667,0.24667 -1.2,0.38 -0.56,0.13334 -1.2,0.2 -1.92,0.2 -0.90667,0 -1.69333,-0.13333 -2.36,-0.4 -0.65333,-0.28 -1.19333,-0.66 -1.62,-1.14 -0.42666,-0.48 -0.74666,-1.04666 -0.96,-1.7 -0.2,-0.66666 -0.3,-1.39333 -0.3,-2.18 m 7.14001,-1.02 c 0.0133,-0.83999 -0.20001,-1.52666 -0.64001,-2.06 -0.42667,-0.54665 -1.02,-0.81999 -1.78,-0.82 -0.42667,10e-6 -0.80667,0.0867 -1.13999,0.26 -0.32001,0.16001 -0.59334,0.37334 -0.82001,0.64 -0.22667,0.26668 -0.40667,0.57334 -0.54,0.92 -0.12,0.34668 -0.2,0.70001 -0.24,1.06 l 5.16001,0"
         inkscape:connector-curvature="0" />
      <path
         id="path5356"
         d="m 380.88125,357.89725 c 0.42666,-0.10665 0.99333,-0.21999 1.7,-0.34 0.70666,-0.11999 1.52,-0.17999 2.44,-0.18 0.82666,10e-6 1.51333,0.12001 2.06,0.36 0.54666,0.22668 0.97999,0.55335 1.3,0.98 0.33332,0.41335 0.56666,0.91334 0.7,1.5 0.13332,0.58668 0.19999,1.23334 0.2,1.94 l 0,5.84 -1.86,0 0,-5.44 c -10e-6,-0.63999 -0.0467,-1.18666 -0.14,-1.64 -0.08,-0.45332 -0.22001,-0.81999 -0.42,-1.1 -0.20001,-0.27999 -0.46667,-0.47999 -0.8,-0.6 -0.33334,-0.13332 -0.74667,-0.19999 -1.24,-0.2 -0.20001,1e-5 -0.40667,0.007 -0.62,0.02 -0.21334,0.0134 -0.42,0.0334 -0.62,0.06 -0.18667,0.0134 -0.36,0.0334 -0.52,0.06 -0.14667,0.0267 -0.25334,0.0467 -0.32,0.06 l 0,8.78 -1.86,0 0,-10.1"
         inkscape:connector-curvature="0" />
      <path
         id="path5358"
         d="m 395.88562,366.65725 c 0.44,0 0.82667,-0.007 1.16,-0.02 0.34667,-0.0267 0.63333,-0.0667 0.86,-0.12 l 0,-3.1 c -0.13334,-0.0667 -0.35334,-0.11999 -0.65999,-0.16 -0.29334,-0.0533 -0.65334,-0.08 -1.08001,-0.08 -0.28,10e-6 -0.58,0.02 -0.9,0.06 -0.30667,0.04 -0.59333,0.12667 -0.86,0.26 -0.25333,0.12001 -0.46666,0.29334 -0.64,0.52 -0.17333,0.21334 -0.26,0.50001 -0.26,0.86 0,0.66667 0.21334,1.13334 0.64,1.4 0.42667,0.25334 1.00667,0.38 1.74,0.38 m -0.16,-9.32 c 0.74667,1e-5 1.37333,0.10001 1.88,0.3 0.52,0.18668 0.93333,0.46001 1.24,0.82 0.32,0.34668 0.54666,0.76668 0.68,1.26 0.13333,0.48001 0.2,1.01334 0.2,1.6 l 0,6.5 c -0.16,0.0267 -0.38667,0.0667 -0.68,0.12 -0.28,0.04 -0.6,0.08 -0.96,0.12 -0.36,0.04 -0.75333,0.0733 -1.18,0.1 -0.41333,0.04 -0.82667,0.06 -1.24,0.06 -0.58667,0 -1.12667,-0.06 -1.62,-0.18 -0.49333,-0.12 -0.92,-0.30666 -1.28,-0.56 -0.36,-0.26666 -0.64,-0.61333 -0.83999,-1.04 -0.20001,-0.42666 -0.30001,-0.93999 -0.3,-1.54 -10e-6,-0.57333 0.11333,-1.06666 0.33999,-1.48 0.24,-0.41333 0.56,-0.74666 0.96001,-1 0.39999,-0.25332 0.86666,-0.43999 1.39999,-0.56 0.53333,-0.11999 1.09333,-0.17999 1.68,-0.18 0.18667,10e-6 0.38,0.0133 0.58,0.04 0.2,0.0133 0.38667,0.04 0.56,0.08 0.18667,0.0267 0.34666,0.0533 0.48001,0.08 0.13332,0.0267 0.22665,0.0467 0.27999,0.06 l 0,-0.52 c 0,-0.30666 -0.0333,-0.60666 -0.1,-0.9 -0.0667,-0.30666 -0.18668,-0.57332 -0.36001,-0.8 -0.17333,-0.23999 -0.41333,-0.42665 -0.72,-0.56 -0.29333,-0.14665 -0.68,-0.21999 -1.16,-0.22 -0.61333,10e-6 -1.15333,0.0467 -1.62,0.14 -0.45333,0.08 -0.79333,0.16668 -1.01999,0.26 l -0.22001,-1.54 c 0.24,-0.10665 0.64,-0.20665 1.2,-0.3 0.56,-0.10665 1.16667,-0.15999 1.82,-0.16"
         inkscape:connector-curvature="0" />
      <path
         id="path5360"
         d="m 406.63531,357.37725 c 0.16,10e-6 0.34,0.0134 0.54,0.04 0.21333,0.0134 0.42,0.04 0.62,0.08 0.2,0.0267 0.38,0.06 0.54,0.1 0.17333,0.0267 0.3,0.0534 0.38,0.08 l -0.32,1.62 c -0.14667,-0.0533 -0.39334,-0.11332 -0.74,-0.18 -0.33334,-0.08 -0.76667,-0.11999 -1.3,-0.12 -0.34667,10e-6 -0.69334,0.04 -1.04,0.12 -0.33333,0.0667 -0.55333,0.11335 -0.66,0.14 l 0,8.74 -1.86,0 0,-9.96 c 0.44,-0.15999 0.98667,-0.30665 1.64,-0.44 0.65333,-0.14665 1.38666,-0.21999 2.2,-0.22"
         inkscape:connector-curvature="0" />
    </g>
    <g
       id="flowRoot4505"
       style="font-size:20px;font-style:normal;font-variant:normal;font-weight:normal;font-stretch:normal;line-height:125%;letter-spacing:0px;word-spacing:0px;fill:#000000;fill-opacity:1;stroke:none;font-family:Ubuntu;-inkscape-font-specification:Ubuntu"
       transform="translate(-149.96933,-182.68738)">
      <path
         id="path5363"
         d="m 340.4175,367.99725 c -0.22668,-0.6 -0.44001,-1.18666 -0.64,-1.76 -0.20001,-0.58666 -0.40668,-1.17999 -0.62,-1.78 l -6.28,0 -1.26,3.54 -2.02,0 c 0.53333,-1.46666 1.03333,-2.81999 1.5,-4.06 0.46666,-1.25332 0.92,-2.43999 1.36,-3.56 0.45333,-1.11999 0.9,-2.18665 1.34,-3.2 0.44,-1.02665 0.89999,-2.03998 1.38,-3.04 l 1.78,0 c 0.47999,1.00002 0.93999,2.01335 1.38,3.04 0.43999,1.01335 0.87999,2.08001 1.32,3.2 0.45332,1.12001 0.91332,2.30668 1.38,3.56 0.46665,1.24001 0.96665,2.59334 1.5,4.06 l -2.12,0 m -1.82,-5.14 c -0.42668,-1.15999 -0.85334,-2.27999 -1.28,-3.36 -0.41334,-1.09332 -0.84667,-2.13999 -1.3,-3.14 -0.46667,1.00001 -0.91334,2.04668 -1.34,3.14 -0.41334,1.08001 -0.82667,2.20001 -1.24,3.36 l 5.16,0"
         inkscape:connector-curvature="0" />
      <path
         id="path5365"
         d="m 351.49969,362.81725 c -10e-6,-1.21332 -0.30001,-2.14666 -0.9,-2.8 -0.60001,-0.65332 -1.40001,-0.97999 -2.4,-0.98 -0.56001,1e-5 -1.00001,0.02 -1.32,0.06 -0.30667,0.04 -0.55334,0.0867 -0.74,0.14 l 0,6.56 c 0.22666,0.18667 0.55333,0.36667 0.98,0.54 0.42666,0.17334 0.89333,0.26 1.4,0.26 0.53332,0 0.98666,-0.0933 1.36,-0.28 0.38666,-0.2 0.69999,-0.46666 0.94,-0.8 0.23999,-0.34666 0.41332,-0.74666 0.52,-1.2 0.10666,-0.46666 0.15999,-0.96666 0.16,-1.5 m 1.94,0 c -10e-6,0.78667 -0.10668,1.51334 -0.32,2.18 -0.20001,0.66667 -0.50001,1.24 -0.9,1.72 -0.40001,0.48 -0.89334,0.85334 -1.48,1.12 -0.57334,0.26667 -1.23334,0.4 -1.98,0.4 -0.60001,0 -1.13334,-0.08 -1.6,-0.24 -0.45334,-0.16 -0.79334,-0.31333 -1.02,-0.46 l 0,4.16 -1.86,0 0,-13.78 c 0.44,-0.10665 0.98666,-0.21999 1.64,-0.34 0.66666,-0.13332 1.43333,-0.19999 2.3,-0.2 0.79999,10e-6 1.51999,0.12668 2.16,0.38 0.63999,0.25335 1.18666,0.61335 1.64,1.08 0.45332,0.46668 0.79999,1.04001 1.04,1.72 0.25332,0.66668 0.37999,1.42001 0.38,2.26"
         inkscape:connector-curvature="0" />
      <path
         id="path5367"
         d="m 365.25656,362.79725 c -10e-6,0.82667 -0.12001,1.57334 -0.36,2.24 -0.24001,0.66667 -0.58001,1.24 -1.02,1.72 -0.42667,0.48 -0.94001,0.85334 -1.54,1.12 -0.6,0.25334 -1.25334,0.38 -1.96,0.38 -0.70667,0 -1.36,-0.12666 -1.96,-0.38 -0.6,-0.26666 -1.12,-0.64 -1.56,-1.12 -0.42667,-0.48 -0.76,-1.05333 -1,-1.72 -0.24,-0.66666 -0.36,-1.41333 -0.36,-2.24 0,-0.81332 0.12,-1.55332 0.36,-2.22 0.24,-0.67999 0.57333,-1.25999 1,-1.74 0.44,-0.47999 0.96,-0.84665 1.56,-1.1 0.6,-0.26665 1.25333,-0.39999 1.96,-0.4 0.70666,1e-5 1.36,0.13335 1.96,0.4 0.59999,0.25335 1.11333,0.62001 1.54,1.1 0.43999,0.48001 0.77999,1.06001 1.02,1.74 0.23999,0.66668 0.35999,1.40668 0.36,2.22 m -1.94,0 c -10e-6,-1.17332 -0.26667,-2.09999 -0.8,-2.78 -0.52001,-0.69332 -1.23334,-1.03999 -2.14,-1.04 -0.90667,10e-6 -1.62667,0.34668 -2.16,1.04 -0.52,0.68001 -0.78,1.60668 -0.78,2.78 0,1.17334 0.26,2.10667 0.78,2.8 0.53333,0.68 1.25333,1.02 2.16,1.02 0.90666,0 1.61999,-0.34 2.14,-1.02 0.53333,-0.69333 0.79999,-1.62666 0.8,-2.8"
         inkscape:connector-curvature="0" />
      <path
         id="path5369"
         d="m 366.38,369.93725 c 0.14667,0.0667 0.33333,0.12667 0.56,0.18 0.24,0.0667 0.47333,0.1 0.7,0.1 0.73333,0 1.30666,-0.16667 1.72,-0.5 0.41333,-0.32 0.78666,-0.84666 1.12,-1.58 -0.84,-1.6 -1.62667,-3.29333 -2.36,-5.08 -0.72,-1.79999 -1.32,-3.61999 -1.8,-5.46 l 2,0 c 0.14666,0.60001 0.32,1.24668 0.52,1.94 0.21333,0.69334 0.44666,1.40668 0.7,2.14 0.25333,0.73334 0.52666,1.46667 0.82,2.2 0.29333,0.73334 0.6,1.44001 0.92,2.12 0.50666,-1.39999 0.94666,-2.78666 1.32,-4.16 0.37333,-1.37332 0.72666,-2.78665 1.06,-4.24 l 1.92,0 c -0.48001,1.96001 -1.01334,3.84668 -1.6,5.66 -0.58667,1.80001 -1.22001,3.48667 -1.9,5.06 -0.26667,0.6 -0.54667,1.11333 -0.84,1.54 -0.28,0.44 -0.59334,0.8 -0.94,1.08 -0.34667,0.28 -0.74,0.48667 -1.18,0.62 -0.42667,0.13333 -0.91334,0.2 -1.46,0.2 -0.14667,0 -0.3,-0.0133 -0.46,-0.04 -0.16,-0.0133 -0.32,-0.04 -0.48,-0.08 -0.14667,-0.0267 -0.28667,-0.06 -0.42,-0.1 -0.12,-0.04 -0.20667,-0.0733 -0.26,-0.1 l 0.34,-1.5"
         inkscape:connector-curvature="0" />
      <path
         id="path5371"
         d="m 381.04187,366.65725 c 0.44,0 0.82667,-0.007 1.16,-0.02 0.34667,-0.0267 0.63333,-0.0667 0.86,-0.12 l 0,-3.1 c -0.13334,-0.0667 -0.35334,-0.11999 -0.65999,-0.16 -0.29334,-0.0533 -0.65334,-0.08 -1.08001,-0.08 -0.28,10e-6 -0.58,0.02 -0.9,0.06 -0.30667,0.04 -0.59333,0.12667 -0.86,0.26 -0.25333,0.12001 -0.46666,0.29334 -0.64,0.52 -0.17333,0.21334 -0.26,0.50001 -0.26,0.86 0,0.66667 0.21334,1.13334 0.64,1.4 0.42667,0.25334 1.00667,0.38 1.74,0.38 m -0.16,-9.32 c 0.74667,1e-5 1.37333,0.10001 1.88,0.3 0.52,0.18668 0.93333,0.46001 1.24,0.82 0.32,0.34668 0.54666,0.76668 0.68,1.26 0.13333,0.48001 0.2,1.01334 0.2,1.6 l 0,6.5 c -0.16,0.0267 -0.38667,0.0667 -0.68,0.12 -0.28,0.04 -0.6,0.08 -0.96,0.12 -0.36,0.04 -0.75333,0.0733 -1.18,0.1 -0.41333,0.04 -0.82667,0.06 -1.24,0.06 -0.58667,0 -1.12667,-0.06 -1.62,-0.18 -0.49333,-0.12 -0.92,-0.30666 -1.28,-0.56 -0.36,-0.26666 -0.64,-0.61333 -0.83999,-1.04 -0.20001,-0.42666 -0.30001,-0.93999 -0.3,-1.54 -10e-6,-0.57333 0.11333,-1.06666 0.33999,-1.48 0.24,-0.41333 0.56,-0.74666 0.96001,-1 0.39999,-0.25332 0.86666,-0.43999 1.39999,-0.56 0.53333,-0.11999 1.09333,-0.17999 1.68,-0.18 0.18667,10e-6 0.38,0.0133 0.58,0.04 0.2,0.0133 0.38667,0.04 0.56,0.08 0.18667,0.0267 0.34666,0.0533 0.48001,0.08 0.13332,0.0267 0.22665,0.0467 0.27999,0.06 l 0,-0.52 c 0,-0.30666 -0.0333,-0.60666 -0.1,-0.9 -0.0667,-0.30666 -0.18668,-0.57332 -0.36001,-0.8 -0.17333,-0.23999 -0.41333,-0.42665 -0.72,-0.56 -0.29333,-0.14665 -0.68,-0.21999 -1.16,-0.22 -0.61333,10e-6 -1.15333,0.0467 -1.62,0.14 -0.45333,0.08 -0.79333,0.16668 -1.01999,0.26 l -0.22001,-1.54 c 0.24,-0.10665 0.64,-0.20665 1.2,-0.3 0.56,-0.10665 1.16667,-0.15999 1.82,-0.16"
         inkscape:connector-curvature="0" />
      <path
         id="path5373"
         d="m 391.79156,357.37725 c 0.16,10e-6 0.34,0.0134 0.54,0.04 0.21333,0.0134 0.42,0.04 0.62,0.08 0.2,0.0267 0.38,0.06 0.54,0.1 0.17333,0.0267 0.3,0.0534 0.38,0.08 l -0.32,1.62 c -0.14667,-0.0533 -0.39334,-0.11332 -0.74,-0.18 -0.33334,-0.08 -0.76667,-0.11999 -1.3,-0.12 -0.34667,10e-6 -0.69334,0.04 -1.04,0.12 -0.33333,0.0667 -0.55333,0.11335 -0.66,0.14 l 0,8.74 -1.86,0 0,-9.96 c 0.44,-0.15999 0.98667,-0.30665 1.64,-0.44 0.65333,-0.14665 1.38666,-0.21999 2.2,-0.22"
         inkscape:connector-curvature="0" />
    </g>
    <g
       id="flowRoot4513"
       style="font-size:20px;font-style:normal;font-variant:normal;font-weight:normal;font-stretch:normal;line-height:125%;letter-spacing:0px;word-spacing:0px;fill:#000000;fill-opacity:1;stroke:none;font-family:Ubuntu;-inkscape-font-specification:Ubuntu"
       transform="translate(-154.32354,-2.6363952)">
      <path
         id="path5331"
         d="m 342.5375,361.05725 c -1e-5,1.20001 -0.18668,2.24667 -0.56,3.14 -0.37335,0.88001 -0.90001,1.61334 -1.58,2.2 -0.68001,0.57334 -1.49334,1.00667 -2.44,1.3 -0.94667,0.28 -1.98667,0.42 -3.12,0.42 -0.56,0 -1.18,-0.0267 -1.86,-0.08 -0.66667,-0.04 -1.27334,-0.12666 -1.82,-0.26 l 0,-13.44 c 0.54666,-0.13332 1.15333,-0.21998 1.82,-0.26 0.68,-0.0533 1.3,-0.08 1.86,-0.08 1.13333,2e-5 2.17333,0.14668 3.12,0.44 0.94666,0.28002 1.75999,0.71335 2.44,1.3 0.67999,0.57335 1.20665,1.30668 1.58,2.2 0.37332,0.88001 0.55999,1.92001 0.56,3.12 m -7.54,5.36 c 1.83999,0 3.21332,-0.46666 4.12,-1.4 0.90666,-0.94666 1.35999,-2.26666 1.36,-3.96 -1e-5,-1.69332 -0.45334,-3.00665 -1.36,-3.94 -0.90668,-0.94665 -2.28001,-1.41998 -4.12,-1.42 -0.54667,2e-5 -0.97334,0.007 -1.28,0.02 -0.29334,0.0134 -0.5,0.0267 -0.62,0.04 l 0,10.6 c 0.12,0.0133 0.32666,0.0267 0.62,0.04 0.30666,0.0133 0.73333,0.02 1.28,0.02"
         inkscape:connector-curvature="0" />
      <path
         id="path5333"
         d="m 344.71531,362.81725 c 0,-0.91999 0.13333,-1.71999 0.4,-2.4 0.26667,-0.69332 0.62,-1.26665 1.06,-1.72 0.44,-0.45332 0.94667,-0.79332 1.52,-1.02 0.57333,-0.22665 1.16,-0.33999 1.76,-0.34 1.4,1e-5 2.47333,0.44001 3.22,1.32 0.74666,0.86668 1.11999,2.19334 1.12,3.98 -10e-6,0.08 -10e-6,0.18667 0,0.32 -10e-6,0.12001 -0.007,0.23334 -0.02,0.34 l -7.12,0 c 0.08,1.08001 0.39333,1.90001 0.94,2.46 0.54666,0.56 1.4,0.84 2.56,0.84 0.65333,0 1.19999,-0.0533 1.64,-0.16 0.45333,-0.12 0.79333,-0.23333 1.02,-0.34 l 0.26,1.56 c -0.22667,0.12 -0.62667,0.24667 -1.2,0.38 -0.56001,0.13334 -1.2,0.2 -1.92,0.2 -0.90667,0 -1.69334,-0.13333 -2.36,-0.4 -0.65333,-0.28 -1.19333,-0.66 -1.62,-1.14 -0.42667,-0.48 -0.74667,-1.04666 -0.96,-1.7 -0.2,-0.66666 -0.3,-1.39333 -0.3,-2.18 m 7.14,-1.02 c 0.0133,-0.83999 -0.20001,-1.52666 -0.64,-2.06 -0.42667,-0.54665 -1.02,-0.81999 -1.78,-0.82 -0.42667,10e-6 -0.80667,0.0867 -1.14,0.26 -0.32,0.16001 -0.59333,0.37334 -0.82,0.64 -0.22667,0.26668 -0.40667,0.57334 -0.54,0.92 -0.12,0.34668 -0.2,0.70001 -0.24,1.06 l 5.16,0"
         inkscape:connector-curvature="0" />
      <path
         id="path5335"
         d="m 359.58719,368.19725 c -1.14667,-0.0267 -1.96001,-0.27333 -2.44,-0.74 -0.48,-0.46666 -0.72,-1.19333 -0.72,-2.18 l 0,-12.48 1.86,-0.32 0,12.5 c -1e-5,0.30667 0.0267,0.56001 0.08,0.76 0.0533,0.20001 0.13999,0.36 0.26,0.48 0.11999,0.12 0.27999,0.21334 0.48,0.28 0.19999,0.0533 0.44666,0.1 0.74,0.14 l -0.26,1.56"
         inkscape:connector-curvature="0" />
      <path
         id="path5337"
         d="m 361.35594,362.81725 c 0,-0.91999 0.13333,-1.71999 0.4,-2.4 0.26666,-0.69332 0.62,-1.26665 1.06,-1.72 0.43999,-0.45332 0.94666,-0.79332 1.52,-1.02 0.57333,-0.22665 1.15999,-0.33999 1.76,-0.34 1.39999,1e-5 2.47332,0.44001 3.22,1.32 0.74665,0.86668 1.11999,2.19334 1.12,3.98 -1e-5,0.08 -1e-5,0.18667 0,0.32 -1e-5,0.12001 -0.007,0.23334 -0.02,0.34 l -7.12,0 c 0.08,1.08001 0.39333,1.90001 0.94,2.46 0.54666,0.56 1.39999,0.84 2.56,0.84 0.65332,0 1.19999,-0.0533 1.64,-0.16 0.45332,-0.12 0.79332,-0.23333 1.02,-0.34 l 0.26,1.56 c -0.22668,0.12 -0.62668,0.24667 -1.2,0.38 -0.56001,0.13334 -1.20001,0.2 -1.92,0.2 -0.90667,0 -1.69334,-0.13333 -2.36,-0.4 -0.65334,-0.28 -1.19334,-0.66 -1.62,-1.14 -0.42667,-0.48 -0.74667,-1.04666 -0.96,-1.7 -0.2,-0.66666 -0.3,-1.39333 -0.3,-2.18 m 7.14,-1.02 c 0.0133,-0.83999 -0.20001,-1.52666 -0.64,-2.06 -0.42668,-0.54665 -1.02001,-0.81999 -1.78,-0.82 -0.42667,10e-6 -0.80667,0.0867 -1.14,0.26 -0.32001,0.16001 -0.59334,0.37334 -0.82,0.64 -0.22667,0.26668 -0.40667,0.57334 -0.54,0.92 -0.12001,0.34668 -0.20001,0.70001 -0.24,1.06 l 5.16,0"
         inkscape:connector-curvature="0" />
      <path
         id="path5339"
         d="m 379.62781,366.95725 c -0.16001,0.10667 -0.47334,0.24667 -0.94,0.42 -0.45334,0.16 -0.98667,0.24 -1.6,0.24 -0.62667,0 -1.22,-0.1 -1.78,-0.3 -0.54667,-0.2 -1.02667,-0.50666 -1.44,-0.92 -0.41333,-0.42666 -0.74,-0.95333 -0.98,-1.58 -0.24,-0.62666 -0.36,-1.37333 -0.36,-2.24 0,-0.75999 0.11333,-1.45332 0.34,-2.08 0.22667,-0.63999 0.55333,-1.18665 0.98,-1.64 0.44,-0.46665 0.97333,-0.82665 1.6,-1.08 0.62666,-0.26665 1.33333,-0.39999 2.12,-0.4 0.86666,10e-6 1.61999,0.0667 2.26,0.2 0.65333,0.12001 1.19999,0.23335 1.64,0.34 l 0,9.28 c -10e-6,1.6 -0.41334,2.76 -1.24,3.48 -0.82667,0.72 -2.08,1.08 -3.76,1.08 -0.65334,0 -1.27333,-0.0533 -1.86,-0.16 -0.57333,-0.10667 -1.07333,-0.23333 -1.5,-0.38 l 0.34,-1.62 c 0.37333,0.14667 0.82667,0.27333 1.36,0.38 0.54667,0.12 1.11333,0.18 1.7,0.18 1.10666,0 1.9,-0.22 2.38,-0.66 0.49333,-0.44 0.73999,-1.14 0.74,-2.1 l 0,-0.44 m -0.02,-7.72 c -0.18667,-0.0533 -0.44001,-0.1 -0.76,-0.14 -0.30667,-0.0533 -0.72667,-0.08 -1.26,-0.08 -1,1e-5 -1.77334,0.32668 -2.32,0.98 -0.53333,0.65334 -0.8,1.52001 -0.8,2.6 0,0.60001 0.0733,1.11334 0.22,1.54 0.16,0.42667 0.36667,0.78001 0.62,1.06 0.26667,0.28001 0.56666,0.48667 0.9,0.62 0.34666,0.13334 0.7,0.20001 1.06,0.2 0.49333,1e-5 0.94666,-0.0667 1.36,-0.2 0.41333,-0.14666 0.73999,-0.31333 0.98,-0.5 l 0,-6.08"
         inkscape:connector-curvature="0" />
      <path
         id="path5341"
         d="m 388.19031,366.65725 c 0.44,0 0.82666,-0.007 1.16,-0.02 0.34666,-0.0267 0.63333,-0.0667 0.86,-0.12 l 0,-3.1 c -0.13334,-0.0667 -0.35334,-0.11999 -0.66,-0.16 -0.29334,-0.0533 -0.65334,-0.08 -1.08,-0.08 -0.28,10e-6 -0.58,0.02 -0.9,0.06 -0.30667,0.04 -0.59333,0.12667 -0.86,0.26 -0.25333,0.12001 -0.46667,0.29334 -0.64,0.52 -0.17333,0.21334 -0.26,0.50001 -0.26,0.86 0,0.66667 0.21333,1.13334 0.64,1.4 0.42667,0.25334 1.00666,0.38 1.74,0.38 m -0.16,-9.32 c 0.74666,1e-5 1.37333,0.10001 1.88,0.3 0.52,0.18668 0.93333,0.46001 1.24,0.82 0.31999,0.34668 0.54666,0.76668 0.68,1.26 0.13333,0.48001 0.19999,1.01334 0.2,1.6 l 0,6.5 c -0.16001,0.0267 -0.38667,0.0667 -0.68,0.12 -0.28001,0.04 -0.60001,0.08 -0.96,0.12 -0.36,0.04 -0.75334,0.0733 -1.18,0.1 -0.41334,0.04 -0.82667,0.06 -1.24,0.06 -0.58667,0 -1.12667,-0.06 -1.62,-0.18 -0.49333,-0.12 -0.92,-0.30666 -1.28,-0.56 -0.36,-0.26666 -0.64,-0.61333 -0.84,-1.04 -0.2,-0.42666 -0.3,-0.93999 -0.3,-1.54 0,-0.57333 0.11333,-1.06666 0.34,-1.48 0.24,-0.41333 0.56,-0.74666 0.96,-1 0.4,-0.25332 0.86667,-0.43999 1.4,-0.56 0.53333,-0.11999 1.09333,-0.17999 1.68,-0.18 0.18666,10e-6 0.38,0.0133 0.58,0.04 0.2,0.0133 0.38666,0.04 0.56,0.08 0.18666,0.0267 0.34666,0.0533 0.48,0.08 0.13333,0.0267 0.22666,0.0467 0.28,0.06 l 0,-0.52 c 0,-0.30666 -0.0333,-0.60666 -0.1,-0.9 -0.0667,-0.30666 -0.18667,-0.57332 -0.36,-0.8 -0.17334,-0.23999 -0.41334,-0.42665 -0.72,-0.56 -0.29334,-0.14665 -0.68,-0.21999 -1.16,-0.22 -0.61334,10e-6 -1.15333,0.0467 -1.62,0.14 -0.45333,0.08 -0.79333,0.16668 -1.02,0.26 l -0.22,-1.54 c 0.24,-0.10665 0.64,-0.20665 1.2,-0.3 0.56,-0.10665 1.16666,-0.15999 1.82,-0.16"
         inkscape:connector-curvature="0" />
      <path
         id="path5343"
         d="m 398.94,357.37725 c 0.15999,10e-6 0.33999,0.0134 0.54,0.04 0.21333,0.0134 0.41999,0.04 0.62,0.08 0.19999,0.0267 0.37999,0.06 0.54,0.1 0.17333,0.0267 0.29999,0.0534 0.38,0.08 l -0.32,1.62 c -0.14667,-0.0533 -0.39334,-0.11332 -0.74,-0.18 -0.33334,-0.08 -0.76667,-0.11999 -1.3,-0.12 -0.34667,10e-6 -0.69334,0.04 -1.04,0.12 -0.33334,0.0667 -0.55334,0.11335 -0.66,0.14 l 0,8.74 -1.86,0 0,-9.96 c 0.44,-0.15999 0.98666,-0.30665 1.64,-0.44 0.65333,-0.14665 1.38666,-0.21999 2.2,-0.22"
         inkscape:connector-curvature="0" />
    </g>
  </g>
</svg>
