<?xml version="1.0" encoding="UTF-8" standalone="no"?>
<!-- Created with Inkscape (http://www.inkscape.org/) -->

<svg
   xmlns:dc="http://purl.org/dc/elements/1.1/"
   xmlns:cc="http://creativecommons.org/ns#"
   xmlns:rdf="http://www.w3.org/1999/02/22-rdf-syntax-ns#"
   xmlns:svg="http://www.w3.org/2000/svg"
   xmlns="http://www.w3.org/2000/svg"
   xmlns:sodipodi="http://sodipodi.sourceforge.net/DTD/sodipodi-0.dtd"
   xmlns:inkscape="http://www.inkscape.org/namespaces/inkscape"
   width="526.45837"
   height="374.95422"
   id="svg2"
   version="1.1"
   inkscape:version="0.48.3.1 r9886"
   sodipodi:docname="me_dif_pm.svg">
  <defs
     id="defs4" />
  <sodipodi:namedview
     id="base"
     pagecolor="#ffffff"
     bordercolor="#666666"
     borderopacity="1.0"
     inkscape:pageopacity="0.0"
     inkscape:pageshadow="2"
     inkscape:zoom="1.1511719"
     inkscape:cx="376.02448"
     inkscape:cy="244.72806"
     inkscape:document-units="px"
     inkscape:current-layer="layer1"
     showgrid="false"
     showguides="true"
     inkscape:guide-bbox="true"
     fit-margin-top="0"
     fit-margin-left="0"
     fit-margin-right="0"
     fit-margin-bottom="0"
     inkscape:window-width="1676"
     inkscape:window-height="1011"
     inkscape:window-x="1280"
     inkscape:window-y="18"
     inkscape:window-maximized="0">
    <sodipodi:guide
       orientation="0,1"
       position="-59.783117,188.60319"
       id="guide3755" />
  </sodipodi:namedview>
  <metadata
     id="metadata7">
    <rdf:RDF>
      <cc:Work
         rdf:about="">
        <dc:format>image/svg+xml</dc:format>
        <dc:type
           rdf:resource="http://purl.org/dc/dcmitype/StillImage" />
        <dc:title></dc:title>
      </cc:Work>
    </rdf:RDF>
  </metadata>
  <g
     inkscape:label="Layer 1"
     inkscape:groupmode="layer"
     id="layer1"
     transform="translate(1.0244839,-680.1136)">
    <path
       sodipodi:type="arc"
       style="fill:#80859d;fill-opacity:1;stroke:#000000;stroke-width:0.90700001;stroke-linecap:round;stroke-linejoin:miter;stroke-miterlimit:4;stroke-opacity:1;stroke-dasharray:none;stroke-dashoffset:0"
       id="path2985"
       sodipodi:cx="261.90701"
       sodipodi:cy="186.58406"
       sodipodi:rx="262.7757"
       sodipodi:ry="186.33186"
       d="m 524.68271,186.58406 c 0,102.90825 -117.64869,186.33186 -262.7757,186.33186 C 116.78,372.91592 -0.86868286,289.49231 -0.86868286,186.58406 -0.86868286,83.675814 116.78,0.25219727 261.90701,0.25219727 c 145.12701,0 262.7757,83.42361673 262.7757,186.33186273 z"
       transform="translate(0.29769897,680.3149)" />
    <path
       sodipodi:type="arc"
       style="fill:#80859d;fill-opacity:1;stroke:#ffffff;stroke-width:4.30705786;stroke-linecap:round;stroke-linejoin:miter;stroke-miterlimit:4;stroke-opacity:1;stroke-dasharray:none;stroke-dashoffset:0"
       id="path3757"
       sodipodi:cx="262.34137"
       sodipodi:cy="279.53281"
       sodipodi:rx="263.21005"
       sodipodi:ry="93.383102"
       d="m 525.55142,279.53281 c 0,51.57406 -117.84315,93.3831 -263.21005,93.3831 -145.3669,0 -263.21005286,-41.80904 -263.21005286,-93.3831 0,-51.57407 117.84315286,-93.38311 263.21005286,-93.38311 145.3669,0 263.21005,41.80904 263.21005,93.38311 z"
       transform="matrix(0.72764061,0,0,1,71.314478,680.3149)" />
    <g
       transform="translate(-0.77575684,680.3149)"
       style="font-size:22px;font-style:normal;font-variant:normal;font-weight:bold;font-stretch:normal;text-align:center;line-height:125%;letter-spacing:0px;word-spacing:0px;text-anchor:middle;fill:#f2f2f2;fill-opacity:1;stroke:none;font-family:Droid Sans Arabic;-inkscape-font-specification:Sans Bold"
       id="flowRoot3759">
      <path
         d="m 158.53418,54.202896 6.23047,0 0,8.142578 c -0.41538,0.136068 -0.83432,0.261393 -1.25684,0.375976 -0.42254,0.107422 -0.86297,0.200521 -1.32129,0.279297 -0.45118,0.07162 -0.92742,0.128906 -1.42871,0.171875 -0.49415,0.04297 -1.02051,0.06445 -1.5791,0.06445 -1.17449,0 -2.21648,-0.171875 -3.12598,-0.515625 -0.90234,-0.350911 -1.66504,-0.866535 -2.28808,-1.546875 -0.61589,-0.687497 -1.08496,-1.532548 -1.40723,-2.535156 -0.32227,-1.00976 -0.4834,-2.173496 -0.4834,-3.491211 0,-1.231762 0.17904,-2.345367 0.53711,-3.34082 0.35807,-0.995431 0.88444,-1.840482 1.5791,-2.535156 0.70182,-0.701809 1.5612,-1.238918 2.57813,-1.611329 1.02408,-0.379541 2.19498,-0.56932 3.51269,-0.569336 0.83788,1.6e-5 1.65787,0.08954 2.45997,0.268555 0.80207,0.179052 1.53611,0.411799 2.20214,0.698242 l -1.10644,2.664063 c -0.48699,-0.243477 -1.03842,-0.447579 -1.6543,-0.612305 -0.60873,-0.1647 -1.24968,-0.247057 -1.92285,-0.24707 -0.73048,1.3e-5 -1.38933,0.128919 -1.97656,0.386719 -0.58009,0.250663 -1.07781,0.608736 -1.49317,1.074218 -0.41537,0.465506 -0.73405,1.02768 -0.95605,1.686524 -0.22201,0.658863 -0.33301,1.392912 -0.33301,2.202148 0,0.773445 0.0752,1.482428 0.22559,2.126953 0.15754,0.637375 0.40103,1.188807 0.73047,1.654297 0.32942,0.465499 0.75194,0.827152 1.26757,1.084961 0.52278,0.257815 1.14583,0.386721 1.86914,0.386719 0.47265,2e-6 0.87011,-0.02148 1.19239,-0.06445 0.32941,-0.04297 0.63736,-0.0931 0.92383,-0.150391 l 0,-3.276367 -2.97559,0 0,-2.771484"
         style=""
         id="path3795" />
      <path
         d="m 173.11133,53.117935 c -0.58009,10e-6 -1.06348,0.204111 -1.4502,0.612304 -0.37956,0.408212 -0.59798,1.049162 -0.65527,1.922852 l 4.17871,0 c -0.007,-0.365227 -0.0537,-0.701815 -0.13965,-1.009766 -0.0859,-0.307934 -0.21485,-0.572907 -0.38672,-0.794922 -0.17188,-0.229157 -0.38672,-0.408193 -0.64453,-0.537109 -0.25782,-0.128896 -0.5586,-0.193349 -0.90234,-0.193359 m 0.41894,10.11914 c -0.85938,0 -1.65072,-0.125325 -2.37402,-0.375976 -0.72331,-0.250651 -1.34636,-0.626627 -1.86914,-1.12793 -0.52279,-0.508462 -0.93099,-1.145831 -1.22461,-1.912109 -0.28646,-0.773434 -0.42969,-1.679357 -0.42969,-2.717774 0,-1.052727 0.13249,-1.972974 0.39746,-2.760742 0.26498,-0.787751 0.63379,-1.443024 1.10645,-1.96582 0.47981,-0.529937 1.05273,-0.927398 1.71875,-1.192383 0.67317,-0.264962 1.41796,-0.397449 2.23437,-0.397461 0.79492,1.2e-5 1.51106,0.121757 2.14844,0.365234 0.64452,0.23634 1.18879,0.587251 1.63281,1.052735 0.45116,0.465505 0.79491,1.038421 1.03125,1.71875 0.24348,0.673185 0.36523,1.446622 0.36524,2.320312 l 0,1.589844 -7.32617,0 c 0.0143,0.458338 0.0859,0.873702 0.21484,1.246094 0.13606,0.365238 0.32226,0.676761 0.55859,0.93457 0.24349,0.250654 0.53353,0.444013 0.87012,0.580078 0.34374,0.13607 0.73404,0.204104 1.1709,0.204102 0.36523,2e-6 0.70898,-0.0179 1.03125,-0.05371 0.32942,-0.04297 0.6481,-0.103839 0.95605,-0.182617 0.30794,-0.07877 0.6123,-0.175453 0.91309,-0.290039 0.30077,-0.121742 0.60871,-0.261391 0.92383,-0.418946 l 0,2.535156 c -0.28647,0.150392 -0.57651,0.279298 -0.87012,0.386719 -0.28647,0.100261 -0.59083,0.186198 -0.91309,0.257813 -0.32227,0.07161 -0.6696,0.121744 -1.04199,0.15039 -0.3724,0.03581 -0.7806,0.05371 -1.22461,0.05371"
         style=""
         id="path3797" />
      <path
         d="m 189.06348,59.455825 c -1e-5,0.630212 -0.1146,1.181643 -0.34375,1.654297 -0.22918,0.472658 -0.55503,0.866538 -0.97754,1.181641 -0.42254,0.315104 -0.93458,0.551432 -1.53614,0.708984 -0.60156,0.157552 -1.27474,0.236328 -2.01953,0.236328 -0.39388,0 -0.75912,-0.01432 -1.0957,-0.04297 -0.33659,-0.02149 -0.65528,-0.06087 -0.95605,-0.118165 -0.30079,-0.05729 -0.59083,-0.128906 -0.87012,-0.214843 -0.2793,-0.08594 -0.56218,-0.193359 -0.84863,-0.322266 l 0,-2.707031 c 0.30078,0.150394 0.61588,0.286461 0.94531,0.408203 0.33658,0.121747 0.66959,0.229169 0.99902,0.322266 0.32943,0.08594 0.64811,0.153973 0.95606,0.204101 0.3151,0.05013 0.60513,0.0752 0.87011,0.0752 0.29362,3e-6 0.54427,-0.02506 0.75196,-0.0752 0.20767,-0.05729 0.37597,-0.132484 0.50488,-0.225586 0.13606,-0.100258 0.23274,-0.214841 0.29004,-0.34375 0.0645,-0.136065 0.0967,-0.279294 0.0967,-0.429687 -1e-5,-0.150387 -0.0251,-0.282874 -0.0752,-0.397461 -0.043,-0.121741 -0.14681,-0.247067 -0.31152,-0.375977 -0.16472,-0.136063 -0.40821,-0.286454 -0.73047,-0.451172 -0.31511,-0.17187 -0.74121,-0.379552 -1.27832,-0.623047 -0.52279,-0.236322 -0.97754,-0.469069 -1.36426,-0.698242 -0.37956,-0.236322 -0.69466,-0.497715 -0.94531,-0.784179 -0.24349,-0.286452 -0.42611,-0.612298 -0.54785,-0.977539 -0.12175,-0.372388 -0.18262,-0.812818 -0.18262,-1.32129 0,-0.558584 0.10742,-1.045563 0.32227,-1.460937 0.21484,-0.422515 0.5192,-0.773426 0.91308,-1.052734 0.39388,-0.279286 0.86654,-0.486968 1.41797,-0.623047 0.55859,-0.143217 1.17806,-0.214832 1.8584,-0.214844 0.71614,1.2e-5 1.39648,0.08237 2.04102,0.24707 0.64452,0.164726 1.30695,0.411796 1.9873,0.741211 l -0.98828,2.320313 c -0.54428,-0.257804 -1.06349,-0.469066 -1.55762,-0.633789 -0.49415,-0.164704 -0.98829,-0.247061 -1.48242,-0.247071 -0.44402,1e-5 -0.76628,0.07879 -0.9668,0.236328 -0.19336,0.157562 -0.29004,0.372406 -0.29004,0.644532 0,0.143238 0.0251,0.272144 0.0752,0.386718 0.0501,0.107431 0.15039,0.222014 0.30078,0.34375 0.15039,0.114592 0.36165,0.243498 0.63379,0.386719 0.27213,0.136076 0.62662,0.30437 1.06348,0.504883 0.50845,0.222012 0.96679,0.444017 1.375,0.666016 0.40819,0.21485 0.7591,0.46192 1.05273,0.741211 0.29361,0.279302 0.5192,0.605148 0.67676,0.977539 0.15754,0.3724 0.23632,0.823571 0.23633,1.353515"
         style=""
         id="path3799" />
      <path
         d="m 196.50781,60.626724 c 0.32226,2e-6 0.62662,-0.03581 0.91309,-0.107422 0.29361,-0.07161 0.59081,-0.16113 0.8916,-0.268555 l 0,2.438477 c -0.30795,0.157552 -0.69109,0.286458 -1.14941,0.386718 -0.45118,0.107422 -0.94532,0.161133 -1.48243,0.161133 -0.52279,0 -1.00977,-0.06087 -1.46093,-0.182617 -0.45118,-0.121745 -0.84148,-0.333007 -1.1709,-0.633789 -0.32943,-0.307942 -0.59082,-0.716144 -0.78418,-1.224609 -0.1862,-0.515623 -0.2793,-1.160154 -0.2793,-1.933594 l 0,-5.790039 -1.56836,0 0,-1.385742 1.80469,-1.095703 0.94531,-2.535157 2.09473,0 0,2.556641 2.92187,0 0,2.459961 -2.92187,0 0,5.790039 c -1e-5,0.465498 0.11458,0.809248 0.34375,1.03125 0.22916,0.222008 0.52994,0.33301 0.90234,0.333008"
         style=""
         id="path3801" />
      <path
         d="m 200.60059,47.907974 c -1e-5,-0.307928 0.0465,-0.562159 0.13964,-0.762696 0.0931,-0.207666 0.21843,-0.372379 0.37598,-0.49414 0.16471,-0.12889 0.35449,-0.218408 0.56934,-0.268555 0.222,-0.05011 0.45475,-0.07518 0.69824,-0.07519 0.24349,1.7e-5 0.47265,0.02508 0.6875,0.07519 0.21484,0.05015 0.40104,0.139665 0.55859,0.268555 0.16471,0.121761 0.29362,0.286474 0.38672,0.49414 0.10026,0.200537 0.15039,0.454768 0.15039,0.762696 0,0.300796 -0.0501,0.555027 -0.15039,0.762695 -0.0931,0.207696 -0.22201,0.375991 -0.38672,0.504883 -0.15755,0.121758 -0.34375,0.211277 -0.55859,0.268555 -0.21485,0.05014 -0.44401,0.07521 -0.6875,0.0752 -0.24349,1.3e-5 -0.47624,-0.02505 -0.69824,-0.0752 -0.21485,-0.05728 -0.40463,-0.146797 -0.56934,-0.268555 -0.15755,-0.128892 -0.28288,-0.297187 -0.37598,-0.504883 -0.0931,-0.207668 -0.13965,-0.461899 -0.13964,-0.762695 m 3.41601,15.114258 -3.27637,0 0,-12.009766 3.27637,0 0,12.009766"
         style=""
         id="path3803" />
      <path
         d="m 210.17187,56.995864 c 0,1.195969 0.16829,2.098312 0.50489,2.707032 0.33658,0.601565 0.88443,0.902346 1.64355,0.902343 0.75195,3e-6 1.29622,-0.304359 1.63281,-0.913086 0.33658,-0.60872 0.50488,-1.507482 0.50489,-2.696289 -1e-5,-1.195956 -0.16831,-2.087557 -0.50489,-2.674804 -0.33659,-0.594392 -0.88802,-0.891592 -1.65429,-0.891602 -0.75196,1e-5 -1.29623,0.29721 -1.63281,0.891602 -0.32944,0.587247 -0.49415,1.478848 -0.49415,2.674804 m 7.62696,0 c -1e-5,1.00261 -0.12892,1.890629 -0.38672,2.664063 -0.25066,0.77344 -0.6159,1.425132 -1.0957,1.955078 -0.47267,0.529949 -1.05275,0.934571 -1.74024,1.213867 -0.68034,0.272136 -1.44662,0.408203 -2.29883,0.408203 -0.79492,0 -1.52539,-0.136067 -2.1914,-0.408203 -0.66602,-0.279296 -1.24252,-0.683918 -1.72949,-1.213867 -0.47982,-0.529946 -0.8558,-1.181638 -1.12793,-1.955078 -0.27214,-0.773434 -0.40821,-1.661453 -0.40821,-2.664063 0,-0.995435 0.12533,-1.879875 0.37598,-2.65332 0.25781,-0.773428 0.62304,-1.421539 1.0957,-1.944336 0.47982,-0.529937 1.05989,-0.930978 1.74024,-1.203125 0.68033,-0.272123 1.45019,-0.408191 2.30957,-0.408203 0.79491,1.2e-5 1.52538,0.13608 2.1914,0.408203 0.66601,0.272147 1.23893,0.673188 1.71875,1.203125 0.48697,0.522797 0.86653,1.170908 1.13867,1.944336 0.27213,0.773445 0.4082,1.657885 0.40821,2.65332 m -7.41211,-7.304687 0,-0.290039 c 0.15038,-0.207669 0.31152,-0.447577 0.4834,-0.719727 0.17187,-0.272121 0.34016,-0.551417 0.50488,-0.83789 0.17187,-0.293605 0.333,-0.583643 0.4834,-0.870118 0.15038,-0.293603 0.28287,-0.562157 0.39746,-0.805664 l 3.67383,0 0,0.225586 c -0.0788,0.128923 -0.19337,0.282894 -0.34375,0.461914 -0.1504,0.171891 -0.32228,0.358089 -0.51563,0.558594 -0.19337,0.200536 -0.40105,0.408218 -0.62304,0.623047 -0.22202,0.207697 -0.4476,0.411798 -0.67676,0.612305 -0.22202,0.200535 -0.43686,0.390313 -0.64453,0.569336 -0.20769,0.17905 -0.39389,0.336602 -0.5586,0.472656 l -2.18066,0"
         style=""
         id="path3805" />
      <path
         d="m 231.05469,63.022232 -3.27637,0 0,-7.014649 c -1e-5,-0.866528 -0.1325,-1.51464 -0.39746,-1.944336 -0.25782,-0.436839 -0.67319,-0.655264 -1.24609,-0.655273 -0.4297,9e-6 -0.78777,0.08595 -1.07422,0.257812 -0.28647,0.171884 -0.51563,0.426116 -0.6875,0.762696 -0.16472,0.336596 -0.28289,0.751961 -0.3545,1.246093 -0.0716,0.494148 -0.10742,1.059902 -0.10742,1.697266 l 0,5.650391 -3.27636,0 0,-12.009766 2.50293,0 0.44042,1.536133 0.18262,0 c 0.17187,-0.307932 0.37955,-0.572906 0.62305,-0.794922 0.25064,-0.221994 0.52278,-0.404611 0.81641,-0.547852 0.29361,-0.143217 0.60513,-0.247058 0.93457,-0.311523 0.32942,-0.0716 0.666,-0.10741 1.00976,-0.107422 0.58723,1.2e-5 1.12076,0.08595 1.60059,0.257812 0.4798,0.164726 0.89159,0.426119 1.23535,0.78418 0.34374,0.358084 0.60871,0.816417 0.79492,1.375 0.18619,0.551442 0.27929,1.213876 0.2793,1.987305 l 0,7.831055"
         style=""
         id="path3807" />
      <path
         d="m 243.67676,63.237075 c -0.61589,0 -1.17807,-0.132487 -1.68653,-0.397461 -0.50846,-0.264973 -0.94531,-0.655272 -1.31054,-1.170898 -0.36524,-0.522785 -0.6517,-1.170896 -0.85938,-1.944336 -0.20052,-0.773433 -0.30078,-1.668615 -0.30078,-2.685547 0,-1.031243 0.10026,-1.933586 0.30078,-2.707031 0.20768,-0.78059 0.49772,-1.432282 0.87012,-1.955078 0.37955,-0.529937 0.83073,-0.927398 1.35352,-1.192383 0.52278,-0.264962 1.09927,-0.397449 1.72949,-0.397461 0.38671,1.2e-5 0.7412,0.04656 1.06347,0.139648 0.32226,0.08595 0.6123,0.211275 0.87012,0.375977 0.25781,0.157564 0.48697,0.343761 0.6875,0.558594 0.20768,0.207693 0.39029,0.436859 0.54785,0.6875 l 0.10742,0 c -0.043,-0.279286 -0.0824,-0.562164 -0.11816,-0.848633 -0.0358,-0.243478 -0.068,-0.50129 -0.0967,-0.773438 -0.0215,-0.279284 -0.0322,-0.537096 -0.0322,-0.773437 l 0,-3.845703 3.27637,0 0,16.714844 -2.50293,0 -0.63379,-1.557618 -0.13965,0 c -0.15039,0.243491 -0.32227,0.476238 -0.51562,0.698243 -0.19337,0.214844 -0.41895,0.401042 -0.67676,0.558593 -0.25066,0.157553 -0.53711,0.282878 -0.85937,0.375977 -0.31511,0.0931 -0.67319,0.139648 -1.07422,0.139648 m 1.19238,-2.610351 c 0.38671,2e-6 0.71614,-0.06445 0.98828,-0.19336 0.27213,-0.136065 0.49055,-0.336585 0.65528,-0.601562 0.17186,-0.272132 0.29719,-0.60872 0.37597,-1.009766 0.0859,-0.401037 0.13248,-0.870112 0.13965,-1.407226 l 0,-0.354493 c -1e-5,-0.580071 -0.0358,-1.095696 -0.10742,-1.546875 -0.0716,-0.451163 -0.18979,-0.82714 -0.35449,-1.127929 -0.16473,-0.307934 -0.38673,-0.540681 -0.66602,-0.698242 -0.2793,-0.157543 -0.63021,-0.236319 -1.05273,-0.236329 -0.68751,1e-5 -1.19239,0.311533 -1.51465,0.934571 -0.32227,0.615893 -0.48341,1.514655 -0.4834,2.696289 -1e-5,1.181645 0.16113,2.069665 0.4834,2.664062 0.32942,0.587243 0.84146,0.880862 1.53613,0.88086"
         style=""
         id="path3809" />
      <path
         d="m 258.36133,53.117935 c -0.58009,10e-6 -1.06348,0.204111 -1.4502,0.612304 -0.37956,0.408212 -0.59798,1.049162 -0.65527,1.922852 l 4.17871,0 c -0.007,-0.365227 -0.0537,-0.701815 -0.13965,-1.009766 -0.0859,-0.307934 -0.21485,-0.572907 -0.38672,-0.794922 -0.17188,-0.229157 -0.38672,-0.408193 -0.64453,-0.537109 -0.25782,-0.128896 -0.5586,-0.193349 -0.90234,-0.193359 m 0.41894,10.11914 c -0.85938,0 -1.65072,-0.125325 -2.37402,-0.375976 -0.72331,-0.250651 -1.34636,-0.626627 -1.86914,-1.12793 -0.52279,-0.508462 -0.93099,-1.145831 -1.22461,-1.912109 -0.28646,-0.773434 -0.42969,-1.679357 -0.42969,-2.717774 0,-1.052727 0.13249,-1.972974 0.39746,-2.760742 0.26498,-0.787751 0.63379,-1.443024 1.10645,-1.96582 0.47981,-0.529937 1.05273,-0.927398 1.71875,-1.192383 0.67317,-0.264962 1.41796,-0.397449 2.23437,-0.397461 0.79492,1.2e-5 1.51106,0.121757 2.14844,0.365234 0.64452,0.23634 1.18879,0.587251 1.63281,1.052735 0.45116,0.465505 0.79491,1.038421 1.03125,1.71875 0.24348,0.673185 0.36523,1.446622 0.36524,2.320312 l 0,1.589844 -7.32617,0 c 0.0143,0.458338 0.0859,0.873702 0.21484,1.246094 0.13606,0.365238 0.32226,0.676761 0.55859,0.93457 0.24349,0.250654 0.53353,0.444013 0.87012,0.580078 0.34374,0.13607 0.73404,0.204104 1.1709,0.204102 0.36523,2e-6 0.70898,-0.0179 1.03125,-0.05371 0.32942,-0.04297 0.6481,-0.103839 0.95605,-0.182617 0.30794,-0.07877 0.6123,-0.175453 0.91309,-0.290039 0.30077,-0.121742 0.60871,-0.261391 0.92383,-0.418946 l 0,2.535156 c -0.28647,0.150392 -0.57651,0.279298 -0.87012,0.386719 -0.28647,0.100261 -0.59083,0.186198 -0.91309,0.257813 -0.32227,0.07161 -0.6696,0.121744 -1.04199,0.15039 -0.3724,0.03581 -0.7806,0.05371 -1.22461,0.05371"
         style=""
         id="path3811" />
      <path
         d="m 278.3418,63.237075 c -0.39389,0 -0.74838,-0.04297 -1.06348,-0.128906 -0.30795,-0.08594 -0.58366,-0.200521 -0.82715,-0.34375 -0.24349,-0.143229 -0.45834,-0.304361 -0.64453,-0.483398 -0.1862,-0.186197 -0.3545,-0.379557 -0.50488,-0.580079 l -0.17188,0 c 0.0286,0.250653 0.0573,0.48698 0.0859,0.708985 0.0215,0.186198 0.0394,0.379557 0.0537,0.580078 0.0215,0.193359 0.0322,0.34375 0.0322,0.451172 l 0,4.866211 -3.27637,0 0,-17.294922 2.66406,0 0.46192,1.557617 0.15039,0 c 0.15038,-0.243479 0.32226,-0.472645 0.51562,-0.6875 0.19336,-0.214832 0.41536,-0.40103 0.66602,-0.558594 0.2578,-0.164701 0.54784,-0.293607 0.87012,-0.386718 0.32225,-0.100249 0.68033,-0.150379 1.07421,-0.150391 0.62304,1.2e-5 1.1888,0.132499 1.69727,0.397461 0.50845,0.264985 0.9453,0.658865 1.31055,1.181641 0.36522,0.522796 0.6481,1.170907 0.84863,1.944335 0.20051,0.773446 0.30077,1.668627 0.30078,2.685547 -1e-5,1.024094 -0.10385,1.926437 -0.31152,2.707032 -0.2077,0.77344 -0.50132,1.425132 -0.88086,1.955078 -0.37241,0.522787 -0.82,0.916667 -1.34278,1.18164 -0.51563,0.264974 -1.08496,0.397461 -1.708,0.397461 m -1.02051,-9.829101 c -0.36524,9e-6 -0.67677,0.06804 -0.93457,0.204101 -0.25066,0.128916 -0.45476,0.325856 -0.61231,0.590821 -0.15755,0.264982 -0.27214,0.60157 -0.34375,1.009765 -0.0716,0.401049 -0.11458,0.870124 -0.1289,1.407227 l 0,0.354492 c -10e-6,0.580084 0.0322,1.095708 0.0967,1.546875 0.0716,0.451176 0.18619,0.830733 0.34375,1.138672 0.15754,0.300784 0.36523,0.529951 0.62304,0.6875 0.26497,0.157554 0.59082,0.23633 0.97754,0.236328 0.65169,2e-6 1.12792,-0.30794 1.42871,-0.923828 0.30794,-0.623043 0.46191,-1.525386 0.46192,-2.707031 -1e-5,-1.181634 -0.15398,-2.066073 -0.46192,-2.653321 -0.30079,-0.594391 -0.78418,-0.891592 -1.45019,-0.891601"
         style=""
         id="path3813" />
      <path
         d="m 291.65137,50.78688 c 0.0859,1.2e-5 0.17903,0.0036 0.27929,0.01074 0.10742,1.2e-5 0.20768,0.0072 0.30079,0.02149 0.10025,0.0072 0.18977,0.01791 0.26855,0.03223 0.0859,0.0072 0.15038,0.01792 0.19336,0.03223 l 0,3.072265 c -0.0573,-0.01431 -0.13608,-0.02864 -0.23633,-0.04297 -0.10027,-0.01431 -0.20769,-0.02506 -0.32226,-0.03223 -0.10743,-0.01431 -0.21486,-0.02147 -0.32227,-0.02148 -0.10743,-0.0072 -0.19695,-0.01073 -0.26855,-0.01074 -0.42254,1e-5 -0.81284,0.05372 -1.1709,0.161133 -0.35092,0.107431 -0.65528,0.282887 -0.91309,0.526367 -0.25066,0.236337 -0.4476,0.551441 -0.59082,0.945313 -0.13607,0.386726 -0.20411,0.862962 -0.2041,1.428711 l 0,6.112305 -3.27637,0 0,-12.009766 2.48145,0 0.4834,1.804687 0.16113,0 c 0.17187,-0.307932 0.35807,-0.587228 0.55859,-0.83789 0.20052,-0.25064 0.42252,-0.461903 0.66602,-0.633789 0.25064,-0.179025 0.52994,-0.315092 0.83789,-0.408203 0.3151,-0.100249 0.67317,-0.150379 1.07422,-0.150391"
         style=""
         id="path3815" />
      <path
         d="m 297.65625,56.995864 c 0,1.195969 0.16829,2.098312 0.50488,2.707032 0.33659,0.601565 0.88444,0.902346 1.64356,0.902343 0.75194,3e-6 1.29621,-0.304359 1.63281,-0.913086 0.33658,-0.60872 0.50487,-1.507482 0.50488,-2.696289 -1e-5,-1.195956 -0.1683,-2.087557 -0.50488,-2.674804 -0.3366,-0.594392 -0.88803,-0.891592 -1.6543,-0.891602 -0.75196,1e-5 -1.29623,0.29721 -1.63281,0.891602 -0.32943,0.587247 -0.49414,1.478848 -0.49414,2.674804 m 7.62695,0 c -1e-5,1.00261 -0.12892,1.890629 -0.38672,2.664063 -0.25066,0.77344 -0.61589,1.425132 -1.0957,1.955078 -0.47267,0.529949 -1.05274,0.934571 -1.74023,1.213867 -0.68035,0.272136 -1.44663,0.408203 -2.29883,0.408203 -0.79493,0 -1.5254,-0.136067 -2.19141,-0.408203 -0.66602,-0.279296 -1.24251,-0.683918 -1.72949,-1.213867 -0.47982,-0.529946 -0.8558,-1.181638 -1.12793,-1.955078 -0.27214,-0.773434 -0.4082,-1.661453 -0.4082,-2.664063 0,-0.995435 0.12532,-1.879875 0.37597,-2.65332 0.25781,-0.773428 0.62305,-1.421539 1.09571,-1.944336 0.47981,-0.529937 1.05989,-0.930978 1.74023,-1.203125 0.68034,-0.272123 1.45019,-0.408191 2.30957,-0.408203 0.79492,1.2e-5 1.52538,0.13608 2.19141,0.408203 0.666,0.272147 1.23892,0.673188 1.71875,1.203125 0.48697,0.522797 0.86652,1.170908 1.13867,1.944336 0.27212,0.773445 0.40819,1.657885 0.4082,2.65332"
         style=""
         id="path3817" />
      <path
         d="m 306.40039,51.012466 3.58789,0 1.93359,6.756836 c 0.11458,0.372401 0.19694,0.769861 0.24708,1.192383 0.0573,0.422529 0.0931,0.802086 0.10742,1.138672 l 0.0645,0 c 0.0143,-0.164711 0.0322,-0.347328 0.0537,-0.547852 0.0286,-0.200517 0.0609,-0.404619 0.0967,-0.612305 0.0358,-0.207678 0.0752,-0.411779 0.11816,-0.612304 0.0501,-0.207678 0.10026,-0.393876 0.1504,-0.558594 l 1.89062,-6.756836 3.60938,0 -4.74805,13.545898 c -0.44402,1.267576 -1.04916,2.209307 -1.81543,2.825196 -0.76628,0.61588 -1.72592,0.923823 -2.87891,0.923828 -0.3724,-5e-6 -0.69466,-0.02149 -0.96679,-0.06445 -0.27214,-0.03581 -0.50489,-0.0752 -0.69825,-0.118164 l 0,-2.59961 c 0.15039,0.0358 0.34017,0.06803 0.56934,0.09668 0.22916,0.02864 0.46907,0.04297 0.71973,0.04297 0.34374,-3e-6 0.63736,-0.04655 0.88086,-0.139649 0.24348,-0.0931 0.45116,-0.225588 0.62304,-0.397461 0.17904,-0.164715 0.32943,-0.365236 0.45117,-0.601562 0.12891,-0.23633 0.23991,-0.501303 0.33301,-0.794922 l 0.2041,-0.601563 -4.5332,-12.117187"
         style=""
         id="path3819" />
      <path
         d="m 324.83398,53.117935 c -0.58008,10e-6 -1.06348,0.204111 -1.45019,0.612304 -0.37956,0.408212 -0.59799,1.049162 -0.65527,1.922852 l 4.17871,0 c -0.007,-0.365227 -0.0537,-0.701815 -0.13965,-1.009766 -0.086,-0.307934 -0.21485,-0.572907 -0.38672,-0.794922 -0.17188,-0.229157 -0.38673,-0.408193 -0.64453,-0.537109 -0.25782,-0.128896 -0.5586,-0.193349 -0.90235,-0.193359 m 0.41895,10.11914 c -0.85938,0 -1.65072,-0.125325 -2.37402,-0.375976 -0.72331,-0.250651 -1.34636,-0.626627 -1.86914,-1.12793 -0.52279,-0.508462 -0.931,-1.145831 -1.22461,-1.912109 -0.28646,-0.773434 -0.42969,-1.679357 -0.42969,-2.717774 0,-1.052727 0.13248,-1.972974 0.39746,-2.760742 0.26497,-0.787751 0.63379,-1.443024 1.10644,-1.96582 0.47982,-0.529937 1.05274,-0.927398 1.71875,-1.192383 0.67318,-0.264962 1.41797,-0.397449 2.23438,-0.397461 0.79491,1.2e-5 1.51106,0.121757 2.14844,0.365234 0.64452,0.23634 1.18879,0.587251 1.63281,1.052735 0.45116,0.465505 0.79491,1.038421 1.03125,1.71875 0.24348,0.673185 0.36522,1.446622 0.36523,2.320312 l 0,1.589844 -7.32617,0 c 0.0143,0.458338 0.0859,0.873702 0.21485,1.246094 0.13606,0.365238 0.32226,0.676761 0.55859,0.93457 0.24348,0.250654 0.53352,0.444013 0.87012,0.580078 0.34374,0.13607 0.73404,0.204104 1.1709,0.204102 0.36522,2e-6 0.70897,-0.0179 1.03125,-0.05371 0.32941,-0.04297 0.6481,-0.103839 0.95605,-0.182617 0.30793,-0.07877 0.6123,-0.175453 0.91309,-0.290039 0.30077,-0.121742 0.60871,-0.261391 0.92382,-0.418946 l 0,2.535156 c -0.28646,0.150392 -0.5765,0.279298 -0.87011,0.386719 -0.28647,0.100261 -0.59083,0.186198 -0.91309,0.257813 -0.32227,0.07161 -0.6696,0.121744 -1.04199,0.15039 -0.3724,0.03581 -0.78061,0.05371 -1.22461,0.05371"
         style=""
         id="path3821" />
      <path
         d="m 337.77832,63.237075 c -0.85938,0 -1.6364,-0.118164 -2.33105,-0.354492 -0.68751,-0.236328 -1.27833,-0.601562 -1.77247,-1.095703 -0.48698,-0.5013 -0.86295,-1.13867 -1.12793,-1.912109 -0.25781,-0.780595 -0.38671,-1.711584 -0.38671,-2.792969 0,-1.195957 0.13248,-2.194979 0.39746,-2.99707 0.27213,-0.809236 0.65169,-1.457347 1.13867,-1.944336 0.49414,-0.486968 1.08496,-0.834299 1.77246,-1.041993 0.69466,-0.20767 1.46451,-0.311511 2.30957,-0.311523 0.61588,1.2e-5 1.22818,0.07521 1.83691,0.225586 0.60872,0.150402 1.18164,0.361665 1.71875,0.633789 l -0.94531,2.492187 c -0.47266,-0.207673 -0.92742,-0.375967 -1.36426,-0.504882 -0.43685,-0.136059 -0.85222,-0.204092 -1.24609,-0.204102 -0.79493,1e-5 -1.37142,0.304371 -1.72949,0.913086 -0.35808,0.601571 -0.53712,1.507494 -0.53711,2.717773 -1e-5,1.20313 0.17903,2.09115 0.53711,2.664063 0.35807,0.572919 0.92024,0.859377 1.68652,0.859375 0.62304,2e-6 1.1888,-0.07877 1.69727,-0.236328 0.50845,-0.164711 1.02766,-0.372393 1.55761,-0.623047 l 0,2.728516 c -0.26498,0.128906 -0.52279,0.24349 -0.77343,0.34375 -0.25066,0.10026 -0.50489,0.182617 -0.7627,0.24707 -0.25066,0.06445 -0.51563,0.111002 -0.79492,0.139648 -0.27214,0.03581 -0.56576,0.05371 -0.88086,0.05371"
         style=""
         id="path3823" />
      <path
         d="m 348.66016,60.626724 c 0.32225,2e-6 0.62662,-0.03581 0.91308,-0.107422 0.29361,-0.07161 0.59081,-0.16113 0.8916,-0.268555 l 0,2.438477 c -0.30795,0.157552 -0.69108,0.286458 -1.14941,0.386718 -0.45118,0.107422 -0.94532,0.161133 -1.48242,0.161133 -0.52279,0 -1.00977,-0.06087 -1.46094,-0.182617 -0.45118,-0.121745 -0.84147,-0.333007 -1.1709,-0.633789 -0.32943,-0.307942 -0.59082,-0.716144 -0.78418,-1.224609 -0.1862,-0.515623 -0.2793,-1.160154 -0.27929,-1.933594 l 0,-5.790039 -1.56836,0 0,-1.385742 1.80468,-1.095703 0.94532,-2.535157 2.09472,0 0,2.556641 2.92188,0 0,2.459961 -2.92188,0 0,5.790039 c 0,0.465498 0.11458,0.809248 0.34375,1.03125 0.22916,0.222008 0.52994,0.33301 0.90235,0.333008"
         style=""
         id="path3825" />
      <path
         d="m 355.62109,56.995864 c 0,1.195969 0.16829,2.098312 0.50489,2.707032 0.33658,0.601565 0.88443,0.902346 1.64355,0.902343 0.75195,3e-6 1.29622,-0.304359 1.63281,-0.913086 0.33658,-0.60872 0.50488,-1.507482 0.50489,-2.696289 -1e-5,-1.195956 -0.16831,-2.087557 -0.50489,-2.674804 -0.33659,-0.594392 -0.88802,-0.891592 -1.65429,-0.891602 -0.75196,1e-5 -1.29623,0.29721 -1.63282,0.891602 -0.32943,0.587247 -0.49414,1.478848 -0.49414,2.674804 m 7.62696,0 c -2e-5,1.00261 -0.12892,1.890629 -0.38672,2.664063 -0.25066,0.77344 -0.6159,1.425132 -1.09571,1.955078 -0.47266,0.529949 -1.05274,0.934571 -1.74023,1.213867 -0.68035,0.272136 -1.44662,0.408203 -2.29883,0.408203 -0.79493,0 -1.52539,-0.136067 -2.1914,-0.408203 -0.66602,-0.279296 -1.24252,-0.683918 -1.7295,-1.213867 -0.47982,-0.529946 -0.85579,-1.181638 -1.12793,-1.955078 -0.27213,-0.773434 -0.4082,-1.661453 -0.4082,-2.664063 0,-0.995435 0.12533,-1.879875 0.37598,-2.65332 0.25781,-0.773428 0.62304,-1.421539 1.0957,-1.944336 0.47982,-0.529937 1.05989,-0.930978 1.74024,-1.203125 0.68033,-0.272123 1.45018,-0.408191 2.30957,-0.408203 0.79491,1.2e-5 1.52538,0.13608 2.1914,0.408203 0.66601,0.272147 1.23892,0.673188 1.71875,1.203125 0.48697,0.522797 0.86653,1.170908 1.13867,1.944336 0.27213,0.773445 0.40819,1.657885 0.40821,2.65332"
         style=""
         id="path3827" />
      <path
         d="m 374.08691,59.455825 c -10e-6,0.630212 -0.11459,1.181643 -0.34375,1.654297 -0.22917,0.472658 -0.55502,0.866538 -0.97754,1.181641 -0.42253,0.315104 -0.93457,0.551432 -1.53613,0.708984 -0.60157,0.157552 -1.27474,0.236328 -2.01953,0.236328 -0.39388,0 -0.75912,-0.01432 -1.0957,-0.04297 -0.33659,-0.02149 -0.65528,-0.06087 -0.95606,-0.118165 -0.30078,-0.05729 -0.59082,-0.128906 -0.87011,-0.214843 -0.2793,-0.08594 -0.56218,-0.193359 -0.84864,-0.322266 l 0,-2.707031 c 0.30078,0.150394 0.61589,0.286461 0.94532,0.408203 0.33658,0.121747 0.66959,0.229169 0.99902,0.322266 0.32942,0.08594 0.64811,0.153973 0.95605,0.204101 0.3151,0.05013 0.60514,0.0752 0.87012,0.0752 0.29362,3e-6 0.54427,-0.02506 0.75195,-0.0752 0.20768,-0.05729 0.37597,-0.132484 0.50489,-0.225586 0.13606,-0.100258 0.23274,-0.214841 0.29004,-0.34375 0.0644,-0.136065 0.0967,-0.279294 0.0967,-0.429687 -10e-6,-0.150387 -0.0251,-0.282874 -0.0752,-0.397461 -0.043,-0.121741 -0.14682,-0.247067 -0.31152,-0.375977 -0.16472,-0.136063 -0.40821,-0.286454 -0.73047,-0.451172 -0.31511,-0.17187 -0.74122,-0.379552 -1.27832,-0.623047 -0.52279,-0.236322 -0.97754,-0.469069 -1.36426,-0.698242 -0.37956,-0.236322 -0.69466,-0.497715 -0.94531,-0.784179 -0.24349,-0.286452 -0.42611,-0.612298 -0.54785,-0.977539 -0.12175,-0.372388 -0.18262,-0.812818 -0.18262,-1.32129 0,-0.558584 0.10742,-1.045563 0.32226,-1.460937 0.21485,-0.422515 0.51921,-0.773426 0.91309,-1.052734 0.39388,-0.279286 0.86653,-0.486968 1.41797,-0.623047 0.55859,-0.143217 1.17805,-0.214832 1.8584,-0.214844 0.71614,1.2e-5 1.39647,0.08237 2.04101,0.24707 0.64453,0.164726 1.30696,0.411796 1.98731,0.741211 l -0.98828,2.320313 c -0.54428,-0.257804 -1.06349,-0.469066 -1.55762,-0.633789 -0.49415,-0.164704 -0.98829,-0.247061 -1.48242,-0.247071 -0.44402,1e-5 -0.76628,0.07879 -0.9668,0.236328 -0.19336,0.157562 -0.29004,0.372406 -0.29004,0.644532 0,0.143238 0.0251,0.272144 0.0752,0.386718 0.0501,0.107431 0.15038,0.222014 0.30078,0.34375 0.15038,0.114592 0.36165,0.243498 0.63379,0.386719 0.27213,0.136076 0.62662,0.30437 1.06347,0.504883 0.50846,0.222012 0.96679,0.444017 1.375,0.666016 0.4082,0.21485 0.75911,0.46192 1.05274,0.741211 0.29361,0.279302 0.51919,0.605148 0.67676,0.977539 0.15754,0.3724 0.23631,0.823571 0.23632,1.353515"
         style=""
         id="path3829" />
    </g>
    <g
       transform="translate(7.4395752,680.3149)"
       style="font-size:22px;font-style:normal;font-variant:normal;font-weight:bold;font-stretch:normal;text-align:center;line-height:125%;letter-spacing:0px;word-spacing:0px;text-anchor:middle;fill:#e6e6e6;fill-opacity:1;stroke:none;font-family:Droid Sans Arabic;-inkscape-font-specification:Sans Bold"
       id="flowRoot3767">
      <path
         d="m 154.86816,229.67555 c -0.63737,2e-5 -1.20313,0.12534 -1.69726,0.37598 -0.48699,0.2435 -0.89877,0.59799 -1.23535,1.06347 -0.32944,0.45835 -0.58009,1.02052 -0.75196,1.68653 -0.17188,0.65886 -0.25781,1.40007 -0.25781,2.22363 0,0.8379 0.0752,1.58269 0.22559,2.23438 0.15754,0.65169 0.39387,1.20313 0.70898,1.65429 0.32226,0.44402 0.73046,0.78419 1.22461,1.02051 0.5013,0.22917 1.0957,0.34375 1.7832,0.34375 0.63736,0 1.27473,-0.0716 1.91211,-0.21484 0.64452,-0.14323 1.34276,-0.34733 2.09473,-0.61231 l 0,2.79297 c -0.34376,0.14323 -0.68393,0.26498 -1.02051,0.36524 -0.3366,0.10026 -0.68035,0.18261 -1.03125,0.24707 -0.35092,0.0644 -0.71257,0.111 -1.08496,0.13964 -0.36524,0.0358 -0.75912,0.0537 -1.18164,0.0537 -1.21029,0 -2.25945,-0.19336 -3.14746,-0.58008 -0.88803,-0.38672 -1.62207,-0.93099 -2.20215,-1.63282 -0.58008,-0.70182 -1.00977,-1.54687 -1.28906,-2.53515 -0.2793,-0.98828 -0.41895,-2.08756 -0.41895,-3.29785 0,-1.1888 0.16113,-2.27734 0.4834,-3.26563 0.32227,-0.99543 0.79492,-1.85122 1.41797,-2.56738 0.62304,-0.71613 1.3929,-1.27114 2.30957,-1.66504 0.91666,-0.40103 1.96939,-0.60155 3.1582,-0.60156 0.78059,1e-5 1.56119,0.10027 2.3418,0.30078 0.78775,0.19337 1.5397,0.46193 2.25586,0.80566 l -1.07422,2.70703 c -0.58725,-0.27928 -1.17807,-0.52277 -1.77246,-0.73046 -0.59441,-0.20767 -1.17807,-0.31151 -1.75098,-0.31153"
         style=""
         id="path3832" />
      <path
         d="m 164.67578,236.80836 c 0,1.19597 0.16829,2.09832 0.50488,2.70704 0.33659,0.60156 0.88444,0.90234 1.64356,0.90234 0.75194,0 1.29621,-0.30436 1.63281,-0.91309 0.33658,-0.60872 0.50488,-1.50748 0.50488,-2.69629 0,-1.19595 -0.1683,-2.08755 -0.50488,-2.6748 -0.3366,-0.59439 -0.88803,-0.89159 -1.6543,-0.8916 -0.75195,1e-5 -1.29622,0.29721 -1.63281,0.8916 -0.32943,0.58725 -0.49414,1.47885 -0.49414,2.6748 m 7.62695,0 c -1e-5,1.00261 -0.12891,1.89063 -0.38671,2.66407 -0.25067,0.77344 -0.6159,1.42513 -1.09571,1.95507 -0.47266,0.52995 -1.05274,0.93458 -1.74023,1.21387 -0.68035,0.27214 -1.44662,0.40821 -2.29883,0.40821 -0.79493,0 -1.5254,-0.13607 -2.19141,-0.40821 -0.66602,-0.27929 -1.24251,-0.68392 -1.72949,-1.21387 -0.47982,-0.52994 -0.85579,-1.18163 -1.12793,-1.95507 -0.27213,-0.77344 -0.4082,-1.66146 -0.4082,-2.66407 0,-0.99543 0.12532,-1.87987 0.37598,-2.65332 0.25781,-0.77342 0.62304,-1.42154 1.0957,-1.94433 0.47981,-0.52994 1.05989,-0.93098 1.74023,-1.20313 0.68034,-0.27212 1.45019,-0.40819 2.30957,-0.4082 0.79492,1e-5 1.52539,0.13608 2.19141,0.4082 0.66601,0.27215 1.23892,0.67319 1.71875,1.20313 0.48697,0.52279 0.86652,1.17091 1.13867,1.94433 0.27212,0.77345 0.40819,1.65789 0.4082,2.65332"
         style=""
         id="path3834" />
      <path
         d="m 185.55859,242.83473 -3.27636,0 0,-7.01465 c -1e-5,-0.86653 -0.1325,-1.51464 -0.39746,-1.94433 -0.25783,-0.43684 -0.67319,-0.65527 -1.2461,-0.65528 -0.42969,1e-5 -0.78776,0.0859 -1.07422,0.25782 -0.28646,0.17188 -0.51563,0.42611 -0.6875,0.76269 -0.16472,0.3366 -0.28288,0.75196 -0.35449,1.2461 -0.0716,0.49414 -0.10743,1.0599 -0.10742,1.69726 l 0,5.65039 -3.27637,0 0,-12.00976 2.50293,0 0.44043,1.53613 0.18262,0 c 0.17187,-0.30793 0.37955,-0.57291 0.62305,-0.79492 0.25064,-0.222 0.52278,-0.40461 0.8164,-0.54785 0.29361,-0.14322 0.60514,-0.24706 0.93457,-0.31153 0.32942,-0.0716 0.66601,-0.10741 1.00977,-0.10742 0.58723,1e-5 1.12076,0.0859 1.60058,0.25781 0.47981,0.16473 0.89159,0.42612 1.23535,0.78418 0.34374,0.35809 0.60872,0.81642 0.79493,1.375 0.18618,0.55144 0.27928,1.21388 0.27929,1.98731 l 0,7.83105"
         style=""
         id="path3836" />
      <path
         d="m 193.80859,240.43922 c 0.32226,1e-5 0.62662,-0.0358 0.91309,-0.10742 0.29361,-0.0716 0.59081,-0.16113 0.8916,-0.26855 l 0,2.43847 c -0.30795,0.15756 -0.69109,0.28646 -1.14941,0.38672 -0.45118,0.10742 -0.94532,0.16114 -1.48242,0.16114 -0.5228,0 -1.00978,-0.0609 -1.46094,-0.18262 -0.45118,-0.12175 -0.84148,-0.33301 -1.1709,-0.63379 -0.32943,-0.30794 -0.59082,-0.71615 -0.78418,-1.22461 -0.1862,-0.51562 -0.2793,-1.16015 -0.2793,-1.93359 l 0,-5.79004 -1.56836,0 0,-1.38575 1.80469,-1.0957 0.94531,-2.53515 2.09473,0 0,2.55664 2.92187,0 0,2.45996 -2.92187,0 0,5.79004 c -1e-5,0.46549 0.11458,0.80924 0.34375,1.03125 0.22916,0.222 0.52994,0.33301 0.90234,0.333"
         style=""
         id="path3838" />
      <path
         d="m 204.30371,230.59938 c 0.0859,1e-5 0.17903,0.004 0.2793,0.0107 0.10741,1e-5 0.20767,0.007 0.30078,0.0215 0.10025,0.007 0.18977,0.0179 0.26855,0.0322 0.0859,0.007 0.15039,0.0179 0.19336,0.0322 l 0,3.07227 c -0.0573,-0.0143 -0.13607,-0.0286 -0.23633,-0.043 -0.10026,-0.0143 -0.20769,-0.0251 -0.32226,-0.0322 -0.10743,-0.0143 -0.21485,-0.0215 -0.32227,-0.0215 -0.10743,-0.007 -0.19694,-0.0107 -0.26855,-0.0108 -0.42253,1e-5 -0.81283,0.0537 -1.1709,0.16114 -0.35092,0.10743 -0.65528,0.28288 -0.91309,0.52636 -0.25065,0.23634 -0.44759,0.55144 -0.59082,0.94532 -0.13607,0.38672 -0.2041,0.86296 -0.2041,1.42871 l 0,6.1123 -3.27636,0 0,-12.00976 2.48144,0 0.4834,1.80468 0.16113,0 c 0.17187,-0.30793 0.35807,-0.58723 0.5586,-0.83789 0.20051,-0.25064 0.42252,-0.4619 0.66601,-0.63379 0.25065,-0.17902 0.52994,-0.31509 0.83789,-0.4082 0.3151,-0.10025 0.67317,-0.15038 1.07422,-0.15039"
         style=""
         id="path3840" />
      <path
         d="m 210.30859,236.80836 c 0,1.19597 0.16829,2.09832 0.50489,2.70704 0.33658,0.60156 0.88443,0.90234 1.64355,0.90234 0.75195,0 1.29622,-0.30436 1.63281,-0.91309 0.33658,-0.60872 0.50488,-1.50748 0.50489,-2.69629 -1e-5,-1.19595 -0.16831,-2.08755 -0.50489,-2.6748 -0.33659,-0.59439 -0.88802,-0.89159 -1.65429,-0.8916 -0.75196,1e-5 -1.29623,0.29721 -1.63282,0.8916 -0.32943,0.58725 -0.49414,1.47885 -0.49414,2.6748 m 7.62696,0 c -2e-5,1.00261 -0.12892,1.89063 -0.38672,2.66407 -0.25066,0.77344 -0.6159,1.42513 -1.09571,1.95507 -0.47266,0.52995 -1.05274,0.93458 -1.74023,1.21387 -0.68035,0.27214 -1.44662,0.40821 -2.29883,0.40821 -0.79493,0 -1.52539,-0.13607 -2.1914,-0.40821 -0.66602,-0.27929 -1.24252,-0.68392 -1.7295,-1.21387 -0.47982,-0.52994 -0.85579,-1.18163 -1.12793,-1.95507 -0.27213,-0.77344 -0.4082,-1.66146 -0.4082,-2.66407 0,-0.99543 0.12533,-1.87987 0.37598,-2.65332 0.25781,-0.77342 0.62304,-1.42154 1.0957,-1.94433 0.47982,-0.52994 1.05989,-0.93098 1.74024,-1.20313 0.68033,-0.27212 1.45018,-0.40819 2.30957,-0.4082 0.79491,1e-5 1.52538,0.13608 2.1914,0.4082 0.66601,0.27215 1.23892,0.67319 1.71875,1.20313 0.48697,0.52279 0.86653,1.17091 1.13867,1.94433 0.27213,0.77345 0.40819,1.65789 0.40821,2.65332"
         style=""
         id="path3842" />
      <path
         d="m 224.04785,242.83473 -3.27637,0 0,-16.71484 3.27637,0 0,16.71484"
         style=""
         id="path3844" />
      <path
         d="m 231.4707,230.82497 3.58789,0 1.9336,6.75683 c 0.11458,0.3724 0.19693,0.76986 0.24707,1.19238 0.0573,0.42253 0.0931,0.80209 0.10742,1.13868 l 0.0645,0 c 0.0143,-0.16471 0.0322,-0.34733 0.0537,-0.54786 0.0286,-0.20051 0.0609,-0.40461 0.0967,-0.6123 0.0358,-0.20768 0.0752,-0.41178 0.11817,-0.6123 0.0501,-0.20768 0.10025,-0.39388 0.15039,-0.5586 l 1.89062,-6.75683 3.60938,0 -4.74805,13.54589 c -0.44402,1.26758 -1.04916,2.20931 -1.81543,2.8252 -0.76628,0.61588 -1.72591,0.92382 -2.8789,0.92383 -0.3724,-1e-5 -0.69467,-0.0215 -0.9668,-0.0645 -0.27214,-0.0358 -0.50489,-0.0752 -0.69824,-0.11816 l 0,-2.59961 c 0.15039,0.0358 0.34016,0.068 0.56933,0.0967 0.22917,0.0286 0.46908,0.043 0.71973,0.043 0.34375,0 0.63737,-0.0465 0.88086,-0.13965 0.24348,-0.0931 0.45117,-0.22559 0.62304,-0.39746 0.17904,-0.16472 0.32943,-0.36524 0.45118,-0.60156 0.1289,-0.23633 0.2399,-0.50131 0.333,-0.79492 l 0.20411,-0.60157 -4.53321,-12.11718"
         style=""
         id="path3846" />
      <path
         d="m 260.06641,242.83473 -9.04493,0 0,-15.70508 9.04493,0 0,2.72852 -5.71485,0 0,3.44824 5.31739,0 0,2.72852 -5.31739,0 0,4.0498 5.71485,0 0,2.75"
         style=""
         id="path3848" />
      <path
         d="m 265.62012,242.83473 -4.24317,-12.00976 3.42676,0 1.98731,6.84277 c 0.12173,0.40821 0.22558,0.83431 0.31152,1.27832 0.0931,0.43685 0.15038,0.83073 0.17187,1.18164 l 0.0645,0 c 0.0215,-0.37955 0.0752,-0.7806 0.16113,-1.20312 0.0931,-0.42969 0.20051,-0.84863 0.32227,-1.25684 l 1.97656,-6.84277 3.4375,0 -4.24317,12.00976 -3.37304,0"
         style=""
         id="path3850" />
      <path
         d="m 281.92676,242.83473 -0.63379,-1.63281 -0.0967,0 c -0.23634,0.32227 -0.47266,0.60156 -0.70899,0.83789 -0.23633,0.22917 -0.49414,0.41895 -0.77343,0.56934 -0.27931,0.15039 -0.59441,0.26139 -0.94532,0.333 -0.34375,0.0716 -0.74479,0.10743 -1.20312,0.10743 -0.48698,0 -0.93815,-0.0752 -1.35352,-0.22559 -0.41536,-0.15755 -0.77702,-0.3903 -1.08496,-0.69824 -0.30078,-0.31511 -0.53711,-0.70899 -0.70898,-1.18164 -0.17188,-0.47982 -0.25781,-1.04557 -0.25781,-1.69727 0,-1.27473 0.4082,-2.21288 1.22461,-2.81445 0.8164,-0.60872 2.03743,-0.94531 3.66308,-1.00977 l 1.91211,-0.0644 0,-0.90234 c -1e-5,-0.49414 -0.14324,-0.85937 -0.42969,-1.09571 -0.28646,-0.23632 -0.6875,-0.35448 -1.20312,-0.35449 -0.51563,1e-5 -1.02051,0.0752 -1.51465,0.22559 -0.48698,0.1504 -0.97754,0.35092 -1.47168,0.60156 l -1.06348,-2.16992 c 0.60156,-0.33658 1.26758,-0.60155 1.99805,-0.79493 0.73046,-0.19334 1.49674,-0.29002 2.29883,-0.29003 1.49674,1e-5 2.64257,0.35092 3.4375,1.05273 0.80207,0.70183 1.20311,1.76889 1.20312,3.20117 l 0,8.00293 -2.28808,0 m -0.9668,-5.56445 -1.08496,0.043 c -0.43686,0.0143 -0.80567,0.0716 -1.10645,0.17187 -0.30078,0.10027 -0.54427,0.23634 -0.73046,0.40821 -0.17905,0.16471 -0.31153,0.36523 -0.39747,0.60156 -0.0788,0.22917 -0.11816,0.48698 -0.11816,0.77344 0,0.5013 0.12174,0.85937 0.36524,1.07421 0.24348,0.20769 0.56216,0.31153 0.95605,0.31153 0.30078,0 0.58007,-0.0501 0.83789,-0.15039 0.25781,-0.10742 0.47981,-0.26139 0.66602,-0.46192 0.19335,-0.20768 0.34374,-0.45833 0.45117,-0.75195 0.10741,-0.30078 0.16112,-0.64453 0.16113,-1.03125 l 0,-0.98828"
         style=""
         id="path3852" />
      <path
         d="m 290.86426,242.83473 -3.27637,0 0,-16.71484 3.27637,0 0,16.71484"
         style=""
         id="path3854" />
      <path
         d="m 302.14355,242.83473 -0.44043,-1.53613 -0.17187,0 c -0.17905,0.30794 -0.39389,0.57292 -0.64453,0.79492 -0.2435,0.21484 -0.51205,0.39388 -0.80567,0.53711 -0.29362,0.14323 -0.60515,0.24707 -0.93457,0.31152 -0.32943,0.0716 -0.66602,0.10743 -1.00976,0.10743 -0.58725,0 -1.12077,-0.0824 -1.60059,-0.24708 -0.47982,-0.17187 -0.8916,-0.43684 -1.23535,-0.79492 -0.34375,-0.35807 -0.60872,-0.81282 -0.79492,-1.36425 -0.1862,-0.55143 -0.2793,-1.21387 -0.2793,-1.98731 l 0,-7.83105 3.27637,0 0,7.01464 c -10e-6,0.86654 0.1289,1.51824 0.38672,1.95508 0.26497,0.42969 0.68391,0.64454 1.25683,0.64453 0.42968,1e-5 0.78776,-0.0859 1.07422,-0.25781 0.28645,-0.17187 0.51204,-0.4261 0.67676,-0.76269 0.17187,-0.33659 0.29361,-0.75195 0.36524,-1.2461 0.0716,-0.49413 0.10741,-1.05989 0.10742,-1.69726 l 0,-5.65039 3.27636,0 0,12.00976 -2.50293,0"
         style=""
         id="path3856" />
      <path
         d="m 315.05566,242.83473 -0.63379,-1.63281 -0.0967,0 c -0.23634,0.32227 -0.47267,0.60156 -0.70899,0.83789 -0.23633,0.22917 -0.49415,0.41895 -0.77344,0.56934 -0.2793,0.15039 -0.5944,0.26139 -0.94531,0.333 -0.34375,0.0716 -0.7448,0.10743 -1.20312,0.10743 -0.48699,0 -0.93816,-0.0752 -1.35352,-0.22559 -0.41537,-0.15755 -0.77702,-0.3903 -1.08496,-0.69824 -0.30078,-0.31511 -0.53711,-0.70899 -0.70899,-1.18164 -0.17187,-0.47982 -0.25781,-1.04557 -0.25781,-1.69727 0,-1.27473 0.4082,-2.21288 1.22461,-2.81445 0.81641,-0.60872 2.03743,-0.94531 3.66309,-1.00977 l 1.91211,-0.0644 0,-0.90234 c -10e-6,-0.49414 -0.14324,-0.85937 -0.42969,-1.09571 -0.28647,-0.23632 -0.68751,-0.35448 -1.20313,-0.35449 -0.51563,1e-5 -1.02051,0.0752 -1.51464,0.22559 -0.48699,0.1504 -0.97755,0.35092 -1.47168,0.60156 l -1.06348,-2.16992 c 0.60156,-0.33658 1.26757,-0.60155 1.99805,-0.79493 0.73046,-0.19334 1.49674,-0.29002 2.29882,-0.29003 1.49674,1e-5 2.64257,0.35092 3.4375,1.05273 0.80208,0.70183 1.20312,1.76889 1.20313,3.20117 l 0,8.00293 -2.28809,0 m -0.96679,-5.56445 -1.08496,0.043 c -0.43686,0.0143 -0.80567,0.0716 -1.10645,0.17187 -0.30079,0.10027 -0.54427,0.23634 -0.73047,0.40821 -0.17904,0.16471 -0.31153,0.36523 -0.39746,0.60156 -0.0788,0.22917 -0.11817,0.48698 -0.11816,0.77344 -10e-6,0.5013 0.12174,0.85937 0.36523,1.07421 0.24349,0.20769 0.56217,0.31153 0.95606,0.31153 0.30077,0 0.58007,-0.0501 0.83789,-0.15039 0.2578,-0.10742 0.47981,-0.26139 0.66601,-0.46192 0.19335,-0.20768 0.34375,-0.45833 0.45117,-0.75195 0.10742,-0.30078 0.16113,-0.64453 0.16114,-1.03125 l 0,-0.98828"
         style=""
         id="path3858" />
      <path
         d="m 325.71191,243.04958 c -0.85938,0 -1.63639,-0.11817 -2.33105,-0.3545 -0.6875,-0.23632 -1.27832,-0.60156 -1.77246,-1.0957 -0.48698,-0.5013 -0.86296,-1.13867 -1.12793,-1.91211 -0.25781,-0.78059 -0.38672,-1.71158 -0.38672,-2.79297 0,-1.19595 0.13249,-2.19498 0.39746,-2.99707 0.27213,-0.80923 0.65169,-1.45734 1.13867,-1.94433 0.49414,-0.48697 1.08496,-0.8343 1.77246,-1.042 0.69466,-0.20767 1.46452,-0.31151 2.30957,-0.31152 0.61588,1e-5 1.22819,0.0752 1.83692,0.22559 0.60871,0.1504 1.18163,0.36166 1.71875,0.63378 l -0.94531,2.49219 c -0.47267,-0.20767 -0.92742,-0.37596 -1.36426,-0.50488 -0.43686,-0.13606 -0.85222,-0.20409 -1.2461,-0.2041 -0.79492,1e-5 -1.37142,0.30437 -1.72949,0.91308 -0.35808,0.60157 -0.53711,1.5075 -0.53711,2.71778 0,1.20313 0.17903,2.09115 0.53711,2.66406 0.35807,0.57292 0.92024,0.85938 1.68653,0.85937 0.62303,1e-5 1.18879,-0.0788 1.69726,-0.23632 0.50846,-0.16471 1.02766,-0.3724 1.55762,-0.62305 l 0,2.72852 c -0.26499,0.1289 -0.5228,0.24349 -0.77344,0.34375 -0.25066,0.10026 -0.50489,0.18261 -0.76269,0.24707 -0.25066,0.0644 -0.51564,0.111 -0.79493,0.13964 -0.27214,0.0358 -0.56576,0.0537 -0.88086,0.0537"
         style=""
         id="path3860" />
      <path
         d="m 331.57715,227.72047 c 0,-0.30792 0.0465,-0.56216 0.13965,-0.76269 0.0931,-0.20767 0.21842,-0.37238 0.37597,-0.49414 0.16471,-0.12889 0.35449,-0.21841 0.56934,-0.26856 0.222,-0.0501 0.45475,-0.0752 0.69824,-0.0752 0.24349,1e-5 0.47265,0.0251 0.6875,0.0752 0.21484,0.0502 0.40104,0.13967 0.5586,0.26856 0.1647,0.12176 0.29361,0.28647 0.38671,0.49414 0.10026,0.20053 0.15039,0.45477 0.15039,0.76269 0,0.3008 -0.0501,0.55503 -0.15039,0.7627 -0.0931,0.2077 -0.22201,0.37599 -0.38671,0.50488 -0.15756,0.12176 -0.34376,0.21128 -0.5586,0.26856 -0.21485,0.0501 -0.44401,0.0752 -0.6875,0.0752 -0.24349,2e-5 -0.47624,-0.025 -0.69824,-0.0752 -0.21485,-0.0573 -0.40463,-0.1468 -0.56934,-0.26856 -0.15755,-0.12889 -0.28288,-0.29718 -0.37597,-0.50488 -0.0931,-0.20767 -0.13965,-0.4619 -0.13965,-0.7627 m 3.41601,15.11426 -3.27636,0 0,-12.00976 3.27636,0 0,12.00976"
         style=""
         id="path3862" />
      <path
         d="m 341.14844,236.80836 c -10e-6,1.19597 0.16829,2.09832 0.50488,2.70704 0.33658,0.60156 0.88443,0.90234 1.64355,0.90234 0.75195,0 1.29622,-0.30436 1.63282,-0.91309 0.33658,-0.60872 0.50487,-1.50748 0.50488,-2.69629 -1e-5,-1.19595 -0.1683,-2.08755 -0.50488,-2.6748 -0.3366,-0.59439 -0.88803,-0.89159 -1.6543,-0.8916 -0.75196,1e-5 -1.29623,0.29721 -1.63281,0.8916 -0.32943,0.58725 -0.49415,1.47885 -0.49414,2.6748 m 7.62695,0 c -1e-5,1.00261 -0.12892,1.89063 -0.38672,2.66407 -0.25066,0.77344 -0.61589,1.42513 -1.0957,1.95507 -0.47267,0.52995 -1.05275,0.93458 -1.74024,1.21387 -0.68034,0.27214 -1.44662,0.40821 -2.29882,0.40821 -0.79493,0 -1.5254,-0.13607 -2.19141,-0.40821 -0.66602,-0.27929 -1.24252,-0.68392 -1.72949,-1.21387 -0.47982,-0.52994 -0.8558,-1.18163 -1.12793,-1.95507 -0.27214,-0.77344 -0.40821,-1.66146 -0.40821,-2.66407 0,-0.99543 0.12533,-1.87987 0.37598,-2.65332 0.25781,-0.77342 0.62305,-1.42154 1.0957,-1.94433 0.47982,-0.52994 1.0599,-0.93098 1.74024,-1.20313 0.68033,-0.27212 1.45019,-0.40819 2.30957,-0.4082 0.79491,1e-5 1.52538,0.13608 2.19141,0.4082 0.666,0.27215 1.23892,0.67319 1.71875,1.20313 0.48696,0.52279 0.86652,1.17091 1.13867,1.94433 0.27212,0.77345 0.40819,1.65789 0.4082,2.65332 m -7.41211,-7.30468 0,-0.29004 c 0.15039,-0.20767 0.31152,-0.44758 0.4834,-0.71973 0.17187,-0.27212 0.34016,-0.55142 0.50488,-0.83789 0.17187,-0.2936 0.333,-0.58364 0.4834,-0.87012 0.15039,-0.2936 0.28287,-0.56215 0.39746,-0.80566 l 3.67383,0 0,0.22559 c -0.0788,0.12892 -0.19337,0.28289 -0.34375,0.46191 -0.1504,0.17189 -0.32228,0.35809 -0.51563,0.55859 -0.19336,0.20054 -0.40105,0.40822 -0.62304,0.62305 -0.22202,0.2077 -0.4476,0.4118 -0.67676,0.6123 -0.22201,0.20054 -0.43686,0.39032 -0.64453,0.56934 -0.20769,0.17905 -0.39389,0.3366 -0.55859,0.47266 l -2.18067,0"
         style=""
         id="path3864" />
      <path
         d="m 362.03125,242.83473 -3.27637,0 0,-7.01465 c -1e-5,-0.86653 -0.13249,-1.51464 -0.39746,-1.94433 -0.25782,-0.43684 -0.67318,-0.65527 -1.24609,-0.65528 -0.4297,1e-5 -0.78777,0.0859 -1.07422,0.25782 -0.28646,0.17188 -0.51563,0.42611 -0.6875,0.76269 -0.16472,0.3366 -0.28288,0.75196 -0.35449,1.2461 -0.0716,0.49414 -0.10743,1.0599 -0.10742,1.69726 l 0,5.65039 -3.27637,0 0,-12.00976 2.50293,0 0.44043,1.53613 0.18261,0 c 0.17187,-0.30793 0.37956,-0.57291 0.62305,-0.79492 0.25065,-0.222 0.52278,-0.40461 0.81641,-0.54785 0.29361,-0.14322 0.60513,-0.24706 0.93457,-0.31153 0.32942,-0.0716 0.66601,-0.10741 1.00976,-0.10742 0.58723,1e-5 1.12076,0.0859 1.60059,0.25781 0.47981,0.16473 0.89159,0.42612 1.23535,0.78418 0.34374,0.35809 0.60871,0.81642 0.79492,1.375 0.18619,0.55144 0.27929,1.21388 0.2793,1.98731 l 0,7.83105"
         style=""
         id="path3866" />
    </g>
  </g>
</svg>
