<?xml version="1.0" encoding="UTF-8" standalone="no"?>
<!-- Created with Inkscape (http://www.inkscape.org/) -->

<svg
   xmlns:dc="http://purl.org/dc/elements/1.1/"
   xmlns:cc="http://creativecommons.org/ns#"
   xmlns:rdf="http://www.w3.org/1999/02/22-rdf-syntax-ns#"
   xmlns:svg="http://www.w3.org/2000/svg"
   xmlns="http://www.w3.org/2000/svg"
   xmlns:sodipodi="http://sodipodi.sourceforge.net/DTD/sodipodi-0.dtd"
   xmlns:inkscape="http://www.inkscape.org/namespaces/inkscape"
   width="802.27325"
   height="204.38046"
   id="svg10437"
   version="1.1"
   inkscape:version="0.48.3.1 r9886"
   sodipodi:docname="pla_pro_gr_ex.svg">
  <defs
     id="defs10439" />
  <sodipodi:namedview
     id="base"
     pagecolor="#ffffff"
     bordercolor="#666666"
     borderopacity="1.0"
     inkscape:pageopacity="0.0"
     inkscape:pageshadow="2"
     inkscape:zoom="1.1511719"
     inkscape:cx="486.62442"
     inkscape:cy="89.831755"
     inkscape:document-units="px"
     inkscape:current-layer="layer1"
     showgrid="false"
     fit-margin-top="0"
     fit-margin-left="0"
     fit-margin-right="0"
     fit-margin-bottom="0"
     inkscape:window-width="1676"
     inkscape:window-height="1011"
     inkscape:window-x="1280"
     inkscape:window-y="18"
     inkscape:window-maximized="0"
     showguides="true"
     inkscape:guide-bbox="true" />
  <metadata
     id="metadata10442">
    <rdf:RDF>
      <cc:Work
         rdf:about="">
        <dc:format>image/svg+xml</dc:format>
        <dc:type
           rdf:resource="http://purl.org/dc/dcmitype/StillImage" />
        <dc:title />
      </cc:Work>
    </rdf:RDF>
  </metadata>
  <g
     inkscape:label="Layer 1"
     inkscape:groupmode="layer"
     id="layer1"
     transform="translate(6.8272969,-419.8455)">
    <rect
       y="582.71936"
       x="-6.3732533"
       height="41.052555"
       width="801.36493"
       id="rect4843"
       style="fill:#fafafa;fill-opacity:1;stroke:#808080;stroke-width:0.90808672;stroke-linecap:round;stroke-linejoin:miter;stroke-miterlimit:4;stroke-opacity:1;stroke-dasharray:none;stroke-dashoffset:0" />
    <path
       style="fill:none;stroke:#000000;stroke-width:1px;stroke-linecap:butt;stroke-linejoin:miter;stroke-opacity:1"
       d="m 367.93547,184.65013 55.28245,0"
       id="path4902"
       inkscape:connector-curvature="0"
       transform="translate(-1.9424065,420.52904)" />
    <rect
       y="501.29324"
       x="-6.3732533"
       height="41.052555"
       width="801.36493"
       id="rect4839"
       style="fill:#fafafa;fill-opacity:1;stroke:#808080;stroke-width:0.90808672;stroke-linecap:round;stroke-linejoin:miter;stroke-miterlimit:4;stroke-opacity:1;stroke-dasharray:none;stroke-dashoffset:0" />
    <rect
       style="fill:#fafafa;fill-opacity:1;stroke:#808080;stroke-width:0.90808672;stroke-linecap:round;stroke-linejoin:miter;stroke-miterlimit:4;stroke-opacity:1;stroke-dasharray:none;stroke-dashoffset:0"
       id="rect4841"
       width="801.36493"
       height="41.052555"
       x="-6.3732533"
       y="542.11487" />
    <path
       style="fill:none;stroke:#000000;stroke-width:1px;stroke-linecap:butt;stroke-linejoin:miter;stroke-opacity:1"
       d="m 284.96897,521.4079 -0.0373,82.23711 21.01924,-0.21717"
       id="path4888"
       inkscape:connector-curvature="0"
       sodipodi:nodetypes="ccc" />
    <rect
       style="fill:#fafafa;fill-opacity:1;stroke:#808080;stroke-width:0.90808672;stroke-linecap:round;stroke-linejoin:miter;stroke-miterlimit:4;stroke-opacity:1;stroke-dasharray:none;stroke-dashoffset:0"
       id="rect4835"
       width="801.36493"
       height="41.052555"
       x="-6.3732533"
       y="460.90591" />
    <rect
       y="420.29956"
       x="-6.3732333"
       height="41.056198"
       width="801.36511"
       id="rect4837"
       style="fill:#fafafa;fill-opacity:1;stroke:#808080;stroke-width:0.90812707;stroke-linecap:round;stroke-linejoin:miter;stroke-miterlimit:4;stroke-opacity:1;stroke-dasharray:none;stroke-dashoffset:0" />
    <path
       style="fill:none;stroke:#000000;stroke-width:1px;stroke-linecap:butt;stroke-linejoin:miter;stroke-opacity:1"
       d="m 539.95227,522.91623 28.66046,0 0.61425,40.54047 148.24341,0"
       id="path4833"
       inkscape:connector-curvature="0"
       sodipodi:nodetypes="cccc" />
    <path
       sodipodi:nodetypes="cccc"
       inkscape:connector-curvature="0"
       id="path4827"
       d="m 255.87417,481.4079 28.66046,0 0.61425,40.54047 22.32226,0"
       style="fill:none;stroke:#000000;stroke-width:1px;stroke-linecap:butt;stroke-linejoin:miter;stroke-opacity:1" />
    <path
       style="fill:none;stroke:#000000;stroke-width:1px;stroke-linecap:butt;stroke-linejoin:miter;stroke-opacity:1"
       d="m 68.181698,20.338388 28.660455,0 0.614249,40.54047 22.322258,0"
       id="path4825"
       inkscape:connector-curvature="0"
       transform="translate(-1.9424065,420.52904)"
       sodipodi:nodetypes="cccc" />
    <rect
       rx="0"
       y="421.78952"
       x="-0.6725173"
       height="38.076298"
       width="81.451195"
       id="rect4215"
       style="fill:#e6e6e6;fill-opacity:1;stroke:#7c7c7c;stroke-width:2.52820039;stroke-linecap:round;stroke-linejoin:miter;stroke-miterlimit:4;stroke-opacity:1;stroke-dasharray:none;stroke-dashoffset:0" />
    <rect
       style="fill:#e6e6e6;fill-opacity:1;stroke:#7c7c7c;stroke-width:2.52820039;stroke-linecap:round;stroke-linejoin:miter;stroke-miterlimit:4;stroke-opacity:1;stroke-dasharray:none;stroke-dashoffset:0"
       id="rect10493"
       width="162.25084"
       height="38.076298"
       x="108.35279"
       y="462.39404"
       rx="0" />
    <g
       id="g4641"
       transform="matrix(1.8538354,0,0,1.8538354,-216.76294,-396.18443)">
      <g
         id="g4631">
        <path
           id="path10628"
           style="font-size:20px;font-style:normal;font-variant:normal;font-weight:bold;font-stretch:normal;text-align:center;line-height:125%;letter-spacing:0px;word-spacing:0px;text-anchor:middle;fill:#000000;fill-opacity:1;stroke:none;font-family:Ubuntu;-inkscape-font-specification:Ubuntu Bold"
           d="m 181.65825,469.42323 c 1.30624,1e-5 2.30909,0.23176 3.00856,0.69525 0.69947,0.45509 1.0492,1.20512 1.04921,2.2501 -10e-6,1.05343 -0.35396,1.8161 -1.06185,2.28802 -0.7079,0.46351 -1.71918,0.69527 -3.03384,0.69526 l -0.61941,0 0,2.93271 -1.97199,0 0,-8.6338 c 0.42979,-0.0843 0.88487,-0.14326 1.36522,-0.17698 0.48036,-0.0337 0.90172,-0.0506 1.2641,-0.0506 m 0.12641,1.68125 c -0.14326,10e-6 -0.28653,0.004 -0.42979,0.0126 -0.13484,0.008 -0.25282,0.0169 -0.35395,0.0253 l 0,2.5282 0.61941,0 c 0.68261,0 1.19668,-0.0927 1.5422,-0.27811 0.34552,-0.18539 0.51828,-0.53091 0.51828,-1.03656 0,-0.24438 -0.0463,-0.44664 -0.13905,-0.60677 -0.0843,-0.16011 -0.21068,-0.28652 -0.37923,-0.37923 -0.16012,-0.10112 -0.35816,-0.16853 -0.59412,-0.20225 -0.23597,-0.0422 -0.49722,-0.0632 -0.78375,-0.0632"
           inkscape:connector-curvature="0" />
        <path
           id="path10630"
           style="font-size:20px;font-style:normal;font-variant:normal;font-weight:bold;font-stretch:normal;text-align:center;line-height:125%;letter-spacing:0px;word-spacing:0px;text-anchor:middle;fill:#000000;fill-opacity:1;stroke:none;font-family:Ubuntu;-inkscape-font-specification:Ubuntu Bold"
           d="m 188.93354,478.28457 -1.88351,0 0,-6.64917 1.88351,0 0,6.64917 m 0.17698,-8.5706 c 0,0.34553 -0.11377,0.61942 -0.34131,0.82167 -0.21911,0.19383 -0.48036,0.29075 -0.78374,0.29074 -0.30339,1e-5 -0.56885,-0.0969 -0.79639,-0.29074 -0.2191,-0.20225 -0.32866,-0.47614 -0.32866,-0.82167 0,-0.34551 0.10956,-0.61518 0.32866,-0.80902 0.22754,-0.20225 0.493,-0.30337 0.79639,-0.30339 0.30338,2e-5 0.56463,0.10114 0.78374,0.30339 0.22754,0.19384 0.34131,0.46351 0.34131,0.80902"
           inkscape:connector-curvature="0" />
        <path
           id="path10632"
           style="font-size:20px;font-style:normal;font-variant:normal;font-weight:bold;font-stretch:normal;text-align:center;line-height:125%;letter-spacing:0px;word-spacing:0px;text-anchor:middle;fill:#000000;fill-opacity:1;stroke:none;font-family:Ubuntu;-inkscape-font-specification:Ubuntu Bold"
           d="m 190.70407,471.86294 c 0.32024,-0.0927 0.73318,-0.17697 1.23883,-0.25282 0.50563,-0.0843 1.03655,-0.1264 1.59276,-0.12641 0.56463,1e-5 1.03234,0.0759 1.40316,0.22754 0.37922,0.14327 0.67839,0.34975 0.8975,0.61941 0.21911,0.26968 0.37501,0.58992 0.46772,0.96072 0.0927,0.37081 0.13904,0.78374 0.13905,1.23881 l 0,3.75438 -1.88351,0 0,-3.52684 c 0,-0.60676 -0.0801,-1.03655 -0.24018,-1.28938 -0.16012,-0.25281 -0.45929,-0.37922 -0.89751,-0.37923 -0.13484,1e-5 -0.2781,0.008 -0.4298,0.0253 -0.15169,0.008 -0.28652,0.0211 -0.40451,0.0379 l 0,5.13225 -1.88351,0 0,-6.42163"
           inkscape:connector-curvature="0" />
        <path
           id="path10634"
           style="font-size:20px;font-style:normal;font-variant:normal;font-weight:bold;font-stretch:normal;text-align:center;line-height:125%;letter-spacing:0px;word-spacing:0px;text-anchor:middle;fill:#000000;fill-opacity:1;stroke:none;font-family:Ubuntu;-inkscape-font-specification:Ubuntu Bold"
           d="m 198.09709,469.97943 1.88351,-0.30338 0,1.95935 2.26274,0 0,1.56749 -2.26274,0 0,2.33858 c 0,0.39609 0.0674,0.71212 0.20225,0.94808 0.14326,0.23597 0.42558,0.35395 0.84695,0.35395 0.20225,0 0.40872,-0.0169 0.61941,-0.0506 0.21911,-0.0421 0.41715,-0.0969 0.59413,-0.16433 l 0.26546,1.46636 c -0.22755,0.0927 -0.48037,0.17276 -0.75846,0.24018 -0.27811,0.0674 -0.61942,0.10112 -1.02392,0.10112 -0.51408,0 -0.93965,-0.0674 -1.27675,-0.20225 -0.33709,-0.14326 -0.60676,-0.33709 -0.80902,-0.58149 -0.20226,-0.25282 -0.34552,-0.5562 -0.42979,-0.91015 -0.0759,-0.35394 -0.11377,-0.74581 -0.11377,-1.17561 l 0,-5.58733"
           inkscape:connector-curvature="0" />
        <path
           id="path10636"
           style="font-size:20px;font-style:normal;font-variant:normal;font-weight:bold;font-stretch:normal;text-align:center;line-height:125%;letter-spacing:0px;word-spacing:0px;text-anchor:middle;fill:#000000;fill-opacity:1;stroke:none;font-family:Ubuntu;-inkscape-font-specification:Ubuntu Bold"
           d="m 206.05874,476.96991 c 0.1854,0 0.36238,-0.004 0.53093,-0.0126 0.16854,-0.008 0.30338,-0.0211 0.40451,-0.0379 l 0,-1.42843 c -0.0759,-0.0169 -0.18962,-0.0337 -0.34131,-0.0506 -0.15169,-0.0169 -0.29074,-0.0253 -0.41715,-0.0253 -0.17698,1e-5 -0.34552,0.0127 -0.50564,0.0379 -0.15169,0.0169 -0.28653,0.0548 -0.40451,0.11377 -0.11799,0.059 -0.21068,0.13905 -0.27811,0.24018 -0.0674,0.10113 -0.10112,0.22754 -0.10112,0.37923 0,0.29495 0.0969,0.50143 0.29074,0.6194 0.20226,0.10956 0.47614,0.16434 0.82166,0.16434 m -0.15169,-5.51148 c 0.55621,1e-5 1.01971,0.0632 1.39051,0.18962 0.3708,0.12641 0.66576,0.3076 0.88487,0.54356 0.22753,0.23597 0.38766,0.5225 0.48036,0.85959 0.0927,0.33709 0.13905,0.71211 0.13905,1.12505 l 0,3.91871 c -0.26967,0.059 -0.6447,0.12641 -1.12505,0.20225 -0.48035,0.0843 -1.06184,0.12641 -1.74446,0.12641 -0.42979,0 -0.82166,-0.0379 -1.17561,-0.11377 -0.34552,-0.0758 -0.64469,-0.19804 -0.89751,-0.36659 -0.25282,-0.17697 -0.44665,-0.40451 -0.58149,-0.68261 -0.13483,-0.2781 -0.20225,-0.6194 -0.20225,-1.02392 0,-0.38766 0.0758,-0.71632 0.22754,-0.986 0.16011,-0.26967 0.3708,-0.48457 0.63205,-0.64469 0.26124,-0.16011 0.56042,-0.27388 0.89751,-0.34131 0.33709,-0.0758 0.68682,-0.11376 1.0492,-0.11377 0.24439,10e-6 0.45929,0.0126 0.64469,0.0379 0.19383,0.0169 0.34973,0.0421 0.46772,0.0758 l 0,-0.17697 c 0,-0.32024 -0.0969,-0.57727 -0.29074,-0.7711 -0.19383,-0.19383 -0.53093,-0.29074 -1.01128,-0.29075 -0.32025,1e-5 -0.63627,0.0253 -0.94808,0.0759 -0.31181,0.0422 -0.58149,0.10535 -0.80902,0.18962 l -0.24018,-1.51692 c 0.10955,-0.0337 0.24439,-0.0674 0.40451,-0.10113 0.16855,-0.0421 0.34973,-0.0758 0.54356,-0.10113 0.19383,-0.0337 0.39609,-0.059 0.60677,-0.0759 0.21911,-0.0253 0.43822,-0.0379 0.65733,-0.0379"
           inkscape:connector-curvature="0" />
        <path
           id="path10638"
           style="font-size:20px;font-style:normal;font-variant:normal;font-weight:bold;font-stretch:normal;text-align:center;line-height:125%;letter-spacing:0px;word-spacing:0px;text-anchor:middle;fill:#000000;fill-opacity:1;stroke:none;font-family:Ubuntu;-inkscape-font-specification:Ubuntu Bold"
           d="m 214.51222,473.30402 c -0.16855,-0.0422 -0.3666,-0.0843 -0.59413,-0.12641 -0.22754,-0.0506 -0.47193,-0.0758 -0.73318,-0.0759 -0.11798,10e-6 -0.26125,0.0126 -0.42979,0.0379 -0.16012,0.0169 -0.28232,0.0379 -0.36659,0.0632 l 0,5.08168 -1.88351,0 0,-6.29522 c 0.33709,-0.11797 0.73318,-0.22753 1.18826,-0.32866 0.4635,-0.10955 0.97756,-0.16433 1.5422,-0.16434 0.10112,1e-5 0.22332,0.008 0.36659,0.0253 0.14326,0.008 0.28652,0.0253 0.42979,0.0506 0.14326,0.0169 0.28653,0.0422 0.4298,0.0759 0.14326,0.0253 0.26545,0.059 0.36658,0.10112 l -0.31602,1.55485"
           inkscape:connector-curvature="0" />
      </g>
      <g
         transform="translate(43.108176,-15.900832)"
         id="g4623">
        <path
           id="path10640"
           style="font-size:20px;font-style:normal;font-variant:normal;font-weight:bold;font-stretch:normal;text-align:center;line-height:125%;letter-spacing:0px;word-spacing:0px;text-anchor:middle;fill:#000000;fill-opacity:1;stroke:none;font-family:Ubuntu;-inkscape-font-specification:Ubuntu Bold"
           d="m 177.14808,485.78069 1.88351,-0.30339 0,1.95936 2.26274,0 0,1.56748 -2.26274,0 0,2.33859 c 0,0.39608 0.0674,0.71211 0.20226,0.94807 0.14326,0.23597 0.42558,0.35396 0.84695,0.35395 0.20225,1e-5 0.40872,-0.0169 0.61941,-0.0506 0.2191,-0.0422 0.41714,-0.0969 0.59412,-0.16434 l 0.26546,1.46636 c -0.22754,0.0927 -0.48036,0.17276 -0.75846,0.24018 -0.27811,0.0674 -0.61941,0.10113 -1.02392,0.10113 -0.51407,0 -0.93965,-0.0674 -1.27674,-0.20226 -0.3371,-0.14326 -0.60677,-0.33709 -0.80902,-0.58149 -0.20226,-0.25282 -0.34553,-0.5562 -0.4298,-0.91015 -0.0758,-0.35394 -0.11377,-0.74581 -0.11377,-1.17561 l 0,-5.58732"
           inkscape:connector-curvature="0" />
        <path
           id="path10642"
           style="font-size:20px;font-style:normal;font-variant:normal;font-weight:bold;font-stretch:normal;text-align:center;line-height:125%;letter-spacing:0px;word-spacing:0px;text-anchor:middle;fill:#000000;fill-opacity:1;stroke:none;font-family:Ubuntu;-inkscape-font-specification:Ubuntu Bold"
           d="m 182.25287,490.81181 c 0,-0.58991 0.0885,-1.10398 0.26547,-1.54221 0.18539,-0.44664 0.42557,-0.81744 0.72053,-1.11241 0.29495,-0.29494 0.63205,-0.51827 1.01128,-0.66997 0.38766,-0.15168 0.78374,-0.22753 1.18826,-0.22754 0.94386,10e-6 1.68968,0.29075 2.23745,0.87223 0.54778,0.57307 0.82166,1.42002 0.82167,2.54084 -1e-5,0.10956 -0.004,0.23176 -0.0126,0.36659 -0.008,0.12642 -0.0169,0.24019 -0.0253,0.34131 l -4.27266,0 c 0.0422,0.38766 0.22332,0.69526 0.54356,0.92279 0.32024,0.22755 0.75003,0.34132 1.28938,0.34131 0.34552,1e-5 0.68261,-0.0295 1.01128,-0.0885 0.33709,-0.0674 0.61098,-0.14747 0.82167,-0.24018 l 0.25282,1.52957 c -0.10114,0.0506 -0.23597,0.10112 -0.40451,0.15169 -0.16855,0.0506 -0.35817,0.0927 -0.56885,0.12641 -0.20226,0.0422 -0.42137,0.0758 -0.65733,0.10113 -0.23597,0.0253 -0.47193,0.0379 -0.7079,0.0379 -0.59834,0 -1.12084,-0.0885 -1.56748,-0.26546 -0.43823,-0.17698 -0.80481,-0.41716 -1.09977,-0.72054 -0.28653,-0.31181 -0.50142,-0.6784 -0.64469,-1.09977 -0.13484,-0.42136 -0.20226,-0.87644 -0.20226,-1.36522 m 4.42435,-0.72054 c -0.008,-0.16011 -0.0379,-0.31602 -0.0885,-0.46772 -0.0422,-0.15168 -0.11378,-0.28652 -0.2149,-0.40451 -0.0927,-0.11798 -0.2149,-0.21489 -0.36659,-0.29074 -0.14326,-0.0758 -0.32445,-0.11377 -0.54356,-0.11377 -0.21069,0 -0.39187,0.0379 -0.54356,0.11377 -0.1517,0.0674 -0.27811,0.16012 -0.37923,0.2781 -0.10113,0.11799 -0.18119,0.25704 -0.24018,0.41715 -0.0506,0.1517 -0.0885,0.30761 -0.11377,0.46772 l 2.49027,0"
           inkscape:connector-curvature="0" />
        <path
           id="path10644"
           style="font-size:20px;font-style:normal;font-variant:normal;font-weight:bold;font-stretch:normal;text-align:center;line-height:125%;letter-spacing:0px;word-spacing:0px;text-anchor:middle;fill:#000000;fill-opacity:1;stroke:none;font-family:Ubuntu;-inkscape-font-specification:Ubuntu Bold"
           d="m 189.63502,490.76124 c 0,-0.48035 0.0759,-0.93121 0.22754,-1.35259 0.16012,-0.42978 0.38766,-0.80058 0.68262,-1.1124 0.29495,-0.32023 0.65311,-0.57305 1.07448,-0.75846 0.42136,-0.1854 0.90172,-0.2781 1.44108,-0.27811 0.35394,10e-6 0.67839,0.0337 0.97335,0.10113 0.29495,0.059 0.58148,0.14749 0.85959,0.26546 l -0.39187,1.50428 c -0.17698,-0.0674 -0.37081,-0.1264 -0.58149,-0.17697 -0.21068,-0.0506 -0.44665,-0.0758 -0.70789,-0.0759 -0.55621,10e-6 -0.97337,0.17277 -1.25146,0.51828 -0.26968,0.34553 -0.40452,0.80061 -0.40451,1.36523 -10e-6,0.59834 0.1264,1.06185 0.37923,1.39051 0.26124,0.32867 0.7121,0.49301 1.35258,0.493 0.22753,10e-6 0.47193,-0.0211 0.73318,-0.0632 0.26124,-0.0422 0.50142,-0.10956 0.72054,-0.20226 l 0.26546,1.5422 c -0.21912,0.0927 -0.49301,0.17277 -0.82167,0.24018 -0.32867,0.0674 -0.69104,0.10113 -1.08712,0.10113 -0.60678,0 -1.12927,-0.0885 -1.56749,-0.26546 -0.43822,-0.1854 -0.80059,-0.43401 -1.08712,-0.74582 -0.2781,-0.31181 -0.48458,-0.6784 -0.61941,-1.09977 -0.12641,-0.42979 -0.18962,-0.89329 -0.18962,-1.39051"
           inkscape:connector-curvature="0" />
        <path
           id="path10646"
           style="font-size:20px;font-style:normal;font-variant:normal;font-weight:bold;font-stretch:normal;text-align:center;line-height:125%;letter-spacing:0px;word-spacing:0px;text-anchor:middle;fill:#000000;fill-opacity:1;stroke:none;font-family:Ubuntu;-inkscape-font-specification:Ubuntu Bold"
           d="m 196.27155,494.08582 0,-9.50603 1.88351,-0.30338 0,3.18553 c 0.1264,-0.0421 0.28653,-0.0801 0.48036,-0.11377 0.20225,-0.0421 0.39608,-0.0632 0.58148,-0.0632 0.53935,0 0.986,0.0759 1.33995,0.22753 0.36237,0.14328 0.6489,0.34975 0.85959,0.61941 0.2191,0.26969 0.3708,0.58992 0.45507,0.96072 0.0927,0.37081 0.13905,0.78375 0.13905,1.23882 l 0,3.75437 -1.8835,0 0,-3.52684 c -1e-5,-0.60676 -0.0801,-1.03655 -0.24018,-1.28938 -0.1517,-0.25281 -0.43823,-0.37922 -0.85959,-0.37923 -0.16855,10e-6 -0.32867,0.0169 -0.48036,0.0506 -0.14327,0.0253 -0.27389,0.0548 -0.39187,0.0885 l 0,5.0564 -1.88351,0"
           inkscape:connector-curvature="0" />
        <path
           id="path10648"
           style="font-size:20px;font-style:normal;font-variant:normal;font-weight:bold;font-stretch:normal;text-align:center;line-height:125%;letter-spacing:0px;word-spacing:0px;text-anchor:middle;fill:#000000;fill-opacity:1;stroke:none;font-family:Ubuntu;-inkscape-font-specification:Ubuntu Bold"
           d="m 209.94714,490.7486 c -1e-5,0.5225 -0.0759,1.00285 -0.22754,1.44107 -0.1517,0.4298 -0.37081,0.8006 -0.65733,1.11241 -0.28654,0.30339 -0.63206,0.53936 -1.03657,0.7079 -0.39608,0.16855 -0.84273,0.25282 -1.33994,0.25282 -0.48879,0 -0.93544,-0.0843 -1.33995,-0.25282 -0.39609,-0.16854 -0.73739,-0.40451 -1.02392,-0.7079 -0.28653,-0.31181 -0.50985,-0.68261 -0.66997,-1.11241 -0.16012,-0.43822 -0.24018,-0.91857 -0.24018,-1.44107 0,-0.52249 0.0801,-0.99863 0.24018,-1.42843 0.16855,-0.42979 0.39608,-0.79638 0.68261,-1.09977 0.29496,-0.30338 0.64048,-0.53934 1.03656,-0.7079 0.40452,-0.16853 0.84273,-0.25281 1.31467,-0.25282 0.48036,10e-6 0.91857,0.0843 1.31466,0.25282 0.40451,0.16856 0.75003,0.40452 1.03656,0.7079 0.28653,0.30339 0.50985,0.66998 0.66998,1.09977 0.16011,0.4298 0.24017,0.90594 0.24018,1.42843 m -1.92144,0 c 0,-0.58148 -0.11798,-1.03656 -0.35394,-1.36523 -0.22754,-0.33708 -0.55621,-0.50563 -0.986,-0.50564 -0.4298,1e-5 -0.76268,0.16856 -0.99864,0.50564 -0.23596,0.32867 -0.35395,0.78375 -0.35395,1.36523 0,0.58149 0.11799,1.04499 0.35395,1.39051 0.23596,0.3371 0.56884,0.50565 0.99864,0.50564 0.42979,1e-5 0.75846,-0.16854 0.986,-0.50564 0.23596,-0.34552 0.35394,-0.80902 0.35394,-1.39051"
           inkscape:connector-curvature="0" />
        <path
           id="path10650"
           style="font-size:20px;font-style:normal;font-variant:normal;font-weight:bold;font-stretch:normal;text-align:center;line-height:125%;letter-spacing:0px;word-spacing:0px;text-anchor:middle;fill:#000000;fill-opacity:1;stroke:none;font-family:Ubuntu;-inkscape-font-specification:Ubuntu Bold"
           d="m 213.31498,492.73324 c 0.34551,0 0.58991,-0.0337 0.73318,-0.10113 0.14326,-0.0674 0.21489,-0.19804 0.21489,-0.39187 0,-0.15169 -0.0927,-0.28231 -0.2781,-0.39187 -0.18541,-0.11798 -0.46772,-0.24861 -0.84695,-0.39187 -0.29496,-0.10956 -0.56463,-0.22333 -0.80902,-0.34131 -0.23596,-0.11798 -0.43822,-0.25703 -0.60677,-0.41715 -0.16855,-0.16855 -0.29917,-0.36659 -0.39187,-0.59413 -0.0927,-0.22753 -0.13905,-0.50142 -0.13905,-0.82167 0,-0.62361 0.23175,-1.11661 0.69525,-1.47899 0.46351,-0.36237 1.09977,-0.54356 1.9088,-0.54357 0.40451,10e-6 0.79216,0.0379 1.16297,0.11377 0.3708,0.0674 0.66575,0.14328 0.88487,0.22754 l -0.32867,1.46636 c -0.21911,-0.0758 -0.45929,-0.14326 -0.72054,-0.20226 -0.25282,-0.059 -0.53935,-0.0885 -0.85958,-0.0885 -0.58992,10e-6 -0.88487,0.16434 -0.88487,0.493 0,0.0759 0.0126,0.14328 0.0379,0.20226 0.0253,0.059 0.0759,0.11799 0.15169,0.17697 0.0759,0.0506 0.17698,0.10956 0.30339,0.17698 0.13483,0.059 0.30338,0.12641 0.50564,0.20225 0.41293,0.1517 0.75424,0.30339 1.02392,0.45508 0.26967,0.14327 0.48035,0.30339 0.63205,0.48036 0.16011,0.16855 0.26967,0.35816 0.32866,0.56884 0.0674,0.21069 0.10112,0.45508 0.10113,0.73318 -1e-5,0.65733 -0.24861,1.15455 -0.74582,1.49164 -0.48879,0.3371 -1.18404,0.50564 -2.08576,0.50564 -0.58992,0 -1.08291,-0.0506 -1.479,-0.15169 -0.38766,-0.10113 -0.65733,-0.1854 -0.80903,-0.25282 l 0.31603,-1.52956 c 0.32024,0.12641 0.64891,0.22754 0.986,0.30338 0.33709,0.0674 0.66997,0.10113 0.99864,0.10113"
           inkscape:connector-curvature="0" />
      </g>
    </g>
    <rect
       rx="0"
       y="502.99854"
       x="298.17773"
       height="38.076298"
       width="251.53226"
       id="rect10495"
       style="fill:#e6e6e6;fill-opacity:1;stroke:#7c7c7c;stroke-width:2.52820039;stroke-linecap:round;stroke-linejoin:miter;stroke-miterlimit:4;stroke-opacity:1;stroke-dasharray:none;stroke-dashoffset:0" />
    <g
       id="g4702"
       transform="matrix(1.824736,0,0,1.824736,-398.98871,-416.19219)">
      <g
         id="g4694">
        <path
           id="path10601"
           style="font-size:20px;font-style:normal;font-variant:normal;font-weight:bold;font-stretch:normal;text-align:center;line-height:125%;letter-spacing:0px;word-spacing:0px;text-anchor:middle;fill:#000000;fill-opacity:1;stroke:none;font-family:Ubuntu;-inkscape-font-specification:Ubuntu Bold"
           d="m 408.92953,508.94693 c 1.30623,10e-6 2.30908,0.23176 3.00855,0.69525 0.69947,0.45509 1.0492,1.20512 1.04921,2.2501 -10e-6,1.05343 -0.35396,1.8161 -1.06185,2.28802 -0.7079,0.46351 -1.71918,0.69526 -3.03384,0.69526 l -0.61941,0 0,2.93271 -1.97199,0 0,-8.6338 c 0.42979,-0.0843 0.88487,-0.14326 1.36523,-0.17698 0.48035,-0.0337 0.90172,-0.0506 1.2641,-0.0506 m 0.12641,1.68125 c -0.14327,1e-5 -0.28654,0.004 -0.4298,0.0126 -0.13484,0.008 -0.25282,0.0169 -0.35395,0.0253 l 0,2.5282 0.61941,0 c 0.68261,10e-6 1.19668,-0.0927 1.54221,-0.2781 0.34551,-0.18539 0.51827,-0.53091 0.51828,-1.03656 -10e-6,-0.24438 -0.0463,-0.44664 -0.13905,-0.60677 -0.0843,-0.16011 -0.21069,-0.28652 -0.37923,-0.37923 -0.16013,-0.10112 -0.35817,-0.16853 -0.59413,-0.20225 -0.23597,-0.0422 -0.49722,-0.0632 -0.78374,-0.0632"
           inkscape:connector-curvature="0" />
        <path
           id="path10603"
           style="font-size:20px;font-style:normal;font-variant:normal;font-weight:bold;font-stretch:normal;text-align:center;line-height:125%;letter-spacing:0px;word-spacing:0px;text-anchor:middle;fill:#000000;fill-opacity:1;stroke:none;font-family:Ubuntu;-inkscape-font-specification:Ubuntu Bold"
           d="m 416.20482,517.80827 -1.88351,0 0,-6.64917 1.88351,0 0,6.64917 m 0.17698,-8.5706 c -10e-6,0.34553 -0.11378,0.61942 -0.34132,0.82167 -0.21911,0.19383 -0.48036,0.29074 -0.78374,0.29074 -0.30338,0 -0.56885,-0.0969 -0.79638,-0.29074 -0.21911,-0.20225 -0.32867,-0.47614 -0.32867,-0.82167 0,-0.34551 0.10956,-0.61519 0.32867,-0.80902 0.22753,-0.20225 0.493,-0.30338 0.79638,-0.30339 0.30338,10e-6 0.56463,0.10114 0.78374,0.30339 0.22754,0.19383 0.34131,0.46351 0.34132,0.80902"
           inkscape:connector-curvature="0" />
        <path
           id="path10605"
           style="font-size:20px;font-style:normal;font-variant:normal;font-weight:bold;font-stretch:normal;text-align:center;line-height:125%;letter-spacing:0px;word-spacing:0px;text-anchor:middle;fill:#000000;fill-opacity:1;stroke:none;font-family:Ubuntu;-inkscape-font-specification:Ubuntu Bold"
           d="m 417.97535,511.38664 c 0.32024,-0.0927 0.73317,-0.17697 1.23882,-0.25282 0.50563,-0.0843 1.03656,-0.1264 1.59276,-0.12641 0.56463,1e-5 1.03235,0.0759 1.40316,0.22754 0.37922,0.14327 0.67839,0.34974 0.8975,0.61941 0.21911,0.26968 0.37502,0.58992 0.46772,0.96071 0.0927,0.37081 0.13904,0.78375 0.13906,1.23882 l 0,3.75438 -1.88352,0 0,-3.52684 c 0,-0.60676 -0.0801,-1.03656 -0.24018,-1.28938 -0.16012,-0.25282 -0.45929,-0.37923 -0.89751,-0.37923 -0.13483,0 -0.2781,0.008 -0.42979,0.0253 -0.1517,0.008 -0.28653,0.021 -0.40452,0.0379 l 0,5.13225 -1.8835,0 0,-6.42163"
           inkscape:connector-curvature="0" />
        <path
           id="path10607"
           style="font-size:20px;font-style:normal;font-variant:normal;font-weight:bold;font-stretch:normal;text-align:center;line-height:125%;letter-spacing:0px;word-spacing:0px;text-anchor:middle;fill:#000000;fill-opacity:1;stroke:none;font-family:Ubuntu;-inkscape-font-specification:Ubuntu Bold"
           d="m 425.36836,509.50313 1.88351,-0.30338 0,1.95935 2.26274,0 0,1.56749 -2.26274,0 0,2.33858 c 0,0.39609 0.0674,0.71211 0.20226,0.94808 0.14326,0.23597 0.42557,0.35395 0.84694,0.35395 0.20225,0 0.40872,-0.0169 0.61941,-0.0506 0.21911,-0.0422 0.41715,-0.0969 0.59413,-0.16433 l 0.26546,1.46635 c -0.22754,0.0927 -0.48036,0.17277 -0.75846,0.24018 -0.27811,0.0674 -0.61942,0.10113 -1.02392,0.10113 -0.51407,0 -0.93965,-0.0674 -1.27674,-0.20225 -0.3371,-0.14326 -0.60677,-0.3371 -0.80903,-0.58149 -0.20225,-0.25282 -0.34552,-0.5562 -0.42979,-0.91015 -0.0759,-0.35394 -0.11377,-0.74582 -0.11377,-1.17562 l 0,-5.58732"
           inkscape:connector-curvature="0" />
        <path
           id="path10609"
           style="font-size:20px;font-style:normal;font-variant:normal;font-weight:bold;font-stretch:normal;text-align:center;line-height:125%;letter-spacing:0px;word-spacing:0px;text-anchor:middle;fill:#000000;fill-opacity:1;stroke:none;font-family:Ubuntu;-inkscape-font-specification:Ubuntu Bold"
           d="m 433.33002,516.49361 c 0.1854,0 0.36237,-0.004 0.53092,-0.0127 0.16854,-0.008 0.30338,-0.021 0.40451,-0.0379 l 0,-1.42843 c -0.0758,-0.0169 -0.18961,-0.0337 -0.34131,-0.0506 -0.15169,-0.0169 -0.29074,-0.0253 -0.41715,-0.0253 -0.17697,10e-6 -0.34552,0.0126 -0.50564,0.0379 -0.15169,0.0169 -0.28653,0.0548 -0.40451,0.11376 -0.11799,0.059 -0.21068,0.13906 -0.2781,0.24018 -0.0674,0.10114 -0.10113,0.22755 -0.10113,0.37923 0,0.29496 0.0969,0.50143 0.29074,0.61941 0.20226,0.10956 0.47614,0.16434 0.82167,0.16434 m -0.15169,-5.51148 c 0.5562,0 1.0197,0.0632 1.39051,0.18961 0.37079,0.12642 0.66575,0.30761 0.88487,0.54357 0.22753,0.23597 0.38765,0.5225 0.48035,0.85958 0.0927,0.3371 0.13905,0.71212 0.13905,1.12505 l 0,3.91871 c -0.26967,0.059 -0.64469,0.12641 -1.12504,0.20226 -0.48036,0.0843 -1.06185,0.12641 -1.74446,0.12641 -0.4298,0 -0.82167,-0.0379 -1.17562,-0.11377 -0.34552,-0.0758 -0.64469,-0.19804 -0.89751,-0.36659 -0.25282,-0.17697 -0.44665,-0.40451 -0.58148,-0.68261 -0.13484,-0.2781 -0.20226,-0.6194 -0.20226,-1.02392 0,-0.38766 0.0759,-0.71632 0.22754,-0.986 0.16012,-0.26967 0.3708,-0.48457 0.63205,-0.64469 0.26124,-0.16011 0.56042,-0.27388 0.89751,-0.34131 0.33709,-0.0758 0.68682,-0.11376 1.0492,-0.11377 0.24439,1e-5 0.45929,0.0126 0.64469,0.0379 0.19383,0.0169 0.34974,0.0422 0.46772,0.0758 l 0,-0.17697 c 0,-0.32024 -0.0969,-0.57727 -0.29074,-0.7711 -0.19383,-0.19383 -0.53092,-0.29074 -1.01128,-0.29075 -0.32024,10e-6 -0.63627,0.0253 -0.94808,0.0758 -0.31181,0.0422 -0.58148,0.10535 -0.80902,0.18961 l -0.24018,-1.51692 c 0.10955,-0.0337 0.24439,-0.0674 0.40451,-0.10112 0.16855,-0.0421 0.34973,-0.0758 0.54356,-0.10113 0.19384,-0.0337 0.39609,-0.059 0.60677,-0.0758 0.21911,-0.0253 0.43822,-0.0379 0.65734,-0.0379"
           inkscape:connector-curvature="0" />
        <path
           id="path10611"
           style="font-size:20px;font-style:normal;font-variant:normal;font-weight:bold;font-stretch:normal;text-align:center;line-height:125%;letter-spacing:0px;word-spacing:0px;text-anchor:middle;fill:#000000;fill-opacity:1;stroke:none;font-family:Ubuntu;-inkscape-font-specification:Ubuntu Bold"
           d="m 441.78349,512.82771 c -0.16855,-0.0421 -0.36659,-0.0843 -0.59413,-0.12641 -0.22754,-0.0506 -0.47193,-0.0758 -0.73317,-0.0758 -0.11799,10e-6 -0.26126,0.0126 -0.4298,0.0379 -0.16012,0.0169 -0.28232,0.0379 -0.36659,0.0632 l 0,5.08168 -1.88351,0 0,-6.29522 c 0.3371,-0.11797 0.73318,-0.22753 1.18826,-0.32867 0.4635,-0.10954 0.97756,-0.16432 1.5422,-0.16433 0.10112,10e-6 0.22332,0.008 0.36659,0.0253 0.14326,0.008 0.28653,0.0253 0.42979,0.0506 0.14326,0.0169 0.28653,0.0422 0.4298,0.0758 0.14326,0.0253 0.26545,0.059 0.36659,0.10113 l -0.31603,1.55484"
           inkscape:connector-curvature="0" />
      </g>
      <g
         transform="translate(48.256979,-15.701754)"
         id="g4685">
        <path
           id="path10613"
           style="font-size:20px;font-style:normal;font-variant:normal;font-weight:bold;font-stretch:normal;text-align:center;line-height:125%;letter-spacing:0px;word-spacing:0px;text-anchor:middle;fill:#000000;fill-opacity:1;stroke:none;font-family:Ubuntu;-inkscape-font-specification:Ubuntu Bold"
           d="m 404.73054,530.3355 c -1e-5,-0.58148 -0.13063,-1.04498 -0.39187,-1.39051 -0.26125,-0.35394 -0.64891,-0.53091 -1.16297,-0.53092 -0.16855,10e-6 -0.32446,0.008 -0.46772,0.0253 -0.14327,0.008 -0.26125,0.0211 -0.35395,0.0379 l 0,3.40043 c 0.11798,0.0759 0.26967,0.13905 0.45508,0.18961 0.19382,0.0506 0.38765,0.0759 0.58148,0.0759 0.8933,0 1.33994,-0.60256 1.33995,-1.80767 m 1.92143,-0.0506 c 0,0.51407 -0.0632,0.98179 -0.18961,1.40315 -0.12642,0.42137 -0.31182,0.78374 -0.55621,1.08713 -0.24439,0.30338 -0.54778,0.53935 -0.91015,0.70789 -0.36238,0.16855 -0.77953,0.25282 -1.25146,0.25282 -0.26125,0 -0.50564,-0.0253 -0.73318,-0.0758 -0.22754,-0.0506 -0.44665,-0.1222 -0.65733,-0.2149 l 0,2.50292 -1.88351,0 0,-8.76022 c 0.16855,-0.0506 0.36237,-0.0969 0.58149,-0.13905 0.21911,-0.0506 0.44665,-0.0927 0.68261,-0.12641 0.2444,-0.0337 0.48879,-0.059 0.73318,-0.0758 0.25282,-0.0253 0.493,-0.0379 0.72054,-0.0379 0.54777,10e-6 1.03656,0.0843 1.46635,0.25282 0.42979,0.16013 0.79217,0.39188 1.08713,0.69526 0.29495,0.29496 0.51827,0.65734 0.66997,1.08712 0.16011,0.42981 0.24018,0.91016 0.24018,1.44108"
           inkscape:connector-curvature="0" />
        <path
           id="path10615"
           style="font-size:20px;font-style:normal;font-variant:normal;font-weight:bold;font-stretch:normal;text-align:center;line-height:125%;letter-spacing:0px;word-spacing:0px;text-anchor:middle;fill:#000000;fill-opacity:1;stroke:none;font-family:Ubuntu;-inkscape-font-specification:Ubuntu Bold"
           d="m 410.6404,532.29486 c 0.1854,0 0.36238,-0.004 0.53093,-0.0126 0.16854,-0.008 0.30338,-0.0211 0.40451,-0.0379 l 0,-1.42843 c -0.0759,-0.0169 -0.18962,-0.0337 -0.3413,-0.0506 -0.1517,-0.0169 -0.29075,-0.0253 -0.41716,-0.0253 -0.17698,0 -0.34552,0.0126 -0.50564,0.0379 -0.15169,0.0169 -0.28653,0.0548 -0.40451,0.11377 -0.11799,0.059 -0.21069,0.13905 -0.27811,0.24018 -0.0674,0.10113 -0.10112,0.22754 -0.10112,0.37923 0,0.29496 0.0969,0.50143 0.29074,0.61941 0.20225,0.10955 0.47614,0.16433 0.82166,0.16433 m -0.15169,-5.51148 c 0.55621,10e-6 1.01971,0.0632 1.39051,0.18962 0.3708,0.12641 0.66576,0.3076 0.88487,0.54356 0.22754,0.23598 0.38766,0.5225 0.48036,0.85959 0.0927,0.3371 0.13905,0.71212 0.13905,1.12505 l 0,3.91871 c -0.26968,0.059 -0.64469,0.12641 -1.12505,0.20225 -0.48036,0.0843 -1.06184,0.12641 -1.74446,0.12641 -0.42979,0 -0.82166,-0.0379 -1.1756,-0.11377 -0.34553,-0.0758 -0.6447,-0.19804 -0.89752,-0.36658 -0.25282,-0.17698 -0.44665,-0.40452 -0.58149,-0.68262 -0.13483,-0.27809 -0.20225,-0.6194 -0.20225,-1.02392 0,-0.38765 0.0758,-0.71632 0.22754,-0.986 0.16012,-0.26967 0.3708,-0.48457 0.63205,-0.64469 0.26125,-0.16011 0.56042,-0.27388 0.89751,-0.34131 0.33709,-0.0758 0.68683,-0.11376 1.0492,-0.11377 0.24439,10e-6 0.45929,0.0127 0.64469,0.0379 0.19383,0.0169 0.34973,0.0422 0.46772,0.0758 l 0,-0.17697 c 0,-0.32023 -0.0969,-0.57726 -0.29074,-0.7711 -0.19384,-0.19383 -0.53093,-0.29074 -1.01129,-0.29074 -0.32024,0 -0.63626,0.0253 -0.94807,0.0758 -0.31181,0.0422 -0.58149,0.10535 -0.80902,0.18962 l -0.24018,-1.51692 c 0.10956,-0.0337 0.24439,-0.0674 0.40451,-0.10113 0.16855,-0.0421 0.34974,-0.0758 0.54356,-0.10113 0.19383,-0.0337 0.39609,-0.059 0.60677,-0.0759 0.21911,-0.0253 0.43822,-0.0379 0.65733,-0.0379"
           inkscape:connector-curvature="0" />
        <path
           id="path10617"
           style="font-size:20px;font-style:normal;font-variant:normal;font-weight:bold;font-stretch:normal;text-align:center;line-height:125%;letter-spacing:0px;word-spacing:0px;text-anchor:middle;fill:#000000;fill-opacity:1;stroke:none;font-family:Ubuntu;-inkscape-font-specification:Ubuntu Bold"
           d="m 419.09388,528.62897 c -0.16855,-0.0422 -0.36659,-0.0843 -0.59413,-0.12641 -0.22754,-0.0506 -0.47193,-0.0758 -0.73318,-0.0759 -0.11798,10e-6 -0.26125,0.0126 -0.42979,0.0379 -0.16012,0.0169 -0.28232,0.0379 -0.36659,0.0632 l 0,5.08168 -1.88351,0 0,-6.29522 c 0.33709,-0.11797 0.73318,-0.22753 1.18825,-0.32866 0.46351,-0.10955 0.97757,-0.16433 1.54221,-0.16434 0.10113,10e-6 0.22332,0.008 0.36659,0.0253 0.14326,0.008 0.28652,0.0253 0.42979,0.0506 0.14326,0.0169 0.28653,0.0422 0.42979,0.0758 0.14326,0.0253 0.26546,0.059 0.36659,0.10112 l -0.31602,1.55485"
           inkscape:connector-curvature="0" />
        <path
           id="path10619"
           style="font-size:20px;font-style:normal;font-variant:normal;font-weight:bold;font-stretch:normal;text-align:center;line-height:125%;letter-spacing:0px;word-spacing:0px;text-anchor:middle;fill:#000000;fill-opacity:1;stroke:none;font-family:Ubuntu;-inkscape-font-specification:Ubuntu Bold"
           d="m 419.98013,530.3355 c 0,-0.5899 0.0885,-1.10397 0.26546,-1.5422 0.1854,-0.44664 0.42558,-0.81744 0.72054,-1.11241 0.29495,-0.29494 0.63205,-0.51827 1.01128,-0.66997 0.38766,-0.15169 0.78374,-0.22753 1.18826,-0.22754 0.94385,1e-5 1.68967,0.29075 2.23745,0.87223 0.54778,0.57307 0.82166,1.42001 0.82167,2.54084 -10e-6,0.10956 -0.004,0.23176 -0.0126,0.36659 -0.008,0.12642 -0.0169,0.24019 -0.0253,0.34131 l -4.27265,0 c 0.0421,0.38766 0.22332,0.69526 0.54356,0.92279 0.32023,0.22755 0.75003,0.34131 1.28938,0.34131 0.34552,0 0.68261,-0.0295 1.01128,-0.0885 0.33709,-0.0674 0.61098,-0.14747 0.82167,-0.24018 l 0.25282,1.52956 c -0.10114,0.0506 -0.23597,0.10113 -0.40452,0.1517 -0.16855,0.0506 -0.35817,0.0927 -0.56884,0.12641 -0.20226,0.0421 -0.42137,0.0758 -0.65733,0.10112 -0.23597,0.0253 -0.47194,0.0379 -0.7079,0.0379 -0.59834,0 -1.12084,-0.0885 -1.56748,-0.26546 -0.43823,-0.17698 -0.80482,-0.41716 -1.09977,-0.72054 -0.28653,-0.31181 -0.50142,-0.6784 -0.64469,-1.09977 -0.13484,-0.42136 -0.20226,-0.87644 -0.20226,-1.36523 m 4.42435,-0.72053 c -0.008,-0.16011 -0.0379,-0.31602 -0.0885,-0.46772 -0.0422,-0.15169 -0.11378,-0.28652 -0.2149,-0.40451 -0.0927,-0.11798 -0.2149,-0.21489 -0.36659,-0.29075 -0.14327,-0.0758 -0.32446,-0.11376 -0.54356,-0.11377 -0.21069,1e-5 -0.39188,0.0379 -0.54357,0.11377 -0.15169,0.0674 -0.2781,0.16013 -0.37923,0.27811 -0.10112,0.11799 -0.18119,0.25704 -0.24017,0.41715 -0.0506,0.1517 -0.0885,0.30761 -0.11377,0.46772 l 2.49027,0"
           inkscape:connector-curvature="0" />
        <path
           id="path10621"
           style="font-size:20px;font-style:normal;font-variant:normal;font-weight:bold;font-stretch:normal;text-align:center;line-height:125%;letter-spacing:0px;word-spacing:0px;text-anchor:middle;fill:#000000;fill-opacity:1;stroke:none;font-family:Ubuntu;-inkscape-font-specification:Ubuntu Bold"
           d="m 429.28371,530.23438 c 0,0.58149 0.13062,1.0492 0.39188,1.40315 0.26124,0.35395 0.6489,0.53092 1.16297,0.53092 0.16854,0 0.32444,-0.004 0.46771,-0.0126 0.14327,-0.0169 0.26124,-0.0337 0.35395,-0.0506 l 0,-3.42571 c -0.11799,-0.0758 -0.27389,-0.13904 -0.46771,-0.18961 -0.18541,-0.0506 -0.37502,-0.0758 -0.56885,-0.0758 -0.8933,10e-6 -1.33995,0.60678 -1.33995,1.82031 m 4.26002,3.16025 c -0.16855,0.0506 -0.36238,0.10112 -0.58148,0.15169 -0.21912,0.0422 -0.45087,0.0801 -0.69526,0.11377 -0.23597,0.0337 -0.48036,0.059 -0.73318,0.0758 -0.2444,0.0253 -0.48036,0.0379 -0.70789,0.0379 -0.54778,0 -1.03657,-0.0801 -1.46636,-0.24018 -0.4298,-0.16012 -0.79217,-0.38766 -1.08713,-0.68262 -0.29495,-0.30338 -0.52249,-0.66575 -0.68261,-1.08712 -0.15169,-0.42979 -0.22754,-0.91015 -0.22754,-1.44108 0,-0.53934 0.0674,-1.02391 0.20226,-1.45371 0.13483,-0.43822 0.32866,-0.80902 0.58148,-1.11241 0.25282,-0.30338 0.56042,-0.53513 0.9228,-0.69526 0.3708,-0.16011 0.79216,-0.24017 1.2641,-0.24018 0.26124,10e-6 0.49299,0.0253 0.69525,0.0759 0.21068,0.0506 0.42137,0.12221 0.63205,0.2149 l 0,-3.00856 1.88351,-0.30339 0,9.59453"
           inkscape:connector-curvature="0" />
        <path
           id="path10623"
           style="font-size:20px;font-style:normal;font-variant:normal;font-weight:bold;font-stretch:normal;text-align:center;line-height:125%;letter-spacing:0px;word-spacing:0px;text-anchor:middle;fill:#000000;fill-opacity:1;stroke:none;font-family:Ubuntu;-inkscape-font-specification:Ubuntu Bold"
           d="m 434.99132,530.3355 c 0,-0.5899 0.0885,-1.10397 0.26546,-1.5422 0.1854,-0.44664 0.42558,-0.81744 0.72054,-1.11241 0.29495,-0.29494 0.63205,-0.51827 1.01128,-0.66997 0.38766,-0.15169 0.78374,-0.22753 1.18826,-0.22754 0.94386,1e-5 1.68967,0.29075 2.23745,0.87223 0.54778,0.57307 0.82166,1.42001 0.82167,2.54084 -10e-6,0.10956 -0.004,0.23176 -0.0126,0.36659 -0.008,0.12642 -0.0169,0.24019 -0.0253,0.34131 l -4.27266,0 c 0.0421,0.38766 0.22332,0.69526 0.54356,0.92279 0.32023,0.22755 0.75003,0.34131 1.28938,0.34131 0.34552,0 0.68261,-0.0295 1.01128,-0.0885 0.33709,-0.0674 0.61098,-0.14747 0.82167,-0.24018 l 0.25282,1.52956 c -0.10114,0.0506 -0.23597,0.10113 -0.40451,0.1517 -0.16856,0.0506 -0.35818,0.0927 -0.56885,0.12641 -0.20226,0.0421 -0.42137,0.0758 -0.65733,0.10112 -0.23597,0.0253 -0.47194,0.0379 -0.7079,0.0379 -0.59834,0 -1.12084,-0.0885 -1.56748,-0.26546 -0.43823,-0.17698 -0.80482,-0.41716 -1.09977,-0.72054 -0.28653,-0.31181 -0.50142,-0.6784 -0.64469,-1.09977 -0.13484,-0.42136 -0.20226,-0.87644 -0.20226,-1.36523 m 4.42435,-0.72053 c -0.008,-0.16011 -0.0379,-0.31602 -0.0885,-0.46772 -0.0422,-0.15169 -0.11378,-0.28652 -0.2149,-0.40451 -0.0927,-0.11798 -0.2149,-0.21489 -0.36659,-0.29075 -0.14327,-0.0758 -0.32446,-0.11376 -0.54356,-0.11377 -0.21069,1e-5 -0.39188,0.0379 -0.54357,0.11377 -0.15169,0.0674 -0.2781,0.16013 -0.37923,0.27811 -0.10112,0.11799 -0.18119,0.25704 -0.24017,0.41715 -0.0506,0.1517 -0.0885,0.30761 -0.11377,0.46772 l 2.49027,0"
           inkscape:connector-curvature="0" />
        <path
           id="path10625"
           style="font-size:20px;font-style:normal;font-variant:normal;font-weight:bold;font-stretch:normal;text-align:center;line-height:125%;letter-spacing:0px;word-spacing:0px;text-anchor:middle;fill:#000000;fill-opacity:1;stroke:none;font-family:Ubuntu;-inkscape-font-specification:Ubuntu Bold"
           d="m 444.59829,532.25694 c 0.34552,0 0.58991,-0.0337 0.73318,-0.10113 0.14326,-0.0674 0.21489,-0.19804 0.21489,-0.39187 0,-0.15169 -0.0927,-0.28232 -0.2781,-0.39187 -0.1854,-0.11798 -0.46772,-0.24861 -0.84695,-0.39188 -0.29495,-0.10955 -0.56463,-0.22332 -0.80902,-0.3413 -0.23597,-0.11798 -0.43822,-0.25703 -0.60677,-0.41716 -0.16855,-0.16854 -0.29917,-0.36658 -0.39187,-0.59412 -0.0927,-0.22753 -0.13905,-0.50142 -0.13905,-0.82167 0,-0.62362 0.23175,-1.11661 0.69526,-1.479 0.4635,-0.36236 1.09976,-0.54355 1.90879,-0.54356 0.4045,1e-5 0.79216,0.0379 1.16297,0.11377 0.3708,0.0674 0.66575,0.14327 0.88487,0.22754 l -0.32867,1.46635 c -0.21912,-0.0758 -0.45929,-0.14326 -0.72053,-0.20225 -0.25283,-0.059 -0.53936,-0.0885 -0.85959,-0.0885 -0.58992,10e-6 -0.88488,0.16434 -0.88487,0.493 -10e-6,0.0758 0.0126,0.14327 0.0379,0.20226 0.0253,0.059 0.0758,0.11799 0.15169,0.17697 0.0758,0.0506 0.17697,0.10956 0.30339,0.17697 0.13483,0.059 0.30337,0.12642 0.50564,0.20226 0.41293,0.1517 0.75424,0.30339 1.02392,0.45508 0.26967,0.14327 0.48035,0.30339 0.63205,0.48036 0.16011,0.16854 0.26967,0.35816 0.32866,0.56884 0.0674,0.21069 0.10113,0.45508 0.10113,0.73318 0,0.65733 -0.24861,1.15455 -0.74582,1.49164 -0.48879,0.33709 -1.18404,0.50564 -2.08576,0.50564 -0.58992,0 -1.08292,-0.0506 -1.479,-0.1517 -0.38766,-0.10112 -0.65733,-0.18539 -0.80902,-0.25282 l 0.31602,-1.52956 c 0.32024,0.12642 0.6489,0.22755 0.986,0.30339 0.33709,0.0674 0.66997,0.10113 0.99864,0.10113"
           inkscape:connector-curvature="0" />
      </g>
    </g>
    <path
       style="fill:none;stroke:#000000;stroke-width:1px;stroke-linecap:butt;stroke-linejoin:miter;stroke-opacity:1"
       d="m 657.28624,603.95068 28.66046,0 0.61425,-40.54047"
       id="path4904"
       inkscape:connector-curvature="0"
       sodipodi:nodetypes="ccc" />
    <g
       id="g4878"
       transform="translate(-274,0)">
      <rect
         style="fill:#e6e6e6;fill-opacity:1;stroke:#7c7c7c;stroke-width:2.52820039;stroke-linecap:round;stroke-linejoin:miter;stroke-miterlimit:4;stroke-opacity:1;stroke-dasharray:none;stroke-dashoffset:0"
         id="rect10499"
         width="252.37816"
         height="38.076298"
         x="686.30945"
         y="584.20752"
         rx="0" />
      <g
         id="flowRoot10527"
         style="font-size:20px;font-style:normal;font-variant:normal;font-weight:normal;font-stretch:normal;line-height:125%;letter-spacing:0px;word-spacing:0px;fill:#000000;fill-opacity:1;stroke:none;font-family:Ubuntu;-inkscape-font-specification:Ubuntu"
         transform="matrix(1.0329385,0,0,1.0329385,333.45183,105.44962)">
        <path
           id="path10561"
           style="font-weight:bold;text-align:center;text-anchor:middle;-inkscape-font-specification:Ubuntu Bold"
           d="m 435.25984,478.65225 c -10e-6,0.50668 -0.10001,0.99335 -0.3,1.46 -0.20001,0.46668 -0.46001,0.92001 -0.78,1.36 -0.32,0.42668 -0.68,0.84001 -1.08,1.24 -0.4,0.40001 -0.79334,0.78001 -1.18,1.14 -0.2,0.18667 -0.42,0.40001 -0.66,0.64 -0.22667,0.22667 -0.44667,0.46001 -0.66,0.7 -0.21333,0.24001 -0.40667,0.46667 -0.58,0.68 -0.16,0.20001 -0.26,0.36667 -0.3,0.5 l 5.96,0 0,2.5 -9.24,0 c -0.0267,-0.14666 -0.04,-0.33333 -0.04,-0.56 0,-0.22666 0,-0.38666 0,-0.48 0,-0.64 0.1,-1.22666 0.3,-1.76 0.21334,-0.53333 0.48667,-1.02666 0.82,-1.48 0.33333,-0.46666 0.70667,-0.89999 1.12,-1.3 0.42667,-0.39999 0.84667,-0.79999 1.26,-1.2 0.32,-0.30666 0.62,-0.59332 0.9,-0.86 0.28,-0.27999 0.52666,-0.54666 0.74,-0.8 0.21333,-0.26665 0.38,-0.52665 0.5,-0.78 0.12,-0.26665 0.18,-0.53332 0.18,-0.8 0,-0.58665 -0.16667,-0.99999 -0.5,-1.24 -0.33334,-0.23999 -0.74667,-0.35999 -1.24,-0.36 -0.36,10e-6 -0.7,0.06 -1.02,0.18 -0.30667,0.10668 -0.59333,0.24001 -0.86,0.4 -0.25333,0.14668 -0.47333,0.30001 -0.66,0.46 -0.18667,0.14668 -0.32667,0.26668 -0.42,0.36 l -1.48,-2.08 c 0.58667,-0.54665 1.26667,-0.99332 2.04,-1.34 0.78667,-0.35998 1.62667,-0.53998 2.52,-0.54 0.81333,2e-5 1.51333,0.0933 2.1,0.28 0.58666,0.18668 1.06666,0.45335 1.44,0.8 0.38666,0.33335 0.66666,0.74668 0.84,1.24 0.18666,0.48001 0.27999,1.02668 0.28,1.64"
           inkscape:connector-curvature="0" />
        <path
           id="path10563"
           style="font-weight:bold;text-align:center;text-anchor:middle;-inkscape-font-specification:Ubuntu Bold"
           d="m 440.70703,481.01225 c 0.21333,1e-5 0.41333,-0.007 0.6,-0.02 0.2,-0.0133 0.36,-0.0267 0.48,-0.04 l 0,-1.56 c -0.0933,-0.0267 -0.22667,-0.0466 -0.4,-0.06 -0.17334,-0.0266 -0.33334,-0.04 -0.48,-0.04 -0.4,10e-6 -0.74667,0.0533 -1.04,0.16 -0.29333,0.10668 -0.44,0.33335 -0.44,0.68 0,0.34668 0.11333,0.58001 0.34,0.7 0.24,0.12001 0.55333,0.18001 0.94,0.18 m -0.18,-6.3 c 0.64,2e-5 1.17333,0.0734 1.6,0.22 0.44,0.13335 0.79333,0.33335 1.06,0.6 0.26666,0.26668 0.45333,0.58668 0.56,0.96 0.11999,0.37335 0.17999,0.80001 0.18,1.28 l 0,4.54 c -0.30667,0.0667 -0.75334,0.15334 -1.34,0.26 -0.57334,0.0933 -1.24667,0.14001 -2.02,0.14 -1.05333,1e-5 -1.88,-0.18666 -2.48,-0.56 -0.6,-0.37332 -0.9,-1.02666 -0.9,-1.96 0,-0.45332 0.0867,-0.82665 0.26,-1.12 0.18667,-0.30665 0.42667,-0.55332 0.72,-0.74 0.30667,-0.18665 0.66,-0.31999 1.06,-0.4 0.41333,-0.08 0.84,-0.11999 1.28,-0.12 0.26666,10e-6 0.50666,0.0134 0.72,0.04 0.22666,0.0267 0.41333,0.0533 0.56,0.08 l 0,-0.2 c 0,-0.37332 -0.11334,-0.65999 -0.34,-0.86 -0.22667,-0.21332 -0.61334,-0.31998 -1.16,-0.32 -0.37334,2e-5 -0.74667,0.0267 -1.12,0.08 -0.37333,0.0534 -0.69333,0.12668 -0.96,0.22 l -0.3,-1.78 c 0.25333,-0.08 0.62667,-0.15998 1.12,-0.24 0.50667,-0.08 1.00666,-0.11998 1.5,-0.12"
           inkscape:connector-curvature="0" />
        <path
           id="path10565"
           style="font-weight:bold;text-align:center;text-anchor:middle;-inkscape-font-specification:Ubuntu Bold"
           d="m 454.76047,475.01225 c 0.23999,0.44002 0.51333,0.98668 0.82,1.64 0.31999,0.64001 0.64666,1.34001 0.98,2.1 0.34666,0.74668 0.68666,1.51334 1.02,2.3 0.33332,0.78668 0.64666,1.52668 0.94,2.22 0.29332,-0.69332 0.60666,-1.43332 0.94,-2.22 0.33332,-0.78666 0.66665,-1.55332 1,-2.3 0.34665,-0.75999 0.67332,-1.45999 0.98,-2.1 0.31999,-0.65332 0.59999,-1.19998 0.84,-1.64 l 2.84,0 c 0.13332,0.92002 0.25332,1.95335 0.36,3.1 0.11998,1.13335 0.21998,2.32001 0.3,3.56 0.0933,1.22668 0.17332,2.46001 0.24,3.7 0.08,1.24001 0.14665,2.40667 0.2,3.5 l -3.04,0 c -0.04,-1.34666 -0.0933,-2.81333 -0.16,-4.4 -0.0667,-1.58666 -0.16668,-3.18666 -0.3,-4.8 -0.24001,0.56001 -0.50668,1.18001 -0.8,1.86 -0.29335,0.68001 -0.58668,1.36001 -0.88,2.04 -0.28001,0.68001 -0.55335,1.33334 -0.82,1.96 -0.26668,0.61334 -0.49334,1.14001 -0.68,1.58 l -2.18,0 c -0.18668,-0.43999 -0.41334,-0.96666 -0.68,-1.58 -0.26667,-0.62666 -0.54667,-1.27999 -0.84,-1.96 -0.28001,-0.67999 -0.56667,-1.35999 -0.86,-2.04 -0.29334,-0.67999 -0.56001,-1.29999 -0.8,-1.86 -0.13334,1.61334 -0.23334,3.21334 -0.3,4.8 -0.0667,1.58667 -0.12001,3.05334 -0.16,4.4 l -3.04,0 c 0.0533,-1.09333 0.11333,-2.25999 0.18,-3.5 0.08,-1.23999 0.16,-2.47332 0.24,-3.7 0.0933,-1.23999 0.19333,-2.42665 0.3,-3.56 0.12,-1.14665 0.24666,-2.17998 0.38,-3.1 l 2.98,0"
           inkscape:connector-curvature="0" />
        <path
           id="path10567"
           style="font-weight:bold;text-align:center;text-anchor:middle;-inkscape-font-specification:Ubuntu Bold"
           d="m 472.83016,486.79225 c 0.29332,10e-6 0.57332,-0.007 0.84,-0.02 0.26666,-0.0133 0.47999,-0.0333 0.64,-0.06 l 0,-2.26 c -0.12001,-0.0267 -0.30001,-0.0533 -0.54,-0.08 -0.24001,-0.0267 -0.46001,-0.04 -0.66,-0.04 -0.28001,1e-5 -0.54668,0.02 -0.8,0.06 -0.24001,0.0267 -0.45334,0.0867 -0.64,0.18 -0.18667,0.0933 -0.33334,0.22001 -0.44,0.38 -0.10667,0.16001 -0.16001,0.36001 -0.16,0.6 -10e-6,0.46667 0.15333,0.79334 0.46,0.98 0.31999,0.17334 0.75332,0.26001 1.3,0.26 m -0.24,-8.72 c 0.87999,1e-5 1.61332,0.10001 2.2,0.3 0.58665,0.20001 1.05332,0.48668 1.4,0.86 0.35999,0.37335 0.61332,0.82668 0.76,1.36 0.14665,0.53334 0.21999,1.12668 0.22,1.78 l 0,6.2 c -0.42668,0.0933 -1.02001,0.2 -1.78,0.32 -0.76001,0.13334 -1.68001,0.2 -2.76,0.2 -0.68001,0 -1.30001,-0.06 -1.86,-0.18 -0.54667,-0.12 -1.02001,-0.31333 -1.42,-0.58 -0.40001,-0.28 -0.70667,-0.64 -0.92,-1.08 -0.21334,-0.43999 -0.32,-0.97999 -0.32,-1.62 0,-0.61333 0.12,-1.13333 0.36,-1.56 0.25333,-0.42666 0.58666,-0.76666 1,-1.02 0.41333,-0.25332 0.88666,-0.43332 1.42,-0.54 0.53333,-0.11999 1.08666,-0.17999 1.66,-0.18 0.38666,1e-5 0.72666,0.02 1.02,0.06 0.30666,0.0267 0.55332,0.0667 0.74,0.12 l 0,-0.28 c -10e-6,-0.50666 -0.15334,-0.91332 -0.46,-1.22 -0.30668,-0.30666 -0.84001,-0.45999 -1.6,-0.46 -0.50667,10e-6 -1.00667,0.04 -1.5,0.12 -0.49334,0.0667 -0.92001,0.16668 -1.28,0.3 l -0.38,-2.4 c 0.17333,-0.0533 0.38666,-0.10665 0.64,-0.16 0.26666,-0.0666 0.55333,-0.11999 0.86,-0.16 0.30666,-0.0533 0.62666,-0.0933 0.96,-0.12 0.34666,-0.04 0.69332,-0.06 1.04,-0.06"
           inkscape:connector-curvature="0" />
        <path
           id="path10569"
           style="font-weight:bold;text-align:center;text-anchor:middle;-inkscape-font-specification:Ubuntu Bold"
           d="m 479.86484,478.71225 c 0.50667,-0.14665 1.16,-0.27999 1.96,-0.4 0.8,-0.13332 1.64,-0.19999 2.52,-0.2 0.89333,10e-6 1.63333,0.12001 2.22,0.36 0.6,0.22668 1.07333,0.55335 1.42,0.98 0.34666,0.42668 0.59333,0.93334 0.74,1.52 0.14666,0.58668 0.21999,1.24001 0.22,1.96 l 0,5.94 -2.98,0 0,-5.58 c 0,-0.95999 -0.12667,-1.63999 -0.38,-2.04 -0.25334,-0.39999 -0.72667,-0.59999 -1.42,-0.6 -0.21334,1e-5 -0.44,0.0133 -0.68,0.04 -0.24,0.0133 -0.45333,0.0333 -0.64,0.06 l 0,8.12 -2.98,0 0,-10.16"
           inkscape:connector-curvature="0" />
        <path
           id="path10571"
           style="font-weight:bold;text-align:center;text-anchor:middle;-inkscape-font-specification:Ubuntu Bold"
           d="m 501.50172,483.59225 c -10e-6,0.82667 -0.12001,1.58667 -0.36,2.28 -0.24001,0.68001 -0.58668,1.26667 -1.04,1.76 -0.45334,0.48 -1.00001,0.85334 -1.64,1.12 -0.62668,0.26667 -1.33334,0.4 -2.12,0.4 -0.77334,0 -1.48001,-0.13333 -2.12,-0.4 -0.62667,-0.26666 -1.16667,-0.64 -1.62,-1.12 -0.45334,-0.49333 -0.80667,-1.07999 -1.06,-1.76 -0.25334,-0.69333 -0.38,-1.45333 -0.38,-2.28 0,-0.82666 0.12666,-1.57999 0.38,-2.26 0.26666,-0.67999 0.62666,-1.25999 1.08,-1.74 0.46666,-0.47999 1.01333,-0.85332 1.64,-1.12 0.63999,-0.26665 1.33333,-0.39999 2.08,-0.4 0.75999,1e-5 1.45332,0.13335 2.08,0.4 0.63999,0.26668 1.18666,0.64001 1.64,1.12 0.45332,0.48001 0.80665,1.06001 1.06,1.74 0.25332,0.68001 0.37999,1.43334 0.38,2.26 m -3.04,0 c -1e-5,-0.91999 -0.18668,-1.63999 -0.56,-2.16 -0.36001,-0.53332 -0.88001,-0.79999 -1.56,-0.8 -0.68001,10e-6 -1.20667,0.26668 -1.58,0.8 -0.37334,0.52001 -0.56001,1.24001 -0.56,2.16 -1e-5,0.92001 0.18666,1.65334 0.56,2.2 0.37333,0.53334 0.89999,0.80001 1.58,0.8 0.67999,1e-5 1.19999,-0.26666 1.56,-0.8 0.37332,-0.54666 0.55999,-1.27999 0.56,-2.2"
           inkscape:connector-curvature="0" />
      </g>
    </g>
    <g
       id="g4890"
       transform="translate(-258.59905,-82.309437)">
      <rect
         rx="0"
         y="624.81201"
         x="966.26172"
         height="38.076298"
         width="81.451195"
         id="rect10501"
         style="fill:#e6e6e6;fill-opacity:1;stroke:#7c7c7c;stroke-width:2.52820039;stroke-linecap:round;stroke-linejoin:miter;stroke-miterlimit:4;stroke-opacity:1;stroke-dasharray:none;stroke-dashoffset:0" />
      <g
         id="flowRoot10535"
         style="font-size:20px;font-style:normal;font-variant:normal;font-weight:normal;font-stretch:normal;line-height:125%;letter-spacing:0px;word-spacing:0px;fill:#000000;fill-opacity:1;stroke:none;font-family:Ubuntu;-inkscape-font-specification:Ubuntu"
         transform="matrix(0.91044539,0,0,0.91044539,402.21301,203.25172)">
        <path
           id="path10544"
           style="font-weight:bold;text-align:center;text-anchor:middle;-inkscape-font-specification:Ubuntu Bold"
           d="m 632.70375,487.06725 0,2.68 -9.26,0 0,-13.86 3.12,0 0,11.18 6.14,0"
           inkscape:connector-curvature="0" />
        <path
           id="path10546"
           style="font-weight:bold;text-align:center;text-anchor:middle;-inkscape-font-specification:Ubuntu Bold"
           d="m 637.47375,489.74725 -2.98,0 0,-10.52 2.98,0 0,10.52 m 0.28,-13.56 c 0,0.54668 -0.18,0.98002 -0.54,1.3 -0.34667,0.30668 -0.76,0.46001 -1.24,0.46 -0.48,1e-5 -0.9,-0.15332 -1.26,-0.46 -0.34667,-0.31998 -0.52,-0.75332 -0.52,-1.3 0,-0.54665 0.17333,-0.97332 0.52,-1.28 0.36,-0.31998 0.78,-0.47998 1.26,-0.48 0.48,2e-5 0.89333,0.16002 1.24,0.48 0.36,0.30668 0.54,0.73335 0.54,1.28"
           inkscape:connector-curvature="0" />
        <path
           id="path10548"
           style="font-weight:bold;text-align:center;text-anchor:middle;-inkscape-font-specification:Ubuntu Bold"
           d="m 646.055,484.16725 c -10e-6,-0.95999 -0.12667,-1.63999 -0.38,-2.04 -0.24001,-0.39999 -0.66001,-0.59999 -1.26,-0.6 -0.18667,1e-5 -0.38001,0.0133 -0.58,0.04 -0.2,0.0133 -0.39334,0.0333 -0.58,0.06 l 0,8.12 -2.98,0 0,-10.16 c 0.25333,-0.0666 0.54666,-0.13332 0.88,-0.2 0.34666,-0.08 0.70666,-0.14665 1.08,-0.2 0.38666,-0.0666 0.78,-0.11332 1.18,-0.14 0.4,-0.04 0.79333,-0.06 1.18,-0.06 0.75999,10e-6 1.37333,0.10001 1.84,0.3 0.47999,0.18668 0.87332,0.41335 1.18,0.68 0.42666,-0.30665 0.91332,-0.54665 1.46,-0.72 0.55999,-0.17332 1.07332,-0.25999 1.54,-0.26 0.83999,10e-6 1.52665,0.12001 2.06,0.36 0.54665,0.22668 0.97999,0.55335 1.3,0.98 0.31998,0.42668 0.53998,0.93334 0.66,1.52 0.11998,0.58668 0.17998,1.24001 0.18,1.96 l 0,5.94 -2.98,0 0,-5.58 c -1e-5,-0.95999 -0.12668,-1.63999 -0.38,-2.04 -0.24001,-0.39999 -0.66001,-0.59999 -1.26,-0.6 -0.16001,1e-5 -0.38668,0.04 -0.68,0.12 -0.28001,0.08 -0.51334,0.18001 -0.7,0.3 0.0933,0.30668 0.15332,0.63334 0.18,0.98 0.0267,0.33334 0.04,0.69334 0.04,1.08 l 0,5.74 -2.98,0 0,-5.58"
           inkscape:connector-curvature="0" />
        <path
           id="path10550"
           style="font-weight:bold;text-align:center;text-anchor:middle;-inkscape-font-specification:Ubuntu Bold"
           d="m 664.24156,484.56725 c -1e-5,-0.91999 -0.20667,-1.65332 -0.62,-2.2 -0.41334,-0.55999 -1.02667,-0.83999 -1.84,-0.84 -0.26667,1e-5 -0.51334,0.0133 -0.74,0.04 -0.22667,0.0133 -0.41334,0.0333 -0.56,0.06 l 0,5.38 c 0.18666,0.12001 0.42666,0.22001 0.72,0.3 0.30666,0.08 0.61333,0.12001 0.92,0.12 1.41333,10e-6 2.11999,-0.95333 2.12,-2.86 m 3.04,-0.08 c -10e-6,0.81334 -0.10001,1.55334 -0.3,2.22 -0.20001,0.66667 -0.49334,1.24 -0.88,1.72 -0.38667,0.48 -0.86667,0.85334 -1.44,1.12 -0.57334,0.26667 -1.23334,0.4 -1.98,0.4 -0.41334,0 -0.8,-0.04 -1.16,-0.12 -0.36,-0.08 -0.70667,-0.19333 -1.04,-0.34 l 0,3.96 -2.98,0 0,-13.86 c 0.26667,-0.08 0.57333,-0.15332 0.92,-0.22 0.34667,-0.08 0.70667,-0.14665 1.08,-0.2 0.38667,-0.0533 0.77333,-0.0933 1.16,-0.12 0.4,-0.04 0.78,-0.06 1.14,-0.06 0.86666,10e-6 1.64,0.13335 2.32,0.4 0.67999,0.25335 1.25333,0.62001 1.72,1.1 0.46666,0.46668 0.81999,1.04001 1.06,1.72 0.25332,0.68001 0.37999,1.44001 0.38,2.28"
           inkscape:connector-curvature="0" />
        <path
           id="path10552"
           style="font-weight:bold;text-align:center;text-anchor:middle;-inkscape-font-specification:Ubuntu Bold"
           d="m 672.55187,489.74725 -2.98,0 0,-10.52 2.98,0 0,10.52 m 0.28,-13.56 c 0,0.54668 -0.18,0.98002 -0.54,1.3 -0.34667,0.30668 -0.76,0.46001 -1.24,0.46 -0.48,1e-5 -0.9,-0.15332 -1.26,-0.46 -0.34666,-0.31998 -0.52,-0.75332 -0.51999,-1.3 -10e-6,-0.54665 0.17333,-0.97332 0.51999,-1.28 0.36,-0.31998 0.78,-0.47998 1.26,-0.48 0.48,2e-5 0.89333,0.16002 1.24,0.48 0.36,0.30668 0.54,0.73335 0.54,1.28"
           inkscape:connector-curvature="0" />
        <path
           id="path10554"
           style="font-weight:bold;text-align:center;text-anchor:middle;-inkscape-font-specification:Ubuntu Bold"
           d="m 674.85312,484.56725 c 0,-0.93332 0.14,-1.74666 0.42001,-2.44 0.29333,-0.70666 0.67333,-1.29332 1.14,-1.76 0.46666,-0.46665 0.99999,-0.81999 1.59999,-1.06 0.61333,-0.23999 1.24,-0.35999 1.88001,-0.36 1.49332,1e-5 2.67332,0.46001 3.54,1.38 0.86665,0.90668 1.29998,2.24668 1.29999,4.02 -10e-6,0.17334 -0.007,0.36667 -0.02,0.58 -0.0133,0.20001 -0.0267,0.38001 -0.04,0.54 l -6.76,0 c 0.0667,0.61334 0.35332,1.10001 0.86,1.46 0.50666,0.36001 1.18666,0.54001 2.04,0.54 0.54665,1e-5 1.07999,-0.0467 1.6,-0.14 0.53332,-0.10666 0.96665,-0.23333 1.29999,-0.38 l 0.4,2.42 c -0.16,0.08 -0.37334,0.16 -0.64,0.24 -0.26667,0.08 -0.56667,0.14667 -0.9,0.2 -0.32,0.0667 -0.66667,0.12 -1.03999,0.16 -0.37335,0.04 -0.74668,0.06 -1.12,0.06 -0.94668,0 -1.77334,-0.14 -2.48,-0.42 -0.69334,-0.28 -1.27334,-0.66 -1.74001,-1.14 -0.45333,-0.49333 -0.79333,-1.07333 -1.01999,-1.74 -0.21334,-0.66666 -0.32001,-1.38666 -0.32001,-2.16 m 7,-1.14 c -0.0133,-0.25332 -0.06,-0.49999 -0.14,-0.74 -0.0667,-0.23999 -0.18,-0.45332 -0.34,-0.64 -0.14667,-0.18666 -0.34,-0.33999 -0.57999,-0.46 -0.22668,-0.11999 -0.51334,-0.17999 -0.86,-0.18 -0.33334,1e-5 -0.62001,0.06 -0.86001,0.18 -0.24,0.10668 -0.44,0.25334 -0.6,0.44 -0.16,0.18668 -0.28667,0.40668 -0.38,0.66 -0.08,0.24001 -0.14,0.48668 -0.17999,0.74 l 3.93999,0"
           inkscape:connector-curvature="0" />
        <path
           id="path10556"
           style="font-weight:bold;text-align:center;text-anchor:middle;-inkscape-font-specification:Ubuntu Bold"
           d="m 694.93281,481.22725 c -0.24001,0.26668 -0.56667,0.62668 -0.98,1.08 -0.40001,0.45334 -0.83334,0.95334 -1.3,1.5 -0.46667,0.54668 -0.94,1.12001 -1.42,1.72 -0.46667,0.60001 -0.89334,1.18001 -1.28,1.74 l 5.08,0 0,2.48 -8.7,0 0,-1.76 c 0.28,-0.47999 0.61333,-0.99333 1,-1.54 0.4,-0.55999 0.81333,-1.11999 1.24,-1.68 0.44,-0.55999 0.87333,-1.09999 1.3,-1.62 0.42666,-0.53332 0.82,-1.01332 1.18,-1.44 l -4.48,0 0,-2.48 8.36,0 0,2"
           inkscape:connector-curvature="0" />
        <path
           id="path10558"
           style="font-weight:bold;text-align:center;text-anchor:middle;-inkscape-font-specification:Ubuntu Bold"
           d="m 700.74031,487.66725 c 0.29333,10e-6 0.57333,-0.007 0.84,-0.02 0.26666,-0.0133 0.48,-0.0333 0.64,-0.06 l 0,-2.26 c -0.12,-0.0267 -0.3,-0.0533 -0.54,-0.08 -0.24,-0.0267 -0.46,-0.04 -0.66,-0.04 -0.28,1e-5 -0.54667,0.02 -0.8,0.06 -0.24,0.0267 -0.45334,0.0867 -0.64,0.18 -0.18667,0.0933 -0.33333,0.22001 -0.44,0.38 -0.10667,0.16001 -0.16,0.36001 -0.16,0.6 0,0.46667 0.15333,0.79334 0.46,0.98 0.32,0.17334 0.75333,0.26001 1.3,0.26 m -0.24,-8.72 c 0.88,1e-5 1.61333,0.10001 2.2,0.3 0.58666,0.20001 1.05333,0.48668 1.4,0.86 0.35999,0.37335 0.61333,0.82668 0.76,1.36 0.14666,0.53334 0.21999,1.12668 0.22,1.78 l 0,6.2 c -0.42667,0.0933 -1.02001,0.2 -1.78,0.32 -0.76,0.13334 -1.68,0.2 -2.76,0.2 -0.68,0 -1.3,-0.06 -1.86,-0.18 -0.54667,-0.12 -1.02,-0.31333 -1.42,-0.58 -0.4,-0.28 -0.70667,-0.64 -0.92,-1.08 -0.21333,-0.43999 -0.32,-0.97999 -0.32,-1.62 0,-0.61333 0.12,-1.13333 0.36,-1.56 0.25333,-0.42666 0.58667,-0.76666 1,-1.02 0.41333,-0.25332 0.88667,-0.43332 1.42,-0.54 0.53333,-0.11999 1.08666,-0.17999 1.66,-0.18 0.38666,1e-5 0.72666,0.02 1.02,0.06 0.30666,0.0267 0.55333,0.0667 0.74,0.12 l 0,-0.28 c 0,-0.50666 -0.15334,-0.91332 -0.46,-1.22 -0.30667,-0.30666 -0.84,-0.45999 -1.6,-0.46 -0.50667,10e-6 -1.00667,0.04 -1.5,0.12 -0.49333,0.0667 -0.92,0.16668 -1.28,0.3 l -0.38,-2.4 c 0.17333,-0.0533 0.38667,-0.10665 0.64,-0.16 0.26667,-0.0666 0.55333,-0.11999 0.86,-0.16 0.30667,-0.0533 0.62667,-0.0933 0.96,-0.12 0.34666,-0.04 0.69333,-0.06 1.04,-0.06"
           inkscape:connector-curvature="0" />
      </g>
    </g>
    <g
       id="g4787"
       transform="matrix(1.4170291,0,0,1.4170291,-3.0535205,-184.71565)">
      <path
         inkscape:connector-curvature="0"
         d="m 7.2736765,435.84712 c 1.3062321,2e-5 2.3090839,0.23176 3.0085585,0.69526 0.699461,0.45509 1.049196,1.20512 1.049203,2.2501 -7e-6,1.05342 -0.353955,1.81609 -1.061844,2.28802 -0.7079018,0.46351 -1.7191813,0.69526 -3.0338405,0.69525 l -0.6194091,0 0,2.93272 -1.9719964,0 0,-8.63381 c 0.4297928,-0.0843 0.8848683,-0.14325 1.3652282,-0.17697 0.4803556,-0.0337 0.9017219,-0.0506 1.2641003,-0.0506 m 0.12641,1.68126 c -0.1432681,0 -0.286533,0.004 -0.4297941,0.0126 -0.1348403,0.008 -0.2528232,0.0169 -0.353948,0.0253 l 0,2.5282 0.6194091,0 c 0.6826097,1e-5 1.1966769,-0.0927 1.5422023,-0.2781 0.3455152,-0.18539 0.5182754,-0.53092 0.5182811,-1.03656 -5.7e-6,-0.24439 -0.046355,-0.44664 -0.1390511,-0.60677 -0.084279,-0.16011 -0.2106882,-0.28652 -0.37923,-0.37923 -0.1601242,-0.10112 -0.3581664,-0.16854 -0.5941271,-0.20226 -0.2359696,-0.0422 -0.4972168,-0.0632 -0.7837422,-0.0632"
         style="font-size:20px;font-style:normal;font-variant:normal;font-weight:bold;font-stretch:normal;text-align:center;line-height:125%;letter-spacing:0px;word-spacing:0px;text-anchor:middle;fill:#000000;fill-opacity:1;stroke:none;font-family:Ubuntu;-inkscape-font-specification:Ubuntu Bold"
         id="path10653" />
      <path
         inkscape:connector-curvature="0"
         d="m 16.672657,439.72791 c -0.168552,-0.0422 -0.366594,-0.0843 -0.594127,-0.12641 -0.227542,-0.0506 -0.471935,-0.0758 -0.733179,-0.0758 -0.117986,0 -0.26125,0.0126 -0.429794,0.0379 -0.160122,0.0169 -0.282318,0.0379 -0.366589,0.0632 l 0,5.08169 -1.883509,0 0,-6.29522 c 0.337092,-0.11797 0.733177,-0.22753 1.188254,-0.32867 0.463501,-0.10955 0.977568,-0.16432 1.542202,-0.16433 0.101125,10e-6 0.223321,0.008 0.36659,0.0253 0.14326,0.008 0.286525,0.0253 0.429794,0.0506 0.14326,0.0169 0.286524,0.0422 0.429794,0.0759 0.14326,0.0253 0.265456,0.059 0.366589,0.10113 l -0.316025,1.55484"
         style="font-size:20px;font-style:normal;font-variant:normal;font-weight:bold;font-stretch:normal;text-align:center;line-height:125%;letter-spacing:0px;word-spacing:0px;text-anchor:middle;fill:#000000;fill-opacity:1;stroke:none;font-family:Ubuntu;-inkscape-font-specification:Ubuntu Bold"
         id="path10655" />
      <path
         inkscape:connector-curvature="0"
         d="m 17.55891,441.43445 c -1e-6,-0.58991 0.08849,-1.10398 0.265461,-1.5422 0.1854,-0.44665 0.425579,-0.81745 0.720537,-1.11241 0.294954,-0.29495 0.632048,-0.51828 1.01128,-0.66998 0.387654,-0.15168 0.783739,-0.22753 1.188254,-0.22753 0.943857,0 1.689675,0.29075 2.237458,0.87222 0.54777,0.57307 0.821658,1.42002 0.821665,2.54085 -7e-6,0.10956 -0.0042,0.23175 -0.01264,0.36659 -0.0084,0.12641 -0.01686,0.24018 -0.02528,0.3413 l -4.272659,0 c 0.04213,0.38766 0.223322,0.69526 0.543563,0.9228 0.320235,0.22754 0.750029,0.34131 1.289383,0.3413 0.345515,1e-5 0.682609,-0.0295 1.01128,-0.0885 0.337087,-0.0674 0.610975,-0.14748 0.821665,-0.24018 l 0.25282,1.52956 c -0.101134,0.0506 -0.235972,0.10113 -0.404512,0.15169 -0.168553,0.0506 -0.358168,0.0927 -0.568845,0.12641 -0.202262,0.0422 -0.421372,0.0759 -0.657332,0.10113 -0.235971,0.0253 -0.471936,0.0379 -0.707897,0.0379 -0.598344,0 -1.120838,-0.0885 -1.567484,-0.26546 -0.438224,-0.17697 -0.804812,-0.41715 -1.099767,-0.72054 -0.28653,-0.31181 -0.501428,-0.6784 -0.644691,-1.09976 -0.134839,-0.42137 -0.202257,-0.87644 -0.202256,-1.36523 m 4.424351,-0.72054 c -0.0084,-0.16011 -0.03793,-0.31602 -0.08849,-0.46772 -0.04214,-0.15168 -0.113774,-0.28652 -0.214897,-0.40451 -0.09271,-0.11798 -0.214902,-0.21489 -0.366589,-0.29074 -0.14327,-0.0758 -0.324457,-0.11376 -0.543564,-0.11377 -0.210687,10e-6 -0.391874,0.0379 -0.543563,0.11377 -0.151695,0.0674 -0.278105,0.16012 -0.37923,0.2781 -0.101131,0.11799 -0.18119,0.25704 -0.240179,0.41715 -0.05056,0.1517 -0.08849,0.30761 -0.113769,0.46772 l 2.490278,0"
         style="font-size:20px;font-style:normal;font-variant:normal;font-weight:bold;font-stretch:normal;text-align:center;line-height:125%;letter-spacing:0px;word-spacing:0px;text-anchor:middle;fill:#000000;fill-opacity:1;stroke:none;font-family:Ubuntu;-inkscape-font-specification:Ubuntu Bold"
         id="path10657" />
      <path
         inkscape:connector-curvature="0"
         d="m 29.5171,441.43445 c -5e-6,-0.58148 -0.130628,-1.04498 -0.391871,-1.39051 -0.261251,-0.35394 -0.648909,-0.53092 -1.162972,-0.53092 -0.16855,0 -0.324455,0.008 -0.467717,0.0253 -0.143268,0.008 -0.26125,0.021 -0.353948,0.0379 l 0,3.40043 c 0.11798,0.0759 0.269672,0.13906 0.455076,0.18961 0.193826,0.0506 0.387654,0.0759 0.581486,0.0759 0.893293,10e-6 1.339941,-0.60255 1.339946,-1.80766 m 1.921433,-0.0506 c -7e-6,0.51408 -0.06321,0.98179 -0.189615,1.40315 -0.126417,0.42137 -0.311818,0.78375 -0.556205,1.08713 -0.244398,0.30338 -0.547782,0.53935 -0.910152,0.7079 -0.36238,0.16855 -0.779532,0.25282 -1.251459,0.25282 -0.261251,0 -0.505644,-0.0253 -0.733178,-0.0759 -0.227541,-0.0506 -0.446652,-0.12219 -0.657332,-0.2149 l 0,2.50292 -1.88351,0 0,-8.76021 c 0.168546,-0.0506 0.362375,-0.0969 0.581487,-0.13905 0.219109,-0.0506 0.446647,-0.0927 0.682614,-0.12641 0.24439,-0.0337 0.488782,-0.059 0.733178,-0.0759 0.252817,-0.0253 0.492996,-0.0379 0.720537,-0.0379 0.547772,0 1.036558,0.0843 1.466356,0.25282 0.429789,0.16013 0.792164,0.39188 1.087126,0.69525 0.294951,0.29497 0.518275,0.65734 0.669974,1.08713 0.160112,0.4298 0.240172,0.91016 0.240179,1.44107"
         style="font-size:20px;font-style:normal;font-variant:normal;font-weight:bold;font-stretch:normal;text-align:center;line-height:125%;letter-spacing:0px;word-spacing:0px;text-anchor:middle;fill:#000000;fill-opacity:1;stroke:none;font-family:Ubuntu;-inkscape-font-specification:Ubuntu Bold"
         id="path10659" />
      <path
         inkscape:connector-curvature="0"
         d="m 35.426967,443.3938 c 0.185397,10e-6 0.362371,-0.004 0.530922,-0.0126 0.168542,-0.008 0.303379,-0.0211 0.404512,-0.0379 l 0,-1.42843 c -0.07585,-0.0169 -0.18962,-0.0337 -0.341307,-0.0506 -0.151696,-0.0169 -0.290747,-0.0253 -0.417153,-0.0253 -0.176978,10e-6 -0.345524,0.0126 -0.50564,0.0379 -0.151696,0.0169 -0.286533,0.0548 -0.404512,0.11377 -0.117986,0.059 -0.210687,0.13906 -0.278103,0.24018 -0.06742,0.10113 -0.10113,0.22754 -0.101128,0.37923 -2e-6,0.29496 0.09691,0.50143 0.290744,0.61941 0.202252,0.10956 0.476141,0.16434 0.821665,0.16433 m -0.151692,-5.51147 c 0.5562,0 1.019703,0.0632 1.39051,0.18961 0.370797,0.12642 0.665754,0.30761 0.88487,0.54356 0.227532,0.23598 0.387652,0.52251 0.480358,0.85959 0.09269,0.3371 0.139045,0.71212 0.139051,1.12505 l 0,3.91871 c -0.26968,0.059 -0.644697,0.12641 -1.125049,0.20226 -0.480363,0.0843 -1.061849,0.12641 -1.744458,0.12641 -0.429798,0 -0.821668,-0.0379 -1.175614,-0.11377 -0.345522,-0.0759 -0.644693,-0.19804 -0.897511,-0.36659 -0.252821,-0.17697 -0.446649,-0.40451 -0.581486,-0.68261 -0.134838,-0.2781 -0.202257,-0.61941 -0.202256,-1.02393 -10e-7,-0.38765 0.07585,-0.71632 0.227538,-0.98599 0.160119,-0.26967 0.370802,-0.48457 0.63205,-0.64469 0.261246,-0.16012 0.560416,-0.27388 0.897511,-0.34131 0.337091,-0.0758 0.686825,-0.11376 1.049204,-0.11377 0.244389,10e-6 0.459286,0.0126 0.644691,0.0379 0.193824,0.0169 0.34973,0.0422 0.467717,0.0759 l 0,-0.17698 c -5e-6,-0.32023 -0.09692,-0.57726 -0.290743,-0.7711 -0.193833,-0.19382 -0.530926,-0.29073 -1.01128,-0.29074 -0.320242,10e-6 -0.636267,0.0253 -0.948076,0.0759 -0.311813,0.0421 -0.581488,0.10535 -0.809024,0.18961 l -0.240179,-1.51699 c 0.109554,-0.0337 0.244391,-0.0674 0.404512,-0.10113 0.168545,-0.0421 0.349733,-0.0758 0.543563,-0.10113 0.193827,-0.0337 0.396083,-0.059 0.606769,-0.0758 0.219107,-0.0253 0.438218,-0.0379 0.657332,-0.0379"
         style="font-size:20px;font-style:normal;font-variant:normal;font-weight:bold;font-stretch:normal;text-align:center;line-height:125%;letter-spacing:0px;word-spacing:0px;text-anchor:middle;fill:#000000;fill-opacity:1;stroke:none;font-family:Ubuntu;-inkscape-font-specification:Ubuntu Bold"
         id="path10661" />
      <path
         inkscape:connector-curvature="0"
         d="m 43.880439,439.72791 c -0.168551,-0.0422 -0.366593,-0.0843 -0.594127,-0.12641 -0.227542,-0.0506 -0.471934,-0.0758 -0.733178,-0.0758 -0.117986,0 -0.26125,0.0126 -0.429794,0.0379 -0.160122,0.0169 -0.282319,0.0379 -0.366589,0.0632 l 0,5.08169 -1.88351,0 0,-6.29522 c 0.337093,-0.11797 0.733177,-0.22753 1.188255,-0.32867 0.463501,-0.10955 0.977568,-0.16432 1.542202,-0.16433 0.101124,10e-6 0.223321,0.008 0.366589,0.0253 0.143261,0.008 0.286525,0.0253 0.429794,0.0506 0.143261,0.0169 0.286525,0.0422 0.429794,0.0759 0.14326,0.0253 0.265456,0.059 0.366589,0.10113 l -0.316025,1.55484"
         style="font-size:20px;font-style:normal;font-variant:normal;font-weight:bold;font-stretch:normal;text-align:center;line-height:125%;letter-spacing:0px;word-spacing:0px;text-anchor:middle;fill:#000000;fill-opacity:1;stroke:none;font-family:Ubuntu;-inkscape-font-specification:Ubuntu Bold"
         id="path10663" />
      <path
         inkscape:connector-curvature="0"
         d="m 47.623559,443.3938 c 0.185397,10e-6 0.362371,-0.004 0.530922,-0.0126 0.168542,-0.008 0.30338,-0.0211 0.404512,-0.0379 l 0,-1.42843 c -0.07585,-0.0169 -0.189619,-0.0337 -0.341307,-0.0506 -0.151696,-0.0169 -0.290747,-0.0253 -0.417153,-0.0253 -0.176978,10e-6 -0.345524,0.0126 -0.50564,0.0379 -0.151695,0.0169 -0.286533,0.0548 -0.404512,0.11377 -0.117986,0.059 -0.210687,0.13906 -0.278102,0.24018 -0.06742,0.10113 -0.101131,0.22754 -0.101128,0.37923 -3e-6,0.29496 0.09691,0.50143 0.290743,0.61941 0.202253,0.10956 0.476141,0.16434 0.821665,0.16433 m -0.151692,-5.51147 c 0.5562,0 1.019703,0.0632 1.39051,0.18961 0.370797,0.12642 0.665754,0.30761 0.88487,0.54356 0.227533,0.23598 0.387652,0.52251 0.480358,0.85959 0.09269,0.3371 0.139045,0.71212 0.139051,1.12505 l 0,3.91871 c -0.26968,0.059 -0.644696,0.12641 -1.125049,0.20226 -0.480362,0.0843 -1.061848,0.12641 -1.744458,0.12641 -0.429797,0 -0.821668,-0.0379 -1.175613,-0.11377 -0.345523,-0.0759 -0.644693,-0.19804 -0.897512,-0.36659 -0.252821,-0.17697 -0.446649,-0.40451 -0.581486,-0.68261 -0.134837,-0.2781 -0.202256,-0.61941 -0.202256,-1.02393 0,-0.38765 0.07585,-0.71632 0.227538,-0.98599 0.160119,-0.26967 0.370802,-0.48457 0.63205,-0.64469 0.261246,-0.16012 0.560416,-0.27388 0.897512,-0.34131 0.33709,-0.0758 0.686824,-0.11376 1.049203,-0.11377 0.244389,10e-6 0.459286,0.0126 0.644691,0.0379 0.193824,0.0169 0.34973,0.0422 0.467717,0.0759 l 0,-0.17698 c -4e-6,-0.32023 -0.09692,-0.57726 -0.290743,-0.7711 -0.193833,-0.19382 -0.530926,-0.29073 -1.01128,-0.29074 -0.320242,10e-6 -0.636267,0.0253 -0.948075,0.0759 -0.311813,0.0421 -0.581488,0.10535 -0.809025,0.18961 l -0.240179,-1.51692 c 0.109554,-0.0337 0.244391,-0.0674 0.404512,-0.10113 0.168545,-0.0421 0.349733,-0.0758 0.543564,-0.10113 0.193826,-0.0337 0.396082,-0.059 0.606768,-0.0758 0.219107,-0.0253 0.438218,-0.0379 0.657332,-0.0379"
         style="font-size:20px;font-style:normal;font-variant:normal;font-weight:bold;font-stretch:normal;text-align:center;line-height:125%;letter-spacing:0px;word-spacing:0px;text-anchor:middle;fill:#000000;fill-opacity:1;stroke:none;font-family:Ubuntu;-inkscape-font-specification:Ubuntu Bold"
         id="path10665" />
      <path
         id="path4785"
         style="font-size:20px;font-style:normal;font-variant:normal;font-weight:bold;font-stretch:normal;text-align:center;line-height:125%;letter-spacing:0px;word-spacing:0px;text-anchor:middle;fill:#000000;fill-opacity:1;stroke:none;font-family:Ubuntu;-inkscape-font-specification:Ubuntu Bold"
         d="m 55.880439,439.72791 c -0.168551,-0.0422 -0.366593,-0.0843 -0.594127,-0.12641 -0.227542,-0.0506 -0.471934,-0.0758 -0.733178,-0.0758 -0.117986,0 -0.26125,0.0126 -0.429794,0.0379 -0.160122,0.0169 -0.282319,0.0379 -0.366589,0.0632 l 0,5.08169 -1.88351,0 0,-6.29522 c 0.337093,-0.11797 0.733177,-0.22753 1.188255,-0.32867 0.463501,-0.10955 0.977568,-0.16432 1.542202,-0.16433 0.101124,10e-6 0.223321,0.008 0.366589,0.0253 0.143261,0.008 0.286525,0.0253 0.429794,0.0506 0.143261,0.0169 0.286525,0.0422 0.429794,0.0759 0.14326,0.0253 0.265456,0.059 0.366589,0.10113 l -0.316025,1.55484"
         inkscape:connector-curvature="0" />
    </g>
    <g
       id="g4867"
       transform="translate(-279.10638,39.959281)">
      <rect
         style="fill:#e6e6e6;fill-opacity:1;stroke:#7c7c7c;stroke-width:2.52820039;stroke-linecap:round;stroke-linejoin:miter;stroke-miterlimit:4;stroke-opacity:1;stroke-dasharray:none;stroke-dashoffset:0"
         id="rect4849"
         width="81.451195"
         height="38.076298"
         x="577.28412"
         y="543.60303"
         rx="0" />
      <g
         id="g4851"
         transform="matrix(1.6825897,0,0,1.6825897,-421.74502,-396.23556)">
        <path
           inkscape:connector-curvature="0"
           d="m 598.08137,565.37205 c 1.30623,2e-5 2.30909,0.23176 3.00856,0.69526 0.69946,0.45509 1.04919,1.20512 1.0492,2.2501 -10e-6,1.05342 -0.35396,1.81609 -1.06184,2.28802 -0.7079,0.46351 -1.71918,0.69526 -3.03385,0.69525 l -0.6194,0 0,2.93272 -1.972,0 0,-8.63381 c 0.42979,-0.0843 0.88487,-0.14325 1.36523,-0.17697 0.48036,-0.0337 0.90172,-0.0506 1.2641,-0.0506 m 0.12641,1.68126 c -0.14327,0 -0.28653,0.004 -0.4298,0.0126 -0.13483,0.008 -0.25282,0.0169 -0.35394,0.0253 l 0,2.5282 0.6194,0 c 0.68262,10e-6 1.19668,-0.0927 1.54221,-0.2781 0.34551,-0.1854 0.51828,-0.53092 0.51828,-1.03656 0,-0.24439 -0.0463,-0.44664 -0.13905,-0.60677 -0.0843,-0.16011 -0.21069,-0.28652 -0.37923,-0.37923 -0.16013,-0.10112 -0.35817,-0.16854 -0.59413,-0.20226 -0.23597,-0.0421 -0.49722,-0.0632 -0.78374,-0.0632"
           style="font-size:20px;font-style:normal;font-variant:normal;font-weight:bold;font-stretch:normal;text-align:center;line-height:125%;letter-spacing:0px;word-spacing:0px;text-anchor:middle;fill:#000000;fill-opacity:1;stroke:none;font-family:Ubuntu;-inkscape-font-specification:Ubuntu Bold"
           id="path4853" />
        <path
           inkscape:connector-curvature="0"
           d="m 608.87817,573.98648 c -0.32024,0.0927 -0.73317,0.17697 -1.23881,0.25282 -0.50564,0.0843 -1.03657,0.12641 -1.59277,0.12641 -0.56463,0 -1.03656,-0.0759 -1.41579,-0.22754 -0.3708,-0.15169 -0.66576,-0.36237 -0.88487,-0.63205 -0.21911,-0.2781 -0.37502,-0.60676 -0.46772,-0.986 -0.0927,-0.37922 -0.13905,-0.79637 -0.13905,-1.25146 l 0,-3.70381 1.88351,0 0,3.47628 c 0,0.60677 0.0801,1.04499 0.24018,1.31466 0.16011,0.26968 0.45929,0.40452 0.89751,0.40451 0.13483,10e-6 0.2781,-0.004 0.42979,-0.0126 0.15169,-0.0169 0.28653,-0.0337 0.40451,-0.0506 l 0,-5.13225 1.88351,0 0,6.42163"
           style="font-size:20px;font-style:normal;font-variant:normal;font-weight:bold;font-stretch:normal;text-align:center;line-height:125%;letter-spacing:0px;word-spacing:0px;text-anchor:middle;fill:#000000;fill-opacity:1;stroke:none;font-family:Ubuntu;-inkscape-font-specification:Ubuntu Bold"
           id="path4855" />
        <path
           inkscape:connector-curvature="0"
           d="m 610.34256,570.94 c 0,-0.58991 0.0885,-1.10398 0.26546,-1.5422 0.1854,-0.44665 0.42558,-0.81745 0.72054,-1.11241 0.29495,-0.29495 0.63205,-0.51828 1.01128,-0.66997 0.38765,-0.15169 0.78373,-0.22754 1.18825,-0.22754 0.94386,0 1.68967,0.29075 2.23746,0.87223 0.54777,0.57306 0.82166,1.42001 0.82166,2.54084 0,0.10956 -0.004,0.23175 -0.0126,0.36659 -0.008,0.12641 -0.0169,0.24018 -0.0253,0.3413 l -4.27266,0 c 0.0422,0.38767 0.22332,0.69527 0.54356,0.9228 0.32024,0.22754 0.75003,0.34131 1.28939,0.3413 0.34551,1e-5 0.6826,-0.0295 1.01128,-0.0885 0.33708,-0.0674 0.61097,-0.14748 0.82166,-0.24018 l 0.25282,1.52956 c -0.10113,0.0506 -0.23597,0.10113 -0.40451,0.15169 -0.16855,0.0506 -0.35817,0.0927 -0.56884,0.12641 -0.20227,0.0422 -0.42137,0.0759 -0.65734,0.10113 -0.23597,0.0253 -0.47193,0.0379 -0.70789,0.0379 -0.59835,0 -1.12084,-0.0885 -1.56749,-0.26546 -0.43822,-0.17697 -0.80481,-0.41715 -1.09976,-0.72054 -0.28654,-0.31181 -0.50143,-0.67839 -0.6447,-1.09976 -0.13483,-0.42137 -0.20225,-0.87644 -0.20225,-1.36523 m 4.42435,-0.72054 c -0.008,-0.16011 -0.0379,-0.31602 -0.0885,-0.46772 -0.0422,-0.15168 -0.11377,-0.28652 -0.21489,-0.40451 -0.0927,-0.11798 -0.21491,-0.21489 -0.36659,-0.29074 -0.14327,-0.0758 -0.32446,-0.11376 -0.54357,-0.11377 -0.21068,10e-6 -0.39187,0.0379 -0.54356,0.11377 -0.15169,0.0674 -0.2781,0.16012 -0.37923,0.2781 -0.10113,0.11799 -0.18119,0.25704 -0.24018,0.41715 -0.0506,0.1517 -0.0885,0.30761 -0.11377,0.46772 l 2.49028,0"
           style="font-size:20px;font-style:normal;font-variant:normal;font-weight:bold;font-stretch:normal;text-align:center;line-height:125%;letter-spacing:0px;word-spacing:0px;text-anchor:middle;fill:#000000;fill-opacity:1;stroke:none;font-family:Ubuntu;-inkscape-font-specification:Ubuntu Bold"
           id="path4857" />
        <path
           inkscape:connector-curvature="0"
           d="m 622.04793,569.23346 c -0.16855,-0.0421 -0.36659,-0.0843 -0.59413,-0.12641 -0.22754,-0.0506 -0.47194,-0.0758 -0.73317,-0.0758 -0.11799,0 -0.26126,0.0126 -0.4298,0.0379 -0.16012,0.0169 -0.28232,0.0379 -0.36659,0.0632 l 0,5.08168 -1.88351,0 0,-6.29522 c 0.33709,-0.11797 0.73317,-0.22753 1.18826,-0.32867 0.4635,-0.10954 0.97756,-0.16432 1.5422,-0.16433 0.10112,1e-5 0.22332,0.008 0.36659,0.0253 0.14326,0.008 0.28652,0.0253 0.42979,0.0506 0.14326,0.0169 0.28652,0.0421 0.4298,0.0758 0.14326,0.0253 0.26545,0.059 0.36659,0.10113 l -0.31603,1.55484"
           style="font-size:20px;font-style:normal;font-variant:normal;font-weight:bold;font-stretch:normal;text-align:center;line-height:125%;letter-spacing:0px;word-spacing:0px;text-anchor:middle;fill:#000000;fill-opacity:1;stroke:none;font-family:Ubuntu;-inkscape-font-specification:Ubuntu Bold"
           id="path4859" />
        <path
           inkscape:connector-curvature="0"
           d="m 623.31045,565.90888 1.88351,-0.30338 0,1.95935 2.26274,0 0,1.56749 -2.26274,0 0,2.33858 c -10e-6,0.39609 0.0674,0.71211 0.20226,0.94808 0.14326,0.23597 0.42557,0.35395 0.84694,0.35394 0.20225,1e-5 0.40872,-0.0169 0.61941,-0.0506 0.21911,-0.0422 0.41715,-0.0969 0.59413,-0.16433 l 0.26546,1.46635 c -0.22754,0.0927 -0.48036,0.17277 -0.75846,0.24018 -0.27811,0.0674 -0.61942,0.10113 -1.02392,0.10113 -0.51407,0 -0.93965,-0.0674 -1.27674,-0.20226 -0.3371,-0.14326 -0.60677,-0.33709 -0.80903,-0.58148 -0.20225,-0.25282 -0.34552,-0.55621 -0.42979,-0.91015 -0.0758,-0.35395 -0.11377,-0.74582 -0.11377,-1.17562 l 0,-5.58732"
           style="font-size:20px;font-style:normal;font-variant:normal;font-weight:bold;font-stretch:normal;text-align:center;line-height:125%;letter-spacing:0px;word-spacing:0px;text-anchor:middle;fill:#000000;fill-opacity:1;stroke:none;font-family:Ubuntu;-inkscape-font-specification:Ubuntu Bold"
           id="path4861" />
        <path
           inkscape:connector-curvature="0"
           d="m 631.27211,572.89935 c 0.1854,10e-6 0.36237,-0.004 0.53092,-0.0126 0.16854,-0.008 0.30338,-0.021 0.40451,-0.0379 l 0,-1.42843 c -0.0758,-0.0169 -0.18962,-0.0337 -0.3413,-0.0506 -0.1517,-0.0169 -0.29075,-0.0253 -0.41716,-0.0253 -0.17698,10e-6 -0.34552,0.0126 -0.50564,0.0379 -0.15169,0.0169 -0.28653,0.0548 -0.40451,0.11377 -0.11799,0.059 -0.21069,0.13906 -0.2781,0.24018 -0.0674,0.10114 -0.10113,0.22755 -0.10113,0.37923 0,0.29496 0.0969,0.50143 0.29074,0.61941 0.20226,0.10956 0.47615,0.16434 0.82167,0.16433 m -0.15169,-5.51147 c 0.55619,0 1.0197,0.0632 1.39051,0.18961 0.37079,0.12642 0.66575,0.30761 0.88487,0.54357 0.22753,0.23597 0.38765,0.5225 0.48035,0.85958 0.0927,0.3371 0.13905,0.71212 0.13906,1.12505 l 0,3.91871 c -0.26969,0.059 -0.6447,0.12641 -1.12505,0.20226 -0.48037,0.0843 -1.06185,0.12641 -1.74446,0.12641 -0.4298,0 -0.82167,-0.0379 -1.17562,-0.11377 -0.34552,-0.0758 -0.64469,-0.19804 -0.89751,-0.36659 -0.25282,-0.17697 -0.44665,-0.40451 -0.58148,-0.68261 -0.13484,-0.2781 -0.20226,-0.61941 -0.20226,-1.02392 0,-0.38766 0.0759,-0.71633 0.22754,-0.986 0.16012,-0.26967 0.3708,-0.48457 0.63205,-0.64469 0.26124,-0.16011 0.56041,-0.27388 0.89751,-0.34131 0.33709,-0.0758 0.68682,-0.11376 1.0492,-0.11377 0.24439,10e-6 0.45929,0.0126 0.64469,0.0379 0.19383,0.0169 0.34974,0.0422 0.46772,0.0758 l 0,-0.17697 c 0,-0.32024 -0.0969,-0.57727 -0.29074,-0.77111 -0.19383,-0.19382 -0.53093,-0.29073 -1.01128,-0.29074 -0.32024,10e-6 -0.63627,0.0253 -0.94808,0.0758 -0.31181,0.0422 -0.58148,0.10535 -0.80902,0.18961 l -0.24018,-1.51692 c 0.10955,-0.0337 0.24439,-0.0674 0.40451,-0.10113 0.16855,-0.0421 0.34973,-0.0758 0.54357,-0.10112 0.19382,-0.0337 0.39608,-0.059 0.60676,-0.0759 0.21911,-0.0253 0.43822,-0.0379 0.65734,-0.0379"
           style="font-size:20px;font-style:normal;font-variant:normal;font-weight:bold;font-stretch:normal;text-align:center;line-height:125%;letter-spacing:0px;word-spacing:0px;text-anchor:middle;fill:#000000;fill-opacity:1;stroke:none;font-family:Ubuntu;-inkscape-font-specification:Ubuntu Bold"
           id="path4863" />
        <path
           inkscape:connector-curvature="0"
           d="m 637.62718,572.86143 c 0.34551,10e-6 0.58991,-0.0337 0.73317,-0.10113 0.14326,-0.0674 0.21489,-0.19804 0.2149,-0.39187 -10e-6,-0.15168 -0.0927,-0.28231 -0.2781,-0.39187 -0.18541,-0.11798 -0.46772,-0.2486 -0.84695,-0.39187 -0.29496,-0.10955 -0.56463,-0.22332 -0.80902,-0.34131 -0.23597,-0.11798 -0.43823,-0.25703 -0.60677,-0.41715 -0.16855,-0.16854 -0.29917,-0.36658 -0.39187,-0.59413 -0.0927,-0.22753 -0.13905,-0.50142 -0.13905,-0.82166 0,-0.62362 0.23175,-1.11661 0.69525,-1.479 0.4635,-0.36237 1.09976,-0.54356 1.90879,-0.54356 0.40451,0 0.79217,0.0379 1.16298,0.11377 0.37079,0.0674 0.66575,0.14327 0.88487,0.22753 l -0.32867,1.46636 c -0.21912,-0.0758 -0.4593,-0.14326 -0.72054,-0.20226 -0.25282,-0.059 -0.53935,-0.0885 -0.85958,-0.0885 -0.58992,0 -0.88488,0.16434 -0.88488,0.493 0,0.0759 0.0127,0.14327 0.0379,0.20225 0.0253,0.059 0.0758,0.11799 0.15169,0.17698 0.0758,0.0506 0.17697,0.10956 0.30338,0.17697 0.13484,0.059 0.30338,0.12642 0.50564,0.20226 0.41294,0.1517 0.75424,0.30339 1.02393,0.45507 0.26967,0.14328 0.48035,0.30339 0.63205,0.48036 0.16011,0.16855 0.26967,0.35816 0.32866,0.56885 0.0674,0.21068 0.10112,0.45508 0.10113,0.73317 -10e-6,0.65734 -0.24861,1.15455 -0.74582,1.49164 -0.48879,0.3371 -1.18404,0.50564 -2.08577,0.50564 -0.58991,0 -1.08291,-0.0506 -1.47899,-0.15169 -0.38766,-0.10113 -0.65733,-0.1854 -0.80903,-0.25282 l 0.31603,-1.52956 c 0.32023,0.12642 0.6489,0.22754 0.986,0.30338 0.33709,0.0674 0.66996,0.10114 0.99864,0.10113"
           style="font-size:20px;font-style:normal;font-variant:normal;font-weight:bold;font-stretch:normal;text-align:center;line-height:125%;letter-spacing:0px;word-spacing:0px;text-anchor:middle;fill:#000000;fill-opacity:1;stroke:none;font-family:Ubuntu;-inkscape-font-specification:Ubuntu Bold"
           id="path4865" />
      </g>
    </g>
  </g>
</svg>
