<?xml version="1.0" encoding="UTF-8" standalone="no"?>
<!-- Created with Inkscape (http://www.inkscape.org/) -->

<svg
   xmlns:dc="http://purl.org/dc/elements/1.1/"
   xmlns:cc="http://creativecommons.org/ns#"
   xmlns:rdf="http://www.w3.org/1999/02/22-rdf-syntax-ns#"
   xmlns:svg="http://www.w3.org/2000/svg"
   xmlns="http://www.w3.org/2000/svg"
   xmlns:sodipodi="http://sodipodi.sourceforge.net/DTD/sodipodi-0.dtd"
   xmlns:inkscape="http://www.inkscape.org/namespaces/inkscape"
   width="742.92072"
   height="266.01538"
   id="svg10437"
   version="1.1"
   inkscape:version="0.48.3.1 r9886"
   sodipodi:docname="New document 28">
  <defs
     id="defs10439" />
  <sodipodi:namedview
     id="base"
     pagecolor="#ffffff"
     bordercolor="#666666"
     borderopacity="1.0"
     inkscape:pageopacity="0.0"
     inkscape:pageshadow="2"
     inkscape:zoom="0.81400144"
     inkscape:cx="629.98939"
     inkscape:cy="87.327215"
     inkscape:document-units="px"
     inkscape:current-layer="layer1"
     showgrid="false"
     fit-margin-top="0"
     fit-margin-left="0"
     fit-margin-right="0"
     fit-margin-bottom="0"
     inkscape:window-width="1676"
     inkscape:window-height="1011"
     inkscape:window-x="1280"
     inkscape:window-y="18"
     inkscape:window-maximized="0" />
  <metadata
     id="metadata10442">
    <rdf:RDF>
      <cc:Work
         rdf:about="">
        <dc:format>image/svg+xml</dc:format>
        <dc:type
           rdf:resource="http://purl.org/dc/dcmitype/StillImage" />
        <dc:title></dc:title>
      </cc:Work>
    </rdf:RDF>
  </metadata>
  <g
     inkscape:label="Layer 1"
     inkscape:groupmode="layer"
     id="layer1"
     transform="translate(11.262403,-401.48885)">
    <path
       style="fill:none;stroke:#000000;stroke-width:1px;stroke-linecap:butt;stroke-linejoin:miter;stroke-opacity:1"
       d="m 579.56313,433.93879 -324.01765,0"
       id="path10815"
       inkscape:connector-curvature="0" />
    <path
       style="fill:none;stroke:#000000;stroke-width:1px;stroke-linecap:butt;stroke-linejoin:miter;stroke-opacity:1"
       d="m 573.32881,634.911 -318.80557,0"
       id="path10817"
       inkscape:connector-curvature="0" />
    <path
       style="fill:none;stroke:#000000;stroke-width:1px;stroke-linecap:butt;stroke-linejoin:miter;stroke-opacity:1"
       d="m 156.49248,432.99333 0.86868,203.27113"
       id="path10805"
       inkscape:connector-curvature="0" />
    <path
       style="fill:none;stroke:#000000;stroke-width:1px;stroke-linecap:butt;stroke-linejoin:miter;stroke-opacity:1"
       d="m 156.3624,433.42767 104.67594,0.43434"
       id="path10807"
       inkscape:connector-curvature="0" />
    <path
       style="fill:none;stroke:#000000;stroke-width:1px;stroke-linecap:butt;stroke-linejoin:miter;stroke-opacity:1"
       d="m 157.66542,635.39578 104.67594,0 0,-0.86868"
       id="path10809"
       inkscape:connector-curvature="0" />
    <path
       style="fill:none;stroke:#000000;stroke-width:1px;stroke-linecap:butt;stroke-linejoin:miter;stroke-opacity:1"
       d="m 52.989481,534.62889 608.076009,0 0,0 0,0"
       id="path10803"
       inkscape:connector-curvature="0" />
    <g
       id="g10693"
       transform="translate(-16.504919,110.32245)">
      <rect
         style="fill:#e6e6e6;fill-opacity:1;stroke:#7c7c7c;stroke-width:4.23906755;stroke-linecap:round;stroke-linejoin:miter;stroke-miterlimit:4;stroke-opacity:1;stroke-dasharray:none;stroke-dashoffset:0"
         id="rect4215"
         width="128.86826"
         height="60.242531"
         x="7.3620496"
         y="394.05289"
         rx="18.517557" />
      <g
         id="flowRoot10485"
         style="font-size:20px;font-style:normal;font-variant:normal;font-weight:normal;font-stretch:normal;line-height:125%;letter-spacing:0px;word-spacing:0px;fill:#000000;fill-opacity:1;stroke:none;font-family:Ubuntu;-inkscape-font-specification:Ubuntu"
         transform="translate(0.05945864,1.9106493)">
        <path
           id="path10653"
           style="font-weight:bold;text-align:center;text-anchor:middle;-inkscape-font-specification:Ubuntu Bold"
           d="m 22.982656,401.8835 c 2.066659,2e-5 3.653324,0.36668 4.76,1.1 1.106655,0.72002 1.659988,1.90668 1.66,3.56 -1.2e-5,1.66668 -0.560011,2.87334 -1.68,3.62 -1.120009,0.73334 -2.720008,1.10001 -4.8,1.1 l -0.98,0 0,4.64 -3.12,0 0,-13.66 c 0.679998,-0.13332 1.399997,-0.22665 2.16,-0.28 0.759996,-0.0533 1.426662,-0.08 2,-0.08 m 0.2,2.66 c -0.226672,1e-5 -0.453339,0.007 -0.68,0.02 -0.213338,0.0134 -0.400005,0.0267 -0.56,0.04 l 0,4 0.98,0 c 1.079993,1e-5 1.893326,-0.14666 2.44,-0.44 0.546658,-0.29332 0.819991,-0.83999 0.82,-1.64 -9e-6,-0.38665 -0.07334,-0.70665 -0.22,-0.96 -0.133342,-0.25332 -0.333341,-0.45332 -0.6,-0.6 -0.253341,-0.15999 -0.566674,-0.26665 -0.94,-0.32 -0.37334,-0.0667 -0.786673,-0.1 -1.24,-0.1"
           inkscape:connector-curvature="0" />
        <path
           id="path10655"
           style="font-weight:bold;text-align:center;text-anchor:middle;-inkscape-font-specification:Ubuntu Bold"
           d="m 37.853281,408.0235 c -0.266674,-0.0667 -0.580007,-0.13332 -0.94,-0.2 -0.360006,-0.08 -0.746672,-0.11999 -1.16,-0.12 -0.186672,10e-6 -0.413338,0.02 -0.68,0.06 -0.253338,0.0267 -0.446671,0.06 -0.58,0.1 l 0,8.04 -2.98,0 0,-9.96 c 0.533332,-0.18665 1.159998,-0.35999 1.88,-0.52 0.73333,-0.17332 1.546662,-0.25999 2.44,-0.26 0.159994,10e-6 0.353328,0.0134 0.58,0.04 0.22666,0.0134 0.453327,0.04 0.68,0.08 0.22666,0.0267 0.453326,0.0667 0.68,0.12 0.226659,0.04 0.419992,0.0933 0.58,0.16 l -0.5,2.46"
           inkscape:connector-curvature="0" />
        <path
           id="path10657"
           style="font-weight:bold;text-align:center;text-anchor:middle;-inkscape-font-specification:Ubuntu Bold"
           d="m 39.255469,410.7235 c -10e-7,-0.93332 0.139999,-1.74666 0.42,-2.44 0.293331,-0.70666 0.673331,-1.29332 1.14,-1.76 0.466663,-0.46665 0.999996,-0.81999 1.6,-1.06 0.613328,-0.23999 1.239994,-0.35999 1.88,-0.36 1.493326,1e-5 2.673324,0.46001 3.54,1.38 0.866656,0.90668 1.299989,2.24668 1.3,4.02 -1.1e-5,0.17334 -0.0067,0.36667 -0.02,0.58 -0.01334,0.20001 -0.02668,0.38001 -0.04,0.54 l -6.76,0 c 0.06666,0.61334 0.353329,1.10001 0.86,1.46 0.506661,0.36001 1.18666,0.54001 2.04,0.54 0.546659,1e-5 1.079992,-0.0467 1.6,-0.14 0.533324,-0.10666 0.966657,-0.23333 1.3,-0.38 l 0.4,2.42 c -0.16001,0.08 -0.373343,0.16 -0.64,0.24 -0.266676,0.08 -0.566676,0.14667 -0.9,0.2 -0.320009,0.0667 -0.666675,0.12 -1.04,0.16 -0.373341,0.04 -0.746674,0.06 -1.12,0.06 -0.946672,0 -1.773338,-0.14 -2.48,-0.42 -0.693337,-0.28 -1.273336,-0.66 -1.74,-1.14 -0.453335,-0.49333 -0.793335,-1.07333 -1.02,-1.74 -0.213335,-0.66666 -0.320001,-1.38666 -0.32,-2.16 m 7,-1.14 c -0.01334,-0.25332 -0.06001,-0.49999 -0.14,-0.74 -0.06667,-0.23999 -0.180008,-0.45332 -0.34,-0.64 -0.146674,-0.18666 -0.340007,-0.33999 -0.58,-0.46 -0.226674,-0.11999 -0.51334,-0.17999 -0.86,-0.18 -0.333339,1e-5 -0.620006,0.06 -0.86,0.18 -0.240005,0.10668 -0.440005,0.25334 -0.6,0.44 -0.160005,0.18668 -0.286671,0.40668 -0.38,0.66 -0.08,0.24001 -0.140004,0.48668 -0.18,0.74 l 3.94,0"
           inkscape:connector-curvature="0" />
        <path
           id="path10659"
           style="font-weight:bold;text-align:center;text-anchor:middle;-inkscape-font-specification:Ubuntu Bold"
           d="m 58.175156,410.7235 c -8e-6,-0.91999 -0.206674,-1.65332 -0.62,-2.2 -0.41334,-0.55999 -1.026673,-0.83999 -1.84,-0.84 -0.266672,1e-5 -0.513338,0.0133 -0.74,0.04 -0.226671,0.0133 -0.413338,0.0333 -0.56,0.06 l 0,5.38 c 0.186662,0.12001 0.426662,0.22001 0.72,0.3 0.306662,0.08 0.613328,0.12001 0.92,0.12 1.413326,10e-6 2.119992,-0.95333 2.12,-2.86 m 3.04,-0.08 c -1.1e-5,0.81334 -0.100011,1.55334 -0.3,2.22 -0.20001,0.66667 -0.493343,1.24 -0.88,1.72 -0.386676,0.48 -0.866676,0.85334 -1.44,1.12 -0.573341,0.26667 -1.23334,0.4 -1.98,0.4 -0.413339,0 -0.800006,-0.04 -1.16,-0.12 -0.360005,-0.08 -0.706671,-0.19333 -1.04,-0.34 l 0,3.96 -2.98,0 0,-13.86 c 0.266665,-0.08 0.573332,-0.15332 0.92,-0.22 0.346664,-0.08 0.706664,-0.14665 1.08,-0.2 0.386663,-0.0533 0.773329,-0.0933 1.16,-0.12 0.399995,-0.04 0.779995,-0.06 1.14,-0.06 0.86666,10e-6 1.639993,0.13335 2.32,0.4 0.679992,0.25335 1.253324,0.62001 1.72,1.1 0.466657,0.46668 0.81999,1.04001 1.06,1.72 0.253323,0.68001 0.379989,1.44001 0.38,2.28"
           inkscape:connector-curvature="0" />
        <path
           id="path10661"
           style="font-weight:bold;text-align:center;text-anchor:middle;-inkscape-font-specification:Ubuntu Bold"
           d="m 67.525469,413.8235 c 0.293327,10e-6 0.573327,-0.007 0.84,-0.02 0.26666,-0.0133 0.479993,-0.0333 0.64,-0.06 l 0,-2.26 c -0.120007,-0.0267 -0.300007,-0.0533 -0.54,-0.08 -0.240006,-0.0267 -0.460006,-0.04 -0.66,-0.04 -0.280006,1e-5 -0.546672,0.02 -0.8,0.06 -0.240005,0.0267 -0.453338,0.0867 -0.64,0.18 -0.186671,0.0933 -0.333338,0.22001 -0.44,0.38 -0.106671,0.16001 -0.160004,0.36001 -0.16,0.6 -4e-6,0.46667 0.153329,0.79334 0.46,0.98 0.319995,0.17334 0.753328,0.26001 1.3,0.26 m -0.24,-8.72 c 0.879994,1e-5 1.613326,0.10001 2.2,0.3 0.586658,0.20001 1.053325,0.48668 1.4,0.86 0.359991,0.37335 0.613324,0.82668 0.76,1.36 0.146657,0.53334 0.21999,1.12668 0.22,1.78 l 0,6.2 c -0.426676,0.0933 -1.020009,0.2 -1.78,0.32 -0.760007,0.13334 -1.680007,0.2 -2.76,0.2 -0.680005,0 -1.300004,-0.06 -1.86,-0.18 -0.54667,-0.12 -1.020003,-0.31333 -1.42,-0.58 -0.400002,-0.28 -0.706668,-0.64 -0.92,-1.08 -0.213334,-0.43999 -0.320001,-0.97999 -0.32,-1.62 -1e-6,-0.61333 0.119999,-1.13333 0.36,-1.56 0.253332,-0.42666 0.586665,-0.76666 1,-1.02 0.413331,-0.25332 0.886663,-0.43332 1.42,-0.54 0.533329,-0.11999 1.086662,-0.17999 1.66,-0.18 0.386661,1e-5 0.726661,0.02 1.02,0.06 0.30666,0.0267 0.553326,0.0667 0.74,0.12 l 0,-0.28 c -7e-6,-0.50666 -0.15334,-0.91332 -0.46,-1.22 -0.306673,-0.30666 -0.840006,-0.45999 -1.6,-0.46 -0.506671,10e-6 -1.006671,0.04 -1.5,0.12 -0.493336,0.0667 -0.920003,0.16668 -1.28,0.3 l -0.38,-2.4 c 0.173331,-0.0533 0.386664,-0.10665 0.64,-0.16 0.266664,-0.0666 0.55333,-0.11999 0.86,-0.16 0.306663,-0.0533 0.626663,-0.0933 0.96,-0.12 0.346662,-0.04 0.693328,-0.06 1.04,-0.06"
           inkscape:connector-curvature="0" />
        <path
           id="path10663"
           style="font-weight:bold;text-align:center;text-anchor:middle;-inkscape-font-specification:Ubuntu Bold"
           d="m 80.900156,408.0235 c -0.266674,-0.0667 -0.580007,-0.13332 -0.94,-0.2 -0.360006,-0.08 -0.746672,-0.11999 -1.16,-0.12 -0.186672,10e-6 -0.413338,0.02 -0.68,0.06 -0.253338,0.0267 -0.446671,0.06 -0.58,0.1 l 0,8.04 -2.98,0 0,-9.96 c 0.533332,-0.18665 1.159998,-0.35999 1.88,-0.52 0.73333,-0.17332 1.546662,-0.25999 2.44,-0.26 0.159994,10e-6 0.353328,0.0134 0.58,0.04 0.22666,0.0134 0.453327,0.04 0.68,0.08 0.22666,0.0267 0.453326,0.0667 0.68,0.12 0.226659,0.04 0.419992,0.0933 0.58,0.16 l -0.5,2.46"
           inkscape:connector-curvature="0" />
        <path
           id="path10665"
           style="font-weight:bold;text-align:center;text-anchor:middle;-inkscape-font-specification:Ubuntu Bold"
           d="m 86.822344,413.8235 c 0.293327,10e-6 0.573327,-0.007 0.84,-0.02 0.26666,-0.0133 0.479993,-0.0333 0.64,-0.06 l 0,-2.26 c -0.120007,-0.0267 -0.300007,-0.0533 -0.54,-0.08 -0.240006,-0.0267 -0.460006,-0.04 -0.66,-0.04 -0.280006,1e-5 -0.546672,0.02 -0.8,0.06 -0.240005,0.0267 -0.453338,0.0867 -0.64,0.18 -0.186671,0.0933 -0.333338,0.22001 -0.44,0.38 -0.106671,0.16001 -0.160004,0.36001 -0.16,0.6 -4e-6,0.46667 0.153329,0.79334 0.46,0.98 0.319995,0.17334 0.753328,0.26001 1.3,0.26 m -0.24,-8.72 c 0.879994,1e-5 1.613326,0.10001 2.2,0.3 0.586658,0.20001 1.053325,0.48668 1.4,0.86 0.359991,0.37335 0.613324,0.82668 0.76,1.36 0.146657,0.53334 0.21999,1.12668 0.22,1.78 l 0,6.2 c -0.426676,0.0933 -1.020009,0.2 -1.78,0.32 -0.760007,0.13334 -1.680007,0.2 -2.76,0.2 -0.680005,0 -1.300004,-0.06 -1.86,-0.18 -0.54667,-0.12 -1.020003,-0.31333 -1.42,-0.58 -0.400002,-0.28 -0.706668,-0.64 -0.92,-1.08 -0.213334,-0.43999 -0.320001,-0.97999 -0.32,-1.62 -10e-7,-0.61333 0.119999,-1.13333 0.36,-1.56 0.253332,-0.42666 0.586665,-0.76666 1,-1.02 0.413331,-0.25332 0.886663,-0.43332 1.42,-0.54 0.533329,-0.11999 1.086662,-0.17999 1.66,-0.18 0.386661,1e-5 0.726661,0.02 1.02,0.06 0.30666,0.0267 0.553326,0.0667 0.74,0.12 l 0,-0.28 c -7e-6,-0.50666 -0.15334,-0.91332 -0.46,-1.22 -0.306673,-0.30666 -0.840006,-0.45999 -1.6,-0.46 -0.506671,10e-6 -1.006671,0.04 -1.5,0.12 -0.493336,0.0667 -0.920003,0.16668 -1.28,0.3 l -0.38,-2.4 c 0.173331,-0.0533 0.386664,-0.10665 0.64,-0.16 0.266664,-0.0666 0.55333,-0.11999 0.86,-0.16 0.306663,-0.0533 0.626663,-0.0933 0.96,-0.12 0.346662,-0.04 0.693328,-0.06 1.04,-0.06"
           inkscape:connector-curvature="0" />
        <path
           id="path10667"
           style="font-weight:bold;text-align:center;text-anchor:middle;-inkscape-font-specification:Ubuntu Bold"
           d="m 93.357031,410.6435 c -1e-6,-0.75999 0.119999,-1.47332 0.36,-2.14 0.253332,-0.67999 0.613332,-1.26665 1.08,-1.76 0.466664,-0.50665 1.03333,-0.90665 1.7,-1.2 0.666662,-0.29332 1.426661,-0.43999 2.28,-0.44 0.559993,1e-5 1.073326,0.0534 1.539999,0.16 0.46666,0.0933 0.91999,0.23335 1.36,0.42 l -0.62,2.38 c -0.28001,-0.10666 -0.58667,-0.19999 -0.92,-0.28 -0.333339,-0.08 -0.706672,-0.11999 -1.119999,-0.12 -0.880005,10e-6 -1.540005,0.27334 -1.98,0.82 -0.426671,0.54668 -0.640004,1.26668 -0.64,2.16 -4e-6,0.94667 0.199996,1.68001 0.6,2.2 0.413329,0.52001 1.126661,0.78001 2.14,0.78 0.359993,1e-5 0.746659,-0.0333 1.159999,-0.1 0.41333,-0.0667 0.79333,-0.17333 1.14,-0.32 l 0.42,2.44 c -0.34667,0.14667 -0.78001,0.27334 -1.3,0.38 -0.52001,0.10667 -1.093339,0.16 -1.719999,0.16 -0.960005,0 -1.786671,-0.14 -2.48,-0.42 -0.693336,-0.29333 -1.266669,-0.68666 -1.72,-1.18 -0.440001,-0.49333 -0.766668,-1.07333 -0.98,-1.74 -0.200001,-0.67999 -0.300001,-1.41333 -0.3,-2.2"
           inkscape:connector-curvature="0" />
        <path
           id="path10669"
           style="font-weight:bold;text-align:center;text-anchor:middle;-inkscape-font-specification:Ubuntu Bold"
           d="m 106.83703,415.9035 -2.98,0 0,-10.52 2.98,0 0,10.52 m 0.28,-13.56 c 0,0.54668 -0.18,0.98002 -0.54,1.3 -0.34667,0.30668 -0.76,0.46001 -1.24,0.46 -0.48,1e-5 -0.9,-0.15332 -1.26,-0.46 -0.34667,-0.31998 -0.52,-0.75332 -0.52,-1.3 0,-0.54665 0.17333,-0.97332 0.52,-1.28 0.36,-0.31998 0.78,-0.47998 1.26,-0.48 0.48,2e-5 0.89333,0.16002 1.24,0.48 0.36,0.30668 0.54,0.73335 0.54,1.28"
           inkscape:connector-curvature="0" />
        <path
           id="path10671"
           style="font-weight:bold;text-align:center;text-anchor:middle;-inkscape-font-specification:Ubuntu Bold"
           d="m 119.47828,410.6235 c -1e-5,0.82667 -0.12001,1.58667 -0.36,2.28 -0.24001,0.68001 -0.58668,1.26667 -1.04,1.76 -0.45334,0.48 -1.00001,0.85334 -1.64,1.12 -0.62667,0.26667 -1.33334,0.4 -2.12,0.4 -0.77334,0 -1.48,-0.13333 -2.12,-0.4 -0.62667,-0.26666 -1.16667,-0.64 -1.62,-1.12 -0.45333,-0.49333 -0.80667,-1.07999 -1.06,-1.76 -0.25333,-0.69333 -0.38,-1.45333 -0.38,-2.28 0,-0.82666 0.12667,-1.57999 0.38,-2.26 0.26667,-0.67999 0.62667,-1.25999 1.08,-1.74 0.46667,-0.47999 1.01333,-0.85332 1.64,-1.12 0.64,-0.26665 1.33333,-0.39999 2.08,-0.4 0.75999,1e-5 1.45333,0.13335 2.08,0.4 0.63999,0.26668 1.18666,0.64001 1.64,1.12 0.45332,0.48001 0.80666,1.06001 1.06,1.74 0.25332,0.68001 0.37999,1.43334 0.38,2.26 m -3.04,0 c -1e-5,-0.91999 -0.18667,-1.63999 -0.56,-2.16 -0.36001,-0.53332 -0.88001,-0.79999 -1.56,-0.8 -0.68,10e-6 -1.20667,0.26668 -1.58,0.8 -0.37334,0.52001 -0.56,1.24001 -0.56,2.16 0,0.92001 0.18666,1.65334 0.56,2.2 0.37333,0.53334 0.9,0.80001 1.58,0.8 0.67999,1e-5 1.19999,-0.26666 1.56,-0.8 0.37333,-0.54666 0.55999,-1.27999 0.56,-2.2 m 0.34,-9.02 -3.3,2.78 -1.36,-1.22 2.84,-3.24 1.82,1.68"
           inkscape:connector-curvature="0" />
        <path
           id="path10673"
           style="font-weight:bold;text-align:center;text-anchor:middle;-inkscape-font-specification:Ubuntu Bold"
           d="m 121.78672,405.7435 c 0.50666,-0.14665 1.16,-0.27999 1.96,-0.4 0.79999,-0.13332 1.63999,-0.19999 2.52,-0.2 0.89333,10e-6 1.63332,0.12001 2.22,0.36 0.59999,0.22668 1.07332,0.55335 1.42,0.98 0.34666,0.42668 0.59332,0.93334 0.74,1.52 0.14666,0.58668 0.21999,1.24001 0.22,1.96 l 0,5.94 -2.98,0 0,-5.58 c -1e-5,-0.95999 -0.12668,-1.63999 -0.38,-2.04 -0.25334,-0.39999 -0.72667,-0.59999 -1.42,-0.6 -0.21334,1e-5 -0.44001,0.0133 -0.68,0.04 -0.24001,0.0133 -0.45334,0.0333 -0.64,0.06 l 0,8.12 -2.98,0 0,-10.16"
           inkscape:connector-curvature="0" />
        <path
           id="path10675"
           style="font-weight:bold;text-align:center;text-anchor:middle;-inkscape-font-specification:Ubuntu Bold"
           d="m 32.330156,438.8235 c 0.293328,10e-6 0.573328,-0.007 0.84,-0.02 0.26666,-0.0133 0.479994,-0.0333 0.64,-0.06 l 0,-2.26 c -0.120007,-0.0267 -0.300006,-0.0533 -0.54,-0.08 -0.240006,-0.0267 -0.460006,-0.04 -0.66,-0.04 -0.280005,1e-5 -0.546672,0.02 -0.8,0.06 -0.240004,0.0267 -0.453338,0.0867 -0.64,0.18 -0.18667,0.0933 -0.333337,0.22001 -0.44,0.38 -0.10667,0.16001 -0.160003,0.36001 -0.16,0.6 -3e-6,0.46667 0.15333,0.79334 0.46,0.98 0.319996,0.17334 0.753329,0.26001 1.3,0.26 m -0.24,-8.72 c 0.879994,1e-5 1.613327,0.10001 2.2,0.3 0.586659,0.20001 1.053325,0.48668 1.4,0.86 0.359991,0.37335 0.613324,0.82668 0.76,1.36 0.146657,0.53334 0.21999,1.12668 0.22,1.78 l 0,6.2 c -0.426676,0.0933 -1.020008,0.2 -1.78,0.32 -0.760007,0.13334 -1.680006,0.2 -2.76,0.2 -0.680004,0 -1.300004,-0.06 -1.86,-0.18 -0.546669,-0.12 -1.020002,-0.31333 -1.42,-0.58 -0.400001,-0.28 -0.706668,-0.64 -0.92,-1.08 -0.213334,-0.43999 -0.32,-0.97999 -0.32,-1.62 0,-0.61333 0.119999,-1.13333 0.36,-1.56 0.253332,-0.42666 0.586665,-0.76666 1,-1.02 0.413331,-0.25332 0.886664,-0.43332 1.42,-0.54 0.53333,-0.11999 1.086662,-0.17999 1.66,-0.18 0.386661,1e-5 0.726661,0.02 1.02,0.06 0.30666,0.0267 0.553327,0.0667 0.74,0.12 l 0,-0.28 c -7e-6,-0.50666 -0.15334,-0.91332 -0.46,-1.22 -0.306673,-0.30666 -0.840005,-0.45999 -1.6,-0.46 -0.506671,10e-6 -1.00667,0.04 -1.5,0.12 -0.493336,0.0667 -0.920002,0.16668 -1.28,0.3 l -0.38,-2.4 c 0.173332,-0.0533 0.386665,-0.10665 0.64,-0.16 0.266664,-0.0666 0.553331,-0.11999 0.86,-0.16 0.306663,-0.0533 0.626663,-0.0933 0.96,-0.12 0.346662,-0.04 0.693329,-0.06 1.04,-0.06"
           inkscape:connector-curvature="0" />
        <path
           id="path10677"
           style="font-weight:bold;text-align:center;text-anchor:middle;-inkscape-font-specification:Ubuntu Bold"
           d="m 43.564844,441.1035 c -0.866672,-0.0133 -1.573338,-0.10666 -2.12,-0.28 -0.533337,-0.17333 -0.960003,-0.41333 -1.28,-0.72 -0.306669,-0.32 -0.520002,-0.7 -0.64,-1.14 -0.106668,-0.45333 -0.160002,-0.95999 -0.16,-1.52 l 0,-11.58 2.98,-0.48 0,11.46 c -5e-6,0.26667 0.02,0.50667 0.06,0.72 0.04,0.21334 0.113329,0.39334 0.22,0.54 0.119995,0.14667 0.286661,0.26667 0.5,0.36 0.213328,0.0933 0.499994,0.15334 0.86,0.18 l -0.42,2.46"
           inkscape:connector-curvature="0" />
        <path
           id="path10679"
           style="font-weight:bold;text-align:center;text-anchor:middle;-inkscape-font-specification:Ubuntu Bold"
           d="m 57.237656,435.7235 c -8e-6,-0.91999 -0.206674,-1.65332 -0.62,-2.2 -0.41334,-0.55999 -1.026673,-0.83999 -1.84,-0.84 -0.266672,1e-5 -0.513338,0.0133 -0.74,0.04 -0.226671,0.0133 -0.413338,0.0333 -0.56,0.06 l 0,5.38 c 0.186662,0.12001 0.426662,0.22001 0.72,0.3 0.306662,0.08 0.613328,0.12001 0.92,0.12 1.413326,10e-6 2.119992,-0.95333 2.12,-2.86 m 3.04,-0.08 c -1.1e-5,0.81334 -0.100011,1.55334 -0.3,2.22 -0.20001,0.66667 -0.493343,1.24 -0.88,1.72 -0.386676,0.48 -0.866676,0.85334 -1.44,1.12 -0.573341,0.26667 -1.23334,0.4 -1.98,0.4 -0.413339,0 -0.800006,-0.04 -1.16,-0.12 -0.360005,-0.08 -0.706671,-0.19333 -1.04,-0.34 l 0,3.96 -2.98,0 0,-13.86 c 0.266665,-0.08 0.573332,-0.15332 0.92,-0.22 0.346664,-0.08 0.706664,-0.14665 1.08,-0.2 0.386663,-0.0533 0.773329,-0.0933 1.16,-0.12 0.399995,-0.04 0.779995,-0.06 1.14,-0.06 0.86666,10e-6 1.639993,0.13335 2.32,0.4 0.679992,0.25335 1.253324,0.62001 1.72,1.1 0.466657,0.46668 0.81999,1.04001 1.06,1.72 0.253323,0.68001 0.379989,1.44001 0.38,2.28"
           inkscape:connector-curvature="0" />
        <path
           id="path10681"
           style="font-weight:bold;text-align:center;text-anchor:middle;-inkscape-font-specification:Ubuntu Bold"
           d="m 65.547969,440.9035 -2.98,0 0,-10.52 2.98,0 0,10.52 m 0.28,-13.56 c -5e-6,0.54668 -0.180005,0.98002 -0.54,1.3 -0.346671,0.30668 -0.760004,0.46001 -1.24,0.46 -0.480003,1e-5 -0.900002,-0.15332 -1.26,-0.46 -0.346668,-0.31998 -0.520001,-0.75332 -0.52,-1.3 -10e-7,-0.54665 0.173332,-0.97332 0.52,-1.28 0.359998,-0.31998 0.779997,-0.47998 1.26,-0.48 0.479996,2e-5 0.893329,0.16002 1.24,0.48 0.359995,0.30668 0.539995,0.73335 0.54,1.28"
           inkscape:connector-curvature="0" />
        <path
           id="path10683"
           style="font-weight:bold;text-align:center;text-anchor:middle;-inkscape-font-specification:Ubuntu Bold"
           d="m 68.349219,430.7435 c 0.506665,-0.14665 1.159997,-0.27999 1.96,-0.4 0.799996,-0.13332 1.639995,-0.19999 2.52,-0.2 0.893326,10e-6 1.633326,0.12001 2.22,0.36 0.599991,0.22668 1.073324,0.55335 1.42,0.98 0.346657,0.42668 0.593323,0.93334 0.74,1.52 0.146656,0.58668 0.219989,1.24001 0.22,1.96 l 0,5.94 -2.98,0 0,-5.58 c -8e-6,-0.95999 -0.126674,-1.63999 -0.38,-2.04 -0.25334,-0.39999 -0.726673,-0.59999 -1.42,-0.6 -0.213339,1e-5 -0.440006,0.0133 -0.68,0.04 -0.240005,0.0133 -0.453338,0.0333 -0.64,0.06 l 0,8.12 -2.98,0 0,-10.16"
           inkscape:connector-curvature="0" />
        <path
           id="path10685"
           style="font-weight:bold;text-align:center;text-anchor:middle;-inkscape-font-specification:Ubuntu Bold"
           d="m 80.046094,427.7635 2.98,-0.48 0,3.1 3.58,0 0,2.48 -3.58,0 0,3.7 c -5e-6,0.62667 0.106662,1.12667 0.32,1.5 0.226662,0.37334 0.673328,0.56001 1.34,0.56 0.319993,1e-5 0.64666,-0.0267 0.98,-0.08 0.346659,-0.0667 0.659992,-0.15333 0.94,-0.26 l 0.42,2.32 c -0.360008,0.14667 -0.760008,0.27334 -1.2,0.38 -0.440007,0.10667 -0.980006,0.16 -1.62,0.16 -0.813338,0 -1.486671,-0.10666 -2.02,-0.32 -0.533336,-0.22666 -0.960003,-0.53333 -1.28,-0.92 -0.320002,-0.4 -0.546669,-0.88 -0.68,-1.44 -0.120002,-0.55999 -0.180002,-1.17999 -0.18,-1.86 l 0,-8.84"
           inkscape:connector-curvature="0" />
        <path
           id="path10687"
           style="font-weight:bold;text-align:center;text-anchor:middle;-inkscape-font-specification:Ubuntu Bold"
           d="m 92.642656,438.8235 c 0.293328,10e-6 0.573328,-0.007 0.84,-0.02 0.26666,-0.0133 0.479994,-0.0333 0.64,-0.06 l 0,-2.26 c -0.120007,-0.0267 -0.300006,-0.0533 -0.54,-0.08 -0.240006,-0.0267 -0.460006,-0.04 -0.66,-0.04 -0.280005,1e-5 -0.546672,0.02 -0.8,0.06 -0.240004,0.0267 -0.453338,0.0867 -0.64,0.18 -0.18667,0.0933 -0.333337,0.22001 -0.44,0.38 -0.10667,0.16001 -0.160003,0.36001 -0.16,0.6 -3e-6,0.46667 0.15333,0.79334 0.46,0.98 0.319996,0.17334 0.753329,0.26001 1.3,0.26 m -0.24,-8.72 c 0.879994,1e-5 1.613327,0.10001 2.2,0.3 0.586659,0.20001 1.053325,0.48668 1.4,0.86 0.359991,0.37335 0.613324,0.82668 0.76,1.36 0.146657,0.53334 0.21999,1.12668 0.22,1.78 l 0,6.2 c -0.426676,0.0933 -1.020008,0.2 -1.78,0.32 -0.760007,0.13334 -1.680006,0.2 -2.76,0.2 -0.680004,0 -1.300004,-0.06 -1.86,-0.18 -0.546669,-0.12 -1.020002,-0.31333 -1.42,-0.58 -0.400001,-0.28 -0.706668,-0.64 -0.92,-1.08 -0.213334,-0.43999 -0.32,-0.97999 -0.32,-1.62 0,-0.61333 0.119999,-1.13333 0.36,-1.56 0.253332,-0.42666 0.586665,-0.76666 1,-1.02 0.413331,-0.25332 0.886664,-0.43332 1.42,-0.54 0.53333,-0.11999 1.086662,-0.17999 1.66,-0.18 0.386661,1e-5 0.726661,0.02 1.02,0.06 0.30666,0.0267 0.553327,0.0667 0.74,0.12 l 0,-0.28 c -7e-6,-0.50666 -0.15334,-0.91332 -0.46,-1.22 -0.306673,-0.30666 -0.840005,-0.45999 -1.6,-0.46 -0.506671,10e-6 -1.00667,0.04 -1.5,0.12 -0.493336,0.0667 -0.920002,0.16668 -1.28,0.3 l -0.38,-2.4 c 0.173332,-0.0533 0.386665,-0.10665 0.64,-0.16 0.266664,-0.0666 0.553331,-0.11999 0.86,-0.16 0.306663,-0.0533 0.626663,-0.0933 0.96,-0.12 0.346662,-0.04 0.693329,-0.06 1.04,-0.06"
           inkscape:connector-curvature="0" />
        <path
           id="path10689"
           style="font-weight:bold;text-align:center;text-anchor:middle;-inkscape-font-specification:Ubuntu Bold"
           d="m 102.21734,435.5635 c 0,0.92001 0.20667,1.66001 0.62,2.22 0.41333,0.56001 1.02666,0.84001 1.84,0.84 0.26666,1e-5 0.51333,-0.007 0.74,-0.02 0.22666,-0.0267 0.41333,-0.0533 0.56,-0.08 l 0,-5.42 c -0.18667,-0.11999 -0.43334,-0.21999 -0.74,-0.3 -0.29334,-0.08 -0.59334,-0.11999 -0.9,-0.12 -1.41333,1e-5 -2.12,0.96001 -2.12,2.88 m 6.74,5 c -0.26667,0.08 -0.57334,0.16 -0.92,0.24 -0.34667,0.0667 -0.71334,0.12667 -1.1,0.18 -0.37334,0.0533 -0.76,0.0933 -1.16,0.12 -0.38667,0.04 -0.76,0.06 -1.12,0.06 -0.86667,0 -1.64,-0.12666 -2.32,-0.38 -0.68,-0.25333 -1.25333,-0.61333 -1.72,-1.08 -0.46666,-0.48 -0.826664,-1.05333 -1.079996,-1.72 -0.240001,-0.67999 -0.360001,-1.43999 -0.36,-2.28 -1e-6,-0.85332 0.106665,-1.61999 0.32,-2.3 0.213332,-0.69332 0.519996,-1.27999 0.919996,-1.76 0.4,-0.47999 0.88667,-0.84665 1.46,-1.1 0.58667,-0.25332 1.25333,-0.37999 2,-0.38 0.41333,10e-6 0.78,0.04 1.1,0.12 0.33333,0.08 0.66666,0.19335 1,0.34 l 0,-4.76 2.98,-0.48 0,15.18"
           inkscape:connector-curvature="0" />
        <path
           id="path10691"
           style="font-weight:bold;text-align:center;text-anchor:middle;-inkscape-font-specification:Ubuntu Bold"
           d="m 121.58766,435.6235 c -1e-5,0.82667 -0.12001,1.58667 -0.36,2.28 -0.24001,0.68001 -0.58668,1.26667 -1.04,1.76 -0.45335,0.48 -1.00001,0.85334 -1.64,1.12 -0.62668,0.26667 -1.33334,0.4 -2.12,0.4 -0.77334,0 -1.48001,-0.13333 -2.12,-0.4 -0.62667,-0.26666 -1.16667,-0.64 -1.62,-1.12 -0.45334,-0.49333 -0.80667,-1.07999 -1.06,-1.76 -0.25334,-0.69333 -0.38,-1.45333 -0.38,-2.28 0,-0.82666 0.12666,-1.57999 0.38,-2.26 0.26666,-0.67999 0.62666,-1.25999 1.08,-1.74 0.46666,-0.47999 1.01333,-0.85332 1.64,-1.12 0.63999,-0.26665 1.33332,-0.39999 2.08,-0.4 0.75999,1e-5 1.45332,0.13335 2.08,0.4 0.63999,0.26668 1.18665,0.64001 1.64,1.12 0.45332,0.48001 0.80665,1.06001 1.06,1.74 0.25332,0.68001 0.37999,1.43334 0.38,2.26 m -3.04,0 c -10e-6,-0.91999 -0.18668,-1.63999 -0.56,-2.16 -0.36001,-0.53332 -0.88001,-0.79999 -1.56,-0.8 -0.68001,10e-6 -1.20668,0.26668 -1.58,0.8 -0.37334,0.52001 -0.56001,1.24001 -0.56,2.16 -1e-5,0.92001 0.18666,1.65334 0.56,2.2 0.37332,0.53334 0.89999,0.80001 1.58,0.8 0.67999,1e-5 1.19999,-0.26666 1.56,-0.8 0.37332,-0.54666 0.55999,-1.27999 0.56,-2.2"
           inkscape:connector-curvature="0" />
      </g>
    </g>
    <g
       id="g10717"
       transform="translate(-14.767555,14.76756)">
      <rect
         rx="18.517557"
         y="388.84082"
         x="208.89581"
         height="60.242531"
         width="128.86826"
         id="rect10493"
         style="fill:#e6e6e6;fill-opacity:1;stroke:#7c7c7c;stroke-width:4.23906755;stroke-linecap:round;stroke-linejoin:miter;stroke-miterlimit:4;stroke-opacity:1;stroke-dasharray:none;stroke-dashoffset:0" />
      <g
         id="flowRoot10503"
         style="font-size:20px;font-style:normal;font-variant:normal;font-weight:normal;font-stretch:normal;line-height:125%;letter-spacing:0px;word-spacing:0px;fill:#000000;fill-opacity:1;stroke:none;font-family:Ubuntu;-inkscape-font-specification:Ubuntu"
         transform="translate(11.177441,9.3598327)">
        <path
           id="path10628"
           style="font-weight:bold;text-align:center;text-anchor:middle;-inkscape-font-specification:Ubuntu Bold"
           d="m 238.4475,390.60225 c 2.06666,2e-5 3.65332,0.36668 4.76,1.1 1.10666,0.72002 1.65999,1.90668 1.66,3.56 -1e-5,1.66668 -0.56001,2.87334 -1.68,3.62 -1.12001,0.73334 -2.72001,1.10001 -4.8,1.1 l -0.98,0 0,4.64 -3.12,0 0,-13.66 c 0.68,-0.13332 1.4,-0.22665 2.16,-0.28 0.76,-0.0533 1.42666,-0.08 2,-0.08 m 0.2,2.66 c -0.22667,1e-5 -0.45334,0.007 -0.68,0.02 -0.21334,0.0134 -0.4,0.0267 -0.56,0.04 l 0,4 0.98,0 c 1.07999,1e-5 1.89333,-0.14666 2.44,-0.44 0.54666,-0.29332 0.81999,-0.83999 0.82,-1.64 -1e-5,-0.38665 -0.0733,-0.70665 -0.22,-0.96 -0.13334,-0.25332 -0.33334,-0.45332 -0.6,-0.6 -0.25334,-0.15999 -0.56667,-0.26665 -0.94,-0.32 -0.37334,-0.0667 -0.78667,-0.1 -1.24,-0.1"
           inkscape:connector-curvature="0" />
        <path
           id="path10630"
           style="font-weight:bold;text-align:center;text-anchor:middle;-inkscape-font-specification:Ubuntu Bold"
           d="m 249.95812,404.62225 -2.98,0 0,-10.52 2.98,0 0,10.52 m 0.28,-13.56 c 0,0.54668 -0.18,0.98002 -0.54,1.3 -0.34667,0.30668 -0.76,0.46001 -1.24,0.46 -0.48,1e-5 -0.9,-0.15332 -1.26,-0.46 -0.34666,-0.31998 -0.52,-0.75332 -0.52,-1.3 0,-0.54665 0.17334,-0.97332 0.52,-1.28 0.36,-0.31998 0.78,-0.47998 1.26,-0.48 0.48,2e-5 0.89333,0.16002 1.24,0.48 0.36,0.30668 0.54,0.73335 0.54,1.28"
           inkscape:connector-curvature="0" />
        <path
           id="path10632"
           style="font-weight:bold;text-align:center;text-anchor:middle;-inkscape-font-specification:Ubuntu Bold"
           d="m 252.75937,394.46225 c 0.50667,-0.14665 1.16,-0.27999 1.96001,-0.4 0.79999,-0.13332 1.63999,-0.19999 2.51999,-0.2 0.89333,10e-6 1.63333,0.12001 2.22001,0.36 0.59999,0.22668 1.07332,0.55335 1.41999,0.98 0.34666,0.42668 0.59333,0.93334 0.74,1.52 0.14666,0.58668 0.21999,1.24001 0.22001,1.96 l 0,5.94 -2.98001,0 0,-5.58 c 0,-0.95999 -0.12667,-1.63999 -0.38,-2.04 -0.25334,-0.39999 -0.72667,-0.59999 -1.42,-0.6 -0.21333,1e-5 -0.44,0.0133 -0.68,0.04 -0.24,0.0133 -0.45333,0.0333 -0.64,0.06 l 0,8.12 -2.98,0 0,-10.16"
           inkscape:connector-curvature="0" />
        <path
           id="path10634"
           style="font-weight:bold;text-align:center;text-anchor:middle;-inkscape-font-specification:Ubuntu Bold"
           d="m 264.45625,391.48225 2.98,-0.48 0,3.1 3.58,0 0,2.48 -3.58,0 0,3.7 c 0,0.62667 0.10666,1.12667 0.32,1.5 0.22666,0.37334 0.67333,0.56001 1.34,0.56 0.31999,1e-5 0.64666,-0.0267 0.98,-0.08 0.34666,-0.0667 0.65999,-0.15333 0.94,-0.26 l 0.42,2.32 c -0.36001,0.14667 -0.76001,0.27334 -1.2,0.38 -0.44001,0.10667 -0.98001,0.16 -1.62,0.16 -0.81334,0 -1.48667,-0.10666 -2.02,-0.32 -0.53334,-0.22666 -0.96,-0.53333 -1.28,-0.92 -0.32,-0.4 -0.54667,-0.88 -0.68,-1.44 -0.12,-0.55999 -0.18,-1.17999 -0.18,-1.86 l 0,-8.84"
           inkscape:connector-curvature="0" />
        <path
           id="path10636"
           style="font-weight:bold;text-align:center;text-anchor:middle;-inkscape-font-specification:Ubuntu Bold"
           d="m 277.05281,402.54225 c 0.29333,10e-6 0.57333,-0.007 0.84,-0.02 0.26666,-0.0133 0.48,-0.0333 0.64,-0.06 l 0,-2.26 c -0.12,-0.0267 -0.3,-0.0533 -0.54,-0.08 -0.24,-0.0267 -0.46,-0.04 -0.66,-0.04 -0.28,1e-5 -0.54667,0.02 -0.8,0.06 -0.24,0.0267 -0.45334,0.0867 -0.64,0.18 -0.18667,0.0933 -0.33333,0.22001 -0.44,0.38 -0.10667,0.16001 -0.16,0.36001 -0.16,0.6 0,0.46667 0.15333,0.79334 0.46,0.98 0.32,0.17334 0.75333,0.26001 1.3,0.26 m -0.24,-8.72 c 0.88,1e-5 1.61333,0.10001 2.2,0.3 0.58666,0.20001 1.05333,0.48668 1.4,0.86 0.35999,0.37335 0.61333,0.82668 0.76,1.36 0.14666,0.53334 0.21999,1.12668 0.22,1.78 l 0,6.2 c -0.42667,0.0933 -1.02001,0.2 -1.78,0.32 -0.76,0.13334 -1.68,0.2 -2.76,0.2 -0.68,0 -1.3,-0.06 -1.86,-0.18 -0.54667,-0.12 -1.02,-0.31333 -1.42,-0.58 -0.4,-0.28 -0.70667,-0.64 -0.92,-1.08 -0.21333,-0.43999 -0.32,-0.97999 -0.32,-1.62 0,-0.61333 0.12,-1.13333 0.36,-1.56 0.25333,-0.42666 0.58667,-0.76666 1,-1.02 0.41333,-0.25332 0.88667,-0.43332 1.42,-0.54 0.53333,-0.11999 1.08666,-0.17999 1.66,-0.18 0.38666,1e-5 0.72666,0.02 1.02,0.06 0.30666,0.0267 0.55333,0.0667 0.74,0.12 l 0,-0.28 c 0,-0.50666 -0.15334,-0.91332 -0.46,-1.22 -0.30667,-0.30666 -0.84,-0.45999 -1.6,-0.46 -0.50667,10e-6 -1.00667,0.04 -1.5,0.12 -0.49333,0.0667 -0.92,0.16668 -1.28,0.3 l -0.38,-2.4 c 0.17333,-0.0533 0.38667,-0.10665 0.64,-0.16 0.26667,-0.0666 0.55333,-0.11999 0.86,-0.16 0.30667,-0.0533 0.62667,-0.0933 0.96,-0.12 0.34666,-0.04 0.69333,-0.06 1.04,-0.06"
           inkscape:connector-curvature="0" />
        <path
           id="path10638"
           style="font-weight:bold;text-align:center;text-anchor:middle;-inkscape-font-specification:Ubuntu Bold"
           d="m 290.4275,396.74225 c -0.26667,-0.0667 -0.58001,-0.13332 -0.94,-0.2 -0.36001,-0.08 -0.74667,-0.11999 -1.16,-0.12 -0.18667,10e-6 -0.41334,0.02 -0.68,0.06 -0.25334,0.0267 -0.44667,0.06 -0.58,0.1 l 0,8.04 -2.98,0 0,-9.96 c 0.53333,-0.18665 1.16,-0.35999 1.88,-0.52 0.73333,-0.17332 1.54666,-0.25999 2.44,-0.26 0.15999,10e-6 0.35333,0.0134 0.58,0.04 0.22666,0.0134 0.45333,0.04 0.68,0.08 0.22666,0.0267 0.45333,0.0667 0.68,0.12 0.22666,0.04 0.41999,0.0933 0.58,0.16 l -0.5,2.46"
           inkscape:connector-curvature="0" />
        <path
           id="path10640"
           style="font-weight:bold;text-align:center;text-anchor:middle;-inkscape-font-specification:Ubuntu Bold"
           d="m 231.31172,416.48225 2.98,-0.48 0,3.1 3.58,0 0,2.48 -3.58,0 0,3.7 c -1e-5,0.62667 0.10666,1.12667 0.32,1.5 0.22666,0.37334 0.67333,0.56001 1.34,0.56 0.31999,1e-5 0.64666,-0.0267 0.98,-0.08 0.34666,-0.0667 0.65999,-0.15333 0.94,-0.26 l 0.42,2.32 c -0.36001,0.14667 -0.76001,0.27334 -1.2,0.38 -0.44001,0.10667 -0.98001,0.16 -1.62,0.16 -0.81334,0 -1.48667,-0.10666 -2.02,-0.32 -0.53334,-0.22666 -0.96,-0.53333 -1.28,-0.92 -0.32,-0.4 -0.54667,-0.88 -0.68,-1.44 -0.12,-0.55999 -0.18,-1.17999 -0.18,-1.86 l 0,-8.84"
           inkscape:connector-curvature="0" />
        <path
           id="path10642"
           style="font-weight:bold;text-align:center;text-anchor:middle;-inkscape-font-specification:Ubuntu Bold"
           d="m 239.38828,424.44225 c 0,-0.93332 0.14,-1.74666 0.42,-2.44 0.29333,-0.70666 0.67333,-1.29332 1.14,-1.76 0.46666,-0.46665 1,-0.81999 1.6,-1.06 0.61333,-0.23999 1.24,-0.35999 1.88,-0.36 1.49333,1e-5 2.67333,0.46001 3.54,1.38 0.86666,0.90668 1.29999,2.24668 1.3,4.02 -1e-5,0.17334 -0.007,0.36667 -0.02,0.58 -0.0133,0.20001 -0.0267,0.38001 -0.04,0.54 l -6.76,0 c 0.0667,0.61334 0.35333,1.10001 0.86,1.46 0.50666,0.36001 1.18666,0.54001 2.04,0.54 0.54666,1e-5 1.07999,-0.0467 1.6,-0.14 0.53333,-0.10666 0.96666,-0.23333 1.3,-0.38 l 0.4,2.42 c -0.16001,0.08 -0.37334,0.16 -0.64,0.24 -0.26667,0.08 -0.56667,0.14667 -0.9,0.2 -0.32001,0.0667 -0.66667,0.12 -1.04,0.16 -0.37334,0.04 -0.74667,0.06 -1.12,0.06 -0.94667,0 -1.77334,-0.14 -2.48,-0.42 -0.69334,-0.28 -1.27333,-0.66 -1.74,-1.14 -0.45333,-0.49333 -0.79333,-1.07333 -1.02,-1.74 -0.21333,-0.66666 -0.32,-1.38666 -0.32,-2.16 m 7,-1.14 c -0.0133,-0.25332 -0.06,-0.49999 -0.14,-0.74 -0.0667,-0.23999 -0.18001,-0.45332 -0.34,-0.64 -0.14667,-0.18666 -0.34001,-0.33999 -0.58,-0.46 -0.22667,-0.11999 -0.51334,-0.17999 -0.86,-0.18 -0.33334,1e-5 -0.62,0.06 -0.86,0.18 -0.24,0.10668 -0.44,0.25334 -0.6,0.44 -0.16,0.18668 -0.28667,0.40668 -0.38,0.66 -0.08,0.24001 -0.14,0.48668 -0.18,0.74 l 3.94,0"
           inkscape:connector-curvature="0" />
        <path
           id="path10644"
           style="font-weight:bold;text-align:center;text-anchor:middle;-inkscape-font-specification:Ubuntu Bold"
           d="m 251.06797,424.36225 c 0,-0.75999 0.12,-1.47332 0.36,-2.14 0.25333,-0.67999 0.61333,-1.26665 1.08,-1.76 0.46666,-0.50665 1.03333,-0.90665 1.7,-1.2 0.66666,-0.29332 1.42666,-0.43999 2.28,-0.44 0.55999,1e-5 1.07332,0.0534 1.54,0.16 0.46666,0.0933 0.91999,0.23335 1.36,0.42 l -0.62,2.38 c -0.28001,-0.10666 -0.58668,-0.19999 -0.92,-0.28 -0.33334,-0.08 -0.70667,-0.11999 -1.12,-0.12 -0.88001,10e-6 -1.54001,0.27334 -1.98,0.82 -0.42667,0.54668 -0.64001,1.26668 -0.64,2.16 -1e-5,0.94667 0.19999,1.68001 0.6,2.2 0.41333,0.52001 1.12666,0.78001 2.14,0.78 0.35999,1e-5 0.74666,-0.0333 1.16,-0.1 0.41332,-0.0667 0.79332,-0.17333 1.14,-0.32 l 0.42,2.44 c -0.34668,0.14667 -0.78001,0.27334 -1.3,0.38 -0.52001,0.10667 -1.09334,0.16 -1.72,0.16 -0.96001,0 -1.78667,-0.14 -2.48,-0.42 -0.69334,-0.29333 -1.26667,-0.68666 -1.72,-1.18 -0.44,-0.49333 -0.76667,-1.07333 -0.98,-1.74 -0.2,-0.67999 -0.3,-1.41333 -0.3,-2.2"
           inkscape:connector-curvature="0" />
        <path
           id="path10646"
           style="font-weight:bold;text-align:center;text-anchor:middle;-inkscape-font-specification:Ubuntu Bold"
           d="m 261.56797,429.62225 0,-15.04 2.98,-0.48 0,5.04 c 0.19999,-0.0666 0.45333,-0.12665 0.76,-0.18 0.31999,-0.0666 0.62666,-0.1 0.92,-0.1 0.85333,10e-6 1.55999,0.12001 2.12,0.36 0.57332,0.22668 1.02666,0.55335 1.36,0.98 0.34666,0.42668 0.58666,0.93334 0.72,1.52 0.14666,0.58668 0.21999,1.24001 0.22,1.96 l 0,5.94 -2.98,0 0,-5.58 c -1e-5,-0.95999 -0.12668,-1.63999 -0.38,-2.04 -0.24001,-0.39999 -0.69334,-0.59999 -1.36,-0.6 -0.26667,1e-5 -0.52001,0.0267 -0.76,0.08 -0.22667,0.04 -0.43334,0.0867 -0.62,0.14 l 0,8 -2.98,0"
           inkscape:connector-curvature="0" />
        <path
           id="path10648"
           style="font-weight:bold;text-align:center;text-anchor:middle;-inkscape-font-specification:Ubuntu Bold"
           d="m 283.20484,424.34225 c -10e-6,0.82667 -0.12001,1.58667 -0.36,2.28 -0.24001,0.68001 -0.58667,1.26667 -1.04,1.76 -0.45334,0.48 -1.00001,0.85334 -1.64,1.12 -0.62667,0.26667 -1.33334,0.4 -2.12,0.4 -0.77333,0 -1.48,-0.13333 -2.12,-0.4 -0.62667,-0.26666 -1.16667,-0.64 -1.62,-1.12 -0.45333,-0.49333 -0.80666,-1.07999 -1.06,-1.76 -0.25333,-0.69333 -0.38,-1.45333 -0.38,-2.28 0,-0.82666 0.12667,-1.57999 0.38,-2.26 0.26667,-0.67999 0.62667,-1.25999 1.08,-1.74 0.46667,-0.47999 1.01333,-0.85332 1.64,-1.12 0.64,-0.26665 1.33333,-0.39999 2.08,-0.4 0.76,1e-5 1.45333,0.13335 2.08,0.4 0.63999,0.26668 1.18666,0.64001 1.64,1.12 0.45333,0.48001 0.80666,1.06001 1.06,1.74 0.25333,0.68001 0.37999,1.43334 0.38,2.26 m -3.04,0 c 0,-0.91999 -0.18667,-1.63999 -0.56,-2.16 -0.36,-0.53332 -0.88,-0.79999 -1.56,-0.8 -0.68,10e-6 -1.20667,0.26668 -1.58,0.8 -0.37333,0.52001 -0.56,1.24001 -0.56,2.16 0,0.92001 0.18667,1.65334 0.56,2.2 0.37333,0.53334 0.9,0.80001 1.58,0.8 0.68,1e-5 1.2,-0.26666 1.56,-0.8 0.37333,-0.54666 0.56,-1.27999 0.56,-2.2"
           inkscape:connector-curvature="0" />
        <path
           id="path10650"
           style="font-weight:bold;text-align:center;text-anchor:middle;-inkscape-font-specification:Ubuntu Bold"
           d="m 288.53328,427.48225 c 0.54666,10e-6 0.93333,-0.0533 1.16,-0.16 0.22666,-0.10666 0.34,-0.31333 0.34,-0.62 0,-0.23999 -0.14667,-0.44666 -0.44,-0.62 -0.29334,-0.18666 -0.74,-0.39333 -1.34,-0.62 -0.46667,-0.17333 -0.89334,-0.35333 -1.28,-0.54 -0.37333,-0.18666 -0.69333,-0.40666 -0.96,-0.66 -0.26667,-0.26666 -0.47333,-0.57999 -0.62,-0.94 -0.14667,-0.35999 -0.22,-0.79332 -0.22,-1.3 0,-0.98666 0.36667,-1.76665 1.1,-2.34 0.73333,-0.57332 1.74,-0.85999 3.02,-0.86 0.64,1e-5 1.25333,0.06 1.84,0.18 0.58666,0.10668 1.05333,0.22668 1.4,0.36 l -0.52,2.32 c -0.34667,-0.11999 -0.72667,-0.22666 -1.14,-0.32 -0.40001,-0.0933 -0.85334,-0.13999 -1.36,-0.14 -0.93334,1e-5 -1.4,0.26001 -1.4,0.78 0,0.12001 0.02,0.22668 0.06,0.32 0.04,0.0933 0.12,0.18668 0.24,0.28 0.12,0.08 0.28,0.17334 0.48,0.28 0.21333,0.0933 0.48,0.20001 0.8,0.32 0.65333,0.24001 1.19333,0.48001 1.62,0.72 0.42666,0.22668 0.75999,0.48001 1,0.76 0.25333,0.26667 0.42666,0.56667 0.52,0.9 0.10666,0.33334 0.15999,0.72001 0.16,1.16 -1e-5,1.04 -0.39334,1.82667 -1.18,2.36 -0.77334,0.53334 -1.87334,0.8 -3.3,0.8 -0.93334,0 -1.71333,-0.08 -2.34,-0.24 -0.61333,-0.16 -1.04,-0.29333 -1.28,-0.4 l 0.5,-2.42 c 0.50667,0.20001 1.02667,0.36001 1.56,0.48 0.53333,0.10667 1.06,0.16001 1.58,0.16"
           inkscape:connector-curvature="0" />
      </g>
    </g>
    <g
       id="g10733"
       transform="translate(-16.504921,29.535185)">
      <rect
         style="fill:#e6e6e6;fill-opacity:1;stroke:#7c7c7c;stroke-width:4.23906755;stroke-linecap:round;stroke-linejoin:miter;stroke-miterlimit:4;stroke-opacity:1;stroke-dasharray:none;stroke-dashoffset:0"
         id="rect10495"
         width="128.86826"
         height="60.242531"
         x="210.63318"
         y="474.84015"
         rx="18.517557" />
      <g
         id="flowRoot10511"
         style="font-size:20px;font-style:normal;font-variant:normal;font-weight:normal;font-stretch:normal;line-height:125%;letter-spacing:0px;word-spacing:0px;fill:#000000;fill-opacity:1;stroke:none;font-family:Ubuntu;-inkscape-font-specification:Ubuntu"
         transform="translate(4.1773065,5.8991613)">
        <path
           id="path10601"
           style="font-weight:bold;text-align:center;text-anchor:middle;-inkscape-font-specification:Ubuntu Bold"
           d="m 247.135,478.35225 c 2.06666,2e-5 3.65332,0.36668 4.76,1.1 1.10666,0.72002 1.65999,1.90668 1.66,3.56 -1e-5,1.66668 -0.56001,2.87334 -1.68,3.62 -1.12001,0.73334 -2.72001,1.10001 -4.8,1.1 l -0.98,0 0,4.64 -3.12,0 0,-13.66 c 0.68,-0.13332 1.4,-0.22665 2.16,-0.28 0.76,-0.0533 1.42666,-0.08 2,-0.08 m 0.2,2.66 c -0.22667,1e-5 -0.45334,0.007 -0.68,0.02 -0.21334,0.0134 -0.4,0.0267 -0.56,0.04 l 0,4 0.98,0 c 1.07999,1e-5 1.89333,-0.14666 2.44,-0.44 0.54666,-0.29332 0.81999,-0.83999 0.82,-1.64 -1e-5,-0.38665 -0.0733,-0.70665 -0.22,-0.96 -0.13334,-0.25332 -0.33334,-0.45332 -0.6,-0.6 -0.25334,-0.15999 -0.56667,-0.26665 -0.94,-0.32 -0.37334,-0.0667 -0.78667,-0.1 -1.24,-0.1"
           inkscape:connector-curvature="0" />
        <path
           id="path10603"
           style="font-weight:bold;text-align:center;text-anchor:middle;-inkscape-font-specification:Ubuntu Bold"
           d="m 258.64562,492.37225 -2.98,0 0,-10.52 2.98,0 0,10.52 m 0.28001,-13.56 c -1e-5,0.54668 -0.18001,0.98002 -0.54001,1.3 -0.34667,0.30668 -0.76,0.46001 -1.24,0.46 -0.48,1e-5 -0.9,-0.15332 -1.26,-0.46 -0.34666,-0.31998 -0.52,-0.75332 -0.52,-1.3 0,-0.54665 0.17334,-0.97332 0.52,-1.28 0.36,-0.31998 0.78,-0.47998 1.26,-0.48 0.48,2e-5 0.89333,0.16002 1.24,0.48 0.36,0.30668 0.54,0.73335 0.54001,1.28"
           inkscape:connector-curvature="0" />
        <path
           id="path10605"
           style="font-weight:bold;text-align:center;text-anchor:middle;-inkscape-font-specification:Ubuntu Bold"
           d="m 261.44687,482.21225 c 0.50667,-0.14665 1.16,-0.27999 1.96001,-0.4 0.79999,-0.13332 1.63999,-0.19999 2.51999,-0.2 0.89333,10e-6 1.63333,0.12001 2.22001,0.36 0.59999,0.22668 1.07332,0.55335 1.41999,0.98 0.34666,0.42668 0.59333,0.93334 0.74,1.52 0.14666,0.58668 0.21999,1.24001 0.22001,1.96 l 0,5.94 -2.98001,0 0,-5.58 c 0,-0.95999 -0.12667,-1.63999 -0.38,-2.04 -0.25334,-0.39999 -0.72667,-0.59999 -1.42,-0.6 -0.21333,1e-5 -0.44,0.0133 -0.68,0.04 -0.24,0.0133 -0.45333,0.0333 -0.64,0.06 l 0,8.12 -2.98,0 0,-10.16"
           inkscape:connector-curvature="0" />
        <path
           id="path10607"
           style="font-weight:bold;text-align:center;text-anchor:middle;-inkscape-font-specification:Ubuntu Bold"
           d="m 273.14375,479.23225 2.98,-0.48 0,3.1 3.58,0 0,2.48 -3.58,0 0,3.7 c 0,0.62667 0.10666,1.12667 0.32,1.5 0.22666,0.37334 0.67333,0.56001 1.34,0.56 0.31999,1e-5 0.64666,-0.0267 0.98,-0.08 0.34666,-0.0667 0.65999,-0.15333 0.94,-0.26 l 0.42,2.32 c -0.36001,0.14667 -0.76001,0.27334 -1.2,0.38 -0.44001,0.10667 -0.98001,0.16 -1.62,0.16 -0.81334,0 -1.48667,-0.10666 -2.02,-0.32 -0.53334,-0.22666 -0.96,-0.53333 -1.28,-0.92 -0.32,-0.4 -0.54667,-0.88 -0.68,-1.44 -0.12,-0.55999 -0.18,-1.17999 -0.18,-1.86 l 0,-8.84"
           inkscape:connector-curvature="0" />
        <path
           id="path10609"
           style="font-weight:bold;text-align:center;text-anchor:middle;-inkscape-font-specification:Ubuntu Bold"
           d="m 285.74031,490.29225 c 0.29333,10e-6 0.57333,-0.007 0.84,-0.02 0.26666,-0.0133 0.48,-0.0333 0.64,-0.06 l 0,-2.26 c -0.12,-0.0267 -0.3,-0.0533 -0.54,-0.08 -0.24,-0.0267 -0.46,-0.04 -0.66,-0.04 -0.28,1e-5 -0.54667,0.02 -0.8,0.06 -0.24,0.0267 -0.45334,0.0867 -0.64,0.18 -0.18667,0.0933 -0.33333,0.22001 -0.44,0.38 -0.10667,0.16001 -0.16,0.36001 -0.16,0.6 0,0.46667 0.15333,0.79334 0.46,0.98 0.32,0.17334 0.75333,0.26001 1.3,0.26 m -0.24,-8.72 c 0.88,1e-5 1.61333,0.10001 2.2,0.3 0.58666,0.20001 1.05333,0.48668 1.4,0.86 0.35999,0.37335 0.61333,0.82668 0.76,1.36 0.14666,0.53334 0.21999,1.12668 0.22,1.78 l 0,6.2 c -0.42667,0.0933 -1.02001,0.2 -1.78,0.32 -0.76,0.13334 -1.68,0.2 -2.76,0.2 -0.68,0 -1.3,-0.06 -1.86,-0.18 -0.54667,-0.12 -1.02,-0.31333 -1.42,-0.58 -0.4,-0.28 -0.70667,-0.64 -0.92,-1.08 -0.21333,-0.43999 -0.32,-0.97999 -0.32,-1.62 0,-0.61333 0.12,-1.13333 0.36,-1.56 0.25333,-0.42666 0.58667,-0.76666 1,-1.02 0.41333,-0.25332 0.88667,-0.43332 1.42,-0.54 0.53333,-0.11999 1.08666,-0.17999 1.66,-0.18 0.38666,1e-5 0.72666,0.02 1.02,0.06 0.30666,0.0267 0.55333,0.0667 0.74,0.12 l 0,-0.28 c 0,-0.50666 -0.15334,-0.91332 -0.46,-1.22 -0.30667,-0.30666 -0.84,-0.45999 -1.6,-0.46 -0.50667,10e-6 -1.00667,0.04 -1.5,0.12 -0.49333,0.0667 -0.92,0.16668 -1.28,0.3 l -0.38,-2.4 c 0.17333,-0.0533 0.38667,-0.10665 0.64,-0.16 0.26667,-0.0666 0.55333,-0.11999 0.86,-0.16 0.30667,-0.0533 0.62667,-0.0933 0.96,-0.12 0.34666,-0.04 0.69333,-0.06 1.04,-0.06"
           inkscape:connector-curvature="0" />
        <path
           id="path10611"
           style="font-weight:bold;text-align:center;text-anchor:middle;-inkscape-font-specification:Ubuntu Bold"
           d="m 299.115,484.49225 c -0.26667,-0.0667 -0.58001,-0.13332 -0.94,-0.2 -0.36001,-0.08 -0.74667,-0.11999 -1.16,-0.12 -0.18667,10e-6 -0.41334,0.02 -0.68,0.06 -0.25334,0.0267 -0.44667,0.06 -0.58,0.1 l 0,8.04 -2.98,0 0,-9.96 c 0.53333,-0.18665 1.16,-0.35999 1.88,-0.52 0.73333,-0.17332 1.54666,-0.25999 2.44,-0.26 0.15999,10e-6 0.35333,0.0134 0.58,0.04 0.22666,0.0134 0.45333,0.04 0.68,0.08 0.22666,0.0267 0.45333,0.0667 0.68,0.12 0.22666,0.04 0.41999,0.0933 0.58,0.16 l -0.5,2.46"
           inkscape:connector-curvature="0" />
        <path
           id="path10613"
           style="font-weight:bold;text-align:center;text-anchor:middle;-inkscape-font-specification:Ubuntu Bold"
           d="m 240.49156,512.19225 c -1e-5,-0.91999 -0.20667,-1.65332 -0.62,-2.2 -0.41334,-0.55999 -1.02667,-0.83999 -1.84,-0.84 -0.26667,1e-5 -0.51334,0.0133 -0.74,0.04 -0.22667,0.0133 -0.41334,0.0333 -0.56,0.06 l 0,5.38 c 0.18666,0.12001 0.42666,0.22001 0.72,0.3 0.30666,0.08 0.61333,0.12001 0.92,0.12 1.41333,1e-5 2.11999,-0.95333 2.12,-2.86 m 3.04,-0.08 c -1e-5,0.81334 -0.10001,1.55334 -0.3,2.22 -0.20001,0.66667 -0.49334,1.24 -0.88,1.72 -0.38667,0.48 -0.86667,0.85334 -1.44,1.12 -0.57334,0.26667 -1.23334,0.4 -1.98,0.4 -0.41334,0 -0.8,-0.04 -1.16,-0.12 -0.36,-0.08 -0.70667,-0.19333 -1.04,-0.34 l 0,3.96 -2.98,0 0,-13.86 c 0.26667,-0.08 0.57333,-0.15332 0.92,-0.22 0.34667,-0.08 0.70667,-0.14665 1.08,-0.2 0.38667,-0.0533 0.77333,-0.0933 1.16,-0.12 0.4,-0.04 0.78,-0.06 1.14,-0.06 0.86666,10e-6 1.64,0.13335 2.32,0.4 0.67999,0.25335 1.25333,0.62001 1.72,1.1 0.46666,0.46668 0.81999,1.04001 1.06,1.72 0.25332,0.68001 0.37999,1.44001 0.38,2.28"
           inkscape:connector-curvature="0" />
        <path
           id="path10615"
           style="font-weight:bold;text-align:center;text-anchor:middle;-inkscape-font-specification:Ubuntu Bold"
           d="m 249.84187,515.29225 c 0.29333,1e-5 0.57333,-0.007 0.84,-0.02 0.26667,-0.0133 0.48,-0.0333 0.64,-0.06 l 0,-2.26 c -0.12,-0.0267 -0.3,-0.0533 -0.53999,-0.08 -0.24001,-0.0267 -0.46001,-0.04 -0.66001,-0.04 -0.28,10e-6 -0.54667,0.02 -0.8,0.06 -0.24,0.0267 -0.45333,0.0867 -0.64,0.18 -0.18667,0.0933 -0.33333,0.22001 -0.44,0.38 -0.10667,0.16001 -0.16,0.36001 -0.16,0.6 0,0.46667 0.15333,0.79334 0.46,0.98 0.32,0.17334 0.75333,0.26001 1.3,0.26 m -0.24,-8.72 c 0.88,1e-5 1.61333,0.10001 2.2,0.3 0.58666,0.20001 1.05333,0.48668 1.4,0.86 0.36,0.37335 0.61333,0.82668 0.76,1.36 0.14666,0.53334 0.22,1.12668 0.22,1.78 l 0,6.2 c -0.42667,0.0933 -1.02,0.2 -1.78,0.32 -0.76,0.13334 -1.68,0.2 -2.76,0.2 -0.68,0 -1.3,-0.06 -1.85999,-0.18 -0.54667,-0.12 -1.02001,-0.31333 -1.42001,-0.58 -0.4,-0.28 -0.70666,-0.64 -0.92,-1.08 -0.21333,-0.43999 -0.32,-0.97999 -0.32,-1.62 0,-0.61333 0.12,-1.13333 0.36,-1.56 0.25334,-0.42666 0.58667,-0.76666 1,-1.02 0.41334,-0.25332 0.88667,-0.43332 1.42,-0.54 0.53333,-0.11999 1.08667,-0.17999 1.66,-0.18 0.38667,1e-5 0.72667,0.02 1.02,0.06 0.30667,0.0267 0.55333,0.0667 0.74,0.12 l 0,-0.28 c 0,-0.50666 -0.15334,-0.91332 -0.46,-1.22 -0.30667,-0.30666 -0.84,-0.45999 -1.6,-0.46 -0.50667,10e-6 -1.00667,0.04 -1.5,0.12 -0.49333,0.0667 -0.92,0.16668 -1.28,0.3 l -0.38,-2.4 c 0.17334,-0.0533 0.38667,-0.10665 0.64,-0.16 0.26667,-0.0666 0.55334,-0.11999 0.86,-0.16 0.30667,-0.0533 0.62667,-0.0933 0.96,-0.12 0.34667,-0.04 0.69333,-0.06 1.04,-0.06"
           inkscape:connector-curvature="0" />
        <path
           id="path10617"
           style="font-weight:bold;text-align:center;text-anchor:middle;-inkscape-font-specification:Ubuntu Bold"
           d="m 263.21656,509.49225 c -0.26667,-0.0667 -0.58,-0.13332 -0.94,-0.2 -0.36,-0.08 -0.74667,-0.11999 -1.16,-0.12 -0.18667,10e-6 -0.41334,0.02 -0.68,0.06 -0.25334,0.0267 -0.44667,0.06 -0.58,0.1 l 0,8.04 -2.98,0 0,-9.96 c 0.53333,-0.18665 1.16,-0.35999 1.88,-0.52 0.73333,-0.17332 1.54666,-0.25999 2.44,-0.26 0.16,10e-6 0.35333,0.0134 0.58,0.04 0.22666,0.0134 0.45333,0.04 0.68,0.08 0.22666,0.0267 0.45333,0.0667 0.68,0.12 0.22666,0.04 0.41999,0.0933 0.58,0.16 l -0.5,2.46"
           inkscape:connector-curvature="0" />
        <path
           id="path10619"
           style="font-weight:bold;text-align:center;text-anchor:middle;-inkscape-font-specification:Ubuntu Bold"
           d="m 264.61875,512.19225 c 0,-0.93332 0.14,-1.74666 0.42,-2.44 0.29333,-0.70666 0.67333,-1.29332 1.14,-1.76 0.46666,-0.46665 1,-0.81999 1.6,-1.06 0.61333,-0.23999 1.23999,-0.35999 1.88,-0.36 1.49333,1e-5 2.67332,0.46001 3.54,1.38 0.86666,0.90668 1.29999,2.24668 1.3,4.02 -10e-6,0.17334 -0.007,0.36667 -0.02,0.58 -0.0133,0.20001 -0.0267,0.38001 -0.04,0.54 l -6.76,0 c 0.0667,0.61334 0.35333,1.10001 0.86,1.46 0.50666,0.36001 1.18666,0.54001 2.04,0.54 0.54666,10e-6 1.07999,-0.0467 1.6,-0.14 0.53332,-0.10666 0.96666,-0.23333 1.3,-0.38 l 0.4,2.42 c -0.16001,0.08 -0.37334,0.16 -0.64,0.24 -0.26668,0.08 -0.56668,0.14667 -0.9,0.2 -0.32001,0.0667 -0.66667,0.12 -1.04,0.16 -0.37334,0.04 -0.74667,0.06 -1.12,0.06 -0.94667,0 -1.77334,-0.14 -2.48,-0.42 -0.69334,-0.28 -1.27334,-0.66 -1.74,-1.14 -0.45334,-0.49333 -0.79333,-1.07333 -1.02,-1.74 -0.21333,-0.66666 -0.32,-1.38666 -0.32,-2.16 m 7,-1.14 c -0.0133,-0.25332 -0.06,-0.49999 -0.14,-0.74 -0.0667,-0.23999 -0.18001,-0.45332 -0.34,-0.64 -0.14667,-0.18666 -0.34001,-0.33999 -0.58,-0.46 -0.22667,-0.11999 -0.51334,-0.17999 -0.86,-0.18 -0.33334,1e-5 -0.62001,0.06 -0.86,0.18 -0.24,0.10668 -0.44,0.25334 -0.6,0.44 -0.16,0.18668 -0.28667,0.40668 -0.38,0.66 -0.08,0.24001 -0.14,0.48668 -0.18,0.74 l 3.94,0"
           inkscape:connector-curvature="0" />
        <path
           id="path10621"
           style="font-weight:bold;text-align:center;text-anchor:middle;-inkscape-font-specification:Ubuntu Bold"
           d="m 279.33844,512.03225 c -10e-6,0.92001 0.20666,1.66001 0.62,2.22 0.41333,0.56001 1.02666,0.84001 1.84,0.84 0.26666,10e-6 0.51332,-0.007 0.74,-0.02 0.22666,-0.0267 0.41332,-0.0533 0.56,-0.08 l 0,-5.42 c -0.18668,-0.11999 -0.43334,-0.21999 -0.74,-0.3 -0.29334,-0.08 -0.59334,-0.11999 -0.9,-0.12 -1.41334,1e-5 -2.12001,0.96001 -2.12,2.88 m 6.74,5 c -0.26668,0.08 -0.57335,0.16 -0.92,0.24 -0.34668,0.0667 -0.71334,0.12667 -1.1,0.18 -0.37334,0.0533 -0.76001,0.0933 -1.16,0.12 -0.38668,0.04 -0.76001,0.06 -1.12,0.06 -0.86667,0 -1.64001,-0.12666 -2.32,-0.38 -0.68001,-0.25333 -1.25334,-0.61333 -1.72,-1.08 -0.46667,-0.48 -0.82667,-1.05333 -1.08,-1.72 -0.24,-0.67999 -0.36,-1.43999 -0.36,-2.28 0,-0.85332 0.10666,-1.61999 0.32,-2.3 0.21333,-0.69332 0.52,-1.27999 0.92,-1.76 0.39999,-0.47999 0.88666,-0.84665 1.46,-1.1 0.58666,-0.25332 1.25333,-0.37999 2,-0.38 0.41332,10e-6 0.77999,0.04 1.1,0.12 0.33332,0.08 0.66666,0.19335 1,0.34 l 0,-4.76 2.98,-0.48 0,15.18"
           inkscape:connector-curvature="0" />
        <path
           id="path10623"
           style="font-weight:bold;text-align:center;text-anchor:middle;-inkscape-font-specification:Ubuntu Bold"
           d="m 288.36875,512.19225 c 0,-0.93332 0.14,-1.74666 0.42,-2.44 0.29333,-0.70666 0.67333,-1.29332 1.14,-1.76 0.46666,-0.46665 1,-0.81999 1.6,-1.06 0.61333,-0.23999 1.23999,-0.35999 1.88,-0.36 1.49333,1e-5 2.67332,0.46001 3.54,1.38 0.86666,0.90668 1.29999,2.24668 1.3,4.02 -10e-6,0.17334 -0.007,0.36667 -0.02,0.58 -0.0133,0.20001 -0.0267,0.38001 -0.04,0.54 l -6.76,0 c 0.0667,0.61334 0.35333,1.10001 0.86,1.46 0.50666,0.36001 1.18666,0.54001 2.04,0.54 0.54666,10e-6 1.07999,-0.0467 1.6,-0.14 0.53332,-0.10666 0.96666,-0.23333 1.3,-0.38 l 0.4,2.42 c -0.16001,0.08 -0.37334,0.16 -0.64,0.24 -0.26668,0.08 -0.56668,0.14667 -0.9,0.2 -0.32001,0.0667 -0.66667,0.12 -1.04,0.16 -0.37334,0.04 -0.74667,0.06 -1.12,0.06 -0.94667,0 -1.77334,-0.14 -2.48,-0.42 -0.69334,-0.28 -1.27334,-0.66 -1.74,-1.14 -0.45334,-0.49333 -0.79333,-1.07333 -1.02,-1.74 -0.21333,-0.66666 -0.32,-1.38666 -0.32,-2.16 m 7,-1.14 c -0.0133,-0.25332 -0.06,-0.49999 -0.14,-0.74 -0.0667,-0.23999 -0.18001,-0.45332 -0.34,-0.64 -0.14667,-0.18666 -0.34001,-0.33999 -0.58,-0.46 -0.22667,-0.11999 -0.51334,-0.17999 -0.86,-0.18 -0.33334,1e-5 -0.62001,0.06 -0.86,0.18 -0.24,0.10668 -0.44,0.25334 -0.6,0.44 -0.16,0.18668 -0.28667,0.40668 -0.38,0.66 -0.08,0.24001 -0.14,0.48668 -0.18,0.74 l 3.94,0"
           inkscape:connector-curvature="0" />
        <path
           id="path10625"
           style="font-weight:bold;text-align:center;text-anchor:middle;-inkscape-font-specification:Ubuntu Bold"
           d="m 303.56844,515.23225 c 0.54666,10e-6 0.93333,-0.0533 1.16,-0.16 0.22666,-0.10666 0.33999,-0.31333 0.34,-0.62 -1e-5,-0.23999 -0.14667,-0.44666 -0.44,-0.62 -0.29334,-0.18666 -0.74001,-0.39333 -1.34,-0.62 -0.46667,-0.17333 -0.89334,-0.35333 -1.28,-0.54 -0.37334,-0.18666 -0.69334,-0.40666 -0.96,-0.66 -0.26667,-0.26666 -0.47334,-0.57999 -0.62,-0.94 -0.14667,-0.35999 -0.22,-0.79332 -0.22,-1.3 0,-0.98666 0.36666,-1.76665 1.1,-2.34 0.73333,-0.57332 1.73999,-0.85999 3.02,-0.86 0.63999,1e-5 1.25332,0.06 1.84,0.18 0.58666,0.10668 1.05332,0.22668 1.4,0.36 l -0.52,2.32 c -0.34668,-0.11999 -0.72668,-0.22666 -1.14,-0.32 -0.40001,-0.0933 -0.85334,-0.13999 -1.36,-0.14 -0.93334,1e-5 -1.40001,0.26001 -1.4,0.78 -10e-6,0.12001 0.02,0.22668 0.06,0.32 0.04,0.0933 0.11999,0.18668 0.24,0.28 0.11999,0.08 0.27999,0.17334 0.48,0.28 0.21333,0.0933 0.47999,0.20001 0.8,0.32 0.65332,0.24001 1.19332,0.48001 1.62,0.72 0.42666,0.22668 0.75999,0.48001 1,0.76 0.25332,0.26667 0.42666,0.56667 0.52,0.9 0.10666,0.33334 0.15999,0.72001 0.16,1.16 -10e-6,1.04 -0.39334,1.82667 -1.18,2.36 -0.77334,0.53334 -1.87334,0.8 -3.3,0.8 -0.93334,0 -1.71334,-0.08 -2.34,-0.24 -0.61334,-0.16 -1.04,-0.29333 -1.28,-0.4 l 0.5,-2.42 c 0.50666,0.20001 1.02666,0.36001 1.56,0.48 0.53333,0.10667 1.05999,0.16001 1.58,0.16"
           inkscape:connector-curvature="0" />
      </g>
    </g>
    <g
       id="g10750"
       transform="translate(-15.636238,31.272483)">
      <rect
         rx="18.517557"
         y="573.86969"
         x="209.7645"
         height="60.242531"
         width="128.86826"
         id="rect10497"
         style="fill:#e6e6e6;fill-opacity:1;stroke:#7c7c7c;stroke-width:4.23906755;stroke-linecap:round;stroke-linejoin:miter;stroke-miterlimit:4;stroke-opacity:1;stroke-dasharray:none;stroke-dashoffset:0" />
      <g
         id="flowRoot10519"
         style="font-size:20px;font-style:normal;font-variant:normal;font-weight:normal;font-stretch:normal;line-height:125%;letter-spacing:0px;word-spacing:0px;fill:#000000;fill-opacity:1;stroke:none;font-family:Ubuntu;-inkscape-font-specification:Ubuntu"
         transform="translate(5.9179987,5.0537023)">
        <path
           id="path10574"
           style="font-weight:bold;text-align:center;text-anchor:middle;-inkscape-font-specification:Ubuntu Bold"
           d="m 244.52562,578.22725 c 2.06666,2e-5 3.65333,0.36668 4.76,1.1 1.10666,0.72002 1.65999,1.90668 1.66,3.56 -1e-5,1.66668 -0.56001,2.87334 -1.68,3.62 -1.12,0.73334 -2.72,1.10001 -4.8,1.1 l -0.98,0 0,4.64 -3.12,0 0,-13.66 c 0.68,-0.13332 1.4,-0.22665 2.16,-0.28 0.76,-0.0533 1.42667,-0.08 2,-0.08 m 0.2,2.66 c -0.22667,10e-6 -0.45333,0.007 -0.68,0.02 -0.21333,0.0134 -0.4,0.0267 -0.56,0.04 l 0,4 0.98,0 c 1.08,10e-6 1.89333,-0.14666 2.44,-0.44 0.54666,-0.29332 0.82,-0.83999 0.82,-1.64 0,-0.38665 -0.0733,-0.70665 -0.22,-0.96 -0.13334,-0.25332 -0.33334,-0.45332 -0.6,-0.6 -0.25334,-0.15999 -0.56667,-0.26665 -0.94,-0.32 -0.37334,-0.0666 -0.78667,-0.1 -1.24,-0.1"
           inkscape:connector-curvature="0" />
        <path
           id="path10576"
           style="font-weight:bold;text-align:center;text-anchor:middle;-inkscape-font-specification:Ubuntu Bold"
           d="m 256.03625,592.24725 -2.98,0 0,-10.52 2.98,0 0,10.52 m 0.28,-13.56 c 0,0.54668 -0.18,0.98002 -0.54,1.3 -0.34667,0.30668 -0.76,0.46001 -1.24,0.46 -0.48,10e-6 -0.9,-0.15332 -1.26,-0.46 -0.34667,-0.31998 -0.52,-0.75332 -0.52,-1.3 0,-0.54665 0.17333,-0.97332 0.52,-1.28 0.36,-0.31998 0.78,-0.47998 1.26,-0.48 0.48,2e-5 0.89333,0.16002 1.24,0.48 0.36,0.30668 0.54,0.73335 0.54,1.28"
           inkscape:connector-curvature="0" />
        <path
           id="path10578"
           style="font-weight:bold;text-align:center;text-anchor:middle;-inkscape-font-specification:Ubuntu Bold"
           d="m 258.8375,582.08725 c 0.50666,-0.14665 1.16,-0.27999 1.96,-0.4 0.8,-0.13332 1.64,-0.19999 2.52,-0.2 0.89333,10e-6 1.63333,0.12001 2.22,0.36 0.59999,0.22668 1.07332,0.55335 1.42,0.98 0.34666,0.42668 0.59332,0.93334 0.74,1.52 0.14666,0.58668 0.21999,1.24001 0.22,1.96 l 0,5.94 -2.98,0 0,-5.58 c -10e-6,-0.95999 -0.12667,-1.63999 -0.38,-2.04 -0.25334,-0.39999 -0.72667,-0.59999 -1.42,-0.6 -0.21334,10e-6 -0.44001,0.0133 -0.68,0.04 -0.24,0.0133 -0.45334,0.0333 -0.64,0.06 l 0,8.12 -2.98,0 0,-10.16"
           inkscape:connector-curvature="0" />
        <path
           id="path10580"
           style="font-weight:bold;text-align:center;text-anchor:middle;-inkscape-font-specification:Ubuntu Bold"
           d="m 270.53437,579.10725 2.98,-0.48 0,3.1 3.58001,0 0,2.48 -3.58001,0 0,3.7 c 0,0.62667 0.10667,1.12667 0.32001,1.5 0.22666,0.37334 0.67332,0.56001 1.33999,0.56 0.32,10e-6 0.64667,-0.0267 0.98001,-0.08 0.34665,-0.0667 0.65999,-0.15333 0.94,-0.26 l 0.41999,2.32 c -0.36,0.14667 -0.76,0.27334 -1.2,0.38 -0.44,0.10667 -0.98,0.16 -1.62,0.16 -0.81333,0 -1.48667,-0.10666 -2.02,-0.32 -0.53333,-0.22666 -0.96,-0.53333 -1.27999,-0.92 -0.32001,-0.4 -0.54667,-0.88 -0.68,-1.44 -0.12001,-0.55999 -0.18001,-1.17999 -0.18001,-1.86 l 0,-8.84"
           inkscape:connector-curvature="0" />
        <path
           id="path10582"
           style="font-weight:bold;text-align:center;text-anchor:middle;-inkscape-font-specification:Ubuntu Bold"
           d="m 283.13094,590.16725 c 0.29333,1e-5 0.57332,-0.007 0.84,-0.02 0.26666,-0.0133 0.47999,-0.0333 0.64,-0.06 l 0,-2.26 c -0.12001,-0.0267 -0.30001,-0.0533 -0.54,-0.08 -0.24001,-0.0267 -0.46001,-0.04 -0.66,-0.04 -0.28001,10e-6 -0.54667,0.02 -0.8,0.06 -0.24001,0.0267 -0.45334,0.0867 -0.64,0.18 -0.18667,0.0933 -0.33334,0.22001 -0.44,0.38 -0.10667,0.16001 -0.16001,0.36001 -0.16,0.6 -1e-5,0.46667 0.15333,0.79334 0.46,0.98 0.31999,0.17334 0.75333,0.26001 1.3,0.26 m -0.24,-8.72 c 0.87999,10e-6 1.61332,0.10001 2.2,0.3 0.58666,0.20001 1.05332,0.48668 1.4,0.86 0.35999,0.37335 0.61332,0.82668 0.76,1.36 0.14665,0.53334 0.21999,1.12668 0.22,1.78 l 0,6.2 c -0.42668,0.0933 -1.02001,0.2 -1.78,0.32 -0.76001,0.13334 -1.68001,0.2 -2.76,0.2 -0.68001,0 -1.30001,-0.06 -1.86,-0.18 -0.54667,-0.12 -1.02,-0.31333 -1.42,-0.58 -0.4,-0.28 -0.70667,-0.64 -0.92,-1.08 -0.21334,-0.43999 -0.32,-0.97999 -0.32,-1.62 0,-0.61333 0.12,-1.13333 0.36,-1.56 0.25333,-0.42666 0.58666,-0.76666 1,-1.02 0.41333,-0.25332 0.88666,-0.43332 1.42,-0.54 0.53333,-0.11999 1.08666,-0.17999 1.66,-0.18 0.38666,10e-6 0.72666,0.02 1.02,0.06 0.30666,0.0267 0.55332,0.0667 0.74,0.12 l 0,-0.28 c -1e-5,-0.50666 -0.15334,-0.91332 -0.46,-1.22 -0.30668,-0.30666 -0.84001,-0.45999 -1.6,-0.46 -0.50667,1e-5 -1.00667,0.04 -1.5,0.12 -0.49334,0.0667 -0.92,0.16668 -1.28,0.3 l -0.38,-2.4 c 0.17333,-0.0533 0.38666,-0.10665 0.64,-0.16 0.26666,-0.0666 0.55333,-0.11999 0.86,-0.16 0.30666,-0.0533 0.62666,-0.0933 0.96,-0.12 0.34666,-0.04 0.69333,-0.06 1.04,-0.06"
           inkscape:connector-curvature="0" />
        <path
           id="path10584"
           style="font-weight:bold;text-align:center;text-anchor:middle;-inkscape-font-specification:Ubuntu Bold"
           d="m 296.50562,584.36725 c -0.26667,-0.0667 -0.58,-0.13332 -0.94,-0.2 -0.36,-0.08 -0.74667,-0.11999 -1.16,-0.12 -0.18667,1e-5 -0.41333,0.02 -0.68,0.06 -0.25333,0.0267 -0.44667,0.06 -0.58,0.1 l 0,8.04 -2.98,0 0,-9.96 c 0.53334,-0.18665 1.16,-0.35999 1.88,-0.52 0.73333,-0.17332 1.54667,-0.25999 2.44001,-0.26 0.15999,10e-6 0.35332,0.0133 0.57999,0.04 0.22667,0.0134 0.45333,0.04 0.68001,0.08 0.22665,0.0267 0.45332,0.0667 0.68,0.12 0.22665,0.04 0.41999,0.0933 0.57999,0.16 l -0.5,2.46"
           inkscape:connector-curvature="0" />
        <path
           id="path10586"
           style="font-weight:bold;text-align:center;text-anchor:middle;-inkscape-font-specification:Ubuntu Bold"
           d="m 239.52281,612.06725 c -1e-5,-0.91999 -0.20667,-1.65332 -0.62,-2.2 -0.41334,-0.55999 -1.02667,-0.83999 -1.84,-0.84 -0.26667,10e-6 -0.51334,0.0133 -0.74,0.04 -0.22667,0.0133 -0.41334,0.0333 -0.56,0.06 l 0,5.38 c 0.18666,0.12001 0.42666,0.22001 0.72,0.3 0.30666,0.08 0.61333,0.12001 0.92,0.12 1.41333,1e-5 2.11999,-0.95333 2.12,-2.86 m 3.04,-0.08 c -1e-5,0.81334 -0.10001,1.55334 -0.3,2.22 -0.20001,0.66667 -0.49334,1.24 -0.88,1.72 -0.38667,0.48 -0.86667,0.85334 -1.44,1.12 -0.57334,0.26667 -1.23334,0.4 -1.98,0.4 -0.41334,0 -0.8,-0.04 -1.16,-0.12 -0.36,-0.08 -0.70667,-0.19333 -1.04,-0.34 l 0,3.96 -2.98,0 0,-13.86 c 0.26667,-0.08 0.57333,-0.15332 0.92,-0.22 0.34667,-0.08 0.70667,-0.14665 1.08,-0.2 0.38667,-0.0533 0.77333,-0.0933 1.16,-0.12 0.4,-0.04 0.78,-0.06 1.14,-0.06 0.86666,10e-6 1.64,0.13335 2.32,0.4 0.67999,0.25335 1.25333,0.62001 1.72,1.1 0.46666,0.46668 0.81999,1.04001 1.06,1.72 0.25332,0.68001 0.37999,1.44001 0.38,2.28"
           inkscape:connector-curvature="0" />
        <path
           id="path10588"
           style="font-weight:bold;text-align:center;text-anchor:middle;-inkscape-font-specification:Ubuntu Bold"
           d="m 253.83312,616.88725 c -0.50667,0.14667 -1.16,0.28 -1.96,0.4 -0.8,0.13334 -1.64,0.2 -2.52,0.2 -0.89333,0 -1.64,-0.12 -2.24,-0.36 -0.58666,-0.24 -1.05333,-0.57333 -1.4,-1 -0.34666,-0.44 -0.59333,-0.95999 -0.74,-1.56 -0.14666,-0.59999 -0.22,-1.25999 -0.22,-1.98 l 0,-5.86 2.98,0 0,5.5 c 0,0.96001 0.12667,1.65334 0.38,2.08 0.25333,0.42667 0.72667,0.64001 1.42,0.64 0.21333,10e-6 0.44,-0.007 0.68,-0.02 0.24,-0.0267 0.45333,-0.0533 0.64,-0.08 l 0,-8.12 2.98,0 0,10.16"
           inkscape:connector-curvature="0" />
        <path
           id="path10590"
           style="font-weight:bold;text-align:center;text-anchor:middle;-inkscape-font-specification:Ubuntu Bold"
           d="m 256.15,612.06725 c 0,-0.93332 0.14,-1.74666 0.42,-2.44 0.29333,-0.70666 0.67333,-1.29332 1.14,-1.76 0.46666,-0.46665 1,-0.81999 1.6,-1.06 0.61333,-0.23999 1.23999,-0.35999 1.88,-0.36 1.49333,10e-6 2.67332,0.46001 3.54,1.38 0.86666,0.90668 1.29999,2.24668 1.3,4.02 -10e-6,0.17334 -0.007,0.36667 -0.02,0.58 -0.0133,0.20001 -0.0267,0.38001 -0.04,0.54 l -6.76,0 c 0.0667,0.61334 0.35333,1.10001 0.86,1.46 0.50666,0.36001 1.18666,0.54001 2.04,0.54 0.54666,10e-6 1.07999,-0.0467 1.6,-0.14 0.53332,-0.10666 0.96666,-0.23333 1.3,-0.38 l 0.4,2.42 c -0.16001,0.08 -0.37334,0.16 -0.64,0.24 -0.26668,0.08 -0.56668,0.14667 -0.9,0.2 -0.32001,0.0667 -0.66667,0.12 -1.04,0.16 -0.37334,0.04 -0.74667,0.06 -1.12,0.06 -0.94667,0 -1.77334,-0.14 -2.48,-0.42 -0.69334,-0.28 -1.27334,-0.66 -1.74,-1.14 -0.45334,-0.49333 -0.79333,-1.07333 -1.02,-1.74 -0.21333,-0.66666 -0.32,-1.38666 -0.32,-2.16 m 7,-1.14 c -0.0133,-0.25332 -0.06,-0.49999 -0.14,-0.74 -0.0667,-0.23999 -0.18001,-0.45332 -0.34,-0.64 -0.14667,-0.18666 -0.34001,-0.33999 -0.58,-0.46 -0.22667,-0.11999 -0.51334,-0.17999 -0.86,-0.18 -0.33334,10e-6 -0.62001,0.06 -0.86,0.18 -0.24,0.10668 -0.44,0.25334 -0.6,0.44 -0.16,0.18668 -0.28667,0.40668 -0.38,0.66 -0.08,0.24001 -0.14,0.48668 -0.18,0.74 l 3.94,0"
           inkscape:connector-curvature="0" />
        <path
           id="path10592"
           style="font-weight:bold;text-align:center;text-anchor:middle;-inkscape-font-specification:Ubuntu Bold"
           d="m 274.66969,609.36725 c -0.26668,-0.0667 -0.58001,-0.13332 -0.94,-0.2 -0.36001,-0.08 -0.74668,-0.11999 -1.16,-0.12 -0.18667,1e-5 -0.41334,0.02 -0.68,0.06 -0.25334,0.0267 -0.44667,0.06 -0.58,0.1 l 0,8.04 -2.98,0 0,-9.96 c 0.53333,-0.18665 1.15999,-0.35999 1.88,-0.52 0.73333,-0.17332 1.54666,-0.25999 2.44,-0.26 0.15999,10e-6 0.35332,0.0133 0.58,0.04 0.22666,0.0134 0.45332,0.04 0.68,0.08 0.22666,0.0267 0.45332,0.0667 0.68,0.12 0.22666,0.04 0.41999,0.0933 0.58,0.16 l -0.5,2.46"
           inkscape:connector-curvature="0" />
        <path
           id="path10594"
           style="font-weight:bold;text-align:center;text-anchor:middle;-inkscape-font-specification:Ubuntu Bold"
           d="m 276.66719,604.10725 2.98,-0.48 0,3.1 3.58,0 0,2.48 -3.58,0 0,3.7 c -1e-5,0.62667 0.10666,1.12667 0.32,1.5 0.22666,0.37334 0.67333,0.56001 1.34,0.56 0.31999,10e-6 0.64666,-0.0267 0.98,-0.08 0.34666,-0.0667 0.65999,-0.15333 0.94,-0.26 l 0.42,2.32 c -0.36001,0.14667 -0.76001,0.27334 -1.2,0.38 -0.44001,0.10667 -0.98001,0.16 -1.62,0.16 -0.81334,0 -1.48667,-0.10666 -2.02,-0.32 -0.53334,-0.22666 -0.96,-0.53333 -1.28,-0.92 -0.32,-0.4 -0.54667,-0.88 -0.68,-1.44 -0.12,-0.55999 -0.18,-1.17999 -0.18,-1.86 l 0,-8.84"
           inkscape:connector-curvature="0" />
        <path
           id="path10596"
           style="font-weight:bold;text-align:center;text-anchor:middle;-inkscape-font-specification:Ubuntu Bold"
           d="m 289.26375,615.16725 c 0.29333,1e-5 0.57333,-0.007 0.84,-0.02 0.26666,-0.0133 0.47999,-0.0333 0.64,-0.06 l 0,-2.26 c -0.12001,-0.0267 -0.30001,-0.0533 -0.54,-0.08 -0.24001,-0.0267 -0.46001,-0.04 -0.66,-0.04 -0.28001,10e-6 -0.54667,0.02 -0.8,0.06 -0.24,0.0267 -0.45334,0.0867 -0.64,0.18 -0.18667,0.0933 -0.33334,0.22001 -0.44,0.38 -0.10667,0.16001 -0.16,0.36001 -0.16,0.6 0,0.46667 0.15333,0.79334 0.46,0.98 0.32,0.17334 0.75333,0.26001 1.3,0.26 m -0.24,-8.72 c 0.87999,10e-6 1.61333,0.10001 2.2,0.3 0.58666,0.20001 1.05332,0.48668 1.4,0.86 0.35999,0.37335 0.61332,0.82668 0.76,1.36 0.14666,0.53334 0.21999,1.12668 0.22,1.78 l 0,6.2 c -0.42668,0.0933 -1.02001,0.2 -1.78,0.32 -0.76001,0.13334 -1.68001,0.2 -2.76,0.2 -0.68,0 -1.3,-0.06 -1.86,-0.18 -0.54667,-0.12 -1.02,-0.31333 -1.42,-0.58 -0.4,-0.28 -0.70667,-0.64 -0.92,-1.08 -0.21333,-0.43999 -0.32,-0.97999 -0.32,-1.62 0,-0.61333 0.12,-1.13333 0.36,-1.56 0.25333,-0.42666 0.58667,-0.76666 1,-1.02 0.41333,-0.25332 0.88666,-0.43332 1.42,-0.54 0.53333,-0.11999 1.08666,-0.17999 1.66,-0.18 0.38666,10e-6 0.72666,0.02 1.02,0.06 0.30666,0.0267 0.55333,0.0667 0.74,0.12 l 0,-0.28 c -10e-6,-0.50666 -0.15334,-0.91332 -0.46,-1.22 -0.30667,-0.30666 -0.84001,-0.45999 -1.6,-0.46 -0.50667,1e-5 -1.00667,0.04 -1.5,0.12 -0.49334,0.0667 -0.92,0.16668 -1.28,0.3 l -0.38,-2.4 c 0.17333,-0.0533 0.38666,-0.10665 0.64,-0.16 0.26666,-0.0666 0.55333,-0.11999 0.86,-0.16 0.30666,-0.0533 0.62666,-0.0933 0.96,-0.12 0.34666,-0.04 0.69333,-0.06 1.04,-0.06"
           inkscape:connector-curvature="0" />
        <path
           id="path10598"
           style="font-weight:bold;text-align:center;text-anchor:middle;-inkscape-font-specification:Ubuntu Bold"
           d="m 299.31844,615.10725 c 0.54666,10e-6 0.93333,-0.0533 1.16,-0.16 0.22666,-0.10666 0.33999,-0.31333 0.34,-0.62 -1e-5,-0.23999 -0.14667,-0.44666 -0.44,-0.62 -0.29334,-0.18666 -0.74001,-0.39333 -1.34,-0.62 -0.46667,-0.17333 -0.89334,-0.35333 -1.28,-0.54 -0.37334,-0.18666 -0.69334,-0.40666 -0.96,-0.66 -0.26667,-0.26666 -0.47334,-0.57999 -0.62,-0.94 -0.14667,-0.35999 -0.22,-0.79332 -0.22,-1.3 0,-0.98666 0.36666,-1.76665 1.1,-2.34 0.73333,-0.57332 1.73999,-0.85999 3.02,-0.86 0.63999,10e-6 1.25332,0.06 1.84,0.18 0.58666,0.10668 1.05332,0.22668 1.4,0.36 l -0.52,2.32 c -0.34668,-0.11999 -0.72668,-0.22666 -1.14,-0.32 -0.40001,-0.0933 -0.85334,-0.13999 -1.36,-0.14 -0.93334,10e-6 -1.40001,0.26001 -1.4,0.78 -10e-6,0.12001 0.02,0.22668 0.06,0.32 0.04,0.0933 0.11999,0.18668 0.24,0.28 0.11999,0.08 0.27999,0.17334 0.48,0.28 0.21333,0.0933 0.47999,0.20001 0.8,0.32 0.65332,0.24001 1.19332,0.48001 1.62,0.72 0.42666,0.22668 0.75999,0.48001 1,0.76 0.25332,0.26667 0.42666,0.56667 0.52,0.9 0.10666,0.33334 0.15999,0.72001 0.16,1.16 -10e-6,1.04 -0.39334,1.82667 -1.18,2.36 -0.77334,0.53334 -1.87334,0.8 -3.3,0.8 -0.93334,0 -1.71334,-0.08 -2.34,-0.24 -0.61334,-0.16 -1.04,-0.29333 -1.28,-0.4 l 0.5,-2.42 c 0.50666,0.20001 1.02666,0.36001 1.56,0.48 0.53333,0.10667 1.05999,0.16001 1.58,0.16"
           inkscape:connector-curvature="0" />
      </g>
    </g>
    <g
       id="g10767"
       transform="translate(1.2406641e-5,29.535154)">
      <rect
         style="fill:#e6e6e6;fill-opacity:1;stroke:#7c7c7c;stroke-width:4.23906755;stroke-linecap:round;stroke-linejoin:miter;stroke-miterlimit:4;stroke-opacity:1;stroke-dasharray:none;stroke-dashoffset:0"
         id="rect10499"
         width="128.86826"
         height="60.242531"
         x="397.39938"
         y="474.84018"
         rx="18.517557" />
      <g
         id="flowRoot10527"
         style="font-size:20px;font-style:normal;font-variant:normal;font-weight:normal;font-stretch:normal;line-height:125%;letter-spacing:0px;word-spacing:0px;fill:#000000;fill-opacity:1;stroke:none;font-family:Ubuntu;-inkscape-font-specification:Ubuntu"
         transform="translate(-1.9372699,23.039192)">
        <path
           id="path10561"
           style="font-weight:bold;text-align:center;text-anchor:middle;-inkscape-font-specification:Ubuntu Bold"
           d="m 435.25984,478.65225 c -10e-6,0.50668 -0.10001,0.99335 -0.3,1.46 -0.20001,0.46668 -0.46001,0.92001 -0.78,1.36 -0.32,0.42668 -0.68,0.84001 -1.08,1.24 -0.4,0.40001 -0.79334,0.78001 -1.18,1.14 -0.2,0.18667 -0.42,0.40001 -0.66,0.64 -0.22667,0.22667 -0.44667,0.46001 -0.66,0.7 -0.21333,0.24001 -0.40667,0.46667 -0.58,0.68 -0.16,0.20001 -0.26,0.36667 -0.3,0.5 l 5.96,0 0,2.5 -9.24,0 c -0.0267,-0.14666 -0.04,-0.33333 -0.04,-0.56 0,-0.22666 0,-0.38666 0,-0.48 0,-0.64 0.1,-1.22666 0.3,-1.76 0.21334,-0.53333 0.48667,-1.02666 0.82,-1.48 0.33333,-0.46666 0.70667,-0.89999 1.12,-1.3 0.42667,-0.39999 0.84667,-0.79999 1.26,-1.2 0.32,-0.30666 0.62,-0.59332 0.9,-0.86 0.28,-0.27999 0.52666,-0.54666 0.74,-0.8 0.21333,-0.26665 0.38,-0.52665 0.5,-0.78 0.12,-0.26665 0.18,-0.53332 0.18,-0.8 0,-0.58665 -0.16667,-0.99999 -0.5,-1.24 -0.33334,-0.23999 -0.74667,-0.35999 -1.24,-0.36 -0.36,10e-6 -0.7,0.06 -1.02,0.18 -0.30667,0.10668 -0.59333,0.24001 -0.86,0.4 -0.25333,0.14668 -0.47333,0.30001 -0.66,0.46 -0.18667,0.14668 -0.32667,0.26668 -0.42,0.36 l -1.48,-2.08 c 0.58667,-0.54665 1.26667,-0.99332 2.04,-1.34 0.78667,-0.35998 1.62667,-0.53998 2.52,-0.54 0.81333,2e-5 1.51333,0.0933 2.1,0.28 0.58666,0.18668 1.06666,0.45335 1.44,0.8 0.38666,0.33335 0.66666,0.74668 0.84,1.24 0.18666,0.48001 0.27999,1.02668 0.28,1.64"
           inkscape:connector-curvature="0" />
        <path
           id="path10563"
           style="font-weight:bold;text-align:center;text-anchor:middle;-inkscape-font-specification:Ubuntu Bold"
           d="m 440.70703,481.01225 c 0.21333,1e-5 0.41333,-0.007 0.6,-0.02 0.2,-0.0133 0.36,-0.0267 0.48,-0.04 l 0,-1.56 c -0.0933,-0.0267 -0.22667,-0.0466 -0.4,-0.06 -0.17334,-0.0266 -0.33334,-0.04 -0.48,-0.04 -0.4,10e-6 -0.74667,0.0533 -1.04,0.16 -0.29333,0.10668 -0.44,0.33335 -0.44,0.68 0,0.34668 0.11333,0.58001 0.34,0.7 0.24,0.12001 0.55333,0.18001 0.94,0.18 m -0.18,-6.3 c 0.64,2e-5 1.17333,0.0734 1.6,0.22 0.44,0.13335 0.79333,0.33335 1.06,0.6 0.26666,0.26668 0.45333,0.58668 0.56,0.96 0.11999,0.37335 0.17999,0.80001 0.18,1.28 l 0,4.54 c -0.30667,0.0667 -0.75334,0.15334 -1.34,0.26 -0.57334,0.0933 -1.24667,0.14001 -2.02,0.14 -1.05333,1e-5 -1.88,-0.18666 -2.48,-0.56 -0.6,-0.37332 -0.9,-1.02666 -0.9,-1.96 0,-0.45332 0.0867,-0.82665 0.26,-1.12 0.18667,-0.30665 0.42667,-0.55332 0.72,-0.74 0.30667,-0.18665 0.66,-0.31999 1.06,-0.4 0.41333,-0.08 0.84,-0.11999 1.28,-0.12 0.26666,10e-6 0.50666,0.0134 0.72,0.04 0.22666,0.0267 0.41333,0.0533 0.56,0.08 l 0,-0.2 c 0,-0.37332 -0.11334,-0.65999 -0.34,-0.86 -0.22667,-0.21332 -0.61334,-0.31998 -1.16,-0.32 -0.37334,2e-5 -0.74667,0.0267 -1.12,0.08 -0.37333,0.0534 -0.69333,0.12668 -0.96,0.22 l -0.3,-1.78 c 0.25333,-0.08 0.62667,-0.15998 1.12,-0.24 0.50667,-0.08 1.00666,-0.11998 1.5,-0.12"
           inkscape:connector-curvature="0" />
        <path
           id="path10565"
           style="font-weight:bold;text-align:center;text-anchor:middle;-inkscape-font-specification:Ubuntu Bold"
           d="m 454.76047,475.01225 c 0.23999,0.44002 0.51333,0.98668 0.82,1.64 0.31999,0.64001 0.64666,1.34001 0.98,2.1 0.34666,0.74668 0.68666,1.51334 1.02,2.3 0.33332,0.78668 0.64666,1.52668 0.94,2.22 0.29332,-0.69332 0.60666,-1.43332 0.94,-2.22 0.33332,-0.78666 0.66665,-1.55332 1,-2.3 0.34665,-0.75999 0.67332,-1.45999 0.98,-2.1 0.31999,-0.65332 0.59999,-1.19998 0.84,-1.64 l 2.84,0 c 0.13332,0.92002 0.25332,1.95335 0.36,3.1 0.11998,1.13335 0.21998,2.32001 0.3,3.56 0.0933,1.22668 0.17332,2.46001 0.24,3.7 0.08,1.24001 0.14665,2.40667 0.2,3.5 l -3.04,0 c -0.04,-1.34666 -0.0933,-2.81333 -0.16,-4.4 -0.0667,-1.58666 -0.16668,-3.18666 -0.3,-4.8 -0.24001,0.56001 -0.50668,1.18001 -0.8,1.86 -0.29335,0.68001 -0.58668,1.36001 -0.88,2.04 -0.28001,0.68001 -0.55335,1.33334 -0.82,1.96 -0.26668,0.61334 -0.49334,1.14001 -0.68,1.58 l -2.18,0 c -0.18668,-0.43999 -0.41334,-0.96666 -0.68,-1.58 -0.26667,-0.62666 -0.54667,-1.27999 -0.84,-1.96 -0.28001,-0.67999 -0.56667,-1.35999 -0.86,-2.04 -0.29334,-0.67999 -0.56001,-1.29999 -0.8,-1.86 -0.13334,1.61334 -0.23334,3.21334 -0.3,4.8 -0.0667,1.58667 -0.12001,3.05334 -0.16,4.4 l -3.04,0 c 0.0533,-1.09333 0.11333,-2.25999 0.18,-3.5 0.08,-1.23999 0.16,-2.47332 0.24,-3.7 0.0933,-1.23999 0.19333,-2.42665 0.3,-3.56 0.12,-1.14665 0.24666,-2.17998 0.38,-3.1 l 2.98,0"
           inkscape:connector-curvature="0" />
        <path
           id="path10567"
           style="font-weight:bold;text-align:center;text-anchor:middle;-inkscape-font-specification:Ubuntu Bold"
           d="m 472.83016,486.79225 c 0.29332,10e-6 0.57332,-0.007 0.84,-0.02 0.26666,-0.0133 0.47999,-0.0333 0.64,-0.06 l 0,-2.26 c -0.12001,-0.0267 -0.30001,-0.0533 -0.54,-0.08 -0.24001,-0.0267 -0.46001,-0.04 -0.66,-0.04 -0.28001,1e-5 -0.54668,0.02 -0.8,0.06 -0.24001,0.0267 -0.45334,0.0867 -0.64,0.18 -0.18667,0.0933 -0.33334,0.22001 -0.44,0.38 -0.10667,0.16001 -0.16001,0.36001 -0.16,0.6 -10e-6,0.46667 0.15333,0.79334 0.46,0.98 0.31999,0.17334 0.75332,0.26001 1.3,0.26 m -0.24,-8.72 c 0.87999,1e-5 1.61332,0.10001 2.2,0.3 0.58665,0.20001 1.05332,0.48668 1.4,0.86 0.35999,0.37335 0.61332,0.82668 0.76,1.36 0.14665,0.53334 0.21999,1.12668 0.22,1.78 l 0,6.2 c -0.42668,0.0933 -1.02001,0.2 -1.78,0.32 -0.76001,0.13334 -1.68001,0.2 -2.76,0.2 -0.68001,0 -1.30001,-0.06 -1.86,-0.18 -0.54667,-0.12 -1.02001,-0.31333 -1.42,-0.58 -0.40001,-0.28 -0.70667,-0.64 -0.92,-1.08 -0.21334,-0.43999 -0.32,-0.97999 -0.32,-1.62 0,-0.61333 0.12,-1.13333 0.36,-1.56 0.25333,-0.42666 0.58666,-0.76666 1,-1.02 0.41333,-0.25332 0.88666,-0.43332 1.42,-0.54 0.53333,-0.11999 1.08666,-0.17999 1.66,-0.18 0.38666,1e-5 0.72666,0.02 1.02,0.06 0.30666,0.0267 0.55332,0.0667 0.74,0.12 l 0,-0.28 c -10e-6,-0.50666 -0.15334,-0.91332 -0.46,-1.22 -0.30668,-0.30666 -0.84001,-0.45999 -1.6,-0.46 -0.50667,10e-6 -1.00667,0.04 -1.5,0.12 -0.49334,0.0667 -0.92001,0.16668 -1.28,0.3 l -0.38,-2.4 c 0.17333,-0.0533 0.38666,-0.10665 0.64,-0.16 0.26666,-0.0666 0.55333,-0.11999 0.86,-0.16 0.30666,-0.0533 0.62666,-0.0933 0.96,-0.12 0.34666,-0.04 0.69332,-0.06 1.04,-0.06"
           inkscape:connector-curvature="0" />
        <path
           id="path10569"
           style="font-weight:bold;text-align:center;text-anchor:middle;-inkscape-font-specification:Ubuntu Bold"
           d="m 479.86484,478.71225 c 0.50667,-0.14665 1.16,-0.27999 1.96,-0.4 0.8,-0.13332 1.64,-0.19999 2.52,-0.2 0.89333,10e-6 1.63333,0.12001 2.22,0.36 0.6,0.22668 1.07333,0.55335 1.42,0.98 0.34666,0.42668 0.59333,0.93334 0.74,1.52 0.14666,0.58668 0.21999,1.24001 0.22,1.96 l 0,5.94 -2.98,0 0,-5.58 c 0,-0.95999 -0.12667,-1.63999 -0.38,-2.04 -0.25334,-0.39999 -0.72667,-0.59999 -1.42,-0.6 -0.21334,1e-5 -0.44,0.0133 -0.68,0.04 -0.24,0.0133 -0.45333,0.0333 -0.64,0.06 l 0,8.12 -2.98,0 0,-10.16"
           inkscape:connector-curvature="0" />
        <path
           id="path10571"
           style="font-weight:bold;text-align:center;text-anchor:middle;-inkscape-font-specification:Ubuntu Bold"
           d="m 501.50172,483.59225 c -10e-6,0.82667 -0.12001,1.58667 -0.36,2.28 -0.24001,0.68001 -0.58668,1.26667 -1.04,1.76 -0.45334,0.48 -1.00001,0.85334 -1.64,1.12 -0.62668,0.26667 -1.33334,0.4 -2.12,0.4 -0.77334,0 -1.48001,-0.13333 -2.12,-0.4 -0.62667,-0.26666 -1.16667,-0.64 -1.62,-1.12 -0.45334,-0.49333 -0.80667,-1.07999 -1.06,-1.76 -0.25334,-0.69333 -0.38,-1.45333 -0.38,-2.28 0,-0.82666 0.12666,-1.57999 0.38,-2.26 0.26666,-0.67999 0.62666,-1.25999 1.08,-1.74 0.46666,-0.47999 1.01333,-0.85332 1.64,-1.12 0.63999,-0.26665 1.33333,-0.39999 2.08,-0.4 0.75999,1e-5 1.45332,0.13335 2.08,0.4 0.63999,0.26668 1.18666,0.64001 1.64,1.12 0.45332,0.48001 0.80665,1.06001 1.06,1.74 0.25332,0.68001 0.37999,1.43334 0.38,2.26 m -3.04,0 c -1e-5,-0.91999 -0.18668,-1.63999 -0.56,-2.16 -0.36001,-0.53332 -0.88001,-0.79999 -1.56,-0.8 -0.68001,10e-6 -1.20667,0.26668 -1.58,0.8 -0.37334,0.52001 -0.56001,1.24001 -0.56,2.16 -1e-5,0.92001 0.18666,1.65334 0.56,2.2 0.37333,0.53334 0.89999,0.80001 1.58,0.8 0.67999,1e-5 1.19999,-0.26666 1.56,-0.8 0.37332,-0.54666 0.55999,-1.27999 0.56,-2.2"
           inkscape:connector-curvature="0" />
      </g>
    </g>
    <g
       id="g10777"
       transform="translate(1.73736,31.27252)">
      <rect
         rx="18.517557"
         y="473.10281"
         x="598.93317"
         height="60.242531"
         width="128.86826"
         id="rect10501"
         style="fill:#e6e6e6;fill-opacity:1;stroke:#7c7c7c;stroke-width:4.23906755;stroke-linecap:round;stroke-linejoin:miter;stroke-miterlimit:4;stroke-opacity:1;stroke-dasharray:none;stroke-dashoffset:0" />
      <g
         id="flowRoot10535"
         style="font-size:20px;font-style:normal;font-variant:normal;font-weight:normal;font-stretch:normal;line-height:125%;letter-spacing:0px;word-spacing:0px;fill:#000000;fill-opacity:1;stroke:none;font-family:Ubuntu;-inkscape-font-specification:Ubuntu"
         transform="translate(-0.89473694,19.286826)">
        <path
           id="path10544"
           style="font-weight:bold;text-align:center;text-anchor:middle;-inkscape-font-specification:Ubuntu Bold"
           d="m 632.70375,487.06725 0,2.68 -9.26,0 0,-13.86 3.12,0 0,11.18 6.14,0"
           inkscape:connector-curvature="0" />
        <path
           id="path10546"
           style="font-weight:bold;text-align:center;text-anchor:middle;-inkscape-font-specification:Ubuntu Bold"
           d="m 637.47375,489.74725 -2.98,0 0,-10.52 2.98,0 0,10.52 m 0.28,-13.56 c 0,0.54668 -0.18,0.98002 -0.54,1.3 -0.34667,0.30668 -0.76,0.46001 -1.24,0.46 -0.48,1e-5 -0.9,-0.15332 -1.26,-0.46 -0.34667,-0.31998 -0.52,-0.75332 -0.52,-1.3 0,-0.54665 0.17333,-0.97332 0.52,-1.28 0.36,-0.31998 0.78,-0.47998 1.26,-0.48 0.48,2e-5 0.89333,0.16002 1.24,0.48 0.36,0.30668 0.54,0.73335 0.54,1.28"
           inkscape:connector-curvature="0" />
        <path
           id="path10548"
           style="font-weight:bold;text-align:center;text-anchor:middle;-inkscape-font-specification:Ubuntu Bold"
           d="m 646.055,484.16725 c -10e-6,-0.95999 -0.12667,-1.63999 -0.38,-2.04 -0.24001,-0.39999 -0.66001,-0.59999 -1.26,-0.6 -0.18667,1e-5 -0.38001,0.0133 -0.58,0.04 -0.2,0.0133 -0.39334,0.0333 -0.58,0.06 l 0,8.12 -2.98,0 0,-10.16 c 0.25333,-0.0666 0.54666,-0.13332 0.88,-0.2 0.34666,-0.08 0.70666,-0.14665 1.08,-0.2 0.38666,-0.0666 0.78,-0.11332 1.18,-0.14 0.4,-0.04 0.79333,-0.06 1.18,-0.06 0.75999,10e-6 1.37333,0.10001 1.84,0.3 0.47999,0.18668 0.87332,0.41335 1.18,0.68 0.42666,-0.30665 0.91332,-0.54665 1.46,-0.72 0.55999,-0.17332 1.07332,-0.25999 1.54,-0.26 0.83999,10e-6 1.52665,0.12001 2.06,0.36 0.54665,0.22668 0.97999,0.55335 1.3,0.98 0.31998,0.42668 0.53998,0.93334 0.66,1.52 0.11998,0.58668 0.17998,1.24001 0.18,1.96 l 0,5.94 -2.98,0 0,-5.58 c -1e-5,-0.95999 -0.12668,-1.63999 -0.38,-2.04 -0.24001,-0.39999 -0.66001,-0.59999 -1.26,-0.6 -0.16001,1e-5 -0.38668,0.04 -0.68,0.12 -0.28001,0.08 -0.51334,0.18001 -0.7,0.3 0.0933,0.30668 0.15332,0.63334 0.18,0.98 0.0267,0.33334 0.04,0.69334 0.04,1.08 l 0,5.74 -2.98,0 0,-5.58"
           inkscape:connector-curvature="0" />
        <path
           id="path10550"
           style="font-weight:bold;text-align:center;text-anchor:middle;-inkscape-font-specification:Ubuntu Bold"
           d="m 664.24156,484.56725 c -1e-5,-0.91999 -0.20667,-1.65332 -0.62,-2.2 -0.41334,-0.55999 -1.02667,-0.83999 -1.84,-0.84 -0.26667,1e-5 -0.51334,0.0133 -0.74,0.04 -0.22667,0.0133 -0.41334,0.0333 -0.56,0.06 l 0,5.38 c 0.18666,0.12001 0.42666,0.22001 0.72,0.3 0.30666,0.08 0.61333,0.12001 0.92,0.12 1.41333,10e-6 2.11999,-0.95333 2.12,-2.86 m 3.04,-0.08 c -10e-6,0.81334 -0.10001,1.55334 -0.3,2.22 -0.20001,0.66667 -0.49334,1.24 -0.88,1.72 -0.38667,0.48 -0.86667,0.85334 -1.44,1.12 -0.57334,0.26667 -1.23334,0.4 -1.98,0.4 -0.41334,0 -0.8,-0.04 -1.16,-0.12 -0.36,-0.08 -0.70667,-0.19333 -1.04,-0.34 l 0,3.96 -2.98,0 0,-13.86 c 0.26667,-0.08 0.57333,-0.15332 0.92,-0.22 0.34667,-0.08 0.70667,-0.14665 1.08,-0.2 0.38667,-0.0533 0.77333,-0.0933 1.16,-0.12 0.4,-0.04 0.78,-0.06 1.14,-0.06 0.86666,10e-6 1.64,0.13335 2.32,0.4 0.67999,0.25335 1.25333,0.62001 1.72,1.1 0.46666,0.46668 0.81999,1.04001 1.06,1.72 0.25332,0.68001 0.37999,1.44001 0.38,2.28"
           inkscape:connector-curvature="0" />
        <path
           id="path10552"
           style="font-weight:bold;text-align:center;text-anchor:middle;-inkscape-font-specification:Ubuntu Bold"
           d="m 672.55187,489.74725 -2.98,0 0,-10.52 2.98,0 0,10.52 m 0.28,-13.56 c 0,0.54668 -0.18,0.98002 -0.54,1.3 -0.34667,0.30668 -0.76,0.46001 -1.24,0.46 -0.48,1e-5 -0.9,-0.15332 -1.26,-0.46 -0.34666,-0.31998 -0.52,-0.75332 -0.51999,-1.3 -10e-6,-0.54665 0.17333,-0.97332 0.51999,-1.28 0.36,-0.31998 0.78,-0.47998 1.26,-0.48 0.48,2e-5 0.89333,0.16002 1.24,0.48 0.36,0.30668 0.54,0.73335 0.54,1.28"
           inkscape:connector-curvature="0" />
        <path
           id="path10554"
           style="font-weight:bold;text-align:center;text-anchor:middle;-inkscape-font-specification:Ubuntu Bold"
           d="m 674.85312,484.56725 c 0,-0.93332 0.14,-1.74666 0.42001,-2.44 0.29333,-0.70666 0.67333,-1.29332 1.14,-1.76 0.46666,-0.46665 0.99999,-0.81999 1.59999,-1.06 0.61333,-0.23999 1.24,-0.35999 1.88001,-0.36 1.49332,1e-5 2.67332,0.46001 3.54,1.38 0.86665,0.90668 1.29998,2.24668 1.29999,4.02 -10e-6,0.17334 -0.007,0.36667 -0.02,0.58 -0.0133,0.20001 -0.0267,0.38001 -0.04,0.54 l -6.76,0 c 0.0667,0.61334 0.35332,1.10001 0.86,1.46 0.50666,0.36001 1.18666,0.54001 2.04,0.54 0.54665,1e-5 1.07999,-0.0467 1.6,-0.14 0.53332,-0.10666 0.96665,-0.23333 1.29999,-0.38 l 0.4,2.42 c -0.16,0.08 -0.37334,0.16 -0.64,0.24 -0.26667,0.08 -0.56667,0.14667 -0.9,0.2 -0.32,0.0667 -0.66667,0.12 -1.03999,0.16 -0.37335,0.04 -0.74668,0.06 -1.12,0.06 -0.94668,0 -1.77334,-0.14 -2.48,-0.42 -0.69334,-0.28 -1.27334,-0.66 -1.74001,-1.14 -0.45333,-0.49333 -0.79333,-1.07333 -1.01999,-1.74 -0.21334,-0.66666 -0.32001,-1.38666 -0.32001,-2.16 m 7,-1.14 c -0.0133,-0.25332 -0.06,-0.49999 -0.14,-0.74 -0.0667,-0.23999 -0.18,-0.45332 -0.34,-0.64 -0.14667,-0.18666 -0.34,-0.33999 -0.57999,-0.46 -0.22668,-0.11999 -0.51334,-0.17999 -0.86,-0.18 -0.33334,1e-5 -0.62001,0.06 -0.86001,0.18 -0.24,0.10668 -0.44,0.25334 -0.6,0.44 -0.16,0.18668 -0.28667,0.40668 -0.38,0.66 -0.08,0.24001 -0.14,0.48668 -0.17999,0.74 l 3.93999,0"
           inkscape:connector-curvature="0" />
        <path
           id="path10556"
           style="font-weight:bold;text-align:center;text-anchor:middle;-inkscape-font-specification:Ubuntu Bold"
           d="m 694.93281,481.22725 c -0.24001,0.26668 -0.56667,0.62668 -0.98,1.08 -0.40001,0.45334 -0.83334,0.95334 -1.3,1.5 -0.46667,0.54668 -0.94,1.12001 -1.42,1.72 -0.46667,0.60001 -0.89334,1.18001 -1.28,1.74 l 5.08,0 0,2.48 -8.7,0 0,-1.76 c 0.28,-0.47999 0.61333,-0.99333 1,-1.54 0.4,-0.55999 0.81333,-1.11999 1.24,-1.68 0.44,-0.55999 0.87333,-1.09999 1.3,-1.62 0.42666,-0.53332 0.82,-1.01332 1.18,-1.44 l -4.48,0 0,-2.48 8.36,0 0,2"
           inkscape:connector-curvature="0" />
        <path
           id="path10558"
           style="font-weight:bold;text-align:center;text-anchor:middle;-inkscape-font-specification:Ubuntu Bold"
           d="m 700.74031,487.66725 c 0.29333,10e-6 0.57333,-0.007 0.84,-0.02 0.26666,-0.0133 0.48,-0.0333 0.64,-0.06 l 0,-2.26 c -0.12,-0.0267 -0.3,-0.0533 -0.54,-0.08 -0.24,-0.0267 -0.46,-0.04 -0.66,-0.04 -0.28,1e-5 -0.54667,0.02 -0.8,0.06 -0.24,0.0267 -0.45334,0.0867 -0.64,0.18 -0.18667,0.0933 -0.33333,0.22001 -0.44,0.38 -0.10667,0.16001 -0.16,0.36001 -0.16,0.6 0,0.46667 0.15333,0.79334 0.46,0.98 0.32,0.17334 0.75333,0.26001 1.3,0.26 m -0.24,-8.72 c 0.88,1e-5 1.61333,0.10001 2.2,0.3 0.58666,0.20001 1.05333,0.48668 1.4,0.86 0.35999,0.37335 0.61333,0.82668 0.76,1.36 0.14666,0.53334 0.21999,1.12668 0.22,1.78 l 0,6.2 c -0.42667,0.0933 -1.02001,0.2 -1.78,0.32 -0.76,0.13334 -1.68,0.2 -2.76,0.2 -0.68,0 -1.3,-0.06 -1.86,-0.18 -0.54667,-0.12 -1.02,-0.31333 -1.42,-0.58 -0.4,-0.28 -0.70667,-0.64 -0.92,-1.08 -0.21333,-0.43999 -0.32,-0.97999 -0.32,-1.62 0,-0.61333 0.12,-1.13333 0.36,-1.56 0.25333,-0.42666 0.58667,-0.76666 1,-1.02 0.41333,-0.25332 0.88667,-0.43332 1.42,-0.54 0.53333,-0.11999 1.08666,-0.17999 1.66,-0.18 0.38666,1e-5 0.72666,0.02 1.02,0.06 0.30666,0.0267 0.55333,0.0667 0.74,0.12 l 0,-0.28 c 0,-0.50666 -0.15334,-0.91332 -0.46,-1.22 -0.30667,-0.30666 -0.84,-0.45999 -1.6,-0.46 -0.50667,10e-6 -1.00667,0.04 -1.5,0.12 -0.49333,0.0667 -0.92,0.16668 -1.28,0.3 l -0.38,-2.4 c 0.17333,-0.0533 0.38667,-0.10665 0.64,-0.16 0.26667,-0.0666 0.55333,-0.11999 0.86,-0.16 0.30667,-0.0533 0.62667,-0.0933 0.96,-0.12 0.34666,-0.04 0.69333,-0.06 1.04,-0.06"
           inkscape:connector-curvature="0" />
      </g>
    </g>
    <path
       style="fill:none;stroke:#000000;stroke-width:1px;stroke-linecap:butt;stroke-linejoin:miter;stroke-opacity:1"
       d="m 579.56362,433.42767 0,100.76688"
       id="path10811"
       inkscape:connector-curvature="0"
       sodipodi:nodetypes="cc" />
    <path
       inkscape:connector-curvature="0"
       id="path10813"
       d="m 573.56362,534.74892 0,100.76688"
       style="fill:none;stroke:#000000;stroke-width:1px;stroke-linecap:butt;stroke-linejoin:miter;stroke-opacity:1"
       sodipodi:nodetypes="cc" />
  </g>
</svg>
