<?xml version="1.0" encoding="UTF-8" standalone="no"?>
<!-- Created with Inkscape (http://www.inkscape.org/) -->

<svg
   xmlns:dc="http://purl.org/dc/elements/1.1/"
   xmlns:cc="http://creativecommons.org/ns#"
   xmlns:rdf="http://www.w3.org/1999/02/22-rdf-syntax-ns#"
   xmlns:svg="http://www.w3.org/2000/svg"
   xmlns="http://www.w3.org/2000/svg"
   xmlns:sodipodi="http://sodipodi.sourceforge.net/DTD/sodipodi-0.dtd"
   xmlns:inkscape="http://www.inkscape.org/namespaces/inkscape"
   width="481.92578"
   height="449.96008"
   id="svg2"
   version="1.1"
   inkscape:version="0.48.3.1 r9886"
   sodipodi:docname="resolucion_conf.svg">
  <sodipodi:namedview
     id="base"
     pagecolor="#ffffff"
     bordercolor="#666666"
     borderopacity="1.0"
     inkscape:pageopacity="0.0"
     inkscape:pageshadow="2"
     inkscape:zoom="1.114049"
     inkscape:cx="38.082471"
     inkscape:cy="94.336578"
     inkscape:document-units="px"
     inkscape:current-layer="layer1"
     showgrid="false"
     showguides="true"
     inkscape:guide-bbox="true"
     inkscape:window-width="1916"
     inkscape:window-height="1041"
     inkscape:window-x="0"
     inkscape:window-y="18"
     inkscape:window-maximized="0"
     fit-margin-top="0"
     fit-margin-left="0"
     fit-margin-right="0"
     fit-margin-bottom="0" />
  <defs
     id="defs4">
    <marker
       style="overflow:visible"
       id="Arrow1Lend"
       refX="0"
       refY="0"
       orient="auto"
       inkscape:stockid="Arrow1Lend">
      <path
         transform="matrix(-0.8,0,0,-0.8,-10,0)"
         style="fill-rule:evenodd;stroke:#000000;stroke-width:1pt"
         d="M 0,0 5,-5 -12.5,0 5,5 0,0 z"
         id="path3794"
         inkscape:connector-curvature="0" />
    </marker>
    <marker
       style="overflow:visible"
       id="Arrow1Lstart"
       refX="0"
       refY="0"
       orient="auto"
       inkscape:stockid="Arrow1Lstart">
      <path
         transform="matrix(0.8,0,0,0.8,10,0)"
         style="fill-rule:evenodd;stroke:#000000;stroke-width:1pt"
         d="M 0,0 5,-5 -12.5,0 5,5 0,0 z"
         id="path3791"
         inkscape:connector-curvature="0" />
    </marker>
  </defs>
  <metadata
     id="metadata7">
    <rdf:RDF>
      <cc:Work
         rdf:about="">
        <dc:format>image/svg+xml</dc:format>
        <dc:type
           rdf:resource="http://purl.org/dc/dcmitype/StillImage" />
        <dc:title></dc:title>
      </cc:Work>
    </rdf:RDF>
  </metadata>
  <g
     id="layer1"
     inkscape:groupmode="layer"
     inkscape:label="Layer 1"
     transform="translate(-57.790218,-59.556003)">
    <rect
       y="91.399376"
       x="122.90471"
       height="177.72099"
       width="177.72099"
       id="rect2989"
       style="fill:#e9e9e9;fill-opacity:1;stroke:#000000;stroke-width:0.25;stroke-linecap:round;stroke-linejoin:miter;stroke-miterlimit:4;stroke-opacity:1;stroke-dasharray:none;stroke-dashoffset:0" />
    <rect
       style="fill:#e9e9e9;fill-opacity:1;stroke:#000000;stroke-width:0.25;stroke-linecap:round;stroke-linejoin:miter;stroke-miterlimit:4;stroke-opacity:1;stroke-dasharray:none;stroke-dashoffset:0"
       id="rect2991"
       width="177.72099"
       height="177.72099"
       x="302.1257"
       y="91.399376" />
    <rect
       style="fill:#e9e9e9;fill-opacity:1;stroke:#000000;stroke-width:0.25;stroke-linecap:round;stroke-linejoin:miter;stroke-miterlimit:4;stroke-opacity:1;stroke-dasharray:none;stroke-dashoffset:0"
       id="rect3761"
       width="177.72099"
       height="177.72099"
       x="122.90471"
       y="270.62036" />
    <rect
       y="270.62036"
       x="302.1257"
       height="177.72099"
       width="177.72099"
       id="rect3763"
       style="fill:#e9e9e9;fill-opacity:1;stroke:#000000;stroke-width:0.25;stroke-linecap:round;stroke-linejoin:miter;stroke-miterlimit:4;stroke-opacity:1;stroke-dasharray:none;stroke-dashoffset:0" />
    <path
       inkscape:connector-curvature="0"
       id="path3783"
       d="m 121.86583,486.19386 103.77055,0"
       style="fill:none;stroke:#000000;stroke-width:1;stroke-linecap:butt;stroke-linejoin:miter;stroke-miterlimit:4;stroke-opacity:1;stroke-dasharray:none;marker-start:url(#Arrow1Lstart)" />
    <path
       inkscape:connector-curvature="0"
       id="path3785"
       d="m 478.57725,486.19386 -103.42052,0"
       style="fill:none;stroke:#000000;stroke-width:1;stroke-linecap:butt;stroke-linejoin:miter;stroke-miterlimit:4;stroke-opacity:1;stroke-dasharray:none;marker-start:url(#Arrow1Lstart)" />
    <g
       id="flowRoot4413"
       style="font-size:20px;font-style:normal;font-variant:normal;font-weight:normal;font-stretch:normal;line-height:125%;letter-spacing:0px;word-spacing:0px;fill:#000000;fill-opacity:1;stroke:none;font-family:Ubuntu;-inkscape-font-specification:Ubuntu"
       transform="translate(14.948968,20.93786)">
      <path
         id="path5376"
         d="m 44.70125,465.236 c -3e-6,1.70667 0.246663,3.28667 0.74,4.74 0.493329,1.45334 1.219995,2.8 2.18,4.04 l -1.32,0.9 c -1.040004,-1.26667 -1.880003,-2.72 -2.52,-4.36 -0.626669,-1.65333 -0.940002,-3.42666 -0.94,-5.32 -2e-6,-1.89332 0.313331,-3.65999 0.94,-5.3 0.639997,-1.65332 1.479996,-3.11332 2.52,-4.38 l 1.32,0.9 c -0.960005,1.24002 -1.686671,2.58668 -2.18,4.04 -0.493337,1.45335 -0.740003,3.03334 -0.74,4.74"
         inkscape:connector-curvature="0" />
      <path
         id="path5378"
         d="m 53.225625,471.336 c -0.280005,0 -0.586672,-0.007 -0.92,-0.02 -0.320004,-0.0133 -0.646671,-0.0333 -0.98,-0.06 -0.320003,-0.0267 -0.640003,-0.06 -0.96,-0.1 -0.320002,-0.04 -0.613335,-0.0933 -0.88,-0.16 l 0,-13.44 c 0.266665,-0.0666 0.559998,-0.11998 0.88,-0.16 0.319997,-0.04 0.639997,-0.0733 0.96,-0.1 0.333329,-0.0267 0.659996,-0.0466 0.98,-0.06 0.319995,-0.0133 0.619995,-0.02 0.9,-0.02 0.799994,2e-5 1.54666,0.06 2.24,0.18 0.706658,0.12002 1.313324,0.32668 1.82,0.62 0.51999,0.28002 0.926656,0.65335 1.22,1.12 0.293322,0.46668 0.439989,1.04001 0.44,1.72 -1.1e-5,0.76001 -0.180011,1.38668 -0.54,1.88 -0.36001,0.48001 -0.84001,0.84001 -1.44,1.08 0.813323,0.24001 1.459989,0.62001 1.94,1.14 0.479988,0.52001 0.719988,1.25334 0.72,2.2 -1.2e-5,1.38667 -0.513345,2.43334 -1.54,3.14 -1.013343,0.69334 -2.626674,1.04 -4.84,1.04 m -1.82,-6.58 0,4.88 c 0.146663,0.0133 0.319996,0.0267 0.52,0.04 0.173329,0.0133 0.373329,0.0267 0.6,0.04 0.239995,0 0.513328,0 0.82,0 0.573327,0 1.113327,-0.0333 1.62,-0.1 0.519992,-0.08 0.973325,-0.21333 1.36,-0.4 0.386658,-0.18666 0.693324,-0.44666 0.92,-0.78 0.23999,-0.33333 0.35999,-0.75333 0.36,-1.26 -1e-5,-0.45333 -0.08668,-0.83333 -0.26,-1.14 -0.173343,-0.31999 -0.426676,-0.57332 -0.76,-0.76 -0.320009,-0.18666 -0.706675,-0.31999 -1.16,-0.4 -0.453341,-0.08 -0.960007,-0.11999 -1.52,-0.12 l -2.5,0 m 0,-1.56 2.04,0 c 0.479994,10e-6 0.933327,-0.0333 1.36,-0.1 0.426659,-0.0667 0.793325,-0.18666 1.1,-0.36 0.319992,-0.17332 0.566658,-0.39999 0.74,-0.68 0.186658,-0.27999 0.279991,-0.63332 0.28,-1.06 -9e-6,-0.39999 -0.09334,-0.73332 -0.28,-1 -0.186675,-0.27999 -0.446675,-0.49999 -0.78,-0.66 -0.320008,-0.17332 -0.700007,-0.29998 -1.14,-0.38 -0.440007,-0.08 -0.906673,-0.11998 -1.4,-0.12 -0.493338,2e-5 -0.880005,0.007 -1.16,0.02 -0.280004,0.0134 -0.533337,0.0333 -0.76,0.06 l 0,4.28"
         inkscape:connector-curvature="0" />
      <path
         id="path5380"
         d="m 65.737188,469.876 c 0.439994,0 0.82666,-0.007 1.159999,-0.02 0.346661,-0.0267 0.633327,-0.0667 0.86,-0.12 l 0,-3.1 c -0.13334,-0.0667 -0.35334,-0.11999 -0.659999,-0.16 -0.29334,-0.0533 -0.65334,-0.08 -1.08,-0.08 -0.280006,10e-6 -0.580005,0.02 -0.900001,0.06 -0.30667,0.04 -0.593337,0.12667 -0.86,0.26 -0.253336,0.12001 -0.466669,0.29334 -0.64,0.52 -0.173336,0.21334 -0.260002,0.50001 -0.259999,0.86 -3e-6,0.66667 0.21333,1.13334 0.64,1.4 0.426662,0.25334 1.006662,0.38 1.74,0.38 m -0.160001,-9.32 c 0.746661,1e-5 1.373327,0.10001 1.880001,0.3 0.519992,0.18668 0.933325,0.46001 1.239999,0.82 0.319992,0.34668 0.546659,0.76668 0.680001,1.26 0.133324,0.48001 0.199991,1.01334 0.2,1.6 l 0,6.5 c -0.160009,0.0267 -0.386676,0.0667 -0.680001,0.12 -0.280007,0.04 -0.600007,0.08 -0.96,0.12 -0.360006,0.04 -0.753339,0.0733 -1.18,0.1 -0.413339,0.04 -0.826671,0.06 -1.239999,0.06 -0.586671,0 -1.126671,-0.06 -1.620001,-0.18 -0.493336,-0.12 -0.920002,-0.30666 -1.28,-0.56 -0.360001,-0.26666 -0.640001,-0.61333 -0.84,-1.04 -0.2,-0.42666 -0.3,-0.93999 -0.3,-1.54 0,-0.57333 0.113333,-1.06666 0.340001,-1.48 0.239998,-0.41333 0.559998,-0.74666 0.959999,-1 0.399998,-0.25332 0.866664,-0.43999 1.400001,-0.56 0.533329,-0.11999 1.093328,-0.17999 1.679999,-0.18 0.186662,10e-6 0.379995,0.0133 0.58,0.04 0.199994,0.0133 0.386661,0.04 0.56,0.08 0.186661,0.0267 0.34666,0.0533 0.48,0.08 0.133327,0.0267 0.22666,0.0467 0.28,0.06 l 0,-0.52 c -7e-6,-0.30666 -0.03334,-0.60666 -0.1,-0.9 -0.06667,-0.30666 -0.186673,-0.57332 -0.359999,-0.8 -0.17334,-0.23999 -0.41334,-0.42665 -0.720001,-0.56 -0.293338,-0.14665 -0.680005,-0.21999 -1.16,-0.22 -0.613337,10e-6 -1.153336,0.0467 -1.62,0.14 -0.453336,0.08 -0.793335,0.16668 -1.02,0.26 l -0.22,-1.54 c 0.239998,-0.10665 0.639998,-0.20665 1.2,-0.3 0.559997,-0.10665 1.166663,-0.15999 1.82,-0.16"
         inkscape:connector-curvature="0" />
      <path
         id="path5382"
         d="m 70.946875,474.956 c -0.16,0 -0.366666,-0.02 -0.62,-0.06 -0.253332,-0.04 -0.466665,-0.0933 -0.64,-0.16 l 0.24,-1.52 c 0.133334,0.04 0.286668,0.0733 0.46,0.1 0.173334,0.0267 0.333334,0.04 0.48,0.04 0.64,0 1.093332,-0.2 1.36,-0.6 0.279999,-0.38666 0.419998,-0.96 0.42,-1.72 l 0,-10.22 1.86,0 0,10.2 c -3e-6,1.33334 -0.30667,2.32 -0.92,2.96 -0.600002,0.65333 -1.480001,0.98 -2.64,0.98 m 2.62,-16.02 c -0.333336,2e-5 -0.620002,-0.10665 -0.86,-0.32 -0.226668,-0.22665 -0.340001,-0.52665 -0.34,-0.9 -10e-7,-0.37332 0.113332,-0.66665 0.34,-0.88 0.239998,-0.22665 0.526664,-0.33998 0.86,-0.34 0.33333,2e-5 0.61333,0.11335 0.84,0.34 0.239996,0.21335 0.359996,0.50668 0.36,0.88 -4e-6,0.37335 -0.120004,0.67335 -0.36,0.9 -0.22667,0.21335 -0.50667,0.32002 -0.84,0.32"
         inkscape:connector-curvature="0" />
      <path
         id="path5384"
         d="m 86.905,466.016 c -1.1e-5,0.82667 -0.120011,1.57334 -0.36,2.24 -0.24001,0.66667 -0.58001,1.24 -1.02,1.72 -0.426676,0.48 -0.940008,0.85334 -1.54,1.12 -0.600007,0.25334 -1.25334,0.38 -1.96,0.38 -0.706672,0 -1.360005,-0.12666 -1.96,-0.38 -0.600003,-0.26666 -1.120003,-0.64 -1.56,-1.12 -0.426669,-0.48 -0.760002,-1.05333 -1,-1.72 -0.240001,-0.66666 -0.360001,-1.41333 -0.36,-2.24 -10e-7,-0.81332 0.119999,-1.55332 0.36,-2.22 0.239998,-0.67999 0.573331,-1.25999 1,-1.74 0.439997,-0.47999 0.959997,-0.84665 1.56,-1.1 0.599995,-0.26665 1.253328,-0.39999 1.96,-0.4 0.70666,1e-5 1.359993,0.13335 1.96,0.4 0.599992,0.25335 1.113324,0.62001 1.54,1.1 0.43999,0.48001 0.77999,1.06001 1.02,1.74 0.239989,0.66668 0.359989,1.40668 0.36,2.22 m -1.94,0 c -9e-6,-1.17332 -0.266675,-2.09999 -0.8,-2.78 -0.520008,-0.69332 -1.23334,-1.03999 -2.14,-1.04 -0.906672,10e-6 -1.626671,0.34668 -2.16,1.04 -0.520003,0.68001 -0.780003,1.60668 -0.78,2.78 -3e-6,1.17334 0.259997,2.10667 0.78,2.8 0.533329,0.68 1.253328,1.02 2.16,1.02 0.90666,0 1.619992,-0.34 2.14,-1.02 0.533325,-0.69333 0.799991,-1.62666 0.8,-2.8"
         inkscape:connector-curvature="0" />
      <path
         id="path5386"
         d="m 90.435,465.236 c -3e-6,-1.70666 -0.246669,-3.28665 -0.74,-4.74 -0.493335,-1.45332 -1.220001,-2.79998 -2.18,-4.04 l 1.32,-0.9 c 1.039998,1.26668 1.87333,2.72668 2.5,4.38 0.639995,1.64001 0.959995,3.40668 0.96,5.3 -5e-6,1.89334 -0.320005,3.66667 -0.96,5.32 -0.62667,1.64 -1.460002,3.09333 -2.5,4.36 l -1.32,-0.9 c 0.959999,-1.24 1.686665,-2.58666 2.18,-4.04 0.493331,-1.45333 0.739997,-3.03333 0.74,-4.74"
         inkscape:connector-curvature="0" />
    </g>
    <g
       id="flowRoot4421"
       style="font-size:20px;font-style:normal;font-variant:normal;font-weight:normal;font-stretch:normal;line-height:125%;letter-spacing:0px;word-spacing:0px;fill:#000000;fill-opacity:1;stroke:none;font-family:Ubuntu;-inkscape-font-specification:Ubuntu"
       transform="translate(0.605218,-6)">
      <path
         id="path5438"
         d="m 59.9825,75.236003 c -3e-6,1.706671 0.246663,3.286669 0.74,4.74 0.493329,1.453333 1.219995,2.799998 2.18,4.04 l -1.32,0.9 c -1.040004,-1.266669 -1.880003,-2.720001 -2.52,-4.36 -0.626669,-1.653331 -0.940002,-3.426663 -0.94,-5.32 -2e-6,-1.893325 0.313331,-3.65999 0.94,-5.3 0.639997,-1.65332 1.479996,-3.113319 2.52,-4.38 l 1.32,0.9 c -0.960005,1.240014 -1.686671,2.586679 -2.18,4.04 -0.493337,1.453343 -0.740003,3.033341 -0.74,4.74"
         inkscape:connector-curvature="0" />
      <path
         id="path5440"
         d="m 74.026875,81.216003 c -0.226677,-0.599999 -0.440011,-1.186665 -0.64,-1.76 -0.20001,-0.586664 -0.406677,-1.179997 -0.62,-1.78 l -6.28,0 -1.26,3.54 -2.02,0 c 0.533333,-1.466665 1.033332,-2.819997 1.5,-4.06 0.466665,-1.253328 0.919997,-2.439993 1.36,-3.56 0.45333,-1.119991 0.899996,-2.186657 1.34,-3.2 0.439995,-1.026655 0.899995,-2.039987 1.38,-3.04 l 1.78,0 c 0.479992,1.000013 0.939992,2.013345 1.38,3.04 0.439991,1.013343 0.87999,2.080009 1.32,3.2 0.453323,1.120007 0.913322,2.306672 1.38,3.56 0.466655,1.240003 0.966654,2.593335 1.5,4.06 l -2.12,0 m -1.82,-5.14 c -0.426675,-1.159994 -0.853342,-2.279993 -1.28,-3.36 -0.413341,-1.093324 -0.846674,-2.139989 -1.3,-3.14 -0.466673,1.000011 -0.913339,2.046676 -1.34,3.14 -0.413338,1.080007 -0.826671,2.200006 -1.24,3.36 l 5.16,0"
         inkscape:connector-curvature="0" />
      <path
         id="path5442"
         d="m 81.009062,81.416003 c -1.14667,-0.02667 -1.960002,-0.273333 -2.44,-0.74 -0.480001,-0.466666 -0.720001,-1.193332 -0.719999,-2.18 l 0,-12.48 1.86,-0.32 0,12.5 c -4e-6,0.306669 0.02666,0.560003 0.08,0.76 0.05333,0.200002 0.139997,0.360002 0.260001,0.48 0.119996,0.120002 0.279995,0.213335 0.479999,0.28 0.199996,0.05334 0.446662,0.100001 0.740001,0.14 l -0.260001,1.56"
         inkscape:connector-curvature="0" />
      <path
         id="path5444"
         d="m 85.097813,70.816003 3.939999,0 0,1.56 -3.939999,0 0,4.8 c -4e-6,0.520004 0.04,0.953336 0.119999,1.3 0.08,0.333336 0.199997,0.600002 0.36,0.8 0.159997,0.186668 0.359996,0.320002 0.600001,0.4 0.239995,0.08 0.519995,0.120001 0.84,0.12 0.559994,10e-7 1.00666,-0.06 1.339999,-0.18 0.34666,-0.133332 0.58666,-0.226665 0.72,-0.28 l 0.360001,1.54 c -0.186675,0.09333 -0.513341,0.206667 -0.98,0.34 -0.466673,0.146667 -1.000006,0.22 -1.600001,0.22 -0.706671,0 -1.293337,-0.08667 -1.759999,-0.26 -0.453337,-0.186666 -0.820003,-0.459999 -1.100001,-0.82 -0.280001,-0.359999 -0.480001,-0.799998 -0.6,-1.32 -0.106668,-0.533331 -0.160001,-1.146663 -0.159999,-1.84 l 0,-9.28 1.86,-0.32 0,3.22"
         inkscape:connector-curvature="0" />
      <path
         id="path5446"
         d="m 100.31125,76.016003 c -1e-5,0.826671 -0.12001,1.573337 -0.36,2.24 -0.24001,0.666669 -0.58001,1.240002 -1.02,1.72 -0.426676,0.480001 -0.940008,0.853334 -1.54,1.12 -0.600007,0.253333 -1.25334,0.38 -1.96,0.38 -0.706672,0 -1.360005,-0.126667 -1.96,-0.38 -0.600003,-0.266666 -1.120003,-0.639999 -1.56,-1.12 -0.426669,-0.479998 -0.760002,-1.053331 -1,-1.72 -0.240001,-0.666663 -0.360001,-1.413329 -0.36,-2.24 -10e-7,-0.813327 0.119999,-1.553327 0.36,-2.22 0.239998,-0.679992 0.573331,-1.259991 1,-1.74 0.439997,-0.47999 0.959997,-0.846657 1.56,-1.1 0.599995,-0.266656 1.253328,-0.399989 1.96,-0.4 0.70666,1.1e-5 1.359993,0.133344 1.96,0.4 0.599992,0.253343 1.113324,0.62001 1.54,1.1 0.43999,0.480009 0.77999,1.060008 1.02,1.74 0.23999,0.666673 0.35999,1.406673 0.36,2.22 m -1.94,0 c -9e-6,-1.173327 -0.266675,-2.099993 -0.8,-2.78 -0.520008,-0.693325 -1.23334,-1.039991 -2.14,-1.04 -0.906672,9e-6 -1.626671,0.346675 -2.16,1.04 -0.520003,0.680007 -0.780003,1.606673 -0.78,2.78 -3e-6,1.173337 0.259997,2.10667 0.78,2.8 0.533329,0.680002 1.253328,1.020001 2.16,1.02 0.90666,10e-7 1.619992,-0.339998 2.14,-1.02 0.533325,-0.69333 0.799991,-1.626663 0.8,-2.8"
         inkscape:connector-curvature="0" />
      <path
         id="path5448"
         d="m 103.84125,75.236003 c 0,-1.706659 -0.24667,-3.286657 -0.74,-4.74 -0.49334,-1.453321 -1.22,-2.799986 -2.18,-4.04 l 1.32,-0.9 c 1.04,1.266681 1.87333,2.72668 2.5,4.38 0.64,1.64001 0.96,3.406675 0.96,5.3 0,1.893337 -0.32,3.666669 -0.96,5.32 -0.62667,1.639999 -1.46,3.093331 -2.5,4.36 l -1.32,-0.9 c 0.96,-1.240002 1.68666,-2.586667 2.18,-4.04 0.49333,-1.453331 0.74,-3.033329 0.74,-4.74"
         inkscape:connector-curvature="0" />
    </g>
    <g
       id="flowRoot4429"
       style="font-size:20px;font-style:normal;font-variant:normal;font-weight:normal;font-stretch:normal;line-height:125%;letter-spacing:0px;word-spacing:0px;fill:#000000;fill-opacity:1;stroke:none;font-family:Ubuntu;-inkscape-font-specification:Ubuntu"
       transform="translate(434.01475,410.95786)">
      <path
         id="path5260"
         d="m 59.9825,75.236003 c -3e-6,1.706671 0.246663,3.286669 0.74,4.74 0.493329,1.453333 1.219995,2.799998 2.18,4.04 l -1.32,0.9 c -1.040004,-1.266669 -1.880003,-2.720001 -2.52,-4.36 -0.626669,-1.653331 -0.940002,-3.426663 -0.94,-5.32 -2e-6,-1.893325 0.313331,-3.65999 0.94,-5.3 0.639997,-1.65332 1.479996,-3.113319 2.52,-4.38 l 1.32,0.9 c -0.960005,1.240014 -1.686671,2.586679 -2.18,4.04 -0.493337,1.453343 -0.740003,3.033341 -0.74,4.74"
         inkscape:connector-curvature="0" />
      <path
         id="path5262"
         d="m 74.026875,81.216003 c -0.226677,-0.599999 -0.440011,-1.186665 -0.64,-1.76 -0.20001,-0.586664 -0.406677,-1.179997 -0.62,-1.78 l -6.28,0 -1.26,3.54 -2.02,0 c 0.533333,-1.466665 1.033332,-2.819997 1.5,-4.06 0.466665,-1.253328 0.919997,-2.439993 1.36,-3.56 0.45333,-1.119991 0.899996,-2.186657 1.34,-3.2 0.439995,-1.026655 0.899995,-2.039987 1.38,-3.04 l 1.78,0 c 0.479992,1.000013 0.939992,2.013345 1.38,3.04 0.439991,1.013343 0.87999,2.080009 1.32,3.2 0.453323,1.120007 0.913322,2.306672 1.38,3.56 0.466655,1.240003 0.966654,2.593335 1.5,4.06 l -2.12,0 m -1.82,-5.14 c -0.426675,-1.159994 -0.853342,-2.279993 -1.28,-3.36 -0.413341,-1.093324 -0.846674,-2.139989 -1.3,-3.14 -0.466673,1.000011 -0.913339,2.046676 -1.34,3.14 -0.413338,1.080007 -0.826671,2.200006 -1.24,3.36 l 5.16,0"
         inkscape:connector-curvature="0" />
      <path
         id="path5264"
         d="m 81.009062,81.416003 c -1.14667,-0.02667 -1.960002,-0.273333 -2.44,-0.74 -0.480001,-0.466666 -0.720001,-1.193332 -0.719999,-2.18 l 0,-12.48 1.86,-0.32 0,12.5 c -4e-6,0.306669 0.02666,0.560003 0.08,0.76 0.05333,0.200002 0.139997,0.360002 0.260001,0.48 0.119996,0.120002 0.279995,0.213335 0.479999,0.28 0.199996,0.05334 0.446662,0.100001 0.740001,0.14 l -0.260001,1.56"
         inkscape:connector-curvature="0" />
      <path
         id="path5266"
         d="m 85.097813,70.816003 3.939999,0 0,1.56 -3.939999,0 0,4.8 c -4e-6,0.520004 0.04,0.953336 0.119999,1.3 0.08,0.333336 0.199997,0.600002 0.36,0.8 0.159997,0.186668 0.359996,0.320002 0.600001,0.4 0.239995,0.08 0.519995,0.120001 0.84,0.12 0.559994,10e-7 1.00666,-0.06 1.339999,-0.18 0.34666,-0.133332 0.58666,-0.226665 0.72,-0.28 l 0.360001,1.54 c -0.186675,0.09333 -0.513341,0.206667 -0.98,0.34 -0.466673,0.146667 -1.000006,0.22 -1.600001,0.22 -0.706671,0 -1.293337,-0.08667 -1.759999,-0.26 -0.453337,-0.186666 -0.820003,-0.459999 -1.100001,-0.82 -0.280001,-0.359999 -0.480001,-0.799998 -0.6,-1.32 -0.106668,-0.533331 -0.160001,-1.146663 -0.159999,-1.84 l 0,-9.28 1.86,-0.32 0,3.22"
         inkscape:connector-curvature="0" />
      <path
         id="path5268"
         d="m 100.31125,76.016003 c -1e-5,0.826671 -0.12001,1.573337 -0.36,2.24 -0.24001,0.666669 -0.58001,1.240002 -1.02,1.72 -0.426676,0.480001 -0.940008,0.853334 -1.54,1.12 -0.600007,0.253333 -1.25334,0.38 -1.96,0.38 -0.706672,0 -1.360005,-0.126667 -1.96,-0.38 -0.600003,-0.266666 -1.120003,-0.639999 -1.56,-1.12 -0.426669,-0.479998 -0.760002,-1.053331 -1,-1.72 -0.240001,-0.666663 -0.360001,-1.413329 -0.36,-2.24 -10e-7,-0.813327 0.119999,-1.553327 0.36,-2.22 0.239998,-0.679992 0.573331,-1.259991 1,-1.74 0.439997,-0.47999 0.959997,-0.846657 1.56,-1.1 0.599995,-0.266656 1.253328,-0.399989 1.96,-0.4 0.70666,1.1e-5 1.359993,0.133344 1.96,0.4 0.599992,0.253343 1.113324,0.62001 1.54,1.1 0.43999,0.480009 0.77999,1.060008 1.02,1.74 0.23999,0.666673 0.35999,1.406673 0.36,2.22 m -1.94,0 c -9e-6,-1.173327 -0.266675,-2.099993 -0.8,-2.78 -0.520008,-0.693325 -1.23334,-1.039991 -2.14,-1.04 -0.906672,9e-6 -1.626671,0.346675 -2.16,1.04 -0.520003,0.680007 -0.780003,1.606673 -0.78,2.78 -3e-6,1.173337 0.259997,2.10667 0.78,2.8 0.533329,0.680002 1.253328,1.020001 2.16,1.02 0.90666,10e-7 1.619992,-0.339998 2.14,-1.02 0.533325,-0.69333 0.799991,-1.626663 0.8,-2.8"
         inkscape:connector-curvature="0" />
      <path
         id="path5270"
         d="m 103.84125,75.236003 c 0,-1.706659 -0.24667,-3.286657 -0.74,-4.74 -0.49334,-1.453321 -1.22,-2.799986 -2.18,-4.04 l 1.32,-0.9 c 1.04,1.266681 1.87333,2.72668 2.5,4.38 0.64,1.64001 0.96,3.406675 0.96,5.3 0,1.893337 -0.32,3.666669 -0.96,5.32 -0.62667,1.639999 -1.46,3.093331 -2.5,4.36 l -1.32,-0.9 c 0.96,-1.240002 1.68666,-2.586667 2.18,-4.04 0.49333,-1.453331 0.74,-3.033329 0.74,-4.74"
         inkscape:connector-curvature="0" />
    </g>
    <path
       style="fill:none;stroke:#000000;stroke-width:1;stroke-linecap:butt;stroke-linejoin:miter;stroke-miterlimit:4;stroke-opacity:1;stroke-dasharray:none;marker-start:url(#Arrow1Lstart)"
       d="m 82.517093,462.84723 0,-81.57669"
       id="path4445"
       inkscape:connector-curvature="0" />
    <path
       style="fill:none;stroke:#000000;stroke-width:1;stroke-linecap:butt;stroke-linejoin:miter;stroke-miterlimit:4;stroke-opacity:1;stroke-dasharray:none;marker-start:url(#Arrow1Lstart)"
       d="m 82.517093,91.149376 0,68.931124"
       id="path4447"
       inkscape:connector-curvature="0" />
    <g
       transform="translate(66.872421,65.556003)"
       style="font-size:22px;font-style:normal;font-variant:normal;font-weight:bold;font-stretch:normal;text-align:center;line-height:125%;letter-spacing:0px;word-spacing:0px;text-anchor:middle;fill:#000000;fill-opacity:1;stroke:none;font-family:Nimbus Sans L;-inkscape-font-specification:Sans Bold"
       id="flowRoot3448">
      <path
         d="m 164.70748,396.02207 -3.3,0 0,16.038 3.3,0 0,-16.038"
         style=""
         id="path4314" />
      <path
         d="m 167.50905,400.18007 0,11.88 3.08,0 0,-7.128 c 0,-1.408 0.99,-2.332 2.486,-2.332 1.32,0 1.98,0.726 1.98,2.134 l 0,7.326 3.08,0 0,-7.964 c 0,-2.618 -1.45201,-4.114 -3.982,-4.114 -1.606,0 -2.684,0.594 -3.564,1.914 l 0,-1.716 -3.08,0"
         style=""
         id="path4316" />
      <path
         d="m 186.19427,400.42207 -1.716,0 0,-3.19 -3.08,0 0,3.19 -1.518,0 0,2.046 1.518,0 0,7.304 c 0,1.87 0.99,2.794 3.014,2.794 0.68199,0 1.232,-0.066 1.782,-0.242 l 0,-2.156 c -0.308,0.044 -0.484,0.066 -0.704,0.066 -0.814,0 -1.012,-0.242 -1.012,-1.298 l 0,-6.468 1.716,0 0,-2.046"
         style=""
         id="path4318" />
      <path
         d="m 198.44792,407.08807 c 0.022,-0.264 0.022,-0.374 0.022,-0.528 0,-1.188 -0.176,-2.288 -0.462,-3.124 -0.792,-2.156 -2.706,-3.454 -5.104,-3.454 -3.40999,0 -5.5,2.464 -5.5,6.446 0,3.806 2.06801,6.138 5.434,6.138 2.662,0 4.818,-1.518 5.5,-3.85 l -3.036,0 c -0.374,0.946 -1.232,1.496 -2.354,1.496 -0.88,0 -1.584,-0.374 -2.024,-1.034 -0.286,-0.44 -0.396,-0.968 -0.44,-2.09 l 7.964,0 m -7.92,-2.046 c 0.198,-1.804 0.968,-2.706 2.332,-2.706 0.77,0 1.474,0.374 1.914,0.99 0.286,0.44 0.418,0.902 0.484,1.716 l -4.73,0"
         style=""
         id="path4320" />
      <path
         d="m 200.55202,400.18007 0,11.88 3.08,0 0,-6.314 c 0,-1.804 0.902,-2.706 2.706,-2.706 0.33,0 0.55,0.022 0.968,0.088 l 0,-3.124 c -0.176,-0.022 -0.286,-0.022 -0.374,-0.022 -1.408,0 -2.64001,0.924 -3.3,2.53 l 0,-2.332 -3.08,0"
         style=""
         id="path4322" />
      <path
         d="m 219.2448,407.08807 c 0.022,-0.264 0.022,-0.374 0.022,-0.528 0,-1.188 -0.176,-2.288 -0.462,-3.124 -0.792,-2.156 -2.70601,-3.454 -5.104,-3.454 -3.41,0 -5.5,2.464 -5.5,6.446 0,3.806 2.068,6.138 5.434,6.138 2.66199,0 4.818,-1.518 5.5,-3.85 l -3.036,0 c -0.374,0.946 -1.232,1.496 -2.354,1.496 -0.88,0 -1.584,-0.374 -2.024,-1.034 -0.286,-0.44 -0.396,-0.968 -0.44,-2.09 l 7.964,0 m -7.92,-2.046 c 0.198,-1.804 0.968,-2.706 2.332,-2.706 0.77,0 1.474,0.374 1.914,0.99 0.286,0.44 0.418,0.902 0.484,1.716 l -4.73,0 m 5.61,-9.636 -2.772,0 -1.54,3.3 1.54,0 2.772,-3.3"
         style=""
         id="path4324" />
      <path
         d="m 231.07289,404.00807 c -0.044,-2.508 -1.98,-4.026 -5.17,-4.026 -3.014,0 -4.884,1.518 -4.884,3.96 0,0.792 0.242,1.474 0.66,1.936 0.418,0.418 0.792,0.616 1.936,0.99 l 3.674,1.144 c 0.77,0.242 1.034,0.484 1.034,0.968 0,0.726 -0.858,1.166 -2.288,1.166 -0.792,0 -1.43,-0.154 -1.826,-0.418 -0.33,-0.242 -0.462,-0.484 -0.594,-1.122 l -3.014,0 c 0.088,2.596 2.002,3.96 5.61,3.96 1.65,0 2.904,-0.352 3.784,-1.056 0.88,-0.704 1.408,-1.804 1.408,-2.97 0,-1.54 -0.77,-2.53 -2.332,-2.992 l -3.894,-1.122 c -0.858,-0.264 -1.078,-0.44 -1.078,-0.924 0,-0.66 0.704,-1.1 1.782,-1.1 1.474,0 2.2,0.528 2.222,1.606 l 2.97,0"
         style=""
         id="path4326" />
      <path
         d="m 242.66655,400.18007 -3.08,0 0,16.676 3.08,0 0,-6.204 c 0.748,1.32 1.804,1.936 3.3,1.936 2.85999,0 4.972,-2.684 4.972,-6.292 0,-1.672 -0.484,-3.344 -1.276,-4.444 -0.792,-1.122 -2.266,-1.87 -3.696,-1.87 -1.496,0 -2.552,0.638 -3.3,1.958 l 0,-1.76 m 2.596,2.376 c 1.562,0 2.596,1.518 2.596,3.784 0,2.156 -1.078,3.674 -2.596,3.674 -1.54,0 -2.596,-1.496 -2.596,-3.718 0,-2.222 1.056,-3.74 2.596,-3.74"
         style=""
         id="path4328" />
      <path
         d="m 253.14577,400.18007 0,11.88 3.08,0 0,-6.314 c 0,-1.804 0.902,-2.706 2.706,-2.706 0.33,0 0.55,0.022 0.968,0.088 l 0,-3.124 c -0.176,-0.022 -0.286,-0.022 -0.374,-0.022 -1.408,0 -2.64001,0.924 -3.3,2.53 l 0,-2.332 -3.08,0"
         style=""
         id="path4330" />
      <path
         d="m 266.93255,399.98207 c -3.63,0 -5.852,2.398 -5.852,6.292 0,3.916 2.222,6.292 5.874,6.292 3.60799,0 5.874,-2.398 5.874,-6.204 0,-4.026 -2.17801,-6.38 -5.896,-6.38 m 0.022,2.486 c 1.694,0 2.794,1.518 2.794,3.85 0,2.222 -1.144,3.762 -2.794,3.762 -1.672,0 -2.794,-1.54 -2.794,-3.806 0,-2.266 1.122,-3.806 2.794,-3.806"
         style=""
         id="path4332" />
      <path
         d="m 278.11577,400.18007 -3.08,0 0,16.676 3.08,0 0,-6.204 c 0.74799,1.32 1.804,1.936 3.3,1.936 2.85999,0 4.972,-2.684 4.972,-6.292 0,-1.672 -0.48401,-3.344 -1.276,-4.444 -0.792,-1.122 -2.26601,-1.87 -3.696,-1.87 -1.496,0 -2.55201,0.638 -3.3,1.958 l 0,-1.76 m 2.596,2.376 c 1.56199,0 2.596,1.518 2.596,3.784 0,2.156 -1.07801,3.674 -2.596,3.674 -1.54,0 -2.596,-1.496 -2.596,-3.718 0,-2.222 1.056,-3.74 2.596,-3.74"
         style=""
         id="path4334" />
      <path
         d="m 291.76298,400.18007 -3.08,0 0,11.88 3.08,0 0,-11.88 m 0,-4.158 -3.08,0 0,2.75 3.08,0 0,-2.75"
         style=""
         id="path4336" />
      <path
         d="m 299.93255,399.98207 c -3.63,0 -5.852,2.398 -5.852,6.292 0,3.916 2.222,6.292 5.874,6.292 3.60799,0 5.874,-2.398 5.874,-6.204 0,-4.026 -2.17801,-6.38 -5.896,-6.38 m 0.022,2.486 c 1.694,0 2.794,1.518 2.794,3.85 0,2.222 -1.144,3.762 -2.794,3.762 -1.672,0 -2.794,-1.54 -2.794,-3.806 0,-2.266 1.122,-3.806 2.794,-3.806"
         style=""
         id="path4338" />
      <path
         d="m 170.56756,423.52207 c -2.52999,3.806 -3.586,6.842 -3.586,10.208 0,3.388 1.05601,6.424 3.586,10.23 l 2.2,0 c -2.332,-4.532 -3.08,-6.996 -3.08,-10.23 0,-3.212 0.748,-5.72 3.08,-10.208 l -2.2,0"
         style=""
         id="path4340" />
      <path
         d="m 184.47122,436.32607 1.056,3.234 3.388,0 -5.544,-16.038 -3.652,0 -5.698,16.038 3.366,0 1.078,-3.234 6.006,0 m -0.902,-2.75 -4.18,0 2.09,-6.27 2.09,6.27"
         style=""
         id="path4342" />
      <path
         d="m 200.45766,431.50807 c -0.044,-2.508 -1.98001,-4.026 -5.17,-4.026 -3.014,0 -4.884,1.518 -4.884,3.96 0,0.792 0.242,1.474 0.66,1.936 0.418,0.418 0.792,0.616 1.936,0.99 l 3.674,1.144 c 0.77,0.242 1.034,0.484 1.034,0.968 0,0.726 -0.85801,1.166 -2.288,1.166 -0.792,0 -1.43,-0.154 -1.826,-0.418 -0.33,-0.242 -0.462,-0.484 -0.594,-1.122 l -3.014,0 c 0.088,2.596 2.002,3.96 5.61,3.96 1.64999,0 2.904,-0.352 3.784,-1.056 0.88,-0.704 1.408,-1.804 1.408,-2.97 0,-1.54 -0.77001,-2.53 -2.332,-2.992 l -3.894,-1.122 c -0.858,-0.264 -1.078,-0.44 -1.078,-0.924 0,-0.66 0.704,-1.1 1.782,-1.1 1.47399,0 2.2,0.528 2.222,1.606 l 2.97,0"
         style=""
         id="path4344" />
      <path
         d="m 213.12175,434.58807 c 0.022,-0.264 0.022,-0.374 0.022,-0.528 0,-1.188 -0.176,-2.288 -0.462,-3.124 -0.792,-2.156 -2.706,-3.454 -5.104,-3.454 -3.41,0 -5.5,2.464 -5.5,6.446 0,3.806 2.068,6.138 5.434,6.138 2.662,0 4.818,-1.518 5.5,-3.85 l -3.036,0 c -0.374,0.946 -1.232,1.496 -2.354,1.496 -0.88,0 -1.584,-0.374 -2.024,-1.034 -0.286,-0.44 -0.396,-0.968 -0.44,-2.09 l 7.964,0 m -7.92,-2.046 c 0.198,-1.804 0.968,-2.706 2.332,-2.706 0.77,0 1.474,0.374 1.914,0.99 0.286,0.44 0.418,0.902 0.484,1.716 l -4.73,0"
         style=""
         id="path4346" />
      <path
         d="m 215.22584,427.68007 0,11.88 3.08,0 0,-6.314 c 0,-1.804 0.90201,-2.706 2.706,-2.706 0.33,0 0.55,0.022 0.968,0.088 l 0,-3.124 c -0.176,-0.022 -0.286,-0.022 -0.374,-0.022 -1.40799,0 -2.64,0.924 -3.3,2.53 l 0,-2.332 -3.08,0"
         style=""
         id="path4348" />
      <path
         d="m 229.01263,427.92207 -1.71601,0 0,-3.19 -3.08,0 0,3.19 -1.518,0 0,2.046 1.518,0 0,7.304 c 0,1.87 0.99001,2.794 3.014,2.794 0.682,0 1.23201,-0.066 1.78201,-0.242 l 0,-2.156 c -0.308,0.044 -0.48401,0.066 -0.70401,0.066 -0.81399,0 -1.012,-0.242 -1.012,-1.298 l 0,-6.468 1.71601,0 0,-2.046"
         style=""
         id="path4350" />
      <path
         d="m 234.29228,427.68007 -3.08,0 0,11.88 3.08,0 0,-11.88 m 0,-4.158 -3.08,0 0,2.75 3.08,0 0,-2.75"
         style=""
         id="path4352" />
      <path
         d="m 243.53984,439.56007 4.092,-11.88 -3.256,0 -2.398,8.69 -2.574,-8.69 -3.256,0 4.158,11.88 3.234,0"
         style=""
         id="path4354" />
      <path
         d="m 252.63994,427.68007 -3.08,0 0,11.88 3.08,0 0,-11.88 m 0,-4.158 -3.08,0 0,2.75 3.08,0 0,-2.75"
         style=""
         id="path4356" />
      <path
         d="m 263.0975,439.56007 3.08,0 0,-16.038 -3.08,0 0,5.698 c -0.77,-1.188 -1.804,-1.738 -3.278,-1.738 -2.838,0 -4.994,2.728 -4.994,6.314 0,1.606 0.484,3.234 1.276,4.378 0.814,1.144 2.266,1.892 3.718,1.892 1.474,0 2.508,-0.55 3.278,-1.716 l 0,1.21 m -2.596,-9.504 c 1.562,0 2.596,1.518 2.596,3.784 0,2.156 -1.056,3.652 -2.596,3.652 -1.54,0 -2.596,-1.518 -2.596,-3.696 0,-2.2 1.056,-3.74 2.596,-3.74"
         style=""
         id="path4358" />
      <path
         d="m 279.16472,439.18607 c -0.55,-0.506 -0.704,-0.836 -0.704,-1.452 l 0,-6.6 c 0,-2.42 -1.65,-3.652 -4.862,-3.652 -3.212,0 -4.884,1.364 -5.082,4.114 l 2.97,0 c 0.154,-1.232 0.66,-1.628 2.178,-1.628 1.188,0 1.782,0.396 1.782,1.188 0,0.396 -0.198,0.748 -0.528,0.924 -0.418,0.22 -0.418,0.22 -1.936,0.462 l -1.232,0.22 c -2.354,0.396 -3.498,1.606 -3.498,3.74 0,1.012 0.286,1.848 0.836,2.442 0.682,0.704 1.716,1.122 2.772,1.122 1.32,0 2.53,-0.572 3.608,-1.694 0,0.616 0.066,0.836 0.352,1.188 l 3.344,0 0,-0.374 m -3.718,-4.4 c 0,1.782 -0.88,2.794 -2.442,2.794 -1.034,0 -1.672,-0.55 -1.672,-1.43 0,-0.924 0.484,-1.364 1.76,-1.628 l 1.056,-0.198 c 0.814,-0.154 0.946,-0.198 1.298,-0.374 l 0,0.836"
         style=""
         id="path4360" />
      <path
         d="m 288.79281,439.56007 3.08,0 0,-16.038 -3.08,0 0,5.698 c -0.77,-1.188 -1.804,-1.738 -3.278,-1.738 -2.83799,0 -4.994,2.728 -4.994,6.314 0,1.606 0.484,3.234 1.276,4.378 0.814,1.144 2.266,1.892 3.718,1.892 1.474,0 2.508,-0.55 3.278,-1.716 l 0,1.21 m -2.596,-9.504 c 1.562,0 2.596,1.518 2.596,3.784 0,2.156 -1.056,3.652 -2.596,3.652 -1.54,0 -2.596,-1.518 -2.596,-3.696 0,-2.2 1.056,-3.74 2.596,-3.74"
         style=""
         id="path4362" />
      <path
         d="m 296.01603,443.96007 c 2.53,-3.806 3.586,-6.842 3.586,-10.208 0,-3.388 -1.056,-6.424 -3.586,-10.23 l -2.2,0 c 2.332,4.532 3.08,6.996 3.08,10.23 0,3.212 -0.748,5.72 -3.08,10.208 l 2.2,0"
         style=""
         id="path4364" />
    </g>
    <g
       transform="matrix(0,-1,1,0,-335.03251,537.53652)"
       style="font-size:22px;font-style:normal;font-variant:normal;font-weight:bold;font-stretch:normal;text-align:center;line-height:125%;letter-spacing:0px;word-spacing:0px;text-anchor:middle;fill:#000000;fill-opacity:1;stroke:none;font-family:Nimbus Sans L;-inkscape-font-specification:Sans Bold"
       id="flowRoot3458">
      <path
         d="m 162.72311,396.02207 -3.3,0 0,16.038 3.3,0 0,-16.038"
         style=""
         id="path4249" />
      <path
         d="m 165.52467,400.18007 0,11.88 3.08,0 0,-7.128 c 0,-1.408 0.99,-2.332 2.486,-2.332 1.32,0 1.98,0.726 1.98,2.134 l 0,7.326 3.08,0 0,-7.964 c 0,-2.618 -1.452,-4.114 -3.982,-4.114 -1.606,0 -2.684,0.594 -3.564,1.914 l 0,-1.716 -3.08,0"
         style=""
         id="path4251" />
      <path
         d="m 184.20989,400.42207 -1.716,0 0,-3.19 -3.08,0 0,3.19 -1.518,0 0,2.046 1.518,0 0,7.304 c 0,1.87 0.99,2.794 3.014,2.794 0.682,0 1.232,-0.066 1.782,-0.242 l 0,-2.156 c -0.308,0.044 -0.484,0.066 -0.704,0.066 -0.814,0 -1.012,-0.242 -1.012,-1.298 l 0,-6.468 1.716,0 0,-2.046"
         style=""
         id="path4253" />
      <path
         d="m 196.46355,407.08807 c 0.022,-0.264 0.022,-0.374 0.022,-0.528 0,-1.188 -0.176,-2.288 -0.462,-3.124 -0.792,-2.156 -2.70601,-3.454 -5.104,-3.454 -3.41,0 -5.5,2.464 -5.5,6.446 0,3.806 2.068,6.138 5.434,6.138 2.66199,0 4.818,-1.518 5.5,-3.85 l -3.036,0 c -0.374,0.946 -1.232,1.496 -2.354,1.496 -0.88,0 -1.584,-0.374 -2.024,-1.034 -0.286,-0.44 -0.396,-0.968 -0.44,-2.09 l 7.964,0 m -7.92,-2.046 c 0.198,-1.804 0.968,-2.706 2.332,-2.706 0.77,0 1.474,0.374 1.914,0.99 0.286,0.44 0.418,0.902 0.484,1.716 l -4.73,0"
         style=""
         id="path4255" />
      <path
         d="m 198.56764,400.18007 0,11.88 3.08,0 0,-6.314 c 0,-1.804 0.902,-2.706 2.706,-2.706 0.33,0 0.55,0.022 0.968,0.088 l 0,-3.124 c -0.176,-0.022 -0.286,-0.022 -0.374,-0.022 -1.408,0 -2.64,0.924 -3.3,2.53 l 0,-2.332 -3.08,0"
         style=""
         id="path4257" />
      <path
         d="m 217.26042,407.08807 c 0.022,-0.264 0.022,-0.374 0.022,-0.528 0,-1.188 -0.176,-2.288 -0.462,-3.124 -0.792,-2.156 -2.706,-3.454 -5.104,-3.454 -3.40999,0 -5.5,2.464 -5.5,6.446 0,3.806 2.06801,6.138 5.434,6.138 2.662,0 4.818,-1.518 5.5,-3.85 l -3.036,0 c -0.374,0.946 -1.232,1.496 -2.354,1.496 -0.88,0 -1.584,-0.374 -2.024,-1.034 -0.286,-0.44 -0.396,-0.968 -0.44,-2.09 l 7.964,0 m -7.92,-2.046 c 0.198,-1.804 0.968,-2.706 2.332,-2.706 0.77,0 1.474,0.374 1.914,0.99 0.286,0.44 0.418,0.902 0.484,1.716 l -4.73,0 m 5.61,-9.636 -2.772,0 -1.54,3.3 1.54,0 2.772,-3.3"
         style=""
         id="path4259" />
      <path
         d="m 229.08852,404.00807 c -0.044,-2.508 -1.98001,-4.026 -5.17,-4.026 -3.014,0 -4.884,1.518 -4.884,3.96 0,0.792 0.242,1.474 0.66,1.936 0.418,0.418 0.792,0.616 1.936,0.99 l 3.674,1.144 c 0.76999,0.242 1.034,0.484 1.034,0.968 0,0.726 -0.85801,1.166 -2.288,1.166 -0.792,0 -1.43,-0.154 -1.826,-0.418 -0.33,-0.242 -0.462,-0.484 -0.594,-1.122 l -3.014,0 c 0.088,2.596 2.002,3.96 5.61,3.96 1.64999,0 2.904,-0.352 3.784,-1.056 0.87999,-0.704 1.408,-1.804 1.408,-2.97 0,-1.54 -0.77001,-2.53 -2.332,-2.992 l -3.894,-1.122 c -0.858,-0.264 -1.078,-0.44 -1.078,-0.924 0,-0.66 0.704,-1.1 1.782,-1.1 1.47399,0 2.2,0.528 2.222,1.606 l 2.97,0"
         style=""
         id="path4261" />
      <path
         d="m 247.85417,407.08807 c 0.022,-0.264 0.022,-0.374 0.022,-0.528 0,-1.188 -0.176,-2.288 -0.462,-3.124 -0.792,-2.156 -2.706,-3.454 -5.104,-3.454 -3.40999,0 -5.5,2.464 -5.5,6.446 0,3.806 2.06801,6.138 5.434,6.138 2.662,0 4.818,-1.518 5.5,-3.85 l -3.036,0 c -0.374,0.946 -1.232,1.496 -2.354,1.496 -0.88,0 -1.584,-0.374 -2.024,-1.034 -0.286,-0.44 -0.396,-0.968 -0.44,-2.09 l 7.964,0 m -7.92,-2.046 c 0.198,-1.804 0.968,-2.706 2.332,-2.706 0.77,0 1.474,0.374 1.914,0.99 0.286,0.44 0.418,0.902 0.484,1.716 l -4.73,0"
         style=""
         id="path4263" />
      <path
         d="m 249.95827,400.18007 0,11.88 3.08,0 0,-7.128 c 0,-1.408 0.99,-2.332 2.486,-2.332 1.31999,0 1.98,0.726 1.98,2.134 l 0,7.326 3.08,0 0,-7.964 c 0,-2.618 -1.45201,-4.114 -3.982,-4.114 -1.606,0 -2.68401,0.594 -3.564,1.914 l 0,-1.716 -3.08,0"
         style=""
         id="path4265" />
      <path
         d="m 272.67705,396.02207 -3.08,0 0,16.038 3.08,0 0,-16.038"
         style=""
         id="path4267" />
      <path
         d="m 285.75261,411.68607 c -0.55,-0.506 -0.704,-0.836 -0.704,-1.452 l 0,-6.6 c 0,-2.42 -1.65,-3.652 -4.862,-3.652 -3.212,0 -4.884,1.364 -5.082,4.114 l 2.97,0 c 0.154,-1.232 0.66,-1.628 2.178,-1.628 1.188,0 1.782,0.396 1.782,1.188 0,0.396 -0.198,0.748 -0.528,0.924 -0.418,0.22 -0.418,0.22 -1.936,0.462 l -1.232,0.22 c -2.354,0.396 -3.498,1.606 -3.498,3.74 0,1.012 0.286,1.848 0.836,2.442 0.682,0.704 1.716,1.122 2.772,1.122 1.32,0 2.53,-0.572 3.608,-1.694 0,0.616 0.066,0.836 0.352,1.188 l 3.344,0 0,-0.374 m -3.718,-4.4 c 0,1.782 -0.88,2.794 -2.442,2.794 -1.034,0 -1.672,-0.55 -1.672,-1.43 0,-0.924 0.484,-1.364 1.76,-1.628 l 1.056,-0.198 c 0.814,-0.154 0.946,-0.198 1.298,-0.374 l 0,0.836"
         style=""
         id="path4269" />
      <path
         d="m 293.95827,400.18007 0,11.88 3.08,0 0,-6.314 c 0,-1.804 0.902,-2.706 2.706,-2.706 0.33,0 0.55,0.022 0.968,0.088 l 0,-3.124 c -0.176,-0.022 -0.286,-0.022 -0.374,-0.022 -1.408,0 -2.64001,0.924 -3.3,2.53 l 0,-2.332 -3.08,0"
         style=""
         id="path4271" />
      <path
         d="m 312.65105,407.08807 c 0.022,-0.264 0.022,-0.374 0.022,-0.528 0,-1.188 -0.176,-2.288 -0.462,-3.124 -0.792,-2.156 -2.70601,-3.454 -5.104,-3.454 -3.41,0 -5.5,2.464 -5.5,6.446 0,3.806 2.068,6.138 5.434,6.138 2.66199,0 4.818,-1.518 5.5,-3.85 l -3.036,0 c -0.374,0.946 -1.232,1.496 -2.354,1.496 -0.88,0 -1.584,-0.374 -2.024,-1.034 -0.286,-0.44 -0.396,-0.968 -0.44,-2.09 l 7.964,0 m -7.92,-2.046 c 0.198,-1.804 0.968,-2.706 2.332,-2.706 0.77,0 1.474,0.374 1.914,0.99 0.286,0.44 0.418,0.902 0.484,1.716 l -4.73,0"
         style=""
         id="path4273" />
      <path
         d="m 317.92314,396.02207 -3.08,0 0,16.038 3.08,0 0,-16.038"
         style=""
         id="path4275" />
      <path
         d="m 330.9987,411.68607 c -0.55,-0.506 -0.704,-0.836 -0.704,-1.452 l 0,-6.6 c 0,-2.42 -1.65,-3.652 -4.862,-3.652 -3.21199,0 -4.884,1.364 -5.082,4.114 l 2.97,0 c 0.154,-1.232 0.66,-1.628 2.178,-1.628 1.188,0 1.782,0.396 1.782,1.188 0,0.396 -0.198,0.748 -0.528,0.924 -0.418,0.22 -0.418,0.22 -1.936,0.462 l -1.232,0.22 c -2.35399,0.396 -3.498,1.606 -3.498,3.74 0,1.012 0.286,1.848 0.836,2.442 0.682,0.704 1.716,1.122 2.772,1.122 1.32,0 2.53,-0.572 3.608,-1.694 0,0.616 0.066,0.836 0.352,1.188 l 3.344,0 0,-0.374 m -3.718,-4.4 c 0,1.782 -0.88,2.794 -2.442,2.794 -1.034,0 -1.672,-0.55 -1.672,-1.43 0,-0.924 0.484,-1.364 1.76,-1.628 l 1.056,-0.198 c 0.814,-0.154 0.946,-0.198 1.298,-0.374 l 0,0.836"
         style=""
         id="path4277" />
      <path
         d="m 343.2008,404.62407 c -0.22,-2.904 -2.15601,-4.642 -5.126,-4.642 -3.542,0 -5.61,2.332 -5.61,6.38 0,3.916 2.046,6.204 5.566,6.204 2.88199,0 4.884,-1.782 5.17,-4.62 l -2.948,0 c -0.396,1.54 -1.012,2.134 -2.2,2.134 -1.562,0 -2.508,-1.408 -2.508,-3.718 0,-1.122 0.22,-2.178 0.594,-2.882 0.352,-0.66 1.034,-1.012 1.914,-1.012 1.254,0 1.848,0.594 2.2,2.156 l 2.948,0"
         style=""
         id="path4279" />
      <path
         d="m 348.51689,400.18007 -3.08,0 0,11.88 3.08,0 0,-11.88 m 0,-4.158 -3.08,0 0,2.75 3.08,0 0,-2.75"
         style=""
         id="path4281" />
      <path
         d="m 356.68645,399.98207 c -3.62999,0 -5.852,2.398 -5.852,6.292 0,3.916 2.22201,6.292 5.874,6.292 3.608,0 5.874,-2.398 5.874,-6.204 0,-4.026 -2.178,-6.38 -5.896,-6.38 m 0.022,2.486 c 1.694,0 2.794,1.518 2.794,3.85 0,2.222 -1.144,3.762 -2.794,3.762 -1.672,0 -2.794,-1.54 -2.794,-3.806 0,-2.266 1.122,-3.806 2.794,-3.806 m 3.058,-7.062 -2.772,0 -1.54,3.3 1.54,0 2.772,-3.3"
         style=""
         id="path4283" />
      <path
         d="m 364.89967,400.18007 0,11.88 3.08,0 0,-7.128 c 0,-1.408 0.99,-2.332 2.486,-2.332 1.32,0 1.98,0.726 1.98,2.134 l 0,7.326 3.08,0 0,-7.964 c 0,-2.618 -1.452,-4.114 -3.982,-4.114 -1.606,0 -2.684,0.594 -3.564,1.914 l 0,-1.716 -3.08,0"
         style=""
         id="path4285" />
      <path
         d="m 197.35077,423.52207 c -2.53,3.806 -3.586,6.842 -3.586,10.208 0,3.388 1.056,6.424 3.586,10.23 l 2.2,0 c -2.332,-4.532 -3.08,-6.996 -3.08,-10.23 0,-3.212 0.748,-5.72 3.08,-10.208 l -2.2,0"
         style=""
         id="path4287" />
      <path
         d="m 215.23642,428.95607 c -0.11,-1.386 -0.396,-2.266 -1.078,-3.168 -1.232,-1.628 -3.212,-2.53 -5.61,-2.53 -4.53199,0 -7.348,3.23401 -7.348,8.426 0,5.14799 2.79401,8.382 7.26,8.382 3.982,0 6.644,-2.31 6.842,-5.984 l -3.212,0 c -0.198,2.046 -1.496,3.212 -3.542,3.212 -2.552,0 -4.048,-2.068 -4.048,-5.566 0,-3.542 1.562,-5.654 4.158,-5.654 1.144,0 2.09,0.396 2.706,1.166 0.352,0.44 0.528,0.858 0.726,1.716 l 3.146,0"
         style=""
         id="path4289" />
      <path
         d="m 222.75286,427.48207 c -3.63,0 -5.852,2.398 -5.852,6.292 0,3.916 2.222,6.292 5.874,6.292 3.608,0 5.874,-2.398 5.874,-6.204 0,-4.026 -2.178,-6.38 -5.896,-6.38 m 0.022,2.486 c 1.694,0 2.794,1.518 2.794,3.85 0,2.222 -1.144,3.762 -2.794,3.762 -1.672,0 -2.794,-1.54 -2.794,-3.806 0,-2.266 1.122,-3.806 2.794,-3.806"
         style=""
         id="path4291" />
      <path
         d="m 236.20208,427.48207 c -3.63,0 -5.852,2.398 -5.852,6.292 0,3.916 2.222,6.292 5.874,6.292 3.60799,0 5.874,-2.398 5.874,-6.204 0,-4.026 -2.17801,-6.38 -5.896,-6.38 m 0.022,2.486 c 1.694,0 2.794,1.518 2.794,3.85 0,2.222 -1.144,3.762 -2.794,3.762 -1.672,0 -2.794,-1.54 -2.794,-3.806 0,-2.266 1.122,-3.806 2.794,-3.806"
         style=""
         id="path4293" />
      <path
         d="m 247.3853,427.68007 -3.08,0 0,16.676 3.08,0 0,-6.204 c 0.748,1.32 1.804,1.936 3.3,1.936 2.85999,0 4.972,-2.684 4.972,-6.292 0,-1.672 -0.484,-3.344 -1.276,-4.444 -0.792,-1.122 -2.266,-1.87 -3.696,-1.87 -1.496,0 -2.552,0.638 -3.3,1.958 l 0,-1.76 m 2.596,2.376 c 1.562,0 2.596,1.518 2.596,3.784 0,2.156 -1.078,3.674 -2.596,3.674 -1.54,0 -2.596,-1.496 -2.596,-3.718 0,-2.222 1.056,-3.74 2.596,-3.74"
         style=""
         id="path4295" />
      <path
         d="m 268.00652,434.58807 c 0.022,-0.264 0.022,-0.374 0.022,-0.528 0,-1.188 -0.176,-2.288 -0.462,-3.124 -0.792,-2.156 -2.70601,-3.454 -5.104,-3.454 -3.41,0 -5.5,2.464 -5.5,6.446 0,3.806 2.068,6.138 5.434,6.138 2.66199,0 4.818,-1.518 5.5,-3.85 l -3.036,0 c -0.374,0.946 -1.23201,1.496 -2.354,1.496 -0.88,0 -1.584,-0.374 -2.024,-1.034 -0.286,-0.44 -0.396,-0.968 -0.44,-2.09 l 7.964,0 m -7.92,-2.046 c 0.198,-1.804 0.968,-2.706 2.332,-2.706 0.76999,0 1.474,0.374 1.914,0.99 0.286,0.44 0.418,0.902 0.484,1.716 l -4.73,0"
         style=""
         id="path4297" />
      <path
         d="m 270.11061,427.68007 0,11.88 3.08,0 0,-6.314 c 0,-1.804 0.902,-2.706 2.706,-2.706 0.33,0 0.55,0.022 0.968,0.088 l 0,-3.124 c -0.176,-0.022 -0.286,-0.022 -0.374,-0.022 -1.408,0 -2.64,0.924 -3.3,2.53 l 0,-2.332 -3.08,0"
         style=""
         id="path4299" />
      <path
         d="m 288.80339,439.18607 c -0.55,-0.506 -0.704,-0.836 -0.704,-1.452 l 0,-6.6 c 0,-2.42 -1.65,-3.652 -4.862,-3.652 -3.212,0 -4.884,1.364 -5.082,4.114 l 2.97,0 c 0.154,-1.232 0.66,-1.628 2.178,-1.628 1.188,0 1.782,0.396 1.782,1.188 0,0.396 -0.198,0.748 -0.528,0.924 -0.418,0.22 -0.418,0.22 -1.936,0.462 l -1.232,0.22 c -2.354,0.396 -3.498,1.606 -3.498,3.74 0,1.012 0.286,1.848 0.836,2.442 0.682,0.704 1.716,1.122 2.772,1.122 1.32,0 2.53,-0.572 3.608,-1.694 0,0.616 0.066,0.836 0.352,1.188 l 3.344,0 0,-0.374 m -3.718,-4.4 c 0,1.782 -0.88,2.794 -2.442,2.794 -1.034,0 -1.672,-0.55 -1.672,-1.43 0,-0.924 0.484,-1.364 1.76,-1.628 l 1.056,-0.198 c 0.814,-0.154 0.946,-0.198 1.298,-0.374 l 0,0.836"
         style=""
         id="path4301" />
      <path
         d="m 301.00548,432.12407 c -0.22,-2.904 -2.156,-4.642 -5.126,-4.642 -3.54199,0 -5.61,2.332 -5.61,6.38 0,3.916 2.04601,6.204 5.566,6.204 2.882,0 4.884,-1.782 5.17,-4.62 l -2.948,0 c -0.396,1.54 -1.012,2.134 -2.2,2.134 -1.56199,0 -2.508,-1.408 -2.508,-3.718 0,-1.122 0.22,-2.178 0.594,-2.882 0.352,-0.66 1.03401,-1.012 1.914,-1.012 1.254,0 1.848,0.594 2.2,2.156 l 2.948,0"
         style=""
         id="path4303" />
      <path
         d="m 306.32158,427.68007 -3.08,0 0,11.88 3.08,0 0,-11.88 m 0,-4.158 -3.08,0 0,2.75 3.08,0 0,-2.75"
         style=""
         id="path4305" />
      <path
         d="m 314.49114,427.48207 c -3.63,0 -5.852,2.398 -5.852,6.292 0,3.916 2.222,6.292 5.874,6.292 3.608,0 5.874,-2.398 5.874,-6.204 0,-4.026 -2.178,-6.38 -5.896,-6.38 m 0.022,2.486 c 1.694,0 2.794,1.518 2.794,3.85 0,2.222 -1.144,3.762 -2.794,3.762 -1.672,0 -2.794,-1.54 -2.794,-3.806 0,-2.266 1.122,-3.806 2.794,-3.806 m 3.058,-7.062 -2.772,0 -1.54,3.3 1.54,0 2.772,-3.3"
         style=""
         id="path4307" />
      <path
         d="m 322.70436,427.68007 0,11.88 3.08,0 0,-7.128 c 0,-1.408 0.99,-2.332 2.486,-2.332 1.32,0 1.98,0.726 1.98,2.134 l 0,7.326 3.08,0 0,-7.964 c 0,-2.618 -1.452,-4.114 -3.982,-4.114 -1.606,0 -2.684,0.594 -3.564,1.914 l 0,-1.716 -3.08,0"
         style=""
         id="path4309" />
      <path
         d="m 337.45158,443.96007 c 2.53,-3.806 3.586,-6.842 3.586,-10.208 0,-3.388 -1.056,-6.424 -3.586,-10.23 l -2.2,0 c 2.332,4.532 3.08,6.996 3.08,10.23 0,3.212 -0.748,5.72 -3.08,10.208 l 2.2,0"
         style=""
         id="path4311" />
    </g>
    <g
       transform="translate(47.711579,66.248883)"
       style="font-size:18px;font-style:normal;font-variant:normal;font-weight:bold;font-stretch:normal;text-align:end;line-height:125%;letter-spacing:0px;word-spacing:0px;text-anchor:end;fill:#000000;fill-opacity:1;stroke:none;font-family:Nimbus Sans L;-inkscape-font-specification:Sans Bold"
       id="flowRoot4366">
      <path
         d="m 340.21741,40.108944 c -0.09,-1.133999 -0.324,-1.854001 -0.882,-2.592 -1.008,-1.331999 -2.62801,-2.07 -4.59,-2.07 -3.708,0 -6.012,2.646004 -6.012,6.894 0,4.211995 2.286,6.858 5.94,6.858 3.25799,0 5.436,-1.890003 5.598,-4.896 l -2.628,0 c -0.162,1.673998 -1.22401,2.628 -2.898,2.628 -2.088,0 -3.312,-1.692003 -3.312,-4.554 0,-2.897997 1.278,-4.626 3.402,-4.626 0.936,0 1.71,0.324 2.214,0.954 0.288,0.359999 0.432,0.702 0.594,1.404 l 2.574,0"
         style=""
         id="path4482" />
      <path
         d="m 346.36722,38.902944 c -2.97,0 -4.788,1.962003 -4.788,5.148 0,3.203996 1.818,5.148 4.806,5.148 2.952,0 4.806,-1.962003 4.806,-5.076 0,-3.293997 -1.782,-5.22 -4.824,-5.22 m 0.018,2.034 c 1.386,0 2.286,1.242002 2.286,3.15 0,1.817998 -0.936,3.078 -2.286,3.078 -1.368,0 -2.286,-1.260002 -2.286,-3.114 0,-1.853999 0.918,-3.114 2.286,-3.114"
         style=""
         id="path4484" />
      <path
         d="m 353.08713,39.064944 0,9.72 2.51999,0 0,-5.832 c 0,-1.151999 0.81001,-1.908 2.034,-1.908 1.08,0 1.62,0.594001 1.62,1.746 l 0,5.994 2.52,0 0,-6.516 c 0,-2.141998 -1.188,-3.366 -3.258,-3.366 -1.31399,0 -2.196,0.486001 -2.916,1.566 l 0,-1.404 -2.51999,0"
         style=""
         id="path4486" />
      <path
         d="m 368.59103,39.262944 -1.494,0 0,-0.954 c 0,-0.504 0.216,-0.756 0.684,-0.756 0.216,0 0.504,0.018 0.72,0.054 l 0,-1.89 c -0.468,-0.036 -1.098,-0.054 -1.44,-0.054 -1.674,0 -2.484,0.792001 -2.484,2.43 l 0,1.17 -1.368,0 0,1.674 1.368,0 0,7.848 2.52,0 0,-7.848 1.494,0 0,-1.674"
         style=""
         id="path4488" />
      <path
         d="m 370.10275,39.064944 0,9.72 2.52,0 0,-5.166 c 0,-1.475999 0.738,-2.214 2.214,-2.214 0.27,0 0.45,0.018 0.792,0.072 l 0,-2.556 c -0.144,-0.018 -0.234,-0.018 -0.306,-0.018 -1.152,0 -2.16,0.756001 -2.7,2.07 l 0,-1.908 -2.52,0"
         style=""
         id="path4490" />
      <path
         d="m 381.38284,38.902944 c -2.96999,0 -4.788,1.962003 -4.788,5.148 0,3.203996 1.81801,5.148 4.806,5.148 2.952,0 4.806,-1.962003 4.806,-5.076 0,-3.293997 -1.782,-5.22 -4.824,-5.22 m 0.018,2.034 c 1.386,0 2.286,1.242002 2.286,3.15 0,1.817998 -0.936,3.078 -2.286,3.078 -1.36799,0 -2.286,-1.260002 -2.286,-3.114 0,-1.853999 0.91801,-3.114 2.286,-3.114"
         style=""
         id="path4492" />
      <path
         d="m 388.10275,39.064944 0,9.72 2.52,0 0,-5.832 c 0,-1.151999 0.81,-1.908 2.034,-1.908 1.08,0 1.62,0.594001 1.62,1.746 l 0,5.994 2.52,0 0,-6.516 c 0,-2.141998 -1.188,-3.366 -3.258,-3.366 -1.314,0 -2.196,0.486001 -2.916,1.566 l 0,-1.404 -2.52,0"
         style=""
         id="path4494" />
      <path
         d="m 403.39066,39.262944 -1.404,0 0,-2.61 -2.52,0 0,2.61 -1.242,0 0,1.674 1.242,0 0,5.976 c 0,1.529998 0.81,2.286 2.466,2.286 0.558,0 1.008,-0.054 1.458,-0.198 l 0,-1.764 c -0.252,0.036 -0.396,0.054 -0.576,0.054 -0.666,0 -0.828,-0.198001 -0.828,-1.062 l 0,-5.292 1.404,0 0,-1.674"
         style=""
         id="path4496" />
      <path
         d="m 413.41638,48.478944 c -0.45,-0.414 -0.57601,-0.684001 -0.57601,-1.188 l 0,-5.4 c 0,-1.979998 -1.35,-2.988 -3.978,-2.988 -2.62799,0 -3.996,1.116002 -4.15799,3.366 l 2.42999,0 c 0.126,-1.007999 0.54001,-1.332 1.78201,-1.332 0.97199,0 1.45799,0.324 1.45799,0.972 0,0.323999 -0.162,0.612 -0.43199,0.756 -0.342,0.179999 -0.34201,0.18 -1.584,0.378 l -1.00801,0.18 c -1.92599,0.323999 -2.86199,1.314001 -2.86199,3.06 0,0.827999 0.234,1.512 0.68399,1.998 0.558,0.575999 1.40401,0.918 2.26801,0.918 1.07999,0 2.07,-0.468001 2.952,-1.386 0,0.503999 0.054,0.684 0.288,0.972 l 2.736,0 0,-0.306 m -3.04201,-3.6 c 0,1.457998 -0.72,2.286 -1.998,2.286 -0.84599,0 -1.368,-0.450001 -1.368,-1.17 0,-0.756 0.39601,-1.116001 1.44,-1.332 l 0.864,-0.162 c 0.666,-0.126 0.77401,-0.162001 1.062,-0.306 l 0,0.684"
         style=""
         id="path4498" />
      <path
         d="m 415.13791,39.064944 0,9.72 2.52,0 0,-5.166 c 0,-1.475999 0.738,-2.214 2.214,-2.214 0.27,0 0.45,0.018 0.792,0.072 l 0,-2.556 c -0.144,-0.018 -0.234,-0.018 -0.306,-0.018 -1.152,0 -2.16,0.756001 -2.7,2.07 l 0,-1.908 -2.52,0"
         style=""
         id="path4500" />
      <path
         d="m 348.23303,62.608944 c -0.09,-1.133999 -0.324,-1.854001 -0.882,-2.592 -1.008,-1.331999 -2.628,-2.07 -4.59,-2.07 -3.708,0 -6.012,2.646004 -6.012,6.894 0,4.211995 2.286,6.858 5.94,6.858 3.258,0 5.436,-1.890003 5.598,-4.896 l -2.628,0 c -0.162,1.673998 -1.224,2.628 -2.898,2.628 -2.088,0 -3.312,-1.692003 -3.312,-4.554 0,-2.897997 1.278,-4.626 3.402,-4.626 0.936,0 1.71,0.324 2.214,0.954 0.288,0.359999 0.432,0.702 0.594,1.404 l 2.574,0"
         style=""
         id="path4502" />
      <path
         d="m 354.38284,61.402944 c -2.96999,0 -4.788,1.962003 -4.788,5.148 0,3.203996 1.81801,5.148 4.806,5.148 2.952,0 4.806,-1.962003 4.806,-5.076 0,-3.293997 -1.782,-5.22 -4.824,-5.22 m 0.018,2.034 c 1.386,0 2.286,1.242002 2.286,3.15 0,1.817998 -0.936,3.078 -2.286,3.078 -1.36799,0 -2.286,-1.260002 -2.286,-3.114 0,-1.853999 0.91801,-3.114 2.286,-3.114"
         style=""
         id="path4504" />
      <path
         d="m 363.69475,58.162944 -2.52,0 0,13.122 2.52,0 0,-13.122"
         style=""
         id="path4506" />
      <path
         d="m 374.39294,70.978944 c -0.45,-0.414 -0.576,-0.684001 -0.576,-1.188 l 0,-5.4 c 0,-1.979998 -1.35001,-2.988 -3.978,-2.988 -2.628,0 -3.996,1.116002 -4.158,3.366 l 2.43,0 c 0.126,-1.007999 0.54,-1.332 1.782,-1.332 0.972,0 1.458,0.324 1.458,0.972 0,0.323999 -0.162,0.612 -0.432,0.756 -0.342,0.179999 -0.342,0.18 -1.584,0.378 l -1.008,0.18 c -1.926,0.323999 -2.862,1.314001 -2.862,3.06 0,0.827999 0.234,1.512 0.684,1.998 0.558,0.575999 1.404,0.918 2.268,0.918 1.08,0 2.07,-0.468001 2.952,-1.386 0,0.503999 0.054,0.684 0.288,0.972 l 2.736,0 0,-0.306 m -3.042,-3.6 c 0,1.457998 -0.72,2.286 -1.998,2.286 -0.846,0 -1.368,-0.450001 -1.368,-1.17 0,-0.756 0.396,-1.116001 1.44,-1.332 l 0.864,-0.162 c 0.666,-0.126 0.774,-0.162001 1.062,-0.306 l 0,0.684"
         style=""
         id="path4508" />
      <path
         d="m 376.04247,58.162944 0,13.122 2.52,0 0,-0.99 c 0.612,0.953999 1.458,1.404 2.682,1.404 2.322,0 4.086,-2.214003 4.086,-5.148 0,-1.313999 -0.396,-2.646001 -1.044,-3.582 -0.666,-0.953999 -1.854,-1.566 -3.042,-1.566 -1.206,0 -2.07,0.450001 -2.682,1.422 l 0,-4.662 -2.52,0 m 4.644,5.346 c 1.242,0 2.124,1.260001 2.124,3.06 0,1.763998 -0.882,3.024 -2.124,3.024 -1.278,0 -2.124,-1.224002 -2.124,-3.078 0,-1.763999 0.864,-3.006 2.124,-3.006"
         style=""
         id="path4510" />
      <path
         d="m 391.40237,61.402944 c -2.96999,0 -4.788,1.962003 -4.788,5.148 0,3.203996 1.81801,5.148 4.806,5.148 2.952,0 4.80601,-1.962003 4.80601,-5.076 0,-3.293997 -1.78201,-5.22 -4.82401,-5.22 m 0.018,2.034 c 1.386,0 2.286,1.242002 2.286,3.15 0,1.817998 -0.936,3.078 -2.286,3.078 -1.36799,0 -2.286,-1.260002 -2.286,-3.114 0,-1.853999 0.91801,-3.114 2.286,-3.114"
         style=""
         id="path4512" />
      <path
         d="m 398.12228,61.564944 0,9.72 2.52,0 0,-5.166 c 0,-1.475999 0.738,-2.214 2.214,-2.214 0.27,0 0.45,0.018 0.792,0.072 l 0,-2.556 c -0.144,-0.018 -0.234,-0.018 -0.306,-0.018 -1.152,0 -2.16,0.756001 -2.7,2.07 l 0,-1.908 -2.52,0"
         style=""
         id="path4514" />
      <path
         d="m 413.41638,70.978944 c -0.45,-0.414 -0.57601,-0.684001 -0.57601,-1.188 l 0,-5.4 c 0,-1.979998 -1.35,-2.988 -3.978,-2.988 -2.62799,0 -3.996,1.116002 -4.15799,3.366 l 2.42999,0 c 0.126,-1.007999 0.54001,-1.332 1.78201,-1.332 0.97199,0 1.45799,0.324 1.45799,0.972 0,0.323999 -0.162,0.612 -0.43199,0.756 -0.342,0.179999 -0.34201,0.18 -1.584,0.378 l -1.00801,0.18 c -1.92599,0.323999 -2.86199,1.314001 -2.86199,3.06 0,0.827999 0.234,1.512 0.68399,1.998 0.558,0.575999 1.40401,0.918 2.26801,0.918 1.07999,0 2.07,-0.468001 2.952,-1.386 0,0.503999 0.054,0.684 0.288,0.972 l 2.736,0 0,-0.306 m -3.04201,-3.6 c 0,1.457998 -0.72,2.286 -1.998,2.286 -0.84599,0 -1.368,-0.450001 -1.368,-1.17 0,-0.756 0.39601,-1.116001 1.44,-1.332 l 0.864,-0.162 c 0.666,-0.126 0.77401,-0.162001 1.062,-0.306 l 0,0.684"
         style=""
         id="path4516" />
      <path
         d="m 415.13791,61.564944 0,9.72 2.52,0 0,-5.166 c 0,-1.475999 0.738,-2.214 2.214,-2.214 0.27,0 0.45,0.018 0.792,0.072 l 0,-2.556 c -0.144,-0.018 -0.234,-0.018 -0.306,-0.018 -1.152,0 -2.16,0.756001 -2.7,2.07 l 0,-1.908 -2.52,0"
         style=""
         id="path4518" />
    </g>
    <g
       transform="translate(47.428193,362.10363)"
       style="font-size:18px;font-style:normal;font-variant:normal;font-weight:bold;font-stretch:normal;text-align:end;line-height:125%;letter-spacing:0px;word-spacing:0px;text-anchor:end;fill:#000000;fill-opacity:1;stroke:none;font-family:Nimbus Sans L;-inkscape-font-specification:Sans Bold"
       id="flowRoot4376">
      <path
         d="m 370.01247,43.132944 5.742,0 0,-2.25 -5.742,0 0,-2.97 6.516,0 0,-2.25 -9.216,0 0,13.122 2.7,0 0,-5.652"
         style=""
         id="path4427" />
      <path
         d="m 382.40237,38.902944 c -2.96999,0 -4.788,1.962003 -4.788,5.148 0,3.203996 1.81801,5.148 4.806,5.148 2.952,0 4.80601,-1.962003 4.80601,-5.076 0,-3.293997 -1.78201,-5.22 -4.82401,-5.22 m 0.018,2.034 c 1.386,0 2.286,1.242002 2.286,3.15 0,1.817998 -0.936,3.078 -2.286,3.078 -1.36799,0 -2.286,-1.260002 -2.286,-3.114 0,-1.853999 0.91801,-3.114 2.286,-3.114"
         style=""
         id="path4429" />
      <path
         d="m 389.12228,39.064944 0,9.72 2.52,0 0,-5.166 c 0,-1.475999 0.738,-2.214 2.214,-2.214 0.27,0 0.45,0.018 0.792,0.072 l 0,-2.556 c -0.144,-0.018 -0.234,-0.018 -0.306,-0.018 -1.152,0 -2.16,0.756001 -2.7,2.07 l 0,-1.908 -2.52,0"
         style=""
         id="path4431" />
      <path
         d="m 403.24637,39.064944 -7.56,0 0,2.034 4.48201,0 -4.80601,5.652 0,2.034 8.046,0 0,-2.034 -4.93199,0 4.76999,-5.652 0,-2.034"
         style=""
         id="path4433" />
      <path
         d="m 413.41638,48.478944 c -0.45,-0.414 -0.57601,-0.684001 -0.57601,-1.188 l 0,-5.4 c 0,-1.979998 -1.35,-2.988 -3.978,-2.988 -2.62799,0 -3.996,1.116002 -4.15799,3.366 l 2.42999,0 c 0.126,-1.007999 0.54001,-1.332 1.78201,-1.332 0.97199,0 1.45799,0.324 1.45799,0.972 0,0.323999 -0.162,0.612 -0.43199,0.756 -0.342,0.179999 -0.34201,0.18 -1.584,0.378 l -1.00801,0.18 c -1.92599,0.323999 -2.86199,1.314001 -2.86199,3.06 0,0.827999 0.234,1.512 0.68399,1.998 0.558,0.575999 1.40401,0.918 2.26801,0.918 1.07999,0 2.07,-0.468001 2.952,-1.386 0,0.503999 0.054,0.684 0.288,0.972 l 2.736,0 0,-0.306 m -3.04201,-3.6 c 0,1.457998 -0.72,2.286 -1.998,2.286 -0.84599,0 -1.368,-0.450001 -1.368,-1.17 0,-0.756 0.39601,-1.116001 1.44,-1.332 l 0.864,-0.162 c 0.666,-0.126 0.77401,-0.162001 1.062,-0.306 l 0,0.684"
         style=""
         id="path4435" />
      <path
         d="m 415.13791,39.064944 0,9.72 2.52,0 0,-5.166 c 0,-1.475999 0.738,-2.214 2.214,-2.214 0.27,0 0.45,0.018 0.792,0.072 l 0,-2.556 c -0.144,-0.018 -0.234,-0.018 -0.306,-0.018 -1.152,0 -2.16,0.756001 -2.7,2.07 l 0,-1.908 -2.52,0"
         style=""
         id="path4437" />
      <path
         d="m 353.81837,58.162944 -2.69999,0 0,13.122 2.69999,0 0,-13.122"
         style=""
         id="path4439" />
      <path
         d="m 356.05656,61.564944 0,9.72 2.52,0 0,-5.832 c 0,-1.187999 0.648,-1.908 1.728,-1.908 0.846,0 1.368,0.486 1.368,1.26 l 0,6.48 2.52,0 0,-5.832 c 0,-1.187999 0.648,-1.908 1.728,-1.908 0.846,0 1.368,0.486 1.368,1.26 l 0,6.48 2.52,0 0,-6.876 c 0,-1.889998 -1.152,-3.006 -3.096,-3.006 -1.224,0 -2.088,0.432001 -2.844,1.44 -0.468,-0.917999 -1.44,-1.44 -2.646,-1.44 -1.116,0 -1.836,0.378001 -2.664,1.368 l 0,-1.206 -2.502,0"
         style=""
         id="path4441" />
      <path
         d="m 374.53666,61.564944 -2.52,0 0,13.644 2.52,0 0,-5.076 c 0.612,1.079999 1.476,1.584 2.7,1.584 2.33999,0 4.068,-2.196003 4.068,-5.148 0,-1.367999 -0.396,-2.736001 -1.044,-3.636 -0.648,-0.917999 -1.854,-1.53 -3.024,-1.53 -1.224,0 -2.088,0.522001 -2.7,1.602 l 0,-1.44 m 2.124,1.944 c 1.27799,0 2.124,1.242001 2.124,3.096 0,1.763998 -0.882,3.006 -2.124,3.006 -1.26,0 -2.124,-1.224002 -2.124,-3.042 0,-1.817999 0.864,-3.06 2.124,-3.06"
         style=""
         id="path4443" />
      <path
         d="m 387.39456,61.402944 c -2.96999,0 -4.788,1.962003 -4.788,5.148 0,3.203996 1.81801,5.148 4.806,5.148 2.952,0 4.806,-1.962003 4.806,-5.076 0,-3.293997 -1.782,-5.22 -4.824,-5.22 m 0.018,2.034 c 1.386,0 2.286,1.242002 2.286,3.15 0,1.817998 -0.936,3.078 -2.286,3.078 -1.368,0 -2.286,-1.260002 -2.286,-3.114 0,-1.853999 0.918,-3.114 2.286,-3.114"
         style=""
         id="path4446" />
      <path
         d="m 394.11447,61.564944 0,9.72 2.52,0 0,-5.832 c 0,-1.151999 0.81,-1.908 2.034,-1.908 1.08,0 1.62,0.594001 1.62,1.746 l 0,5.994 2.52,0 0,-6.516 c 0,-2.141998 -1.188,-3.366 -3.258,-3.366 -1.314,0 -2.196,0.486001 -2.916,1.566 l 0,-1.404 -2.52,0"
         style=""
         id="path4448" />
      <path
         d="m 413.41638,67.216944 c 0.018,-0.216 0.018,-0.306001 0.018,-0.432 0,-0.971999 -0.144,-1.872001 -0.378,-2.556 -0.64799,-1.763999 -2.214,-2.826 -4.17599,-2.826 -2.79,0 -4.5,2.016003 -4.5,5.274 0,3.113997 1.692,5.022 4.44599,5.022 2.178,0 3.94201,-1.242002 4.5,-3.15 l -2.484,0 c -0.30599,0.773999 -1.008,1.224 -1.92599,1.224 -0.72,0 -1.29601,-0.306001 -1.65601,-0.846 -0.23399,-0.36 -0.324,-0.792001 -0.36,-1.71 l 6.51601,0 m -6.48001,-1.674 c 0.162,-1.475999 0.79201,-2.214 1.90801,-2.214 0.62999,0 1.206,0.306 1.56599,0.81 0.234,0.359999 0.34201,0.738 0.396,1.404 l -3.87,0"
         style=""
         id="path4450" />
      <path
         d="m 415.13791,61.564944 0,9.72 2.52,0 0,-5.166 c 0,-1.475999 0.738,-2.214 2.214,-2.214 0.27,0 0.45,0.018 0.792,0.072 l 0,-2.556 c -0.144,-0.018 -0.234,-0.018 -0.306,-0.018 -1.152,0 -2.16,0.756001 -2.7,2.07 l 0,-1.908 -2.52,0"
         style=""
         id="path4452" />
    </g>
    <g
       transform="translate(-110.14459,365.00125)"
       style="font-size:18px;font-style:normal;font-variant:normal;font-weight:bold;font-stretch:normal;text-align:start;line-height:125%;letter-spacing:0px;word-spacing:0px;text-anchor:start;fill:#000000;fill-opacity:1;stroke:none;font-family:Nimbus Sans L;-inkscape-font-specification:Sans Bold"
       id="flowRoot4390">
      <path
         d="m 248.27825,43.132944 6.282,0 0,-2.25 -6.282,0 0,-2.97 6.786,0 0,-2.25 -9.486,0 0,13.122 9.81,0 0,-2.25 -7.11,0 0,-3.402"
         style=""
         id="path4455" />
      <path
         d="m 259.90569,35.662944 -2.52,0 0,13.122 2.52,0 0,-13.122"
         style=""
         id="path4457" />
      <path
         d="m 270.90987,48.784944 0,-9.72 -2.51999,0 0,6.084 c 0,1.151998 -0.81001,1.908 -2.034,1.908 -1.08,0 -1.62,-0.576002 -1.62,-1.746 l 0,-6.246 -2.52001,0 0,6.768 c 0,2.141997 1.18801,3.366 3.25801,3.366 1.31399,0 2.196,-0.486001 2.916,-1.566 l 0,1.152 2.51999,0"
         style=""
         id="path4459" />
      <path
         d="m 279.46578,48.784944 2.52,0 0,-13.122 -2.52,0 0,4.662 c -0.63,-0.971999 -1.476,-1.422 -2.682,-1.422 -2.322,0 -4.086,2.232003 -4.086,5.166 0,1.313998 0.396,2.646001 1.044,3.582 0.666,0.935999 1.854,1.548 3.042,1.548 1.206,0 2.052,-0.450001 2.682,-1.404 l 0,0.99 m -2.124,-7.776 c 1.278,0 2.124,1.242001 2.124,3.096 0,1.763998 -0.864,2.988 -2.124,2.988 -1.26,0 -2.124,-1.242002 -2.124,-3.024 0,-1.799999 0.864,-3.06 2.124,-3.06"
         style=""
         id="path4461" />
      <path
         d="m 286.90569,39.064944 -2.52,0 0,9.72 2.52,0 0,-9.72 m 0,-3.402 -2.52,0 0,2.25 2.52,0 0,-2.25"
         style=""
         id="path4463" />
      <path
         d="m 289.30588,39.064944 0,9.72 2.51999,0 0,-5.166 c 0,-1.475999 0.73801,-2.214 2.214,-2.214 0.27,0 0.45001,0.018 0.79201,0.072 l 0,-2.556 c -0.144,-0.018 -0.23401,-0.018 -0.30601,-0.018 -1.15199,0 -2.16,0.756001 -2.7,2.07 l 0,-1.908 -2.51999,0"
         style=""
         id="path4465" />
      <path
         d="m 248.29625,66.082944 3.096,0 c 1.17,0 1.674,0.468001 1.674,1.566 0,0.108 0,0.288 -0.018,0.522 -0.018,0.341999 -0.018,0.666 -0.018,0.864 0,1.223998 0.072,1.62 0.414,2.25 l 2.898,0 0,-0.486 c -0.414,-0.234 -0.576,-0.504001 -0.576,-1.08 -0.072,-3.869997 -0.144,-4.050001 -1.818,-4.77 1.476,-0.576 2.214,-1.638002 2.214,-3.24 0,-1.043999 -0.36,-1.998001 -0.99,-2.646 -0.594,-0.612 -1.422,-0.9 -2.538,-0.9 l -7.038,0 0,13.122 2.7,0 0,-5.202 m 0,-2.25 0,-3.42 3.258,0 c 0.774,0 1.098,0.072 1.422,0.342 0.324,0.269999 0.486,0.72 0.486,1.332 0,0.629999 -0.18,1.134 -0.486,1.404 -0.288,0.251999 -0.648,0.342 -1.422,0.342 l -3.258,0"
         style=""
         id="path4467" />
      <path
         d="m 266.59606,67.216944 c 0.018,-0.216 0.018,-0.306001 0.018,-0.432 0,-0.971999 -0.144,-1.872001 -0.378,-2.556 -0.648,-1.763999 -2.214,-2.826 -4.176,-2.826 -2.78999,0 -4.5,2.016003 -4.5,5.274 0,3.113997 1.69201,5.022 4.446,5.022 2.178,0 3.942,-1.242002 4.5,-3.15 l -2.484,0 c -0.306,0.773999 -1.008,1.224 -1.926,1.224 -0.72,0 -1.296,-0.306001 -1.656,-0.846 -0.234,-0.36 -0.324,-0.792001 -0.36,-1.71 l 6.516,0 m -6.48,-1.674 c 0.162,-1.475999 0.792,-2.214 1.908,-2.214 0.63,0 1.206,0.306 1.566,0.81 0.234,0.359999 0.342,0.738 0.396,1.404 l -3.87,0"
         style=""
         id="path4469" />
      <path
         d="m 272.60159,61.762944 -1.404,0 0,-2.61 -2.52,0 0,2.61 -1.242,0 0,1.674 1.242,0 0,5.976 c 0,1.529998 0.81001,2.286 2.466,2.286 0.558,0 1.008,-0.054 1.458,-0.198 l 0,-1.764 c -0.252,0.036 -0.396,0.054 -0.576,0.054 -0.666,0 -0.828,-0.198001 -0.828,-1.062 l 0,-5.292 1.404,0 0,-1.674"
         style=""
         id="path4471" />
      <path
         d="m 276.92131,61.564944 -2.52,0 0,9.72 2.52,0 0,-9.72 m 0,-3.402 -2.52,0 0,2.25 2.52,0 0,-2.25"
         style=""
         id="path4473" />
      <path
         d="m 279.3215,61.564944 0,9.72 2.52,0 0,-5.166 c 0,-1.475999 0.738,-2.214 2.214,-2.214 0.27,0 0.45,0.018 0.792,0.072 l 0,-2.556 c -0.144,-0.018 -0.234,-0.018 -0.306,-0.018 -1.152,0 -2.16,0.756001 -2.7,2.07 l 0,-1.908 -2.52,0"
         style=""
         id="path4475" />
      <path
         d="m 294.61559,70.978944 c -0.45,-0.414 -0.576,-0.684001 -0.576,-1.188 l 0,-5.4 c 0,-1.979998 -1.35,-2.988 -3.978,-2.988 -2.62799,0 -3.996,1.116002 -4.158,3.366 l 2.43,0 c 0.126,-1.007999 0.54,-1.332 1.782,-1.332 0.972,0 1.458,0.324 1.458,0.972 0,0.323999 -0.162,0.612 -0.432,0.756 -0.342,0.179999 -0.342,0.18 -1.584,0.378 l -1.008,0.18 c -1.92599,0.323999 -2.862,1.314001 -2.862,3.06 0,0.827999 0.234,1.512 0.684,1.998 0.558,0.575999 1.404,0.918 2.268,0.918 1.08,0 2.07,-0.468001 2.952,-1.386 0,0.503999 0.054,0.684 0.288,0.972 l 2.736,0 0,-0.306 m -3.042,-3.6 c 0,1.457998 -0.72,2.286 -1.998,2.286 -0.846,0 -1.368,-0.450001 -1.368,-1.17 0,-0.756 0.396,-1.116001 1.44,-1.332 l 0.864,-0.162 c 0.666,-0.126 0.774,-0.162001 1.062,-0.306 l 0,0.684"
         style=""
         id="path4477" />
      <path
         d="m 296.33713,61.564944 0,9.72 2.51999,0 0,-5.166 c 0,-1.475999 0.73801,-2.214 2.214,-2.214 0.27,0 0.45001,0.018 0.79201,0.072 l 0,-2.556 c -0.144,-0.018 -0.23401,-0.018 -0.30601,-0.018 -1.15199,0 -2.16,0.756001 -2.7,2.07 l 0,-1.908 -2.51999,0"
         style=""
         id="path4479" />
    </g>
    <g
       transform="translate(-110.14459,67.88685)"
       style="font-size:18px;font-style:normal;font-variant:normal;font-weight:bold;font-stretch:normal;text-align:start;line-height:125%;letter-spacing:0px;word-spacing:0px;text-anchor:start;fill:#000000;fill-opacity:1;stroke:none;font-family:Nimbus Sans L;-inkscape-font-specification:Sans Bold"
       id="flowRoot4404">
      <path
         d="m 255.08225,39.658944 c 0,-1.205999 -0.27,-1.998001 -0.918,-2.718 -0.882,-0.971999 -2.34,-1.494 -4.23,-1.494 -3.15,0 -4.968,1.476002 -4.968,4.032 0,2.033998 1.026,3.024 3.69,3.528 l 1.836,0.36 c 1.8,0.341999 2.466,0.846001 2.466,1.908 0,1.097999 -1.008,1.764 -2.646,1.764 -1.836,0 -2.862,-0.774002 -2.952,-2.178 l -2.628,0 c 0.162,2.807997 2.088,4.338 5.436,4.338 3.384,0 5.382,-1.584003 5.382,-4.248 0,-2.069998 -1.044,-3.150001 -3.474,-3.618 l -2.052,-0.396 c -1.926,-0.378 -2.484,-0.756001 -2.484,-1.71 0,-0.989999 0.882,-1.62 2.268,-1.62 1.71,0 2.664,0.720001 2.754,2.052 l 2.52,0"
         style=""
         id="path4521" />
      <path
         d="m 265.91769,48.784944 0,-9.72 -2.52,0 0,6.084 c 0,1.151998 -0.81,1.908 -2.034,1.908 -1.08,0 -1.62,-0.576002 -1.62,-1.746 l 0,-6.246 -2.52,0 0,6.768 c 0,2.141997 1.188,3.366 3.258,3.366 1.314,0 2.196,-0.486001 2.916,-1.566 l 0,1.152 2.52,0"
         style=""
         id="path4523" />
      <path
         d="m 276.61559,48.478944 c -0.45,-0.414 -0.576,-0.684001 -0.576,-1.188 l 0,-5.4 c 0,-1.979998 -1.35,-2.988 -3.978,-2.988 -2.62799,0 -3.996,1.116002 -4.158,3.366 l 2.43,0 c 0.126,-1.007999 0.54,-1.332 1.782,-1.332 0.972,0 1.458,0.324 1.458,0.972 0,0.323999 -0.162,0.612 -0.432,0.756 -0.342,0.179999 -0.342,0.18 -1.584,0.378 l -1.008,0.18 c -1.92599,0.323999 -2.862,1.314001 -2.862,3.06 0,0.827999 0.234,1.512 0.684,1.998 0.558,0.575999 1.404,0.918 2.268,0.918 1.08,0 2.07,-0.468001 2.952,-1.386 0,0.503999 0.054,0.684 0.288,0.972 l 2.736,0 0,-0.306 m -3.042,-3.6 c 0,1.457998 -0.72,2.286 -1.998,2.286 -0.846,0 -1.368,-0.450001 -1.368,-1.17 0,-0.756 0.396,-1.116001 1.44,-1.332 l 0.864,-0.162 c 0.666,-0.126 0.774,-0.162001 1.062,-0.306 l 0,0.684"
         style=""
         id="path4525" />
      <path
         d="m 283.50312,48.784944 3.34801,-9.72 -2.66401,0 -1.962,7.11 -2.106,-7.11 -2.664,0 3.402,9.72 2.646,0"
         style=""
         id="path4527" />
      <path
         d="m 290.94866,39.064944 -2.52,0 0,9.72 2.52,0 0,-9.72 m 0,-3.402 -2.52,0 0,2.25 2.52,0 0,-2.25"
         style=""
         id="path4529" />
      <path
         d="m 300.47684,39.064944 -7.56,0 0,2.034 4.482,0 -4.806,5.652 0,2.034 8.046,0 0,-2.034 -4.932,0 4.77,-5.652 0,-2.034"
         style=""
         id="path4531" />
      <path
         d="m 310.64684,48.478944 c -0.45,-0.414 -0.576,-0.684001 -0.576,-1.188 l 0,-5.4 c 0,-1.979998 -1.35,-2.988 -3.978,-2.988 -2.62799,0 -3.996,1.116002 -4.158,3.366 l 2.43,0 c 0.126,-1.007999 0.54,-1.332 1.782,-1.332 0.972,0 1.458,0.324 1.458,0.972 0,0.323999 -0.162,0.612 -0.432,0.756 -0.342,0.179999 -0.342,0.18 -1.584,0.378 l -1.008,0.18 c -1.92599,0.323999 -2.862,1.314001 -2.862,3.06 0,0.827999 0.234,1.512 0.684,1.998 0.558,0.575999 1.404,0.918 2.268,0.918 1.08,0 2.07,-0.468001 2.952,-1.386 0,0.503999 0.054,0.684 0.288,0.972 l 2.736,0 0,-0.306 m -3.042,-3.6 c 0,1.457998 -0.72,2.286 -1.998,2.286 -0.846,0 -1.368,-0.450001 -1.368,-1.17 0,-0.756 0.396,-1.116001 1.44,-1.332 l 0.864,-0.162 c 0.666,-0.126 0.774,-0.162001 1.062,-0.306 l 0,0.684"
         style=""
         id="path4533" />
      <path
         d="m 312.36838,39.064944 0,9.72 2.51999,0 0,-5.166 c 0,-1.475999 0.73801,-2.214 2.214,-2.214 0.27,0 0.45001,0.018 0.79201,0.072 l 0,-2.556 c -0.144,-0.018 -0.23401,-0.018 -0.30601,-0.018 -1.15199,0 -2.16,0.756001 -2.7,2.07 l 0,-1.908 -2.51999,0"
         style=""
         id="path4535" />
      <path
         d="m 253.17425,68.638944 0.864,2.646 2.772,0 -4.536,-13.122 -2.988,0 -4.662,13.122 2.754,0 0.882,-2.646 4.914,0 m -0.738,-2.25 -3.42,0 1.71,-5.13 1.71,5.13"
         style=""
         id="path4537" />
      <path
         d="m 266.56006,65.200944 c -0.18,-2.375998 -1.764,-3.798 -4.194,-3.798 -2.89799,0 -4.59,1.908003 -4.59,5.22 0,3.203996 1.67401,5.076 4.554,5.076 2.358,0 3.996,-1.458003 4.23,-3.78 l -2.412,0 c -0.324,1.259998 -0.828,1.746 -1.8,1.746 -1.278,0 -2.052,-1.152002 -2.052,-3.042 0,-0.917999 0.18,-1.782001 0.486,-2.358 0.288,-0.54 0.846,-0.828 1.566,-0.828 1.026,0 1.512,0.486001 1.8,1.764 l 2.412,0"
         style=""
         id="path4539" />
      <path
         d="m 272.60159,61.402944 c -2.96999,0 -4.788,1.962003 -4.788,5.148 0,3.203996 1.81801,5.148 4.806,5.148 2.952,0 4.806,-1.962003 4.806,-5.076 0,-3.293997 -1.782,-5.22 -4.824,-5.22 m 0.018,2.034 c 1.386,0 2.286,1.242002 2.286,3.15 0,1.817998 -0.936,3.078 -2.286,3.078 -1.36799,0 -2.286,-1.260002 -2.286,-3.114 0,-1.853999 0.91801,-3.114 2.286,-3.114"
         style=""
         id="path4541" />
      <path
         d="m 279.2675,61.564944 0,9.72 2.52,0 0,-5.832 c 0,-1.187999 0.648,-1.908 1.728,-1.908 0.846,0 1.368,0.486 1.368,1.26 l 0,6.48 2.52,0 0,-5.832 c 0,-1.187999 0.648,-1.908 1.728,-1.908 0.846,0 1.368,0.486 1.368,1.26 l 0,6.48 2.52,0 0,-6.876 c 0,-1.889998 -1.152,-3.006 -3.096,-3.006 -1.224,0 -2.088,0.432001 -2.844,1.44 -0.468,-0.917999 -1.44,-1.44 -2.646,-1.44 -1.116,0 -1.836,0.378001 -2.664,1.368 l 0,-1.206 -2.502,0"
         style=""
         id="path4543" />
      <path
         d="m 299.60159,61.402944 c -2.96999,0 -4.788,1.962003 -4.788,5.148 0,3.203996 1.81801,5.148 4.806,5.148 2.952,0 4.806,-1.962003 4.806,-5.076 0,-3.293997 -1.782,-5.22 -4.824,-5.22 m 0.018,2.034 c 1.386,0 2.286,1.242002 2.286,3.15 0,1.817998 -0.936,3.078 -2.286,3.078 -1.36799,0 -2.286,-1.260002 -2.286,-3.114 0,-1.853999 0.91801,-3.114 2.286,-3.114"
         style=""
         id="path4545" />
      <path
         d="m 312.4775,71.284944 2.52,0 0,-13.122 -2.52,0 0,4.662 c -0.63,-0.971999 -1.476,-1.422 -2.682,-1.422 -2.322,0 -4.086,2.232003 -4.086,5.166 0,1.313998 0.396,2.646001 1.044,3.582 0.666,0.935999 1.854,1.548 3.042,1.548 1.206,0 2.052,-0.450001 2.682,-1.404 l 0,0.99 m -2.124,-7.776 c 1.278,0 2.124,1.242001 2.124,3.096 0,1.763998 -0.864,2.988 -2.124,2.988 -1.26,0 -2.124,-1.242002 -2.124,-3.024 0,-1.799999 0.864,-3.06 2.124,-3.06"
         style=""
         id="path4547" />
      <path
         d="m 325.62341,70.978944 c -0.45,-0.414 -0.576,-0.684001 -0.576,-1.188 l 0,-5.4 c 0,-1.979998 -1.35001,-2.988 -3.978,-2.988 -2.628,0 -3.996,1.116002 -4.158,3.366 l 2.43,0 c 0.126,-1.007999 0.54,-1.332 1.782,-1.332 0.972,0 1.458,0.324 1.458,0.972 0,0.323999 -0.162,0.612 -0.432,0.756 -0.342,0.179999 -0.342,0.18 -1.584,0.378 l -1.008,0.18 c -1.926,0.323999 -2.862,1.314001 -2.862,3.06 0,0.827999 0.234,1.512 0.684,1.998 0.558,0.575999 1.404,0.918 2.268,0.918 1.08,0 2.07,-0.468001 2.952,-1.386 0,0.503999 0.054,0.684 0.288,0.972 l 2.736,0 0,-0.306 m -3.042,-3.6 c 0,1.457998 -0.72001,2.286 -1.998,2.286 -0.846,0 -1.368,-0.450001 -1.368,-1.17 0,-0.756 0.396,-1.116001 1.44,-1.332 l 0.864,-0.162 c 0.666,-0.126 0.774,-0.162001 1.062,-0.306 l 0,0.684"
         style=""
         id="path4549" />
      <path
         d="m 327.34494,61.564944 0,9.72 2.52,0 0,-5.166 c 0,-1.475999 0.738,-2.214 2.214,-2.214 0.27,0 0.45,0.018 0.792,0.072 l 0,-2.556 c -0.144,-0.018 -0.234,-0.018 -0.306,-0.018 -1.152,0 -2.16,0.756001 -2.7,2.07 l 0,-1.908 -2.52,0"
         style=""
         id="path4551" />
    </g>
    <flowRoot
       xml:space="preserve"
       id="flowRoot4414"
       style="fill:black;stroke:none;stroke-opacity:1;stroke-width:1px;stroke-linejoin:miter;stroke-linecap:butt;fill-opacity:1;font-family:Nimbus Sans L;font-style:normal;font-weight:bold;font-size:22px;line-height:125%;letter-spacing:0px;word-spacing:0px;-inkscape-font-specification:Sans Bold;font-stretch:normal;font-variant:normal;text-anchor:middle;text-align:center"><flowRegion
         id="flowRegion4416"><rect
           id="rect4418"
           width="77.195885"
           height="28.724051"
           x="72.707756"
           y="53.209133" /></flowRegion><flowPara
         id="flowPara4420"></flowPara></flowRoot>    <g
       transform="translate(57.790218,71.556003)"
       style="font-size:22px;font-style:normal;font-variant:normal;font-weight:bold;font-stretch:normal;text-align:center;line-height:125%;letter-spacing:0px;word-spacing:0px;text-anchor:middle;fill:#000000;fill-opacity:1;stroke:none;font-family:Nimbus Sans L;-inkscape-font-specification:Sans Bold"
       id="flowRoot4553">
      <path
         d="m 196.51428,151.42144 c -0.09,-1.134 -0.324,-1.854 -0.882,-2.592 -1.008,-1.332 -2.628,-2.07 -4.59,-2.07 -3.708,0 -6.012,2.64601 -6.012,6.894 0,4.212 2.286,6.858 5.94,6.858 3.258,0 5.436,-1.89 5.598,-4.896 l -2.628,0 c -0.162,1.674 -1.224,2.628 -2.898,2.628 -2.088,0 -3.312,-1.692 -3.312,-4.554 0,-2.89799 1.278,-4.626 3.402,-4.626 0.936,0 1.71,0.324 2.214,0.954 0.288,0.36 0.432,0.702 0.594,1.404 l 2.574,0"
         style="font-size:18px"
         id="path4566" />
      <path
         d="m 202.66409,150.21544 c -2.96999,0 -4.788,1.96201 -4.788,5.148 0,3.204 1.81801,5.148 4.806,5.148 2.952,0 4.806,-1.962 4.806,-5.076 0,-3.29399 -1.782,-5.22 -4.824,-5.22 m 0.018,2.034 c 1.386,0 2.286,1.24201 2.286,3.15 0,1.818 -0.936,3.078 -2.286,3.078 -1.36799,0 -2.286,-1.26 -2.286,-3.114 0,-1.85399 0.91801,-3.114 2.286,-3.114"
         style="font-size:18px"
         id="path4568" />
      <path
         d="m 209.33,150.37744 0,9.72 2.52,0 0,-5.832 c 0,-1.188 0.648,-1.908 1.728,-1.908 0.846,0 1.368,0.486 1.368,1.26 l 0,6.48 2.52,0 0,-5.832 c 0,-1.188 0.648,-1.908 1.728,-1.908 0.846,0 1.368,0.486 1.368,1.26 l 0,6.48 2.52,0 0,-6.876 c 0,-1.88999 -1.152,-3.006 -3.096,-3.006 -1.224,0 -2.088,0.432 -2.844,1.44 -0.468,-0.918 -1.44,-1.44 -2.646,-1.44 -1.116,0 -1.836,0.378 -2.664,1.368 l 0,-1.206 -2.502,0"
         style="font-size:18px"
         id="path4570" />
      <path
         d="m 227.81009,150.37744 -2.52,0 0,13.644 2.52,0 0,-5.076 c 0.612,1.08 1.476,1.584 2.7,1.584 2.34,0 4.068,-2.196 4.068,-5.148 0,-1.368 -0.396,-2.736 -1.044,-3.636 -0.648,-0.918 -1.854,-1.53 -3.024,-1.53 -1.224,0 -2.088,0.522 -2.7,1.602 l 0,-1.44 m 2.124,1.944 c 1.278,0 2.124,1.24201 2.124,3.096 0,1.764 -0.882,3.006 -2.124,3.006 -1.25999,0 -2.124,-1.224 -2.124,-3.042 0,-1.81799 0.86401,-3.06 2.124,-3.06"
         style="font-size:18px"
         id="path4572" />
      <path
         d="m 236.384,150.37744 0,9.72 2.52,0 0,-5.166 c 0,-1.47599 0.738,-2.214 2.214,-2.214 0.27,0 0.45,0.018 0.792,0.072 l 0,-2.556 c -0.144,-0.018 -0.234,-0.018 -0.306,-0.018 -1.152,0 -2.16,0.756 -2.7,2.07 l 0,-1.908 -2.52,0"
         style="font-size:18px"
         id="path4574" />
      <path
         d="m 247.66409,150.21544 c -2.96999,0 -4.788,1.96201 -4.788,5.148 0,3.204 1.81801,5.148 4.806,5.148 2.952,0 4.806,-1.962 4.806,-5.076 0,-3.29399 -1.782,-5.22 -4.824,-5.22 m 0.018,2.034 c 1.386,0 2.286,1.24201 2.286,3.15 0,1.818 -0.936,3.078 -2.286,3.078 -1.36799,0 -2.286,-1.26 -2.286,-3.114 0,-1.85399 0.91801,-3.114 2.286,-3.114"
         style="font-size:18px"
         id="path4576" />
      <path
         d="m 254.33,150.37744 0,9.72 2.52,0 0,-5.832 c 0,-1.188 0.648,-1.908 1.728,-1.908 0.846,0 1.368,0.486 1.368,1.26 l 0,6.48 2.52,0 0,-5.832 c 0,-1.188 0.648,-1.908 1.728,-1.908 0.846,0 1.368,0.486 1.368,1.26 l 0,6.48 2.52,0 0,-6.876 c 0,-1.88999 -1.152,-3.006 -3.096,-3.006 -1.224,0 -2.088,0.432 -2.844,1.44 -0.468,-0.918 -1.44,-1.44 -2.646,-1.44 -1.116,0 -1.836,0.378 -2.664,1.368 l 0,-1.206 -2.502,0"
         style="font-size:18px"
         id="path4578" />
      <path
         d="m 278.67809,156.02944 c 0.018,-0.216 0.018,-0.306 0.018,-0.432 0,-0.972 -0.144,-1.872 -0.378,-2.556 -0.648,-1.76399 -2.214,-2.826 -4.176,-2.826 -2.78999,0 -4.5,2.01601 -4.5,5.274 0,3.114 1.69201,5.022 4.446,5.022 2.178,0 3.942,-1.242 4.5,-3.15 l -2.484,0 c -0.306,0.774 -1.008,1.224 -1.926,1.224 -0.72,0 -1.296,-0.306 -1.656,-0.846 -0.234,-0.36 -0.324,-0.792 -0.36,-1.71 l 6.516,0 m -6.48,-1.674 c 0.162,-1.47599 0.792,-2.214 1.908,-2.214 0.63,0 1.206,0.306 1.566,0.81 0.234,0.36 0.342,0.738 0.396,1.404 l -3.87,0"
         style="font-size:18px"
         id="path4580" />
      <path
         d="m 284.68362,150.57544 -1.404,0 0,-2.61 -2.51999,0 0,2.61 -1.24201,0 0,1.674 1.24201,0 0,5.976 c 0,1.53 0.81,2.286 2.46599,2.286 0.558,0 1.00801,-0.054 1.458,-0.198 l 0,-1.764 c -0.25199,0.036 -0.396,0.054 -0.576,0.054 -0.66599,0 -0.828,-0.198 -0.828,-1.062 l 0,-5.292 1.404,0 0,-1.674"
         style="font-size:18px"
         id="path4582" />
      <path
         d="m 294.70934,156.02944 c 0.018,-0.216 0.018,-0.306 0.018,-0.432 0,-0.972 -0.144,-1.872 -0.378,-2.556 -0.648,-1.76399 -2.214,-2.826 -4.176,-2.826 -2.78999,0 -4.5,2.01601 -4.5,5.274 0,3.114 1.69201,5.022 4.446,5.022 2.178,0 3.942,-1.242 4.5,-3.15 l -2.484,0 c -0.306,0.774 -1.008,1.224 -1.926,1.224 -0.72,0 -1.296,-0.306 -1.656,-0.846 -0.234,-0.36 -0.324,-0.792 -0.36,-1.71 l 6.516,0 m -6.48,-1.674 c 0.162,-1.47599 0.792,-2.214 1.908,-2.214 0.63,0 1.206,0.306 1.566,0.81 0.234,0.36 0.342,0.738 0.396,1.404 l -3.87,0"
         style="font-size:18px"
         id="path4584" />
      <path
         d="m 296.43088,150.37744 0,9.72 2.51999,0 0,-5.166 c 0,-1.47599 0.73801,-2.214 2.214,-2.214 0.27,0 0.45001,0.018 0.79201,0.072 l 0,-2.556 c -0.144,-0.018 -0.23401,-0.018 -0.30601,-0.018 -1.15199,0 -2.16,0.756 -2.7,2.07 l 0,-1.908 -2.51999,0"
         style="font-size:18px"
         id="path4586" />
      <path
         d="m 213.93237,182.59744 2.7,0 0,-13.122 -2.7,0 0,8.928 -5.202,-8.928 -2.772,0 0,13.122 2.7,0 0,-9.072 5.274,9.072"
         style="font-size:18px"
         id="path4588" />
      <path
         d="m 227.17419,178.52944 c 0.018,-0.216 0.018,-0.306 0.018,-0.432 0,-0.972 -0.144,-1.872 -0.378,-2.556 -0.648,-1.76399 -2.214,-2.826 -4.176,-2.826 -2.79,0 -4.5,2.01601 -4.5,5.274 0,3.114 1.692,5.022 4.446,5.022 2.178,0 3.942,-1.242 4.5,-3.15 l -2.484,0 c -0.306,0.774 -1.008,1.224 -1.926,1.224 -0.72,0 -1.296,-0.306 -1.656,-0.846 -0.234,-0.36 -0.324,-0.792 -0.36,-1.71 l 6.516,0 m -6.48,-1.674 c 0.162,-1.47599 0.792,-2.214 1.908,-2.214 0.63,0 1.206,0.306 1.566,0.81 0.234,0.36 0.342,0.738 0.396,1.404 l -3.87,0"
         style="font-size:18px"
         id="path4590" />
      <path
         d="m 235.10572,172.87744 0,1.494 c -0.756,-1.152 -1.584,-1.656 -2.7,-1.656 -2.304,0 -4.032,2.25001 -4.032,5.256 0,3.024 1.584,5.04 3.978,5.04 1.134,0 1.818,-0.342 2.754,-1.404 l 0,1.314 c 0,1.17 -0.882,1.98 -2.142,1.98 -0.954,0 -1.584,-0.396 -1.782,-1.134 l -2.61,0 c 0.018,0.756 0.306,1.278 0.954,1.818 0.774,0.63 1.854,0.936 3.348,0.936 2.934,0 4.626,-1.314 4.626,-3.6 l 0,-10.044 -2.394,0 m -2.16,1.944 c 1.26,0 2.196,1.31401 2.196,3.114 0,1.764 -0.918,2.97 -2.232,2.97 -1.188,0 -2.016,-1.206 -2.016,-2.97 0,-1.83599 0.828,-3.114 2.052,-3.114"
         style="font-size:18px"
         id="path4592" />
      <path
         d="m 244.18362,172.71544 c -2.96999,0 -4.788,1.96201 -4.788,5.148 0,3.204 1.81801,5.148 4.806,5.148 2.952,0 4.806,-1.962 4.806,-5.076 0,-3.29399 -1.782,-5.22 -4.824,-5.22 m 0.018,2.034 c 1.386,0 2.286,1.24201 2.286,3.15 0,1.818 -0.936,3.078 -2.286,3.078 -1.36799,0 -2.286,-1.26 -2.286,-3.114 0,-1.85399 0.91801,-3.114 2.286,-3.114"
         style="font-size:18px"
         id="path4594" />
      <path
         d="m 259.16553,176.51344 c -0.18,-2.37599 -1.764,-3.798 -4.194,-3.798 -2.898,0 -4.59,1.90801 -4.59,5.22 0,3.204 1.674,5.076 4.554,5.076 2.358,0 3.996,-1.458 4.23,-3.78 l -2.412,0 c -0.324,1.26 -0.828,1.746 -1.8,1.746 -1.278,0 -2.052,-1.152 -2.052,-3.042 0,-0.918 0.18,-1.782 0.486,-2.358 0.288,-0.54 0.846,-0.828 1.566,-0.828 1.026,0 1.512,0.486 1.8,1.764 l 2.412,0"
         style="font-size:18px"
         id="path4596" />
      <path
         d="m 263.51506,172.87744 -2.52,0 0,9.72 2.52,0 0,-9.72 m 0,-3.402 -2.52,0 0,2.25 2.52,0 0,-2.25"
         style="font-size:18px"
         id="path4598" />
      <path
         d="m 274.21325,182.29144 c -0.45,-0.414 -0.576,-0.684 -0.576,-1.188 l 0,-5.4 c 0,-1.97999 -1.35,-2.988 -3.978,-2.988 -2.628,0 -3.996,1.11601 -4.158,3.366 l 2.43,0 c 0.126,-1.008 0.54,-1.332 1.782,-1.332 0.972,0 1.458,0.324 1.458,0.972 0,0.324 -0.162,0.612 -0.432,0.756 -0.342,0.18 -0.342,0.18 -1.584,0.378 l -1.008,0.18 c -1.926,0.324 -2.862,1.31401 -2.862,3.06 0,0.828 0.234,1.512 0.684,1.998 0.558,0.576 1.404,0.918 2.268,0.918 1.08,0 2.07,-0.468 2.952,-1.386 0,0.504 0.054,0.684 0.288,0.972 l 2.736,0 0,-0.306 m -3.042,-3.6 c 0,1.458 -0.72,2.286 -1.998,2.286 -0.846,0 -1.368,-0.45 -1.368,-1.17 0,-0.756 0.396,-1.116 1.44,-1.332 l 0.864,-0.162 c 0.666,-0.126 0.774,-0.162 1.062,-0.306 l 0,0.684"
         style="font-size:18px"
         id="path4600" />
      <path
         d="m 275.93478,172.87744 0,9.72 2.52,0 0,-5.166 c 0,-1.47599 0.738,-2.214 2.214,-2.214 0.27,0 0.45,0.018 0.792,0.072 l 0,-2.556 c -0.144,-0.018 -0.234,-0.018 -0.306,-0.018 -1.152,0 -2.16,0.756 -2.7,2.07 l 0,-1.908 -2.52,0"
         style="font-size:18px"
         id="path4602" />
    </g>
    <path
       sodipodi:type="arc"
       style="fill:#e10101;fill-opacity:1;stroke:#000000;stroke-width:0.25;stroke-miterlimit:4;stroke-opacity:1;stroke-dasharray:none"
       id="path4563"
       sodipodi:cx="-299.80728"
       sodipodi:cy="197.72701"
       sodipodi:rx="4.488133"
       sodipodi:ry="4.488133"
       d="m -295.31915,197.72701 a 4.488133,4.488133 0 1 1 -8.97626,0 4.488133,4.488133 0 1 1 8.97626,0 z"
       transform="translate(422.2266,249.85284)" />
    <path
       transform="translate(422.2266,-106.50492)"
       d="m -295.31915,197.72701 a 4.488133,4.488133 0 1 1 -8.97626,0 4.488133,4.488133 0 1 1 8.97626,0 z"
       sodipodi:ry="4.488133"
       sodipodi:rx="4.488133"
       sodipodi:cy="197.72701"
       sodipodi:cx="-299.80728"
       id="path4604"
       style="fill:#e10101;fill-opacity:1;stroke:#000000;stroke-width:0.25;stroke-miterlimit:4;stroke-opacity:1;stroke-dasharray:none"
       sodipodi:type="arc" />
    <path
       sodipodi:type="arc"
       style="fill:#e10101;fill-opacity:1;stroke:#000000;stroke-width:0.25;stroke-miterlimit:4;stroke-opacity:1;stroke-dasharray:none"
       id="path4606"
       sodipodi:cx="-299.80728"
       sodipodi:cy="197.72701"
       sodipodi:rx="4.488133"
       sodipodi:ry="4.488133"
       d="m -295.31915,197.72701 a 4.488133,4.488133 0 1 1 -8.97626,0 4.488133,4.488133 0 1 1 8.97626,0 z"
       transform="translate(779.48199,-105.60729)" />
    <path
       transform="translate(779.48199,249.85283)"
       d="m -295.31915,197.72701 a 4.488133,4.488133 0 1 1 -8.97626,0 4.488133,4.488133 0 1 1 8.97626,0 z"
       sodipodi:ry="4.488133"
       sodipodi:rx="4.488133"
       sodipodi:cy="197.72701"
       sodipodi:cx="-299.80728"
       id="path4608"
       style="fill:#e10101;fill-opacity:1;stroke:#000000;stroke-width:0.25;stroke-miterlimit:4;stroke-opacity:1;stroke-dasharray:none"
       sodipodi:type="arc" />
    <path
       sodipodi:type="arc"
       style="fill:#e10101;fill-opacity:1;stroke:#000000;stroke-width:0.25;stroke-miterlimit:4;stroke-opacity:1;stroke-dasharray:none"
       id="path4610"
       sodipodi:cx="-299.80728"
       sodipodi:cy="197.72701"
       sodipodi:rx="4.488133"
       sodipodi:ry="4.488133"
       d="m -295.31915,197.72701 a 4.488133,4.488133 0 1 1 -8.97626,0 4.488133,4.488133 0 1 1 8.97626,0 z"
       transform="translate(600.8543,72.122769)" />
  </g>
</svg>
