<?xml version="1.0" encoding="UTF-8" standalone="no"?>
<!-- Created with Inkscape (http://www.inkscape.org/) -->

<svg
   xmlns:dc="http://purl.org/dc/elements/1.1/"
   xmlns:cc="http://creativecommons.org/ns#"
   xmlns:rdf="http://www.w3.org/1999/02/22-rdf-syntax-ns#"
   xmlns:svg="http://www.w3.org/2000/svg"
   xmlns="http://www.w3.org/2000/svg"
   xmlns:sodipodi="http://sodipodi.sourceforge.net/DTD/sodipodi-0.dtd"
   xmlns:inkscape="http://www.inkscape.org/namespaces/inkscape"
   width="1052.3622"
   height="744.09448"
   id="svg2"
   version="1.1"
   inkscape:version="0.48.3.1 r9886"
   sodipodi:docname="New document 1">
  <defs
     id="defs4" />
  <sodipodi:namedview
     id="base"
     pagecolor="#ffffff"
     bordercolor="#666666"
     borderopacity="1.0"
     inkscape:pageopacity="0.0"
     inkscape:pageshadow="2"
     inkscape:zoom="0.77733858"
     inkscape:cx="751.05991"
     inkscape:cy="286.66072"
     inkscape:document-units="px"
     inkscape:current-layer="layer1"
     showgrid="false"
     showguides="true"
     inkscape:guide-bbox="true"
     inkscape:window-width="1916"
     inkscape:window-height="1041"
     inkscape:window-x="0"
     inkscape:window-y="18"
     inkscape:window-maximized="0">
    <sodipodi:guide
       orientation="0,1"
       position="492.7068,366.63561"
       id="guide3128" />
  </sodipodi:namedview>
  <metadata
     id="metadata7">
    <rdf:RDF>
      <cc:Work
         rdf:about="">
        <dc:format>image/svg+xml</dc:format>
        <dc:type
           rdf:resource="http://purl.org/dc/dcmitype/StillImage" />
        <dc:title></dc:title>
      </cc:Work>
    </rdf:RDF>
  </metadata>
  <g
     inkscape:label="Layer 1"
     inkscape:groupmode="layer"
     id="layer1"
     transform="translate(0,-308.2677)"
     sodipodi:insensitive="true">
    <g
       id="g3009"
       style="fill:none">
      <path
         inkscape:transform-center-x="-3.6283782e-05"
         transform="matrix(-0.59143358,1.024393,-1.024393,-0.59143358,914.81453,721.06383)"
         inkscape:transform-center-y="-116.85984"
         d="m 562.23158,449.94968 -684.46316,0 L 220,-142.81281 z"
         inkscape:randomized="0"
         inkscape:rounded="0"
         inkscape:flatsided="true"
         sodipodi:arg2="1.5707963"
         sodipodi:arg1="0.52359878"
         sodipodi:r2="197.58749"
         sodipodi:r1="395.17499"
         sodipodi:cy="252.36218"
         sodipodi:cx="220"
         sodipodi:sides="3"
         id="path2985"
         style="fill:none;stroke:#000000;stroke-width:3;stroke-miterlimit:4;stroke-opacity:1;stroke-dasharray:none;stroke-dashoffset:0"
         sodipodi:type="star" />
      <path
         sodipodi:nodetypes="cc"
         inkscape:connector-curvature="0"
         id="path2989"
         d="M 930.88185,1030.3636 525.77825,797.03818"
         style="color:#000000;fill:none;stroke:#000000;stroke-width:2;stroke-linecap:butt;stroke-linejoin:miter;stroke-miterlimit:4;stroke-opacity:1;stroke-dasharray:none;stroke-dashoffset:0;marker:none;visibility:visible;display:inline;overflow:visible;enable-background:accumulate" />
      <path
         sodipodi:nodetypes="cc"
         inkscape:connector-curvature="0"
         id="path2995"
         d="M 121.88332,1031.0615 525.77825,797.11061"
         style="color:#000000;fill:none;stroke:#000000;stroke-width:2;stroke-linecap:butt;stroke-linejoin:miter;stroke-miterlimit:4;stroke-opacity:1;stroke-dasharray:none;stroke-dashoffset:0;marker:none;visibility:visible;display:inline;overflow:visible;enable-background:accumulate" />
      <path
         transform="translate(0,308.2677)"
         inkscape:connector-curvature="0"
         id="path3004"
         d="m 525.77825,22.741274 0,466.650936"
         style="color:#000000;fill:none;stroke:#000000;stroke-width:2;stroke-linecap:butt;stroke-linejoin:miter;stroke-miterlimit:4;stroke-opacity:1;stroke-dasharray:none;stroke-dashoffset:0;marker:none;visibility:visible;display:inline;overflow:visible;enable-background:accumulate" />
    </g>
    <flowRoot
       xml:space="preserve"
       id="flowRoot3015"
       style="font-size:28px;font-style:normal;font-variant:normal;font-weight:bold;font-stretch:normal;text-align:center;line-height:125%;letter-spacing:0px;word-spacing:0px;text-anchor:middle;fill:#000000;fill-opacity:1;stroke:none;font-family:Ubuntu;-inkscape-font-specification:Ubuntu Bold"
       transform="translate(0,308.2677)"><flowRegion
         id="flowRegion3017"><rect
           id="rect3019"
           width="365.34915"
           height="234.13222"
           x="6.4322038"
           y="8.250391"
           style="font-size:28px;font-style:normal;font-variant:normal;font-weight:bold;font-stretch:normal;font-family:Ubuntu;-inkscape-font-specification:Ubuntu Bold" /></flowRegion><flowPara
         id="flowPara3021"></flowPara></flowRoot>    <flowRoot
       xml:space="preserve"
       id="flowRoot3023"
       style="font-size:22px;font-style:normal;font-variant:normal;font-weight:bold;font-stretch:normal;text-align:center;line-height:125%;letter-spacing:0px;word-spacing:0px;text-anchor:middle;fill:#000000;fill-opacity:1;stroke:none;font-family:Nimbus Sans L;-inkscape-font-specification:Sans Bold"
       transform="translate(0,308.2677)"><flowRegion
         id="flowRegion3025"><rect
           id="rect3027"
           width="50.171188"
           height="82.332207"
           x="15.437288"
           y="17.255476" /></flowRegion><flowPara
         id="flowPara3029"></flowPara></flowRoot>    <path
       style="fill:#ff5555;fill-opacity:1;stroke:none"
       d="m 128.67989,716.03509 c 0,-0.52523 88.71617,-154.62456 197.14704,-342.44295 L 522.97397,32.104156 523.29916,259.57783 c 0.25864,180.92601 -0.005,227.78164 -1.28644,228.97873 -0.8864,0.82777 -87.86748,51.41703 -193.2913,112.42057 -105.42381,61.00354 -193.56108,112.06243 -195.8606,113.46422 -2.29951,1.40179 -4.18093,2.11897 -4.18093,1.59374 z"
       id="path3930"
       inkscape:connector-curvature="0"
       transform="translate(0,308.2677)" />
    <path
       style="fill:#8dd35f;fill-opacity:1;stroke:none"
       d="M 724.30194,601.12007 528.11974,488.09203 527.79458,258.7385 c -0.17883,-126.14444 -0.0955,-229.110731 0.18527,-228.813973 0.96663,1.021809 394.43397,682.974843 394.43397,683.628383 0,0.35993 -0.43418,0.64109 -0.96483,0.62482 -0.53066,-0.0163 -89.24683,-50.89223 -197.14705,-113.05766 z"
       id="path3932"
       inkscape:connector-curvature="0"
       transform="translate(0,308.2677)" />
    <path
       style="fill:#5599ff;fill-opacity:1;stroke:none"
       d="m 130.07354,720.16948 c 1.73957,-1.52551 393.20974,-227.71992 394.85491,-228.15014 1.47551,-0.38585 395.43893,225.0333 398.66461,228.10908 0.2948,0.28111 -178.24709,0.51111 -396.75977,0.51111 -218.51267,0 -397.05456,-0.21153 -396.75975,-0.47005 z"
       id="path3934"
       inkscape:connector-curvature="0"
       transform="translate(0,308.2677)" />
  </g>
  <g
     inkscape:groupmode="layer"
     id="layer2"
     inkscape:label="text"
     style="display:inline">
    <g
       id="g3102"
       transform="translate(222.00221,89.08616)">
      <path
         d="m 122.45531,355.79346 c -0.29335,-0.96 -0.62669,-1.94667 -1,-2.96 -0.34668,-1.01333 -0.69335,-2.02667 -1.04,-3.04 l -10.8,0 c -0.34667,1.01333 -0.70667,2.02667 -1.08,3.04 -0.34667,1.01333 -0.66667,2 -0.96,2.96 l -6.48,0 c 1.04,-2.98667 2.02667,-5.74667 2.96,-8.28 0.93333,-2.53333 1.84,-4.91999 2.72,-7.16 0.90666,-2.23999 1.78666,-4.35998 2.64,-6.36 0.87999,-2.02665 1.78666,-3.99998 2.72,-5.92 l 5.96,0 c 0.90665,1.92002 1.79998,3.89335 2.68,5.92 0.87998,2.00002 1.75998,4.12001 2.64,6.36 0.90665,2.24001 1.82664,4.62667 2.76,7.16 0.93331,2.53333 1.91998,5.29333 2.96,8.28 l -6.68,0 m -7.48,-21.44 c -0.13334,0.40002 -0.33334,0.94668 -0.6,1.64 -0.26668,0.69335 -0.57334,1.49335 -0.92,2.4 -0.34668,0.90668 -0.73334,1.90668 -1.16,3 -0.40001,1.09334 -0.81334,2.24001 -1.24,3.44 l 7.88,0 c -0.42668,-1.19999 -0.84001,-2.34666 -1.24,-3.44 -0.40001,-1.09332 -0.78668,-2.09332 -1.16,-3 -0.34668,-0.90665 -0.65335,-1.70665 -0.92,-2.4 -0.26668,-0.69332 -0.48001,-1.23998 -0.64,-1.64"
         style="font-size:40px;font-style:normal;font-variant:normal;font-weight:bold;font-stretch:normal;text-align:center;line-height:125%;letter-spacing:0px;word-spacing:0px;text-anchor:middle;fill:#000000;fill-opacity:1;stroke:none;font-family:Ubuntu;-inkscape-font-specification:Ubuntu Bold"
         id="path3048"
         inkscape:connector-curvature="0" />
      <path
         d="m 140.72344,356.19346 c -1.73335,-0.0267 -3.14668,-0.21334 -4.24,-0.56 -1.06668,-0.34667 -1.92001,-0.82667 -2.56,-1.44 -0.61334,-0.64 -1.04001,-1.4 -1.28,-2.28 -0.21334,-0.90667 -0.32001,-1.92 -0.32,-3.04 l 0,-23.16 5.96,-0.96 0,22.92 c -1e-5,0.53334 0.04,1.01334 0.12,1.44 0.08,0.42667 0.22666,0.78667 0.44,1.08 0.23999,0.29333 0.57332,0.53333 1,0.72 0.42665,0.18667 0.99999,0.30667 1.72,0.36 l -0.84,4.92"
         style="font-size:40px;font-style:normal;font-variant:normal;font-weight:bold;font-stretch:normal;text-align:center;line-height:125%;letter-spacing:0px;word-spacing:0px;text-anchor:middle;fill:#000000;fill-opacity:1;stroke:none;font-family:Ubuntu;-inkscape-font-specification:Ubuntu Bold"
         id="path3050"
         inkscape:connector-curvature="0" />
      <path
         d="m 143.97969,345.27346 c 0,-1.51999 0.24,-2.94666 0.72,-4.28 0.50666,-1.35999 1.22666,-2.53332 2.16,-3.52 0.93333,-1.01332 2.06666,-1.81332 3.4,-2.4 1.33332,-0.58665 2.85332,-0.87998 4.56,-0.88 1.11998,2e-5 2.14665,0.10668 3.08,0.32 0.93331,0.18668 1.83998,0.46668 2.72,0.84 l -1.24,4.76 c -0.56002,-0.21332 -1.17335,-0.39999 -1.84,-0.56 -0.66668,-0.15999 -1.41335,-0.23999 -2.24,-0.24 -1.76001,10e-6 -3.08001,0.54668 -3.96,1.64 -0.85334,1.09334 -1.28001,2.53334 -1.28,4.32 -1e-5,1.89334 0.39999,3.36 1.2,4.4 0.82665,1.04 2.25332,1.56 4.28,1.56 0.71998,0 1.49332,-0.0667 2.32,-0.2 0.82665,-0.13333 1.58665,-0.34666 2.28,-0.64 l 0.84,4.88 c -0.69335,0.29333 -1.56002,0.54666 -2.6,0.76 -1.04002,0.21333 -2.18668,0.32 -3.44,0.32 -1.92001,0 -3.57335,-0.28 -4.96,-0.84 -1.38668,-0.58667 -2.53334,-1.37334 -3.44,-2.36 -0.88001,-0.98667 -1.53334,-2.14667 -1.96,-3.48 -0.4,-1.36 -0.6,-2.82666 -0.6,-4.4"
         style="font-size:40px;font-style:normal;font-variant:normal;font-weight:bold;font-stretch:normal;text-align:center;line-height:125%;letter-spacing:0px;word-spacing:0px;text-anchor:middle;fill:#000000;fill-opacity:1;stroke:none;font-family:Ubuntu;-inkscape-font-specification:Ubuntu Bold"
         id="path3052"
         inkscape:connector-curvature="0" />
      <path
         d="m 172.00406,351.63346 c 0.58666,0 1.14666,-0.0133 1.68,-0.04 0.53332,-0.0267 0.95999,-0.0667 1.28,-0.12 l 0,-4.52 c -0.24001,-0.0533 -0.60001,-0.10666 -1.08,-0.16 -0.48001,-0.0533 -0.92001,-0.08 -1.32,-0.08 -0.56001,0 -1.09334,0.04 -1.6,0.12 -0.48001,0.0533 -0.90667,0.17334 -1.28,0.36 -0.37334,0.18667 -0.66667,0.44 -0.88,0.76 -0.21334,0.32 -0.32,0.72 -0.32,1.2 0,0.93333 0.30666,1.58667 0.92,1.96 0.63999,0.34667 1.50666,0.52 2.6,0.52 m -0.48,-17.44 c 1.75999,2e-5 3.22666,0.20002 4.4,0.6 1.17332,0.40002 2.10665,0.97335 2.8,1.72 0.71998,0.74668 1.22665,1.65335 1.52,2.72 0.29332,1.06668 0.43998,2.25334 0.44,3.56 l 0,12.4 c -0.85335,0.18666 -2.04001,0.4 -3.56,0.64 -1.52001,0.26666 -3.36001,0.4 -5.52,0.4 -1.36001,0 -2.60001,-0.12 -3.72,-0.36 -1.09334,-0.24 -2.04,-0.62667 -2.84,-1.16 -0.8,-0.56 -1.41333,-1.28 -1.84,-2.16 -0.42667,-0.88 -0.64,-1.96 -0.64,-3.24 0,-1.22666 0.24,-2.26666 0.72,-3.12 0.50667,-0.85333 1.17333,-1.53333 2,-2.04 0.82666,-0.50666 1.77333,-0.86666 2.84,-1.08 1.06666,-0.23999 2.17333,-0.35999 3.32,-0.36 0.77332,10e-6 1.45332,0.04 2.04,0.12 0.61332,0.0534 1.10666,0.13334 1.48,0.24 l 0,-0.56 c -1e-5,-1.01332 -0.30668,-1.82666 -0.92,-2.44 -0.61334,-0.61332 -1.68001,-0.91999 -3.2,-0.92 -1.01334,1e-5 -2.01334,0.08 -3,0.24 -0.98667,0.13335 -1.84,0.33335 -2.56,0.6 l -0.76,-4.8 c 0.34667,-0.10665 0.77333,-0.21332 1.28,-0.32 0.53333,-0.13332 1.10666,-0.23998 1.72,-0.32 0.61333,-0.10665 1.25333,-0.18665 1.92,-0.24 0.69333,-0.08 1.38666,-0.11998 2.08,-0.12"
         style="font-size:40px;font-style:normal;font-variant:normal;font-weight:bold;font-stretch:normal;text-align:center;line-height:125%;letter-spacing:0px;word-spacing:0px;text-anchor:middle;fill:#000000;fill-opacity:1;stroke:none;font-family:Ubuntu;-inkscape-font-specification:Ubuntu Bold"
         id="path3054"
         inkscape:connector-curvature="0" />
      <path
         d="m 186.07344,335.47346 c 1.01333,-0.29332 2.31999,-0.55998 3.92,-0.8 1.59999,-0.26665 3.27999,-0.39998 5.04,-0.4 1.78665,2e-5 3.26665,0.24002 4.44,0.72 1.19998,0.45335 2.14665,1.10668 2.84,1.96 0.69331,0.85335 1.18664,1.86668 1.48,3.04 0.29331,1.17334 0.43998,2.48001 0.44,3.92 l 0,11.88 -5.96,0 0,-11.16 c -2e-5,-1.91999 -0.25335,-3.27999 -0.76,-4.08 -0.50668,-0.79999 -1.45335,-1.19999 -2.84,-1.2 -0.42668,1e-5 -0.88001,0.0267 -1.36,0.08 -0.48001,0.0267 -0.90668,0.0667 -1.28,0.12 l 0,16.24 -5.96,0 0,-20.32"
         style="font-size:40px;font-style:normal;font-variant:normal;font-weight:bold;font-stretch:normal;text-align:center;line-height:125%;letter-spacing:0px;word-spacing:0px;text-anchor:middle;fill:#000000;fill-opacity:1;stroke:none;font-family:Ubuntu;-inkscape-font-specification:Ubuntu Bold"
         id="path3056"
         inkscape:connector-curvature="0" />
      <path
         d="m 208.66719,345.27346 c 0,-1.51999 0.24,-2.94666 0.72,-4.28 0.50666,-1.35999 1.22666,-2.53332 2.16,-3.52 0.93333,-1.01332 2.06666,-1.81332 3.4,-2.4 1.33332,-0.58665 2.85332,-0.87998 4.56,-0.88 1.11998,2e-5 2.14665,0.10668 3.08,0.32 0.93331,0.18668 1.83998,0.46668 2.72,0.84 l -1.24,4.76 c -0.56002,-0.21332 -1.17335,-0.39999 -1.84,-0.56 -0.66668,-0.15999 -1.41335,-0.23999 -2.24,-0.24 -1.76001,10e-6 -3.08001,0.54668 -3.96,1.64 -0.85334,1.09334 -1.28001,2.53334 -1.28,4.32 -1e-5,1.89334 0.39999,3.36 1.2,4.4 0.82665,1.04 2.25332,1.56 4.28,1.56 0.71998,0 1.49332,-0.0667 2.32,-0.2 0.82665,-0.13333 1.58665,-0.34666 2.28,-0.64 l 0.84,4.88 c -0.69335,0.29333 -1.56002,0.54666 -2.6,0.76 -1.04002,0.21333 -2.18668,0.32 -3.44,0.32 -1.92001,0 -3.57335,-0.28 -4.96,-0.84 -1.38668,-0.58667 -2.53334,-1.37334 -3.44,-2.36 -0.88001,-0.98667 -1.53334,-2.14667 -1.96,-3.48 -0.4,-1.36 -0.6,-2.82666 -0.6,-4.4"
         style="font-size:40px;font-style:normal;font-variant:normal;font-weight:bold;font-stretch:normal;text-align:center;line-height:125%;letter-spacing:0px;word-spacing:0px;text-anchor:middle;fill:#000000;fill-opacity:1;stroke:none;font-family:Ubuntu;-inkscape-font-specification:Ubuntu Bold"
         id="path3058"
         inkscape:connector-curvature="0" />
      <path
         d="m 227.65156,345.43346 c 0,-1.86666 0.28,-3.49332 0.84,-4.88 0.58667,-1.41332 1.34667,-2.58665 2.28,-3.52 0.93333,-0.93332 2,-1.63998 3.2,-2.12 1.22666,-0.47998 2.47999,-0.71998 3.76,-0.72 2.98665,2e-5 5.34665,0.92002 7.08,2.76 1.73332,1.81335 2.59998,4.49334 2.6,8.04 -2e-5,0.34667 -0.0134,0.73334 -0.04,1.16 -0.0267,0.4 -0.0533,0.76 -0.08,1.08 l -13.52,0 c 0.13333,1.22667 0.70666,2.2 1.72,2.92 1.01333,0.72 2.37332,1.08 4.08,1.08 1.09332,0 2.15999,-0.0933 3.2,-0.28 1.06665,-0.21333 1.93332,-0.46667 2.6,-0.76 l 0.8,4.84 c -0.32002,0.16 -0.74668,0.32 -1.28,0.48 -0.53335,0.16 -1.13335,0.29333 -1.8,0.4 -0.64001,0.13333 -1.33335,0.24 -2.08,0.32 -0.74668,0.08 -1.49334,0.12 -2.24,0.12 -1.89334,0 -3.54667,-0.28 -4.96,-0.84 -1.38667,-0.56 -2.54667,-1.32 -3.48,-2.28 -0.90667,-0.98667 -1.58667,-2.14667 -2.04,-3.48 -0.42667,-1.33333 -0.64,-2.77333 -0.64,-4.32 m 14,-2.28 c -0.0267,-0.50666 -0.12001,-0.99999 -0.28,-1.48 -0.13335,-0.47999 -0.36001,-0.90666 -0.68,-1.28 -0.29335,-0.37332 -0.68001,-0.67999 -1.16,-0.92 -0.45334,-0.23999 -1.02668,-0.35999 -1.72,-0.36 -0.66668,1e-5 -1.24001,0.12001 -1.72,0.36 -0.48001,0.21335 -0.88001,0.50668 -1.2,0.88 -0.32001,0.37334 -0.57334,0.81334 -0.76,1.32 -0.16001,0.48001 -0.28001,0.97334 -0.36,1.48 l 7.88,0"
         style="font-size:40px;font-style:normal;font-variant:normal;font-weight:bold;font-stretch:normal;text-align:center;line-height:125%;letter-spacing:0px;word-spacing:0px;text-anchor:middle;fill:#000000;fill-opacity:1;stroke:none;font-family:Ubuntu;-inkscape-font-specification:Ubuntu Bold"
         id="path3060"
         inkscape:connector-curvature="0" />
    </g>
    <g
       id="g3111"
       transform="translate(479.84239,-7.24057)">
      <path
         d="m 127.54125,428.07346 0,5.32 -8.36,0 0,22.4 -6.24,0 0,-22.4 -8.36,0 0,-5.32 22.96,0"
         style="font-size:40px;font-style:normal;font-variant:normal;font-weight:bold;font-stretch:normal;text-align:center;line-height:125%;letter-spacing:0px;word-spacing:0px;text-anchor:middle;fill:#000000;fill-opacity:1;stroke:none;font-family:Ubuntu;-inkscape-font-specification:Ubuntu Bold"
         id="path3062"
         inkscape:connector-curvature="0" />
      <path
         d="m 137.0725,455.79346 -5.96,0 0,-21.04 5.96,0 0,21.04 m 0.56,-27.12 c -1e-5,1.09336 -0.36001,1.96002 -1.08,2.6 -0.69334,0.61335 -1.52001,0.92002 -2.48,0.92 -0.96,2e-5 -1.8,-0.30665 -2.52,-0.92 -0.69334,-0.63998 -1.04,-1.50664 -1.04,-2.6 0,-1.09331 0.34666,-1.94664 1.04,-2.56 0.72,-0.63997 1.56,-0.95997 2.52,-0.96 0.95999,3e-5 1.78666,0.32003 2.48,0.96 0.71999,0.61336 1.07999,1.46669 1.08,2.56"
         style="font-size:40px;font-style:normal;font-variant:normal;font-weight:bold;font-stretch:normal;text-align:center;line-height:125%;letter-spacing:0px;word-spacing:0px;text-anchor:middle;fill:#000000;fill-opacity:1;stroke:none;font-family:Ubuntu;-inkscape-font-specification:Ubuntu Bold"
         id="path3064"
         inkscape:connector-curvature="0" />
      <path
         d="m 141.675,445.43346 c 0,-1.86666 0.28,-3.49332 0.84,-4.88 0.58666,-1.41332 1.34666,-2.58665 2.28,-3.52 0.93333,-0.93332 1.99999,-1.63998 3.2,-2.12 1.22666,-0.47998 2.47999,-0.71998 3.76,-0.72 2.98665,2e-5 5.34665,0.92002 7.08,2.76 1.73331,1.81335 2.59998,4.49334 2.6,8.04 -2e-5,0.34667 -0.0134,0.73334 -0.04,1.16 -0.0267,0.40001 -0.0534,0.76 -0.08,1.08 l -13.52,0 c 0.13333,1.22667 0.70666,2.2 1.72,2.92 1.01332,0.72 2.37332,1.08 4.08,1.08 1.09332,0 2.15998,-0.0933 3.2,-0.28 1.06665,-0.21333 1.93331,-0.46667 2.6,-0.76 l 0.8,4.84 c -0.32002,0.16 -0.74669,0.32 -1.28,0.48 -0.53335,0.16 -1.13335,0.29333 -1.8,0.4 -0.64002,0.13333 -1.33335,0.24 -2.08,0.32 -0.74668,0.08 -1.49335,0.12 -2.24,0.12 -1.89334,0 -3.54668,-0.28 -4.96,-0.84 -1.38667,-0.56 -2.54667,-1.32 -3.48,-2.28 -0.90667,-0.98667 -1.58667,-2.14667 -2.04,-3.48 -0.42667,-1.33333 -0.64,-2.77333 -0.64,-4.32 m 14,-2.28 c -0.0267,-0.50666 -0.12002,-0.99999 -0.28,-1.48 -0.13335,-0.47999 -0.36002,-0.90666 -0.68,-1.28 -0.29335,-0.37332 -0.68001,-0.67999 -1.16,-0.92 -0.45335,-0.23999 -1.02668,-0.35999 -1.72,-0.36 -0.66668,1e-5 -1.24001,0.12001 -1.72,0.36 -0.48001,0.21335 -0.88001,0.50668 -1.2,0.88 -0.32001,0.37334 -0.57334,0.81334 -0.76,1.32 -0.16001,0.48001 -0.28001,0.97334 -0.36,1.48 l 7.88,0"
         style="font-size:40px;font-style:normal;font-variant:normal;font-weight:bold;font-stretch:normal;text-align:center;line-height:125%;letter-spacing:0px;word-spacing:0px;text-anchor:middle;fill:#000000;fill-opacity:1;stroke:none;font-family:Ubuntu;-inkscape-font-specification:Ubuntu Bold"
         id="path3066"
         inkscape:connector-curvature="0" />
      <path
         d="m 177.59438,444.63346 c -2e-5,-1.91999 -0.25335,-3.27999 -0.76001,-4.08 -0.48001,-0.79999 -1.32001,-1.19999 -2.52,-1.2 -0.37334,1e-5 -0.76001,0.0267 -1.16,0.08 -0.4,0.0267 -0.78667,0.0667 -1.16,0.12 l 0,16.24 -5.96,0 0,-20.32 c 0.50667,-0.13332 1.09333,-0.26665 1.76,-0.4 0.69333,-0.15998 1.41333,-0.29332 2.16,-0.4 0.77333,-0.13332 1.56,-0.22665 2.36,-0.28 0.8,-0.08 1.58666,-0.11998 2.36,-0.12 1.51999,2e-5 2.74666,0.20002 3.68,0.6 0.95999,0.37335 1.74665,0.82668 2.36,1.36 0.85332,-0.61332 1.82665,-1.09332 2.92,-1.44 1.11998,-0.34665 2.14665,-0.51998 3.08,-0.52 1.67998,2e-5 3.05331,0.24002 4.12,0.72 1.09331,0.45335 1.95998,1.10668 2.6,1.96 0.63997,0.85335 1.07997,1.86668 1.32,3.04 0.23997,1.17334 0.35997,2.48001 0.36,3.92 l 0,11.88 -5.95999,0 0,-11.16 c -3e-5,-1.91999 -0.25336,-3.27999 -0.76001,-4.08 -0.48002,-0.79999 -1.32002,-1.19999 -2.52,-1.2 -0.32002,1e-5 -0.77335,0.08 -1.36,0.24 -0.56002,0.16001 -1.02668,0.36001 -1.4,0.6 0.18665,0.61334 0.30665,1.26668 0.36,1.96 0.0533,0.66668 0.08,1.38668 0.08,2.16 l 0,11.48 -5.95999,0 0,-11.16"
         style="font-size:40px;font-style:normal;font-variant:normal;font-weight:bold;font-stretch:normal;text-align:center;line-height:125%;letter-spacing:0px;word-spacing:0px;text-anchor:middle;fill:#000000;fill-opacity:1;stroke:none;font-family:Ubuntu;-inkscape-font-specification:Ubuntu Bold"
         id="path3068"
         inkscape:connector-curvature="0" />
      <path
         d="m 213.9675,445.43346 c -2e-5,-1.83999 -0.41335,-3.30666 -1.24,-4.4 -0.82668,-1.11999 -2.05335,-1.67999 -3.68,-1.68 -0.53334,1e-5 -1.02668,0.0267 -1.48,0.08 -0.45334,0.0267 -0.82668,0.0667 -1.12,0.12 l 0,10.76 c 0.37332,0.24 0.85332,0.44 1.44,0.6 0.61332,0.16 1.22666,0.24 1.84,0.24 2.82665,0 4.23998,-1.90666 4.24,-5.72 m 6.08,-0.16 c -2e-5,1.62667 -0.20002,3.10667 -0.6,4.44 -0.40002,1.33333 -0.98669,2.48 -1.76,3.44 -0.77335,0.96 -1.73335,1.70666 -2.88,2.24 -1.14668,0.53333 -2.46668,0.8 -3.96,0.8 -0.82668,0 -1.60001,-0.08 -2.32,-0.24 -0.72001,-0.16 -1.41334,-0.38667 -2.08,-0.68 l 0,7.92 -5.96,0 0,-27.72 c 0.53333,-0.15998 1.14666,-0.30665 1.84,-0.44 0.69333,-0.15998 1.41333,-0.29332 2.16,-0.4 0.77333,-0.10665 1.54666,-0.18665 2.32,-0.24 0.79999,-0.08 1.55999,-0.11998 2.28,-0.12 1.73332,2e-5 3.27999,0.26668 4.64,0.8 1.35998,0.50668 2.50665,1.24002 3.44,2.2 0.93331,0.93335 1.63998,2.08001 2.12,3.44 0.50664,1.36001 0.75998,2.88001 0.76,4.56"
         style="font-size:40px;font-style:normal;font-variant:normal;font-weight:bold;font-stretch:normal;text-align:center;line-height:125%;letter-spacing:0px;word-spacing:0px;text-anchor:middle;fill:#000000;fill-opacity:1;stroke:none;font-family:Ubuntu;-inkscape-font-specification:Ubuntu Bold"
         id="path3070"
         inkscape:connector-curvature="0" />
      <path
         d="m 244.30813,445.23346 c -3e-5,1.65334 -0.24003,3.17334 -0.72001,4.56 -0.48002,1.36 -1.17335,2.53333 -2.08,3.52 -0.90668,0.96 -2.00001,1.70666 -3.28,2.24 -1.25334,0.53333 -2.66668,0.8 -4.24,0.8 -1.54667,0 -2.96,-0.26667 -4.24,-0.8 -1.25334,-0.53334 -2.33333,-1.28 -3.24,-2.24 -0.90667,-0.98667 -1.61333,-2.16 -2.12,-3.52 -0.50666,-1.38666 -0.76,-2.90666 -0.76,-4.56 0,-1.65333 0.25334,-3.15999 0.76,-4.52 0.53334,-1.35999 1.25333,-2.51999 2.16,-3.48 0.93333,-0.95998 2.02666,-1.70665 3.28,-2.24 1.28,-0.53332 2.66666,-0.79998 4.16,-0.8 1.51999,2e-5 2.90666,0.26668 4.16,0.8 1.27999,0.53335 2.37332,1.28002 3.28,2.24 0.90665,0.96001 1.61332,2.12001 2.12,3.48 0.50665,1.36001 0.75998,2.86667 0.76001,4.52 m -6.08001,0 c -1e-5,-1.83999 -0.37334,-3.27999 -1.12,-4.32 -0.72001,-1.06665 -1.76001,-1.59999 -3.12,-1.6 -1.36001,10e-6 -2.41334,0.53335 -3.16,1.6 -0.74667,1.04001 -1.12,2.48001 -1.12,4.32 0,1.84 0.37333,3.30667 1.12,4.4 0.74666,1.06667 1.79999,1.6 3.16,1.6 1.35999,0 2.39999,-0.53333 3.12,-1.6 0.74666,-1.09333 1.11999,-2.56 1.12,-4.4"
         style="font-size:40px;font-style:normal;font-variant:normal;font-weight:bold;font-stretch:normal;text-align:center;line-height:125%;letter-spacing:0px;word-spacing:0px;text-anchor:middle;fill:#000000;fill-opacity:1;stroke:none;font-family:Ubuntu;-inkscape-font-specification:Ubuntu Bold"
         id="path3072"
         inkscape:connector-curvature="0" />
    </g>
    <g
       id="g3119"
       transform="translate(350.62204,86.12234)">
      <path
         d="m 136.06656,556.35346 c -4.50668,0 -7.94667,-1.25334 -10.32,-3.76 -2.34667,-2.50666 -3.52,-6.06666 -3.52,-10.68 0,-2.29332 0.36,-4.33332 1.08,-6.12 0.72,-1.81332 1.70666,-3.33331 2.96,-4.56 1.25333,-1.25331 2.74666,-2.19998 4.48,-2.84 1.73332,-0.63998 3.61332,-0.95998 5.64,-0.96 1.17332,2e-5 2.23998,0.0934 3.2,0.28 0.95998,0.16002 1.79998,0.36002 2.52,0.6 0.71998,0.21336 1.31998,0.44002 1.8,0.68 0.47998,0.24002 0.82664,0.42669 1.04,0.56 l -1.8,5.04 c -0.85335,-0.45332 -1.85335,-0.83998 -3,-1.16 -1.12002,-0.31998 -2.40002,-0.47998 -3.84,-0.48 -0.96001,2e-5 -1.90668,0.16002 -2.84,0.48 -0.90668,0.32002 -1.72001,0.84002 -2.44,1.56 -0.69334,0.69335 -1.25334,1.60002 -1.68,2.72 -0.42667,1.12001 -0.64001,2.48001 -0.64,4.08 -1e-5,1.28001 0.13333,2.48001 0.4,3.6 0.29333,1.09334 0.74666,2.04 1.36,2.84 0.63999,0.8 1.46666,1.44 2.48,1.92 1.01332,0.45333 2.23999,0.68 3.68,0.68 0.90665,0 1.71998,-0.0533 2.44,-0.16 0.71998,-0.10667 1.35998,-0.22667 1.92,-0.36 0.55998,-0.16 1.05331,-0.33333 1.48,-0.52 0.42665,-0.18666 0.81331,-0.36 1.16,-0.52 l 1.72,5 c -0.88002,0.53333 -2.12002,1.01333 -3.72,1.44 -1.60002,0.42666 -3.45335,0.64 -5.56,0.64"
         style="font-size:40px;font-style:normal;font-variant:normal;font-weight:bold;font-stretch:normal;text-align:center;line-height:125%;letter-spacing:0px;word-spacing:0px;text-anchor:middle;fill:#000000;fill-opacity:1;stroke:none;font-family:Ubuntu;-inkscape-font-specification:Ubuntu Bold"
         id="path3074"
         inkscape:connector-curvature="0" />
      <path
         d="m 168.17531,545.23346 c -2e-5,1.65334 -0.24002,3.17334 -0.72,4.56 -0.48002,1.36 -1.17335,2.53333 -2.08,3.52 -0.90668,0.96 -2.00002,1.70666 -3.28,2.24 -1.25335,0.53333 -2.66668,0.8 -4.24,0.8 -1.54667,0 -2.96001,-0.26667 -4.24,-0.8 -1.25334,-0.53334 -2.33334,-1.28 -3.24,-2.24 -0.90667,-0.98667 -1.61333,-2.16 -2.12,-3.52 -0.50667,-1.38666 -0.76,-2.90666 -0.76,-4.56 0,-1.65333 0.25333,-3.15999 0.76,-4.52 0.53333,-1.35999 1.25333,-2.51999 2.16,-3.48 0.93333,-0.95998 2.02666,-1.70665 3.28,-2.24 1.27999,-0.53332 2.66666,-0.79998 4.16,-0.8 1.51999,2e-5 2.90665,0.26668 4.16,0.8 1.27998,0.53335 2.37332,1.28002 3.28,2.24 0.90665,0.96001 1.61331,2.12001 2.12,3.48 0.50665,1.36001 0.75998,2.86667 0.76,4.52 m -6.08,0 c -1e-5,-1.83999 -0.37335,-3.27999 -1.12,-4.32 -0.72001,-1.06665 -1.76001,-1.59999 -3.12,-1.6 -1.36001,1e-5 -2.41334,0.53335 -3.16,1.6 -0.74667,1.04001 -1.12001,2.48001 -1.12,4.32 -1e-5,1.84 0.37333,3.30667 1.12,4.4 0.74666,1.06667 1.79999,1.6 3.16,1.6 1.35999,0 2.39999,-0.53333 3.12,-1.6 0.74665,-1.09333 1.11999,-2.56 1.12,-4.4"
         style="font-size:40px;font-style:normal;font-variant:normal;font-weight:bold;font-stretch:normal;text-align:center;line-height:125%;letter-spacing:0px;word-spacing:0px;text-anchor:middle;fill:#000000;fill-opacity:1;stroke:none;font-family:Ubuntu;-inkscape-font-specification:Ubuntu Bold"
         id="path3076"
         inkscape:connector-curvature="0" />
      <path
         d="m 178.83219,551.51346 c 1.09332,0 1.86665,-0.10667 2.32,-0.32 0.45332,-0.21333 0.67999,-0.62667 0.68,-1.24 -1e-5,-0.48 -0.29335,-0.89333 -0.88,-1.24 -0.58668,-0.37333 -1.48001,-0.78666 -2.68,-1.24 -0.93334,-0.34666 -1.78668,-0.70666 -2.56,-1.08 -0.74667,-0.37333 -1.38667,-0.81333 -1.92,-1.32 -0.53334,-0.53333 -0.94667,-1.15999 -1.24,-1.88 -0.29334,-0.71999 -0.44,-1.58666 -0.44,-2.6 0,-1.97332 0.73333,-3.53332 2.2,-4.68 1.46666,-1.14665 3.47999,-1.71998 6.04,-1.72 1.27999,2e-5 2.50665,0.12002 3.68,0.36 1.17332,0.21335 2.10665,0.45335 2.8,0.72 l -1.04,4.64 c -0.69335,-0.23999 -1.45335,-0.45332 -2.28,-0.64 -0.80002,-0.18665 -1.70668,-0.27999 -2.72,-0.28 -1.86668,10e-6 -2.80001,0.52001 -2.8,1.56 -1e-5,0.24001 0.04,0.45334 0.12,0.64 0.08,0.18668 0.23999,0.37334 0.48,0.56 0.23999,0.16001 0.55999,0.34668 0.96,0.56 0.42665,0.18668 0.95999,0.40001 1.6,0.64 1.30665,0.48001 2.38665,0.96001 3.24,1.44 0.85332,0.45334 1.51998,0.96001 2,1.52 0.50665,0.53334 0.85331,1.13334 1.04,1.8 0.21331,0.66667 0.31998,1.44 0.32,2.32 -2e-5,2.08 -0.78669,3.65333 -2.36,4.72 -1.54668,1.06666 -3.74668,1.6 -6.6,1.6 -1.86668,0 -3.42667,-0.16 -4.68,-0.48 -1.22667,-0.32 -2.08,-0.58667 -2.56,-0.8 l 1,-4.84 c 1.01333,0.4 2.05333,0.72 3.12,0.96 1.06666,0.21333 2.11999,0.32 3.16,0.32"
         style="font-size:40px;font-style:normal;font-variant:normal;font-weight:bold;font-stretch:normal;text-align:center;line-height:125%;letter-spacing:0px;word-spacing:0px;text-anchor:middle;fill:#000000;fill-opacity:1;stroke:none;font-family:Ubuntu;-inkscape-font-specification:Ubuntu Bold"
         id="path3078"
         inkscape:connector-curvature="0" />
      <path
         d="m 191.96719,529.51346 5.96,-0.96 0,6.2 7.16,0 0,4.96 -7.16,0 0,7.4 c -1e-5,1.25334 0.21332,2.25334 0.64,3 0.45332,0.74667 1.34665,1.12 2.68,1.12 0.63998,0 1.29332,-0.0533 1.96,-0.16 0.69332,-0.13333 1.31998,-0.30667 1.88,-0.52 l 0.84,4.64 c -0.72002,0.29333 -1.52002,0.54666 -2.4,0.76 -0.88002,0.21333 -1.96001,0.32 -3.24,0.32 -1.62668,0 -2.97334,-0.21334 -4.04,-0.64 -1.06667,-0.45334 -1.92001,-1.06667 -2.56,-1.84 -0.64001,-0.8 -1.09334,-1.76 -1.36,-2.88 -0.24001,-1.12 -0.36001,-2.36 -0.36,-3.72 l 0,-17.68"
         style="font-size:40px;font-style:normal;font-variant:normal;font-weight:bold;font-stretch:normal;text-align:center;line-height:125%;letter-spacing:0px;word-spacing:0px;text-anchor:middle;fill:#000000;fill-opacity:1;stroke:none;font-family:Ubuntu;-inkscape-font-specification:Ubuntu Bold"
         id="path3080"
         inkscape:connector-curvature="0" />
      <path
         d="m 208.12031,545.43346 c 0,-1.86666 0.28,-3.49332 0.84,-4.88 0.58667,-1.41332 1.34667,-2.58665 2.28,-3.52 0.93333,-0.93332 2,-1.63998 3.2,-2.12 1.22666,-0.47998 2.47999,-0.71998 3.76,-0.72 2.98665,2e-5 5.34665,0.92002 7.08,2.76 1.73332,1.81335 2.59998,4.49334 2.6,8.04 -2e-5,0.34667 -0.0134,0.73334 -0.04,1.16 -0.0267,0.40001 -0.0533,0.76 -0.08,1.08 l -13.52,0 c 0.13333,1.22667 0.70666,2.2 1.72,2.92 1.01333,0.72 2.37332,1.08 4.08,1.08 1.09332,0 2.15999,-0.0933 3.2,-0.28 1.06665,-0.21333 1.93332,-0.46667 2.6,-0.76 l 0.8,4.84 c -0.32002,0.16 -0.74668,0.32 -1.28,0.48 -0.53335,0.16 -1.13335,0.29333 -1.8,0.4 -0.64001,0.13333 -1.33335,0.24 -2.08,0.32 -0.74668,0.08 -1.49334,0.12 -2.24,0.12 -1.89334,0 -3.54667,-0.28 -4.96,-0.84 -1.38667,-0.56 -2.54667,-1.32 -3.48,-2.28 -0.90667,-0.98667 -1.58667,-2.14667 -2.04,-3.48 -0.42667,-1.33333 -0.64,-2.77333 -0.64,-4.32 m 14,-2.28 c -0.0267,-0.50666 -0.12001,-0.99999 -0.28,-1.48 -0.13335,-0.47999 -0.36001,-0.90666 -0.68,-1.28 -0.29335,-0.37332 -0.68001,-0.67999 -1.16,-0.92 -0.45334,-0.23999 -1.02668,-0.35999 -1.72,-0.36 -0.66668,10e-6 -1.24001,0.12001 -1.72,0.36 -0.48001,0.21335 -0.88001,0.50668 -1.2,0.88 -0.32001,0.37334 -0.57334,0.81334 -0.76,1.32 -0.16001,0.48001 -0.28001,0.97334 -0.36,1.48 l 7.88,0"
         style="font-size:40px;font-style:normal;font-variant:normal;font-weight:bold;font-stretch:normal;text-align:center;line-height:125%;letter-spacing:0px;word-spacing:0px;text-anchor:middle;fill:#000000;fill-opacity:1;stroke:none;font-family:Ubuntu;-inkscape-font-specification:Ubuntu Bold"
         id="path3082"
         inkscape:connector-curvature="0" />
    </g>
    <g
       transform="translate(222.00221,89.08616)"
       id="g3936"
       style="stroke-width:2;stroke-miterlimit:4;stroke-dasharray:none;stroke:#ffffff;stroke-opacity:1">
      <path
         inkscape:connector-curvature="0"
         id="path3938"
         style="font-size:40px;font-style:normal;font-variant:normal;font-weight:bold;font-stretch:normal;text-align:center;line-height:125%;letter-spacing:0px;word-spacing:0px;text-anchor:middle;fill:#000000;fill-opacity:1;stroke:#ffffff;font-family:Ubuntu;-inkscape-font-specification:Ubuntu Bold;stroke-width:2;stroke-miterlimit:4;stroke-dasharray:none;stroke-opacity:1"
         d="m 122.45531,355.79346 c -0.29335,-0.96 -0.62669,-1.94667 -1,-2.96 -0.34668,-1.01333 -0.69335,-2.02667 -1.04,-3.04 l -10.8,0 c -0.34667,1.01333 -0.70667,2.02667 -1.08,3.04 -0.34667,1.01333 -0.66667,2 -0.96,2.96 l -6.48,0 c 1.04,-2.98667 2.02667,-5.74667 2.96,-8.28 0.93333,-2.53333 1.84,-4.91999 2.72,-7.16 0.90666,-2.23999 1.78666,-4.35998 2.64,-6.36 0.87999,-2.02665 1.78666,-3.99998 2.72,-5.92 l 5.96,0 c 0.90665,1.92002 1.79998,3.89335 2.68,5.92 0.87998,2.00002 1.75998,4.12001 2.64,6.36 0.90665,2.24001 1.82664,4.62667 2.76,7.16 0.93331,2.53333 1.91998,5.29333 2.96,8.28 l -6.68,0 m -7.48,-21.44 c -0.13334,0.40002 -0.33334,0.94668 -0.6,1.64 -0.26668,0.69335 -0.57334,1.49335 -0.92,2.4 -0.34668,0.90668 -0.73334,1.90668 -1.16,3 -0.40001,1.09334 -0.81334,2.24001 -1.24,3.44 l 7.88,0 c -0.42668,-1.19999 -0.84001,-2.34666 -1.24,-3.44 -0.40001,-1.09332 -0.78668,-2.09332 -1.16,-3 -0.34668,-0.90665 -0.65335,-1.70665 -0.92,-2.4 -0.26668,-0.69332 -0.48001,-1.23998 -0.64,-1.64" />
      <path
         inkscape:connector-curvature="0"
         id="path3940"
         style="font-size:40px;font-style:normal;font-variant:normal;font-weight:bold;font-stretch:normal;text-align:center;line-height:125%;letter-spacing:0px;word-spacing:0px;text-anchor:middle;fill:#000000;fill-opacity:1;stroke:#ffffff;font-family:Ubuntu;-inkscape-font-specification:Ubuntu Bold;stroke-width:2;stroke-miterlimit:4;stroke-dasharray:none;stroke-opacity:1"
         d="m 140.72344,356.19346 c -1.73335,-0.0267 -3.14668,-0.21334 -4.24,-0.56 -1.06668,-0.34667 -1.92001,-0.82667 -2.56,-1.44 -0.61334,-0.64 -1.04001,-1.4 -1.28,-2.28 -0.21334,-0.90667 -0.32001,-1.92 -0.32,-3.04 l 0,-23.16 5.96,-0.96 0,22.92 c -1e-5,0.53334 0.04,1.01334 0.12,1.44 0.08,0.42667 0.22666,0.78667 0.44,1.08 0.23999,0.29333 0.57332,0.53333 1,0.72 0.42665,0.18667 0.99999,0.30667 1.72,0.36 l -0.84,4.92" />
      <path
         inkscape:connector-curvature="0"
         id="path3942"
         style="font-size:40px;font-style:normal;font-variant:normal;font-weight:bold;font-stretch:normal;text-align:center;line-height:125%;letter-spacing:0px;word-spacing:0px;text-anchor:middle;fill:#000000;fill-opacity:1;stroke:#ffffff;font-family:Ubuntu;-inkscape-font-specification:Ubuntu Bold;stroke-width:2;stroke-miterlimit:4;stroke-dasharray:none;stroke-opacity:1"
         d="m 143.97969,345.27346 c 0,-1.51999 0.24,-2.94666 0.72,-4.28 0.50666,-1.35999 1.22666,-2.53332 2.16,-3.52 0.93333,-1.01332 2.06666,-1.81332 3.4,-2.4 1.33332,-0.58665 2.85332,-0.87998 4.56,-0.88 1.11998,2e-5 2.14665,0.10668 3.08,0.32 0.93331,0.18668 1.83998,0.46668 2.72,0.84 l -1.24,4.76 c -0.56002,-0.21332 -1.17335,-0.39999 -1.84,-0.56 -0.66668,-0.15999 -1.41335,-0.23999 -2.24,-0.24 -1.76001,10e-6 -3.08001,0.54668 -3.96,1.64 -0.85334,1.09334 -1.28001,2.53334 -1.28,4.32 -1e-5,1.89334 0.39999,3.36 1.2,4.4 0.82665,1.04 2.25332,1.56 4.28,1.56 0.71998,0 1.49332,-0.0667 2.32,-0.2 0.82665,-0.13333 1.58665,-0.34666 2.28,-0.64 l 0.84,4.88 c -0.69335,0.29333 -1.56002,0.54666 -2.6,0.76 -1.04002,0.21333 -2.18668,0.32 -3.44,0.32 -1.92001,0 -3.57335,-0.28 -4.96,-0.84 -1.38668,-0.58667 -2.53334,-1.37334 -3.44,-2.36 -0.88001,-0.98667 -1.53334,-2.14667 -1.96,-3.48 -0.4,-1.36 -0.6,-2.82666 -0.6,-4.4" />
      <path
         inkscape:connector-curvature="0"
         id="path3944"
         style="font-size:40px;font-style:normal;font-variant:normal;font-weight:bold;font-stretch:normal;text-align:center;line-height:125%;letter-spacing:0px;word-spacing:0px;text-anchor:middle;fill:#000000;fill-opacity:1;stroke:#ffffff;font-family:Ubuntu;-inkscape-font-specification:Ubuntu Bold;stroke-width:2;stroke-miterlimit:4;stroke-dasharray:none;stroke-opacity:1"
         d="m 172.00406,351.63346 c 0.58666,0 1.14666,-0.0133 1.68,-0.04 0.53332,-0.0267 0.95999,-0.0667 1.28,-0.12 l 0,-4.52 c -0.24001,-0.0533 -0.60001,-0.10666 -1.08,-0.16 -0.48001,-0.0533 -0.92001,-0.08 -1.32,-0.08 -0.56001,0 -1.09334,0.04 -1.6,0.12 -0.48001,0.0533 -0.90667,0.17334 -1.28,0.36 -0.37334,0.18667 -0.66667,0.44 -0.88,0.76 -0.21334,0.32 -0.32,0.72 -0.32,1.2 0,0.93333 0.30666,1.58667 0.92,1.96 0.63999,0.34667 1.50666,0.52 2.6,0.52 m -0.48,-17.44 c 1.75999,2e-5 3.22666,0.20002 4.4,0.6 1.17332,0.40002 2.10665,0.97335 2.8,1.72 0.71998,0.74668 1.22665,1.65335 1.52,2.72 0.29332,1.06668 0.43998,2.25334 0.44,3.56 l 0,12.4 c -0.85335,0.18666 -2.04001,0.4 -3.56,0.64 -1.52001,0.26666 -3.36001,0.4 -5.52,0.4 -1.36001,0 -2.60001,-0.12 -3.72,-0.36 -1.09334,-0.24 -2.04,-0.62667 -2.84,-1.16 -0.8,-0.56 -1.41333,-1.28 -1.84,-2.16 -0.42667,-0.88 -0.64,-1.96 -0.64,-3.24 0,-1.22666 0.24,-2.26666 0.72,-3.12 0.50667,-0.85333 1.17333,-1.53333 2,-2.04 0.82666,-0.50666 1.77333,-0.86666 2.84,-1.08 1.06666,-0.23999 2.17333,-0.35999 3.32,-0.36 0.77332,10e-6 1.45332,0.04 2.04,0.12 0.61332,0.0534 1.10666,0.13334 1.48,0.24 l 0,-0.56 c -1e-5,-1.01332 -0.30668,-1.82666 -0.92,-2.44 -0.61334,-0.61332 -1.68001,-0.91999 -3.2,-0.92 -1.01334,1e-5 -2.01334,0.08 -3,0.24 -0.98667,0.13335 -1.84,0.33335 -2.56,0.6 l -0.76,-4.8 c 0.34667,-0.10665 0.77333,-0.21332 1.28,-0.32 0.53333,-0.13332 1.10666,-0.23998 1.72,-0.32 0.61333,-0.10665 1.25333,-0.18665 1.92,-0.24 0.69333,-0.08 1.38666,-0.11998 2.08,-0.12" />
      <path
         inkscape:connector-curvature="0"
         id="path3946"
         style="font-size:40px;font-style:normal;font-variant:normal;font-weight:bold;font-stretch:normal;text-align:center;line-height:125%;letter-spacing:0px;word-spacing:0px;text-anchor:middle;fill:#000000;fill-opacity:1;stroke:#ffffff;font-family:Ubuntu;-inkscape-font-specification:Ubuntu Bold;stroke-width:2;stroke-miterlimit:4;stroke-dasharray:none;stroke-opacity:1"
         d="m 186.07344,335.47346 c 1.01333,-0.29332 2.31999,-0.55998 3.92,-0.8 1.59999,-0.26665 3.27999,-0.39998 5.04,-0.4 1.78665,2e-5 3.26665,0.24002 4.44,0.72 1.19998,0.45335 2.14665,1.10668 2.84,1.96 0.69331,0.85335 1.18664,1.86668 1.48,3.04 0.29331,1.17334 0.43998,2.48001 0.44,3.92 l 0,11.88 -5.96,0 0,-11.16 c -2e-5,-1.91999 -0.25335,-3.27999 -0.76,-4.08 -0.50668,-0.79999 -1.45335,-1.19999 -2.84,-1.2 -0.42668,1e-5 -0.88001,0.0267 -1.36,0.08 -0.48001,0.0267 -0.90668,0.0667 -1.28,0.12 l 0,16.24 -5.96,0 0,-20.32" />
      <path
         inkscape:connector-curvature="0"
         id="path3948"
         style="font-size:40px;font-style:normal;font-variant:normal;font-weight:bold;font-stretch:normal;text-align:center;line-height:125%;letter-spacing:0px;word-spacing:0px;text-anchor:middle;fill:#000000;fill-opacity:1;stroke:#ffffff;font-family:Ubuntu;-inkscape-font-specification:Ubuntu Bold;stroke-width:2;stroke-miterlimit:4;stroke-dasharray:none;stroke-opacity:1"
         d="m 208.66719,345.27346 c 0,-1.51999 0.24,-2.94666 0.72,-4.28 0.50666,-1.35999 1.22666,-2.53332 2.16,-3.52 0.93333,-1.01332 2.06666,-1.81332 3.4,-2.4 1.33332,-0.58665 2.85332,-0.87998 4.56,-0.88 1.11998,2e-5 2.14665,0.10668 3.08,0.32 0.93331,0.18668 1.83998,0.46668 2.72,0.84 l -1.24,4.76 c -0.56002,-0.21332 -1.17335,-0.39999 -1.84,-0.56 -0.66668,-0.15999 -1.41335,-0.23999 -2.24,-0.24 -1.76001,10e-6 -3.08001,0.54668 -3.96,1.64 -0.85334,1.09334 -1.28001,2.53334 -1.28,4.32 -1e-5,1.89334 0.39999,3.36 1.2,4.4 0.82665,1.04 2.25332,1.56 4.28,1.56 0.71998,0 1.49332,-0.0667 2.32,-0.2 0.82665,-0.13333 1.58665,-0.34666 2.28,-0.64 l 0.84,4.88 c -0.69335,0.29333 -1.56002,0.54666 -2.6,0.76 -1.04002,0.21333 -2.18668,0.32 -3.44,0.32 -1.92001,0 -3.57335,-0.28 -4.96,-0.84 -1.38668,-0.58667 -2.53334,-1.37334 -3.44,-2.36 -0.88001,-0.98667 -1.53334,-2.14667 -1.96,-3.48 -0.4,-1.36 -0.6,-2.82666 -0.6,-4.4" />
      <path
         inkscape:connector-curvature="0"
         id="path3950"
         style="font-size:40px;font-style:normal;font-variant:normal;font-weight:bold;font-stretch:normal;text-align:center;line-height:125%;letter-spacing:0px;word-spacing:0px;text-anchor:middle;fill:#000000;fill-opacity:1;stroke:#ffffff;font-family:Ubuntu;-inkscape-font-specification:Ubuntu Bold;stroke-width:2;stroke-miterlimit:4;stroke-dasharray:none;stroke-opacity:1"
         d="m 227.65156,345.43346 c 0,-1.86666 0.28,-3.49332 0.84,-4.88 0.58667,-1.41332 1.34667,-2.58665 2.28,-3.52 0.93333,-0.93332 2,-1.63998 3.2,-2.12 1.22666,-0.47998 2.47999,-0.71998 3.76,-0.72 2.98665,2e-5 5.34665,0.92002 7.08,2.76 1.73332,1.81335 2.59998,4.49334 2.6,8.04 -2e-5,0.34667 -0.0134,0.73334 -0.04,1.16 -0.0267,0.4 -0.0533,0.76 -0.08,1.08 l -13.52,0 c 0.13333,1.22667 0.70666,2.2 1.72,2.92 1.01333,0.72 2.37332,1.08 4.08,1.08 1.09332,0 2.15999,-0.0933 3.2,-0.28 1.06665,-0.21333 1.93332,-0.46667 2.6,-0.76 l 0.8,4.84 c -0.32002,0.16 -0.74668,0.32 -1.28,0.48 -0.53335,0.16 -1.13335,0.29333 -1.8,0.4 -0.64001,0.13333 -1.33335,0.24 -2.08,0.32 -0.74668,0.08 -1.49334,0.12 -2.24,0.12 -1.89334,0 -3.54667,-0.28 -4.96,-0.84 -1.38667,-0.56 -2.54667,-1.32 -3.48,-2.28 -0.90667,-0.98667 -1.58667,-2.14667 -2.04,-3.48 -0.42667,-1.33333 -0.64,-2.77333 -0.64,-4.32 m 14,-2.28 c -0.0267,-0.50666 -0.12001,-0.99999 -0.28,-1.48 -0.13335,-0.47999 -0.36001,-0.90666 -0.68,-1.28 -0.29335,-0.37332 -0.68001,-0.67999 -1.16,-0.92 -0.45334,-0.23999 -1.02668,-0.35999 -1.72,-0.36 -0.66668,1e-5 -1.24001,0.12001 -1.72,0.36 -0.48001,0.21335 -0.88001,0.50668 -1.2,0.88 -0.32001,0.37334 -0.57334,0.81334 -0.76,1.32 -0.16001,0.48001 -0.28001,0.97334 -0.36,1.48 l 7.88,0" />
    </g>
    <g
       transform="translate(479.84239,-7.24057)"
       id="g3952"
       style="stroke-width:2;stroke-miterlimit:4;stroke-dasharray:none;stroke:#ffffff;stroke-opacity:1">
      <path
         inkscape:connector-curvature="0"
         id="path3954"
         style="font-size:40px;font-style:normal;font-variant:normal;font-weight:bold;font-stretch:normal;text-align:center;line-height:125%;letter-spacing:0px;word-spacing:0px;text-anchor:middle;fill:#000000;fill-opacity:1;stroke:#ffffff;font-family:Ubuntu;-inkscape-font-specification:Ubuntu Bold;stroke-width:2;stroke-miterlimit:4;stroke-dasharray:none;stroke-opacity:1"
         d="m 127.54125,428.07346 0,5.32 -8.36,0 0,22.4 -6.24,0 0,-22.4 -8.36,0 0,-5.32 22.96,0" />
      <path
         inkscape:connector-curvature="0"
         id="path3956"
         style="font-size:40px;font-style:normal;font-variant:normal;font-weight:bold;font-stretch:normal;text-align:center;line-height:125%;letter-spacing:0px;word-spacing:0px;text-anchor:middle;fill:#000000;fill-opacity:1;stroke:#ffffff;font-family:Ubuntu;-inkscape-font-specification:Ubuntu Bold;stroke-width:2;stroke-miterlimit:4;stroke-dasharray:none;stroke-opacity:1"
         d="m 137.0725,455.79346 -5.96,0 0,-21.04 5.96,0 0,21.04 m 0.56,-27.12 c -1e-5,1.09336 -0.36001,1.96002 -1.08,2.6 -0.69334,0.61335 -1.52001,0.92002 -2.48,0.92 -0.96,2e-5 -1.8,-0.30665 -2.52,-0.92 -0.69334,-0.63998 -1.04,-1.50664 -1.04,-2.6 0,-1.09331 0.34666,-1.94664 1.04,-2.56 0.72,-0.63997 1.56,-0.95997 2.52,-0.96 0.95999,3e-5 1.78666,0.32003 2.48,0.96 0.71999,0.61336 1.07999,1.46669 1.08,2.56" />
      <path
         inkscape:connector-curvature="0"
         id="path3958"
         style="font-size:40px;font-style:normal;font-variant:normal;font-weight:bold;font-stretch:normal;text-align:center;line-height:125%;letter-spacing:0px;word-spacing:0px;text-anchor:middle;fill:#000000;fill-opacity:1;stroke:#ffffff;font-family:Ubuntu;-inkscape-font-specification:Ubuntu Bold;stroke-width:2;stroke-miterlimit:4;stroke-dasharray:none;stroke-opacity:1"
         d="m 141.675,445.43346 c 0,-1.86666 0.28,-3.49332 0.84,-4.88 0.58666,-1.41332 1.34666,-2.58665 2.28,-3.52 0.93333,-0.93332 1.99999,-1.63998 3.2,-2.12 1.22666,-0.47998 2.47999,-0.71998 3.76,-0.72 2.98665,2e-5 5.34665,0.92002 7.08,2.76 1.73331,1.81335 2.59998,4.49334 2.6,8.04 -2e-5,0.34667 -0.0134,0.73334 -0.04,1.16 -0.0267,0.40001 -0.0534,0.76 -0.08,1.08 l -13.52,0 c 0.13333,1.22667 0.70666,2.2 1.72,2.92 1.01332,0.72 2.37332,1.08 4.08,1.08 1.09332,0 2.15998,-0.0933 3.2,-0.28 1.06665,-0.21333 1.93331,-0.46667 2.6,-0.76 l 0.8,4.84 c -0.32002,0.16 -0.74669,0.32 -1.28,0.48 -0.53335,0.16 -1.13335,0.29333 -1.8,0.4 -0.64002,0.13333 -1.33335,0.24 -2.08,0.32 -0.74668,0.08 -1.49335,0.12 -2.24,0.12 -1.89334,0 -3.54668,-0.28 -4.96,-0.84 -1.38667,-0.56 -2.54667,-1.32 -3.48,-2.28 -0.90667,-0.98667 -1.58667,-2.14667 -2.04,-3.48 -0.42667,-1.33333 -0.64,-2.77333 -0.64,-4.32 m 14,-2.28 c -0.0267,-0.50666 -0.12002,-0.99999 -0.28,-1.48 -0.13335,-0.47999 -0.36002,-0.90666 -0.68,-1.28 -0.29335,-0.37332 -0.68001,-0.67999 -1.16,-0.92 -0.45335,-0.23999 -1.02668,-0.35999 -1.72,-0.36 -0.66668,1e-5 -1.24001,0.12001 -1.72,0.36 -0.48001,0.21335 -0.88001,0.50668 -1.2,0.88 -0.32001,0.37334 -0.57334,0.81334 -0.76,1.32 -0.16001,0.48001 -0.28001,0.97334 -0.36,1.48 l 7.88,0" />
      <path
         inkscape:connector-curvature="0"
         id="path3960"
         style="font-size:40px;font-style:normal;font-variant:normal;font-weight:bold;font-stretch:normal;text-align:center;line-height:125%;letter-spacing:0px;word-spacing:0px;text-anchor:middle;fill:#000000;fill-opacity:1;stroke:#ffffff;font-family:Ubuntu;-inkscape-font-specification:Ubuntu Bold;stroke-width:2;stroke-miterlimit:4;stroke-dasharray:none;stroke-opacity:1"
         d="m 177.59438,444.63346 c -2e-5,-1.91999 -0.25335,-3.27999 -0.76001,-4.08 -0.48001,-0.79999 -1.32001,-1.19999 -2.52,-1.2 -0.37334,1e-5 -0.76001,0.0267 -1.16,0.08 -0.4,0.0267 -0.78667,0.0667 -1.16,0.12 l 0,16.24 -5.96,0 0,-20.32 c 0.50667,-0.13332 1.09333,-0.26665 1.76,-0.4 0.69333,-0.15998 1.41333,-0.29332 2.16,-0.4 0.77333,-0.13332 1.56,-0.22665 2.36,-0.28 0.8,-0.08 1.58666,-0.11998 2.36,-0.12 1.51999,2e-5 2.74666,0.20002 3.68,0.6 0.95999,0.37335 1.74665,0.82668 2.36,1.36 0.85332,-0.61332 1.82665,-1.09332 2.92,-1.44 1.11998,-0.34665 2.14665,-0.51998 3.08,-0.52 1.67998,2e-5 3.05331,0.24002 4.12,0.72 1.09331,0.45335 1.95998,1.10668 2.6,1.96 0.63997,0.85335 1.07997,1.86668 1.32,3.04 0.23997,1.17334 0.35997,2.48001 0.36,3.92 l 0,11.88 -5.95999,0 0,-11.16 c -3e-5,-1.91999 -0.25336,-3.27999 -0.76001,-4.08 -0.48002,-0.79999 -1.32002,-1.19999 -2.52,-1.2 -0.32002,1e-5 -0.77335,0.08 -1.36,0.24 -0.56002,0.16001 -1.02668,0.36001 -1.4,0.6 0.18665,0.61334 0.30665,1.26668 0.36,1.96 0.0533,0.66668 0.08,1.38668 0.08,2.16 l 0,11.48 -5.95999,0 0,-11.16" />
      <path
         inkscape:connector-curvature="0"
         id="path3962"
         style="font-size:40px;font-style:normal;font-variant:normal;font-weight:bold;font-stretch:normal;text-align:center;line-height:125%;letter-spacing:0px;word-spacing:0px;text-anchor:middle;fill:#000000;fill-opacity:1;stroke:#ffffff;font-family:Ubuntu;-inkscape-font-specification:Ubuntu Bold;stroke-width:2;stroke-miterlimit:4;stroke-dasharray:none;stroke-opacity:1"
         d="m 213.9675,445.43346 c -2e-5,-1.83999 -0.41335,-3.30666 -1.24,-4.4 -0.82668,-1.11999 -2.05335,-1.67999 -3.68,-1.68 -0.53334,1e-5 -1.02668,0.0267 -1.48,0.08 -0.45334,0.0267 -0.82668,0.0667 -1.12,0.12 l 0,10.76 c 0.37332,0.24 0.85332,0.44 1.44,0.6 0.61332,0.16 1.22666,0.24 1.84,0.24 2.82665,0 4.23998,-1.90666 4.24,-5.72 m 6.08,-0.16 c -2e-5,1.62667 -0.20002,3.10667 -0.6,4.44 -0.40002,1.33333 -0.98669,2.48 -1.76,3.44 -0.77335,0.96 -1.73335,1.70666 -2.88,2.24 -1.14668,0.53333 -2.46668,0.8 -3.96,0.8 -0.82668,0 -1.60001,-0.08 -2.32,-0.24 -0.72001,-0.16 -1.41334,-0.38667 -2.08,-0.68 l 0,7.92 -5.96,0 0,-27.72 c 0.53333,-0.15998 1.14666,-0.30665 1.84,-0.44 0.69333,-0.15998 1.41333,-0.29332 2.16,-0.4 0.77333,-0.10665 1.54666,-0.18665 2.32,-0.24 0.79999,-0.08 1.55999,-0.11998 2.28,-0.12 1.73332,2e-5 3.27999,0.26668 4.64,0.8 1.35998,0.50668 2.50665,1.24002 3.44,2.2 0.93331,0.93335 1.63998,2.08001 2.12,3.44 0.50664,1.36001 0.75998,2.88001 0.76,4.56" />
      <path
         inkscape:connector-curvature="0"
         id="path3964"
         style="font-size:40px;font-style:normal;font-variant:normal;font-weight:bold;font-stretch:normal;text-align:center;line-height:125%;letter-spacing:0px;word-spacing:0px;text-anchor:middle;fill:#000000;fill-opacity:1;stroke:#ffffff;font-family:Ubuntu;-inkscape-font-specification:Ubuntu Bold;stroke-width:2;stroke-miterlimit:4;stroke-dasharray:none;stroke-opacity:1"
         d="m 244.30813,445.23346 c -3e-5,1.65334 -0.24003,3.17334 -0.72001,4.56 -0.48002,1.36 -1.17335,2.53333 -2.08,3.52 -0.90668,0.96 -2.00001,1.70666 -3.28,2.24 -1.25334,0.53333 -2.66668,0.8 -4.24,0.8 -1.54667,0 -2.96,-0.26667 -4.24,-0.8 -1.25334,-0.53334 -2.33333,-1.28 -3.24,-2.24 -0.90667,-0.98667 -1.61333,-2.16 -2.12,-3.52 -0.50666,-1.38666 -0.76,-2.90666 -0.76,-4.56 0,-1.65333 0.25334,-3.15999 0.76,-4.52 0.53334,-1.35999 1.25333,-2.51999 2.16,-3.48 0.93333,-0.95998 2.02666,-1.70665 3.28,-2.24 1.28,-0.53332 2.66666,-0.79998 4.16,-0.8 1.51999,2e-5 2.90666,0.26668 4.16,0.8 1.27999,0.53335 2.37332,1.28002 3.28,2.24 0.90665,0.96001 1.61332,2.12001 2.12,3.48 0.50665,1.36001 0.75998,2.86667 0.76001,4.52 m -6.08001,0 c -1e-5,-1.83999 -0.37334,-3.27999 -1.12,-4.32 -0.72001,-1.06665 -1.76001,-1.59999 -3.12,-1.6 -1.36001,10e-6 -2.41334,0.53335 -3.16,1.6 -0.74667,1.04001 -1.12,2.48001 -1.12,4.32 0,1.84 0.37333,3.30667 1.12,4.4 0.74666,1.06667 1.79999,1.6 3.16,1.6 1.35999,0 2.39999,-0.53333 3.12,-1.6 0.74666,-1.09333 1.11999,-2.56 1.12,-4.4" />
    </g>
    <g
       transform="translate(350.62204,86.12234)"
       id="g3966"
       style="stroke-width:2;stroke-miterlimit:4;stroke-dasharray:none;stroke:#ffffff;stroke-opacity:1">
      <path
         inkscape:connector-curvature="0"
         id="path3968"
         style="font-size:40px;font-style:normal;font-variant:normal;font-weight:bold;font-stretch:normal;text-align:center;line-height:125%;letter-spacing:0px;word-spacing:0px;text-anchor:middle;fill:#000000;fill-opacity:1;stroke:#ffffff;font-family:Ubuntu;-inkscape-font-specification:Ubuntu Bold;stroke-width:2;stroke-miterlimit:4;stroke-dasharray:none;stroke-opacity:1"
         d="m 136.06656,556.35346 c -4.50668,0 -7.94667,-1.25334 -10.32,-3.76 -2.34667,-2.50666 -3.52,-6.06666 -3.52,-10.68 0,-2.29332 0.36,-4.33332 1.08,-6.12 0.72,-1.81332 1.70666,-3.33331 2.96,-4.56 1.25333,-1.25331 2.74666,-2.19998 4.48,-2.84 1.73332,-0.63998 3.61332,-0.95998 5.64,-0.96 1.17332,2e-5 2.23998,0.0934 3.2,0.28 0.95998,0.16002 1.79998,0.36002 2.52,0.6 0.71998,0.21336 1.31998,0.44002 1.8,0.68 0.47998,0.24002 0.82664,0.42669 1.04,0.56 l -1.8,5.04 c -0.85335,-0.45332 -1.85335,-0.83998 -3,-1.16 -1.12002,-0.31998 -2.40002,-0.47998 -3.84,-0.48 -0.96001,2e-5 -1.90668,0.16002 -2.84,0.48 -0.90668,0.32002 -1.72001,0.84002 -2.44,1.56 -0.69334,0.69335 -1.25334,1.60002 -1.68,2.72 -0.42667,1.12001 -0.64001,2.48001 -0.64,4.08 -1e-5,1.28001 0.13333,2.48001 0.4,3.6 0.29333,1.09334 0.74666,2.04 1.36,2.84 0.63999,0.8 1.46666,1.44 2.48,1.92 1.01332,0.45333 2.23999,0.68 3.68,0.68 0.90665,0 1.71998,-0.0533 2.44,-0.16 0.71998,-0.10667 1.35998,-0.22667 1.92,-0.36 0.55998,-0.16 1.05331,-0.33333 1.48,-0.52 0.42665,-0.18666 0.81331,-0.36 1.16,-0.52 l 1.72,5 c -0.88002,0.53333 -2.12002,1.01333 -3.72,1.44 -1.60002,0.42666 -3.45335,0.64 -5.56,0.64" />
      <path
         inkscape:connector-curvature="0"
         id="path3970"
         style="font-size:40px;font-style:normal;font-variant:normal;font-weight:bold;font-stretch:normal;text-align:center;line-height:125%;letter-spacing:0px;word-spacing:0px;text-anchor:middle;fill:#000000;fill-opacity:1;stroke:#ffffff;font-family:Ubuntu;-inkscape-font-specification:Ubuntu Bold;stroke-width:2;stroke-miterlimit:4;stroke-dasharray:none;stroke-opacity:1"
         d="m 168.17531,545.23346 c -2e-5,1.65334 -0.24002,3.17334 -0.72,4.56 -0.48002,1.36 -1.17335,2.53333 -2.08,3.52 -0.90668,0.96 -2.00002,1.70666 -3.28,2.24 -1.25335,0.53333 -2.66668,0.8 -4.24,0.8 -1.54667,0 -2.96001,-0.26667 -4.24,-0.8 -1.25334,-0.53334 -2.33334,-1.28 -3.24,-2.24 -0.90667,-0.98667 -1.61333,-2.16 -2.12,-3.52 -0.50667,-1.38666 -0.76,-2.90666 -0.76,-4.56 0,-1.65333 0.25333,-3.15999 0.76,-4.52 0.53333,-1.35999 1.25333,-2.51999 2.16,-3.48 0.93333,-0.95998 2.02666,-1.70665 3.28,-2.24 1.27999,-0.53332 2.66666,-0.79998 4.16,-0.8 1.51999,2e-5 2.90665,0.26668 4.16,0.8 1.27998,0.53335 2.37332,1.28002 3.28,2.24 0.90665,0.96001 1.61331,2.12001 2.12,3.48 0.50665,1.36001 0.75998,2.86667 0.76,4.52 m -6.08,0 c -1e-5,-1.83999 -0.37335,-3.27999 -1.12,-4.32 -0.72001,-1.06665 -1.76001,-1.59999 -3.12,-1.6 -1.36001,1e-5 -2.41334,0.53335 -3.16,1.6 -0.74667,1.04001 -1.12001,2.48001 -1.12,4.32 -1e-5,1.84 0.37333,3.30667 1.12,4.4 0.74666,1.06667 1.79999,1.6 3.16,1.6 1.35999,0 2.39999,-0.53333 3.12,-1.6 0.74665,-1.09333 1.11999,-2.56 1.12,-4.4" />
      <path
         inkscape:connector-curvature="0"
         id="path3972"
         style="font-size:40px;font-style:normal;font-variant:normal;font-weight:bold;font-stretch:normal;text-align:center;line-height:125%;letter-spacing:0px;word-spacing:0px;text-anchor:middle;fill:#000000;fill-opacity:1;stroke:#ffffff;font-family:Ubuntu;-inkscape-font-specification:Ubuntu Bold;stroke-width:2;stroke-miterlimit:4;stroke-dasharray:none;stroke-opacity:1"
         d="m 178.83219,551.51346 c 1.09332,0 1.86665,-0.10667 2.32,-0.32 0.45332,-0.21333 0.67999,-0.62667 0.68,-1.24 -1e-5,-0.48 -0.29335,-0.89333 -0.88,-1.24 -0.58668,-0.37333 -1.48001,-0.78666 -2.68,-1.24 -0.93334,-0.34666 -1.78668,-0.70666 -2.56,-1.08 -0.74667,-0.37333 -1.38667,-0.81333 -1.92,-1.32 -0.53334,-0.53333 -0.94667,-1.15999 -1.24,-1.88 -0.29334,-0.71999 -0.44,-1.58666 -0.44,-2.6 0,-1.97332 0.73333,-3.53332 2.2,-4.68 1.46666,-1.14665 3.47999,-1.71998 6.04,-1.72 1.27999,2e-5 2.50665,0.12002 3.68,0.36 1.17332,0.21335 2.10665,0.45335 2.8,0.72 l -1.04,4.64 c -0.69335,-0.23999 -1.45335,-0.45332 -2.28,-0.64 -0.80002,-0.18665 -1.70668,-0.27999 -2.72,-0.28 -1.86668,10e-6 -2.80001,0.52001 -2.8,1.56 -1e-5,0.24001 0.04,0.45334 0.12,0.64 0.08,0.18668 0.23999,0.37334 0.48,0.56 0.23999,0.16001 0.55999,0.34668 0.96,0.56 0.42665,0.18668 0.95999,0.40001 1.6,0.64 1.30665,0.48001 2.38665,0.96001 3.24,1.44 0.85332,0.45334 1.51998,0.96001 2,1.52 0.50665,0.53334 0.85331,1.13334 1.04,1.8 0.21331,0.66667 0.31998,1.44 0.32,2.32 -2e-5,2.08 -0.78669,3.65333 -2.36,4.72 -1.54668,1.06666 -3.74668,1.6 -6.6,1.6 -1.86668,0 -3.42667,-0.16 -4.68,-0.48 -1.22667,-0.32 -2.08,-0.58667 -2.56,-0.8 l 1,-4.84 c 1.01333,0.4 2.05333,0.72 3.12,0.96 1.06666,0.21333 2.11999,0.32 3.16,0.32" />
      <path
         inkscape:connector-curvature="0"
         id="path3974"
         style="font-size:40px;font-style:normal;font-variant:normal;font-weight:bold;font-stretch:normal;text-align:center;line-height:125%;letter-spacing:0px;word-spacing:0px;text-anchor:middle;fill:#000000;fill-opacity:1;stroke:#ffffff;font-family:Ubuntu;-inkscape-font-specification:Ubuntu Bold;stroke-width:2;stroke-miterlimit:4;stroke-dasharray:none;stroke-opacity:1"
         d="m 191.96719,529.51346 5.96,-0.96 0,6.2 7.16,0 0,4.96 -7.16,0 0,7.4 c -1e-5,1.25334 0.21332,2.25334 0.64,3 0.45332,0.74667 1.34665,1.12 2.68,1.12 0.63998,0 1.29332,-0.0533 1.96,-0.16 0.69332,-0.13333 1.31998,-0.30667 1.88,-0.52 l 0.84,4.64 c -0.72002,0.29333 -1.52002,0.54666 -2.4,0.76 -0.88002,0.21333 -1.96001,0.32 -3.24,0.32 -1.62668,0 -2.97334,-0.21334 -4.04,-0.64 -1.06667,-0.45334 -1.92001,-1.06667 -2.56,-1.84 -0.64001,-0.8 -1.09334,-1.76 -1.36,-2.88 -0.24001,-1.12 -0.36001,-2.36 -0.36,-3.72 l 0,-17.68" />
      <path
         inkscape:connector-curvature="0"
         id="path3976"
         style="font-size:40px;font-style:normal;font-variant:normal;font-weight:bold;font-stretch:normal;text-align:center;line-height:125%;letter-spacing:0px;word-spacing:0px;text-anchor:middle;fill:#000000;fill-opacity:1;stroke:#ffffff;font-family:Ubuntu;-inkscape-font-specification:Ubuntu Bold;stroke-width:2;stroke-miterlimit:4;stroke-dasharray:none;stroke-opacity:1"
         d="m 208.12031,545.43346 c 0,-1.86666 0.28,-3.49332 0.84,-4.88 0.58667,-1.41332 1.34667,-2.58665 2.28,-3.52 0.93333,-0.93332 2,-1.63998 3.2,-2.12 1.22666,-0.47998 2.47999,-0.71998 3.76,-0.72 2.98665,2e-5 5.34665,0.92002 7.08,2.76 1.73332,1.81335 2.59998,4.49334 2.6,8.04 -2e-5,0.34667 -0.0134,0.73334 -0.04,1.16 -0.0267,0.40001 -0.0533,0.76 -0.08,1.08 l -13.52,0 c 0.13333,1.22667 0.70666,2.2 1.72,2.92 1.01333,0.72 2.37332,1.08 4.08,1.08 1.09332,0 2.15999,-0.0933 3.2,-0.28 1.06665,-0.21333 1.93332,-0.46667 2.6,-0.76 l 0.8,4.84 c -0.32002,0.16 -0.74668,0.32 -1.28,0.48 -0.53335,0.16 -1.13335,0.29333 -1.8,0.4 -0.64001,0.13333 -1.33335,0.24 -2.08,0.32 -0.74668,0.08 -1.49334,0.12 -2.24,0.12 -1.89334,0 -3.54667,-0.28 -4.96,-0.84 -1.38667,-0.56 -2.54667,-1.32 -3.48,-2.28 -0.90667,-0.98667 -1.58667,-2.14667 -2.04,-3.48 -0.42667,-1.33333 -0.64,-2.77333 -0.64,-4.32 m 14,-2.28 c -0.0267,-0.50666 -0.12001,-0.99999 -0.28,-1.48 -0.13335,-0.47999 -0.36001,-0.90666 -0.68,-1.28 -0.29335,-0.37332 -0.68001,-0.67999 -1.16,-0.92 -0.45334,-0.23999 -1.02668,-0.35999 -1.72,-0.36 -0.66668,10e-6 -1.24001,0.12001 -1.72,0.36 -0.48001,0.21335 -0.88001,0.50668 -1.2,0.88 -0.32001,0.37334 -0.57334,0.81334 -0.76,1.32 -0.16001,0.48001 -0.28001,0.97334 -0.36,1.48 l 7.88,0" />
    </g>
  </g>
</svg>
